M48
;DRILL file {KiCad 6.0.0-rc1-unknown-0cca1c6~65~ubuntu16.04.1} date Fri Aug  3 10:42:40 2018
;FORMAT={-:-/ absolute / inch / decimal}
FMAT,2
INCH,TZ
T1C0.0118
T2C0.0315
T3C0.0512
%
G90
G05
M72
T1
X4.28Y-3.46
X4.3Y-5.34
X4.36Y-4.38
X4.39Y-4.38
X4.4157Y-4.3796
X4.432Y-4.64
X4.432Y-4.76
X4.48Y-4.25
X4.48Y-4.38
X4.53Y-5.34
X4.64Y-3.46
X4.75Y-5.34
X4.76Y-4.25
X4.76Y-4.38
X4.76Y-4.64
X4.76Y-4.76
X5.0099Y-3.9574
X5.01Y-3.69
X5.01Y-3.835
X5.06Y-4.53
X5.095Y-5.0394
X5.1299Y-4.8474
X5.13Y-4.58
X5.13Y-4.725
X5.1606Y-3.88
X5.1606Y-4.28
X5.21Y-4.53
X5.245Y-4.87
X5.3994Y-3.98
X5.3994Y-4.08
X5.3994Y-4.18
X5.3994Y-4.28
X5.48Y-3.46
X5.505Y-3.75
X5.5406Y-4.31
X5.5406Y-4.47
X5.59Y-3.835
X5.59Y-3.985
X5.59Y-4.105
X5.595Y-4.805
X5.6Y-5.09
X5.621Y-4.47
X5.65Y-3.545
X5.6685Y-4.5
X5.67Y-3.835
X5.67Y-3.985
X5.67Y-4.105
X5.68Y-4.57
X5.69Y-4.805
X5.69Y-5.09
X5.785Y-4.805
X5.785Y-5.09
X5.82Y-4.11
X5.87Y-4.805
X5.87Y-5.09
X5.8715Y-4.4391
X5.875Y-4.24
X5.875Y-4.34
X5.875Y-4.56
X5.92Y-3.669
X5.95Y-4.38
X5.95Y-4.42
X5.95Y-5.09
X5.955Y-4.805
X6.1706Y-4.65
X6.19Y-5.165
X6.2494Y-4.95
X6.325Y-3.785
X6.36Y-3.675
X6.49Y-4.29
X6.49Y-4.365
X6.49Y-4.46
X6.495Y-3.585
X6.5227Y-3.8065
X6.5227Y-4.0135
X6.5227Y-4.7465
X6.5227Y-4.9535
T2
X4.31Y-3.54
X4.31Y-3.64
X4.31Y-3.74
X4.31Y-3.84
X4.31Y-3.94
X4.31Y-4.04
X4.31Y-4.14
X4.31Y-4.24
X4.31Y-4.34
X4.31Y-4.44
X4.31Y-4.54
X4.31Y-4.64
X4.31Y-4.74
X4.31Y-4.84
X4.31Y-4.94
X4.91Y-3.54
X4.91Y-3.64
X4.91Y-3.74
X4.91Y-3.84
X4.91Y-3.94
X4.91Y-4.04
X4.91Y-4.14
X4.91Y-4.24
X4.91Y-4.34
X4.91Y-4.44
X4.91Y-4.54
X4.91Y-4.64
X4.91Y-4.74
X4.91Y-4.84
X4.91Y-4.94
T3
X5.28Y-3.5031
X5.28Y-3.7
X5.4769Y-3.6016
T0
M30
