G04 #@! TF.GenerationSoftware,KiCad,Pcbnew,6.0.0-rc1-unknown-0cca1c6~65~ubuntu16.04.1*
G04 #@! TF.CreationDate,2018-08-03T10:42:42+02:00*
G04 #@! TF.ProjectId,ArduinoSpecAn,41726475696E6F53706563416E2E6B69,1.0*
G04 #@! TF.SameCoordinates,Original*
G04 #@! TF.FileFunction,Copper,L2,Bot,Signal*
G04 #@! TF.FilePolarity,Positive*
%FSLAX46Y46*%
G04 Gerber Fmt 4.6, Leading zero omitted, Abs format (unit mm)*
G04 Created by KiCad (PCBNEW 6.0.0-rc1-unknown-0cca1c6~65~ubuntu16.04.1) date Fri Aug  3 10:42:42 2018*
%MOMM*%
%LPD*%
G01*
G04 APERTURE LIST*
G04 #@! TA.AperFunction,ConnectorPad*
%ADD10R,4.200000X1.200000*%
G04 #@! TD*
G04 #@! TA.AperFunction,ComponentPad*
%ADD11R,1.600000X1.600000*%
G04 #@! TD*
G04 #@! TA.AperFunction,ComponentPad*
%ADD12O,1.600000X1.600000*%
G04 #@! TD*
G04 #@! TA.AperFunction,ComponentPad*
%ADD13C,2.340000*%
G04 #@! TD*
G04 #@! TA.AperFunction,ViaPad*
%ADD14C,0.500000*%
G04 #@! TD*
G04 #@! TA.AperFunction,Conductor*
%ADD15C,0.342000*%
G04 #@! TD*
G04 #@! TA.AperFunction,Conductor*
%ADD16C,0.200000*%
G04 #@! TD*
G04 #@! TA.AperFunction,Conductor*
%ADD17C,0.203200*%
G04 #@! TD*
G04 APERTURE END LIST*
D10*
G04 #@! TO.P,J1,4*
G04 #@! TO.N,GND*
X165676000Y-120560000D03*
G04 #@! TO.P,J1,5*
X165676000Y-125820000D03*
G04 #@! TD*
G04 #@! TO.P,J2,4*
G04 #@! TO.N,GND*
X165676000Y-96684000D03*
G04 #@! TO.P,J2,5*
X165676000Y-101944000D03*
G04 #@! TD*
D11*
G04 #@! TO.P,A1,1*
G04 #@! TO.N,N/C*
X124714000Y-125476000D03*
D12*
G04 #@! TO.P,A1,17*
X109474000Y-92456000D03*
G04 #@! TO.P,A1,2*
X124714000Y-122936000D03*
G04 #@! TO.P,A1,18*
X109474000Y-94996000D03*
G04 #@! TO.P,A1,3*
X124714000Y-120396000D03*
G04 #@! TO.P,A1,19*
G04 #@! TO.N,/A0*
X109474000Y-97536000D03*
G04 #@! TO.P,A1,4*
G04 #@! TO.N,GND*
X124714000Y-117856000D03*
G04 #@! TO.P,A1,20*
G04 #@! TO.N,/A1*
X109474000Y-100076000D03*
G04 #@! TO.P,A1,5*
G04 #@! TO.N,N/C*
X124714000Y-115316000D03*
G04 #@! TO.P,A1,21*
G04 #@! TO.N,/A2*
X109474000Y-102616000D03*
G04 #@! TO.P,A1,6*
G04 #@! TO.N,N/C*
X124714000Y-112776000D03*
G04 #@! TO.P,A1,22*
G04 #@! TO.N,/SLD*
X109474000Y-105156000D03*
G04 #@! TO.P,A1,7*
G04 #@! TO.N,N/C*
X124714000Y-110236000D03*
G04 #@! TO.P,A1,23*
G04 #@! TO.N,/SDA*
X109474000Y-107696000D03*
G04 #@! TO.P,A1,8*
G04 #@! TO.N,N/C*
X124714000Y-107696000D03*
G04 #@! TO.P,A1,24*
G04 #@! TO.N,/SCL*
X109474000Y-110236000D03*
G04 #@! TO.P,A1,9*
G04 #@! TO.N,N/C*
X124714000Y-105156000D03*
G04 #@! TO.P,A1,25*
X109474000Y-112776000D03*
G04 #@! TO.P,A1,10*
X124714000Y-102616000D03*
G04 #@! TO.P,A1,26*
X109474000Y-115316000D03*
G04 #@! TO.P,A1,11*
X124714000Y-100076000D03*
G04 #@! TO.P,A1,27*
G04 #@! TO.N,/5V*
X109474000Y-117856000D03*
G04 #@! TO.P,A1,12*
G04 #@! TO.N,N/C*
X124714000Y-97536000D03*
G04 #@! TO.P,A1,28*
X109474000Y-120396000D03*
G04 #@! TO.P,A1,13*
X124714000Y-94996000D03*
G04 #@! TO.P,A1,29*
G04 #@! TO.N,GND*
X109474000Y-122936000D03*
G04 #@! TO.P,A1,14*
G04 #@! TO.N,N/C*
X124714000Y-92456000D03*
G04 #@! TO.P,A1,30*
X109474000Y-125476000D03*
G04 #@! TO.P,A1,15*
X124714000Y-89916000D03*
G04 #@! TO.P,A1,16*
X109474000Y-89916000D03*
G04 #@! TD*
D13*
G04 #@! TO.P,Pot1,1*
G04 #@! TO.N,Net-(C3-Pad2)*
X134112000Y-93980000D03*
G04 #@! TO.P,Pot1,2*
G04 #@! TO.N,Net-(Pot1-Pad2)*
X139112000Y-91480000D03*
G04 #@! TO.P,Pot1,3*
G04 #@! TO.N,N/C*
X134112000Y-88980000D03*
G04 #@! TD*
D14*
G04 #@! TO.N,*
X139192000Y-87884000D03*
X143510000Y-90043000D03*
G04 #@! TO.N,/5V*
X133223000Y-123698000D03*
X156734000Y-118110000D03*
X158734000Y-125730000D03*
X128524000Y-115062000D03*
X142774500Y-113538000D03*
X132334000Y-115062000D03*
X150368000Y-93191500D03*
G04 #@! TO.N,GND*
X164846000Y-108966000D03*
X164846000Y-113284000D03*
X164846000Y-110871000D03*
X164973000Y-91059000D03*
X160655000Y-96139000D03*
X161544000Y-93345000D03*
X157226000Y-131191000D03*
X139827000Y-95250000D03*
X147828000Y-104394000D03*
X141986000Y-104267000D03*
X141986000Y-101219000D03*
X141986000Y-97409000D03*
X149225000Y-107696000D03*
X149225000Y-115824000D03*
X149225000Y-110236000D03*
X130302000Y-116332000D03*
X130302000Y-120015000D03*
X142240000Y-129286000D03*
X151130000Y-129286000D03*
X149098000Y-129286000D03*
X146939000Y-129286000D03*
X144526000Y-129286000D03*
X142113000Y-122047000D03*
X151257000Y-122047000D03*
X149098000Y-122047000D03*
X146939000Y-122047000D03*
X144526000Y-122047000D03*
X165676000Y-120560000D03*
X165676000Y-125820000D03*
X165676000Y-101944000D03*
X165676000Y-96684000D03*
X129413000Y-128000000D03*
X115062000Y-135636000D03*
X109220000Y-135636000D03*
X120650000Y-135636000D03*
X140732000Y-113538000D03*
X140732000Y-109474000D03*
X137144000Y-108712000D03*
X137144000Y-106172000D03*
X137144000Y-103632000D03*
X137144000Y-101092000D03*
X131080000Y-98552000D03*
X131080000Y-108712000D03*
X130299563Y-123124590D03*
X120904000Y-117856000D03*
X120904000Y-120904000D03*
X127254000Y-97409000D03*
X127251563Y-100518590D03*
X127254000Y-93726000D03*
X149135731Y-112752141D03*
X120904000Y-111252000D03*
X120904000Y-107950000D03*
X113792000Y-107950000D03*
X113792000Y-111252000D03*
X112573821Y-120904000D03*
X112573821Y-117856000D03*
X144018000Y-101219000D03*
X144018000Y-104267000D03*
X144018000Y-97409000D03*
G04 #@! TO.N,/A0*
X112158335Y-111242013D03*
G04 #@! TO.N,/SCL*
X151130000Y-112268000D03*
X144272000Y-116078000D03*
G04 #@! TO.N,/SLD*
X151130000Y-111252000D03*
X143980191Y-114299900D03*
G04 #@! TO.N,/A1*
X111506000Y-111252000D03*
G04 #@! TO.N,/A2*
X110744000Y-111252000D03*
G04 #@! TO.N,Net-(Pot1-Pad3)*
X117856000Y-87884000D03*
X108712000Y-87884000D03*
G04 #@! TD*
D15*
G04 #@! TO.N,*
X143510000Y-90043000D02*
X143510000Y-89154000D01*
X139192000Y-87884000D02*
X142240000Y-87884000D01*
X142240000Y-87884000D02*
X143510000Y-89154000D01*
G04 #@! TO.N,/5V*
X158734000Y-120110000D02*
X156734000Y-118110000D01*
X158734000Y-125730000D02*
X158734000Y-120110000D01*
X158734000Y-125730000D02*
X158734000Y-132604000D01*
X158734000Y-132604000D02*
X156464000Y-134874000D01*
X156464000Y-134874000D02*
X132334000Y-134874000D01*
X132334000Y-134874000D02*
X127762000Y-130302000D01*
X110273999Y-118655999D02*
X109474000Y-117856000D01*
X110890599Y-119272599D02*
X110273999Y-118655999D01*
X127400599Y-119272599D02*
X110890599Y-119272599D01*
X127762000Y-119634000D02*
X127400599Y-119272599D01*
X128016000Y-123698000D02*
X127762000Y-123444000D01*
X133223000Y-123698000D02*
X128016000Y-123698000D01*
X127762000Y-130302000D02*
X127762000Y-123444000D01*
X128524000Y-115976500D02*
X127762000Y-116738500D01*
X128524000Y-115062000D02*
X128524000Y-115976500D01*
X127762000Y-119888000D02*
X127762000Y-119634000D01*
X127762000Y-123444000D02*
X127762000Y-119888000D01*
X127400599Y-119272599D02*
X127400599Y-119233401D01*
X127762000Y-118872000D02*
X127762000Y-119888000D01*
X127400599Y-119233401D02*
X127762000Y-118872000D01*
X127762000Y-116738500D02*
X127762000Y-118872000D01*
X129616000Y-115062000D02*
X128524000Y-115062000D01*
X142342500Y-115062000D02*
X129616000Y-115062000D01*
X142774500Y-114630000D02*
X142342500Y-115062000D01*
X142774500Y-113538000D02*
X142774500Y-114630000D01*
D16*
X142774500Y-112588000D02*
X143002000Y-112360500D01*
X142774500Y-113538000D02*
X142774500Y-112588000D01*
D15*
X142774500Y-112446000D02*
X143002000Y-112218500D01*
X142774500Y-113538000D02*
X142774500Y-112446000D01*
X143002000Y-112218500D02*
X143002000Y-94742000D01*
X144552500Y-93191500D02*
X150368000Y-93191500D01*
X143002000Y-94742000D02*
X144552500Y-93191500D01*
G04 #@! TO.N,GND*
X164846000Y-110871000D02*
X164846000Y-108966000D01*
X160655000Y-96139000D02*
X160655000Y-94234000D01*
X161544000Y-93345000D02*
X160655000Y-94234000D01*
X141986000Y-97409000D02*
X141986000Y-101219000D01*
X130302000Y-120015000D02*
X130302000Y-116332000D01*
X146939000Y-129286000D02*
X149098000Y-129286000D01*
X144526000Y-129286000D02*
X142240000Y-129286000D01*
X146939000Y-122047000D02*
X149098000Y-122047000D01*
X144526000Y-122047000D02*
X142113000Y-122047000D01*
X132604000Y-131191000D02*
X129413000Y-128000000D01*
X157226000Y-131191000D02*
X132604000Y-131191000D01*
X115062000Y-135636000D02*
X120650000Y-135636000D01*
X140732000Y-113538000D02*
X140732000Y-109474000D01*
X137144000Y-100942000D02*
X137144000Y-101092000D01*
X134754000Y-98552000D02*
X137144000Y-100942000D01*
X131080000Y-98552000D02*
X134754000Y-98552000D01*
X127254000Y-97409000D02*
X127254000Y-93726000D01*
X120904000Y-111252000D02*
X120904000Y-107950000D01*
X113792000Y-107950000D02*
X113792000Y-111252000D01*
X120904000Y-120904000D02*
X112573821Y-120904000D01*
X144018000Y-97409000D02*
X144018000Y-101219000D01*
G04 #@! TO.N,/A0*
X112158335Y-110888460D02*
X112158335Y-111242013D01*
X109474000Y-97536000D02*
X112158335Y-100220335D01*
X112158335Y-100220335D02*
X112158335Y-110888460D01*
G04 #@! TO.N,/SCL*
X151130000Y-112268000D02*
X147320000Y-116078000D01*
X147320000Y-116078000D02*
X144272000Y-116078000D01*
G04 #@! TO.N,/SLD*
X144333744Y-114299900D02*
X143980191Y-114299900D01*
X148398898Y-114299900D02*
X144333744Y-114299900D01*
X150368000Y-112330798D02*
X148398898Y-114299900D01*
X151130000Y-111252000D02*
X150368000Y-112014000D01*
X150368000Y-112014000D02*
X150368000Y-112330798D01*
G04 #@! TO.N,/A1*
X111506000Y-102108000D02*
X109474000Y-100076000D01*
X111506000Y-111252000D02*
X111506000Y-102108000D01*
G04 #@! TO.N,/A2*
X110744000Y-103886000D02*
X109474000Y-102616000D01*
X110744000Y-111252000D02*
X110744000Y-103886000D01*
G04 #@! TD*
D17*
G04 #@! TO.N,GND*
G36*
X167514200Y-86263318D02*
X167514200Y-95779200D01*
X165904600Y-95779200D01*
X165828400Y-95855400D01*
X165828400Y-96531600D01*
X165848400Y-96531600D01*
X165848400Y-96836400D01*
X165828400Y-96836400D01*
X165828400Y-97512600D01*
X165904600Y-97588800D01*
X167514200Y-97588800D01*
X167514200Y-101039200D01*
X165904600Y-101039200D01*
X165828400Y-101115400D01*
X165828400Y-101791600D01*
X165848400Y-101791600D01*
X165848400Y-102096400D01*
X165828400Y-102096400D01*
X165828400Y-102772600D01*
X165904600Y-102848800D01*
X167514200Y-102848800D01*
X167514201Y-119655200D01*
X165904600Y-119655200D01*
X165828400Y-119731400D01*
X165828400Y-120407600D01*
X165848400Y-120407600D01*
X165848400Y-120712400D01*
X165828400Y-120712400D01*
X165828400Y-121388600D01*
X165904600Y-121464800D01*
X167514201Y-121464800D01*
X167514201Y-124915200D01*
X165904600Y-124915200D01*
X165828400Y-124991400D01*
X165828400Y-125667600D01*
X165848400Y-125667600D01*
X165848400Y-125972400D01*
X165828400Y-125972400D01*
X165828400Y-126648600D01*
X165904600Y-126724800D01*
X167514201Y-126724800D01*
X167514201Y-136240681D01*
X167482682Y-136272200D01*
X108107318Y-136272200D01*
X108075800Y-136240682D01*
X108075800Y-125476000D01*
X108347556Y-125476000D01*
X108433301Y-125907071D01*
X108677484Y-126272516D01*
X109042929Y-126516699D01*
X109365188Y-126580800D01*
X109582812Y-126580800D01*
X109905071Y-126516699D01*
X110270516Y-126272516D01*
X110514699Y-125907071D01*
X110600444Y-125476000D01*
X110514699Y-125044929D01*
X110270516Y-124679484D01*
X110265302Y-124676000D01*
X123603229Y-124676000D01*
X123603229Y-126276000D01*
X123626885Y-126394927D01*
X123694252Y-126495748D01*
X123795073Y-126563115D01*
X123914000Y-126586771D01*
X125514000Y-126586771D01*
X125632927Y-126563115D01*
X125733748Y-126495748D01*
X125801115Y-126394927D01*
X125824771Y-126276000D01*
X125824771Y-124676000D01*
X125801115Y-124557073D01*
X125733748Y-124456252D01*
X125632927Y-124388885D01*
X125514000Y-124365229D01*
X123914000Y-124365229D01*
X123795073Y-124388885D01*
X123694252Y-124456252D01*
X123626885Y-124557073D01*
X123603229Y-124676000D01*
X110265302Y-124676000D01*
X109905071Y-124435301D01*
X109582812Y-124371200D01*
X109365188Y-124371200D01*
X109042929Y-124435301D01*
X108677484Y-124679484D01*
X108433301Y-125044929D01*
X108347556Y-125476000D01*
X108075800Y-125476000D01*
X108075800Y-123257700D01*
X108417074Y-123257700D01*
X108499151Y-123455892D01*
X108772311Y-123789376D01*
X109152297Y-123992941D01*
X109321600Y-123954054D01*
X109321600Y-123088400D01*
X109626400Y-123088400D01*
X109626400Y-123954054D01*
X109795703Y-123992941D01*
X110175689Y-123789376D01*
X110448849Y-123455892D01*
X110530926Y-123257700D01*
X110491247Y-123088400D01*
X109626400Y-123088400D01*
X109321600Y-123088400D01*
X108456753Y-123088400D01*
X108417074Y-123257700D01*
X108075800Y-123257700D01*
X108075800Y-122936000D01*
X123587556Y-122936000D01*
X123673301Y-123367071D01*
X123917484Y-123732516D01*
X124282929Y-123976699D01*
X124605188Y-124040800D01*
X124822812Y-124040800D01*
X125145071Y-123976699D01*
X125510516Y-123732516D01*
X125754699Y-123367071D01*
X125840444Y-122936000D01*
X125754699Y-122504929D01*
X125510516Y-122139484D01*
X125145071Y-121895301D01*
X124822812Y-121831200D01*
X124605188Y-121831200D01*
X124282929Y-121895301D01*
X123917484Y-122139484D01*
X123673301Y-122504929D01*
X123587556Y-122936000D01*
X108075800Y-122936000D01*
X108075800Y-122614300D01*
X108417074Y-122614300D01*
X108456753Y-122783600D01*
X109321600Y-122783600D01*
X109321600Y-121917946D01*
X109626400Y-121917946D01*
X109626400Y-122783600D01*
X110491247Y-122783600D01*
X110530926Y-122614300D01*
X110448849Y-122416108D01*
X110175689Y-122082624D01*
X109795703Y-121879059D01*
X109626400Y-121917946D01*
X109321600Y-121917946D01*
X109152297Y-121879059D01*
X108772311Y-122082624D01*
X108499151Y-122416108D01*
X108417074Y-122614300D01*
X108075800Y-122614300D01*
X108075800Y-120396000D01*
X108347556Y-120396000D01*
X108433301Y-120827071D01*
X108677484Y-121192516D01*
X109042929Y-121436699D01*
X109365188Y-121500800D01*
X109582812Y-121500800D01*
X109905071Y-121436699D01*
X110270516Y-121192516D01*
X110514699Y-120827071D01*
X110600444Y-120396000D01*
X110514699Y-119964929D01*
X110270516Y-119599484D01*
X109905071Y-119355301D01*
X109582812Y-119291200D01*
X109365188Y-119291200D01*
X109042929Y-119355301D01*
X108677484Y-119599484D01*
X108433301Y-119964929D01*
X108347556Y-120396000D01*
X108075800Y-120396000D01*
X108075800Y-117856000D01*
X108347556Y-117856000D01*
X108433301Y-118287071D01*
X108677484Y-118652516D01*
X109042929Y-118896699D01*
X109365188Y-118960800D01*
X109582812Y-118960800D01*
X109852311Y-118907194D01*
X109970691Y-119025574D01*
X109970694Y-119025576D01*
X110521024Y-119575907D01*
X110547567Y-119615631D01*
X110704951Y-119720792D01*
X110843740Y-119748399D01*
X110843743Y-119748399D01*
X110890598Y-119757719D01*
X110937454Y-119748399D01*
X123817982Y-119748399D01*
X123673301Y-119964929D01*
X123587556Y-120396000D01*
X123673301Y-120827071D01*
X123917484Y-121192516D01*
X124282929Y-121436699D01*
X124605188Y-121500800D01*
X124822812Y-121500800D01*
X125145071Y-121436699D01*
X125510516Y-121192516D01*
X125754699Y-120827071D01*
X125840444Y-120396000D01*
X125754699Y-119964929D01*
X125610018Y-119748399D01*
X127203517Y-119748399D01*
X127286200Y-119831083D01*
X127286200Y-119934858D01*
X127286201Y-119934863D01*
X127286200Y-123397144D01*
X127276880Y-123444000D01*
X127286200Y-123490855D01*
X127286200Y-123490858D01*
X127286201Y-123490863D01*
X127286200Y-130255145D01*
X127276880Y-130302000D01*
X127286200Y-130348855D01*
X127286200Y-130348858D01*
X127313807Y-130487647D01*
X127418968Y-130645032D01*
X127458694Y-130671576D01*
X131964426Y-135177308D01*
X131990968Y-135217032D01*
X132148352Y-135322193D01*
X132287141Y-135349800D01*
X132287145Y-135349800D01*
X132333999Y-135359120D01*
X132380853Y-135349800D01*
X156417145Y-135349800D01*
X156464000Y-135359120D01*
X156510855Y-135349800D01*
X156510859Y-135349800D01*
X156649648Y-135322193D01*
X156807032Y-135217032D01*
X156833576Y-135177306D01*
X159037306Y-132973576D01*
X159077032Y-132947032D01*
X159182193Y-132789648D01*
X159209800Y-132650859D01*
X159209800Y-132650856D01*
X159219120Y-132604000D01*
X159209800Y-132557145D01*
X159209800Y-126048600D01*
X163271200Y-126048600D01*
X163271200Y-126480629D01*
X163317603Y-126592656D01*
X163403345Y-126678397D01*
X163515372Y-126724800D01*
X165447400Y-126724800D01*
X165523600Y-126648600D01*
X165523600Y-125972400D01*
X163347400Y-125972400D01*
X163271200Y-126048600D01*
X159209800Y-126048600D01*
X159209800Y-126031080D01*
X159288800Y-125840357D01*
X159288800Y-125619643D01*
X159209800Y-125428920D01*
X159209800Y-125159371D01*
X163271200Y-125159371D01*
X163271200Y-125591400D01*
X163347400Y-125667600D01*
X165523600Y-125667600D01*
X165523600Y-124991400D01*
X165447400Y-124915200D01*
X163515372Y-124915200D01*
X163403345Y-124961603D01*
X163317603Y-125047344D01*
X163271200Y-125159371D01*
X159209800Y-125159371D01*
X159209800Y-120788600D01*
X163271200Y-120788600D01*
X163271200Y-121220629D01*
X163317603Y-121332656D01*
X163403345Y-121418397D01*
X163515372Y-121464800D01*
X165447400Y-121464800D01*
X165523600Y-121388600D01*
X165523600Y-120712400D01*
X163347400Y-120712400D01*
X163271200Y-120788600D01*
X159209800Y-120788600D01*
X159209800Y-120156855D01*
X159219120Y-120109999D01*
X159209800Y-120063144D01*
X159209800Y-120063141D01*
X159182193Y-119924352D01*
X159165502Y-119899371D01*
X163271200Y-119899371D01*
X163271200Y-120331400D01*
X163347400Y-120407600D01*
X165523600Y-120407600D01*
X165523600Y-119731400D01*
X165447400Y-119655200D01*
X163515372Y-119655200D01*
X163403345Y-119701603D01*
X163317603Y-119787344D01*
X163271200Y-119899371D01*
X159165502Y-119899371D01*
X159077032Y-119766968D01*
X159037308Y-119740425D01*
X157283338Y-117986455D01*
X157204337Y-117795731D01*
X157048269Y-117639663D01*
X156844357Y-117555200D01*
X156623643Y-117555200D01*
X156419731Y-117639663D01*
X156263663Y-117795731D01*
X156179200Y-117999643D01*
X156179200Y-118220357D01*
X156263663Y-118424269D01*
X156419731Y-118580337D01*
X156610455Y-118659338D01*
X158258201Y-120307084D01*
X158258200Y-125428920D01*
X158179200Y-125619643D01*
X158179200Y-125840357D01*
X158258200Y-126031080D01*
X158258201Y-132406917D01*
X156266918Y-134398200D01*
X132531083Y-134398200D01*
X128237800Y-130104918D01*
X128237800Y-124173800D01*
X132921920Y-124173800D01*
X133112643Y-124252800D01*
X133333357Y-124252800D01*
X133537269Y-124168337D01*
X133693337Y-124012269D01*
X133777800Y-123808357D01*
X133777800Y-123587643D01*
X133693337Y-123383731D01*
X133537269Y-123227663D01*
X133333357Y-123143200D01*
X133112643Y-123143200D01*
X132921920Y-123222200D01*
X128237800Y-123222200D01*
X128237800Y-119680855D01*
X128247120Y-119633999D01*
X128237800Y-119587142D01*
X128237800Y-118918856D01*
X128247120Y-118872001D01*
X128237800Y-118825145D01*
X128237800Y-116935582D01*
X128827306Y-116346076D01*
X128867032Y-116319532D01*
X128972193Y-116162148D01*
X128999800Y-116023359D01*
X128999800Y-116023356D01*
X129009120Y-115976500D01*
X128999800Y-115929645D01*
X128999800Y-115537800D01*
X132032920Y-115537800D01*
X132223643Y-115616800D01*
X132444357Y-115616800D01*
X132635080Y-115537800D01*
X142295645Y-115537800D01*
X142342500Y-115547120D01*
X142389355Y-115537800D01*
X142389359Y-115537800D01*
X142528148Y-115510193D01*
X142685532Y-115405032D01*
X142712076Y-115365306D01*
X143077808Y-114999575D01*
X143117532Y-114973032D01*
X143222693Y-114815648D01*
X143250300Y-114676859D01*
X143250300Y-114676856D01*
X143259620Y-114630001D01*
X143250300Y-114583145D01*
X143250300Y-114189543D01*
X143425391Y-114189543D01*
X143425391Y-114410257D01*
X143509854Y-114614169D01*
X143665922Y-114770237D01*
X143869834Y-114854700D01*
X144090548Y-114854700D01*
X144281271Y-114775700D01*
X147949418Y-114775700D01*
X147122918Y-115602200D01*
X144573080Y-115602200D01*
X144382357Y-115523200D01*
X144161643Y-115523200D01*
X143957731Y-115607663D01*
X143801663Y-115763731D01*
X143717200Y-115967643D01*
X143717200Y-116188357D01*
X143801663Y-116392269D01*
X143957731Y-116548337D01*
X144161643Y-116632800D01*
X144382357Y-116632800D01*
X144573080Y-116553800D01*
X147273145Y-116553800D01*
X147320000Y-116563120D01*
X147366855Y-116553800D01*
X147366859Y-116553800D01*
X147505648Y-116526193D01*
X147663032Y-116421032D01*
X147689576Y-116381306D01*
X151253544Y-112817338D01*
X151444269Y-112738337D01*
X151600337Y-112582269D01*
X151684800Y-112378357D01*
X151684800Y-112157643D01*
X151600337Y-111953731D01*
X151444269Y-111797663D01*
X151353342Y-111760000D01*
X151444269Y-111722337D01*
X151600337Y-111566269D01*
X151684800Y-111362357D01*
X151684800Y-111141643D01*
X151600337Y-110937731D01*
X151444269Y-110781663D01*
X151240357Y-110697200D01*
X151019643Y-110697200D01*
X150815731Y-110781663D01*
X150659663Y-110937731D01*
X150580662Y-111128456D01*
X150064694Y-111644424D01*
X150024968Y-111670968D01*
X149919807Y-111828353D01*
X149892200Y-111967142D01*
X149892200Y-111967145D01*
X149882880Y-112014000D01*
X149892200Y-112060855D01*
X149892200Y-112133716D01*
X148201816Y-113824100D01*
X144281271Y-113824100D01*
X144090548Y-113745100D01*
X143869834Y-113745100D01*
X143665922Y-113829563D01*
X143509854Y-113985631D01*
X143425391Y-114189543D01*
X143250300Y-114189543D01*
X143250300Y-113839080D01*
X143329300Y-113648357D01*
X143329300Y-113427643D01*
X143250300Y-113236920D01*
X143250300Y-112684673D01*
X143316427Y-112618546D01*
X143383313Y-112518445D01*
X143387336Y-112498220D01*
X143450193Y-112404148D01*
X143477800Y-112265359D01*
X143477800Y-112265356D01*
X143487120Y-112218500D01*
X143477800Y-112171645D01*
X143477800Y-102172600D01*
X163271200Y-102172600D01*
X163271200Y-102604629D01*
X163317603Y-102716656D01*
X163403345Y-102802397D01*
X163515372Y-102848800D01*
X165447400Y-102848800D01*
X165523600Y-102772600D01*
X165523600Y-102096400D01*
X163347400Y-102096400D01*
X163271200Y-102172600D01*
X143477800Y-102172600D01*
X143477800Y-101283371D01*
X163271200Y-101283371D01*
X163271200Y-101715400D01*
X163347400Y-101791600D01*
X165523600Y-101791600D01*
X165523600Y-101115400D01*
X165447400Y-101039200D01*
X163515372Y-101039200D01*
X163403345Y-101085603D01*
X163317603Y-101171344D01*
X163271200Y-101283371D01*
X143477800Y-101283371D01*
X143477800Y-96912600D01*
X163271200Y-96912600D01*
X163271200Y-97344629D01*
X163317603Y-97456656D01*
X163403345Y-97542397D01*
X163515372Y-97588800D01*
X165447400Y-97588800D01*
X165523600Y-97512600D01*
X165523600Y-96836400D01*
X163347400Y-96836400D01*
X163271200Y-96912600D01*
X143477800Y-96912600D01*
X143477800Y-96023371D01*
X163271200Y-96023371D01*
X163271200Y-96455400D01*
X163347400Y-96531600D01*
X165523600Y-96531600D01*
X165523600Y-95855400D01*
X165447400Y-95779200D01*
X163515372Y-95779200D01*
X163403345Y-95825603D01*
X163317603Y-95911344D01*
X163271200Y-96023371D01*
X143477800Y-96023371D01*
X143477800Y-94939082D01*
X144749583Y-93667300D01*
X150066920Y-93667300D01*
X150257643Y-93746300D01*
X150478357Y-93746300D01*
X150682269Y-93661837D01*
X150838337Y-93505769D01*
X150922800Y-93301857D01*
X150922800Y-93081143D01*
X150838337Y-92877231D01*
X150682269Y-92721163D01*
X150478357Y-92636700D01*
X150257643Y-92636700D01*
X150066920Y-92715700D01*
X144599355Y-92715700D01*
X144552499Y-92706380D01*
X144505644Y-92715700D01*
X144505641Y-92715700D01*
X144366852Y-92743307D01*
X144209468Y-92848468D01*
X144182925Y-92888192D01*
X142698692Y-94372426D01*
X142658969Y-94398968D01*
X142632427Y-94438691D01*
X142632425Y-94438693D01*
X142553807Y-94556353D01*
X142516880Y-94742000D01*
X142526201Y-94788860D01*
X142526200Y-112021418D01*
X142471192Y-112076426D01*
X142431469Y-112102968D01*
X142404927Y-112142691D01*
X142404925Y-112142693D01*
X142326307Y-112260353D01*
X142289380Y-112446000D01*
X142298701Y-112492860D01*
X142298700Y-113236919D01*
X142219700Y-113427643D01*
X142219700Y-113648357D01*
X142298700Y-113839081D01*
X142298701Y-114432917D01*
X142145418Y-114586200D01*
X132635080Y-114586200D01*
X132444357Y-114507200D01*
X132223643Y-114507200D01*
X132032920Y-114586200D01*
X128825080Y-114586200D01*
X128634357Y-114507200D01*
X128413643Y-114507200D01*
X128209731Y-114591663D01*
X128053663Y-114747731D01*
X127969200Y-114951643D01*
X127969200Y-115172357D01*
X128048200Y-115363081D01*
X128048201Y-115779417D01*
X127458694Y-116368924D01*
X127418968Y-116395468D01*
X127313807Y-116552853D01*
X127286200Y-116691642D01*
X127286200Y-116691645D01*
X127276880Y-116738500D01*
X127286200Y-116785356D01*
X127286201Y-118674917D01*
X127164319Y-118796799D01*
X125252500Y-118796799D01*
X125415689Y-118709376D01*
X125688849Y-118375892D01*
X125770926Y-118177700D01*
X125731247Y-118008400D01*
X124866400Y-118008400D01*
X124866400Y-118028400D01*
X124561600Y-118028400D01*
X124561600Y-118008400D01*
X123696753Y-118008400D01*
X123657074Y-118177700D01*
X123739151Y-118375892D01*
X124012311Y-118709376D01*
X124175500Y-118796799D01*
X111087682Y-118796799D01*
X110643576Y-118352694D01*
X110643574Y-118352691D01*
X110525194Y-118234311D01*
X110600444Y-117856000D01*
X110536455Y-117534300D01*
X123657074Y-117534300D01*
X123696753Y-117703600D01*
X124561600Y-117703600D01*
X124561600Y-116837946D01*
X124866400Y-116837946D01*
X124866400Y-117703600D01*
X125731247Y-117703600D01*
X125770926Y-117534300D01*
X125688849Y-117336108D01*
X125415689Y-117002624D01*
X125035703Y-116799059D01*
X124866400Y-116837946D01*
X124561600Y-116837946D01*
X124392297Y-116799059D01*
X124012311Y-117002624D01*
X123739151Y-117336108D01*
X123657074Y-117534300D01*
X110536455Y-117534300D01*
X110514699Y-117424929D01*
X110270516Y-117059484D01*
X109905071Y-116815301D01*
X109582812Y-116751200D01*
X109365188Y-116751200D01*
X109042929Y-116815301D01*
X108677484Y-117059484D01*
X108433301Y-117424929D01*
X108347556Y-117856000D01*
X108075800Y-117856000D01*
X108075800Y-115316000D01*
X108347556Y-115316000D01*
X108433301Y-115747071D01*
X108677484Y-116112516D01*
X109042929Y-116356699D01*
X109365188Y-116420800D01*
X109582812Y-116420800D01*
X109905071Y-116356699D01*
X110270516Y-116112516D01*
X110514699Y-115747071D01*
X110600444Y-115316000D01*
X123587556Y-115316000D01*
X123673301Y-115747071D01*
X123917484Y-116112516D01*
X124282929Y-116356699D01*
X124605188Y-116420800D01*
X124822812Y-116420800D01*
X125145071Y-116356699D01*
X125510516Y-116112516D01*
X125754699Y-115747071D01*
X125840444Y-115316000D01*
X125754699Y-114884929D01*
X125510516Y-114519484D01*
X125145071Y-114275301D01*
X124822812Y-114211200D01*
X124605188Y-114211200D01*
X124282929Y-114275301D01*
X123917484Y-114519484D01*
X123673301Y-114884929D01*
X123587556Y-115316000D01*
X110600444Y-115316000D01*
X110514699Y-114884929D01*
X110270516Y-114519484D01*
X109905071Y-114275301D01*
X109582812Y-114211200D01*
X109365188Y-114211200D01*
X109042929Y-114275301D01*
X108677484Y-114519484D01*
X108433301Y-114884929D01*
X108347556Y-115316000D01*
X108075800Y-115316000D01*
X108075800Y-112776000D01*
X108347556Y-112776000D01*
X108433301Y-113207071D01*
X108677484Y-113572516D01*
X109042929Y-113816699D01*
X109365188Y-113880800D01*
X109582812Y-113880800D01*
X109905071Y-113816699D01*
X110270516Y-113572516D01*
X110514699Y-113207071D01*
X110600444Y-112776000D01*
X123587556Y-112776000D01*
X123673301Y-113207071D01*
X123917484Y-113572516D01*
X124282929Y-113816699D01*
X124605188Y-113880800D01*
X124822812Y-113880800D01*
X125145071Y-113816699D01*
X125510516Y-113572516D01*
X125754699Y-113207071D01*
X125840444Y-112776000D01*
X125754699Y-112344929D01*
X125510516Y-111979484D01*
X125145071Y-111735301D01*
X124822812Y-111671200D01*
X124605188Y-111671200D01*
X124282929Y-111735301D01*
X123917484Y-111979484D01*
X123673301Y-112344929D01*
X123587556Y-112776000D01*
X110600444Y-112776000D01*
X110514699Y-112344929D01*
X110270516Y-111979484D01*
X109905071Y-111735301D01*
X109582812Y-111671200D01*
X109365188Y-111671200D01*
X109042929Y-111735301D01*
X108677484Y-111979484D01*
X108433301Y-112344929D01*
X108347556Y-112776000D01*
X108075800Y-112776000D01*
X108075800Y-97536000D01*
X108347556Y-97536000D01*
X108433301Y-97967071D01*
X108677484Y-98332516D01*
X109042929Y-98576699D01*
X109365188Y-98640800D01*
X109582812Y-98640800D01*
X109852311Y-98587194D01*
X111682535Y-100417418D01*
X111682535Y-101611652D01*
X110525194Y-100454311D01*
X110600444Y-100076000D01*
X110514699Y-99644929D01*
X110270516Y-99279484D01*
X109905071Y-99035301D01*
X109582812Y-98971200D01*
X109365188Y-98971200D01*
X109042929Y-99035301D01*
X108677484Y-99279484D01*
X108433301Y-99644929D01*
X108347556Y-100076000D01*
X108433301Y-100507071D01*
X108677484Y-100872516D01*
X109042929Y-101116699D01*
X109365188Y-101180800D01*
X109582812Y-101180800D01*
X109852311Y-101127194D01*
X111030201Y-102305084D01*
X111030201Y-103499318D01*
X110525194Y-102994311D01*
X110600444Y-102616000D01*
X110514699Y-102184929D01*
X110270516Y-101819484D01*
X109905071Y-101575301D01*
X109582812Y-101511200D01*
X109365188Y-101511200D01*
X109042929Y-101575301D01*
X108677484Y-101819484D01*
X108433301Y-102184929D01*
X108347556Y-102616000D01*
X108433301Y-103047071D01*
X108677484Y-103412516D01*
X109042929Y-103656699D01*
X109365188Y-103720800D01*
X109582812Y-103720800D01*
X109852311Y-103667194D01*
X110268201Y-104083084D01*
X110268201Y-104357937D01*
X109905071Y-104115301D01*
X109582812Y-104051200D01*
X109365188Y-104051200D01*
X109042929Y-104115301D01*
X108677484Y-104359484D01*
X108433301Y-104724929D01*
X108347556Y-105156000D01*
X108433301Y-105587071D01*
X108677484Y-105952516D01*
X109042929Y-106196699D01*
X109365188Y-106260800D01*
X109582812Y-106260800D01*
X109905071Y-106196699D01*
X110268201Y-105954063D01*
X110268201Y-106897937D01*
X109905071Y-106655301D01*
X109582812Y-106591200D01*
X109365188Y-106591200D01*
X109042929Y-106655301D01*
X108677484Y-106899484D01*
X108433301Y-107264929D01*
X108347556Y-107696000D01*
X108433301Y-108127071D01*
X108677484Y-108492516D01*
X109042929Y-108736699D01*
X109365188Y-108800800D01*
X109582812Y-108800800D01*
X109905071Y-108736699D01*
X110268200Y-108494063D01*
X110268200Y-109437937D01*
X109905071Y-109195301D01*
X109582812Y-109131200D01*
X109365188Y-109131200D01*
X109042929Y-109195301D01*
X108677484Y-109439484D01*
X108433301Y-109804929D01*
X108347556Y-110236000D01*
X108433301Y-110667071D01*
X108677484Y-111032516D01*
X109042929Y-111276699D01*
X109365188Y-111340800D01*
X109582812Y-111340800D01*
X109905071Y-111276699D01*
X110220582Y-111065881D01*
X110189200Y-111141643D01*
X110189200Y-111362357D01*
X110273663Y-111566269D01*
X110429731Y-111722337D01*
X110633643Y-111806800D01*
X110854357Y-111806800D01*
X111058269Y-111722337D01*
X111125000Y-111655606D01*
X111191731Y-111722337D01*
X111395643Y-111806800D01*
X111616357Y-111806800D01*
X111820269Y-111722337D01*
X111837161Y-111705445D01*
X111844066Y-111712350D01*
X112047978Y-111796813D01*
X112268692Y-111796813D01*
X112472604Y-111712350D01*
X112628672Y-111556282D01*
X112713135Y-111352370D01*
X112713135Y-111131656D01*
X112634135Y-110940933D01*
X112634135Y-110236000D01*
X123587556Y-110236000D01*
X123673301Y-110667071D01*
X123917484Y-111032516D01*
X124282929Y-111276699D01*
X124605188Y-111340800D01*
X124822812Y-111340800D01*
X125145071Y-111276699D01*
X125510516Y-111032516D01*
X125754699Y-110667071D01*
X125840444Y-110236000D01*
X125754699Y-109804929D01*
X125510516Y-109439484D01*
X125145071Y-109195301D01*
X124822812Y-109131200D01*
X124605188Y-109131200D01*
X124282929Y-109195301D01*
X123917484Y-109439484D01*
X123673301Y-109804929D01*
X123587556Y-110236000D01*
X112634135Y-110236000D01*
X112634135Y-107696000D01*
X123587556Y-107696000D01*
X123673301Y-108127071D01*
X123917484Y-108492516D01*
X124282929Y-108736699D01*
X124605188Y-108800800D01*
X124822812Y-108800800D01*
X125145071Y-108736699D01*
X125510516Y-108492516D01*
X125754699Y-108127071D01*
X125840444Y-107696000D01*
X125754699Y-107264929D01*
X125510516Y-106899484D01*
X125145071Y-106655301D01*
X124822812Y-106591200D01*
X124605188Y-106591200D01*
X124282929Y-106655301D01*
X123917484Y-106899484D01*
X123673301Y-107264929D01*
X123587556Y-107696000D01*
X112634135Y-107696000D01*
X112634135Y-105156000D01*
X123587556Y-105156000D01*
X123673301Y-105587071D01*
X123917484Y-105952516D01*
X124282929Y-106196699D01*
X124605188Y-106260800D01*
X124822812Y-106260800D01*
X125145071Y-106196699D01*
X125510516Y-105952516D01*
X125754699Y-105587071D01*
X125840444Y-105156000D01*
X125754699Y-104724929D01*
X125510516Y-104359484D01*
X125145071Y-104115301D01*
X124822812Y-104051200D01*
X124605188Y-104051200D01*
X124282929Y-104115301D01*
X123917484Y-104359484D01*
X123673301Y-104724929D01*
X123587556Y-105156000D01*
X112634135Y-105156000D01*
X112634135Y-102616000D01*
X123587556Y-102616000D01*
X123673301Y-103047071D01*
X123917484Y-103412516D01*
X124282929Y-103656699D01*
X124605188Y-103720800D01*
X124822812Y-103720800D01*
X125145071Y-103656699D01*
X125510516Y-103412516D01*
X125754699Y-103047071D01*
X125840444Y-102616000D01*
X125754699Y-102184929D01*
X125510516Y-101819484D01*
X125145071Y-101575301D01*
X124822812Y-101511200D01*
X124605188Y-101511200D01*
X124282929Y-101575301D01*
X123917484Y-101819484D01*
X123673301Y-102184929D01*
X123587556Y-102616000D01*
X112634135Y-102616000D01*
X112634135Y-100267190D01*
X112643455Y-100220335D01*
X112634135Y-100173477D01*
X112634135Y-100173476D01*
X112614746Y-100076000D01*
X123587556Y-100076000D01*
X123673301Y-100507071D01*
X123917484Y-100872516D01*
X124282929Y-101116699D01*
X124605188Y-101180800D01*
X124822812Y-101180800D01*
X125145071Y-101116699D01*
X125510516Y-100872516D01*
X125754699Y-100507071D01*
X125840444Y-100076000D01*
X125754699Y-99644929D01*
X125510516Y-99279484D01*
X125145071Y-99035301D01*
X124822812Y-98971200D01*
X124605188Y-98971200D01*
X124282929Y-99035301D01*
X123917484Y-99279484D01*
X123673301Y-99644929D01*
X123587556Y-100076000D01*
X112614746Y-100076000D01*
X112606528Y-100034687D01*
X112501367Y-99877303D01*
X112461644Y-99850761D01*
X110525194Y-97914311D01*
X110600444Y-97536000D01*
X123587556Y-97536000D01*
X123673301Y-97967071D01*
X123917484Y-98332516D01*
X124282929Y-98576699D01*
X124605188Y-98640800D01*
X124822812Y-98640800D01*
X125145071Y-98576699D01*
X125510516Y-98332516D01*
X125754699Y-97967071D01*
X125840444Y-97536000D01*
X125754699Y-97104929D01*
X125510516Y-96739484D01*
X125145071Y-96495301D01*
X124822812Y-96431200D01*
X124605188Y-96431200D01*
X124282929Y-96495301D01*
X123917484Y-96739484D01*
X123673301Y-97104929D01*
X123587556Y-97536000D01*
X110600444Y-97536000D01*
X110514699Y-97104929D01*
X110270516Y-96739484D01*
X109905071Y-96495301D01*
X109582812Y-96431200D01*
X109365188Y-96431200D01*
X109042929Y-96495301D01*
X108677484Y-96739484D01*
X108433301Y-97104929D01*
X108347556Y-97536000D01*
X108075800Y-97536000D01*
X108075800Y-94996000D01*
X108347556Y-94996000D01*
X108433301Y-95427071D01*
X108677484Y-95792516D01*
X109042929Y-96036699D01*
X109365188Y-96100800D01*
X109582812Y-96100800D01*
X109905071Y-96036699D01*
X110270516Y-95792516D01*
X110514699Y-95427071D01*
X110600444Y-94996000D01*
X123587556Y-94996000D01*
X123673301Y-95427071D01*
X123917484Y-95792516D01*
X124282929Y-96036699D01*
X124605188Y-96100800D01*
X124822812Y-96100800D01*
X125145071Y-96036699D01*
X125510516Y-95792516D01*
X125754699Y-95427071D01*
X125840444Y-94996000D01*
X125754699Y-94564929D01*
X125510516Y-94199484D01*
X125145071Y-93955301D01*
X124822812Y-93891200D01*
X124605188Y-93891200D01*
X124282929Y-93955301D01*
X123917484Y-94199484D01*
X123673301Y-94564929D01*
X123587556Y-94996000D01*
X110600444Y-94996000D01*
X110514699Y-94564929D01*
X110270516Y-94199484D01*
X109905071Y-93955301D01*
X109582812Y-93891200D01*
X109365188Y-93891200D01*
X109042929Y-93955301D01*
X108677484Y-94199484D01*
X108433301Y-94564929D01*
X108347556Y-94996000D01*
X108075800Y-94996000D01*
X108075800Y-93686644D01*
X132637200Y-93686644D01*
X132637200Y-94273356D01*
X132861725Y-94815407D01*
X133276593Y-95230275D01*
X133818644Y-95454800D01*
X134405356Y-95454800D01*
X134947407Y-95230275D01*
X135362275Y-94815407D01*
X135586800Y-94273356D01*
X135586800Y-93686644D01*
X135362275Y-93144593D01*
X134947407Y-92729725D01*
X134405356Y-92505200D01*
X133818644Y-92505200D01*
X133276593Y-92729725D01*
X132861725Y-93144593D01*
X132637200Y-93686644D01*
X108075800Y-93686644D01*
X108075800Y-92456000D01*
X108347556Y-92456000D01*
X108433301Y-92887071D01*
X108677484Y-93252516D01*
X109042929Y-93496699D01*
X109365188Y-93560800D01*
X109582812Y-93560800D01*
X109905071Y-93496699D01*
X110270516Y-93252516D01*
X110514699Y-92887071D01*
X110600444Y-92456000D01*
X123587556Y-92456000D01*
X123673301Y-92887071D01*
X123917484Y-93252516D01*
X124282929Y-93496699D01*
X124605188Y-93560800D01*
X124822812Y-93560800D01*
X125145071Y-93496699D01*
X125510516Y-93252516D01*
X125754699Y-92887071D01*
X125840444Y-92456000D01*
X125754699Y-92024929D01*
X125510516Y-91659484D01*
X125145071Y-91415301D01*
X124822812Y-91351200D01*
X124605188Y-91351200D01*
X124282929Y-91415301D01*
X123917484Y-91659484D01*
X123673301Y-92024929D01*
X123587556Y-92456000D01*
X110600444Y-92456000D01*
X110514699Y-92024929D01*
X110270516Y-91659484D01*
X109905071Y-91415301D01*
X109582812Y-91351200D01*
X109365188Y-91351200D01*
X109042929Y-91415301D01*
X108677484Y-91659484D01*
X108433301Y-92024929D01*
X108347556Y-92456000D01*
X108075800Y-92456000D01*
X108075800Y-91186644D01*
X137637200Y-91186644D01*
X137637200Y-91773356D01*
X137861725Y-92315407D01*
X138276593Y-92730275D01*
X138818644Y-92954800D01*
X139405356Y-92954800D01*
X139947407Y-92730275D01*
X140362275Y-92315407D01*
X140586800Y-91773356D01*
X140586800Y-91186644D01*
X140362275Y-90644593D01*
X139947407Y-90229725D01*
X139405356Y-90005200D01*
X138818644Y-90005200D01*
X138276593Y-90229725D01*
X137861725Y-90644593D01*
X137637200Y-91186644D01*
X108075800Y-91186644D01*
X108075800Y-89916000D01*
X108347556Y-89916000D01*
X108433301Y-90347071D01*
X108677484Y-90712516D01*
X109042929Y-90956699D01*
X109365188Y-91020800D01*
X109582812Y-91020800D01*
X109905071Y-90956699D01*
X110270516Y-90712516D01*
X110514699Y-90347071D01*
X110600444Y-89916000D01*
X123587556Y-89916000D01*
X123673301Y-90347071D01*
X123917484Y-90712516D01*
X124282929Y-90956699D01*
X124605188Y-91020800D01*
X124822812Y-91020800D01*
X125145071Y-90956699D01*
X125510516Y-90712516D01*
X125754699Y-90347071D01*
X125840444Y-89916000D01*
X125754699Y-89484929D01*
X125510516Y-89119484D01*
X125145071Y-88875301D01*
X124822812Y-88811200D01*
X124605188Y-88811200D01*
X124282929Y-88875301D01*
X123917484Y-89119484D01*
X123673301Y-89484929D01*
X123587556Y-89916000D01*
X110600444Y-89916000D01*
X110514699Y-89484929D01*
X110270516Y-89119484D01*
X109905071Y-88875301D01*
X109582812Y-88811200D01*
X109365188Y-88811200D01*
X109042929Y-88875301D01*
X108677484Y-89119484D01*
X108433301Y-89484929D01*
X108347556Y-89916000D01*
X108075800Y-89916000D01*
X108075800Y-88686644D01*
X132637200Y-88686644D01*
X132637200Y-89273356D01*
X132861725Y-89815407D01*
X133276593Y-90230275D01*
X133818644Y-90454800D01*
X134405356Y-90454800D01*
X134947407Y-90230275D01*
X135362275Y-89815407D01*
X135586800Y-89273356D01*
X135586800Y-88686644D01*
X135362275Y-88144593D01*
X134991325Y-87773643D01*
X138637200Y-87773643D01*
X138637200Y-87994357D01*
X138721663Y-88198269D01*
X138877731Y-88354337D01*
X139081643Y-88438800D01*
X139302357Y-88438800D01*
X139493080Y-88359800D01*
X142042918Y-88359800D01*
X143034201Y-89351084D01*
X143034200Y-89741919D01*
X142955200Y-89932643D01*
X142955200Y-90153357D01*
X143039663Y-90357269D01*
X143195731Y-90513337D01*
X143399643Y-90597800D01*
X143620357Y-90597800D01*
X143824269Y-90513337D01*
X143980337Y-90357269D01*
X144064800Y-90153357D01*
X144064800Y-89932643D01*
X143985800Y-89741920D01*
X143985800Y-89200855D01*
X143995120Y-89153999D01*
X143985800Y-89107144D01*
X143985800Y-89107141D01*
X143958193Y-88968352D01*
X143853032Y-88810968D01*
X143813308Y-88784425D01*
X142609576Y-87580694D01*
X142583032Y-87540968D01*
X142425648Y-87435807D01*
X142286859Y-87408200D01*
X142286855Y-87408200D01*
X142240000Y-87398880D01*
X142193145Y-87408200D01*
X139493080Y-87408200D01*
X139302357Y-87329200D01*
X139081643Y-87329200D01*
X138877731Y-87413663D01*
X138721663Y-87569731D01*
X138637200Y-87773643D01*
X134991325Y-87773643D01*
X134947407Y-87729725D01*
X134405356Y-87505200D01*
X133818644Y-87505200D01*
X133276593Y-87729725D01*
X132861725Y-88144593D01*
X132637200Y-88686644D01*
X108075800Y-88686644D01*
X108075800Y-87773643D01*
X108157200Y-87773643D01*
X108157200Y-87994357D01*
X108241663Y-88198269D01*
X108397731Y-88354337D01*
X108601643Y-88438800D01*
X108822357Y-88438800D01*
X109026269Y-88354337D01*
X109182337Y-88198269D01*
X109266800Y-87994357D01*
X109266800Y-87773643D01*
X117301200Y-87773643D01*
X117301200Y-87994357D01*
X117385663Y-88198269D01*
X117541731Y-88354337D01*
X117745643Y-88438800D01*
X117966357Y-88438800D01*
X118170269Y-88354337D01*
X118326337Y-88198269D01*
X118410800Y-87994357D01*
X118410800Y-87773643D01*
X118326337Y-87569731D01*
X118170269Y-87413663D01*
X117966357Y-87329200D01*
X117745643Y-87329200D01*
X117541731Y-87413663D01*
X117385663Y-87569731D01*
X117301200Y-87773643D01*
X109266800Y-87773643D01*
X109182337Y-87569731D01*
X109026269Y-87413663D01*
X108822357Y-87329200D01*
X108601643Y-87329200D01*
X108397731Y-87413663D01*
X108241663Y-87569731D01*
X108157200Y-87773643D01*
X108075800Y-87773643D01*
X108075800Y-86263318D01*
X108107318Y-86231800D01*
X167482682Y-86231800D01*
X167514200Y-86263318D01*
X167514200Y-86263318D01*
G37*
X167514200Y-86263318D02*
X167514200Y-95779200D01*
X165904600Y-95779200D01*
X165828400Y-95855400D01*
X165828400Y-96531600D01*
X165848400Y-96531600D01*
X165848400Y-96836400D01*
X165828400Y-96836400D01*
X165828400Y-97512600D01*
X165904600Y-97588800D01*
X167514200Y-97588800D01*
X167514200Y-101039200D01*
X165904600Y-101039200D01*
X165828400Y-101115400D01*
X165828400Y-101791600D01*
X165848400Y-101791600D01*
X165848400Y-102096400D01*
X165828400Y-102096400D01*
X165828400Y-102772600D01*
X165904600Y-102848800D01*
X167514200Y-102848800D01*
X167514201Y-119655200D01*
X165904600Y-119655200D01*
X165828400Y-119731400D01*
X165828400Y-120407600D01*
X165848400Y-120407600D01*
X165848400Y-120712400D01*
X165828400Y-120712400D01*
X165828400Y-121388600D01*
X165904600Y-121464800D01*
X167514201Y-121464800D01*
X167514201Y-124915200D01*
X165904600Y-124915200D01*
X165828400Y-124991400D01*
X165828400Y-125667600D01*
X165848400Y-125667600D01*
X165848400Y-125972400D01*
X165828400Y-125972400D01*
X165828400Y-126648600D01*
X165904600Y-126724800D01*
X167514201Y-126724800D01*
X167514201Y-136240681D01*
X167482682Y-136272200D01*
X108107318Y-136272200D01*
X108075800Y-136240682D01*
X108075800Y-125476000D01*
X108347556Y-125476000D01*
X108433301Y-125907071D01*
X108677484Y-126272516D01*
X109042929Y-126516699D01*
X109365188Y-126580800D01*
X109582812Y-126580800D01*
X109905071Y-126516699D01*
X110270516Y-126272516D01*
X110514699Y-125907071D01*
X110600444Y-125476000D01*
X110514699Y-125044929D01*
X110270516Y-124679484D01*
X110265302Y-124676000D01*
X123603229Y-124676000D01*
X123603229Y-126276000D01*
X123626885Y-126394927D01*
X123694252Y-126495748D01*
X123795073Y-126563115D01*
X123914000Y-126586771D01*
X125514000Y-126586771D01*
X125632927Y-126563115D01*
X125733748Y-126495748D01*
X125801115Y-126394927D01*
X125824771Y-126276000D01*
X125824771Y-124676000D01*
X125801115Y-124557073D01*
X125733748Y-124456252D01*
X125632927Y-124388885D01*
X125514000Y-124365229D01*
X123914000Y-124365229D01*
X123795073Y-124388885D01*
X123694252Y-124456252D01*
X123626885Y-124557073D01*
X123603229Y-124676000D01*
X110265302Y-124676000D01*
X109905071Y-124435301D01*
X109582812Y-124371200D01*
X109365188Y-124371200D01*
X109042929Y-124435301D01*
X108677484Y-124679484D01*
X108433301Y-125044929D01*
X108347556Y-125476000D01*
X108075800Y-125476000D01*
X108075800Y-123257700D01*
X108417074Y-123257700D01*
X108499151Y-123455892D01*
X108772311Y-123789376D01*
X109152297Y-123992941D01*
X109321600Y-123954054D01*
X109321600Y-123088400D01*
X109626400Y-123088400D01*
X109626400Y-123954054D01*
X109795703Y-123992941D01*
X110175689Y-123789376D01*
X110448849Y-123455892D01*
X110530926Y-123257700D01*
X110491247Y-123088400D01*
X109626400Y-123088400D01*
X109321600Y-123088400D01*
X108456753Y-123088400D01*
X108417074Y-123257700D01*
X108075800Y-123257700D01*
X108075800Y-122936000D01*
X123587556Y-122936000D01*
X123673301Y-123367071D01*
X123917484Y-123732516D01*
X124282929Y-123976699D01*
X124605188Y-124040800D01*
X124822812Y-124040800D01*
X125145071Y-123976699D01*
X125510516Y-123732516D01*
X125754699Y-123367071D01*
X125840444Y-122936000D01*
X125754699Y-122504929D01*
X125510516Y-122139484D01*
X125145071Y-121895301D01*
X124822812Y-121831200D01*
X124605188Y-121831200D01*
X124282929Y-121895301D01*
X123917484Y-122139484D01*
X123673301Y-122504929D01*
X123587556Y-122936000D01*
X108075800Y-122936000D01*
X108075800Y-122614300D01*
X108417074Y-122614300D01*
X108456753Y-122783600D01*
X109321600Y-122783600D01*
X109321600Y-121917946D01*
X109626400Y-121917946D01*
X109626400Y-122783600D01*
X110491247Y-122783600D01*
X110530926Y-122614300D01*
X110448849Y-122416108D01*
X110175689Y-122082624D01*
X109795703Y-121879059D01*
X109626400Y-121917946D01*
X109321600Y-121917946D01*
X109152297Y-121879059D01*
X108772311Y-122082624D01*
X108499151Y-122416108D01*
X108417074Y-122614300D01*
X108075800Y-122614300D01*
X108075800Y-120396000D01*
X108347556Y-120396000D01*
X108433301Y-120827071D01*
X108677484Y-121192516D01*
X109042929Y-121436699D01*
X109365188Y-121500800D01*
X109582812Y-121500800D01*
X109905071Y-121436699D01*
X110270516Y-121192516D01*
X110514699Y-120827071D01*
X110600444Y-120396000D01*
X110514699Y-119964929D01*
X110270516Y-119599484D01*
X109905071Y-119355301D01*
X109582812Y-119291200D01*
X109365188Y-119291200D01*
X109042929Y-119355301D01*
X108677484Y-119599484D01*
X108433301Y-119964929D01*
X108347556Y-120396000D01*
X108075800Y-120396000D01*
X108075800Y-117856000D01*
X108347556Y-117856000D01*
X108433301Y-118287071D01*
X108677484Y-118652516D01*
X109042929Y-118896699D01*
X109365188Y-118960800D01*
X109582812Y-118960800D01*
X109852311Y-118907194D01*
X109970691Y-119025574D01*
X109970694Y-119025576D01*
X110521024Y-119575907D01*
X110547567Y-119615631D01*
X110704951Y-119720792D01*
X110843740Y-119748399D01*
X110843743Y-119748399D01*
X110890598Y-119757719D01*
X110937454Y-119748399D01*
X123817982Y-119748399D01*
X123673301Y-119964929D01*
X123587556Y-120396000D01*
X123673301Y-120827071D01*
X123917484Y-121192516D01*
X124282929Y-121436699D01*
X124605188Y-121500800D01*
X124822812Y-121500800D01*
X125145071Y-121436699D01*
X125510516Y-121192516D01*
X125754699Y-120827071D01*
X125840444Y-120396000D01*
X125754699Y-119964929D01*
X125610018Y-119748399D01*
X127203517Y-119748399D01*
X127286200Y-119831083D01*
X127286200Y-119934858D01*
X127286201Y-119934863D01*
X127286200Y-123397144D01*
X127276880Y-123444000D01*
X127286200Y-123490855D01*
X127286200Y-123490858D01*
X127286201Y-123490863D01*
X127286200Y-130255145D01*
X127276880Y-130302000D01*
X127286200Y-130348855D01*
X127286200Y-130348858D01*
X127313807Y-130487647D01*
X127418968Y-130645032D01*
X127458694Y-130671576D01*
X131964426Y-135177308D01*
X131990968Y-135217032D01*
X132148352Y-135322193D01*
X132287141Y-135349800D01*
X132287145Y-135349800D01*
X132333999Y-135359120D01*
X132380853Y-135349800D01*
X156417145Y-135349800D01*
X156464000Y-135359120D01*
X156510855Y-135349800D01*
X156510859Y-135349800D01*
X156649648Y-135322193D01*
X156807032Y-135217032D01*
X156833576Y-135177306D01*
X159037306Y-132973576D01*
X159077032Y-132947032D01*
X159182193Y-132789648D01*
X159209800Y-132650859D01*
X159209800Y-132650856D01*
X159219120Y-132604000D01*
X159209800Y-132557145D01*
X159209800Y-126048600D01*
X163271200Y-126048600D01*
X163271200Y-126480629D01*
X163317603Y-126592656D01*
X163403345Y-126678397D01*
X163515372Y-126724800D01*
X165447400Y-126724800D01*
X165523600Y-126648600D01*
X165523600Y-125972400D01*
X163347400Y-125972400D01*
X163271200Y-126048600D01*
X159209800Y-126048600D01*
X159209800Y-126031080D01*
X159288800Y-125840357D01*
X159288800Y-125619643D01*
X159209800Y-125428920D01*
X159209800Y-125159371D01*
X163271200Y-125159371D01*
X163271200Y-125591400D01*
X163347400Y-125667600D01*
X165523600Y-125667600D01*
X165523600Y-124991400D01*
X165447400Y-124915200D01*
X163515372Y-124915200D01*
X163403345Y-124961603D01*
X163317603Y-125047344D01*
X163271200Y-125159371D01*
X159209800Y-125159371D01*
X159209800Y-120788600D01*
X163271200Y-120788600D01*
X163271200Y-121220629D01*
X163317603Y-121332656D01*
X163403345Y-121418397D01*
X163515372Y-121464800D01*
X165447400Y-121464800D01*
X165523600Y-121388600D01*
X165523600Y-120712400D01*
X163347400Y-120712400D01*
X163271200Y-120788600D01*
X159209800Y-120788600D01*
X159209800Y-120156855D01*
X159219120Y-120109999D01*
X159209800Y-120063144D01*
X159209800Y-120063141D01*
X159182193Y-119924352D01*
X159165502Y-119899371D01*
X163271200Y-119899371D01*
X163271200Y-120331400D01*
X163347400Y-120407600D01*
X165523600Y-120407600D01*
X165523600Y-119731400D01*
X165447400Y-119655200D01*
X163515372Y-119655200D01*
X163403345Y-119701603D01*
X163317603Y-119787344D01*
X163271200Y-119899371D01*
X159165502Y-119899371D01*
X159077032Y-119766968D01*
X159037308Y-119740425D01*
X157283338Y-117986455D01*
X157204337Y-117795731D01*
X157048269Y-117639663D01*
X156844357Y-117555200D01*
X156623643Y-117555200D01*
X156419731Y-117639663D01*
X156263663Y-117795731D01*
X156179200Y-117999643D01*
X156179200Y-118220357D01*
X156263663Y-118424269D01*
X156419731Y-118580337D01*
X156610455Y-118659338D01*
X158258201Y-120307084D01*
X158258200Y-125428920D01*
X158179200Y-125619643D01*
X158179200Y-125840357D01*
X158258200Y-126031080D01*
X158258201Y-132406917D01*
X156266918Y-134398200D01*
X132531083Y-134398200D01*
X128237800Y-130104918D01*
X128237800Y-124173800D01*
X132921920Y-124173800D01*
X133112643Y-124252800D01*
X133333357Y-124252800D01*
X133537269Y-124168337D01*
X133693337Y-124012269D01*
X133777800Y-123808357D01*
X133777800Y-123587643D01*
X133693337Y-123383731D01*
X133537269Y-123227663D01*
X133333357Y-123143200D01*
X133112643Y-123143200D01*
X132921920Y-123222200D01*
X128237800Y-123222200D01*
X128237800Y-119680855D01*
X128247120Y-119633999D01*
X128237800Y-119587142D01*
X128237800Y-118918856D01*
X128247120Y-118872001D01*
X128237800Y-118825145D01*
X128237800Y-116935582D01*
X128827306Y-116346076D01*
X128867032Y-116319532D01*
X128972193Y-116162148D01*
X128999800Y-116023359D01*
X128999800Y-116023356D01*
X129009120Y-115976500D01*
X128999800Y-115929645D01*
X128999800Y-115537800D01*
X132032920Y-115537800D01*
X132223643Y-115616800D01*
X132444357Y-115616800D01*
X132635080Y-115537800D01*
X142295645Y-115537800D01*
X142342500Y-115547120D01*
X142389355Y-115537800D01*
X142389359Y-115537800D01*
X142528148Y-115510193D01*
X142685532Y-115405032D01*
X142712076Y-115365306D01*
X143077808Y-114999575D01*
X143117532Y-114973032D01*
X143222693Y-114815648D01*
X143250300Y-114676859D01*
X143250300Y-114676856D01*
X143259620Y-114630001D01*
X143250300Y-114583145D01*
X143250300Y-114189543D01*
X143425391Y-114189543D01*
X143425391Y-114410257D01*
X143509854Y-114614169D01*
X143665922Y-114770237D01*
X143869834Y-114854700D01*
X144090548Y-114854700D01*
X144281271Y-114775700D01*
X147949418Y-114775700D01*
X147122918Y-115602200D01*
X144573080Y-115602200D01*
X144382357Y-115523200D01*
X144161643Y-115523200D01*
X143957731Y-115607663D01*
X143801663Y-115763731D01*
X143717200Y-115967643D01*
X143717200Y-116188357D01*
X143801663Y-116392269D01*
X143957731Y-116548337D01*
X144161643Y-116632800D01*
X144382357Y-116632800D01*
X144573080Y-116553800D01*
X147273145Y-116553800D01*
X147320000Y-116563120D01*
X147366855Y-116553800D01*
X147366859Y-116553800D01*
X147505648Y-116526193D01*
X147663032Y-116421032D01*
X147689576Y-116381306D01*
X151253544Y-112817338D01*
X151444269Y-112738337D01*
X151600337Y-112582269D01*
X151684800Y-112378357D01*
X151684800Y-112157643D01*
X151600337Y-111953731D01*
X151444269Y-111797663D01*
X151353342Y-111760000D01*
X151444269Y-111722337D01*
X151600337Y-111566269D01*
X151684800Y-111362357D01*
X151684800Y-111141643D01*
X151600337Y-110937731D01*
X151444269Y-110781663D01*
X151240357Y-110697200D01*
X151019643Y-110697200D01*
X150815731Y-110781663D01*
X150659663Y-110937731D01*
X150580662Y-111128456D01*
X150064694Y-111644424D01*
X150024968Y-111670968D01*
X149919807Y-111828353D01*
X149892200Y-111967142D01*
X149892200Y-111967145D01*
X149882880Y-112014000D01*
X149892200Y-112060855D01*
X149892200Y-112133716D01*
X148201816Y-113824100D01*
X144281271Y-113824100D01*
X144090548Y-113745100D01*
X143869834Y-113745100D01*
X143665922Y-113829563D01*
X143509854Y-113985631D01*
X143425391Y-114189543D01*
X143250300Y-114189543D01*
X143250300Y-113839080D01*
X143329300Y-113648357D01*
X143329300Y-113427643D01*
X143250300Y-113236920D01*
X143250300Y-112684673D01*
X143316427Y-112618546D01*
X143383313Y-112518445D01*
X143387336Y-112498220D01*
X143450193Y-112404148D01*
X143477800Y-112265359D01*
X143477800Y-112265356D01*
X143487120Y-112218500D01*
X143477800Y-112171645D01*
X143477800Y-102172600D01*
X163271200Y-102172600D01*
X163271200Y-102604629D01*
X163317603Y-102716656D01*
X163403345Y-102802397D01*
X163515372Y-102848800D01*
X165447400Y-102848800D01*
X165523600Y-102772600D01*
X165523600Y-102096400D01*
X163347400Y-102096400D01*
X163271200Y-102172600D01*
X143477800Y-102172600D01*
X143477800Y-101283371D01*
X163271200Y-101283371D01*
X163271200Y-101715400D01*
X163347400Y-101791600D01*
X165523600Y-101791600D01*
X165523600Y-101115400D01*
X165447400Y-101039200D01*
X163515372Y-101039200D01*
X163403345Y-101085603D01*
X163317603Y-101171344D01*
X163271200Y-101283371D01*
X143477800Y-101283371D01*
X143477800Y-96912600D01*
X163271200Y-96912600D01*
X163271200Y-97344629D01*
X163317603Y-97456656D01*
X163403345Y-97542397D01*
X163515372Y-97588800D01*
X165447400Y-97588800D01*
X165523600Y-97512600D01*
X165523600Y-96836400D01*
X163347400Y-96836400D01*
X163271200Y-96912600D01*
X143477800Y-96912600D01*
X143477800Y-96023371D01*
X163271200Y-96023371D01*
X163271200Y-96455400D01*
X163347400Y-96531600D01*
X165523600Y-96531600D01*
X165523600Y-95855400D01*
X165447400Y-95779200D01*
X163515372Y-95779200D01*
X163403345Y-95825603D01*
X163317603Y-95911344D01*
X163271200Y-96023371D01*
X143477800Y-96023371D01*
X143477800Y-94939082D01*
X144749583Y-93667300D01*
X150066920Y-93667300D01*
X150257643Y-93746300D01*
X150478357Y-93746300D01*
X150682269Y-93661837D01*
X150838337Y-93505769D01*
X150922800Y-93301857D01*
X150922800Y-93081143D01*
X150838337Y-92877231D01*
X150682269Y-92721163D01*
X150478357Y-92636700D01*
X150257643Y-92636700D01*
X150066920Y-92715700D01*
X144599355Y-92715700D01*
X144552499Y-92706380D01*
X144505644Y-92715700D01*
X144505641Y-92715700D01*
X144366852Y-92743307D01*
X144209468Y-92848468D01*
X144182925Y-92888192D01*
X142698692Y-94372426D01*
X142658969Y-94398968D01*
X142632427Y-94438691D01*
X142632425Y-94438693D01*
X142553807Y-94556353D01*
X142516880Y-94742000D01*
X142526201Y-94788860D01*
X142526200Y-112021418D01*
X142471192Y-112076426D01*
X142431469Y-112102968D01*
X142404927Y-112142691D01*
X142404925Y-112142693D01*
X142326307Y-112260353D01*
X142289380Y-112446000D01*
X142298701Y-112492860D01*
X142298700Y-113236919D01*
X142219700Y-113427643D01*
X142219700Y-113648357D01*
X142298700Y-113839081D01*
X142298701Y-114432917D01*
X142145418Y-114586200D01*
X132635080Y-114586200D01*
X132444357Y-114507200D01*
X132223643Y-114507200D01*
X132032920Y-114586200D01*
X128825080Y-114586200D01*
X128634357Y-114507200D01*
X128413643Y-114507200D01*
X128209731Y-114591663D01*
X128053663Y-114747731D01*
X127969200Y-114951643D01*
X127969200Y-115172357D01*
X128048200Y-115363081D01*
X128048201Y-115779417D01*
X127458694Y-116368924D01*
X127418968Y-116395468D01*
X127313807Y-116552853D01*
X127286200Y-116691642D01*
X127286200Y-116691645D01*
X127276880Y-116738500D01*
X127286200Y-116785356D01*
X127286201Y-118674917D01*
X127164319Y-118796799D01*
X125252500Y-118796799D01*
X125415689Y-118709376D01*
X125688849Y-118375892D01*
X125770926Y-118177700D01*
X125731247Y-118008400D01*
X124866400Y-118008400D01*
X124866400Y-118028400D01*
X124561600Y-118028400D01*
X124561600Y-118008400D01*
X123696753Y-118008400D01*
X123657074Y-118177700D01*
X123739151Y-118375892D01*
X124012311Y-118709376D01*
X124175500Y-118796799D01*
X111087682Y-118796799D01*
X110643576Y-118352694D01*
X110643574Y-118352691D01*
X110525194Y-118234311D01*
X110600444Y-117856000D01*
X110536455Y-117534300D01*
X123657074Y-117534300D01*
X123696753Y-117703600D01*
X124561600Y-117703600D01*
X124561600Y-116837946D01*
X124866400Y-116837946D01*
X124866400Y-117703600D01*
X125731247Y-117703600D01*
X125770926Y-117534300D01*
X125688849Y-117336108D01*
X125415689Y-117002624D01*
X125035703Y-116799059D01*
X124866400Y-116837946D01*
X124561600Y-116837946D01*
X124392297Y-116799059D01*
X124012311Y-117002624D01*
X123739151Y-117336108D01*
X123657074Y-117534300D01*
X110536455Y-117534300D01*
X110514699Y-117424929D01*
X110270516Y-117059484D01*
X109905071Y-116815301D01*
X109582812Y-116751200D01*
X109365188Y-116751200D01*
X109042929Y-116815301D01*
X108677484Y-117059484D01*
X108433301Y-117424929D01*
X108347556Y-117856000D01*
X108075800Y-117856000D01*
X108075800Y-115316000D01*
X108347556Y-115316000D01*
X108433301Y-115747071D01*
X108677484Y-116112516D01*
X109042929Y-116356699D01*
X109365188Y-116420800D01*
X109582812Y-116420800D01*
X109905071Y-116356699D01*
X110270516Y-116112516D01*
X110514699Y-115747071D01*
X110600444Y-115316000D01*
X123587556Y-115316000D01*
X123673301Y-115747071D01*
X123917484Y-116112516D01*
X124282929Y-116356699D01*
X124605188Y-116420800D01*
X124822812Y-116420800D01*
X125145071Y-116356699D01*
X125510516Y-116112516D01*
X125754699Y-115747071D01*
X125840444Y-115316000D01*
X125754699Y-114884929D01*
X125510516Y-114519484D01*
X125145071Y-114275301D01*
X124822812Y-114211200D01*
X124605188Y-114211200D01*
X124282929Y-114275301D01*
X123917484Y-114519484D01*
X123673301Y-114884929D01*
X123587556Y-115316000D01*
X110600444Y-115316000D01*
X110514699Y-114884929D01*
X110270516Y-114519484D01*
X109905071Y-114275301D01*
X109582812Y-114211200D01*
X109365188Y-114211200D01*
X109042929Y-114275301D01*
X108677484Y-114519484D01*
X108433301Y-114884929D01*
X108347556Y-115316000D01*
X108075800Y-115316000D01*
X108075800Y-112776000D01*
X108347556Y-112776000D01*
X108433301Y-113207071D01*
X108677484Y-113572516D01*
X109042929Y-113816699D01*
X109365188Y-113880800D01*
X109582812Y-113880800D01*
X109905071Y-113816699D01*
X110270516Y-113572516D01*
X110514699Y-113207071D01*
X110600444Y-112776000D01*
X123587556Y-112776000D01*
X123673301Y-113207071D01*
X123917484Y-113572516D01*
X124282929Y-113816699D01*
X124605188Y-113880800D01*
X124822812Y-113880800D01*
X125145071Y-113816699D01*
X125510516Y-113572516D01*
X125754699Y-113207071D01*
X125840444Y-112776000D01*
X125754699Y-112344929D01*
X125510516Y-111979484D01*
X125145071Y-111735301D01*
X124822812Y-111671200D01*
X124605188Y-111671200D01*
X124282929Y-111735301D01*
X123917484Y-111979484D01*
X123673301Y-112344929D01*
X123587556Y-112776000D01*
X110600444Y-112776000D01*
X110514699Y-112344929D01*
X110270516Y-111979484D01*
X109905071Y-111735301D01*
X109582812Y-111671200D01*
X109365188Y-111671200D01*
X109042929Y-111735301D01*
X108677484Y-111979484D01*
X108433301Y-112344929D01*
X108347556Y-112776000D01*
X108075800Y-112776000D01*
X108075800Y-97536000D01*
X108347556Y-97536000D01*
X108433301Y-97967071D01*
X108677484Y-98332516D01*
X109042929Y-98576699D01*
X109365188Y-98640800D01*
X109582812Y-98640800D01*
X109852311Y-98587194D01*
X111682535Y-100417418D01*
X111682535Y-101611652D01*
X110525194Y-100454311D01*
X110600444Y-100076000D01*
X110514699Y-99644929D01*
X110270516Y-99279484D01*
X109905071Y-99035301D01*
X109582812Y-98971200D01*
X109365188Y-98971200D01*
X109042929Y-99035301D01*
X108677484Y-99279484D01*
X108433301Y-99644929D01*
X108347556Y-100076000D01*
X108433301Y-100507071D01*
X108677484Y-100872516D01*
X109042929Y-101116699D01*
X109365188Y-101180800D01*
X109582812Y-101180800D01*
X109852311Y-101127194D01*
X111030201Y-102305084D01*
X111030201Y-103499318D01*
X110525194Y-102994311D01*
X110600444Y-102616000D01*
X110514699Y-102184929D01*
X110270516Y-101819484D01*
X109905071Y-101575301D01*
X109582812Y-101511200D01*
X109365188Y-101511200D01*
X109042929Y-101575301D01*
X108677484Y-101819484D01*
X108433301Y-102184929D01*
X108347556Y-102616000D01*
X108433301Y-103047071D01*
X108677484Y-103412516D01*
X109042929Y-103656699D01*
X109365188Y-103720800D01*
X109582812Y-103720800D01*
X109852311Y-103667194D01*
X110268201Y-104083084D01*
X110268201Y-104357937D01*
X109905071Y-104115301D01*
X109582812Y-104051200D01*
X109365188Y-104051200D01*
X109042929Y-104115301D01*
X108677484Y-104359484D01*
X108433301Y-104724929D01*
X108347556Y-105156000D01*
X108433301Y-105587071D01*
X108677484Y-105952516D01*
X109042929Y-106196699D01*
X109365188Y-106260800D01*
X109582812Y-106260800D01*
X109905071Y-106196699D01*
X110268201Y-105954063D01*
X110268201Y-106897937D01*
X109905071Y-106655301D01*
X109582812Y-106591200D01*
X109365188Y-106591200D01*
X109042929Y-106655301D01*
X108677484Y-106899484D01*
X108433301Y-107264929D01*
X108347556Y-107696000D01*
X108433301Y-108127071D01*
X108677484Y-108492516D01*
X109042929Y-108736699D01*
X109365188Y-108800800D01*
X109582812Y-108800800D01*
X109905071Y-108736699D01*
X110268200Y-108494063D01*
X110268200Y-109437937D01*
X109905071Y-109195301D01*
X109582812Y-109131200D01*
X109365188Y-109131200D01*
X109042929Y-109195301D01*
X108677484Y-109439484D01*
X108433301Y-109804929D01*
X108347556Y-110236000D01*
X108433301Y-110667071D01*
X108677484Y-111032516D01*
X109042929Y-111276699D01*
X109365188Y-111340800D01*
X109582812Y-111340800D01*
X109905071Y-111276699D01*
X110220582Y-111065881D01*
X110189200Y-111141643D01*
X110189200Y-111362357D01*
X110273663Y-111566269D01*
X110429731Y-111722337D01*
X110633643Y-111806800D01*
X110854357Y-111806800D01*
X111058269Y-111722337D01*
X111125000Y-111655606D01*
X111191731Y-111722337D01*
X111395643Y-111806800D01*
X111616357Y-111806800D01*
X111820269Y-111722337D01*
X111837161Y-111705445D01*
X111844066Y-111712350D01*
X112047978Y-111796813D01*
X112268692Y-111796813D01*
X112472604Y-111712350D01*
X112628672Y-111556282D01*
X112713135Y-111352370D01*
X112713135Y-111131656D01*
X112634135Y-110940933D01*
X112634135Y-110236000D01*
X123587556Y-110236000D01*
X123673301Y-110667071D01*
X123917484Y-111032516D01*
X124282929Y-111276699D01*
X124605188Y-111340800D01*
X124822812Y-111340800D01*
X125145071Y-111276699D01*
X125510516Y-111032516D01*
X125754699Y-110667071D01*
X125840444Y-110236000D01*
X125754699Y-109804929D01*
X125510516Y-109439484D01*
X125145071Y-109195301D01*
X124822812Y-109131200D01*
X124605188Y-109131200D01*
X124282929Y-109195301D01*
X123917484Y-109439484D01*
X123673301Y-109804929D01*
X123587556Y-110236000D01*
X112634135Y-110236000D01*
X112634135Y-107696000D01*
X123587556Y-107696000D01*
X123673301Y-108127071D01*
X123917484Y-108492516D01*
X124282929Y-108736699D01*
X124605188Y-108800800D01*
X124822812Y-108800800D01*
X125145071Y-108736699D01*
X125510516Y-108492516D01*
X125754699Y-108127071D01*
X125840444Y-107696000D01*
X125754699Y-107264929D01*
X125510516Y-106899484D01*
X125145071Y-106655301D01*
X124822812Y-106591200D01*
X124605188Y-106591200D01*
X124282929Y-106655301D01*
X123917484Y-106899484D01*
X123673301Y-107264929D01*
X123587556Y-107696000D01*
X112634135Y-107696000D01*
X112634135Y-105156000D01*
X123587556Y-105156000D01*
X123673301Y-105587071D01*
X123917484Y-105952516D01*
X124282929Y-106196699D01*
X124605188Y-106260800D01*
X124822812Y-106260800D01*
X125145071Y-106196699D01*
X125510516Y-105952516D01*
X125754699Y-105587071D01*
X125840444Y-105156000D01*
X125754699Y-104724929D01*
X125510516Y-104359484D01*
X125145071Y-104115301D01*
X124822812Y-104051200D01*
X124605188Y-104051200D01*
X124282929Y-104115301D01*
X123917484Y-104359484D01*
X123673301Y-104724929D01*
X123587556Y-105156000D01*
X112634135Y-105156000D01*
X112634135Y-102616000D01*
X123587556Y-102616000D01*
X123673301Y-103047071D01*
X123917484Y-103412516D01*
X124282929Y-103656699D01*
X124605188Y-103720800D01*
X124822812Y-103720800D01*
X125145071Y-103656699D01*
X125510516Y-103412516D01*
X125754699Y-103047071D01*
X125840444Y-102616000D01*
X125754699Y-102184929D01*
X125510516Y-101819484D01*
X125145071Y-101575301D01*
X124822812Y-101511200D01*
X124605188Y-101511200D01*
X124282929Y-101575301D01*
X123917484Y-101819484D01*
X123673301Y-102184929D01*
X123587556Y-102616000D01*
X112634135Y-102616000D01*
X112634135Y-100267190D01*
X112643455Y-100220335D01*
X112634135Y-100173477D01*
X112634135Y-100173476D01*
X112614746Y-100076000D01*
X123587556Y-100076000D01*
X123673301Y-100507071D01*
X123917484Y-100872516D01*
X124282929Y-101116699D01*
X124605188Y-101180800D01*
X124822812Y-101180800D01*
X125145071Y-101116699D01*
X125510516Y-100872516D01*
X125754699Y-100507071D01*
X125840444Y-100076000D01*
X125754699Y-99644929D01*
X125510516Y-99279484D01*
X125145071Y-99035301D01*
X124822812Y-98971200D01*
X124605188Y-98971200D01*
X124282929Y-99035301D01*
X123917484Y-99279484D01*
X123673301Y-99644929D01*
X123587556Y-100076000D01*
X112614746Y-100076000D01*
X112606528Y-100034687D01*
X112501367Y-99877303D01*
X112461644Y-99850761D01*
X110525194Y-97914311D01*
X110600444Y-97536000D01*
X123587556Y-97536000D01*
X123673301Y-97967071D01*
X123917484Y-98332516D01*
X124282929Y-98576699D01*
X124605188Y-98640800D01*
X124822812Y-98640800D01*
X125145071Y-98576699D01*
X125510516Y-98332516D01*
X125754699Y-97967071D01*
X125840444Y-97536000D01*
X125754699Y-97104929D01*
X125510516Y-96739484D01*
X125145071Y-96495301D01*
X124822812Y-96431200D01*
X124605188Y-96431200D01*
X124282929Y-96495301D01*
X123917484Y-96739484D01*
X123673301Y-97104929D01*
X123587556Y-97536000D01*
X110600444Y-97536000D01*
X110514699Y-97104929D01*
X110270516Y-96739484D01*
X109905071Y-96495301D01*
X109582812Y-96431200D01*
X109365188Y-96431200D01*
X109042929Y-96495301D01*
X108677484Y-96739484D01*
X108433301Y-97104929D01*
X108347556Y-97536000D01*
X108075800Y-97536000D01*
X108075800Y-94996000D01*
X108347556Y-94996000D01*
X108433301Y-95427071D01*
X108677484Y-95792516D01*
X109042929Y-96036699D01*
X109365188Y-96100800D01*
X109582812Y-96100800D01*
X109905071Y-96036699D01*
X110270516Y-95792516D01*
X110514699Y-95427071D01*
X110600444Y-94996000D01*
X123587556Y-94996000D01*
X123673301Y-95427071D01*
X123917484Y-95792516D01*
X124282929Y-96036699D01*
X124605188Y-96100800D01*
X124822812Y-96100800D01*
X125145071Y-96036699D01*
X125510516Y-95792516D01*
X125754699Y-95427071D01*
X125840444Y-94996000D01*
X125754699Y-94564929D01*
X125510516Y-94199484D01*
X125145071Y-93955301D01*
X124822812Y-93891200D01*
X124605188Y-93891200D01*
X124282929Y-93955301D01*
X123917484Y-94199484D01*
X123673301Y-94564929D01*
X123587556Y-94996000D01*
X110600444Y-94996000D01*
X110514699Y-94564929D01*
X110270516Y-94199484D01*
X109905071Y-93955301D01*
X109582812Y-93891200D01*
X109365188Y-93891200D01*
X109042929Y-93955301D01*
X108677484Y-94199484D01*
X108433301Y-94564929D01*
X108347556Y-94996000D01*
X108075800Y-94996000D01*
X108075800Y-93686644D01*
X132637200Y-93686644D01*
X132637200Y-94273356D01*
X132861725Y-94815407D01*
X133276593Y-95230275D01*
X133818644Y-95454800D01*
X134405356Y-95454800D01*
X134947407Y-95230275D01*
X135362275Y-94815407D01*
X135586800Y-94273356D01*
X135586800Y-93686644D01*
X135362275Y-93144593D01*
X134947407Y-92729725D01*
X134405356Y-92505200D01*
X133818644Y-92505200D01*
X133276593Y-92729725D01*
X132861725Y-93144593D01*
X132637200Y-93686644D01*
X108075800Y-93686644D01*
X108075800Y-92456000D01*
X108347556Y-92456000D01*
X108433301Y-92887071D01*
X108677484Y-93252516D01*
X109042929Y-93496699D01*
X109365188Y-93560800D01*
X109582812Y-93560800D01*
X109905071Y-93496699D01*
X110270516Y-93252516D01*
X110514699Y-92887071D01*
X110600444Y-92456000D01*
X123587556Y-92456000D01*
X123673301Y-92887071D01*
X123917484Y-93252516D01*
X124282929Y-93496699D01*
X124605188Y-93560800D01*
X124822812Y-93560800D01*
X125145071Y-93496699D01*
X125510516Y-93252516D01*
X125754699Y-92887071D01*
X125840444Y-92456000D01*
X125754699Y-92024929D01*
X125510516Y-91659484D01*
X125145071Y-91415301D01*
X124822812Y-91351200D01*
X124605188Y-91351200D01*
X124282929Y-91415301D01*
X123917484Y-91659484D01*
X123673301Y-92024929D01*
X123587556Y-92456000D01*
X110600444Y-92456000D01*
X110514699Y-92024929D01*
X110270516Y-91659484D01*
X109905071Y-91415301D01*
X109582812Y-91351200D01*
X109365188Y-91351200D01*
X109042929Y-91415301D01*
X108677484Y-91659484D01*
X108433301Y-92024929D01*
X108347556Y-92456000D01*
X108075800Y-92456000D01*
X108075800Y-91186644D01*
X137637200Y-91186644D01*
X137637200Y-91773356D01*
X137861725Y-92315407D01*
X138276593Y-92730275D01*
X138818644Y-92954800D01*
X139405356Y-92954800D01*
X139947407Y-92730275D01*
X140362275Y-92315407D01*
X140586800Y-91773356D01*
X140586800Y-91186644D01*
X140362275Y-90644593D01*
X139947407Y-90229725D01*
X139405356Y-90005200D01*
X138818644Y-90005200D01*
X138276593Y-90229725D01*
X137861725Y-90644593D01*
X137637200Y-91186644D01*
X108075800Y-91186644D01*
X108075800Y-89916000D01*
X108347556Y-89916000D01*
X108433301Y-90347071D01*
X108677484Y-90712516D01*
X109042929Y-90956699D01*
X109365188Y-91020800D01*
X109582812Y-91020800D01*
X109905071Y-90956699D01*
X110270516Y-90712516D01*
X110514699Y-90347071D01*
X110600444Y-89916000D01*
X123587556Y-89916000D01*
X123673301Y-90347071D01*
X123917484Y-90712516D01*
X124282929Y-90956699D01*
X124605188Y-91020800D01*
X124822812Y-91020800D01*
X125145071Y-90956699D01*
X125510516Y-90712516D01*
X125754699Y-90347071D01*
X125840444Y-89916000D01*
X125754699Y-89484929D01*
X125510516Y-89119484D01*
X125145071Y-88875301D01*
X124822812Y-88811200D01*
X124605188Y-88811200D01*
X124282929Y-88875301D01*
X123917484Y-89119484D01*
X123673301Y-89484929D01*
X123587556Y-89916000D01*
X110600444Y-89916000D01*
X110514699Y-89484929D01*
X110270516Y-89119484D01*
X109905071Y-88875301D01*
X109582812Y-88811200D01*
X109365188Y-88811200D01*
X109042929Y-88875301D01*
X108677484Y-89119484D01*
X108433301Y-89484929D01*
X108347556Y-89916000D01*
X108075800Y-89916000D01*
X108075800Y-88686644D01*
X132637200Y-88686644D01*
X132637200Y-89273356D01*
X132861725Y-89815407D01*
X133276593Y-90230275D01*
X133818644Y-90454800D01*
X134405356Y-90454800D01*
X134947407Y-90230275D01*
X135362275Y-89815407D01*
X135586800Y-89273356D01*
X135586800Y-88686644D01*
X135362275Y-88144593D01*
X134991325Y-87773643D01*
X138637200Y-87773643D01*
X138637200Y-87994357D01*
X138721663Y-88198269D01*
X138877731Y-88354337D01*
X139081643Y-88438800D01*
X139302357Y-88438800D01*
X139493080Y-88359800D01*
X142042918Y-88359800D01*
X143034201Y-89351084D01*
X143034200Y-89741919D01*
X142955200Y-89932643D01*
X142955200Y-90153357D01*
X143039663Y-90357269D01*
X143195731Y-90513337D01*
X143399643Y-90597800D01*
X143620357Y-90597800D01*
X143824269Y-90513337D01*
X143980337Y-90357269D01*
X144064800Y-90153357D01*
X144064800Y-89932643D01*
X143985800Y-89741920D01*
X143985800Y-89200855D01*
X143995120Y-89153999D01*
X143985800Y-89107144D01*
X143985800Y-89107141D01*
X143958193Y-88968352D01*
X143853032Y-88810968D01*
X143813308Y-88784425D01*
X142609576Y-87580694D01*
X142583032Y-87540968D01*
X142425648Y-87435807D01*
X142286859Y-87408200D01*
X142286855Y-87408200D01*
X142240000Y-87398880D01*
X142193145Y-87408200D01*
X139493080Y-87408200D01*
X139302357Y-87329200D01*
X139081643Y-87329200D01*
X138877731Y-87413663D01*
X138721663Y-87569731D01*
X138637200Y-87773643D01*
X134991325Y-87773643D01*
X134947407Y-87729725D01*
X134405356Y-87505200D01*
X133818644Y-87505200D01*
X133276593Y-87729725D01*
X132861725Y-88144593D01*
X132637200Y-88686644D01*
X108075800Y-88686644D01*
X108075800Y-87773643D01*
X108157200Y-87773643D01*
X108157200Y-87994357D01*
X108241663Y-88198269D01*
X108397731Y-88354337D01*
X108601643Y-88438800D01*
X108822357Y-88438800D01*
X109026269Y-88354337D01*
X109182337Y-88198269D01*
X109266800Y-87994357D01*
X109266800Y-87773643D01*
X117301200Y-87773643D01*
X117301200Y-87994357D01*
X117385663Y-88198269D01*
X117541731Y-88354337D01*
X117745643Y-88438800D01*
X117966357Y-88438800D01*
X118170269Y-88354337D01*
X118326337Y-88198269D01*
X118410800Y-87994357D01*
X118410800Y-87773643D01*
X118326337Y-87569731D01*
X118170269Y-87413663D01*
X117966357Y-87329200D01*
X117745643Y-87329200D01*
X117541731Y-87413663D01*
X117385663Y-87569731D01*
X117301200Y-87773643D01*
X109266800Y-87773643D01*
X109182337Y-87569731D01*
X109026269Y-87413663D01*
X108822357Y-87329200D01*
X108601643Y-87329200D01*
X108397731Y-87413663D01*
X108241663Y-87569731D01*
X108157200Y-87773643D01*
X108075800Y-87773643D01*
X108075800Y-86263318D01*
X108107318Y-86231800D01*
X167482682Y-86231800D01*
X167514200Y-86263318D01*
G04 #@! TD*
M02*
