G04 #@! TF.GenerationSoftware,KiCad,Pcbnew,6.0.0-rc1-unknown-0cca1c6~65~ubuntu16.04.1*
G04 #@! TF.CreationDate,2018-08-01T17:44:40+02:00*
G04 #@! TF.ProjectId,ArduinoSpecAn,41726475696E6F53706563416E2E6B69,1.0*
G04 #@! TF.SameCoordinates,Original*
G04 #@! TF.FileFunction,Legend,Bot*
G04 #@! TF.FilePolarity,Positive*
%FSLAX46Y46*%
G04 Gerber Fmt 4.6, Leading zero omitted, Abs format (unit mm)*
G04 Created by KiCad (PCBNEW 6.0.0-rc1-unknown-0cca1c6~65~ubuntu16.04.1) date Wed Aug  1 17:44:40 2018*
%MOMM*%
%LPD*%
G01*
G04 APERTURE LIST*
%ADD10C,0.150000*%
%ADD11C,0.010000*%
G04 APERTURE END LIST*
D10*
X137821380Y-103521809D02*
X137821380Y-103712285D01*
X137869000Y-103807523D01*
X137964238Y-103902761D01*
X138154714Y-103950380D01*
X138488047Y-103950380D01*
X138678523Y-103902761D01*
X138773761Y-103807523D01*
X138821380Y-103712285D01*
X138821380Y-103521809D01*
X138773761Y-103426571D01*
X138678523Y-103331333D01*
X138488047Y-103283714D01*
X138154714Y-103283714D01*
X137964238Y-103331333D01*
X137869000Y-103426571D01*
X137821380Y-103521809D01*
X138154714Y-104378952D02*
X139154714Y-104378952D01*
X138202333Y-104378952D02*
X138154714Y-104474190D01*
X138154714Y-104664666D01*
X138202333Y-104759904D01*
X138249952Y-104807523D01*
X138345190Y-104855142D01*
X138630904Y-104855142D01*
X138726142Y-104807523D01*
X138773761Y-104759904D01*
X138821380Y-104664666D01*
X138821380Y-104474190D01*
X138773761Y-104378952D01*
X138773761Y-105664666D02*
X138821380Y-105569428D01*
X138821380Y-105378952D01*
X138773761Y-105283714D01*
X138678523Y-105236095D01*
X138297571Y-105236095D01*
X138202333Y-105283714D01*
X138154714Y-105378952D01*
X138154714Y-105569428D01*
X138202333Y-105664666D01*
X138297571Y-105712285D01*
X138392809Y-105712285D01*
X138488047Y-105236095D01*
X138154714Y-106140857D02*
X138821380Y-106140857D01*
X138249952Y-106140857D02*
X138202333Y-106188476D01*
X138154714Y-106283714D01*
X138154714Y-106426571D01*
X138202333Y-106521809D01*
X138297571Y-106569428D01*
X138821380Y-106569428D01*
X138821380Y-107045619D02*
X137821380Y-107045619D01*
X138821380Y-107617047D01*
X137821380Y-107617047D01*
X138773761Y-108474190D02*
X138821380Y-108378952D01*
X138821380Y-108188476D01*
X138773761Y-108093238D01*
X138678523Y-108045619D01*
X138297571Y-108045619D01*
X138202333Y-108093238D01*
X138154714Y-108188476D01*
X138154714Y-108378952D01*
X138202333Y-108474190D01*
X138297571Y-108521809D01*
X138392809Y-108521809D01*
X138488047Y-108045619D01*
X138154714Y-108807523D02*
X138154714Y-109188476D01*
X137821380Y-108950380D02*
X138678523Y-108950380D01*
X138773761Y-108998000D01*
X138821380Y-109093238D01*
X138821380Y-109188476D01*
X138154714Y-109426571D02*
X138821380Y-109617047D01*
X138345190Y-109807523D01*
X138821380Y-109998000D01*
X138154714Y-110188476D01*
X138821380Y-110712285D02*
X138773761Y-110617047D01*
X138726142Y-110569428D01*
X138630904Y-110521809D01*
X138345190Y-110521809D01*
X138249952Y-110569428D01*
X138202333Y-110617047D01*
X138154714Y-110712285D01*
X138154714Y-110855142D01*
X138202333Y-110950380D01*
X138249952Y-110998000D01*
X138345190Y-111045619D01*
X138630904Y-111045619D01*
X138726142Y-110998000D01*
X138773761Y-110950380D01*
X138821380Y-110855142D01*
X138821380Y-110712285D01*
X138821380Y-111474190D02*
X138154714Y-111474190D01*
X138345190Y-111474190D02*
X138249952Y-111521809D01*
X138202333Y-111569428D01*
X138154714Y-111664666D01*
X138154714Y-111759904D01*
X138821380Y-112093238D02*
X137821380Y-112093238D01*
X138440428Y-112188476D02*
X138821380Y-112474190D01*
X138154714Y-112474190D02*
X138535666Y-112093238D01*
X138535666Y-112855142D02*
X138535666Y-113331333D01*
X138821380Y-112759904D02*
X137821380Y-113093238D01*
X138821380Y-113426571D01*
X138154714Y-113759904D02*
X138821380Y-113759904D01*
X138249952Y-113759904D02*
X138202333Y-113807523D01*
X138154714Y-113902761D01*
X138154714Y-114045619D01*
X138202333Y-114140857D01*
X138297571Y-114188476D01*
X138821380Y-114188476D01*
X138821380Y-115093238D02*
X138297571Y-115093238D01*
X138202333Y-115045619D01*
X138154714Y-114950380D01*
X138154714Y-114759904D01*
X138202333Y-114664666D01*
X138773761Y-115093238D02*
X138821380Y-114998000D01*
X138821380Y-114759904D01*
X138773761Y-114664666D01*
X138678523Y-114617047D01*
X138583285Y-114617047D01*
X138488047Y-114664666D01*
X138440428Y-114759904D01*
X138440428Y-114998000D01*
X138392809Y-115093238D01*
X138821380Y-115712285D02*
X138773761Y-115617047D01*
X138678523Y-115569428D01*
X137821380Y-115569428D01*
X138154714Y-115998000D02*
X138821380Y-116236095D01*
X138154714Y-116474190D02*
X138821380Y-116236095D01*
X139059476Y-116140857D01*
X139107095Y-116093238D01*
X139154714Y-115998000D01*
X138154714Y-116759904D02*
X138154714Y-117283714D01*
X138821380Y-116759904D01*
X138821380Y-117283714D01*
X138773761Y-118045619D02*
X138821380Y-117950380D01*
X138821380Y-117759904D01*
X138773761Y-117664666D01*
X138678523Y-117617047D01*
X138297571Y-117617047D01*
X138202333Y-117664666D01*
X138154714Y-117759904D01*
X138154714Y-117950380D01*
X138202333Y-118045619D01*
X138297571Y-118093238D01*
X138392809Y-118093238D01*
X138488047Y-117617047D01*
X138821380Y-118521809D02*
X138154714Y-118521809D01*
X138345190Y-118521809D02*
X138249952Y-118569428D01*
X138202333Y-118617047D01*
X138154714Y-118712285D01*
X138154714Y-118807523D01*
X140185666Y-103593238D02*
X140185666Y-104069428D01*
X140471380Y-103498000D02*
X139471380Y-103831333D01*
X140471380Y-104164666D01*
X139804714Y-104498000D02*
X140471380Y-104498000D01*
X139899952Y-104498000D02*
X139852333Y-104545619D01*
X139804714Y-104640857D01*
X139804714Y-104783714D01*
X139852333Y-104878952D01*
X139947571Y-104926571D01*
X140471380Y-104926571D01*
X140471380Y-105831333D02*
X139471380Y-105831333D01*
X140423761Y-105831333D02*
X140471380Y-105736095D01*
X140471380Y-105545619D01*
X140423761Y-105450380D01*
X140376142Y-105402761D01*
X140280904Y-105355142D01*
X139995190Y-105355142D01*
X139899952Y-105402761D01*
X139852333Y-105450380D01*
X139804714Y-105545619D01*
X139804714Y-105736095D01*
X139852333Y-105831333D01*
X140471380Y-106307523D02*
X139804714Y-106307523D01*
X139995190Y-106307523D02*
X139899952Y-106355142D01*
X139852333Y-106402761D01*
X139804714Y-106498000D01*
X139804714Y-106593238D01*
X140423761Y-107307523D02*
X140471380Y-107212285D01*
X140471380Y-107021809D01*
X140423761Y-106926571D01*
X140328523Y-106878952D01*
X139947571Y-106878952D01*
X139852333Y-106926571D01*
X139804714Y-107021809D01*
X139804714Y-107212285D01*
X139852333Y-107307523D01*
X139947571Y-107355142D01*
X140042809Y-107355142D01*
X140138047Y-106878952D01*
X140471380Y-108212285D02*
X139947571Y-108212285D01*
X139852333Y-108164666D01*
X139804714Y-108069428D01*
X139804714Y-107878952D01*
X139852333Y-107783714D01*
X140423761Y-108212285D02*
X140471380Y-108117047D01*
X140471380Y-107878952D01*
X140423761Y-107783714D01*
X140328523Y-107736095D01*
X140233285Y-107736095D01*
X140138047Y-107783714D01*
X140090428Y-107878952D01*
X140090428Y-108117047D01*
X140042809Y-108212285D01*
X140423761Y-108640857D02*
X140471380Y-108736095D01*
X140471380Y-108926571D01*
X140423761Y-109021809D01*
X140328523Y-109069428D01*
X140280904Y-109069428D01*
X140185666Y-109021809D01*
X140138047Y-108926571D01*
X140138047Y-108783714D01*
X140090428Y-108688476D01*
X139995190Y-108640857D01*
X139947571Y-108640857D01*
X139852333Y-108688476D01*
X139804714Y-108783714D01*
X139804714Y-108926571D01*
X139852333Y-109021809D01*
X139947571Y-110593238D02*
X139995190Y-110736095D01*
X140042809Y-110783714D01*
X140138047Y-110831333D01*
X140280904Y-110831333D01*
X140376142Y-110783714D01*
X140423761Y-110736095D01*
X140471380Y-110640857D01*
X140471380Y-110259904D01*
X139471380Y-110259904D01*
X139471380Y-110593238D01*
X139519000Y-110688476D01*
X139566619Y-110736095D01*
X139661857Y-110783714D01*
X139757095Y-110783714D01*
X139852333Y-110736095D01*
X139899952Y-110688476D01*
X139947571Y-110593238D01*
X139947571Y-110259904D01*
X139804714Y-111688476D02*
X140471380Y-111688476D01*
X139804714Y-111259904D02*
X140328523Y-111259904D01*
X140423761Y-111307523D01*
X140471380Y-111402761D01*
X140471380Y-111545619D01*
X140423761Y-111640857D01*
X140376142Y-111688476D01*
X139804714Y-112021809D02*
X139804714Y-112402761D01*
X139471380Y-112164666D02*
X140328523Y-112164666D01*
X140423761Y-112212285D01*
X140471380Y-112307523D01*
X140471380Y-112402761D01*
X139804714Y-112593238D02*
X139804714Y-112974190D01*
X139471380Y-112736095D02*
X140328523Y-112736095D01*
X140423761Y-112783714D01*
X140471380Y-112878952D01*
X140471380Y-112974190D01*
X140471380Y-113307523D02*
X139804714Y-113307523D01*
X139471380Y-113307523D02*
X139519000Y-113259904D01*
X139566619Y-113307523D01*
X139519000Y-113355142D01*
X139471380Y-113307523D01*
X139566619Y-113307523D01*
X140423761Y-113831333D02*
X140471380Y-113831333D01*
X140566619Y-113783714D01*
X140614238Y-113736095D01*
X139566619Y-114974190D02*
X139519000Y-115021809D01*
X139471380Y-115117047D01*
X139471380Y-115355142D01*
X139519000Y-115450380D01*
X139566619Y-115498000D01*
X139661857Y-115545619D01*
X139757095Y-115545619D01*
X139899952Y-115498000D01*
X140471380Y-114926571D01*
X140471380Y-115545619D01*
X139471380Y-116164666D02*
X139471380Y-116259904D01*
X139519000Y-116355142D01*
X139566619Y-116402761D01*
X139661857Y-116450380D01*
X139852333Y-116498000D01*
X140090428Y-116498000D01*
X140280904Y-116450380D01*
X140376142Y-116402761D01*
X140423761Y-116355142D01*
X140471380Y-116259904D01*
X140471380Y-116164666D01*
X140423761Y-116069428D01*
X140376142Y-116021809D01*
X140280904Y-115974190D01*
X140090428Y-115926571D01*
X139852333Y-115926571D01*
X139661857Y-115974190D01*
X139566619Y-116021809D01*
X139519000Y-116069428D01*
X139471380Y-116164666D01*
X140471380Y-117450380D02*
X140471380Y-116878952D01*
X140471380Y-117164666D02*
X139471380Y-117164666D01*
X139614238Y-117069428D01*
X139709476Y-116974190D01*
X139757095Y-116878952D01*
X139899952Y-118021809D02*
X139852333Y-117926571D01*
X139804714Y-117878952D01*
X139709476Y-117831333D01*
X139661857Y-117831333D01*
X139566619Y-117878952D01*
X139519000Y-117926571D01*
X139471380Y-118021809D01*
X139471380Y-118212285D01*
X139519000Y-118307523D01*
X139566619Y-118355142D01*
X139661857Y-118402761D01*
X139709476Y-118402761D01*
X139804714Y-118355142D01*
X139852333Y-118307523D01*
X139899952Y-118212285D01*
X139899952Y-118021809D01*
X139947571Y-117926571D01*
X139995190Y-117878952D01*
X140090428Y-117831333D01*
X140280904Y-117831333D01*
X140376142Y-117878952D01*
X140423761Y-117926571D01*
X140471380Y-118021809D01*
X140471380Y-118212285D01*
X140423761Y-118307523D01*
X140376142Y-118355142D01*
X140280904Y-118402761D01*
X140090428Y-118402761D01*
X139995190Y-118355142D01*
X139947571Y-118307523D01*
X139899952Y-118212285D01*
X142121380Y-90164666D02*
X141121380Y-90164666D01*
X142121380Y-90593238D02*
X141597571Y-90593238D01*
X141502333Y-90545619D01*
X141454714Y-90450380D01*
X141454714Y-90307523D01*
X141502333Y-90212285D01*
X141549952Y-90164666D01*
X141454714Y-90926571D02*
X141454714Y-91307523D01*
X141121380Y-91069428D02*
X141978523Y-91069428D01*
X142073761Y-91117047D01*
X142121380Y-91212285D01*
X142121380Y-91307523D01*
X141454714Y-91498000D02*
X141454714Y-91878952D01*
X141121380Y-91640857D02*
X141978523Y-91640857D01*
X142073761Y-91688476D01*
X142121380Y-91783714D01*
X142121380Y-91878952D01*
X141454714Y-92212285D02*
X142454714Y-92212285D01*
X141502333Y-92212285D02*
X141454714Y-92307523D01*
X141454714Y-92498000D01*
X141502333Y-92593238D01*
X141549952Y-92640857D01*
X141645190Y-92688476D01*
X141930904Y-92688476D01*
X142026142Y-92640857D01*
X142073761Y-92593238D01*
X142121380Y-92498000D01*
X142121380Y-92307523D01*
X142073761Y-92212285D01*
X142073761Y-93069428D02*
X142121380Y-93164666D01*
X142121380Y-93355142D01*
X142073761Y-93450380D01*
X141978523Y-93498000D01*
X141930904Y-93498000D01*
X141835666Y-93450380D01*
X141788047Y-93355142D01*
X141788047Y-93212285D01*
X141740428Y-93117047D01*
X141645190Y-93069428D01*
X141597571Y-93069428D01*
X141502333Y-93117047D01*
X141454714Y-93212285D01*
X141454714Y-93355142D01*
X141502333Y-93450380D01*
X142026142Y-93926571D02*
X142073761Y-93974190D01*
X142121380Y-93926571D01*
X142073761Y-93878952D01*
X142026142Y-93926571D01*
X142121380Y-93926571D01*
X141502333Y-93926571D02*
X141549952Y-93974190D01*
X141597571Y-93926571D01*
X141549952Y-93878952D01*
X141502333Y-93926571D01*
X141597571Y-93926571D01*
X141073761Y-95117047D02*
X142359476Y-94259904D01*
X141073761Y-96164666D02*
X142359476Y-95307523D01*
X141454714Y-96926571D02*
X142264238Y-96926571D01*
X142359476Y-96878952D01*
X142407095Y-96831333D01*
X142454714Y-96736095D01*
X142454714Y-96593238D01*
X142407095Y-96498000D01*
X142073761Y-96926571D02*
X142121380Y-96831333D01*
X142121380Y-96640857D01*
X142073761Y-96545619D01*
X142026142Y-96498000D01*
X141930904Y-96450380D01*
X141645190Y-96450380D01*
X141549952Y-96498000D01*
X141502333Y-96545619D01*
X141454714Y-96640857D01*
X141454714Y-96831333D01*
X141502333Y-96926571D01*
X142121380Y-97402761D02*
X141454714Y-97402761D01*
X141121380Y-97402761D02*
X141169000Y-97355142D01*
X141216619Y-97402761D01*
X141169000Y-97450380D01*
X141121380Y-97402761D01*
X141216619Y-97402761D01*
X141454714Y-97736095D02*
X141454714Y-98117047D01*
X141121380Y-97878952D02*
X141978523Y-97878952D01*
X142073761Y-97926571D01*
X142121380Y-98021809D01*
X142121380Y-98117047D01*
X142121380Y-98450380D02*
X141121380Y-98450380D01*
X142121380Y-98878952D02*
X141597571Y-98878952D01*
X141502333Y-98831333D01*
X141454714Y-98736095D01*
X141454714Y-98593238D01*
X141502333Y-98498000D01*
X141549952Y-98450380D01*
X141454714Y-99783714D02*
X142121380Y-99783714D01*
X141454714Y-99355142D02*
X141978523Y-99355142D01*
X142073761Y-99402761D01*
X142121380Y-99498000D01*
X142121380Y-99640857D01*
X142073761Y-99736095D01*
X142026142Y-99783714D01*
X142121380Y-100259904D02*
X141121380Y-100259904D01*
X141502333Y-100259904D02*
X141454714Y-100355142D01*
X141454714Y-100545619D01*
X141502333Y-100640857D01*
X141549952Y-100688476D01*
X141645190Y-100736095D01*
X141930904Y-100736095D01*
X142026142Y-100688476D01*
X142073761Y-100640857D01*
X142121380Y-100545619D01*
X142121380Y-100355142D01*
X142073761Y-100259904D01*
X142026142Y-101164666D02*
X142073761Y-101212285D01*
X142121380Y-101164666D01*
X142073761Y-101117047D01*
X142026142Y-101164666D01*
X142121380Y-101164666D01*
X142073761Y-102069428D02*
X142121380Y-101974190D01*
X142121380Y-101783714D01*
X142073761Y-101688476D01*
X142026142Y-101640857D01*
X141930904Y-101593238D01*
X141645190Y-101593238D01*
X141549952Y-101640857D01*
X141502333Y-101688476D01*
X141454714Y-101783714D01*
X141454714Y-101974190D01*
X141502333Y-102069428D01*
X142121380Y-102640857D02*
X142073761Y-102545619D01*
X142026142Y-102498000D01*
X141930904Y-102450380D01*
X141645190Y-102450380D01*
X141549952Y-102498000D01*
X141502333Y-102545619D01*
X141454714Y-102640857D01*
X141454714Y-102783714D01*
X141502333Y-102878952D01*
X141549952Y-102926571D01*
X141645190Y-102974190D01*
X141930904Y-102974190D01*
X142026142Y-102926571D01*
X142073761Y-102878952D01*
X142121380Y-102783714D01*
X142121380Y-102640857D01*
X142121380Y-103402761D02*
X141454714Y-103402761D01*
X141549952Y-103402761D02*
X141502333Y-103450380D01*
X141454714Y-103545619D01*
X141454714Y-103688476D01*
X141502333Y-103783714D01*
X141597571Y-103831333D01*
X142121380Y-103831333D01*
X141597571Y-103831333D02*
X141502333Y-103878952D01*
X141454714Y-103974190D01*
X141454714Y-104117047D01*
X141502333Y-104212285D01*
X141597571Y-104259904D01*
X142121380Y-104259904D01*
X141073761Y-105450380D02*
X142359476Y-104593238D01*
X142121380Y-106212285D02*
X141597571Y-106212285D01*
X141502333Y-106164666D01*
X141454714Y-106069428D01*
X141454714Y-105878952D01*
X141502333Y-105783714D01*
X142073761Y-106212285D02*
X142121380Y-106117047D01*
X142121380Y-105878952D01*
X142073761Y-105783714D01*
X141978523Y-105736095D01*
X141883285Y-105736095D01*
X141788047Y-105783714D01*
X141740428Y-105878952D01*
X141740428Y-106117047D01*
X141692809Y-106212285D01*
X141454714Y-106688476D02*
X142121380Y-106688476D01*
X141549952Y-106688476D02*
X141502333Y-106736095D01*
X141454714Y-106831333D01*
X141454714Y-106974190D01*
X141502333Y-107069428D01*
X141597571Y-107117047D01*
X142121380Y-107117047D01*
X142121380Y-108021809D02*
X141121380Y-108021809D01*
X142073761Y-108021809D02*
X142121380Y-107926571D01*
X142121380Y-107736095D01*
X142073761Y-107640857D01*
X142026142Y-107593238D01*
X141930904Y-107545619D01*
X141645190Y-107545619D01*
X141549952Y-107593238D01*
X141502333Y-107640857D01*
X141454714Y-107736095D01*
X141454714Y-107926571D01*
X141502333Y-108021809D01*
X142121380Y-108498000D02*
X141454714Y-108498000D01*
X141645190Y-108498000D02*
X141549952Y-108545619D01*
X141502333Y-108593238D01*
X141454714Y-108688476D01*
X141454714Y-108783714D01*
X142073761Y-109498000D02*
X142121380Y-109402761D01*
X142121380Y-109212285D01*
X142073761Y-109117047D01*
X141978523Y-109069428D01*
X141597571Y-109069428D01*
X141502333Y-109117047D01*
X141454714Y-109212285D01*
X141454714Y-109402761D01*
X141502333Y-109498000D01*
X141597571Y-109545619D01*
X141692809Y-109545619D01*
X141788047Y-109069428D01*
X142121380Y-110402761D02*
X141597571Y-110402761D01*
X141502333Y-110355142D01*
X141454714Y-110259904D01*
X141454714Y-110069428D01*
X141502333Y-109974190D01*
X142073761Y-110402761D02*
X142121380Y-110307523D01*
X142121380Y-110069428D01*
X142073761Y-109974190D01*
X141978523Y-109926571D01*
X141883285Y-109926571D01*
X141788047Y-109974190D01*
X141740428Y-110069428D01*
X141740428Y-110307523D01*
X141692809Y-110402761D01*
X142073761Y-110831333D02*
X142121380Y-110926571D01*
X142121380Y-111117047D01*
X142073761Y-111212285D01*
X141978523Y-111259904D01*
X141930904Y-111259904D01*
X141835666Y-111212285D01*
X141788047Y-111117047D01*
X141788047Y-110974190D01*
X141740428Y-110878952D01*
X141645190Y-110831333D01*
X141597571Y-110831333D01*
X141502333Y-110878952D01*
X141454714Y-110974190D01*
X141454714Y-111117047D01*
X141502333Y-111212285D01*
X142121380Y-111688476D02*
X141121380Y-111688476D01*
X141502333Y-111688476D02*
X141454714Y-111783714D01*
X141454714Y-111974190D01*
X141502333Y-112069428D01*
X141549952Y-112117047D01*
X141645190Y-112164666D01*
X141930904Y-112164666D01*
X142026142Y-112117047D01*
X142073761Y-112069428D01*
X142121380Y-111974190D01*
X142121380Y-111783714D01*
X142073761Y-111688476D01*
X141216619Y-112545619D02*
X141169000Y-112593238D01*
X141121380Y-112688476D01*
X141121380Y-112926571D01*
X141169000Y-113021809D01*
X141216619Y-113069428D01*
X141311857Y-113117047D01*
X141407095Y-113117047D01*
X141549952Y-113069428D01*
X142121380Y-112497999D01*
X142121380Y-113117047D01*
X141454714Y-113974190D02*
X142121380Y-113974190D01*
X141073761Y-113736095D02*
X141788047Y-113497999D01*
X141788047Y-114117047D01*
X141216619Y-114450380D02*
X141169000Y-114497999D01*
X141121380Y-114593238D01*
X141121380Y-114831333D01*
X141169000Y-114926571D01*
X141216619Y-114974190D01*
X141311857Y-115021809D01*
X141407095Y-115021809D01*
X141549952Y-114974190D01*
X142121380Y-114402761D01*
X142121380Y-115021809D01*
X141073761Y-116164666D02*
X142359476Y-115307523D01*
X141121380Y-116688476D02*
X141121380Y-116878952D01*
X141169000Y-116974190D01*
X141264238Y-117069428D01*
X141454714Y-117117047D01*
X141788047Y-117117047D01*
X141978523Y-117069428D01*
X142073761Y-116974190D01*
X142121380Y-116878952D01*
X142121380Y-116688476D01*
X142073761Y-116593238D01*
X141978523Y-116497999D01*
X141788047Y-116450380D01*
X141454714Y-116450380D01*
X141264238Y-116497999D01*
X141169000Y-116593238D01*
X141121380Y-116688476D01*
X141454714Y-117545619D02*
X142454714Y-117545619D01*
X141502333Y-117545619D02*
X141454714Y-117640857D01*
X141454714Y-117831333D01*
X141502333Y-117926571D01*
X141549952Y-117974190D01*
X141645190Y-118021809D01*
X141930904Y-118021809D01*
X142026142Y-117974190D01*
X142073761Y-117926571D01*
X142121380Y-117831333D01*
X142121380Y-117640857D01*
X142073761Y-117545619D01*
X142073761Y-118831333D02*
X142121380Y-118736095D01*
X142121380Y-118545619D01*
X142073761Y-118450380D01*
X141978523Y-118402761D01*
X141597571Y-118402761D01*
X141502333Y-118450380D01*
X141454714Y-118545619D01*
X141454714Y-118736095D01*
X141502333Y-118831333D01*
X141597571Y-118878952D01*
X141692809Y-118878952D01*
X141788047Y-118402761D01*
X141454714Y-119307523D02*
X142121380Y-119307523D01*
X141549952Y-119307523D02*
X141502333Y-119355142D01*
X141454714Y-119450380D01*
X141454714Y-119593238D01*
X141502333Y-119688476D01*
X141597571Y-119736095D01*
X142121380Y-119736095D01*
X142121380Y-120212285D02*
X141121380Y-120212285D01*
X142121380Y-120783714D01*
X141121380Y-120783714D01*
X142073761Y-121640857D02*
X142121380Y-121545619D01*
X142121380Y-121355142D01*
X142073761Y-121259904D01*
X141978523Y-121212285D01*
X141597571Y-121212285D01*
X141502333Y-121259904D01*
X141454714Y-121355142D01*
X141454714Y-121545619D01*
X141502333Y-121640857D01*
X141597571Y-121688476D01*
X141692809Y-121688476D01*
X141788047Y-121212285D01*
X141454714Y-121974190D02*
X141454714Y-122355142D01*
X141121380Y-122117047D02*
X141978523Y-122117047D01*
X142073761Y-122164666D01*
X142121380Y-122259904D01*
X142121380Y-122355142D01*
X141454714Y-122593238D02*
X142121380Y-122783714D01*
X141645190Y-122974190D01*
X142121380Y-123164666D01*
X141454714Y-123355142D01*
X142121380Y-123878952D02*
X142073761Y-123783714D01*
X142026142Y-123736095D01*
X141930904Y-123688476D01*
X141645190Y-123688476D01*
X141549952Y-123736095D01*
X141502333Y-123783714D01*
X141454714Y-123878952D01*
X141454714Y-124021809D01*
X141502333Y-124117047D01*
X141549952Y-124164666D01*
X141645190Y-124212285D01*
X141930904Y-124212285D01*
X142026142Y-124164666D01*
X142073761Y-124117047D01*
X142121380Y-124021809D01*
X142121380Y-123878952D01*
X142121380Y-124640857D02*
X141454714Y-124640857D01*
X141645190Y-124640857D02*
X141549952Y-124688476D01*
X141502333Y-124736095D01*
X141454714Y-124831333D01*
X141454714Y-124926571D01*
X142121380Y-125259904D02*
X141121380Y-125259904D01*
X141740428Y-125355142D02*
X142121380Y-125640857D01*
X141454714Y-125640857D02*
X141835666Y-125259904D01*
X141835666Y-126021809D02*
X141835666Y-126497999D01*
X142121380Y-125926571D02*
X141121380Y-126259904D01*
X142121380Y-126593238D01*
X141454714Y-126926571D02*
X142121380Y-126926571D01*
X141549952Y-126926571D02*
X141502333Y-126974190D01*
X141454714Y-127069428D01*
X141454714Y-127212285D01*
X141502333Y-127307523D01*
X141597571Y-127355142D01*
X142121380Y-127355142D01*
X142121380Y-128259904D02*
X141597571Y-128259904D01*
X141502333Y-128212285D01*
X141454714Y-128117047D01*
X141454714Y-127926571D01*
X141502333Y-127831333D01*
X142073761Y-128259904D02*
X142121380Y-128164666D01*
X142121380Y-127926571D01*
X142073761Y-127831333D01*
X141978523Y-127783714D01*
X141883285Y-127783714D01*
X141788047Y-127831333D01*
X141740428Y-127926571D01*
X141740428Y-128164666D01*
X141692809Y-128259904D01*
X142121380Y-128878952D02*
X142073761Y-128783714D01*
X141978523Y-128736095D01*
X141121380Y-128736095D01*
X141454714Y-129164666D02*
X142121380Y-129402761D01*
X141454714Y-129640857D02*
X142121380Y-129402761D01*
X142359476Y-129307523D01*
X142407095Y-129259904D01*
X142454714Y-129164666D01*
X141454714Y-129926571D02*
X141454714Y-130450380D01*
X142121380Y-129926571D01*
X142121380Y-130450380D01*
X142073761Y-131212285D02*
X142121380Y-131117047D01*
X142121380Y-130926571D01*
X142073761Y-130831333D01*
X141978523Y-130783714D01*
X141597571Y-130783714D01*
X141502333Y-130831333D01*
X141454714Y-130926571D01*
X141454714Y-131117047D01*
X141502333Y-131212285D01*
X141597571Y-131259904D01*
X141692809Y-131259904D01*
X141788047Y-130783714D01*
X142121380Y-131688476D02*
X141454714Y-131688476D01*
X141645190Y-131688476D02*
X141549952Y-131736095D01*
X141502333Y-131783714D01*
X141454714Y-131878952D01*
X141454714Y-131974190D01*
X144897571Y-108045619D02*
X144945190Y-108188476D01*
X144992809Y-108236095D01*
X145088047Y-108283714D01*
X145230904Y-108283714D01*
X145326142Y-108236095D01*
X145373761Y-108188476D01*
X145421380Y-108093238D01*
X145421380Y-107712285D01*
X144421380Y-107712285D01*
X144421380Y-108045619D01*
X144469000Y-108140857D01*
X144516619Y-108188476D01*
X144611857Y-108236095D01*
X144707095Y-108236095D01*
X144802333Y-108188476D01*
X144849952Y-108140857D01*
X144897571Y-108045619D01*
X144897571Y-107712285D01*
X145421380Y-109140857D02*
X144897571Y-109140857D01*
X144802333Y-109093238D01*
X144754714Y-108998000D01*
X144754714Y-108807523D01*
X144802333Y-108712285D01*
X145373761Y-109140857D02*
X145421380Y-109045619D01*
X145421380Y-108807523D01*
X145373761Y-108712285D01*
X145278523Y-108664666D01*
X145183285Y-108664666D01*
X145088047Y-108712285D01*
X145040428Y-108807523D01*
X145040428Y-109045619D01*
X144992809Y-109140857D01*
X145373761Y-109569428D02*
X145421380Y-109664666D01*
X145421380Y-109855142D01*
X145373761Y-109950380D01*
X145278523Y-109998000D01*
X145230904Y-109998000D01*
X145135666Y-109950380D01*
X145088047Y-109855142D01*
X145088047Y-109712285D01*
X145040428Y-109617047D01*
X144945190Y-109569428D01*
X144897571Y-109569428D01*
X144802333Y-109617047D01*
X144754714Y-109712285D01*
X144754714Y-109855142D01*
X144802333Y-109950380D01*
X145373761Y-110807523D02*
X145421380Y-110712285D01*
X145421380Y-110521809D01*
X145373761Y-110426571D01*
X145278523Y-110378952D01*
X144897571Y-110378952D01*
X144802333Y-110426571D01*
X144754714Y-110521809D01*
X144754714Y-110712285D01*
X144802333Y-110807523D01*
X144897571Y-110855142D01*
X144992809Y-110855142D01*
X145088047Y-110378952D01*
X145421380Y-111712285D02*
X144421380Y-111712285D01*
X145373761Y-111712285D02*
X145421380Y-111617047D01*
X145421380Y-111426571D01*
X145373761Y-111331333D01*
X145326142Y-111283714D01*
X145230904Y-111236095D01*
X144945190Y-111236095D01*
X144849952Y-111283714D01*
X144802333Y-111331333D01*
X144754714Y-111426571D01*
X144754714Y-111617047D01*
X144802333Y-111712285D01*
X145421380Y-113093238D02*
X145373761Y-112998000D01*
X145326142Y-112950380D01*
X145230904Y-112902761D01*
X144945190Y-112902761D01*
X144849952Y-112950380D01*
X144802333Y-112998000D01*
X144754714Y-113093238D01*
X144754714Y-113236095D01*
X144802333Y-113331333D01*
X144849952Y-113378952D01*
X144945190Y-113426571D01*
X145230904Y-113426571D01*
X145326142Y-113378952D01*
X145373761Y-113331333D01*
X145421380Y-113236095D01*
X145421380Y-113093238D01*
X144754714Y-113855142D02*
X145421380Y-113855142D01*
X144849952Y-113855142D02*
X144802333Y-113902761D01*
X144754714Y-113998000D01*
X144754714Y-114140857D01*
X144802333Y-114236095D01*
X144897571Y-114283714D01*
X145421380Y-114283714D01*
X147071380Y-86974190D02*
X146071380Y-86974190D01*
X147071380Y-87402761D02*
X146547571Y-87402761D01*
X146452333Y-87355142D01*
X146404714Y-87259904D01*
X146404714Y-87117047D01*
X146452333Y-87021809D01*
X146499952Y-86974190D01*
X146404714Y-87736095D02*
X146404714Y-88117047D01*
X146071380Y-87878952D02*
X146928523Y-87878952D01*
X147023761Y-87926571D01*
X147071380Y-88021809D01*
X147071380Y-88117047D01*
X146404714Y-88307523D02*
X146404714Y-88688476D01*
X146071380Y-88450380D02*
X146928523Y-88450380D01*
X147023761Y-88498000D01*
X147071380Y-88593238D01*
X147071380Y-88688476D01*
X146404714Y-89021809D02*
X147404714Y-89021809D01*
X146452333Y-89021809D02*
X146404714Y-89117047D01*
X146404714Y-89307523D01*
X146452333Y-89402761D01*
X146499952Y-89450380D01*
X146595190Y-89498000D01*
X146880904Y-89498000D01*
X146976142Y-89450380D01*
X147023761Y-89402761D01*
X147071380Y-89307523D01*
X147071380Y-89117047D01*
X147023761Y-89021809D01*
X147023761Y-89878952D02*
X147071380Y-89974190D01*
X147071380Y-90164666D01*
X147023761Y-90259904D01*
X146928523Y-90307523D01*
X146880904Y-90307523D01*
X146785666Y-90259904D01*
X146738047Y-90164666D01*
X146738047Y-90021809D01*
X146690428Y-89926571D01*
X146595190Y-89878952D01*
X146547571Y-89878952D01*
X146452333Y-89926571D01*
X146404714Y-90021809D01*
X146404714Y-90164666D01*
X146452333Y-90259904D01*
X146976142Y-90736095D02*
X147023761Y-90783714D01*
X147071380Y-90736095D01*
X147023761Y-90688476D01*
X146976142Y-90736095D01*
X147071380Y-90736095D01*
X146452333Y-90736095D02*
X146499952Y-90783714D01*
X146547571Y-90736095D01*
X146499952Y-90688476D01*
X146452333Y-90736095D01*
X146547571Y-90736095D01*
X146023761Y-91926571D02*
X147309476Y-91069428D01*
X146023761Y-92974190D02*
X147309476Y-92117047D01*
X147071380Y-93307523D02*
X146071380Y-93307523D01*
X147071380Y-93736095D02*
X146547571Y-93736095D01*
X146452333Y-93688476D01*
X146404714Y-93593238D01*
X146404714Y-93450380D01*
X146452333Y-93355142D01*
X146499952Y-93307523D01*
X147071380Y-94640857D02*
X146547571Y-94640857D01*
X146452333Y-94593238D01*
X146404714Y-94498000D01*
X146404714Y-94307523D01*
X146452333Y-94212285D01*
X147023761Y-94640857D02*
X147071380Y-94545619D01*
X147071380Y-94307523D01*
X147023761Y-94212285D01*
X146928523Y-94164666D01*
X146833285Y-94164666D01*
X146738047Y-94212285D01*
X146690428Y-94307523D01*
X146690428Y-94545619D01*
X146642809Y-94640857D01*
X147023761Y-95545619D02*
X147071380Y-95450380D01*
X147071380Y-95259904D01*
X147023761Y-95164666D01*
X146976142Y-95117047D01*
X146880904Y-95069428D01*
X146595190Y-95069428D01*
X146499952Y-95117047D01*
X146452333Y-95164666D01*
X146404714Y-95259904D01*
X146404714Y-95450380D01*
X146452333Y-95545619D01*
X147071380Y-95974190D02*
X146071380Y-95974190D01*
X146690428Y-96069428D02*
X147071380Y-96355142D01*
X146404714Y-96355142D02*
X146785666Y-95974190D01*
X147071380Y-97212285D02*
X146547571Y-97212285D01*
X146452333Y-97164666D01*
X146404714Y-97069428D01*
X146404714Y-96878952D01*
X146452333Y-96783714D01*
X147023761Y-97212285D02*
X147071380Y-97117047D01*
X147071380Y-96878952D01*
X147023761Y-96783714D01*
X146928523Y-96736095D01*
X146833285Y-96736095D01*
X146738047Y-96783714D01*
X146690428Y-96878952D01*
X146690428Y-97117047D01*
X146642809Y-97212285D01*
X147071380Y-98117047D02*
X146071380Y-98117047D01*
X147023761Y-98117047D02*
X147071380Y-98021809D01*
X147071380Y-97831333D01*
X147023761Y-97736095D01*
X146976142Y-97688476D01*
X146880904Y-97640857D01*
X146595190Y-97640857D01*
X146499952Y-97688476D01*
X146452333Y-97736095D01*
X146404714Y-97831333D01*
X146404714Y-98021809D01*
X146452333Y-98117047D01*
X147071380Y-99021809D02*
X146547571Y-99021809D01*
X146452333Y-98974190D01*
X146404714Y-98878952D01*
X146404714Y-98688476D01*
X146452333Y-98593238D01*
X147023761Y-99021809D02*
X147071380Y-98926571D01*
X147071380Y-98688476D01*
X147023761Y-98593238D01*
X146928523Y-98545619D01*
X146833285Y-98545619D01*
X146738047Y-98593238D01*
X146690428Y-98688476D01*
X146690428Y-98926571D01*
X146642809Y-99021809D01*
X146404714Y-99402761D02*
X147071380Y-99640857D01*
X146404714Y-99878952D02*
X147071380Y-99640857D01*
X147309476Y-99545619D01*
X147357095Y-99497999D01*
X147404714Y-99402761D01*
X146976142Y-100259904D02*
X147023761Y-100307523D01*
X147071380Y-100259904D01*
X147023761Y-100212285D01*
X146976142Y-100259904D01*
X147071380Y-100259904D01*
X147071380Y-100736095D02*
X146404714Y-100736095D01*
X146071380Y-100736095D02*
X146119000Y-100688476D01*
X146166619Y-100736095D01*
X146119000Y-100783714D01*
X146071380Y-100736095D01*
X146166619Y-100736095D01*
X147071380Y-101355142D02*
X147023761Y-101259904D01*
X146976142Y-101212285D01*
X146880904Y-101164666D01*
X146595190Y-101164666D01*
X146499952Y-101212285D01*
X146452333Y-101259904D01*
X146404714Y-101355142D01*
X146404714Y-101497999D01*
X146452333Y-101593238D01*
X146499952Y-101640857D01*
X146595190Y-101688476D01*
X146880904Y-101688476D01*
X146976142Y-101640857D01*
X147023761Y-101593238D01*
X147071380Y-101497999D01*
X147071380Y-101355142D01*
X146023761Y-102831333D02*
X147309476Y-101974190D01*
X146404714Y-103164666D02*
X147404714Y-103164666D01*
X146452333Y-103164666D02*
X146404714Y-103259904D01*
X146404714Y-103450380D01*
X146452333Y-103545619D01*
X146499952Y-103593238D01*
X146595190Y-103640857D01*
X146880904Y-103640857D01*
X146976142Y-103593238D01*
X147023761Y-103545619D01*
X147071380Y-103450380D01*
X147071380Y-103259904D01*
X147023761Y-103164666D01*
X147071380Y-104069428D02*
X146404714Y-104069428D01*
X146595190Y-104069428D02*
X146499952Y-104117047D01*
X146452333Y-104164666D01*
X146404714Y-104259904D01*
X146404714Y-104355142D01*
X147071380Y-104831333D02*
X147023761Y-104736095D01*
X146976142Y-104688476D01*
X146880904Y-104640857D01*
X146595190Y-104640857D01*
X146499952Y-104688476D01*
X146452333Y-104736095D01*
X146404714Y-104831333D01*
X146404714Y-104974190D01*
X146452333Y-105069428D01*
X146499952Y-105117047D01*
X146595190Y-105164666D01*
X146880904Y-105164666D01*
X146976142Y-105117047D01*
X147023761Y-105069428D01*
X147071380Y-104974190D01*
X147071380Y-104831333D01*
X146404714Y-105593238D02*
X147261857Y-105593238D01*
X147357095Y-105545619D01*
X147404714Y-105450380D01*
X147404714Y-105402761D01*
X146071380Y-105593238D02*
X146119000Y-105545619D01*
X146166619Y-105593238D01*
X146119000Y-105640857D01*
X146071380Y-105593238D01*
X146166619Y-105593238D01*
X147023761Y-106450380D02*
X147071380Y-106355142D01*
X147071380Y-106164666D01*
X147023761Y-106069428D01*
X146928523Y-106021809D01*
X146547571Y-106021809D01*
X146452333Y-106069428D01*
X146404714Y-106164666D01*
X146404714Y-106355142D01*
X146452333Y-106450380D01*
X146547571Y-106497999D01*
X146642809Y-106497999D01*
X146738047Y-106021809D01*
X147023761Y-107355142D02*
X147071380Y-107259904D01*
X147071380Y-107069428D01*
X147023761Y-106974190D01*
X146976142Y-106926571D01*
X146880904Y-106878952D01*
X146595190Y-106878952D01*
X146499952Y-106926571D01*
X146452333Y-106974190D01*
X146404714Y-107069428D01*
X146404714Y-107259904D01*
X146452333Y-107355142D01*
X146404714Y-107640857D02*
X146404714Y-108021809D01*
X146071380Y-107783714D02*
X146928523Y-107783714D01*
X147023761Y-107831333D01*
X147071380Y-107926571D01*
X147071380Y-108021809D01*
X146023761Y-109069428D02*
X147309476Y-108212285D01*
X147071380Y-109926571D02*
X147071380Y-109355142D01*
X147071380Y-109640857D02*
X146071380Y-109640857D01*
X146214238Y-109545619D01*
X146309476Y-109450380D01*
X146357095Y-109355142D01*
X146071380Y-110545619D02*
X146071380Y-110640857D01*
X146119000Y-110736095D01*
X146166619Y-110783714D01*
X146261857Y-110831333D01*
X146452333Y-110878952D01*
X146690428Y-110878952D01*
X146880904Y-110831333D01*
X146976142Y-110783714D01*
X147023761Y-110736095D01*
X147071380Y-110640857D01*
X147071380Y-110545619D01*
X147023761Y-110450380D01*
X146976142Y-110402761D01*
X146880904Y-110355142D01*
X146690428Y-110307523D01*
X146452333Y-110307523D01*
X146261857Y-110355142D01*
X146166619Y-110402761D01*
X146119000Y-110450380D01*
X146071380Y-110545619D01*
X146071380Y-111497999D02*
X146071380Y-111593238D01*
X146119000Y-111688476D01*
X146166619Y-111736095D01*
X146261857Y-111783714D01*
X146452333Y-111831333D01*
X146690428Y-111831333D01*
X146880904Y-111783714D01*
X146976142Y-111736095D01*
X147023761Y-111688476D01*
X147071380Y-111593238D01*
X147071380Y-111497999D01*
X147023761Y-111402761D01*
X146976142Y-111355142D01*
X146880904Y-111307523D01*
X146690428Y-111259904D01*
X146452333Y-111259904D01*
X146261857Y-111307523D01*
X146166619Y-111355142D01*
X146119000Y-111402761D01*
X146071380Y-111497999D01*
X146166619Y-112212285D02*
X146119000Y-112259904D01*
X146071380Y-112355142D01*
X146071380Y-112593238D01*
X146119000Y-112688476D01*
X146166619Y-112736095D01*
X146261857Y-112783714D01*
X146357095Y-112783714D01*
X146499952Y-112736095D01*
X147071380Y-112164666D01*
X147071380Y-112783714D01*
X147071380Y-113736095D02*
X147071380Y-113164666D01*
X147071380Y-113450380D02*
X146071380Y-113450380D01*
X146214238Y-113355142D01*
X146309476Y-113259904D01*
X146357095Y-113164666D01*
X146690428Y-114164666D02*
X146690428Y-114926571D01*
X147071380Y-115831333D02*
X146547571Y-115831333D01*
X146452333Y-115783714D01*
X146404714Y-115688476D01*
X146404714Y-115497999D01*
X146452333Y-115402761D01*
X147023761Y-115831333D02*
X147071380Y-115736095D01*
X147071380Y-115497999D01*
X147023761Y-115402761D01*
X146928523Y-115355142D01*
X146833285Y-115355142D01*
X146738047Y-115402761D01*
X146690428Y-115497999D01*
X146690428Y-115736095D01*
X146642809Y-115831333D01*
X147071380Y-116307523D02*
X146404714Y-116307523D01*
X146595190Y-116307523D02*
X146499952Y-116355142D01*
X146452333Y-116402761D01*
X146404714Y-116497999D01*
X146404714Y-116593238D01*
X147071380Y-117355142D02*
X146071380Y-117355142D01*
X147023761Y-117355142D02*
X147071380Y-117259904D01*
X147071380Y-117069428D01*
X147023761Y-116974190D01*
X146976142Y-116926571D01*
X146880904Y-116878952D01*
X146595190Y-116878952D01*
X146499952Y-116926571D01*
X146452333Y-116974190D01*
X146404714Y-117069428D01*
X146404714Y-117259904D01*
X146452333Y-117355142D01*
X146404714Y-118259904D02*
X147071380Y-118259904D01*
X146404714Y-117831333D02*
X146928523Y-117831333D01*
X147023761Y-117878952D01*
X147071380Y-117974190D01*
X147071380Y-118117047D01*
X147023761Y-118212285D01*
X146976142Y-118259904D01*
X147071380Y-118736095D02*
X146404714Y-118736095D01*
X146071380Y-118736095D02*
X146119000Y-118688476D01*
X146166619Y-118736095D01*
X146119000Y-118783714D01*
X146071380Y-118736095D01*
X146166619Y-118736095D01*
X146404714Y-119212285D02*
X147071380Y-119212285D01*
X146499952Y-119212285D02*
X146452333Y-119259904D01*
X146404714Y-119355142D01*
X146404714Y-119497999D01*
X146452333Y-119593238D01*
X146547571Y-119640857D01*
X147071380Y-119640857D01*
X147071380Y-120259904D02*
X147023761Y-120164666D01*
X146976142Y-120117047D01*
X146880904Y-120069428D01*
X146595190Y-120069428D01*
X146499952Y-120117047D01*
X146452333Y-120164666D01*
X146404714Y-120259904D01*
X146404714Y-120402761D01*
X146452333Y-120497999D01*
X146499952Y-120545619D01*
X146595190Y-120593238D01*
X146880904Y-120593238D01*
X146976142Y-120545619D01*
X147023761Y-120497999D01*
X147071380Y-120402761D01*
X147071380Y-120259904D01*
X146690428Y-121021809D02*
X146690428Y-121783714D01*
X146404714Y-122259904D02*
X147071380Y-122259904D01*
X146499952Y-122259904D02*
X146452333Y-122307523D01*
X146404714Y-122402761D01*
X146404714Y-122545619D01*
X146452333Y-122640857D01*
X146547571Y-122688476D01*
X147071380Y-122688476D01*
X147023761Y-123545619D02*
X147071380Y-123450380D01*
X147071380Y-123259904D01*
X147023761Y-123164666D01*
X146928523Y-123117047D01*
X146547571Y-123117047D01*
X146452333Y-123164666D01*
X146404714Y-123259904D01*
X146404714Y-123450380D01*
X146452333Y-123545619D01*
X146547571Y-123593238D01*
X146642809Y-123593238D01*
X146738047Y-123117047D01*
X146404714Y-123878952D02*
X146404714Y-124259904D01*
X146071380Y-124021809D02*
X146928523Y-124021809D01*
X147023761Y-124069428D01*
X147071380Y-124164666D01*
X147071380Y-124259904D01*
X146404714Y-124497999D02*
X147071380Y-124688476D01*
X146595190Y-124878952D01*
X147071380Y-125069428D01*
X146404714Y-125259904D01*
X147071380Y-125783714D02*
X147023761Y-125688476D01*
X146976142Y-125640857D01*
X146880904Y-125593238D01*
X146595190Y-125593238D01*
X146499952Y-125640857D01*
X146452333Y-125688476D01*
X146404714Y-125783714D01*
X146404714Y-125926571D01*
X146452333Y-126021809D01*
X146499952Y-126069428D01*
X146595190Y-126117047D01*
X146880904Y-126117047D01*
X146976142Y-126069428D01*
X147023761Y-126021809D01*
X147071380Y-125926571D01*
X147071380Y-125783714D01*
X147071380Y-126545619D02*
X146404714Y-126545619D01*
X146595190Y-126545619D02*
X146499952Y-126593238D01*
X146452333Y-126640857D01*
X146404714Y-126736095D01*
X146404714Y-126831333D01*
X147071380Y-127164666D02*
X146071380Y-127164666D01*
X146690428Y-127259904D02*
X147071380Y-127545619D01*
X146404714Y-127545619D02*
X146785666Y-127164666D01*
X146690428Y-127974190D02*
X146690428Y-128736095D01*
X147071380Y-129640857D02*
X146547571Y-129640857D01*
X146452333Y-129593238D01*
X146404714Y-129497999D01*
X146404714Y-129307523D01*
X146452333Y-129212285D01*
X147023761Y-129640857D02*
X147071380Y-129545619D01*
X147071380Y-129307523D01*
X147023761Y-129212285D01*
X146928523Y-129164666D01*
X146833285Y-129164666D01*
X146738047Y-129212285D01*
X146690428Y-129307523D01*
X146690428Y-129545619D01*
X146642809Y-129640857D01*
X146404714Y-130117047D02*
X147071380Y-130117047D01*
X146499952Y-130117047D02*
X146452333Y-130164666D01*
X146404714Y-130259904D01*
X146404714Y-130402761D01*
X146452333Y-130497999D01*
X146547571Y-130545619D01*
X147071380Y-130545619D01*
X147071380Y-131450380D02*
X146547571Y-131450380D01*
X146452333Y-131402761D01*
X146404714Y-131307523D01*
X146404714Y-131117047D01*
X146452333Y-131021809D01*
X147023761Y-131450380D02*
X147071380Y-131355142D01*
X147071380Y-131117047D01*
X147023761Y-131021809D01*
X146928523Y-130974190D01*
X146833285Y-130974190D01*
X146738047Y-131021809D01*
X146690428Y-131117047D01*
X146690428Y-131355142D01*
X146642809Y-131450380D01*
X147071380Y-132069428D02*
X147023761Y-131974190D01*
X146928523Y-131926571D01*
X146071380Y-131926571D01*
X146404714Y-132355142D02*
X147071380Y-132593238D01*
X146404714Y-132831333D02*
X147071380Y-132593238D01*
X147309476Y-132497999D01*
X147357095Y-132450380D01*
X147404714Y-132355142D01*
X146404714Y-133117047D02*
X146404714Y-133640857D01*
X147071380Y-133117047D01*
X147071380Y-133640857D01*
X147023761Y-134402761D02*
X147071380Y-134307523D01*
X147071380Y-134117047D01*
X147023761Y-134021809D01*
X146928523Y-133974190D01*
X146547571Y-133974190D01*
X146452333Y-134021809D01*
X146404714Y-134117047D01*
X146404714Y-134307523D01*
X146452333Y-134402761D01*
X146547571Y-134450380D01*
X146642809Y-134450380D01*
X146738047Y-133974190D01*
X147071380Y-134878952D02*
X146404714Y-134878952D01*
X146595190Y-134878952D02*
X146499952Y-134926571D01*
X146452333Y-134974190D01*
X146404714Y-135069428D01*
X146404714Y-135164666D01*
D11*
G04 #@! TO.C,REF\002A\002A*
G36*
X153383172Y-92948535D02*
X153980363Y-93061117D01*
X154151610Y-93476531D01*
X154322857Y-93891944D01*
X153983978Y-94390302D01*
X153889622Y-94529868D01*
X153805375Y-94656028D01*
X153735083Y-94762895D01*
X153682592Y-94844582D01*
X153651749Y-94895201D01*
X153645098Y-94908986D01*
X153662203Y-94933820D01*
X153709489Y-94986888D01*
X153780917Y-95062240D01*
X153870445Y-95153929D01*
X153972034Y-95256007D01*
X154079643Y-95362526D01*
X154187232Y-95467536D01*
X154288760Y-95565091D01*
X154378186Y-95649242D01*
X154449471Y-95714040D01*
X154496573Y-95753538D01*
X154512337Y-95762980D01*
X154541398Y-95749391D01*
X154605066Y-95711293D01*
X154697112Y-95652694D01*
X154811309Y-95577597D01*
X154941429Y-95490009D01*
X155015646Y-95439254D01*
X155151167Y-95346745D01*
X155273461Y-95264540D01*
X155376440Y-95196630D01*
X155454018Y-95147000D01*
X155500106Y-95119640D01*
X155509792Y-95115529D01*
X155537319Y-95124849D01*
X155601473Y-95150254D01*
X155693235Y-95187911D01*
X155803584Y-95233986D01*
X155923500Y-95284646D01*
X156043964Y-95336059D01*
X156155954Y-95384389D01*
X156250452Y-95425806D01*
X156318437Y-95456474D01*
X156350888Y-95472562D01*
X156352165Y-95473511D01*
X156358362Y-95498772D01*
X156372185Y-95566046D01*
X156392277Y-95668360D01*
X156417279Y-95798741D01*
X156445831Y-95950216D01*
X156462296Y-96038594D01*
X156493114Y-96200452D01*
X156522439Y-96346649D01*
X156548666Y-96469787D01*
X156570191Y-96562469D01*
X156585410Y-96617301D01*
X156590238Y-96628323D01*
X156622919Y-96639119D01*
X156696730Y-96647829D01*
X156803037Y-96654460D01*
X156933212Y-96659018D01*
X157078621Y-96661509D01*
X157230635Y-96661938D01*
X157380622Y-96660311D01*
X157519951Y-96656635D01*
X157639990Y-96650915D01*
X157732110Y-96643158D01*
X157787677Y-96633368D01*
X157799245Y-96627496D01*
X157813110Y-96592399D01*
X157832933Y-96518028D01*
X157856384Y-96414223D01*
X157881136Y-96290819D01*
X157889143Y-96247741D01*
X157927186Y-96040047D01*
X157957824Y-95875984D01*
X157982274Y-95750130D01*
X158001754Y-95657065D01*
X158017481Y-95591367D01*
X158030673Y-95547617D01*
X158042549Y-95520392D01*
X158054325Y-95504272D01*
X158056653Y-95502017D01*
X158094145Y-95479503D01*
X158167110Y-95445158D01*
X158266612Y-95402411D01*
X158383718Y-95354692D01*
X158509493Y-95305430D01*
X158635002Y-95258055D01*
X158751310Y-95215995D01*
X158849484Y-95182680D01*
X158920588Y-95161541D01*
X158955687Y-95156005D01*
X158956917Y-95156466D01*
X158985606Y-95175223D01*
X159048730Y-95217776D01*
X159139718Y-95279653D01*
X159252000Y-95356382D01*
X159379005Y-95443491D01*
X159415098Y-95468299D01*
X159545948Y-95556753D01*
X159665336Y-95634588D01*
X159766407Y-95697566D01*
X159842304Y-95741445D01*
X159886172Y-95761985D01*
X159891562Y-95762980D01*
X159919889Y-95745722D01*
X159976006Y-95698036D01*
X160053882Y-95626050D01*
X160147485Y-95535897D01*
X160250786Y-95433705D01*
X160357751Y-95325606D01*
X160462351Y-95217728D01*
X160558554Y-95116204D01*
X160640329Y-95027162D01*
X160701645Y-94956733D01*
X160736471Y-94911047D01*
X160742157Y-94898409D01*
X160728765Y-94868991D01*
X160692644Y-94808761D01*
X160639881Y-94727530D01*
X160597412Y-94665030D01*
X160519485Y-94551785D01*
X160427729Y-94417674D01*
X160336120Y-94283155D01*
X160287091Y-94210833D01*
X160121515Y-93966038D01*
X160232620Y-93760551D01*
X160281293Y-93666936D01*
X160319126Y-93587330D01*
X160340703Y-93533467D01*
X160343706Y-93519757D01*
X160321538Y-93503270D01*
X160258894Y-93470745D01*
X160161554Y-93424609D01*
X160035294Y-93367290D01*
X159885895Y-93301216D01*
X159719133Y-93228815D01*
X159540787Y-93152516D01*
X159356636Y-93074746D01*
X159172457Y-92997934D01*
X158994030Y-92924506D01*
X158827132Y-92856892D01*
X158677542Y-92797520D01*
X158551038Y-92748816D01*
X158453399Y-92713210D01*
X158390402Y-92693130D01*
X158368766Y-92689900D01*
X158341169Y-92715496D01*
X158296370Y-92771539D01*
X158243679Y-92846311D01*
X158239510Y-92852587D01*
X158084814Y-93045845D01*
X157904336Y-93201674D01*
X157703847Y-93318724D01*
X157489119Y-93395645D01*
X157265922Y-93431086D01*
X157040026Y-93423697D01*
X156817204Y-93372127D01*
X156603224Y-93275026D01*
X156556409Y-93246458D01*
X156367363Y-93097868D01*
X156215557Y-92922327D01*
X156101779Y-92725910D01*
X156026820Y-92514693D01*
X155991467Y-92294753D01*
X155996512Y-92072163D01*
X156042744Y-91853001D01*
X156130951Y-91643342D01*
X156261924Y-91449261D01*
X156315082Y-91389226D01*
X156481484Y-91236435D01*
X156656657Y-91125097D01*
X156853011Y-91048723D01*
X157047462Y-91006187D01*
X157266087Y-90995686D01*
X157485797Y-91030701D01*
X157699165Y-91107673D01*
X157898767Y-91223047D01*
X158077174Y-91373266D01*
X158226962Y-91554773D01*
X158242751Y-91578627D01*
X158294457Y-91654201D01*
X158339257Y-91711651D01*
X158367862Y-91739117D01*
X158368766Y-91739517D01*
X158399709Y-91733620D01*
X158469936Y-91710245D01*
X158573670Y-91671821D01*
X158705135Y-91620777D01*
X158858552Y-91559542D01*
X159028146Y-91490544D01*
X159208138Y-91416214D01*
X159392753Y-91338978D01*
X159576213Y-91261268D01*
X159752741Y-91185511D01*
X159916559Y-91114137D01*
X160061892Y-91049574D01*
X160182962Y-90994252D01*
X160273992Y-90950600D01*
X160329205Y-90921046D01*
X160343706Y-90909144D01*
X160332414Y-90872777D01*
X160302130Y-90804730D01*
X160258265Y-90716737D01*
X160232620Y-90668351D01*
X160121515Y-90462863D01*
X160287091Y-90218068D01*
X160371915Y-90093106D01*
X160465261Y-89956295D01*
X160553153Y-89828089D01*
X160597412Y-89763871D01*
X160658063Y-89673551D01*
X160706126Y-89597071D01*
X160735515Y-89544407D01*
X160741727Y-89527302D01*
X160724968Y-89502405D01*
X160678181Y-89447305D01*
X160606225Y-89367343D01*
X160513957Y-89267861D01*
X160406235Y-89154200D01*
X160337071Y-89082315D01*
X160213502Y-88956551D01*
X160102979Y-88847863D01*
X160010230Y-88760645D01*
X159939982Y-88699289D01*
X159896965Y-88668191D01*
X159888235Y-88665208D01*
X159855029Y-88679053D01*
X159787887Y-88717312D01*
X159693608Y-88775742D01*
X159578990Y-88850097D01*
X159450828Y-88936135D01*
X159415098Y-88960603D01*
X159285234Y-89049755D01*
X159168314Y-89129738D01*
X159070907Y-89196080D01*
X158999584Y-89244311D01*
X158960915Y-89269957D01*
X158956917Y-89272435D01*
X158926100Y-89268729D01*
X158858344Y-89249061D01*
X158762584Y-89216860D01*
X158647754Y-89175555D01*
X158522789Y-89128575D01*
X158396624Y-89079349D01*
X158278193Y-89031308D01*
X158176430Y-88987881D01*
X158100271Y-88952496D01*
X158058649Y-88928584D01*
X158056653Y-88926884D01*
X158044758Y-88912262D01*
X158032995Y-88887565D01*
X158020146Y-88847372D01*
X158004994Y-88786263D01*
X157986321Y-88698817D01*
X157962910Y-88579612D01*
X157933542Y-88423227D01*
X157897000Y-88224243D01*
X157889143Y-88181160D01*
X157864472Y-88053471D01*
X157840338Y-87942153D01*
X157819069Y-87857045D01*
X157802993Y-87807983D01*
X157799245Y-87801405D01*
X157766018Y-87790564D01*
X157691766Y-87781753D01*
X157585121Y-87774976D01*
X157454712Y-87770240D01*
X157309172Y-87767550D01*
X157157131Y-87766913D01*
X157007221Y-87768334D01*
X156868073Y-87771820D01*
X156748317Y-87777376D01*
X156656586Y-87785008D01*
X156601511Y-87794722D01*
X156590238Y-87800578D01*
X156578868Y-87833180D01*
X156560369Y-87907418D01*
X156536347Y-88015896D01*
X156508407Y-88151217D01*
X156478153Y-88305985D01*
X156462296Y-88390308D01*
X156432389Y-88550296D01*
X156405295Y-88692967D01*
X156382376Y-88811348D01*
X156364988Y-88898465D01*
X156354492Y-88947345D01*
X156352165Y-88955390D01*
X156325931Y-88968987D01*
X156262740Y-88997729D01*
X156171622Y-89037785D01*
X156061602Y-89085324D01*
X155941710Y-89136515D01*
X155820972Y-89187526D01*
X155708416Y-89234526D01*
X155613071Y-89273684D01*
X155543962Y-89301169D01*
X155510119Y-89313149D01*
X155508640Y-89313372D01*
X155481942Y-89299791D01*
X155420505Y-89261715D01*
X155330434Y-89203147D01*
X155217835Y-89128088D01*
X155088815Y-89040540D01*
X155014706Y-88989647D01*
X154878822Y-88896909D01*
X154755454Y-88814541D01*
X154650842Y-88746561D01*
X154571228Y-88696988D01*
X154522852Y-88669842D01*
X154512007Y-88665921D01*
X154486765Y-88682775D01*
X154432869Y-88729368D01*
X154356358Y-88799749D01*
X154263268Y-88887965D01*
X154159640Y-88988065D01*
X154051509Y-89094098D01*
X153944915Y-89200111D01*
X153845895Y-89300152D01*
X153760487Y-89388270D01*
X153694730Y-89458513D01*
X153654661Y-89504928D01*
X153645098Y-89520456D01*
X153658545Y-89545739D01*
X153696320Y-89606211D01*
X153754580Y-89695992D01*
X153829479Y-89809203D01*
X153917170Y-89939964D01*
X153983978Y-90038600D01*
X154322857Y-90536957D01*
X154151610Y-90952371D01*
X153980363Y-91367784D01*
X153383172Y-91480366D01*
X152785980Y-91592949D01*
X152785980Y-92835952D01*
X153383172Y-92948535D01*
X153383172Y-92948535D01*
G37*
X153383172Y-92948535D02*
X153980363Y-93061117D01*
X154151610Y-93476531D01*
X154322857Y-93891944D01*
X153983978Y-94390302D01*
X153889622Y-94529868D01*
X153805375Y-94656028D01*
X153735083Y-94762895D01*
X153682592Y-94844582D01*
X153651749Y-94895201D01*
X153645098Y-94908986D01*
X153662203Y-94933820D01*
X153709489Y-94986888D01*
X153780917Y-95062240D01*
X153870445Y-95153929D01*
X153972034Y-95256007D01*
X154079643Y-95362526D01*
X154187232Y-95467536D01*
X154288760Y-95565091D01*
X154378186Y-95649242D01*
X154449471Y-95714040D01*
X154496573Y-95753538D01*
X154512337Y-95762980D01*
X154541398Y-95749391D01*
X154605066Y-95711293D01*
X154697112Y-95652694D01*
X154811309Y-95577597D01*
X154941429Y-95490009D01*
X155015646Y-95439254D01*
X155151167Y-95346745D01*
X155273461Y-95264540D01*
X155376440Y-95196630D01*
X155454018Y-95147000D01*
X155500106Y-95119640D01*
X155509792Y-95115529D01*
X155537319Y-95124849D01*
X155601473Y-95150254D01*
X155693235Y-95187911D01*
X155803584Y-95233986D01*
X155923500Y-95284646D01*
X156043964Y-95336059D01*
X156155954Y-95384389D01*
X156250452Y-95425806D01*
X156318437Y-95456474D01*
X156350888Y-95472562D01*
X156352165Y-95473511D01*
X156358362Y-95498772D01*
X156372185Y-95566046D01*
X156392277Y-95668360D01*
X156417279Y-95798741D01*
X156445831Y-95950216D01*
X156462296Y-96038594D01*
X156493114Y-96200452D01*
X156522439Y-96346649D01*
X156548666Y-96469787D01*
X156570191Y-96562469D01*
X156585410Y-96617301D01*
X156590238Y-96628323D01*
X156622919Y-96639119D01*
X156696730Y-96647829D01*
X156803037Y-96654460D01*
X156933212Y-96659018D01*
X157078621Y-96661509D01*
X157230635Y-96661938D01*
X157380622Y-96660311D01*
X157519951Y-96656635D01*
X157639990Y-96650915D01*
X157732110Y-96643158D01*
X157787677Y-96633368D01*
X157799245Y-96627496D01*
X157813110Y-96592399D01*
X157832933Y-96518028D01*
X157856384Y-96414223D01*
X157881136Y-96290819D01*
X157889143Y-96247741D01*
X157927186Y-96040047D01*
X157957824Y-95875984D01*
X157982274Y-95750130D01*
X158001754Y-95657065D01*
X158017481Y-95591367D01*
X158030673Y-95547617D01*
X158042549Y-95520392D01*
X158054325Y-95504272D01*
X158056653Y-95502017D01*
X158094145Y-95479503D01*
X158167110Y-95445158D01*
X158266612Y-95402411D01*
X158383718Y-95354692D01*
X158509493Y-95305430D01*
X158635002Y-95258055D01*
X158751310Y-95215995D01*
X158849484Y-95182680D01*
X158920588Y-95161541D01*
X158955687Y-95156005D01*
X158956917Y-95156466D01*
X158985606Y-95175223D01*
X159048730Y-95217776D01*
X159139718Y-95279653D01*
X159252000Y-95356382D01*
X159379005Y-95443491D01*
X159415098Y-95468299D01*
X159545948Y-95556753D01*
X159665336Y-95634588D01*
X159766407Y-95697566D01*
X159842304Y-95741445D01*
X159886172Y-95761985D01*
X159891562Y-95762980D01*
X159919889Y-95745722D01*
X159976006Y-95698036D01*
X160053882Y-95626050D01*
X160147485Y-95535897D01*
X160250786Y-95433705D01*
X160357751Y-95325606D01*
X160462351Y-95217728D01*
X160558554Y-95116204D01*
X160640329Y-95027162D01*
X160701645Y-94956733D01*
X160736471Y-94911047D01*
X160742157Y-94898409D01*
X160728765Y-94868991D01*
X160692644Y-94808761D01*
X160639881Y-94727530D01*
X160597412Y-94665030D01*
X160519485Y-94551785D01*
X160427729Y-94417674D01*
X160336120Y-94283155D01*
X160287091Y-94210833D01*
X160121515Y-93966038D01*
X160232620Y-93760551D01*
X160281293Y-93666936D01*
X160319126Y-93587330D01*
X160340703Y-93533467D01*
X160343706Y-93519757D01*
X160321538Y-93503270D01*
X160258894Y-93470745D01*
X160161554Y-93424609D01*
X160035294Y-93367290D01*
X159885895Y-93301216D01*
X159719133Y-93228815D01*
X159540787Y-93152516D01*
X159356636Y-93074746D01*
X159172457Y-92997934D01*
X158994030Y-92924506D01*
X158827132Y-92856892D01*
X158677542Y-92797520D01*
X158551038Y-92748816D01*
X158453399Y-92713210D01*
X158390402Y-92693130D01*
X158368766Y-92689900D01*
X158341169Y-92715496D01*
X158296370Y-92771539D01*
X158243679Y-92846311D01*
X158239510Y-92852587D01*
X158084814Y-93045845D01*
X157904336Y-93201674D01*
X157703847Y-93318724D01*
X157489119Y-93395645D01*
X157265922Y-93431086D01*
X157040026Y-93423697D01*
X156817204Y-93372127D01*
X156603224Y-93275026D01*
X156556409Y-93246458D01*
X156367363Y-93097868D01*
X156215557Y-92922327D01*
X156101779Y-92725910D01*
X156026820Y-92514693D01*
X155991467Y-92294753D01*
X155996512Y-92072163D01*
X156042744Y-91853001D01*
X156130951Y-91643342D01*
X156261924Y-91449261D01*
X156315082Y-91389226D01*
X156481484Y-91236435D01*
X156656657Y-91125097D01*
X156853011Y-91048723D01*
X157047462Y-91006187D01*
X157266087Y-90995686D01*
X157485797Y-91030701D01*
X157699165Y-91107673D01*
X157898767Y-91223047D01*
X158077174Y-91373266D01*
X158226962Y-91554773D01*
X158242751Y-91578627D01*
X158294457Y-91654201D01*
X158339257Y-91711651D01*
X158367862Y-91739117D01*
X158368766Y-91739517D01*
X158399709Y-91733620D01*
X158469936Y-91710245D01*
X158573670Y-91671821D01*
X158705135Y-91620777D01*
X158858552Y-91559542D01*
X159028146Y-91490544D01*
X159208138Y-91416214D01*
X159392753Y-91338978D01*
X159576213Y-91261268D01*
X159752741Y-91185511D01*
X159916559Y-91114137D01*
X160061892Y-91049574D01*
X160182962Y-90994252D01*
X160273992Y-90950600D01*
X160329205Y-90921046D01*
X160343706Y-90909144D01*
X160332414Y-90872777D01*
X160302130Y-90804730D01*
X160258265Y-90716737D01*
X160232620Y-90668351D01*
X160121515Y-90462863D01*
X160287091Y-90218068D01*
X160371915Y-90093106D01*
X160465261Y-89956295D01*
X160553153Y-89828089D01*
X160597412Y-89763871D01*
X160658063Y-89673551D01*
X160706126Y-89597071D01*
X160735515Y-89544407D01*
X160741727Y-89527302D01*
X160724968Y-89502405D01*
X160678181Y-89447305D01*
X160606225Y-89367343D01*
X160513957Y-89267861D01*
X160406235Y-89154200D01*
X160337071Y-89082315D01*
X160213502Y-88956551D01*
X160102979Y-88847863D01*
X160010230Y-88760645D01*
X159939982Y-88699289D01*
X159896965Y-88668191D01*
X159888235Y-88665208D01*
X159855029Y-88679053D01*
X159787887Y-88717312D01*
X159693608Y-88775742D01*
X159578990Y-88850097D01*
X159450828Y-88936135D01*
X159415098Y-88960603D01*
X159285234Y-89049755D01*
X159168314Y-89129738D01*
X159070907Y-89196080D01*
X158999584Y-89244311D01*
X158960915Y-89269957D01*
X158956917Y-89272435D01*
X158926100Y-89268729D01*
X158858344Y-89249061D01*
X158762584Y-89216860D01*
X158647754Y-89175555D01*
X158522789Y-89128575D01*
X158396624Y-89079349D01*
X158278193Y-89031308D01*
X158176430Y-88987881D01*
X158100271Y-88952496D01*
X158058649Y-88928584D01*
X158056653Y-88926884D01*
X158044758Y-88912262D01*
X158032995Y-88887565D01*
X158020146Y-88847372D01*
X158004994Y-88786263D01*
X157986321Y-88698817D01*
X157962910Y-88579612D01*
X157933542Y-88423227D01*
X157897000Y-88224243D01*
X157889143Y-88181160D01*
X157864472Y-88053471D01*
X157840338Y-87942153D01*
X157819069Y-87857045D01*
X157802993Y-87807983D01*
X157799245Y-87801405D01*
X157766018Y-87790564D01*
X157691766Y-87781753D01*
X157585121Y-87774976D01*
X157454712Y-87770240D01*
X157309172Y-87767550D01*
X157157131Y-87766913D01*
X157007221Y-87768334D01*
X156868073Y-87771820D01*
X156748317Y-87777376D01*
X156656586Y-87785008D01*
X156601511Y-87794722D01*
X156590238Y-87800578D01*
X156578868Y-87833180D01*
X156560369Y-87907418D01*
X156536347Y-88015896D01*
X156508407Y-88151217D01*
X156478153Y-88305985D01*
X156462296Y-88390308D01*
X156432389Y-88550296D01*
X156405295Y-88692967D01*
X156382376Y-88811348D01*
X156364988Y-88898465D01*
X156354492Y-88947345D01*
X156352165Y-88955390D01*
X156325931Y-88968987D01*
X156262740Y-88997729D01*
X156171622Y-89037785D01*
X156061602Y-89085324D01*
X155941710Y-89136515D01*
X155820972Y-89187526D01*
X155708416Y-89234526D01*
X155613071Y-89273684D01*
X155543962Y-89301169D01*
X155510119Y-89313149D01*
X155508640Y-89313372D01*
X155481942Y-89299791D01*
X155420505Y-89261715D01*
X155330434Y-89203147D01*
X155217835Y-89128088D01*
X155088815Y-89040540D01*
X155014706Y-88989647D01*
X154878822Y-88896909D01*
X154755454Y-88814541D01*
X154650842Y-88746561D01*
X154571228Y-88696988D01*
X154522852Y-88669842D01*
X154512007Y-88665921D01*
X154486765Y-88682775D01*
X154432869Y-88729368D01*
X154356358Y-88799749D01*
X154263268Y-88887965D01*
X154159640Y-88988065D01*
X154051509Y-89094098D01*
X153944915Y-89200111D01*
X153845895Y-89300152D01*
X153760487Y-89388270D01*
X153694730Y-89458513D01*
X153654661Y-89504928D01*
X153645098Y-89520456D01*
X153658545Y-89545739D01*
X153696320Y-89606211D01*
X153754580Y-89695992D01*
X153829479Y-89809203D01*
X153917170Y-89939964D01*
X153983978Y-90038600D01*
X154322857Y-90536957D01*
X154151610Y-90952371D01*
X153980363Y-91367784D01*
X153383172Y-91480366D01*
X152785980Y-91592949D01*
X152785980Y-92835952D01*
X153383172Y-92948535D01*
G36*
X161637472Y-95765637D02*
X161663641Y-95851290D01*
X161696707Y-95906437D01*
X161722855Y-95924401D01*
X161753852Y-95919457D01*
X161802547Y-95887372D01*
X161837035Y-95860243D01*
X161899383Y-95804317D01*
X161925615Y-95762299D01*
X161923903Y-95726480D01*
X161896863Y-95620224D01*
X161898091Y-95542189D01*
X161928735Y-95478820D01*
X161946670Y-95457546D01*
X162009779Y-95389451D01*
X162833922Y-95389451D01*
X162833922Y-95115529D01*
X161638628Y-95115529D01*
X161638628Y-95252490D01*
X161641879Y-95334719D01*
X161653426Y-95377144D01*
X161675952Y-95389445D01*
X161676620Y-95389451D01*
X161700215Y-95395260D01*
X161697138Y-95421531D01*
X161680115Y-95457931D01*
X161648439Y-95533111D01*
X161629381Y-95594158D01*
X161624496Y-95672708D01*
X161637472Y-95765637D01*
X161637472Y-95765637D01*
G37*
X161637472Y-95765637D02*
X161663641Y-95851290D01*
X161696707Y-95906437D01*
X161722855Y-95924401D01*
X161753852Y-95919457D01*
X161802547Y-95887372D01*
X161837035Y-95860243D01*
X161899383Y-95804317D01*
X161925615Y-95762299D01*
X161923903Y-95726480D01*
X161896863Y-95620224D01*
X161898091Y-95542189D01*
X161928735Y-95478820D01*
X161946670Y-95457546D01*
X162009779Y-95389451D01*
X162833922Y-95389451D01*
X162833922Y-95115529D01*
X161638628Y-95115529D01*
X161638628Y-95252490D01*
X161641879Y-95334719D01*
X161653426Y-95377144D01*
X161675952Y-95389445D01*
X161676620Y-95389451D01*
X161700215Y-95395260D01*
X161697138Y-95421531D01*
X161680115Y-95457931D01*
X161648439Y-95533111D01*
X161629381Y-95594158D01*
X161624496Y-95672708D01*
X161637472Y-95765637D01*
G36*
X161659199Y-90708760D02*
X161688802Y-90770736D01*
X161731561Y-90830759D01*
X161780775Y-90876486D01*
X161843544Y-90909793D01*
X161926971Y-90932555D01*
X162038159Y-90946647D01*
X162184209Y-90953942D01*
X162372223Y-90956318D01*
X162391912Y-90956355D01*
X162833922Y-90956902D01*
X162833922Y-90682980D01*
X162426435Y-90682980D01*
X162275471Y-90682785D01*
X162166056Y-90681436D01*
X162089933Y-90677788D01*
X162038848Y-90670696D01*
X162004545Y-90659013D01*
X161978768Y-90641594D01*
X161953298Y-90617329D01*
X161898571Y-90532435D01*
X161888416Y-90439761D01*
X161923017Y-90351473D01*
X161948770Y-90320770D01*
X161972982Y-90298229D01*
X161998912Y-90282046D01*
X162034708Y-90271168D01*
X162088519Y-90264542D01*
X162168493Y-90261115D01*
X162282779Y-90259834D01*
X162421907Y-90259647D01*
X162833922Y-90259647D01*
X162833922Y-89985725D01*
X161638628Y-89985725D01*
X161638628Y-90122686D01*
X161641879Y-90204916D01*
X161653426Y-90247340D01*
X161675952Y-90259641D01*
X161676620Y-90259647D01*
X161698681Y-90265354D01*
X161696177Y-90290527D01*
X161671937Y-90340578D01*
X161636271Y-90454094D01*
X161632305Y-90583945D01*
X161659199Y-90708760D01*
X161659199Y-90708760D01*
G37*
X161659199Y-90708760D02*
X161688802Y-90770736D01*
X161731561Y-90830759D01*
X161780775Y-90876486D01*
X161843544Y-90909793D01*
X161926971Y-90932555D01*
X162038159Y-90946647D01*
X162184209Y-90953942D01*
X162372223Y-90956318D01*
X162391912Y-90956355D01*
X162833922Y-90956902D01*
X162833922Y-90682980D01*
X162426435Y-90682980D01*
X162275471Y-90682785D01*
X162166056Y-90681436D01*
X162089933Y-90677788D01*
X162038848Y-90670696D01*
X162004545Y-90659013D01*
X161978768Y-90641594D01*
X161953298Y-90617329D01*
X161898571Y-90532435D01*
X161888416Y-90439761D01*
X161923017Y-90351473D01*
X161948770Y-90320770D01*
X161972982Y-90298229D01*
X161998912Y-90282046D01*
X162034708Y-90271168D01*
X162088519Y-90264542D01*
X162168493Y-90261115D01*
X162282779Y-90259834D01*
X162421907Y-90259647D01*
X162833922Y-90259647D01*
X162833922Y-89985725D01*
X161638628Y-89985725D01*
X161638628Y-90122686D01*
X161641879Y-90204916D01*
X161653426Y-90247340D01*
X161675952Y-90259641D01*
X161676620Y-90259647D01*
X161698681Y-90265354D01*
X161696177Y-90290527D01*
X161671937Y-90340578D01*
X161636271Y-90454094D01*
X161632305Y-90583945D01*
X161659199Y-90708760D01*
G36*
X161634355Y-97505287D02*
X161649845Y-97569051D01*
X161706569Y-97691300D01*
X161793202Y-97795834D01*
X161897074Y-97868180D01*
X161920396Y-97878119D01*
X161981484Y-97891754D01*
X162071853Y-97901298D01*
X162163190Y-97904549D01*
X162335882Y-97904549D01*
X162335882Y-97543470D01*
X162336445Y-97394546D01*
X162339864Y-97289632D01*
X162348731Y-97222937D01*
X162365641Y-97188666D01*
X162393189Y-97181028D01*
X162433968Y-97194229D01*
X162481683Y-97217877D01*
X162561314Y-97283843D01*
X162600987Y-97375512D01*
X162599695Y-97487555D01*
X162556514Y-97614472D01*
X162503224Y-97724158D01*
X162575191Y-97815173D01*
X162647157Y-97906188D01*
X162726269Y-97820563D01*
X162801017Y-97706250D01*
X162846084Y-97565666D01*
X162858696Y-97414449D01*
X162836079Y-97268236D01*
X162828405Y-97244647D01*
X162761296Y-97116141D01*
X162661247Y-97020551D01*
X162525271Y-96955861D01*
X162350380Y-96920057D01*
X162346632Y-96919640D01*
X162156032Y-96916434D01*
X162088035Y-96929393D01*
X162088035Y-97182392D01*
X162098491Y-97205627D01*
X162106500Y-97268710D01*
X162111073Y-97361706D01*
X162111765Y-97420638D01*
X162111332Y-97530537D01*
X162108578Y-97599252D01*
X162101321Y-97635405D01*
X162087376Y-97647615D01*
X162064562Y-97644504D01*
X162055735Y-97641894D01*
X161972800Y-97597344D01*
X161905960Y-97527279D01*
X161876589Y-97465446D01*
X161878362Y-97383301D01*
X161914990Y-97300062D01*
X161975634Y-97230238D01*
X162049456Y-97188337D01*
X162088035Y-97182392D01*
X162088035Y-96929393D01*
X161988395Y-96948385D01*
X161847711Y-97011773D01*
X161737974Y-97102878D01*
X161663174Y-97217978D01*
X161627304Y-97353355D01*
X161634355Y-97505287D01*
X161634355Y-97505287D01*
G37*
X161634355Y-97505287D02*
X161649845Y-97569051D01*
X161706569Y-97691300D01*
X161793202Y-97795834D01*
X161897074Y-97868180D01*
X161920396Y-97878119D01*
X161981484Y-97891754D01*
X162071853Y-97901298D01*
X162163190Y-97904549D01*
X162335882Y-97904549D01*
X162335882Y-97543470D01*
X162336445Y-97394546D01*
X162339864Y-97289632D01*
X162348731Y-97222937D01*
X162365641Y-97188666D01*
X162393189Y-97181028D01*
X162433968Y-97194229D01*
X162481683Y-97217877D01*
X162561314Y-97283843D01*
X162600987Y-97375512D01*
X162599695Y-97487555D01*
X162556514Y-97614472D01*
X162503224Y-97724158D01*
X162575191Y-97815173D01*
X162647157Y-97906188D01*
X162726269Y-97820563D01*
X162801017Y-97706250D01*
X162846084Y-97565666D01*
X162858696Y-97414449D01*
X162836079Y-97268236D01*
X162828405Y-97244647D01*
X162761296Y-97116141D01*
X162661247Y-97020551D01*
X162525271Y-96955861D01*
X162350380Y-96920057D01*
X162346632Y-96919640D01*
X162156032Y-96916434D01*
X162088035Y-96929393D01*
X162088035Y-97182392D01*
X162098491Y-97205627D01*
X162106500Y-97268710D01*
X162111073Y-97361706D01*
X162111765Y-97420638D01*
X162111332Y-97530537D01*
X162108578Y-97599252D01*
X162101321Y-97635405D01*
X162087376Y-97647615D01*
X162064562Y-97644504D01*
X162055735Y-97641894D01*
X161972800Y-97597344D01*
X161905960Y-97527279D01*
X161876589Y-97465446D01*
X161878362Y-97383301D01*
X161914990Y-97300062D01*
X161975634Y-97230238D01*
X162049456Y-97188337D01*
X162088035Y-97182392D01*
X162088035Y-96929393D01*
X161988395Y-96948385D01*
X161847711Y-97011773D01*
X161737974Y-97102878D01*
X161663174Y-97217978D01*
X161627304Y-97353355D01*
X161634355Y-97505287D01*
G36*
X161649056Y-96592976D02*
X161710348Y-96737256D01*
X161740185Y-96782699D01*
X161786036Y-96840779D01*
X161822089Y-96877238D01*
X161833832Y-96883568D01*
X161859889Y-96865693D01*
X161904105Y-96819950D01*
X161934965Y-96783328D01*
X162015520Y-96683088D01*
X161948918Y-96603935D01*
X161905921Y-96542769D01*
X161891079Y-96483129D01*
X161894704Y-96414872D01*
X161921652Y-96306482D01*
X161977587Y-96231872D01*
X162068014Y-96186530D01*
X162198435Y-96165947D01*
X162198517Y-96165942D01*
X162344290Y-96167722D01*
X162451245Y-96195387D01*
X162524064Y-96250571D01*
X162548723Y-96288192D01*
X162579431Y-96388105D01*
X162579449Y-96494822D01*
X162549655Y-96587669D01*
X162535098Y-96609647D01*
X162497914Y-96664765D01*
X162491820Y-96707859D01*
X162519496Y-96754335D01*
X162569205Y-96805716D01*
X162653116Y-96887046D01*
X162727546Y-96796749D01*
X162811549Y-96657236D01*
X162852947Y-96499912D01*
X162849950Y-96335503D01*
X162822500Y-96227531D01*
X162754620Y-96101331D01*
X162647831Y-96000401D01*
X162572451Y-95954548D01*
X162464297Y-95917410D01*
X162327318Y-95898827D01*
X162178864Y-95898684D01*
X162036281Y-95916865D01*
X161916918Y-95953255D01*
X161904680Y-95958987D01*
X161784655Y-96043865D01*
X161697267Y-96158782D01*
X161644329Y-96294659D01*
X161627654Y-96442417D01*
X161649056Y-96592976D01*
X161649056Y-96592976D01*
G37*
X161649056Y-96592976D02*
X161710348Y-96737256D01*
X161740185Y-96782699D01*
X161786036Y-96840779D01*
X161822089Y-96877238D01*
X161833832Y-96883568D01*
X161859889Y-96865693D01*
X161904105Y-96819950D01*
X161934965Y-96783328D01*
X162015520Y-96683088D01*
X161948918Y-96603935D01*
X161905921Y-96542769D01*
X161891079Y-96483129D01*
X161894704Y-96414872D01*
X161921652Y-96306482D01*
X161977587Y-96231872D01*
X162068014Y-96186530D01*
X162198435Y-96165947D01*
X162198517Y-96165942D01*
X162344290Y-96167722D01*
X162451245Y-96195387D01*
X162524064Y-96250571D01*
X162548723Y-96288192D01*
X162579431Y-96388105D01*
X162579449Y-96494822D01*
X162549655Y-96587669D01*
X162535098Y-96609647D01*
X162497914Y-96664765D01*
X162491820Y-96707859D01*
X162519496Y-96754335D01*
X162569205Y-96805716D01*
X162653116Y-96887046D01*
X162727546Y-96796749D01*
X162811549Y-96657236D01*
X162852947Y-96499912D01*
X162849950Y-96335503D01*
X162822500Y-96227531D01*
X162754620Y-96101331D01*
X162647831Y-96000401D01*
X162572451Y-95954548D01*
X162464297Y-95917410D01*
X162327318Y-95898827D01*
X162178864Y-95898684D01*
X162036281Y-95916865D01*
X161916918Y-95953255D01*
X161904680Y-95958987D01*
X161784655Y-96043865D01*
X161697267Y-96158782D01*
X161644329Y-96294659D01*
X161627654Y-96442417D01*
X161649056Y-96592976D01*
G36*
X162026245Y-94169254D02*
X162208879Y-94171608D01*
X162347600Y-94180207D01*
X162448147Y-94197360D01*
X162516254Y-94225374D01*
X162557659Y-94266557D01*
X162578097Y-94323217D01*
X162583318Y-94393372D01*
X162577468Y-94466848D01*
X162556093Y-94522657D01*
X162513458Y-94563109D01*
X162443825Y-94590509D01*
X162341460Y-94607167D01*
X162200624Y-94615389D01*
X162026245Y-94617490D01*
X161638628Y-94617490D01*
X161638628Y-94891411D01*
X162833922Y-94891411D01*
X162833922Y-94754451D01*
X162830576Y-94671884D01*
X162818826Y-94629368D01*
X162796520Y-94617490D01*
X162776654Y-94610336D01*
X162780857Y-94581865D01*
X162808971Y-94524476D01*
X162852342Y-94392945D01*
X162849270Y-94253438D01*
X162802174Y-94119765D01*
X162764971Y-94056108D01*
X162724691Y-94007553D01*
X162674291Y-93972081D01*
X162606729Y-93947674D01*
X162514965Y-93932313D01*
X162391955Y-93923982D01*
X162230659Y-93920662D01*
X162105928Y-93920235D01*
X161638628Y-93920235D01*
X161638628Y-94169254D01*
X162026245Y-94169254D01*
X162026245Y-94169254D01*
G37*
X162026245Y-94169254D02*
X162208879Y-94171608D01*
X162347600Y-94180207D01*
X162448147Y-94197360D01*
X162516254Y-94225374D01*
X162557659Y-94266557D01*
X162578097Y-94323217D01*
X162583318Y-94393372D01*
X162577468Y-94466848D01*
X162556093Y-94522657D01*
X162513458Y-94563109D01*
X162443825Y-94590509D01*
X162341460Y-94607167D01*
X162200624Y-94615389D01*
X162026245Y-94617490D01*
X161638628Y-94617490D01*
X161638628Y-94891411D01*
X162833922Y-94891411D01*
X162833922Y-94754451D01*
X162830576Y-94671884D01*
X162818826Y-94629368D01*
X162796520Y-94617490D01*
X162776654Y-94610336D01*
X162780857Y-94581865D01*
X162808971Y-94524476D01*
X162852342Y-94392945D01*
X162849270Y-94253438D01*
X162802174Y-94119765D01*
X162764971Y-94056108D01*
X162724691Y-94007553D01*
X162674291Y-93972081D01*
X162606729Y-93947674D01*
X162514965Y-93932313D01*
X162391955Y-93923982D01*
X162230659Y-93920662D01*
X162105928Y-93920235D01*
X161638628Y-93920235D01*
X161638628Y-94169254D01*
X162026245Y-94169254D01*
G36*
X161653364Y-93411547D02*
X161721959Y-93537502D01*
X161830245Y-93636047D01*
X161918315Y-93682478D01*
X161996101Y-93702412D01*
X162106993Y-93715328D01*
X162234738Y-93720863D01*
X162363084Y-93718654D01*
X162475779Y-93708337D01*
X162535969Y-93696286D01*
X162618311Y-93655634D01*
X162705770Y-93585230D01*
X162782251Y-93500382D01*
X162831655Y-93416397D01*
X162832439Y-93414349D01*
X162854027Y-93310134D01*
X162854562Y-93186627D01*
X162834908Y-93069261D01*
X162819155Y-93023942D01*
X162752966Y-92907220D01*
X162666246Y-92823624D01*
X162551438Y-92768701D01*
X162400982Y-92737995D01*
X162322173Y-92731047D01*
X162223145Y-92731933D01*
X162223145Y-92998862D01*
X162367645Y-93007854D01*
X162477760Y-93033736D01*
X162548116Y-93074868D01*
X162568235Y-93104172D01*
X162582265Y-93179251D01*
X162578111Y-93268494D01*
X162557922Y-93345650D01*
X162546815Y-93365883D01*
X162482123Y-93419265D01*
X162383119Y-93454500D01*
X162262632Y-93469498D01*
X162133494Y-93462172D01*
X162055775Y-93445799D01*
X161965771Y-93398790D01*
X161909509Y-93324582D01*
X161890057Y-93235209D01*
X161910481Y-93142707D01*
X161960437Y-93071653D01*
X162001655Y-93034312D01*
X162042281Y-93012518D01*
X162097264Y-93002130D01*
X162181549Y-92999006D01*
X162223145Y-92998862D01*
X162223145Y-92731933D01*
X162111874Y-92732930D01*
X161939423Y-92767180D01*
X161804814Y-92833802D01*
X161708040Y-92932799D01*
X161649094Y-93064175D01*
X161642259Y-93092385D01*
X161626213Y-93261926D01*
X161653364Y-93411547D01*
X161653364Y-93411547D01*
G37*
X161653364Y-93411547D02*
X161721959Y-93537502D01*
X161830245Y-93636047D01*
X161918315Y-93682478D01*
X161996101Y-93702412D01*
X162106993Y-93715328D01*
X162234738Y-93720863D01*
X162363084Y-93718654D01*
X162475779Y-93708337D01*
X162535969Y-93696286D01*
X162618311Y-93655634D01*
X162705770Y-93585230D01*
X162782251Y-93500382D01*
X162831655Y-93416397D01*
X162832439Y-93414349D01*
X162854027Y-93310134D01*
X162854562Y-93186627D01*
X162834908Y-93069261D01*
X162819155Y-93023942D01*
X162752966Y-92907220D01*
X162666246Y-92823624D01*
X162551438Y-92768701D01*
X162400982Y-92737995D01*
X162322173Y-92731047D01*
X162223145Y-92731933D01*
X162223145Y-92998862D01*
X162367645Y-93007854D01*
X162477760Y-93033736D01*
X162548116Y-93074868D01*
X162568235Y-93104172D01*
X162582265Y-93179251D01*
X162578111Y-93268494D01*
X162557922Y-93345650D01*
X162546815Y-93365883D01*
X162482123Y-93419265D01*
X162383119Y-93454500D01*
X162262632Y-93469498D01*
X162133494Y-93462172D01*
X162055775Y-93445799D01*
X161965771Y-93398790D01*
X161909509Y-93324582D01*
X161890057Y-93235209D01*
X161910481Y-93142707D01*
X161960437Y-93071653D01*
X162001655Y-93034312D01*
X162042281Y-93012518D01*
X162097264Y-93002130D01*
X162181549Y-92999006D01*
X162223145Y-92998862D01*
X162223145Y-92731933D01*
X162111874Y-92732930D01*
X161939423Y-92767180D01*
X161804814Y-92833802D01*
X161708040Y-92932799D01*
X161649094Y-93064175D01*
X161642259Y-93092385D01*
X161626213Y-93261926D01*
X161653364Y-93411547D01*
G36*
X161634345Y-92229759D02*
X161652229Y-92324059D01*
X161689633Y-92421890D01*
X161694402Y-92432343D01*
X161733412Y-92506531D01*
X161769664Y-92557910D01*
X161792887Y-92574517D01*
X161830761Y-92558702D01*
X161886644Y-92520288D01*
X161907505Y-92503237D01*
X161989618Y-92432969D01*
X161936168Y-92342379D01*
X161900561Y-92256164D01*
X161881529Y-92156549D01*
X161880326Y-92061019D01*
X161898210Y-91987061D01*
X161909373Y-91969312D01*
X161960553Y-91935512D01*
X162019509Y-91931404D01*
X162065567Y-91956696D01*
X162074499Y-91971656D01*
X162085592Y-92016486D01*
X162098630Y-92095286D01*
X162111088Y-92192426D01*
X162113042Y-92210346D01*
X162140030Y-92366365D01*
X162185873Y-92479523D01*
X162254803Y-92554569D01*
X162351054Y-92596253D01*
X162468617Y-92609238D01*
X162602254Y-92591299D01*
X162707195Y-92533050D01*
X162783630Y-92434255D01*
X162831748Y-92294682D01*
X162850732Y-92139745D01*
X162850504Y-92013398D01*
X162833262Y-91910913D01*
X162809457Y-91840921D01*
X162767978Y-91752483D01*
X162719842Y-91670754D01*
X162698655Y-91641705D01*
X162637676Y-91567000D01*
X162546508Y-91657098D01*
X162455339Y-91747196D01*
X162523128Y-91849632D01*
X162574042Y-91952374D01*
X162600673Y-92062087D01*
X162603483Y-92167551D01*
X162582935Y-92257546D01*
X162539493Y-92320854D01*
X162502838Y-92341296D01*
X162444053Y-92338229D01*
X162399099Y-92287434D01*
X162368057Y-92189048D01*
X162353710Y-92081256D01*
X162326337Y-91915365D01*
X162274693Y-91792124D01*
X162197266Y-91709886D01*
X162092544Y-91667001D01*
X161968387Y-91661060D01*
X161838702Y-91690406D01*
X161740677Y-91757309D01*
X161673866Y-91862371D01*
X161637820Y-92006190D01*
X161630754Y-92112738D01*
X161634345Y-92229759D01*
X161634345Y-92229759D01*
G37*
X161634345Y-92229759D02*
X161652229Y-92324059D01*
X161689633Y-92421890D01*
X161694402Y-92432343D01*
X161733412Y-92506531D01*
X161769664Y-92557910D01*
X161792887Y-92574517D01*
X161830761Y-92558702D01*
X161886644Y-92520288D01*
X161907505Y-92503237D01*
X161989618Y-92432969D01*
X161936168Y-92342379D01*
X161900561Y-92256164D01*
X161881529Y-92156549D01*
X161880326Y-92061019D01*
X161898210Y-91987061D01*
X161909373Y-91969312D01*
X161960553Y-91935512D01*
X162019509Y-91931404D01*
X162065567Y-91956696D01*
X162074499Y-91971656D01*
X162085592Y-92016486D01*
X162098630Y-92095286D01*
X162111088Y-92192426D01*
X162113042Y-92210346D01*
X162140030Y-92366365D01*
X162185873Y-92479523D01*
X162254803Y-92554569D01*
X162351054Y-92596253D01*
X162468617Y-92609238D01*
X162602254Y-92591299D01*
X162707195Y-92533050D01*
X162783630Y-92434255D01*
X162831748Y-92294682D01*
X162850732Y-92139745D01*
X162850504Y-92013398D01*
X162833262Y-91910913D01*
X162809457Y-91840921D01*
X162767978Y-91752483D01*
X162719842Y-91670754D01*
X162698655Y-91641705D01*
X162637676Y-91567000D01*
X162546508Y-91657098D01*
X162455339Y-91747196D01*
X162523128Y-91849632D01*
X162574042Y-91952374D01*
X162600673Y-92062087D01*
X162603483Y-92167551D01*
X162582935Y-92257546D01*
X162539493Y-92320854D01*
X162502838Y-92341296D01*
X162444053Y-92338229D01*
X162399099Y-92287434D01*
X162368057Y-92189048D01*
X162353710Y-92081256D01*
X162326337Y-91915365D01*
X162274693Y-91792124D01*
X162197266Y-91709886D01*
X162092544Y-91667001D01*
X161968387Y-91661060D01*
X161838702Y-91690406D01*
X161740677Y-91757309D01*
X161673866Y-91862371D01*
X161637820Y-92006190D01*
X161630754Y-92112738D01*
X161634345Y-92229759D01*
G36*
X161666354Y-89515204D02*
X161678037Y-89540019D01*
X161740951Y-89625906D01*
X161832769Y-89707121D01*
X161933868Y-89767764D01*
X161980349Y-89785012D01*
X162063376Y-89800749D01*
X162163713Y-89810133D01*
X162205147Y-89811272D01*
X162335882Y-89811411D01*
X162335882Y-89058953D01*
X162404363Y-89074993D01*
X162485355Y-89114363D01*
X162555351Y-89183194D01*
X162600441Y-89265081D01*
X162609804Y-89317263D01*
X162598441Y-89388029D01*
X162569943Y-89472460D01*
X162556831Y-89501142D01*
X162503858Y-89607209D01*
X162572901Y-89697728D01*
X162619597Y-89749961D01*
X162658140Y-89777753D01*
X162669452Y-89779160D01*
X162696868Y-89754332D01*
X162738532Y-89699917D01*
X162771037Y-89650528D01*
X162829468Y-89517252D01*
X162855915Y-89367839D01*
X162849039Y-89219751D01*
X162813096Y-89101705D01*
X162736101Y-88980018D01*
X162634728Y-88893540D01*
X162503570Y-88839441D01*
X162337224Y-88814891D01*
X162261108Y-88812714D01*
X162086685Y-88821427D01*
X162081611Y-88822497D01*
X162081611Y-89071827D01*
X162097968Y-89078694D01*
X162106988Y-89106917D01*
X162110854Y-89165127D01*
X162111749Y-89261958D01*
X162111765Y-89299243D01*
X162110413Y-89412683D01*
X162105505Y-89484622D01*
X162095760Y-89523313D01*
X162079899Y-89537005D01*
X162074805Y-89537490D01*
X162034326Y-89521863D01*
X161977621Y-89482753D01*
X161957766Y-89465939D01*
X161901611Y-89403519D01*
X161879532Y-89338453D01*
X161877686Y-89303397D01*
X161900766Y-89208558D01*
X161962759Y-89129027D01*
X162052802Y-89078577D01*
X162055735Y-89077683D01*
X162081611Y-89071827D01*
X162081611Y-88822497D01*
X161949343Y-88850399D01*
X161839461Y-88902590D01*
X161761461Y-88966421D01*
X161676882Y-89084433D01*
X161631686Y-89223158D01*
X161627600Y-89370710D01*
X161666354Y-89515204D01*
X161666354Y-89515204D01*
G37*
X161666354Y-89515204D02*
X161678037Y-89540019D01*
X161740951Y-89625906D01*
X161832769Y-89707121D01*
X161933868Y-89767764D01*
X161980349Y-89785012D01*
X162063376Y-89800749D01*
X162163713Y-89810133D01*
X162205147Y-89811272D01*
X162335882Y-89811411D01*
X162335882Y-89058953D01*
X162404363Y-89074993D01*
X162485355Y-89114363D01*
X162555351Y-89183194D01*
X162600441Y-89265081D01*
X162609804Y-89317263D01*
X162598441Y-89388029D01*
X162569943Y-89472460D01*
X162556831Y-89501142D01*
X162503858Y-89607209D01*
X162572901Y-89697728D01*
X162619597Y-89749961D01*
X162658140Y-89777753D01*
X162669452Y-89779160D01*
X162696868Y-89754332D01*
X162738532Y-89699917D01*
X162771037Y-89650528D01*
X162829468Y-89517252D01*
X162855915Y-89367839D01*
X162849039Y-89219751D01*
X162813096Y-89101705D01*
X162736101Y-88980018D01*
X162634728Y-88893540D01*
X162503570Y-88839441D01*
X162337224Y-88814891D01*
X162261108Y-88812714D01*
X162086685Y-88821427D01*
X162081611Y-88822497D01*
X162081611Y-89071827D01*
X162097968Y-89078694D01*
X162106988Y-89106917D01*
X162110854Y-89165127D01*
X162111749Y-89261958D01*
X162111765Y-89299243D01*
X162110413Y-89412683D01*
X162105505Y-89484622D01*
X162095760Y-89523313D01*
X162079899Y-89537005D01*
X162074805Y-89537490D01*
X162034326Y-89521863D01*
X161977621Y-89482753D01*
X161957766Y-89465939D01*
X161901611Y-89403519D01*
X161879532Y-89338453D01*
X161877686Y-89303397D01*
X161900766Y-89208558D01*
X161962759Y-89129027D01*
X162052802Y-89078577D01*
X162055735Y-89077683D01*
X162081611Y-89071827D01*
X162081611Y-88822497D01*
X161949343Y-88850399D01*
X161839461Y-88902590D01*
X161761461Y-88966421D01*
X161676882Y-89084433D01*
X161631686Y-89223158D01*
X161627600Y-89370710D01*
X161666354Y-89515204D01*
G36*
X161651568Y-87175247D02*
X161709163Y-87305522D01*
X161805334Y-87404419D01*
X161940229Y-87472082D01*
X162113996Y-87508655D01*
X162141126Y-87511276D01*
X162332408Y-87513330D01*
X162500073Y-87486699D01*
X162635967Y-87433001D01*
X162679681Y-87404247D01*
X162772198Y-87304091D01*
X162832119Y-87176537D01*
X162856985Y-87033837D01*
X162844339Y-86888240D01*
X162805391Y-86777562D01*
X162739755Y-86682384D01*
X162653699Y-86604594D01*
X162651685Y-86603249D01*
X162598570Y-86571657D01*
X162545160Y-86551127D01*
X162477754Y-86538695D01*
X162382653Y-86531397D01*
X162304666Y-86528182D01*
X162233944Y-86526844D01*
X162233944Y-86775814D01*
X162304348Y-86778247D01*
X162398068Y-86787080D01*
X162458214Y-86802664D01*
X162501006Y-86830766D01*
X162526002Y-86857086D01*
X162578338Y-86950392D01*
X162585333Y-87048020D01*
X162547676Y-87138942D01*
X162505479Y-87184402D01*
X162462956Y-87217162D01*
X162422267Y-87236323D01*
X162369314Y-87244733D01*
X162289997Y-87245237D01*
X162216950Y-87242645D01*
X162112601Y-87237071D01*
X162044920Y-87228234D01*
X162000774Y-87212307D01*
X161967031Y-87185462D01*
X161947746Y-87164189D01*
X161897086Y-87075206D01*
X161894560Y-86979211D01*
X161924567Y-86898719D01*
X161987231Y-86830053D01*
X162090168Y-86789144D01*
X162233944Y-86775814D01*
X162233944Y-86526844D01*
X162149582Y-86525246D01*
X162033600Y-86530260D01*
X161946367Y-86545283D01*
X161877530Y-86572376D01*
X161816737Y-86613600D01*
X161798686Y-86628885D01*
X161708746Y-86724454D01*
X161656211Y-86826961D01*
X161634201Y-86952321D01*
X161632402Y-87013450D01*
X161651568Y-87175247D01*
X161651568Y-87175247D01*
G37*
X161651568Y-87175247D02*
X161709163Y-87305522D01*
X161805334Y-87404419D01*
X161940229Y-87472082D01*
X162113996Y-87508655D01*
X162141126Y-87511276D01*
X162332408Y-87513330D01*
X162500073Y-87486699D01*
X162635967Y-87433001D01*
X162679681Y-87404247D01*
X162772198Y-87304091D01*
X162832119Y-87176537D01*
X162856985Y-87033837D01*
X162844339Y-86888240D01*
X162805391Y-86777562D01*
X162739755Y-86682384D01*
X162653699Y-86604594D01*
X162651685Y-86603249D01*
X162598570Y-86571657D01*
X162545160Y-86551127D01*
X162477754Y-86538695D01*
X162382653Y-86531397D01*
X162304666Y-86528182D01*
X162233944Y-86526844D01*
X162233944Y-86775814D01*
X162304348Y-86778247D01*
X162398068Y-86787080D01*
X162458214Y-86802664D01*
X162501006Y-86830766D01*
X162526002Y-86857086D01*
X162578338Y-86950392D01*
X162585333Y-87048020D01*
X162547676Y-87138942D01*
X162505479Y-87184402D01*
X162462956Y-87217162D01*
X162422267Y-87236323D01*
X162369314Y-87244733D01*
X162289997Y-87245237D01*
X162216950Y-87242645D01*
X162112601Y-87237071D01*
X162044920Y-87228234D01*
X162000774Y-87212307D01*
X161967031Y-87185462D01*
X161947746Y-87164189D01*
X161897086Y-87075206D01*
X161894560Y-86979211D01*
X161924567Y-86898719D01*
X161987231Y-86830053D01*
X162090168Y-86789144D01*
X162233944Y-86775814D01*
X162233944Y-86526844D01*
X162149582Y-86525246D01*
X162033600Y-86530260D01*
X161946367Y-86545283D01*
X161877530Y-86572376D01*
X161816737Y-86613600D01*
X161798686Y-86628885D01*
X161708746Y-86724454D01*
X161656211Y-86826961D01*
X161634201Y-86952321D01*
X161632402Y-87013450D01*
X161651568Y-87175247D01*
G36*
X163512784Y-96227307D02*
X163543731Y-96346337D01*
X163607600Y-96446021D01*
X163655313Y-96494288D01*
X163768106Y-96573408D01*
X163898950Y-96618752D01*
X164059792Y-96634330D01*
X164072794Y-96634410D01*
X164203530Y-96634549D01*
X164203530Y-95882091D01*
X164272010Y-95898130D01*
X164334031Y-95927091D01*
X164398654Y-95977778D01*
X164408971Y-95988379D01*
X164464805Y-96079494D01*
X164474275Y-96183400D01*
X164437540Y-96303000D01*
X164427647Y-96323274D01*
X164397574Y-96385456D01*
X164380440Y-96427106D01*
X164378855Y-96434373D01*
X164394242Y-96459740D01*
X164431887Y-96508120D01*
X164452459Y-96532679D01*
X164499714Y-96583570D01*
X164530917Y-96600281D01*
X164559620Y-96588683D01*
X164567468Y-96582483D01*
X164601819Y-96540493D01*
X164643565Y-96471206D01*
X164667935Y-96422882D01*
X164710873Y-96285711D01*
X164724786Y-96133847D01*
X164708300Y-95990024D01*
X164696496Y-95949745D01*
X164629689Y-95825078D01*
X164526892Y-95732671D01*
X164387105Y-95671990D01*
X164209330Y-95642498D01*
X164116373Y-95639260D01*
X163981033Y-95648714D01*
X163981033Y-95887490D01*
X163991038Y-95910584D01*
X163998888Y-95972662D01*
X164003521Y-96062914D01*
X164004314Y-96124058D01*
X164003549Y-96234040D01*
X163999970Y-96303457D01*
X163991649Y-96341538D01*
X163976657Y-96357515D01*
X163954903Y-96360627D01*
X163887892Y-96339278D01*
X163821664Y-96285529D01*
X163770832Y-96214822D01*
X163750038Y-96144089D01*
X163768484Y-96048016D01*
X163821811Y-95964849D01*
X163898677Y-95907186D01*
X163981033Y-95887490D01*
X163981033Y-95648714D01*
X163919291Y-95653028D01*
X163762271Y-95695520D01*
X163644069Y-95767635D01*
X163563440Y-95870273D01*
X163519139Y-96004332D01*
X163510607Y-96076957D01*
X163512784Y-96227307D01*
X163512784Y-96227307D01*
G37*
X163512784Y-96227307D02*
X163543731Y-96346337D01*
X163607600Y-96446021D01*
X163655313Y-96494288D01*
X163768106Y-96573408D01*
X163898950Y-96618752D01*
X164059792Y-96634330D01*
X164072794Y-96634410D01*
X164203530Y-96634549D01*
X164203530Y-95882091D01*
X164272010Y-95898130D01*
X164334031Y-95927091D01*
X164398654Y-95977778D01*
X164408971Y-95988379D01*
X164464805Y-96079494D01*
X164474275Y-96183400D01*
X164437540Y-96303000D01*
X164427647Y-96323274D01*
X164397574Y-96385456D01*
X164380440Y-96427106D01*
X164378855Y-96434373D01*
X164394242Y-96459740D01*
X164431887Y-96508120D01*
X164452459Y-96532679D01*
X164499714Y-96583570D01*
X164530917Y-96600281D01*
X164559620Y-96588683D01*
X164567468Y-96582483D01*
X164601819Y-96540493D01*
X164643565Y-96471206D01*
X164667935Y-96422882D01*
X164710873Y-96285711D01*
X164724786Y-96133847D01*
X164708300Y-95990024D01*
X164696496Y-95949745D01*
X164629689Y-95825078D01*
X164526892Y-95732671D01*
X164387105Y-95671990D01*
X164209330Y-95642498D01*
X164116373Y-95639260D01*
X163981033Y-95648714D01*
X163981033Y-95887490D01*
X163991038Y-95910584D01*
X163998888Y-95972662D01*
X164003521Y-96062914D01*
X164004314Y-96124058D01*
X164003549Y-96234040D01*
X163999970Y-96303457D01*
X163991649Y-96341538D01*
X163976657Y-96357515D01*
X163954903Y-96360627D01*
X163887892Y-96339278D01*
X163821664Y-96285529D01*
X163770832Y-96214822D01*
X163750038Y-96144089D01*
X163768484Y-96048016D01*
X163821811Y-95964849D01*
X163898677Y-95907186D01*
X163981033Y-95887490D01*
X163981033Y-95648714D01*
X163919291Y-95653028D01*
X163762271Y-95695520D01*
X163644069Y-95767635D01*
X163563440Y-95870273D01*
X163519139Y-96004332D01*
X163510607Y-96076957D01*
X163512784Y-96227307D01*
G36*
X163505883Y-95440446D02*
X163524755Y-95536177D01*
X163552699Y-95590677D01*
X163599123Y-95648008D01*
X163702111Y-95566441D01*
X163764479Y-95516150D01*
X163794907Y-95482001D01*
X163799555Y-95448063D01*
X163784586Y-95398406D01*
X163776117Y-95375096D01*
X163763622Y-95280063D01*
X163790406Y-95193032D01*
X163850915Y-95129138D01*
X163870208Y-95118759D01*
X163921314Y-95107456D01*
X164015500Y-95098732D01*
X164146089Y-95092997D01*
X164306405Y-95090660D01*
X164329211Y-95090627D01*
X164726471Y-95090627D01*
X164726471Y-94816705D01*
X163506275Y-94816705D01*
X163506275Y-94953666D01*
X163508337Y-95032638D01*
X163517513Y-95073779D01*
X163538290Y-95088992D01*
X163557886Y-95090627D01*
X163609497Y-95090627D01*
X163557886Y-95156240D01*
X163522675Y-95231475D01*
X163505265Y-95332544D01*
X163505883Y-95440446D01*
X163505883Y-95440446D01*
G37*
X163505883Y-95440446D02*
X163524755Y-95536177D01*
X163552699Y-95590677D01*
X163599123Y-95648008D01*
X163702111Y-95566441D01*
X163764479Y-95516150D01*
X163794907Y-95482001D01*
X163799555Y-95448063D01*
X163784586Y-95398406D01*
X163776117Y-95375096D01*
X163763622Y-95280063D01*
X163790406Y-95193032D01*
X163850915Y-95129138D01*
X163870208Y-95118759D01*
X163921314Y-95107456D01*
X164015500Y-95098732D01*
X164146089Y-95092997D01*
X164306405Y-95090660D01*
X164329211Y-95090627D01*
X164726471Y-95090627D01*
X164726471Y-94816705D01*
X163506275Y-94816705D01*
X163506275Y-94953666D01*
X163508337Y-95032638D01*
X163517513Y-95073779D01*
X163538290Y-95088992D01*
X163557886Y-95090627D01*
X163609497Y-95090627D01*
X163557886Y-95156240D01*
X163522675Y-95231475D01*
X163505265Y-95332544D01*
X163505883Y-95440446D01*
G36*
X163513669Y-94258459D02*
X163539163Y-94363420D01*
X163552669Y-94393761D01*
X163588046Y-94452573D01*
X163627890Y-94497709D01*
X163679120Y-94531106D01*
X163748654Y-94554701D01*
X163843409Y-94570433D01*
X163970305Y-94580239D01*
X164136258Y-94586057D01*
X164247108Y-94588266D01*
X164726471Y-94596396D01*
X164726471Y-94457531D01*
X164722938Y-94373287D01*
X164710866Y-94329884D01*
X164690594Y-94318666D01*
X164668674Y-94312744D01*
X164672865Y-94286266D01*
X164690441Y-94250186D01*
X164717382Y-94159862D01*
X164724642Y-94043777D01*
X164712767Y-93921680D01*
X164682305Y-93813321D01*
X164678077Y-93803602D01*
X164608505Y-93704568D01*
X164511789Y-93639281D01*
X164398738Y-93609240D01*
X164358122Y-93611535D01*
X164358122Y-93856633D01*
X164412782Y-93878229D01*
X164451952Y-93942259D01*
X164472974Y-94045565D01*
X164475766Y-94100774D01*
X164468620Y-94192782D01*
X164440848Y-94253941D01*
X164427647Y-94268862D01*
X164355829Y-94309287D01*
X164290686Y-94318666D01*
X164203530Y-94318666D01*
X164203530Y-94197269D01*
X164210722Y-94056153D01*
X164233345Y-93957173D01*
X164272964Y-93894633D01*
X164290628Y-93880631D01*
X164358122Y-93856633D01*
X164358122Y-93611535D01*
X164280157Y-93615941D01*
X164166855Y-93660880D01*
X164090285Y-93722196D01*
X164057181Y-93759332D01*
X164035425Y-93795687D01*
X164022161Y-93842990D01*
X164014528Y-93912973D01*
X164009670Y-94017364D01*
X164008273Y-94058770D01*
X163999780Y-94318666D01*
X163921116Y-94318285D01*
X163838428Y-94308219D01*
X163788431Y-94271829D01*
X163756489Y-94198311D01*
X163755920Y-94196339D01*
X163743361Y-94092105D01*
X163759766Y-93990108D01*
X163799657Y-93914305D01*
X163819354Y-93883890D01*
X163816629Y-93851132D01*
X163788091Y-93800721D01*
X163767950Y-93771119D01*
X163724919Y-93713218D01*
X163692662Y-93677352D01*
X163683427Y-93671597D01*
X163635636Y-93695295D01*
X163578562Y-93765313D01*
X163559305Y-93795725D01*
X163526140Y-93883155D01*
X163507350Y-94000983D01*
X163503129Y-94131866D01*
X163513669Y-94258459D01*
X163513669Y-94258459D01*
G37*
X163513669Y-94258459D02*
X163539163Y-94363420D01*
X163552669Y-94393761D01*
X163588046Y-94452573D01*
X163627890Y-94497709D01*
X163679120Y-94531106D01*
X163748654Y-94554701D01*
X163843409Y-94570433D01*
X163970305Y-94580239D01*
X164136258Y-94586057D01*
X164247108Y-94588266D01*
X164726471Y-94596396D01*
X164726471Y-94457531D01*
X164722938Y-94373287D01*
X164710866Y-94329884D01*
X164690594Y-94318666D01*
X164668674Y-94312744D01*
X164672865Y-94286266D01*
X164690441Y-94250186D01*
X164717382Y-94159862D01*
X164724642Y-94043777D01*
X164712767Y-93921680D01*
X164682305Y-93813321D01*
X164678077Y-93803602D01*
X164608505Y-93704568D01*
X164511789Y-93639281D01*
X164398738Y-93609240D01*
X164358122Y-93611535D01*
X164358122Y-93856633D01*
X164412782Y-93878229D01*
X164451952Y-93942259D01*
X164472974Y-94045565D01*
X164475766Y-94100774D01*
X164468620Y-94192782D01*
X164440848Y-94253941D01*
X164427647Y-94268862D01*
X164355829Y-94309287D01*
X164290686Y-94318666D01*
X164203530Y-94318666D01*
X164203530Y-94197269D01*
X164210722Y-94056153D01*
X164233345Y-93957173D01*
X164272964Y-93894633D01*
X164290628Y-93880631D01*
X164358122Y-93856633D01*
X164358122Y-93611535D01*
X164280157Y-93615941D01*
X164166855Y-93660880D01*
X164090285Y-93722196D01*
X164057181Y-93759332D01*
X164035425Y-93795687D01*
X164022161Y-93842990D01*
X164014528Y-93912973D01*
X164009670Y-94017364D01*
X164008273Y-94058770D01*
X163999780Y-94318666D01*
X163921116Y-94318285D01*
X163838428Y-94308219D01*
X163788431Y-94271829D01*
X163756489Y-94198311D01*
X163755920Y-94196339D01*
X163743361Y-94092105D01*
X163759766Y-93990108D01*
X163799657Y-93914305D01*
X163819354Y-93883890D01*
X163816629Y-93851132D01*
X163788091Y-93800721D01*
X163767950Y-93771119D01*
X163724919Y-93713218D01*
X163692662Y-93677352D01*
X163683427Y-93671597D01*
X163635636Y-93695295D01*
X163578562Y-93765313D01*
X163559305Y-93795725D01*
X163526140Y-93883155D01*
X163507350Y-94000983D01*
X163503129Y-94131866D01*
X163513669Y-94258459D01*
G36*
X163511332Y-92759528D02*
X163518726Y-92858014D01*
X163904706Y-92986776D01*
X164290686Y-93115537D01*
X164153726Y-93155911D01*
X164069083Y-93180207D01*
X163954697Y-93212167D01*
X163828963Y-93246679D01*
X163761520Y-93264928D01*
X163506275Y-93333571D01*
X163506275Y-93616773D01*
X163773971Y-93532122D01*
X163905638Y-93490435D01*
X164064458Y-93440074D01*
X164230128Y-93387481D01*
X164377843Y-93340530D01*
X164714020Y-93233589D01*
X164729044Y-93002661D01*
X164522316Y-92940050D01*
X164393896Y-92901438D01*
X164252322Y-92859300D01*
X164127285Y-92822472D01*
X164122309Y-92821018D01*
X164037586Y-92793511D01*
X163979778Y-92769242D01*
X163957918Y-92752243D01*
X163960446Y-92748750D01*
X163994336Y-92736490D01*
X164066930Y-92713195D01*
X164169101Y-92681700D01*
X164291720Y-92644842D01*
X164359167Y-92624899D01*
X164726471Y-92516895D01*
X164726471Y-92287679D01*
X164147500Y-92104439D01*
X163985091Y-92052963D01*
X163837602Y-92006070D01*
X163711960Y-91965977D01*
X163615095Y-91934897D01*
X163553934Y-91915045D01*
X163536065Y-91909011D01*
X163517768Y-91913788D01*
X163509755Y-91951297D01*
X163510557Y-92029355D01*
X163511163Y-92041574D01*
X163518726Y-92186326D01*
X163867353Y-92281130D01*
X163994497Y-92315977D01*
X164106265Y-92347117D01*
X164192953Y-92371809D01*
X164244856Y-92387312D01*
X164253318Y-92390176D01*
X164243587Y-92402046D01*
X164193172Y-92425983D01*
X164108935Y-92459239D01*
X163997741Y-92499064D01*
X163897297Y-92532730D01*
X163503939Y-92661041D01*
X163511332Y-92759528D01*
X163511332Y-92759528D01*
G37*
X163511332Y-92759528D02*
X163518726Y-92858014D01*
X163904706Y-92986776D01*
X164290686Y-93115537D01*
X164153726Y-93155911D01*
X164069083Y-93180207D01*
X163954697Y-93212167D01*
X163828963Y-93246679D01*
X163761520Y-93264928D01*
X163506275Y-93333571D01*
X163506275Y-93616773D01*
X163773971Y-93532122D01*
X163905638Y-93490435D01*
X164064458Y-93440074D01*
X164230128Y-93387481D01*
X164377843Y-93340530D01*
X164714020Y-93233589D01*
X164729044Y-93002661D01*
X164522316Y-92940050D01*
X164393896Y-92901438D01*
X164252322Y-92859300D01*
X164127285Y-92822472D01*
X164122309Y-92821018D01*
X164037586Y-92793511D01*
X163979778Y-92769242D01*
X163957918Y-92752243D01*
X163960446Y-92748750D01*
X163994336Y-92736490D01*
X164066930Y-92713195D01*
X164169101Y-92681700D01*
X164291720Y-92644842D01*
X164359167Y-92624899D01*
X164726471Y-92516895D01*
X164726471Y-92287679D01*
X164147500Y-92104439D01*
X163985091Y-92052963D01*
X163837602Y-92006070D01*
X163711960Y-91965977D01*
X163615095Y-91934897D01*
X163553934Y-91915045D01*
X163536065Y-91909011D01*
X163517768Y-91913788D01*
X163509755Y-91951297D01*
X163510557Y-92029355D01*
X163511163Y-92041574D01*
X163518726Y-92186326D01*
X163867353Y-92281130D01*
X163994497Y-92315977D01*
X164106265Y-92347117D01*
X164192953Y-92371809D01*
X164244856Y-92387312D01*
X164253318Y-92390176D01*
X164243587Y-92402046D01*
X164193172Y-92425983D01*
X164108935Y-92459239D01*
X163997741Y-92499064D01*
X163897297Y-92532730D01*
X163503939Y-92661041D01*
X163511332Y-92759528D01*
G36*
X164726471Y-91803568D02*
X164726471Y-91666607D01*
X164724140Y-91587111D01*
X164714488Y-91545708D01*
X164693525Y-91530801D01*
X164679351Y-91529647D01*
X164650927Y-91527133D01*
X164645475Y-91511280D01*
X164662998Y-91469621D01*
X164679351Y-91437224D01*
X164718103Y-91312849D01*
X164720346Y-91177646D01*
X164691444Y-91067726D01*
X164621619Y-90965366D01*
X164518555Y-90887340D01*
X164396989Y-90844614D01*
X164390192Y-90843526D01*
X164316032Y-90837178D01*
X164209570Y-90834021D01*
X164129052Y-90834275D01*
X164129052Y-91106289D01*
X164236070Y-91112590D01*
X164324278Y-91126925D01*
X164374090Y-91146331D01*
X164442162Y-91219746D01*
X164466564Y-91306914D01*
X164446831Y-91396804D01*
X164387968Y-91473617D01*
X164348379Y-91502708D01*
X164301138Y-91519717D01*
X164232181Y-91527684D01*
X164128607Y-91529647D01*
X164026039Y-91526134D01*
X163935921Y-91516857D01*
X163875613Y-91503706D01*
X163870208Y-91501514D01*
X163805940Y-91448478D01*
X163770656Y-91371067D01*
X163764959Y-91284454D01*
X163789453Y-91203807D01*
X163844742Y-91144297D01*
X163855743Y-91138124D01*
X163922827Y-91118801D01*
X164019284Y-91108274D01*
X164129052Y-91106289D01*
X164129052Y-90834275D01*
X164088225Y-90834404D01*
X164022918Y-90836194D01*
X163861355Y-90848373D01*
X163740053Y-90873685D01*
X163650379Y-90915793D01*
X163583699Y-90978359D01*
X163544557Y-91039100D01*
X163517040Y-91123964D01*
X163507603Y-91229515D01*
X163515290Y-91337598D01*
X163539146Y-91430058D01*
X163567685Y-91478910D01*
X163613601Y-91529647D01*
X163033137Y-91529647D01*
X163033137Y-91803568D01*
X164726471Y-91803568D01*
X164726471Y-91803568D01*
G37*
X164726471Y-91803568D02*
X164726471Y-91666607D01*
X164724140Y-91587111D01*
X164714488Y-91545708D01*
X164693525Y-91530801D01*
X164679351Y-91529647D01*
X164650927Y-91527133D01*
X164645475Y-91511280D01*
X164662998Y-91469621D01*
X164679351Y-91437224D01*
X164718103Y-91312849D01*
X164720346Y-91177646D01*
X164691444Y-91067726D01*
X164621619Y-90965366D01*
X164518555Y-90887340D01*
X164396989Y-90844614D01*
X164390192Y-90843526D01*
X164316032Y-90837178D01*
X164209570Y-90834021D01*
X164129052Y-90834275D01*
X164129052Y-91106289D01*
X164236070Y-91112590D01*
X164324278Y-91126925D01*
X164374090Y-91146331D01*
X164442162Y-91219746D01*
X164466564Y-91306914D01*
X164446831Y-91396804D01*
X164387968Y-91473617D01*
X164348379Y-91502708D01*
X164301138Y-91519717D01*
X164232181Y-91527684D01*
X164128607Y-91529647D01*
X164026039Y-91526134D01*
X163935921Y-91516857D01*
X163875613Y-91503706D01*
X163870208Y-91501514D01*
X163805940Y-91448478D01*
X163770656Y-91371067D01*
X163764959Y-91284454D01*
X163789453Y-91203807D01*
X163844742Y-91144297D01*
X163855743Y-91138124D01*
X163922827Y-91118801D01*
X164019284Y-91108274D01*
X164129052Y-91106289D01*
X164129052Y-90834275D01*
X164088225Y-90834404D01*
X164022918Y-90836194D01*
X163861355Y-90848373D01*
X163740053Y-90873685D01*
X163650379Y-90915793D01*
X163583699Y-90978359D01*
X163544557Y-91039100D01*
X163517040Y-91123964D01*
X163507603Y-91229515D01*
X163515290Y-91337598D01*
X163539146Y-91430058D01*
X163567685Y-91478910D01*
X163613601Y-91529647D01*
X163033137Y-91529647D01*
X163033137Y-91803568D01*
X164726471Y-91803568D01*
G36*
X163508921Y-90234764D02*
X163520091Y-90272030D01*
X163544633Y-90284043D01*
X163555712Y-90284549D01*
X163586572Y-90286704D01*
X163591417Y-90301551D01*
X163570260Y-90341657D01*
X163555806Y-90365480D01*
X163524850Y-90440638D01*
X163509544Y-90530406D01*
X163508367Y-90624529D01*
X163519799Y-90712754D01*
X163542320Y-90784826D01*
X163574409Y-90830492D01*
X163614545Y-90839498D01*
X163625415Y-90834953D01*
X163670534Y-90801821D01*
X163726026Y-90750445D01*
X163734996Y-90741152D01*
X163776245Y-90692182D01*
X163789572Y-90649931D01*
X163780271Y-90590841D01*
X163774090Y-90567169D01*
X163759246Y-90493504D01*
X163765921Y-90441710D01*
X163789465Y-90397969D01*
X163821061Y-90357902D01*
X163860798Y-90328392D01*
X163916252Y-90307884D01*
X163995003Y-90294824D01*
X164104629Y-90287656D01*
X164252706Y-90284824D01*
X164342111Y-90284549D01*
X164726471Y-90284549D01*
X164726471Y-90035529D01*
X163506275Y-90035529D01*
X163506275Y-90160039D01*
X163508921Y-90234764D01*
X163508921Y-90234764D01*
G37*
X163508921Y-90234764D02*
X163520091Y-90272030D01*
X163544633Y-90284043D01*
X163555712Y-90284549D01*
X163586572Y-90286704D01*
X163591417Y-90301551D01*
X163570260Y-90341657D01*
X163555806Y-90365480D01*
X163524850Y-90440638D01*
X163509544Y-90530406D01*
X163508367Y-90624529D01*
X163519799Y-90712754D01*
X163542320Y-90784826D01*
X163574409Y-90830492D01*
X163614545Y-90839498D01*
X163625415Y-90834953D01*
X163670534Y-90801821D01*
X163726026Y-90750445D01*
X163734996Y-90741152D01*
X163776245Y-90692182D01*
X163789572Y-90649931D01*
X163780271Y-90590841D01*
X163774090Y-90567169D01*
X163759246Y-90493504D01*
X163765921Y-90441710D01*
X163789465Y-90397969D01*
X163821061Y-90357902D01*
X163860798Y-90328392D01*
X163916252Y-90307884D01*
X163995003Y-90294824D01*
X164104629Y-90287656D01*
X164252706Y-90284824D01*
X164342111Y-90284549D01*
X164726471Y-90284549D01*
X164726471Y-90035529D01*
X163506275Y-90035529D01*
X163506275Y-90160039D01*
X163508921Y-90234764D01*
G36*
X163515922Y-89460720D02*
X163547180Y-89577870D01*
X163603837Y-89667051D01*
X163678045Y-89729984D01*
X163709716Y-89749548D01*
X163742891Y-89763992D01*
X163785329Y-89774089D01*
X163844788Y-89780615D01*
X163929029Y-89784342D01*
X164045810Y-89786046D01*
X164202890Y-89786500D01*
X164244565Y-89786509D01*
X164726471Y-89786509D01*
X164726471Y-89666980D01*
X164721131Y-89590739D01*
X164707604Y-89534366D01*
X164699262Y-89520242D01*
X164684864Y-89481630D01*
X164699262Y-89442192D01*
X164717237Y-89377262D01*
X164724472Y-89282945D01*
X164721333Y-89178407D01*
X164708186Y-89082811D01*
X164691318Y-89027000D01*
X164621986Y-88918998D01*
X164525772Y-88851503D01*
X164397844Y-88821159D01*
X164394559Y-88820877D01*
X164337808Y-88823540D01*
X164337808Y-89064353D01*
X164402358Y-89085405D01*
X164438686Y-89119697D01*
X164466162Y-89188532D01*
X164477129Y-89279390D01*
X164471731Y-89372042D01*
X164450110Y-89446256D01*
X164436239Y-89467049D01*
X164372143Y-89503381D01*
X164299278Y-89512588D01*
X164203530Y-89512588D01*
X164203530Y-89374827D01*
X164213605Y-89243953D01*
X164242148Y-89144741D01*
X164286639Y-89083023D01*
X164337808Y-89064353D01*
X164337808Y-88823540D01*
X164254790Y-88827436D01*
X164144282Y-88873534D01*
X164060712Y-88960200D01*
X164053110Y-88972179D01*
X164028357Y-89023655D01*
X164013368Y-89087368D01*
X164006082Y-89176435D01*
X164004407Y-89282245D01*
X164004314Y-89512588D01*
X163907755Y-89512588D01*
X163832836Y-89502817D01*
X163782644Y-89477884D01*
X163779972Y-89474965D01*
X163758015Y-89419481D01*
X163749505Y-89335727D01*
X163753687Y-89243167D01*
X163769809Y-89161270D01*
X163793990Y-89112673D01*
X163813359Y-89086341D01*
X163817057Y-89058535D01*
X163801188Y-89020161D01*
X163761855Y-88962125D01*
X163695164Y-88875331D01*
X163688916Y-88867365D01*
X163665800Y-88871447D01*
X163627352Y-88905501D01*
X163584627Y-88957260D01*
X163548679Y-89014455D01*
X163540191Y-89032425D01*
X163523252Y-89097972D01*
X163511170Y-89194020D01*
X163506323Y-89301329D01*
X163506313Y-89306347D01*
X163515922Y-89460720D01*
X163515922Y-89460720D01*
G37*
X163515922Y-89460720D02*
X163547180Y-89577870D01*
X163603837Y-89667051D01*
X163678045Y-89729984D01*
X163709716Y-89749548D01*
X163742891Y-89763992D01*
X163785329Y-89774089D01*
X163844788Y-89780615D01*
X163929029Y-89784342D01*
X164045810Y-89786046D01*
X164202890Y-89786500D01*
X164244565Y-89786509D01*
X164726471Y-89786509D01*
X164726471Y-89666980D01*
X164721131Y-89590739D01*
X164707604Y-89534366D01*
X164699262Y-89520242D01*
X164684864Y-89481630D01*
X164699262Y-89442192D01*
X164717237Y-89377262D01*
X164724472Y-89282945D01*
X164721333Y-89178407D01*
X164708186Y-89082811D01*
X164691318Y-89027000D01*
X164621986Y-88918998D01*
X164525772Y-88851503D01*
X164397844Y-88821159D01*
X164394559Y-88820877D01*
X164337808Y-88823540D01*
X164337808Y-89064353D01*
X164402358Y-89085405D01*
X164438686Y-89119697D01*
X164466162Y-89188532D01*
X164477129Y-89279390D01*
X164471731Y-89372042D01*
X164450110Y-89446256D01*
X164436239Y-89467049D01*
X164372143Y-89503381D01*
X164299278Y-89512588D01*
X164203530Y-89512588D01*
X164203530Y-89374827D01*
X164213605Y-89243953D01*
X164242148Y-89144741D01*
X164286639Y-89083023D01*
X164337808Y-89064353D01*
X164337808Y-88823540D01*
X164254790Y-88827436D01*
X164144282Y-88873534D01*
X164060712Y-88960200D01*
X164053110Y-88972179D01*
X164028357Y-89023655D01*
X164013368Y-89087368D01*
X164006082Y-89176435D01*
X164004407Y-89282245D01*
X164004314Y-89512588D01*
X163907755Y-89512588D01*
X163832836Y-89502817D01*
X163782644Y-89477884D01*
X163779972Y-89474965D01*
X163758015Y-89419481D01*
X163749505Y-89335727D01*
X163753687Y-89243167D01*
X163769809Y-89161270D01*
X163793990Y-89112673D01*
X163813359Y-89086341D01*
X163817057Y-89058535D01*
X163801188Y-89020161D01*
X163761855Y-88962125D01*
X163695164Y-88875331D01*
X163688916Y-88867365D01*
X163665800Y-88871447D01*
X163627352Y-88905501D01*
X163584627Y-88957260D01*
X163548679Y-89014455D01*
X163540191Y-89032425D01*
X163523252Y-89097972D01*
X163511170Y-89194020D01*
X163506323Y-89301329D01*
X163506313Y-89306347D01*
X163515922Y-89460720D01*
G36*
X161659560Y-88421909D02*
X161685499Y-88474412D01*
X161730700Y-88539158D01*
X161779991Y-88586347D01*
X161841885Y-88618665D01*
X161924896Y-88638797D01*
X162037538Y-88649430D01*
X162188324Y-88653247D01*
X162253149Y-88653470D01*
X162395221Y-88652818D01*
X162496757Y-88650112D01*
X162567015Y-88644224D01*
X162615256Y-88634027D01*
X162650738Y-88618394D01*
X162674943Y-88602128D01*
X162777929Y-88498295D01*
X162839874Y-88376021D01*
X162858506Y-88244114D01*
X162831549Y-88111384D01*
X162812486Y-88069333D01*
X162760015Y-87968666D01*
X163582259Y-87968666D01*
X163544267Y-88042135D01*
X163514872Y-88138941D01*
X163507342Y-88257928D01*
X163521245Y-88376745D01*
X163552476Y-88466473D01*
X163611954Y-88540899D01*
X163697066Y-88604490D01*
X163705805Y-88609271D01*
X163746966Y-88629437D01*
X163788454Y-88644165D01*
X163838713Y-88654303D01*
X163906184Y-88660699D01*
X163999309Y-88664201D01*
X164126531Y-88665658D01*
X164269701Y-88665921D01*
X164726471Y-88665921D01*
X164726471Y-88392000D01*
X163884231Y-88392000D01*
X163819763Y-88315383D01*
X163768194Y-88235793D01*
X163758818Y-88160422D01*
X163782947Y-88084633D01*
X163806574Y-88044241D01*
X163840227Y-88014179D01*
X163891087Y-87992797D01*
X163966334Y-87978450D01*
X164073146Y-87969490D01*
X164218704Y-87964270D01*
X164315588Y-87962431D01*
X164714020Y-87956215D01*
X164721547Y-87825480D01*
X164729073Y-87694745D01*
X162256582Y-87694745D01*
X162256582Y-87968666D01*
X162394423Y-87975650D01*
X162490107Y-87999182D01*
X162549641Y-88043135D01*
X162579029Y-88111382D01*
X162584902Y-88180333D01*
X162578154Y-88258386D01*
X162551594Y-88310189D01*
X162516499Y-88342583D01*
X162478752Y-88368084D01*
X162436700Y-88383265D01*
X162377779Y-88390019D01*
X162289428Y-88390241D01*
X162215448Y-88387968D01*
X162104000Y-88382749D01*
X162030833Y-88374979D01*
X161984422Y-88361895D01*
X161953244Y-88340732D01*
X161935223Y-88320760D01*
X161895925Y-88237314D01*
X161889579Y-88138551D01*
X161903116Y-88081841D01*
X161951233Y-88025692D01*
X162044833Y-87988499D01*
X162183254Y-87970472D01*
X162256582Y-87968666D01*
X162256582Y-87694745D01*
X161638628Y-87694745D01*
X161638628Y-87831705D01*
X161641879Y-87913935D01*
X161653426Y-87956360D01*
X161675952Y-87968661D01*
X161676620Y-87968666D01*
X161698681Y-87974374D01*
X161696176Y-87999547D01*
X161671935Y-88049598D01*
X161634851Y-88166219D01*
X161630953Y-88297429D01*
X161659560Y-88421909D01*
X161659560Y-88421909D01*
G37*
X161659560Y-88421909D02*
X161685499Y-88474412D01*
X161730700Y-88539158D01*
X161779991Y-88586347D01*
X161841885Y-88618665D01*
X161924896Y-88638797D01*
X162037538Y-88649430D01*
X162188324Y-88653247D01*
X162253149Y-88653470D01*
X162395221Y-88652818D01*
X162496757Y-88650112D01*
X162567015Y-88644224D01*
X162615256Y-88634027D01*
X162650738Y-88618394D01*
X162674943Y-88602128D01*
X162777929Y-88498295D01*
X162839874Y-88376021D01*
X162858506Y-88244114D01*
X162831549Y-88111384D01*
X162812486Y-88069333D01*
X162760015Y-87968666D01*
X163582259Y-87968666D01*
X163544267Y-88042135D01*
X163514872Y-88138941D01*
X163507342Y-88257928D01*
X163521245Y-88376745D01*
X163552476Y-88466473D01*
X163611954Y-88540899D01*
X163697066Y-88604490D01*
X163705805Y-88609271D01*
X163746966Y-88629437D01*
X163788454Y-88644165D01*
X163838713Y-88654303D01*
X163906184Y-88660699D01*
X163999309Y-88664201D01*
X164126531Y-88665658D01*
X164269701Y-88665921D01*
X164726471Y-88665921D01*
X164726471Y-88392000D01*
X163884231Y-88392000D01*
X163819763Y-88315383D01*
X163768194Y-88235793D01*
X163758818Y-88160422D01*
X163782947Y-88084633D01*
X163806574Y-88044241D01*
X163840227Y-88014179D01*
X163891087Y-87992797D01*
X163966334Y-87978450D01*
X164073146Y-87969490D01*
X164218704Y-87964270D01*
X164315588Y-87962431D01*
X164714020Y-87956215D01*
X164721547Y-87825480D01*
X164729073Y-87694745D01*
X162256582Y-87694745D01*
X162256582Y-87968666D01*
X162394423Y-87975650D01*
X162490107Y-87999182D01*
X162549641Y-88043135D01*
X162579029Y-88111382D01*
X162584902Y-88180333D01*
X162578154Y-88258386D01*
X162551594Y-88310189D01*
X162516499Y-88342583D01*
X162478752Y-88368084D01*
X162436700Y-88383265D01*
X162377779Y-88390019D01*
X162289428Y-88390241D01*
X162215448Y-88387968D01*
X162104000Y-88382749D01*
X162030833Y-88374979D01*
X161984422Y-88361895D01*
X161953244Y-88340732D01*
X161935223Y-88320760D01*
X161895925Y-88237314D01*
X161889579Y-88138551D01*
X161903116Y-88081841D01*
X161951233Y-88025692D01*
X162044833Y-87988499D01*
X162183254Y-87970472D01*
X162256582Y-87968666D01*
X162256582Y-87694745D01*
X161638628Y-87694745D01*
X161638628Y-87831705D01*
X161641879Y-87913935D01*
X161653426Y-87956360D01*
X161675952Y-87968661D01*
X161676620Y-87968666D01*
X161698681Y-87974374D01*
X161696176Y-87999547D01*
X161671935Y-88049598D01*
X161634851Y-88166219D01*
X161630953Y-88297429D01*
X161659560Y-88421909D01*
G36*
X154595337Y-105185256D02*
X154711066Y-105184433D01*
X155321000Y-104584115D01*
X155930934Y-103983796D01*
X156210835Y-103983359D01*
X156490737Y-103982921D01*
X156490737Y-103617337D01*
X156561756Y-103607917D01*
X156594127Y-103604350D01*
X156655087Y-103598338D01*
X156740998Y-103590201D01*
X156848226Y-103580262D01*
X156973133Y-103568843D01*
X157112083Y-103556264D01*
X157261441Y-103542847D01*
X157417568Y-103528915D01*
X157576830Y-103514788D01*
X157735590Y-103500788D01*
X157890211Y-103487237D01*
X158037057Y-103474456D01*
X158172493Y-103462767D01*
X158292880Y-103452492D01*
X158394584Y-103443952D01*
X158473967Y-103437469D01*
X158527394Y-103433364D01*
X158551229Y-103431959D01*
X158551342Y-103431960D01*
X158570466Y-103442204D01*
X158609955Y-103472974D01*
X158670266Y-103524689D01*
X158751861Y-103597767D01*
X158855198Y-103692627D01*
X158980738Y-103809687D01*
X159128940Y-103949367D01*
X159300263Y-104112084D01*
X159348237Y-104157821D01*
X160108566Y-104883195D01*
X160167052Y-104824551D01*
X160225539Y-104765908D01*
X160122310Y-104671026D01*
X160085003Y-104636315D01*
X160027311Y-104582094D01*
X159953013Y-104511941D01*
X159865889Y-104429432D01*
X159769718Y-104338145D01*
X159668280Y-104241658D01*
X159607695Y-104183935D01*
X159494197Y-104075566D01*
X159403285Y-103987972D01*
X159333307Y-103918920D01*
X159282610Y-103866176D01*
X159249540Y-103827506D01*
X159232444Y-103800677D01*
X159229669Y-103783456D01*
X159239563Y-103773608D01*
X159260471Y-103768901D01*
X159290741Y-103767101D01*
X159299002Y-103766859D01*
X159355909Y-103754342D01*
X159424693Y-103723503D01*
X159494475Y-103680497D01*
X159554378Y-103631480D01*
X159572882Y-103611866D01*
X159637628Y-103511230D01*
X159673854Y-103393673D01*
X159682447Y-103289738D01*
X159666239Y-103171951D01*
X159618712Y-103063169D01*
X159541511Y-102966890D01*
X159522295Y-102949125D01*
X159448500Y-102884168D01*
X159448500Y-101760421D01*
X159682447Y-101760421D01*
X159682447Y-101459632D01*
X159573152Y-101459632D01*
X159498539Y-101455857D01*
X159446750Y-101443175D01*
X159418580Y-101427763D01*
X159398424Y-101416750D01*
X159369200Y-101407321D01*
X159326575Y-101398849D01*
X159266217Y-101390710D01*
X159183793Y-101382279D01*
X159074972Y-101372932D01*
X158994017Y-101366531D01*
X158614732Y-101337169D01*
X159344938Y-100616341D01*
X159477066Y-100486008D01*
X159604096Y-100360892D01*
X159723695Y-100243279D01*
X159833528Y-100135455D01*
X159931263Y-100039705D01*
X160014566Y-99958317D01*
X160081104Y-99893577D01*
X160128542Y-99847770D01*
X160154520Y-99823208D01*
X160195649Y-99782855D01*
X160224335Y-99749195D01*
X160233895Y-99731090D01*
X160222697Y-99707965D01*
X160194719Y-99674257D01*
X160183326Y-99662831D01*
X160132757Y-99614383D01*
X159861702Y-99881119D01*
X159792652Y-99949169D01*
X159703774Y-100036915D01*
X159598959Y-100140508D01*
X159482097Y-100256100D01*
X159357079Y-100379841D01*
X159227795Y-100507881D01*
X159098136Y-100636372D01*
X159005179Y-100728546D01*
X158863520Y-100868658D01*
X158743591Y-100986368D01*
X158643768Y-101083180D01*
X158562428Y-101160601D01*
X158497948Y-101220136D01*
X158464277Y-101249642D01*
X158464277Y-101486591D01*
X158843592Y-101516257D01*
X158954777Y-101525203D01*
X159056453Y-101533858D01*
X159143304Y-101541729D01*
X159210018Y-101548328D01*
X159251279Y-101553164D01*
X159260506Y-101554720D01*
X159298105Y-101563518D01*
X159298105Y-102825319D01*
X159193173Y-102833742D01*
X159069195Y-102859172D01*
X158959524Y-102912389D01*
X158868156Y-102990037D01*
X158799083Y-103088763D01*
X158757620Y-103199572D01*
X158738171Y-103235520D01*
X158696430Y-103253517D01*
X158694589Y-103253894D01*
X158676967Y-103256053D01*
X158658922Y-103253384D01*
X158637108Y-103243280D01*
X158608177Y-103223137D01*
X158568783Y-103190349D01*
X158515577Y-103142310D01*
X158445214Y-103076416D01*
X158354346Y-102990060D01*
X158348493Y-102984480D01*
X158250956Y-102891595D01*
X158147067Y-102792845D01*
X158043977Y-102695016D01*
X157948839Y-102604893D01*
X157868804Y-102529262D01*
X157850911Y-102512395D01*
X157783444Y-102447735D01*
X157725709Y-102390295D01*
X157681675Y-102344199D01*
X157655314Y-102313569D01*
X157649521Y-102303285D01*
X157661646Y-102287948D01*
X157694910Y-102252083D01*
X157746542Y-102198512D01*
X157813775Y-102130060D01*
X157893837Y-102049553D01*
X157983961Y-101959813D01*
X158058198Y-101886468D01*
X158464277Y-101486591D01*
X158464277Y-101249642D01*
X158448703Y-101263291D01*
X158413071Y-101291571D01*
X158389429Y-101306483D01*
X158378480Y-101309801D01*
X158354586Y-101308544D01*
X158300501Y-101304726D01*
X158219338Y-101298593D01*
X158114210Y-101290393D01*
X157988228Y-101280373D01*
X157844505Y-101268780D01*
X157686154Y-101255860D01*
X157516287Y-101241862D01*
X157380528Y-101230581D01*
X156615106Y-101166750D01*
X156615106Y-101330996D01*
X156631624Y-101331703D01*
X156678145Y-101335031D01*
X156751378Y-101340710D01*
X156848028Y-101348474D01*
X156964805Y-101358057D01*
X157098414Y-101369189D01*
X157245563Y-101381605D01*
X157385271Y-101393520D01*
X157543787Y-101407016D01*
X157693421Y-101419587D01*
X157830602Y-101430945D01*
X157951759Y-101440802D01*
X158053320Y-101448870D01*
X158131712Y-101454860D01*
X158183363Y-101458485D01*
X158203423Y-101459491D01*
X158215908Y-101461060D01*
X158220862Y-101467278D01*
X158216218Y-101480541D01*
X158199909Y-101503247D01*
X158169868Y-101537792D01*
X158124027Y-101586573D01*
X158060320Y-101651987D01*
X157976679Y-101736431D01*
X157887299Y-101826029D01*
X157521186Y-102192426D01*
X157518434Y-102189859D01*
X157518434Y-102432049D01*
X157533550Y-102443087D01*
X157569142Y-102473987D01*
X157621941Y-102521653D01*
X157688673Y-102582987D01*
X157766070Y-102654893D01*
X157850858Y-102734273D01*
X157939767Y-102818031D01*
X158029526Y-102903070D01*
X158116864Y-102986292D01*
X158198509Y-103064601D01*
X158271191Y-103134900D01*
X158331637Y-103194091D01*
X158376578Y-103239078D01*
X158402742Y-103266764D01*
X158408072Y-103274314D01*
X158390867Y-103276803D01*
X158343348Y-103281970D01*
X158268489Y-103289530D01*
X158169264Y-103299200D01*
X158048649Y-103310695D01*
X157909618Y-103323731D01*
X157755145Y-103338024D01*
X157588206Y-103353290D01*
X157453597Y-103365479D01*
X157279054Y-103381071D01*
X157114627Y-103395477D01*
X156963299Y-103408453D01*
X156828053Y-103419759D01*
X156711870Y-103429152D01*
X156617735Y-103436389D01*
X156548630Y-103441228D01*
X156507538Y-103443427D01*
X156496868Y-103443176D01*
X156506372Y-103430030D01*
X156536920Y-103396554D01*
X156585556Y-103345674D01*
X156649323Y-103280317D01*
X156725265Y-103203409D01*
X156810424Y-103117876D01*
X156901845Y-103026646D01*
X156996569Y-102932644D01*
X157091641Y-102838798D01*
X157184103Y-102748033D01*
X157270999Y-102663277D01*
X157349372Y-102587456D01*
X157416265Y-102523497D01*
X157468722Y-102474326D01*
X157503785Y-102442869D01*
X157518434Y-102432049D01*
X157518434Y-102189859D01*
X157374760Y-102055798D01*
X157300448Y-101986216D01*
X157217483Y-101908119D01*
X157129102Y-101824594D01*
X157038541Y-101738730D01*
X156949036Y-101653615D01*
X156863823Y-101572336D01*
X156786139Y-101497981D01*
X156719220Y-101433637D01*
X156666303Y-101382394D01*
X156630623Y-101347337D01*
X156615416Y-101331556D01*
X156615106Y-101330996D01*
X156615106Y-101166750D01*
X156423807Y-101150796D01*
X155584485Y-100352714D01*
X154745164Y-99554632D01*
X154627852Y-99555219D01*
X154510539Y-99555806D01*
X154648253Y-99684725D01*
X154725063Y-99756876D01*
X154815304Y-99842060D01*
X154916575Y-99937979D01*
X155026476Y-100042334D01*
X155142604Y-100152826D01*
X155262558Y-100267156D01*
X155383936Y-100383025D01*
X155504338Y-100498135D01*
X155621362Y-100610186D01*
X155732606Y-100716881D01*
X155835669Y-100815920D01*
X155928150Y-100905003D01*
X156007647Y-100981834D01*
X156071758Y-101044112D01*
X156118083Y-101089538D01*
X156144219Y-101115815D01*
X156149233Y-101121574D01*
X156131791Y-101121970D01*
X156087135Y-101119792D01*
X156021340Y-101115417D01*
X155940483Y-101109225D01*
X155908183Y-101106567D01*
X155671921Y-101086772D01*
X155671921Y-101241758D01*
X155709520Y-101249760D01*
X155739255Y-101253840D01*
X155795203Y-101259575D01*
X155870236Y-101266299D01*
X155957225Y-101273352D01*
X155989421Y-101275793D01*
X156081861Y-101282992D01*
X156167707Y-101290258D01*
X156238847Y-101296864D01*
X156287169Y-101302084D01*
X156295939Y-101303261D01*
X156313942Y-101307702D01*
X156335017Y-101317313D01*
X156361525Y-101334140D01*
X156395828Y-101360225D01*
X156440289Y-101397613D01*
X156497271Y-101448346D01*
X156569136Y-101514470D01*
X156658246Y-101598026D01*
X156766964Y-101701060D01*
X156877275Y-101806167D01*
X156986441Y-101910738D01*
X157087540Y-102008351D01*
X157178115Y-102096578D01*
X157255708Y-102172988D01*
X157317862Y-102235151D01*
X157362118Y-102280637D01*
X157386018Y-102307017D01*
X157389574Y-102312643D01*
X157376681Y-102327443D01*
X157343060Y-102362039D01*
X157292082Y-102413071D01*
X157227120Y-102477183D01*
X157151548Y-102551016D01*
X157096493Y-102604411D01*
X156808237Y-102883173D01*
X156808237Y-102061210D01*
X156490737Y-102061210D01*
X156490737Y-103063842D01*
X156632206Y-103063842D01*
X156448960Y-103247658D01*
X156318971Y-103378052D01*
X156318971Y-103632000D01*
X156339477Y-103634429D01*
X156350902Y-103646724D01*
X156355880Y-103676396D01*
X156357044Y-103730955D01*
X156357052Y-103740618D01*
X156357052Y-103849237D01*
X156065584Y-103849237D01*
X156173237Y-103740618D01*
X156238687Y-103679346D01*
X156288829Y-103642699D01*
X156318971Y-103632000D01*
X156318971Y-103378052D01*
X156265715Y-103431474D01*
X156102502Y-103431474D01*
X156027414Y-103431985D01*
X155979645Y-103434328D01*
X155953098Y-103439711D01*
X155941679Y-103449344D01*
X155939289Y-103463871D01*
X155935780Y-103480027D01*
X155921711Y-103491969D01*
X155891769Y-103501139D01*
X155840642Y-103508982D01*
X155763017Y-103516942D01*
X155734585Y-103519496D01*
X155671921Y-103525026D01*
X155671921Y-101241758D01*
X155671921Y-101086772D01*
X155671921Y-100874763D01*
X155521526Y-100874763D01*
X155521526Y-100964859D01*
X155520083Y-101017555D01*
X155513116Y-101046188D01*
X155508970Y-101049691D01*
X155508970Y-101234234D01*
X155518442Y-101243946D01*
X155521366Y-101277588D01*
X155521526Y-101300294D01*
X155521526Y-101376079D01*
X155521526Y-101658694D01*
X155521526Y-103538519D01*
X155456413Y-103474938D01*
X155376062Y-103376186D01*
X155314089Y-103253968D01*
X155269646Y-103106213D01*
X155245065Y-102959401D01*
X155233596Y-102863316D01*
X155354421Y-102863316D01*
X155354421Y-102094632D01*
X155217345Y-102094632D01*
X155228776Y-101981835D01*
X155238425Y-101903025D01*
X155251214Y-101819057D01*
X155260348Y-101768776D01*
X155280488Y-101668513D01*
X155401007Y-101663603D01*
X155521526Y-101658694D01*
X155521526Y-101376079D01*
X155454684Y-101376079D01*
X155412810Y-101373869D01*
X155389536Y-101368350D01*
X155387842Y-101366126D01*
X155398560Y-101341387D01*
X155424563Y-101305243D01*
X155456623Y-101269010D01*
X155485511Y-101244001D01*
X155489267Y-101241773D01*
X155508970Y-101234234D01*
X155508970Y-101049691D01*
X155496674Y-101060081D01*
X155478762Y-101065689D01*
X155432279Y-101088578D01*
X155376400Y-101132540D01*
X155318960Y-101190011D01*
X155267793Y-101253427D01*
X155241143Y-101295082D01*
X155211972Y-101342534D01*
X155187467Y-101366859D01*
X155158572Y-101375405D01*
X155141362Y-101376062D01*
X155137184Y-101376063D01*
X155137184Y-102228316D01*
X155220737Y-102228316D01*
X155220737Y-102729632D01*
X155137184Y-102729632D01*
X155137184Y-102228316D01*
X155137184Y-101376063D01*
X155087052Y-101376079D01*
X155087052Y-101516726D01*
X155088617Y-101581436D01*
X155092785Y-101631870D01*
X155098773Y-101659906D01*
X155101197Y-101662943D01*
X155104918Y-101680727D01*
X155103394Y-101724008D01*
X155097075Y-101785349D01*
X155091240Y-101827263D01*
X155079778Y-101903263D01*
X155069430Y-101972770D01*
X155061796Y-102025003D01*
X155059627Y-102040322D01*
X155047232Y-102080347D01*
X155027808Y-102094632D01*
X155019898Y-102098975D01*
X155013863Y-102114510D01*
X155009466Y-102144999D01*
X155006469Y-102194200D01*
X155004635Y-102265874D01*
X155003725Y-102363781D01*
X155003500Y-102478974D01*
X155003628Y-102601914D01*
X155004230Y-102695441D01*
X155005639Y-102763560D01*
X155008181Y-102810281D01*
X155012189Y-102839609D01*
X155017991Y-102855551D01*
X155025917Y-102862115D01*
X155035133Y-102863316D01*
X155064385Y-102873540D01*
X155081031Y-102907030D01*
X155086968Y-102968012D01*
X155087052Y-102978983D01*
X155097706Y-103082254D01*
X155127033Y-103199547D01*
X155171084Y-103320285D01*
X155225911Y-103433889D01*
X155287564Y-103529781D01*
X155297332Y-103542201D01*
X155329115Y-103582682D01*
X155341844Y-103606655D01*
X155337729Y-103623396D01*
X155320750Y-103640581D01*
X155287492Y-103691336D01*
X155274725Y-103757393D01*
X155281365Y-103828526D01*
X155306327Y-103894514D01*
X155348529Y-103945132D01*
X155353434Y-103948797D01*
X155432211Y-103986672D01*
X155513754Y-103993719D01*
X155591487Y-103970715D01*
X155658835Y-103918437D01*
X155664396Y-103912044D01*
X155690813Y-103874927D01*
X155702447Y-103837267D01*
X155703287Y-103784324D01*
X155702542Y-103771098D01*
X155700641Y-103719297D01*
X155704996Y-103692614D01*
X155718138Y-103682955D01*
X155730408Y-103681963D01*
X155766002Y-103679939D01*
X155819533Y-103674914D01*
X155851559Y-103671303D01*
X155902427Y-103666066D01*
X155928468Y-103668244D01*
X155937986Y-103680875D01*
X155939289Y-103703375D01*
X155934986Y-103716718D01*
X155921057Y-103738244D01*
X155895977Y-103769548D01*
X155858219Y-103812224D01*
X155806256Y-103867868D01*
X155738562Y-103938075D01*
X155653611Y-104024440D01*
X155549875Y-104128558D01*
X155425828Y-104252025D01*
X155279944Y-104396436D01*
X155209449Y-104466031D01*
X154479610Y-105186079D01*
X154595337Y-105185256D01*
X154595337Y-105185256D01*
G37*
X154595337Y-105185256D02*
X154711066Y-105184433D01*
X155321000Y-104584115D01*
X155930934Y-103983796D01*
X156210835Y-103983359D01*
X156490737Y-103982921D01*
X156490737Y-103617337D01*
X156561756Y-103607917D01*
X156594127Y-103604350D01*
X156655087Y-103598338D01*
X156740998Y-103590201D01*
X156848226Y-103580262D01*
X156973133Y-103568843D01*
X157112083Y-103556264D01*
X157261441Y-103542847D01*
X157417568Y-103528915D01*
X157576830Y-103514788D01*
X157735590Y-103500788D01*
X157890211Y-103487237D01*
X158037057Y-103474456D01*
X158172493Y-103462767D01*
X158292880Y-103452492D01*
X158394584Y-103443952D01*
X158473967Y-103437469D01*
X158527394Y-103433364D01*
X158551229Y-103431959D01*
X158551342Y-103431960D01*
X158570466Y-103442204D01*
X158609955Y-103472974D01*
X158670266Y-103524689D01*
X158751861Y-103597767D01*
X158855198Y-103692627D01*
X158980738Y-103809687D01*
X159128940Y-103949367D01*
X159300263Y-104112084D01*
X159348237Y-104157821D01*
X160108566Y-104883195D01*
X160167052Y-104824551D01*
X160225539Y-104765908D01*
X160122310Y-104671026D01*
X160085003Y-104636315D01*
X160027311Y-104582094D01*
X159953013Y-104511941D01*
X159865889Y-104429432D01*
X159769718Y-104338145D01*
X159668280Y-104241658D01*
X159607695Y-104183935D01*
X159494197Y-104075566D01*
X159403285Y-103987972D01*
X159333307Y-103918920D01*
X159282610Y-103866176D01*
X159249540Y-103827506D01*
X159232444Y-103800677D01*
X159229669Y-103783456D01*
X159239563Y-103773608D01*
X159260471Y-103768901D01*
X159290741Y-103767101D01*
X159299002Y-103766859D01*
X159355909Y-103754342D01*
X159424693Y-103723503D01*
X159494475Y-103680497D01*
X159554378Y-103631480D01*
X159572882Y-103611866D01*
X159637628Y-103511230D01*
X159673854Y-103393673D01*
X159682447Y-103289738D01*
X159666239Y-103171951D01*
X159618712Y-103063169D01*
X159541511Y-102966890D01*
X159522295Y-102949125D01*
X159448500Y-102884168D01*
X159448500Y-101760421D01*
X159682447Y-101760421D01*
X159682447Y-101459632D01*
X159573152Y-101459632D01*
X159498539Y-101455857D01*
X159446750Y-101443175D01*
X159418580Y-101427763D01*
X159398424Y-101416750D01*
X159369200Y-101407321D01*
X159326575Y-101398849D01*
X159266217Y-101390710D01*
X159183793Y-101382279D01*
X159074972Y-101372932D01*
X158994017Y-101366531D01*
X158614732Y-101337169D01*
X159344938Y-100616341D01*
X159477066Y-100486008D01*
X159604096Y-100360892D01*
X159723695Y-100243279D01*
X159833528Y-100135455D01*
X159931263Y-100039705D01*
X160014566Y-99958317D01*
X160081104Y-99893577D01*
X160128542Y-99847770D01*
X160154520Y-99823208D01*
X160195649Y-99782855D01*
X160224335Y-99749195D01*
X160233895Y-99731090D01*
X160222697Y-99707965D01*
X160194719Y-99674257D01*
X160183326Y-99662831D01*
X160132757Y-99614383D01*
X159861702Y-99881119D01*
X159792652Y-99949169D01*
X159703774Y-100036915D01*
X159598959Y-100140508D01*
X159482097Y-100256100D01*
X159357079Y-100379841D01*
X159227795Y-100507881D01*
X159098136Y-100636372D01*
X159005179Y-100728546D01*
X158863520Y-100868658D01*
X158743591Y-100986368D01*
X158643768Y-101083180D01*
X158562428Y-101160601D01*
X158497948Y-101220136D01*
X158464277Y-101249642D01*
X158464277Y-101486591D01*
X158843592Y-101516257D01*
X158954777Y-101525203D01*
X159056453Y-101533858D01*
X159143304Y-101541729D01*
X159210018Y-101548328D01*
X159251279Y-101553164D01*
X159260506Y-101554720D01*
X159298105Y-101563518D01*
X159298105Y-102825319D01*
X159193173Y-102833742D01*
X159069195Y-102859172D01*
X158959524Y-102912389D01*
X158868156Y-102990037D01*
X158799083Y-103088763D01*
X158757620Y-103199572D01*
X158738171Y-103235520D01*
X158696430Y-103253517D01*
X158694589Y-103253894D01*
X158676967Y-103256053D01*
X158658922Y-103253384D01*
X158637108Y-103243280D01*
X158608177Y-103223137D01*
X158568783Y-103190349D01*
X158515577Y-103142310D01*
X158445214Y-103076416D01*
X158354346Y-102990060D01*
X158348493Y-102984480D01*
X158250956Y-102891595D01*
X158147067Y-102792845D01*
X158043977Y-102695016D01*
X157948839Y-102604893D01*
X157868804Y-102529262D01*
X157850911Y-102512395D01*
X157783444Y-102447735D01*
X157725709Y-102390295D01*
X157681675Y-102344199D01*
X157655314Y-102313569D01*
X157649521Y-102303285D01*
X157661646Y-102287948D01*
X157694910Y-102252083D01*
X157746542Y-102198512D01*
X157813775Y-102130060D01*
X157893837Y-102049553D01*
X157983961Y-101959813D01*
X158058198Y-101886468D01*
X158464277Y-101486591D01*
X158464277Y-101249642D01*
X158448703Y-101263291D01*
X158413071Y-101291571D01*
X158389429Y-101306483D01*
X158378480Y-101309801D01*
X158354586Y-101308544D01*
X158300501Y-101304726D01*
X158219338Y-101298593D01*
X158114210Y-101290393D01*
X157988228Y-101280373D01*
X157844505Y-101268780D01*
X157686154Y-101255860D01*
X157516287Y-101241862D01*
X157380528Y-101230581D01*
X156615106Y-101166750D01*
X156615106Y-101330996D01*
X156631624Y-101331703D01*
X156678145Y-101335031D01*
X156751378Y-101340710D01*
X156848028Y-101348474D01*
X156964805Y-101358057D01*
X157098414Y-101369189D01*
X157245563Y-101381605D01*
X157385271Y-101393520D01*
X157543787Y-101407016D01*
X157693421Y-101419587D01*
X157830602Y-101430945D01*
X157951759Y-101440802D01*
X158053320Y-101448870D01*
X158131712Y-101454860D01*
X158183363Y-101458485D01*
X158203423Y-101459491D01*
X158215908Y-101461060D01*
X158220862Y-101467278D01*
X158216218Y-101480541D01*
X158199909Y-101503247D01*
X158169868Y-101537792D01*
X158124027Y-101586573D01*
X158060320Y-101651987D01*
X157976679Y-101736431D01*
X157887299Y-101826029D01*
X157521186Y-102192426D01*
X157518434Y-102189859D01*
X157518434Y-102432049D01*
X157533550Y-102443087D01*
X157569142Y-102473987D01*
X157621941Y-102521653D01*
X157688673Y-102582987D01*
X157766070Y-102654893D01*
X157850858Y-102734273D01*
X157939767Y-102818031D01*
X158029526Y-102903070D01*
X158116864Y-102986292D01*
X158198509Y-103064601D01*
X158271191Y-103134900D01*
X158331637Y-103194091D01*
X158376578Y-103239078D01*
X158402742Y-103266764D01*
X158408072Y-103274314D01*
X158390867Y-103276803D01*
X158343348Y-103281970D01*
X158268489Y-103289530D01*
X158169264Y-103299200D01*
X158048649Y-103310695D01*
X157909618Y-103323731D01*
X157755145Y-103338024D01*
X157588206Y-103353290D01*
X157453597Y-103365479D01*
X157279054Y-103381071D01*
X157114627Y-103395477D01*
X156963299Y-103408453D01*
X156828053Y-103419759D01*
X156711870Y-103429152D01*
X156617735Y-103436389D01*
X156548630Y-103441228D01*
X156507538Y-103443427D01*
X156496868Y-103443176D01*
X156506372Y-103430030D01*
X156536920Y-103396554D01*
X156585556Y-103345674D01*
X156649323Y-103280317D01*
X156725265Y-103203409D01*
X156810424Y-103117876D01*
X156901845Y-103026646D01*
X156996569Y-102932644D01*
X157091641Y-102838798D01*
X157184103Y-102748033D01*
X157270999Y-102663277D01*
X157349372Y-102587456D01*
X157416265Y-102523497D01*
X157468722Y-102474326D01*
X157503785Y-102442869D01*
X157518434Y-102432049D01*
X157518434Y-102189859D01*
X157374760Y-102055798D01*
X157300448Y-101986216D01*
X157217483Y-101908119D01*
X157129102Y-101824594D01*
X157038541Y-101738730D01*
X156949036Y-101653615D01*
X156863823Y-101572336D01*
X156786139Y-101497981D01*
X156719220Y-101433637D01*
X156666303Y-101382394D01*
X156630623Y-101347337D01*
X156615416Y-101331556D01*
X156615106Y-101330996D01*
X156615106Y-101166750D01*
X156423807Y-101150796D01*
X155584485Y-100352714D01*
X154745164Y-99554632D01*
X154627852Y-99555219D01*
X154510539Y-99555806D01*
X154648253Y-99684725D01*
X154725063Y-99756876D01*
X154815304Y-99842060D01*
X154916575Y-99937979D01*
X155026476Y-100042334D01*
X155142604Y-100152826D01*
X155262558Y-100267156D01*
X155383936Y-100383025D01*
X155504338Y-100498135D01*
X155621362Y-100610186D01*
X155732606Y-100716881D01*
X155835669Y-100815920D01*
X155928150Y-100905003D01*
X156007647Y-100981834D01*
X156071758Y-101044112D01*
X156118083Y-101089538D01*
X156144219Y-101115815D01*
X156149233Y-101121574D01*
X156131791Y-101121970D01*
X156087135Y-101119792D01*
X156021340Y-101115417D01*
X155940483Y-101109225D01*
X155908183Y-101106567D01*
X155671921Y-101086772D01*
X155671921Y-101241758D01*
X155709520Y-101249760D01*
X155739255Y-101253840D01*
X155795203Y-101259575D01*
X155870236Y-101266299D01*
X155957225Y-101273352D01*
X155989421Y-101275793D01*
X156081861Y-101282992D01*
X156167707Y-101290258D01*
X156238847Y-101296864D01*
X156287169Y-101302084D01*
X156295939Y-101303261D01*
X156313942Y-101307702D01*
X156335017Y-101317313D01*
X156361525Y-101334140D01*
X156395828Y-101360225D01*
X156440289Y-101397613D01*
X156497271Y-101448346D01*
X156569136Y-101514470D01*
X156658246Y-101598026D01*
X156766964Y-101701060D01*
X156877275Y-101806167D01*
X156986441Y-101910738D01*
X157087540Y-102008351D01*
X157178115Y-102096578D01*
X157255708Y-102172988D01*
X157317862Y-102235151D01*
X157362118Y-102280637D01*
X157386018Y-102307017D01*
X157389574Y-102312643D01*
X157376681Y-102327443D01*
X157343060Y-102362039D01*
X157292082Y-102413071D01*
X157227120Y-102477183D01*
X157151548Y-102551016D01*
X157096493Y-102604411D01*
X156808237Y-102883173D01*
X156808237Y-102061210D01*
X156490737Y-102061210D01*
X156490737Y-103063842D01*
X156632206Y-103063842D01*
X156448960Y-103247658D01*
X156318971Y-103378052D01*
X156318971Y-103632000D01*
X156339477Y-103634429D01*
X156350902Y-103646724D01*
X156355880Y-103676396D01*
X156357044Y-103730955D01*
X156357052Y-103740618D01*
X156357052Y-103849237D01*
X156065584Y-103849237D01*
X156173237Y-103740618D01*
X156238687Y-103679346D01*
X156288829Y-103642699D01*
X156318971Y-103632000D01*
X156318971Y-103378052D01*
X156265715Y-103431474D01*
X156102502Y-103431474D01*
X156027414Y-103431985D01*
X155979645Y-103434328D01*
X155953098Y-103439711D01*
X155941679Y-103449344D01*
X155939289Y-103463871D01*
X155935780Y-103480027D01*
X155921711Y-103491969D01*
X155891769Y-103501139D01*
X155840642Y-103508982D01*
X155763017Y-103516942D01*
X155734585Y-103519496D01*
X155671921Y-103525026D01*
X155671921Y-101241758D01*
X155671921Y-101086772D01*
X155671921Y-100874763D01*
X155521526Y-100874763D01*
X155521526Y-100964859D01*
X155520083Y-101017555D01*
X155513116Y-101046188D01*
X155508970Y-101049691D01*
X155508970Y-101234234D01*
X155518442Y-101243946D01*
X155521366Y-101277588D01*
X155521526Y-101300294D01*
X155521526Y-101376079D01*
X155521526Y-101658694D01*
X155521526Y-103538519D01*
X155456413Y-103474938D01*
X155376062Y-103376186D01*
X155314089Y-103253968D01*
X155269646Y-103106213D01*
X155245065Y-102959401D01*
X155233596Y-102863316D01*
X155354421Y-102863316D01*
X155354421Y-102094632D01*
X155217345Y-102094632D01*
X155228776Y-101981835D01*
X155238425Y-101903025D01*
X155251214Y-101819057D01*
X155260348Y-101768776D01*
X155280488Y-101668513D01*
X155401007Y-101663603D01*
X155521526Y-101658694D01*
X155521526Y-101376079D01*
X155454684Y-101376079D01*
X155412810Y-101373869D01*
X155389536Y-101368350D01*
X155387842Y-101366126D01*
X155398560Y-101341387D01*
X155424563Y-101305243D01*
X155456623Y-101269010D01*
X155485511Y-101244001D01*
X155489267Y-101241773D01*
X155508970Y-101234234D01*
X155508970Y-101049691D01*
X155496674Y-101060081D01*
X155478762Y-101065689D01*
X155432279Y-101088578D01*
X155376400Y-101132540D01*
X155318960Y-101190011D01*
X155267793Y-101253427D01*
X155241143Y-101295082D01*
X155211972Y-101342534D01*
X155187467Y-101366859D01*
X155158572Y-101375405D01*
X155141362Y-101376062D01*
X155137184Y-101376063D01*
X155137184Y-102228316D01*
X155220737Y-102228316D01*
X155220737Y-102729632D01*
X155137184Y-102729632D01*
X155137184Y-102228316D01*
X155137184Y-101376063D01*
X155087052Y-101376079D01*
X155087052Y-101516726D01*
X155088617Y-101581436D01*
X155092785Y-101631870D01*
X155098773Y-101659906D01*
X155101197Y-101662943D01*
X155104918Y-101680727D01*
X155103394Y-101724008D01*
X155097075Y-101785349D01*
X155091240Y-101827263D01*
X155079778Y-101903263D01*
X155069430Y-101972770D01*
X155061796Y-102025003D01*
X155059627Y-102040322D01*
X155047232Y-102080347D01*
X155027808Y-102094632D01*
X155019898Y-102098975D01*
X155013863Y-102114510D01*
X155009466Y-102144999D01*
X155006469Y-102194200D01*
X155004635Y-102265874D01*
X155003725Y-102363781D01*
X155003500Y-102478974D01*
X155003628Y-102601914D01*
X155004230Y-102695441D01*
X155005639Y-102763560D01*
X155008181Y-102810281D01*
X155012189Y-102839609D01*
X155017991Y-102855551D01*
X155025917Y-102862115D01*
X155035133Y-102863316D01*
X155064385Y-102873540D01*
X155081031Y-102907030D01*
X155086968Y-102968012D01*
X155087052Y-102978983D01*
X155097706Y-103082254D01*
X155127033Y-103199547D01*
X155171084Y-103320285D01*
X155225911Y-103433889D01*
X155287564Y-103529781D01*
X155297332Y-103542201D01*
X155329115Y-103582682D01*
X155341844Y-103606655D01*
X155337729Y-103623396D01*
X155320750Y-103640581D01*
X155287492Y-103691336D01*
X155274725Y-103757393D01*
X155281365Y-103828526D01*
X155306327Y-103894514D01*
X155348529Y-103945132D01*
X155353434Y-103948797D01*
X155432211Y-103986672D01*
X155513754Y-103993719D01*
X155591487Y-103970715D01*
X155658835Y-103918437D01*
X155664396Y-103912044D01*
X155690813Y-103874927D01*
X155702447Y-103837267D01*
X155703287Y-103784324D01*
X155702542Y-103771098D01*
X155700641Y-103719297D01*
X155704996Y-103692614D01*
X155718138Y-103682955D01*
X155730408Y-103681963D01*
X155766002Y-103679939D01*
X155819533Y-103674914D01*
X155851559Y-103671303D01*
X155902427Y-103666066D01*
X155928468Y-103668244D01*
X155937986Y-103680875D01*
X155939289Y-103703375D01*
X155934986Y-103716718D01*
X155921057Y-103738244D01*
X155895977Y-103769548D01*
X155858219Y-103812224D01*
X155806256Y-103867868D01*
X155738562Y-103938075D01*
X155653611Y-104024440D01*
X155549875Y-104128558D01*
X155425828Y-104252025D01*
X155279944Y-104396436D01*
X155209449Y-104466031D01*
X154479610Y-105186079D01*
X154595337Y-105185256D01*
G36*
X162506526Y-104684763D02*
X162506526Y-100005816D01*
X161353500Y-100005816D01*
X161353500Y-104684763D01*
X162506526Y-104684763D01*
X162506526Y-104684763D01*
G37*
X162506526Y-104684763D02*
X162506526Y-100005816D01*
X161353500Y-100005816D01*
X161353500Y-104684763D01*
X162506526Y-104684763D01*
G04 #@! TD*
M02*
