G04 #@! TF.GenerationSoftware,KiCad,Pcbnew,6.0.0-rc1-unknown-0cca1c6~65~ubuntu16.04.1*
G04 #@! TF.CreationDate,2018-08-03T10:42:42+02:00*
G04 #@! TF.ProjectId,ArduinoSpecAn,41726475696E6F53706563416E2E6B69,1.0*
G04 #@! TF.SameCoordinates,Original*
G04 #@! TF.FileFunction,Soldermask,Top*
G04 #@! TF.FilePolarity,Negative*
%FSLAX46Y46*%
G04 Gerber Fmt 4.6, Leading zero omitted, Abs format (unit mm)*
G04 Created by KiCad (PCBNEW 6.0.0-rc1-unknown-0cca1c6~65~ubuntu16.04.1) date Fri Aug  3 10:42:42 2018*
%MOMM*%
%LPD*%
G01*
G04 APERTURE LIST*
%ADD10R,1.900000X1.545000*%
%ADD11R,1.545000X1.900000*%
%ADD12R,4.600000X1.800000*%
%ADD13R,4.600000X1.600000*%
%ADD14R,1.200000X1.300000*%
%ADD15R,1.543000X0.908000*%
%ADD16R,2.150000X0.850000*%
%ADD17R,1.050000X1.460000*%
%ADD18R,1.800000X2.000000*%
%ADD19R,2.000000X2.000000*%
%ADD20O,2.000000X2.000000*%
%ADD21R,1.370000X1.900000*%
%ADD22C,2.740000*%
%ADD23C,0.203200*%
G04 APERTURE END LIST*
D10*
G04 #@! TO.C,C15*
X133731000Y-122708500D03*
X133731000Y-120623500D03*
G04 #@! TD*
D11*
G04 #@! TO.C,C14*
X140689500Y-113538000D03*
X142774500Y-113538000D03*
G04 #@! TD*
D10*
G04 #@! TO.C,C13*
X156972000Y-93191500D03*
X156972000Y-95276500D03*
G04 #@! TD*
D11*
G04 #@! TO.C,C12*
X158776500Y-106680000D03*
X156691500Y-106680000D03*
G04 #@! TD*
G04 #@! TO.C,C11*
X156691500Y-109474000D03*
X158776500Y-109474000D03*
G04 #@! TD*
G04 #@! TO.C,C10*
X137186500Y-101092000D03*
X135101500Y-101092000D03*
G04 #@! TD*
G04 #@! TO.C,C9*
X135101500Y-103632000D03*
X137186500Y-103632000D03*
G04 #@! TD*
G04 #@! TO.C,C8*
X137186500Y-106172000D03*
X135101500Y-106172000D03*
G04 #@! TD*
G04 #@! TO.C,C7*
X135101500Y-108712000D03*
X137186500Y-108712000D03*
G04 #@! TD*
G04 #@! TO.C,C6*
X159284500Y-99314000D03*
X157199500Y-99314000D03*
G04 #@! TD*
G04 #@! TO.C,C5*
X156691500Y-128270000D03*
X158776500Y-128270000D03*
G04 #@! TD*
G04 #@! TO.C,C4*
X156691500Y-123190000D03*
X158776500Y-123190000D03*
G04 #@! TD*
G04 #@! TO.C,C3*
X135101500Y-98552000D03*
X137186500Y-98552000D03*
G04 #@! TD*
D10*
G04 #@! TO.C,C2*
X136525000Y-122708500D03*
X136525000Y-120623500D03*
G04 #@! TD*
D11*
G04 #@! TO.C,C1*
X156691500Y-118110000D03*
X158776500Y-118110000D03*
G04 #@! TD*
G04 #@! TO.C,L2*
X131037500Y-103632000D03*
X133122500Y-103632000D03*
G04 #@! TD*
G04 #@! TO.C,L1*
X133122500Y-106172000D03*
X131037500Y-106172000D03*
G04 #@! TD*
G04 #@! TO.C,L3*
X131037500Y-101092000D03*
X133122500Y-101092000D03*
G04 #@! TD*
G04 #@! TO.C,R13*
X133122500Y-98552000D03*
X131037500Y-98552000D03*
G04 #@! TD*
D10*
G04 #@! TO.C,R11*
X129413000Y-125957500D03*
X129413000Y-128042500D03*
G04 #@! TD*
D11*
G04 #@! TO.C,R10*
X133122500Y-108712000D03*
X131037500Y-108712000D03*
G04 #@! TD*
G04 #@! TO.C,R9*
X140689500Y-109474000D03*
X142774500Y-109474000D03*
G04 #@! TD*
D10*
G04 #@! TO.C,R8*
X154178000Y-97763500D03*
X154178000Y-99848500D03*
G04 #@! TD*
G04 #@! TO.C,R6*
X149098000Y-99848500D03*
X149098000Y-97763500D03*
G04 #@! TD*
G04 #@! TO.C,R5*
X150368000Y-93191500D03*
X150368000Y-95276500D03*
G04 #@! TD*
G04 #@! TO.C,R4*
X146558000Y-99848500D03*
X146558000Y-97763500D03*
G04 #@! TD*
G04 #@! TO.C,R12*
X132207000Y-125957500D03*
X132207000Y-128042500D03*
G04 #@! TD*
G04 #@! TO.C,R14*
X132334000Y-112977000D03*
X132334000Y-115062000D03*
G04 #@! TD*
D11*
G04 #@! TO.C,R2*
X156691500Y-120650000D03*
X158776500Y-120650000D03*
G04 #@! TD*
G04 #@! TO.C,R1*
X158776500Y-103886000D03*
X156691500Y-103886000D03*
G04 #@! TD*
D10*
G04 #@! TO.C,R15*
X128524000Y-115062000D03*
X128524000Y-112977000D03*
G04 #@! TD*
D11*
G04 #@! TO.C,R3*
X158776500Y-125730000D03*
X156691500Y-125730000D03*
G04 #@! TD*
D10*
G04 #@! TO.C,R7*
X151638000Y-97763500D03*
X151638000Y-99848500D03*
G04 #@! TD*
D12*
G04 #@! TO.C,J1*
X165676000Y-123190000D03*
D13*
X165676000Y-125820000D03*
X165676000Y-120560000D03*
G04 #@! TD*
D12*
G04 #@! TO.C,J2*
X165676000Y-99314000D03*
D13*
X165676000Y-101944000D03*
X165676000Y-96684000D03*
G04 #@! TD*
D14*
G04 #@! TO.C,Q1*
X147066000Y-93234000D03*
X148016000Y-95234000D03*
X146116000Y-95234000D03*
G04 #@! TD*
G04 #@! TO.C,Q2*
X153670000Y-93234000D03*
X154620000Y-95234000D03*
X152720000Y-95234000D03*
G04 #@! TD*
D15*
G04 #@! TO.C,U1*
X149987000Y-123571000D03*
X149987000Y-124841000D03*
X149987000Y-126111000D03*
X149987000Y-127381000D03*
X143637000Y-127381000D03*
X143637000Y-126111000D03*
X143637000Y-124841000D03*
X143637000Y-123571000D03*
G04 #@! TD*
D16*
G04 #@! TO.C,U2*
X152952000Y-115985000D03*
X152952000Y-115335000D03*
X152952000Y-114685000D03*
X152952000Y-114035000D03*
X152952000Y-113385000D03*
X152952000Y-112735000D03*
X152952000Y-112085000D03*
X152952000Y-111435000D03*
X152952000Y-110785000D03*
X152952000Y-110135000D03*
X152952000Y-109485000D03*
X152952000Y-108835000D03*
X152952000Y-108185000D03*
X152952000Y-107535000D03*
X145752000Y-107535000D03*
X145752000Y-108185000D03*
X145752000Y-108835000D03*
X145752000Y-109485000D03*
X145752000Y-110135000D03*
X145752000Y-110785000D03*
X145752000Y-111435000D03*
X145752000Y-112085000D03*
X145752000Y-112735000D03*
X145752000Y-113385000D03*
X145752000Y-114035000D03*
X145752000Y-114685000D03*
X145752000Y-115335000D03*
X145752000Y-115985000D03*
G04 #@! TD*
D17*
G04 #@! TO.C,U3*
X135067000Y-127338000D03*
X136017000Y-127338000D03*
X136967000Y-127338000D03*
X136967000Y-125138000D03*
X135067000Y-125138000D03*
G04 #@! TD*
D18*
G04 #@! TO.C,X1*
X158834000Y-114788000D03*
X158834000Y-112288000D03*
X156634000Y-112288000D03*
X156634000Y-114788000D03*
G04 #@! TD*
D19*
G04 #@! TO.C,A1*
X124714000Y-125476000D03*
D20*
X109474000Y-92456000D03*
X124714000Y-122936000D03*
X109474000Y-94996000D03*
X124714000Y-120396000D03*
X109474000Y-97536000D03*
X124714000Y-117856000D03*
X109474000Y-100076000D03*
X124714000Y-115316000D03*
X109474000Y-102616000D03*
X124714000Y-112776000D03*
X109474000Y-105156000D03*
X124714000Y-110236000D03*
X109474000Y-107696000D03*
X124714000Y-107696000D03*
X109474000Y-110236000D03*
X124714000Y-105156000D03*
X109474000Y-112776000D03*
X124714000Y-102616000D03*
X109474000Y-115316000D03*
X124714000Y-100076000D03*
X109474000Y-117856000D03*
X124714000Y-97536000D03*
X109474000Y-120396000D03*
X124714000Y-94996000D03*
X109474000Y-122936000D03*
X124714000Y-92456000D03*
X109474000Y-125476000D03*
X124714000Y-89916000D03*
X109474000Y-89916000D03*
G04 #@! TD*
D21*
G04 #@! TO.C,D1*
X113406000Y-131064000D03*
X115316000Y-131064000D03*
G04 #@! TD*
G04 #@! TO.C,D2*
X115316000Y-134112000D03*
X113406000Y-134112000D03*
G04 #@! TD*
D11*
G04 #@! TO.C,R16*
X109167000Y-131064000D03*
X111252000Y-131064000D03*
G04 #@! TD*
G04 #@! TO.C,R17*
X111278500Y-134112000D03*
X109193500Y-134112000D03*
G04 #@! TD*
D22*
G04 #@! TO.C,Pot1*
X134112000Y-93980000D03*
X139112000Y-91480000D03*
X134112000Y-88980000D03*
G04 #@! TD*
D23*
G36*
X154965400Y-122834400D02*
X152120600Y-122834400D01*
X152120600Y-121158000D01*
X152112866Y-121119119D01*
X152090842Y-121086158D01*
X152057881Y-121064134D01*
X152019000Y-121056400D01*
X141478000Y-121056400D01*
X141439119Y-121064134D01*
X141406158Y-121086158D01*
X141384134Y-121119119D01*
X141376400Y-121158000D01*
X141376400Y-122707400D01*
X138531600Y-122707400D01*
X138531600Y-118084600D01*
X154965400Y-118084600D01*
X154965400Y-122834400D01*
X154965400Y-122834400D01*
G37*
X154965400Y-122834400D02*
X152120600Y-122834400D01*
X152120600Y-121158000D01*
X152112866Y-121119119D01*
X152090842Y-121086158D01*
X152057881Y-121064134D01*
X152019000Y-121056400D01*
X141478000Y-121056400D01*
X141439119Y-121064134D01*
X141406158Y-121086158D01*
X141384134Y-121119119D01*
X141376400Y-121158000D01*
X141376400Y-122707400D01*
X138531600Y-122707400D01*
X138531600Y-118084600D01*
X154965400Y-118084600D01*
X154965400Y-122834400D01*
G36*
X141376400Y-126390400D02*
X138531600Y-126390400D01*
X138531600Y-124434600D01*
X141376400Y-124434600D01*
X141376400Y-126390400D01*
X141376400Y-126390400D01*
G37*
X141376400Y-126390400D02*
X138531600Y-126390400D01*
X138531600Y-124434600D01*
X141376400Y-124434600D01*
X141376400Y-126390400D01*
G36*
X154965400Y-132740400D02*
X138531600Y-132740400D01*
X138531600Y-128244600D01*
X141376400Y-128244600D01*
X141376400Y-130175000D01*
X141384134Y-130213881D01*
X141406158Y-130246842D01*
X141439119Y-130268866D01*
X141478000Y-130276600D01*
X152019000Y-130276600D01*
X152057881Y-130268866D01*
X152090842Y-130246842D01*
X152112866Y-130213881D01*
X152120600Y-130175000D01*
X152120600Y-126974600D01*
X154965400Y-126974600D01*
X154965400Y-132740400D01*
X154965400Y-132740400D01*
G37*
X154965400Y-132740400D02*
X138531600Y-132740400D01*
X138531600Y-128244600D01*
X141376400Y-128244600D01*
X141376400Y-130175000D01*
X141384134Y-130213881D01*
X141406158Y-130246842D01*
X141439119Y-130268866D01*
X141478000Y-130276600D01*
X152019000Y-130276600D01*
X152057881Y-130268866D01*
X152090842Y-130246842D01*
X152112866Y-130213881D01*
X152120600Y-130175000D01*
X152120600Y-126974600D01*
X154965400Y-126974600D01*
X154965400Y-132740400D01*
G36*
X154965400Y-125374400D02*
X152120600Y-125374400D01*
X152120600Y-124307600D01*
X154965400Y-124307600D01*
X154965400Y-125374400D01*
X154965400Y-125374400D01*
G37*
X154965400Y-125374400D02*
X152120600Y-125374400D01*
X152120600Y-124307600D01*
X154965400Y-124307600D01*
X154965400Y-125374400D01*
M02*
