G04 #@! TF.GenerationSoftware,KiCad,Pcbnew,6.0.0-rc1-unknown-0cca1c6~65~ubuntu16.04.1*
G04 #@! TF.CreationDate,2018-08-03T10:42:42+02:00*
G04 #@! TF.ProjectId,ArduinoSpecAn,41726475696E6F53706563416E2E6B69,1.0*
G04 #@! TF.SameCoordinates,Original*
G04 #@! TF.FileFunction,Legend,Top*
G04 #@! TF.FilePolarity,Positive*
%FSLAX46Y46*%
G04 Gerber Fmt 4.6, Leading zero omitted, Abs format (unit mm)*
G04 Created by KiCad (PCBNEW 6.0.0-rc1-unknown-0cca1c6~65~ubuntu16.04.1) date Fri Aug  3 10:42:42 2018*
%MOMM*%
%LPD*%
G01*
G04 APERTURE LIST*
%ADD10C,0.150000*%
%ADD11C,0.300000*%
%ADD12C,0.120000*%
G04 APERTURE END LIST*
D10*
X130048000Y-100838000D02*
X129794000Y-100838000D01*
X130048000Y-103886000D02*
X128270000Y-103886000D01*
X130048000Y-106172000D02*
X129540000Y-106172000D01*
X142748000Y-122682000D02*
G75*
G03X142748000Y-122682000I-254000J0D01*
G01*
X154940000Y-117094000D02*
G75*
G03X154940000Y-117094000I-254000J0D01*
G01*
X116618000Y-131230666D02*
X117094190Y-131230666D01*
X116522761Y-131516380D02*
X116856095Y-130516380D01*
X117189428Y-131516380D01*
X117951333Y-131468761D02*
X117856095Y-131516380D01*
X117665619Y-131516380D01*
X117570380Y-131468761D01*
X117522761Y-131421142D01*
X117475142Y-131325904D01*
X117475142Y-131040190D01*
X117522761Y-130944952D01*
X117570380Y-130897333D01*
X117665619Y-130849714D01*
X117856095Y-130849714D01*
X117951333Y-130897333D01*
X118237047Y-130849714D02*
X118618000Y-130849714D01*
X118379904Y-130516380D02*
X118379904Y-131373523D01*
X118427523Y-131468761D01*
X118522761Y-131516380D01*
X118618000Y-131516380D01*
X118951333Y-131516380D02*
X118951333Y-130849714D01*
X118951333Y-130516380D02*
X118903714Y-130564000D01*
X118951333Y-130611619D01*
X118998952Y-130564000D01*
X118951333Y-130516380D01*
X118951333Y-130611619D01*
X119332285Y-130849714D02*
X119570380Y-131516380D01*
X119808476Y-130849714D01*
X120570380Y-131468761D02*
X120475142Y-131516380D01*
X120284666Y-131516380D01*
X120189428Y-131468761D01*
X120141809Y-131373523D01*
X120141809Y-130992571D01*
X120189428Y-130897333D01*
X120284666Y-130849714D01*
X120475142Y-130849714D01*
X120570380Y-130897333D01*
X120618000Y-130992571D01*
X120618000Y-131087809D01*
X120141809Y-131183047D01*
X117070571Y-134469142D02*
X117022952Y-134516761D01*
X116880095Y-134564380D01*
X116784857Y-134564380D01*
X116642000Y-134516761D01*
X116546761Y-134421523D01*
X116499142Y-134326285D01*
X116451523Y-134135809D01*
X116451523Y-133992952D01*
X116499142Y-133802476D01*
X116546761Y-133707238D01*
X116642000Y-133612000D01*
X116784857Y-133564380D01*
X116880095Y-133564380D01*
X117022952Y-133612000D01*
X117070571Y-133659619D01*
X117642000Y-134564380D02*
X117546761Y-134516761D01*
X117499142Y-134469142D01*
X117451523Y-134373904D01*
X117451523Y-134088190D01*
X117499142Y-133992952D01*
X117546761Y-133945333D01*
X117642000Y-133897714D01*
X117784857Y-133897714D01*
X117880095Y-133945333D01*
X117927714Y-133992952D01*
X117975333Y-134088190D01*
X117975333Y-134373904D01*
X117927714Y-134469142D01*
X117880095Y-134516761D01*
X117784857Y-134564380D01*
X117642000Y-134564380D01*
X118403904Y-133897714D02*
X118403904Y-134564380D01*
X118403904Y-133992952D02*
X118451523Y-133945333D01*
X118546761Y-133897714D01*
X118689619Y-133897714D01*
X118784857Y-133945333D01*
X118832476Y-134040571D01*
X118832476Y-134564380D01*
X119308666Y-133897714D02*
X119308666Y-134564380D01*
X119308666Y-133992952D02*
X119356285Y-133945333D01*
X119451523Y-133897714D01*
X119594380Y-133897714D01*
X119689619Y-133945333D01*
X119737238Y-134040571D01*
X119737238Y-134564380D01*
X120594380Y-134516761D02*
X120499142Y-134564380D01*
X120308666Y-134564380D01*
X120213428Y-134516761D01*
X120165809Y-134421523D01*
X120165809Y-134040571D01*
X120213428Y-133945333D01*
X120308666Y-133897714D01*
X120499142Y-133897714D01*
X120594380Y-133945333D01*
X120642000Y-134040571D01*
X120642000Y-134135809D01*
X120165809Y-134231047D01*
X121499142Y-134516761D02*
X121403904Y-134564380D01*
X121213428Y-134564380D01*
X121118190Y-134516761D01*
X121070571Y-134469142D01*
X121022952Y-134373904D01*
X121022952Y-134088190D01*
X121070571Y-133992952D01*
X121118190Y-133945333D01*
X121213428Y-133897714D01*
X121403904Y-133897714D01*
X121499142Y-133945333D01*
X121784857Y-133897714D02*
X122165809Y-133897714D01*
X121927714Y-133564380D02*
X121927714Y-134421523D01*
X121975333Y-134516761D01*
X122070571Y-134564380D01*
X122165809Y-134564380D01*
X122880095Y-134516761D02*
X122784857Y-134564380D01*
X122594380Y-134564380D01*
X122499142Y-134516761D01*
X122451523Y-134421523D01*
X122451523Y-134040571D01*
X122499142Y-133945333D01*
X122594380Y-133897714D01*
X122784857Y-133897714D01*
X122880095Y-133945333D01*
X122927714Y-134040571D01*
X122927714Y-134135809D01*
X122451523Y-134231047D01*
X123784857Y-134564380D02*
X123784857Y-133564380D01*
X123784857Y-134516761D02*
X123689619Y-134564380D01*
X123499142Y-134564380D01*
X123403904Y-134516761D01*
X123356285Y-134469142D01*
X123308666Y-134373904D01*
X123308666Y-134088190D01*
X123356285Y-133992952D01*
X123403904Y-133945333D01*
X123499142Y-133897714D01*
X123689619Y-133897714D01*
X123784857Y-133945333D01*
D11*
X127081142Y-135298571D02*
X127081142Y-133798571D01*
X127938285Y-135298571D01*
X127938285Y-133798571D01*
X129224000Y-135227142D02*
X129081142Y-135298571D01*
X128795428Y-135298571D01*
X128652571Y-135227142D01*
X128581142Y-135084285D01*
X128581142Y-134512857D01*
X128652571Y-134370000D01*
X128795428Y-134298571D01*
X129081142Y-134298571D01*
X129224000Y-134370000D01*
X129295428Y-134512857D01*
X129295428Y-134655714D01*
X128581142Y-134798571D01*
X129724000Y-134298571D02*
X130295428Y-134298571D01*
X129938285Y-133798571D02*
X129938285Y-135084285D01*
X130009714Y-135227142D01*
X130152571Y-135298571D01*
X130295428Y-135298571D01*
X130652571Y-134298571D02*
X130938285Y-135298571D01*
X131224000Y-134584285D01*
X131509714Y-135298571D01*
X131795428Y-134298571D01*
X132581142Y-135298571D02*
X132438285Y-135227142D01*
X132366857Y-135155714D01*
X132295428Y-135012857D01*
X132295428Y-134584285D01*
X132366857Y-134441428D01*
X132438285Y-134370000D01*
X132581142Y-134298571D01*
X132795428Y-134298571D01*
X132938285Y-134370000D01*
X133009714Y-134441428D01*
X133081142Y-134584285D01*
X133081142Y-135012857D01*
X133009714Y-135155714D01*
X132938285Y-135227142D01*
X132795428Y-135298571D01*
X132581142Y-135298571D01*
X133724000Y-135298571D02*
X133724000Y-134298571D01*
X133724000Y-134584285D02*
X133795428Y-134441428D01*
X133866857Y-134370000D01*
X134009714Y-134298571D01*
X134152571Y-134298571D01*
X134652571Y-135298571D02*
X134652571Y-133798571D01*
X134795428Y-134727142D02*
X135224000Y-135298571D01*
X135224000Y-134298571D02*
X134652571Y-134870000D01*
X136938285Y-134870000D02*
X137652571Y-134870000D01*
X136795428Y-135298571D02*
X137295428Y-133798571D01*
X137795428Y-135298571D01*
X138295428Y-134298571D02*
X138295428Y-135298571D01*
X138295428Y-134441428D02*
X138366857Y-134370000D01*
X138509714Y-134298571D01*
X138724000Y-134298571D01*
X138866857Y-134370000D01*
X138938285Y-134512857D01*
X138938285Y-135298571D01*
X140295428Y-135298571D02*
X140295428Y-134512857D01*
X140224000Y-134370000D01*
X140081142Y-134298571D01*
X139795428Y-134298571D01*
X139652571Y-134370000D01*
X140295428Y-135227142D02*
X140152571Y-135298571D01*
X139795428Y-135298571D01*
X139652571Y-135227142D01*
X139581142Y-135084285D01*
X139581142Y-134941428D01*
X139652571Y-134798571D01*
X139795428Y-134727142D01*
X140152571Y-134727142D01*
X140295428Y-134655714D01*
X141224000Y-135298571D02*
X141081142Y-135227142D01*
X141009714Y-135084285D01*
X141009714Y-133798571D01*
X141652571Y-134298571D02*
X142009714Y-135298571D01*
X142366857Y-134298571D02*
X142009714Y-135298571D01*
X141866857Y-135655714D01*
X141795428Y-135727142D01*
X141652571Y-135798571D01*
X142795428Y-134298571D02*
X143581142Y-134298571D01*
X142795428Y-135298571D01*
X143581142Y-135298571D01*
X144724000Y-135227142D02*
X144581142Y-135298571D01*
X144295428Y-135298571D01*
X144152571Y-135227142D01*
X144081142Y-135084285D01*
X144081142Y-134512857D01*
X144152571Y-134370000D01*
X144295428Y-134298571D01*
X144581142Y-134298571D01*
X144724000Y-134370000D01*
X144795428Y-134512857D01*
X144795428Y-134655714D01*
X144081142Y-134798571D01*
X145438285Y-135298571D02*
X145438285Y-134298571D01*
X145438285Y-134584285D02*
X145509714Y-134441428D01*
X145581142Y-134370000D01*
X145724000Y-134298571D01*
X145866857Y-134298571D01*
X148366857Y-135298571D02*
X147866857Y-134584285D01*
X147509714Y-135298571D02*
X147509714Y-133798571D01*
X148081142Y-133798571D01*
X148224000Y-133870000D01*
X148295428Y-133941428D01*
X148366857Y-134084285D01*
X148366857Y-134298571D01*
X148295428Y-134441428D01*
X148224000Y-134512857D01*
X148081142Y-134584285D01*
X147509714Y-134584285D01*
X149581142Y-135227142D02*
X149438285Y-135298571D01*
X149152571Y-135298571D01*
X149009714Y-135227142D01*
X148938285Y-135084285D01*
X148938285Y-134512857D01*
X149009714Y-134370000D01*
X149152571Y-134298571D01*
X149438285Y-134298571D01*
X149581142Y-134370000D01*
X149652571Y-134512857D01*
X149652571Y-134655714D01*
X148938285Y-134798571D01*
X150152571Y-134298571D02*
X150509714Y-135298571D01*
X150866857Y-134298571D01*
X151438285Y-135155714D02*
X151509714Y-135227142D01*
X151438285Y-135298571D01*
X151366857Y-135227142D01*
X151438285Y-135155714D01*
X151438285Y-135298571D01*
X153152571Y-133798571D02*
X154081142Y-133798571D01*
X153581142Y-134370000D01*
X153795428Y-134370000D01*
X153938285Y-134441428D01*
X154009714Y-134512857D01*
X154081142Y-134655714D01*
X154081142Y-135012857D01*
X154009714Y-135155714D01*
X153938285Y-135227142D01*
X153795428Y-135298571D01*
X153366857Y-135298571D01*
X153224000Y-135227142D01*
X153152571Y-135155714D01*
X154724000Y-135298571D02*
X154724000Y-133798571D01*
X154724000Y-134370000D02*
X154866857Y-134298571D01*
X155152571Y-134298571D01*
X155295428Y-134370000D01*
X155366857Y-134441428D01*
X155438285Y-134584285D01*
X155438285Y-135012857D01*
X155366857Y-135155714D01*
X155295428Y-135227142D01*
X155152571Y-135298571D01*
X154866857Y-135298571D01*
X154724000Y-135227142D01*
X166413571Y-118661571D02*
X164913571Y-118661571D01*
X165413571Y-117947285D02*
X166413571Y-117947285D01*
X165556428Y-117947285D02*
X165485000Y-117875857D01*
X165413571Y-117733000D01*
X165413571Y-117518714D01*
X165485000Y-117375857D01*
X165627857Y-117304428D01*
X166413571Y-117304428D01*
X164922318Y-94473704D02*
X164920323Y-94187996D01*
X164990752Y-94044644D01*
X165132609Y-93900793D01*
X165417817Y-93827372D01*
X165917805Y-93823881D01*
X166204011Y-93893313D01*
X166347862Y-94035169D01*
X166420286Y-94177524D01*
X166422281Y-94463232D01*
X166351851Y-94606584D01*
X166209995Y-94750435D01*
X165924786Y-94823857D01*
X165424799Y-94827347D01*
X165138593Y-94757915D01*
X164994742Y-94616059D01*
X164922318Y-94473704D01*
X165408841Y-92541689D02*
X166408817Y-92534707D01*
X165413329Y-93184530D02*
X166199025Y-93179045D01*
X166341380Y-93106621D01*
X166411809Y-92963268D01*
X166410313Y-92748988D01*
X166337889Y-92606633D01*
X166265963Y-92535705D01*
X165405351Y-92041701D02*
X165401362Y-91470286D01*
X164903867Y-91830911D02*
X166189550Y-91821935D01*
X166331905Y-91749511D01*
X166402335Y-91606159D01*
X166401337Y-91463305D01*
D12*
G04 #@! TO.C,C15*
X133021000Y-121816000D02*
X133021000Y-121516000D01*
X134441000Y-121816000D02*
X134441000Y-121516000D01*
G04 #@! TO.C,C14*
X141882000Y-112828000D02*
X141582000Y-112828000D01*
X141882000Y-114248000D02*
X141582000Y-114248000D01*
G04 #@! TO.C,C13*
X157682000Y-94084000D02*
X157682000Y-94384000D01*
X156262000Y-94084000D02*
X156262000Y-94384000D01*
G04 #@! TO.C,C12*
X157584000Y-107390000D02*
X157884000Y-107390000D01*
X157584000Y-105970000D02*
X157884000Y-105970000D01*
G04 #@! TO.C,C11*
X157584000Y-108764000D02*
X157884000Y-108764000D01*
X157584000Y-110184000D02*
X157884000Y-110184000D01*
G04 #@! TO.C,C10*
X135994000Y-101802000D02*
X136294000Y-101802000D01*
X135994000Y-100382000D02*
X136294000Y-100382000D01*
G04 #@! TO.C,C9*
X135994000Y-102922000D02*
X136294000Y-102922000D01*
X135994000Y-104342000D02*
X136294000Y-104342000D01*
G04 #@! TO.C,C8*
X135994000Y-106882000D02*
X136294000Y-106882000D01*
X135994000Y-105462000D02*
X136294000Y-105462000D01*
G04 #@! TO.C,C7*
X135994000Y-108002000D02*
X136294000Y-108002000D01*
X135994000Y-109422000D02*
X136294000Y-109422000D01*
G04 #@! TO.C,C6*
X158092000Y-100024000D02*
X158392000Y-100024000D01*
X158092000Y-98604000D02*
X158392000Y-98604000D01*
G04 #@! TO.C,C5*
X157584000Y-127560000D02*
X157884000Y-127560000D01*
X157584000Y-128980000D02*
X157884000Y-128980000D01*
G04 #@! TO.C,C4*
X157884000Y-122480000D02*
X157584000Y-122480000D01*
X157884000Y-123900000D02*
X157584000Y-123900000D01*
G04 #@! TO.C,C3*
X135994000Y-97842000D02*
X136294000Y-97842000D01*
X135994000Y-99262000D02*
X136294000Y-99262000D01*
G04 #@! TO.C,C2*
X135815000Y-121516000D02*
X135815000Y-121816000D01*
X137235000Y-121516000D02*
X137235000Y-121816000D01*
G04 #@! TO.C,C1*
X157584000Y-117400000D02*
X157884000Y-117400000D01*
X157584000Y-118820000D02*
X157884000Y-118820000D01*
G04 #@! TO.C,L2*
X131930000Y-102922000D02*
X132230000Y-102922000D01*
X131930000Y-104342000D02*
X132230000Y-104342000D01*
G04 #@! TO.C,L1*
X131930000Y-106882000D02*
X132230000Y-106882000D01*
X131930000Y-105462000D02*
X132230000Y-105462000D01*
G04 #@! TO.C,L3*
X131930000Y-100382000D02*
X132230000Y-100382000D01*
X131930000Y-101802000D02*
X132230000Y-101802000D01*
G04 #@! TO.C,R13*
X132230000Y-99262000D02*
X131930000Y-99262000D01*
X132230000Y-97842000D02*
X131930000Y-97842000D01*
G04 #@! TO.C,R11*
X130123000Y-127150000D02*
X130123000Y-126850000D01*
X128703000Y-127150000D02*
X128703000Y-126850000D01*
G04 #@! TO.C,R10*
X132230000Y-109422000D02*
X131930000Y-109422000D01*
X132230000Y-108002000D02*
X131930000Y-108002000D01*
G04 #@! TO.C,R9*
X141882000Y-108764000D02*
X141582000Y-108764000D01*
X141882000Y-110184000D02*
X141582000Y-110184000D01*
G04 #@! TO.C,R8*
X154888000Y-98656000D02*
X154888000Y-98956000D01*
X153468000Y-98656000D02*
X153468000Y-98956000D01*
G04 #@! TO.C,R6*
X148388000Y-98656000D02*
X148388000Y-98956000D01*
X149808000Y-98656000D02*
X149808000Y-98956000D01*
G04 #@! TO.C,R5*
X151078000Y-94084000D02*
X151078000Y-94384000D01*
X149658000Y-94084000D02*
X149658000Y-94384000D01*
G04 #@! TO.C,R4*
X145848000Y-98656000D02*
X145848000Y-98956000D01*
X147268000Y-98656000D02*
X147268000Y-98956000D01*
G04 #@! TO.C,R12*
X132917000Y-126850000D02*
X132917000Y-127150000D01*
X131497000Y-126850000D02*
X131497000Y-127150000D01*
G04 #@! TO.C,R14*
X133044000Y-114169500D02*
X133044000Y-113869500D01*
X131624000Y-114169500D02*
X131624000Y-113869500D01*
G04 #@! TO.C,R2*
X157584000Y-119940000D02*
X157884000Y-119940000D01*
X157584000Y-121360000D02*
X157884000Y-121360000D01*
G04 #@! TO.C,R1*
X157584000Y-104596000D02*
X157884000Y-104596000D01*
X157584000Y-103176000D02*
X157884000Y-103176000D01*
G04 #@! TO.C,R15*
X127814000Y-114169500D02*
X127814000Y-113869500D01*
X129234000Y-114169500D02*
X129234000Y-113869500D01*
G04 #@! TO.C,R3*
X157584000Y-126440000D02*
X157884000Y-126440000D01*
X157584000Y-125020000D02*
X157884000Y-125020000D01*
G04 #@! TO.C,R7*
X152348000Y-98656000D02*
X152348000Y-98956000D01*
X150928000Y-98656000D02*
X150928000Y-98956000D01*
D10*
G04 #@! TO.C,U1*
X149098000Y-122936000D02*
X149098000Y-128016000D01*
X149098000Y-128016000D02*
X144526000Y-128016000D01*
X144526000Y-128016000D02*
X144526000Y-122936000D01*
X144526000Y-122936000D02*
X149098000Y-122936000D01*
X147574000Y-122936000D02*
X147574000Y-123444000D01*
X147574000Y-123444000D02*
X146304000Y-123444000D01*
X146304000Y-123444000D02*
X146304000Y-122936000D01*
G04 #@! TO.C,U2*
X152227000Y-117085000D02*
X152227000Y-116435000D01*
X146477000Y-117085000D02*
X146477000Y-116435000D01*
X146477000Y-106435000D02*
X146477000Y-107085000D01*
X152227000Y-106435000D02*
X152227000Y-107085000D01*
X152227000Y-117085000D02*
X146477000Y-117085000D01*
X152227000Y-106435000D02*
X146477000Y-106435000D01*
X152227000Y-116435000D02*
X153827000Y-116435000D01*
G04 #@! TO.C,U3*
X134417000Y-126538000D02*
G75*
G03X134417000Y-126538000I-100000J0D01*
G01*
X134567000Y-125988000D02*
X134567000Y-126488000D01*
X137467000Y-125988000D02*
X134567000Y-125988000D01*
X137467000Y-126488000D02*
X137467000Y-125988000D01*
X134567000Y-126488000D02*
X137467000Y-126488000D01*
G04 #@! TO.C,X1*
X159234000Y-116738000D02*
X159034000Y-116738000D01*
X159234000Y-116738000D02*
G75*
G03X159234000Y-116738000I-100000J0D01*
G01*
X159275421Y-116738000D02*
G75*
G03X159275421Y-116738000I-141421J0D01*
G01*
X159357607Y-116738000D02*
G75*
G03X159357607Y-116738000I-223607J0D01*
G01*
X159334000Y-111038000D02*
X159334000Y-111138000D01*
X159334000Y-111038000D02*
X159334000Y-110938000D01*
X159334000Y-110938000D02*
X159234000Y-110938000D01*
X156134000Y-111138000D02*
X156134000Y-110938000D01*
X156134000Y-110938000D02*
X159234000Y-110938000D01*
X156134000Y-115938000D02*
X156134000Y-116238000D01*
X156134000Y-116238000D02*
X159334000Y-116238000D01*
X159334000Y-116238000D02*
X159334000Y-116038000D01*
D12*
G04 #@! TO.C,A1*
X123444000Y-124206000D02*
X123444000Y-126746000D01*
X123444000Y-126746000D02*
X126114000Y-126746000D01*
X126114000Y-124206000D02*
X126114000Y-85976000D01*
X126114000Y-129416000D02*
X126114000Y-126746000D01*
X110744000Y-126746000D02*
X108074000Y-126746000D01*
X110744000Y-126746000D02*
X110744000Y-88646000D01*
X110744000Y-88646000D02*
X108074000Y-88646000D01*
X123444000Y-124206000D02*
X126114000Y-124206000D01*
X123444000Y-124206000D02*
X123444000Y-88646000D01*
X123444000Y-88646000D02*
X126114000Y-88646000D01*
X126114000Y-85976000D02*
X108074000Y-85976000D01*
X108074000Y-85976000D02*
X108074000Y-129416000D01*
X108074000Y-129416000D02*
X126114000Y-129416000D01*
G04 #@! TO.C,D1*
X115361000Y-130054000D02*
X112661000Y-130054000D01*
X112661000Y-130054000D02*
X112661000Y-132074000D01*
X112661000Y-132074000D02*
X115361000Y-132074000D01*
G04 #@! TO.C,D2*
X112661000Y-135122000D02*
X115361000Y-135122000D01*
X112661000Y-133102000D02*
X112661000Y-135122000D01*
X115361000Y-133102000D02*
X112661000Y-133102000D01*
G04 #@! TO.C,R16*
X110059500Y-130354000D02*
X110359500Y-130354000D01*
X110059500Y-131774000D02*
X110359500Y-131774000D01*
G04 #@! TO.C,R17*
X110086000Y-134822000D02*
X110386000Y-134822000D01*
X110086000Y-133402000D02*
X110386000Y-133402000D01*
G04 #@! TO.C,Pot1*
X141883000Y-91480000D02*
G75*
G03X141883000Y-91480000I-5270000J0D01*
G01*
G04 #@! TO.C,C15*
D10*
X132278380Y-122959619D02*
X132278380Y-123531047D01*
X132278380Y-123245333D02*
X131278380Y-123245333D01*
X131421238Y-123340571D01*
X131516476Y-123435809D01*
X131564095Y-123531047D01*
X131278380Y-122340571D02*
X131278380Y-122245333D01*
X131326000Y-122150095D01*
X131373619Y-122102476D01*
X131468857Y-122054857D01*
X131659333Y-122007238D01*
X131897428Y-122007238D01*
X132087904Y-122054857D01*
X132183142Y-122102476D01*
X132230761Y-122150095D01*
X132278380Y-122245333D01*
X132278380Y-122340571D01*
X132230761Y-122435809D01*
X132183142Y-122483428D01*
X132087904Y-122531047D01*
X131897428Y-122578666D01*
X131659333Y-122578666D01*
X131468857Y-122531047D01*
X131373619Y-122483428D01*
X131326000Y-122435809D01*
X131278380Y-122340571D01*
X131278380Y-121388190D02*
X131278380Y-121292952D01*
X131326000Y-121197714D01*
X131373619Y-121150095D01*
X131468857Y-121102476D01*
X131659333Y-121054857D01*
X131897428Y-121054857D01*
X132087904Y-121102476D01*
X132183142Y-121150095D01*
X132230761Y-121197714D01*
X132278380Y-121292952D01*
X132278380Y-121388190D01*
X132230761Y-121483428D01*
X132183142Y-121531047D01*
X132087904Y-121578666D01*
X131897428Y-121626285D01*
X131659333Y-121626285D01*
X131468857Y-121578666D01*
X131373619Y-121531047D01*
X131326000Y-121483428D01*
X131278380Y-121388190D01*
X131611714Y-120626285D02*
X132278380Y-120626285D01*
X131706952Y-120626285D02*
X131659333Y-120578666D01*
X131611714Y-120483428D01*
X131611714Y-120340571D01*
X131659333Y-120245333D01*
X131754571Y-120197714D01*
X132278380Y-120197714D01*
X131754571Y-119388190D02*
X131754571Y-119721523D01*
X132278380Y-119721523D02*
X131278380Y-119721523D01*
X131278380Y-119245333D01*
G04 #@! TO.C,C14*
X140184380Y-116022380D02*
X139612952Y-116022380D01*
X139898666Y-116022380D02*
X139898666Y-115022380D01*
X139803428Y-115165238D01*
X139708190Y-115260476D01*
X139612952Y-115308095D01*
X140803428Y-115022380D02*
X140898666Y-115022380D01*
X140993904Y-115070000D01*
X141041523Y-115117619D01*
X141089142Y-115212857D01*
X141136761Y-115403333D01*
X141136761Y-115641428D01*
X141089142Y-115831904D01*
X141041523Y-115927142D01*
X140993904Y-115974761D01*
X140898666Y-116022380D01*
X140803428Y-116022380D01*
X140708190Y-115974761D01*
X140660571Y-115927142D01*
X140612952Y-115831904D01*
X140565333Y-115641428D01*
X140565333Y-115403333D01*
X140612952Y-115212857D01*
X140660571Y-115117619D01*
X140708190Y-115070000D01*
X140803428Y-115022380D01*
X141755809Y-115022380D02*
X141851047Y-115022380D01*
X141946285Y-115070000D01*
X141993904Y-115117619D01*
X142041523Y-115212857D01*
X142089142Y-115403333D01*
X142089142Y-115641428D01*
X142041523Y-115831904D01*
X141993904Y-115927142D01*
X141946285Y-115974761D01*
X141851047Y-116022380D01*
X141755809Y-116022380D01*
X141660571Y-115974761D01*
X141612952Y-115927142D01*
X141565333Y-115831904D01*
X141517714Y-115641428D01*
X141517714Y-115403333D01*
X141565333Y-115212857D01*
X141612952Y-115117619D01*
X141660571Y-115070000D01*
X141755809Y-115022380D01*
X142517714Y-115355714D02*
X142517714Y-116022380D01*
X142517714Y-115450952D02*
X142565333Y-115403333D01*
X142660571Y-115355714D01*
X142803428Y-115355714D01*
X142898666Y-115403333D01*
X142946285Y-115498571D01*
X142946285Y-116022380D01*
X143755809Y-115498571D02*
X143422476Y-115498571D01*
X143422476Y-116022380D02*
X143422476Y-115022380D01*
X143898666Y-115022380D01*
G04 #@! TO.C,C13*
X157424380Y-91463619D02*
X157424380Y-92035047D01*
X157424380Y-91749333D02*
X156424380Y-91749333D01*
X156567238Y-91844571D01*
X156662476Y-91939809D01*
X156710095Y-92035047D01*
X156424380Y-90844571D02*
X156424380Y-90749333D01*
X156472000Y-90654095D01*
X156519619Y-90606476D01*
X156614857Y-90558857D01*
X156805333Y-90511238D01*
X157043428Y-90511238D01*
X157233904Y-90558857D01*
X157329142Y-90606476D01*
X157376761Y-90654095D01*
X157424380Y-90749333D01*
X157424380Y-90844571D01*
X157376761Y-90939809D01*
X157329142Y-90987428D01*
X157233904Y-91035047D01*
X157043428Y-91082666D01*
X156805333Y-91082666D01*
X156614857Y-91035047D01*
X156519619Y-90987428D01*
X156472000Y-90939809D01*
X156424380Y-90844571D01*
X156424380Y-89892190D02*
X156424380Y-89796952D01*
X156472000Y-89701714D01*
X156519619Y-89654095D01*
X156614857Y-89606476D01*
X156805333Y-89558857D01*
X157043428Y-89558857D01*
X157233904Y-89606476D01*
X157329142Y-89654095D01*
X157376761Y-89701714D01*
X157424380Y-89796952D01*
X157424380Y-89892190D01*
X157376761Y-89987428D01*
X157329142Y-90035047D01*
X157233904Y-90082666D01*
X157043428Y-90130285D01*
X156805333Y-90130285D01*
X156614857Y-90082666D01*
X156519619Y-90035047D01*
X156472000Y-89987428D01*
X156424380Y-89892190D01*
X156757714Y-89130285D02*
X157424380Y-89130285D01*
X156852952Y-89130285D02*
X156805333Y-89082666D01*
X156757714Y-88987428D01*
X156757714Y-88844571D01*
X156805333Y-88749333D01*
X156900571Y-88701714D01*
X157424380Y-88701714D01*
X156900571Y-87892190D02*
X156900571Y-88225523D01*
X157424380Y-88225523D02*
X156424380Y-88225523D01*
X156424380Y-87749333D01*
G04 #@! TO.C,C12*
X160504380Y-107132380D02*
X159932952Y-107132380D01*
X160218666Y-107132380D02*
X160218666Y-106132380D01*
X160123428Y-106275238D01*
X160028190Y-106370476D01*
X159932952Y-106418095D01*
X161123428Y-106132380D02*
X161218666Y-106132380D01*
X161313904Y-106180000D01*
X161361523Y-106227619D01*
X161409142Y-106322857D01*
X161456761Y-106513333D01*
X161456761Y-106751428D01*
X161409142Y-106941904D01*
X161361523Y-107037142D01*
X161313904Y-107084761D01*
X161218666Y-107132380D01*
X161123428Y-107132380D01*
X161028190Y-107084761D01*
X160980571Y-107037142D01*
X160932952Y-106941904D01*
X160885333Y-106751428D01*
X160885333Y-106513333D01*
X160932952Y-106322857D01*
X160980571Y-106227619D01*
X161028190Y-106180000D01*
X161123428Y-106132380D01*
X162075809Y-106132380D02*
X162171047Y-106132380D01*
X162266285Y-106180000D01*
X162313904Y-106227619D01*
X162361523Y-106322857D01*
X162409142Y-106513333D01*
X162409142Y-106751428D01*
X162361523Y-106941904D01*
X162313904Y-107037142D01*
X162266285Y-107084761D01*
X162171047Y-107132380D01*
X162075809Y-107132380D01*
X161980571Y-107084761D01*
X161932952Y-107037142D01*
X161885333Y-106941904D01*
X161837714Y-106751428D01*
X161837714Y-106513333D01*
X161885333Y-106322857D01*
X161932952Y-106227619D01*
X161980571Y-106180000D01*
X162075809Y-106132380D01*
X162837714Y-106465714D02*
X162837714Y-107132380D01*
X162837714Y-106560952D02*
X162885333Y-106513333D01*
X162980571Y-106465714D01*
X163123428Y-106465714D01*
X163218666Y-106513333D01*
X163266285Y-106608571D01*
X163266285Y-107132380D01*
X164075809Y-106608571D02*
X163742476Y-106608571D01*
X163742476Y-107132380D02*
X163742476Y-106132380D01*
X164218666Y-106132380D01*
G04 #@! TO.C,C11*
X160504380Y-109926380D02*
X159932952Y-109926380D01*
X160218666Y-109926380D02*
X160218666Y-108926380D01*
X160123428Y-109069238D01*
X160028190Y-109164476D01*
X159932952Y-109212095D01*
X161123428Y-108926380D02*
X161218666Y-108926380D01*
X161313904Y-108974000D01*
X161361523Y-109021619D01*
X161409142Y-109116857D01*
X161456761Y-109307333D01*
X161456761Y-109545428D01*
X161409142Y-109735904D01*
X161361523Y-109831142D01*
X161313904Y-109878761D01*
X161218666Y-109926380D01*
X161123428Y-109926380D01*
X161028190Y-109878761D01*
X160980571Y-109831142D01*
X160932952Y-109735904D01*
X160885333Y-109545428D01*
X160885333Y-109307333D01*
X160932952Y-109116857D01*
X160980571Y-109021619D01*
X161028190Y-108974000D01*
X161123428Y-108926380D01*
X162075809Y-108926380D02*
X162171047Y-108926380D01*
X162266285Y-108974000D01*
X162313904Y-109021619D01*
X162361523Y-109116857D01*
X162409142Y-109307333D01*
X162409142Y-109545428D01*
X162361523Y-109735904D01*
X162313904Y-109831142D01*
X162266285Y-109878761D01*
X162171047Y-109926380D01*
X162075809Y-109926380D01*
X161980571Y-109878761D01*
X161932952Y-109831142D01*
X161885333Y-109735904D01*
X161837714Y-109545428D01*
X161837714Y-109307333D01*
X161885333Y-109116857D01*
X161932952Y-109021619D01*
X161980571Y-108974000D01*
X162075809Y-108926380D01*
X162837714Y-109259714D02*
X162837714Y-109926380D01*
X162837714Y-109354952D02*
X162885333Y-109307333D01*
X162980571Y-109259714D01*
X163123428Y-109259714D01*
X163218666Y-109307333D01*
X163266285Y-109402571D01*
X163266285Y-109926380D01*
X164075809Y-109402571D02*
X163742476Y-109402571D01*
X163742476Y-109926380D02*
X163742476Y-108926380D01*
X164218666Y-108926380D01*
G04 #@! TO.C,C10*
X138882571Y-101544380D02*
X138311142Y-101544380D01*
X138596857Y-101544380D02*
X138596857Y-100544380D01*
X138501619Y-100687238D01*
X138406380Y-100782476D01*
X138311142Y-100830095D01*
X139501619Y-100544380D02*
X139596857Y-100544380D01*
X139692095Y-100592000D01*
X139739714Y-100639619D01*
X139787333Y-100734857D01*
X139834952Y-100925333D01*
X139834952Y-101163428D01*
X139787333Y-101353904D01*
X139739714Y-101449142D01*
X139692095Y-101496761D01*
X139596857Y-101544380D01*
X139501619Y-101544380D01*
X139406380Y-101496761D01*
X139358761Y-101449142D01*
X139311142Y-101353904D01*
X139263523Y-101163428D01*
X139263523Y-100925333D01*
X139311142Y-100734857D01*
X139358761Y-100639619D01*
X139406380Y-100592000D01*
X139501619Y-100544380D01*
X140263523Y-100877714D02*
X140263523Y-101877714D01*
X140263523Y-100925333D02*
X140358761Y-100877714D01*
X140549238Y-100877714D01*
X140644476Y-100925333D01*
X140692095Y-100972952D01*
X140739714Y-101068190D01*
X140739714Y-101353904D01*
X140692095Y-101449142D01*
X140644476Y-101496761D01*
X140549238Y-101544380D01*
X140358761Y-101544380D01*
X140263523Y-101496761D01*
X141501619Y-101020571D02*
X141168285Y-101020571D01*
X141168285Y-101544380D02*
X141168285Y-100544380D01*
X141644476Y-100544380D01*
G04 #@! TO.C,C9*
X138263523Y-103084380D02*
X138882571Y-103084380D01*
X138549238Y-103465333D01*
X138692095Y-103465333D01*
X138787333Y-103512952D01*
X138834952Y-103560571D01*
X138882571Y-103655809D01*
X138882571Y-103893904D01*
X138834952Y-103989142D01*
X138787333Y-104036761D01*
X138692095Y-104084380D01*
X138406380Y-104084380D01*
X138311142Y-104036761D01*
X138263523Y-103989142D01*
X139358761Y-104084380D02*
X139549238Y-104084380D01*
X139644476Y-104036761D01*
X139692095Y-103989142D01*
X139787333Y-103846285D01*
X139834952Y-103655809D01*
X139834952Y-103274857D01*
X139787333Y-103179619D01*
X139739714Y-103132000D01*
X139644476Y-103084380D01*
X139454000Y-103084380D01*
X139358761Y-103132000D01*
X139311142Y-103179619D01*
X139263523Y-103274857D01*
X139263523Y-103512952D01*
X139311142Y-103608190D01*
X139358761Y-103655809D01*
X139454000Y-103703428D01*
X139644476Y-103703428D01*
X139739714Y-103655809D01*
X139787333Y-103608190D01*
X139834952Y-103512952D01*
X140263523Y-103417714D02*
X140263523Y-104417714D01*
X140263523Y-103465333D02*
X140358761Y-103417714D01*
X140549238Y-103417714D01*
X140644476Y-103465333D01*
X140692095Y-103512952D01*
X140739714Y-103608190D01*
X140739714Y-103893904D01*
X140692095Y-103989142D01*
X140644476Y-104036761D01*
X140549238Y-104084380D01*
X140358761Y-104084380D01*
X140263523Y-104036761D01*
X141501619Y-103560571D02*
X141168285Y-103560571D01*
X141168285Y-104084380D02*
X141168285Y-103084380D01*
X141644476Y-103084380D01*
G04 #@! TO.C,C8*
X138263523Y-105624380D02*
X138882571Y-105624380D01*
X138549238Y-106005333D01*
X138692095Y-106005333D01*
X138787333Y-106052952D01*
X138834952Y-106100571D01*
X138882571Y-106195809D01*
X138882571Y-106433904D01*
X138834952Y-106529142D01*
X138787333Y-106576761D01*
X138692095Y-106624380D01*
X138406380Y-106624380D01*
X138311142Y-106576761D01*
X138263523Y-106529142D01*
X139358761Y-106624380D02*
X139549238Y-106624380D01*
X139644476Y-106576761D01*
X139692095Y-106529142D01*
X139787333Y-106386285D01*
X139834952Y-106195809D01*
X139834952Y-105814857D01*
X139787333Y-105719619D01*
X139739714Y-105672000D01*
X139644476Y-105624380D01*
X139454000Y-105624380D01*
X139358761Y-105672000D01*
X139311142Y-105719619D01*
X139263523Y-105814857D01*
X139263523Y-106052952D01*
X139311142Y-106148190D01*
X139358761Y-106195809D01*
X139454000Y-106243428D01*
X139644476Y-106243428D01*
X139739714Y-106195809D01*
X139787333Y-106148190D01*
X139834952Y-106052952D01*
X140263523Y-105957714D02*
X140263523Y-106957714D01*
X140263523Y-106005333D02*
X140358761Y-105957714D01*
X140549238Y-105957714D01*
X140644476Y-106005333D01*
X140692095Y-106052952D01*
X140739714Y-106148190D01*
X140739714Y-106433904D01*
X140692095Y-106529142D01*
X140644476Y-106576761D01*
X140549238Y-106624380D01*
X140358761Y-106624380D01*
X140263523Y-106576761D01*
X141501619Y-106100571D02*
X141168285Y-106100571D01*
X141168285Y-106624380D02*
X141168285Y-105624380D01*
X141644476Y-105624380D01*
G04 #@! TO.C,C7*
X135072571Y-111196380D02*
X134501142Y-111196380D01*
X134786857Y-111196380D02*
X134786857Y-110196380D01*
X134691619Y-110339238D01*
X134596380Y-110434476D01*
X134501142Y-110482095D01*
X135691619Y-110196380D02*
X135786857Y-110196380D01*
X135882095Y-110244000D01*
X135929714Y-110291619D01*
X135977333Y-110386857D01*
X136024952Y-110577333D01*
X136024952Y-110815428D01*
X135977333Y-111005904D01*
X135929714Y-111101142D01*
X135882095Y-111148761D01*
X135786857Y-111196380D01*
X135691619Y-111196380D01*
X135596380Y-111148761D01*
X135548761Y-111101142D01*
X135501142Y-111005904D01*
X135453523Y-110815428D01*
X135453523Y-110577333D01*
X135501142Y-110386857D01*
X135548761Y-110291619D01*
X135596380Y-110244000D01*
X135691619Y-110196380D01*
X136453523Y-110529714D02*
X136453523Y-111529714D01*
X136453523Y-110577333D02*
X136548761Y-110529714D01*
X136739238Y-110529714D01*
X136834476Y-110577333D01*
X136882095Y-110624952D01*
X136929714Y-110720190D01*
X136929714Y-111005904D01*
X136882095Y-111101142D01*
X136834476Y-111148761D01*
X136739238Y-111196380D01*
X136548761Y-111196380D01*
X136453523Y-111148761D01*
X137691619Y-110672571D02*
X137358285Y-110672571D01*
X137358285Y-111196380D02*
X137358285Y-110196380D01*
X137834476Y-110196380D01*
G04 #@! TO.C,C6*
X157099142Y-101616380D02*
X156527714Y-101616380D01*
X156813428Y-101616380D02*
X156813428Y-100616380D01*
X156718190Y-100759238D01*
X156622952Y-100854476D01*
X156527714Y-100902095D01*
X157718190Y-100616380D02*
X157813428Y-100616380D01*
X157908666Y-100664000D01*
X157956285Y-100711619D01*
X158003904Y-100806857D01*
X158051523Y-100997333D01*
X158051523Y-101235428D01*
X158003904Y-101425904D01*
X157956285Y-101521142D01*
X157908666Y-101568761D01*
X157813428Y-101616380D01*
X157718190Y-101616380D01*
X157622952Y-101568761D01*
X157575333Y-101521142D01*
X157527714Y-101425904D01*
X157480095Y-101235428D01*
X157480095Y-100997333D01*
X157527714Y-100806857D01*
X157575333Y-100711619D01*
X157622952Y-100664000D01*
X157718190Y-100616380D01*
X158480095Y-100949714D02*
X158480095Y-101949714D01*
X158956285Y-101473523D02*
X159003904Y-101568761D01*
X159099142Y-101616380D01*
X158480095Y-101473523D02*
X158527714Y-101568761D01*
X158622952Y-101616380D01*
X158813428Y-101616380D01*
X158908666Y-101568761D01*
X158956285Y-101473523D01*
X158956285Y-100949714D01*
X159861047Y-101092571D02*
X159527714Y-101092571D01*
X159527714Y-101616380D02*
X159527714Y-100616380D01*
X160003904Y-100616380D01*
G04 #@! TO.C,C5*
X156186380Y-130572380D02*
X155614952Y-130572380D01*
X155900666Y-130572380D02*
X155900666Y-129572380D01*
X155805428Y-129715238D01*
X155710190Y-129810476D01*
X155614952Y-129858095D01*
X156805428Y-129572380D02*
X156900666Y-129572380D01*
X156995904Y-129620000D01*
X157043523Y-129667619D01*
X157091142Y-129762857D01*
X157138761Y-129953333D01*
X157138761Y-130191428D01*
X157091142Y-130381904D01*
X157043523Y-130477142D01*
X156995904Y-130524761D01*
X156900666Y-130572380D01*
X156805428Y-130572380D01*
X156710190Y-130524761D01*
X156662571Y-130477142D01*
X156614952Y-130381904D01*
X156567333Y-130191428D01*
X156567333Y-129953333D01*
X156614952Y-129762857D01*
X156662571Y-129667619D01*
X156710190Y-129620000D01*
X156805428Y-129572380D01*
X157757809Y-129572380D02*
X157853047Y-129572380D01*
X157948285Y-129620000D01*
X157995904Y-129667619D01*
X158043523Y-129762857D01*
X158091142Y-129953333D01*
X158091142Y-130191428D01*
X158043523Y-130381904D01*
X157995904Y-130477142D01*
X157948285Y-130524761D01*
X157853047Y-130572380D01*
X157757809Y-130572380D01*
X157662571Y-130524761D01*
X157614952Y-130477142D01*
X157567333Y-130381904D01*
X157519714Y-130191428D01*
X157519714Y-129953333D01*
X157567333Y-129762857D01*
X157614952Y-129667619D01*
X157662571Y-129620000D01*
X157757809Y-129572380D01*
X158519714Y-129905714D02*
X158519714Y-130572380D01*
X158519714Y-130000952D02*
X158567333Y-129953333D01*
X158662571Y-129905714D01*
X158805428Y-129905714D01*
X158900666Y-129953333D01*
X158948285Y-130048571D01*
X158948285Y-130572380D01*
X159757809Y-130048571D02*
X159424476Y-130048571D01*
X159424476Y-130572380D02*
X159424476Y-129572380D01*
X159900666Y-129572380D01*
G04 #@! TO.C,C4*
X160401142Y-123642380D02*
X159829714Y-123642380D01*
X160115428Y-123642380D02*
X160115428Y-122642380D01*
X160020190Y-122785238D01*
X159924952Y-122880476D01*
X159829714Y-122928095D01*
X161020190Y-122642380D02*
X161115428Y-122642380D01*
X161210666Y-122690000D01*
X161258285Y-122737619D01*
X161305904Y-122832857D01*
X161353523Y-123023333D01*
X161353523Y-123261428D01*
X161305904Y-123451904D01*
X161258285Y-123547142D01*
X161210666Y-123594761D01*
X161115428Y-123642380D01*
X161020190Y-123642380D01*
X160924952Y-123594761D01*
X160877333Y-123547142D01*
X160829714Y-123451904D01*
X160782095Y-123261428D01*
X160782095Y-123023333D01*
X160829714Y-122832857D01*
X160877333Y-122737619D01*
X160924952Y-122690000D01*
X161020190Y-122642380D01*
X161782095Y-122975714D02*
X161782095Y-123975714D01*
X162258285Y-123499523D02*
X162305904Y-123594761D01*
X162401142Y-123642380D01*
X161782095Y-123499523D02*
X161829714Y-123594761D01*
X161924952Y-123642380D01*
X162115428Y-123642380D01*
X162210666Y-123594761D01*
X162258285Y-123499523D01*
X162258285Y-122975714D01*
X163163047Y-123118571D02*
X162829714Y-123118571D01*
X162829714Y-123642380D02*
X162829714Y-122642380D01*
X163305904Y-122642380D01*
G04 #@! TO.C,C3*
X138811142Y-99004380D02*
X138239714Y-99004380D01*
X138525428Y-99004380D02*
X138525428Y-98004380D01*
X138430190Y-98147238D01*
X138334952Y-98242476D01*
X138239714Y-98290095D01*
X139430190Y-98004380D02*
X139525428Y-98004380D01*
X139620666Y-98052000D01*
X139668285Y-98099619D01*
X139715904Y-98194857D01*
X139763523Y-98385333D01*
X139763523Y-98623428D01*
X139715904Y-98813904D01*
X139668285Y-98909142D01*
X139620666Y-98956761D01*
X139525428Y-99004380D01*
X139430190Y-99004380D01*
X139334952Y-98956761D01*
X139287333Y-98909142D01*
X139239714Y-98813904D01*
X139192095Y-98623428D01*
X139192095Y-98385333D01*
X139239714Y-98194857D01*
X139287333Y-98099619D01*
X139334952Y-98052000D01*
X139430190Y-98004380D01*
X140192095Y-98337714D02*
X140192095Y-99337714D01*
X140668285Y-98861523D02*
X140715904Y-98956761D01*
X140811142Y-99004380D01*
X140192095Y-98861523D02*
X140239714Y-98956761D01*
X140334952Y-99004380D01*
X140525428Y-99004380D01*
X140620666Y-98956761D01*
X140668285Y-98861523D01*
X140668285Y-98337714D01*
X141573047Y-98480571D02*
X141239714Y-98480571D01*
X141239714Y-99004380D02*
X141239714Y-98004380D01*
X141715904Y-98004380D01*
G04 #@! TO.C,C2*
X137104380Y-118744857D02*
X137104380Y-119316285D01*
X137104380Y-119030571D02*
X136104380Y-119030571D01*
X136247238Y-119125809D01*
X136342476Y-119221047D01*
X136390095Y-119316285D01*
X136104380Y-118125809D02*
X136104380Y-118030571D01*
X136152000Y-117935333D01*
X136199619Y-117887714D01*
X136294857Y-117840095D01*
X136485333Y-117792476D01*
X136723428Y-117792476D01*
X136913904Y-117840095D01*
X137009142Y-117887714D01*
X137056761Y-117935333D01*
X137104380Y-118030571D01*
X137104380Y-118125809D01*
X137056761Y-118221047D01*
X137009142Y-118268666D01*
X136913904Y-118316285D01*
X136723428Y-118363904D01*
X136485333Y-118363904D01*
X136294857Y-118316285D01*
X136199619Y-118268666D01*
X136152000Y-118221047D01*
X136104380Y-118125809D01*
X136437714Y-117363904D02*
X137437714Y-117363904D01*
X136961523Y-116887714D02*
X137056761Y-116840095D01*
X137104380Y-116744857D01*
X136961523Y-117363904D02*
X137056761Y-117316285D01*
X137104380Y-117221047D01*
X137104380Y-117030571D01*
X137056761Y-116935333D01*
X136961523Y-116887714D01*
X136437714Y-116887714D01*
X136580571Y-115982952D02*
X136580571Y-116316285D01*
X137104380Y-116316285D02*
X136104380Y-116316285D01*
X136104380Y-115840095D01*
G04 #@! TO.C,C1*
X160980380Y-118895619D02*
X160980380Y-119467047D01*
X160980380Y-119181333D02*
X159980380Y-119181333D01*
X160123238Y-119276571D01*
X160218476Y-119371809D01*
X160266095Y-119467047D01*
X159980380Y-118276571D02*
X159980380Y-118181333D01*
X160028000Y-118086095D01*
X160075619Y-118038476D01*
X160170857Y-117990857D01*
X160361333Y-117943238D01*
X160599428Y-117943238D01*
X160789904Y-117990857D01*
X160885142Y-118038476D01*
X160932761Y-118086095D01*
X160980380Y-118181333D01*
X160980380Y-118276571D01*
X160932761Y-118371809D01*
X160885142Y-118419428D01*
X160789904Y-118467047D01*
X160599428Y-118514666D01*
X160361333Y-118514666D01*
X160170857Y-118467047D01*
X160075619Y-118419428D01*
X160028000Y-118371809D01*
X159980380Y-118276571D01*
X159980380Y-117324190D02*
X159980380Y-117228952D01*
X160028000Y-117133714D01*
X160075619Y-117086095D01*
X160170857Y-117038476D01*
X160361333Y-116990857D01*
X160599428Y-116990857D01*
X160789904Y-117038476D01*
X160885142Y-117086095D01*
X160932761Y-117133714D01*
X160980380Y-117228952D01*
X160980380Y-117324190D01*
X160932761Y-117419428D01*
X160885142Y-117467047D01*
X160789904Y-117514666D01*
X160599428Y-117562285D01*
X160361333Y-117562285D01*
X160170857Y-117514666D01*
X160075619Y-117467047D01*
X160028000Y-117419428D01*
X159980380Y-117324190D01*
X160313714Y-116562285D02*
X160980380Y-116562285D01*
X160408952Y-116562285D02*
X160361333Y-116514666D01*
X160313714Y-116419428D01*
X160313714Y-116276571D01*
X160361333Y-116181333D01*
X160456571Y-116133714D01*
X160980380Y-116133714D01*
X160456571Y-115324190D02*
X160456571Y-115657523D01*
X160980380Y-115657523D02*
X159980380Y-115657523D01*
X159980380Y-115181333D01*
G04 #@! TO.C,L2*
X131913333Y-102234380D02*
X131437142Y-102234380D01*
X131437142Y-101234380D01*
X132199047Y-101329619D02*
X132246666Y-101282000D01*
X132341904Y-101234380D01*
X132580000Y-101234380D01*
X132675238Y-101282000D01*
X132722857Y-101329619D01*
X132770476Y-101424857D01*
X132770476Y-101520095D01*
X132722857Y-101662952D01*
X132151428Y-102234380D01*
X132770476Y-102234380D01*
X127293714Y-105370095D02*
X127960380Y-105370095D01*
X126912761Y-105608190D02*
X127627047Y-105846285D01*
X127627047Y-105227238D01*
X126960380Y-104941523D02*
X126960380Y-104274857D01*
X127960380Y-104703428D01*
X126960380Y-103703428D02*
X126960380Y-103608190D01*
X127008000Y-103512952D01*
X127055619Y-103465333D01*
X127150857Y-103417714D01*
X127341333Y-103370095D01*
X127579428Y-103370095D01*
X127769904Y-103417714D01*
X127865142Y-103465333D01*
X127912761Y-103512952D01*
X127960380Y-103608190D01*
X127960380Y-103703428D01*
X127912761Y-103798666D01*
X127865142Y-103846285D01*
X127769904Y-103893904D01*
X127579428Y-103941523D01*
X127341333Y-103941523D01*
X127150857Y-103893904D01*
X127055619Y-103846285D01*
X127008000Y-103798666D01*
X126960380Y-103703428D01*
X127293714Y-102941523D02*
X127960380Y-102941523D01*
X127388952Y-102941523D02*
X127341333Y-102893904D01*
X127293714Y-102798666D01*
X127293714Y-102655809D01*
X127341333Y-102560571D01*
X127436571Y-102512952D01*
X127960380Y-102512952D01*
X127960380Y-102036761D02*
X126960380Y-102036761D01*
X127436571Y-102036761D02*
X127436571Y-101465333D01*
X127960380Y-101465333D02*
X126960380Y-101465333D01*
G04 #@! TO.C,L1*
X128325619Y-109402285D02*
X128278000Y-109354666D01*
X128230380Y-109259428D01*
X128230380Y-109021333D01*
X128278000Y-108926095D01*
X128325619Y-108878476D01*
X128420857Y-108830857D01*
X128516095Y-108830857D01*
X128658952Y-108878476D01*
X129230380Y-109449904D01*
X129230380Y-108830857D01*
X128230380Y-108497523D02*
X128230380Y-107830857D01*
X129230380Y-108259428D01*
X128230380Y-107259428D02*
X128230380Y-107164190D01*
X128278000Y-107068952D01*
X128325619Y-107021333D01*
X128420857Y-106973714D01*
X128611333Y-106926095D01*
X128849428Y-106926095D01*
X129039904Y-106973714D01*
X129135142Y-107021333D01*
X129182761Y-107068952D01*
X129230380Y-107164190D01*
X129230380Y-107259428D01*
X129182761Y-107354666D01*
X129135142Y-107402285D01*
X129039904Y-107449904D01*
X128849428Y-107497523D01*
X128611333Y-107497523D01*
X128420857Y-107449904D01*
X128325619Y-107402285D01*
X128278000Y-107354666D01*
X128230380Y-107259428D01*
X128563714Y-106497523D02*
X129230380Y-106497523D01*
X128658952Y-106497523D02*
X128611333Y-106449904D01*
X128563714Y-106354666D01*
X128563714Y-106211809D01*
X128611333Y-106116571D01*
X128706571Y-106068952D01*
X129230380Y-106068952D01*
X129230380Y-105592761D02*
X128230380Y-105592761D01*
X128706571Y-105592761D02*
X128706571Y-105021333D01*
X129230380Y-105021333D02*
X128230380Y-105021333D01*
G04 #@! TO.C,L3*
X128833619Y-103306285D02*
X128786000Y-103258666D01*
X128738380Y-103163428D01*
X128738380Y-102925333D01*
X128786000Y-102830095D01*
X128833619Y-102782476D01*
X128928857Y-102734857D01*
X129024095Y-102734857D01*
X129166952Y-102782476D01*
X129738380Y-103353904D01*
X129738380Y-102734857D01*
X128738380Y-102401523D02*
X128738380Y-101734857D01*
X129738380Y-102163428D01*
X128738380Y-101163428D02*
X128738380Y-101068190D01*
X128786000Y-100972952D01*
X128833619Y-100925333D01*
X128928857Y-100877714D01*
X129119333Y-100830095D01*
X129357428Y-100830095D01*
X129547904Y-100877714D01*
X129643142Y-100925333D01*
X129690761Y-100972952D01*
X129738380Y-101068190D01*
X129738380Y-101163428D01*
X129690761Y-101258666D01*
X129643142Y-101306285D01*
X129547904Y-101353904D01*
X129357428Y-101401523D01*
X129119333Y-101401523D01*
X128928857Y-101353904D01*
X128833619Y-101306285D01*
X128786000Y-101258666D01*
X128738380Y-101163428D01*
X129071714Y-100401523D02*
X129738380Y-100401523D01*
X129166952Y-100401523D02*
X129119333Y-100353904D01*
X129071714Y-100258666D01*
X129071714Y-100115809D01*
X129119333Y-100020571D01*
X129214571Y-99972952D01*
X129738380Y-99972952D01*
X129738380Y-99496761D02*
X128738380Y-99496761D01*
X129214571Y-99496761D02*
X129214571Y-98925333D01*
X129738380Y-98925333D02*
X128738380Y-98925333D01*
G04 #@! TO.C,R13*
X127031904Y-98242380D02*
X126460476Y-98242380D01*
X126746190Y-98242380D02*
X126746190Y-97242380D01*
X126650952Y-97385238D01*
X126555714Y-97480476D01*
X126460476Y-97528095D01*
X127650952Y-97242380D02*
X127746190Y-97242380D01*
X127841428Y-97290000D01*
X127889047Y-97337619D01*
X127936666Y-97432857D01*
X127984285Y-97623333D01*
X127984285Y-97861428D01*
X127936666Y-98051904D01*
X127889047Y-98147142D01*
X127841428Y-98194761D01*
X127746190Y-98242380D01*
X127650952Y-98242380D01*
X127555714Y-98194761D01*
X127508095Y-98147142D01*
X127460476Y-98051904D01*
X127412857Y-97861428D01*
X127412857Y-97623333D01*
X127460476Y-97432857D01*
X127508095Y-97337619D01*
X127555714Y-97290000D01*
X127650952Y-97242380D01*
X128603333Y-97242380D02*
X128698571Y-97242380D01*
X128793809Y-97290000D01*
X128841428Y-97337619D01*
X128889047Y-97432857D01*
X128936666Y-97623333D01*
X128936666Y-97861428D01*
X128889047Y-98051904D01*
X128841428Y-98147142D01*
X128793809Y-98194761D01*
X128698571Y-98242380D01*
X128603333Y-98242380D01*
X128508095Y-98194761D01*
X128460476Y-98147142D01*
X128412857Y-98051904D01*
X128365238Y-97861428D01*
X128365238Y-97623333D01*
X128412857Y-97432857D01*
X128460476Y-97337619D01*
X128508095Y-97290000D01*
X128603333Y-97242380D01*
X129317619Y-98242380D02*
X129555714Y-98242380D01*
X129555714Y-98051904D01*
X129460476Y-98004285D01*
X129365238Y-97909047D01*
X129317619Y-97766190D01*
X129317619Y-97528095D01*
X129365238Y-97385238D01*
X129460476Y-97290000D01*
X129603333Y-97242380D01*
X129793809Y-97242380D01*
X129936666Y-97290000D01*
X130031904Y-97385238D01*
X130079523Y-97528095D01*
X130079523Y-97766190D01*
X130031904Y-97909047D01*
X129936666Y-98004285D01*
X129841428Y-98051904D01*
X129841428Y-98242380D01*
X130079523Y-98242380D01*
G04 #@! TO.C,R11*
X129992380Y-131246476D02*
X129992380Y-131817904D01*
X129992380Y-131532190D02*
X128992380Y-131532190D01*
X129135238Y-131627428D01*
X129230476Y-131722666D01*
X129278095Y-131817904D01*
X129992380Y-130817904D02*
X128992380Y-130817904D01*
X129611428Y-130722666D02*
X129992380Y-130436952D01*
X129325714Y-130436952D02*
X129706666Y-130817904D01*
X129992380Y-130056000D02*
X129992380Y-129817904D01*
X129801904Y-129817904D01*
X129754285Y-129913142D01*
X129659047Y-130008380D01*
X129516190Y-130056000D01*
X129278095Y-130056000D01*
X129135238Y-130008380D01*
X129040000Y-129913142D01*
X128992380Y-129770285D01*
X128992380Y-129579809D01*
X129040000Y-129436952D01*
X129135238Y-129341714D01*
X129278095Y-129294095D01*
X129516190Y-129294095D01*
X129659047Y-129341714D01*
X129754285Y-129436952D01*
X129801904Y-129532190D01*
X129992380Y-129532190D01*
X129992380Y-129294095D01*
G04 #@! TO.C,R10*
X130841904Y-111196380D02*
X130270476Y-111196380D01*
X130556190Y-111196380D02*
X130556190Y-110196380D01*
X130460952Y-110339238D01*
X130365714Y-110434476D01*
X130270476Y-110482095D01*
X131460952Y-110196380D02*
X131556190Y-110196380D01*
X131651428Y-110244000D01*
X131699047Y-110291619D01*
X131746666Y-110386857D01*
X131794285Y-110577333D01*
X131794285Y-110815428D01*
X131746666Y-111005904D01*
X131699047Y-111101142D01*
X131651428Y-111148761D01*
X131556190Y-111196380D01*
X131460952Y-111196380D01*
X131365714Y-111148761D01*
X131318095Y-111101142D01*
X131270476Y-111005904D01*
X131222857Y-110815428D01*
X131222857Y-110577333D01*
X131270476Y-110386857D01*
X131318095Y-110291619D01*
X131365714Y-110244000D01*
X131460952Y-110196380D01*
X132413333Y-110196380D02*
X132508571Y-110196380D01*
X132603809Y-110244000D01*
X132651428Y-110291619D01*
X132699047Y-110386857D01*
X132746666Y-110577333D01*
X132746666Y-110815428D01*
X132699047Y-111005904D01*
X132651428Y-111101142D01*
X132603809Y-111148761D01*
X132508571Y-111196380D01*
X132413333Y-111196380D01*
X132318095Y-111148761D01*
X132270476Y-111101142D01*
X132222857Y-111005904D01*
X132175238Y-110815428D01*
X132175238Y-110577333D01*
X132222857Y-110386857D01*
X132270476Y-110291619D01*
X132318095Y-110244000D01*
X132413333Y-110196380D01*
X133127619Y-111196380D02*
X133365714Y-111196380D01*
X133365714Y-111005904D01*
X133270476Y-110958285D01*
X133175238Y-110863047D01*
X133127619Y-110720190D01*
X133127619Y-110482095D01*
X133175238Y-110339238D01*
X133270476Y-110244000D01*
X133413333Y-110196380D01*
X133603809Y-110196380D01*
X133746666Y-110244000D01*
X133841904Y-110339238D01*
X133889523Y-110482095D01*
X133889523Y-110720190D01*
X133841904Y-110863047D01*
X133746666Y-110958285D01*
X133651428Y-111005904D01*
X133651428Y-111196380D01*
X133889523Y-111196380D01*
G04 #@! TO.C,R9*
X140922476Y-110704380D02*
X140446285Y-110704380D01*
X140398666Y-111180571D01*
X140446285Y-111132952D01*
X140541523Y-111085333D01*
X140779619Y-111085333D01*
X140874857Y-111132952D01*
X140922476Y-111180571D01*
X140970095Y-111275809D01*
X140970095Y-111513904D01*
X140922476Y-111609142D01*
X140874857Y-111656761D01*
X140779619Y-111704380D01*
X140541523Y-111704380D01*
X140446285Y-111656761D01*
X140398666Y-111609142D01*
X141589142Y-110704380D02*
X141684380Y-110704380D01*
X141779619Y-110752000D01*
X141827238Y-110799619D01*
X141874857Y-110894857D01*
X141922476Y-111085333D01*
X141922476Y-111323428D01*
X141874857Y-111513904D01*
X141827238Y-111609142D01*
X141779619Y-111656761D01*
X141684380Y-111704380D01*
X141589142Y-111704380D01*
X141493904Y-111656761D01*
X141446285Y-111609142D01*
X141398666Y-111513904D01*
X141351047Y-111323428D01*
X141351047Y-111085333D01*
X141398666Y-110894857D01*
X141446285Y-110799619D01*
X141493904Y-110752000D01*
X141589142Y-110704380D01*
X142303428Y-111704380D02*
X142541523Y-111704380D01*
X142541523Y-111513904D01*
X142446285Y-111466285D01*
X142351047Y-111371047D01*
X142303428Y-111228190D01*
X142303428Y-110990095D01*
X142351047Y-110847238D01*
X142446285Y-110752000D01*
X142589142Y-110704380D01*
X142779619Y-110704380D01*
X142922476Y-110752000D01*
X143017714Y-110847238D01*
X143065333Y-110990095D01*
X143065333Y-111228190D01*
X143017714Y-111371047D01*
X142922476Y-111466285D01*
X142827238Y-111513904D01*
X142827238Y-111704380D01*
X143065333Y-111704380D01*
G04 #@! TO.C,R8*
X153963714Y-103219142D02*
X154630380Y-103219142D01*
X153582761Y-103457238D02*
X154297047Y-103695333D01*
X154297047Y-103076285D01*
X153630380Y-102790571D02*
X153630380Y-102123904D01*
X154630380Y-102552476D01*
X154630380Y-101790571D02*
X154630380Y-101552476D01*
X154439904Y-101552476D01*
X154392285Y-101647714D01*
X154297047Y-101742952D01*
X154154190Y-101790571D01*
X153916095Y-101790571D01*
X153773238Y-101742952D01*
X153678000Y-101647714D01*
X153630380Y-101504857D01*
X153630380Y-101314380D01*
X153678000Y-101171523D01*
X153773238Y-101076285D01*
X153916095Y-101028666D01*
X154154190Y-101028666D01*
X154297047Y-101076285D01*
X154392285Y-101171523D01*
X154439904Y-101266761D01*
X154630380Y-101266761D01*
X154630380Y-101028666D01*
G04 #@! TO.C,R6*
X148645619Y-104679523D02*
X148598000Y-104631904D01*
X148550380Y-104536666D01*
X148550380Y-104298571D01*
X148598000Y-104203333D01*
X148645619Y-104155714D01*
X148740857Y-104108095D01*
X148836095Y-104108095D01*
X148978952Y-104155714D01*
X149550380Y-104727142D01*
X149550380Y-104108095D01*
X148645619Y-103727142D02*
X148598000Y-103679523D01*
X148550380Y-103584285D01*
X148550380Y-103346190D01*
X148598000Y-103250952D01*
X148645619Y-103203333D01*
X148740857Y-103155714D01*
X148836095Y-103155714D01*
X148978952Y-103203333D01*
X149550380Y-103774761D01*
X149550380Y-103155714D01*
X148550380Y-102536666D02*
X148550380Y-102441428D01*
X148598000Y-102346190D01*
X148645619Y-102298571D01*
X148740857Y-102250952D01*
X148931333Y-102203333D01*
X149169428Y-102203333D01*
X149359904Y-102250952D01*
X149455142Y-102298571D01*
X149502761Y-102346190D01*
X149550380Y-102441428D01*
X149550380Y-102536666D01*
X149502761Y-102631904D01*
X149455142Y-102679523D01*
X149359904Y-102727142D01*
X149169428Y-102774761D01*
X148931333Y-102774761D01*
X148740857Y-102727142D01*
X148645619Y-102679523D01*
X148598000Y-102631904D01*
X148550380Y-102536666D01*
X149550380Y-101822380D02*
X149550380Y-101584285D01*
X149359904Y-101584285D01*
X149312285Y-101679523D01*
X149217047Y-101774761D01*
X149074190Y-101822380D01*
X148836095Y-101822380D01*
X148693238Y-101774761D01*
X148598000Y-101679523D01*
X148550380Y-101536666D01*
X148550380Y-101346190D01*
X148598000Y-101203333D01*
X148693238Y-101108095D01*
X148836095Y-101060476D01*
X149074190Y-101060476D01*
X149217047Y-101108095D01*
X149312285Y-101203333D01*
X149359904Y-101298571D01*
X149550380Y-101298571D01*
X149550380Y-101060476D01*
G04 #@! TO.C,R5*
X149915619Y-91979523D02*
X149868000Y-91931904D01*
X149820380Y-91836666D01*
X149820380Y-91598571D01*
X149868000Y-91503333D01*
X149915619Y-91455714D01*
X150010857Y-91408095D01*
X150106095Y-91408095D01*
X150248952Y-91455714D01*
X150820380Y-92027142D01*
X150820380Y-91408095D01*
X149915619Y-91027142D02*
X149868000Y-90979523D01*
X149820380Y-90884285D01*
X149820380Y-90646190D01*
X149868000Y-90550952D01*
X149915619Y-90503333D01*
X150010857Y-90455714D01*
X150106095Y-90455714D01*
X150248952Y-90503333D01*
X150820380Y-91074761D01*
X150820380Y-90455714D01*
X149820380Y-89836666D02*
X149820380Y-89741428D01*
X149868000Y-89646190D01*
X149915619Y-89598571D01*
X150010857Y-89550952D01*
X150201333Y-89503333D01*
X150439428Y-89503333D01*
X150629904Y-89550952D01*
X150725142Y-89598571D01*
X150772761Y-89646190D01*
X150820380Y-89741428D01*
X150820380Y-89836666D01*
X150772761Y-89931904D01*
X150725142Y-89979523D01*
X150629904Y-90027142D01*
X150439428Y-90074761D01*
X150201333Y-90074761D01*
X150010857Y-90027142D01*
X149915619Y-89979523D01*
X149868000Y-89931904D01*
X149820380Y-89836666D01*
X150820380Y-89122380D02*
X150820380Y-88884285D01*
X150629904Y-88884285D01*
X150582285Y-88979523D01*
X150487047Y-89074761D01*
X150344190Y-89122380D01*
X150106095Y-89122380D01*
X149963238Y-89074761D01*
X149868000Y-88979523D01*
X149820380Y-88836666D01*
X149820380Y-88646190D01*
X149868000Y-88503333D01*
X149963238Y-88408095D01*
X150106095Y-88360476D01*
X150344190Y-88360476D01*
X150487047Y-88408095D01*
X150582285Y-88503333D01*
X150629904Y-88598571D01*
X150820380Y-88598571D01*
X150820380Y-88360476D01*
G04 #@! TO.C,R4*
X147010380Y-104108095D02*
X147010380Y-104679523D01*
X147010380Y-104393809D02*
X146010380Y-104393809D01*
X146153238Y-104489047D01*
X146248476Y-104584285D01*
X146296095Y-104679523D01*
X146010380Y-103489047D02*
X146010380Y-103393809D01*
X146058000Y-103298571D01*
X146105619Y-103250952D01*
X146200857Y-103203333D01*
X146391333Y-103155714D01*
X146629428Y-103155714D01*
X146819904Y-103203333D01*
X146915142Y-103250952D01*
X146962761Y-103298571D01*
X147010380Y-103393809D01*
X147010380Y-103489047D01*
X146962761Y-103584285D01*
X146915142Y-103631904D01*
X146819904Y-103679523D01*
X146629428Y-103727142D01*
X146391333Y-103727142D01*
X146200857Y-103679523D01*
X146105619Y-103631904D01*
X146058000Y-103584285D01*
X146010380Y-103489047D01*
X146010380Y-102536666D02*
X146010380Y-102441428D01*
X146058000Y-102346190D01*
X146105619Y-102298571D01*
X146200857Y-102250952D01*
X146391333Y-102203333D01*
X146629428Y-102203333D01*
X146819904Y-102250952D01*
X146915142Y-102298571D01*
X146962761Y-102346190D01*
X147010380Y-102441428D01*
X147010380Y-102536666D01*
X146962761Y-102631904D01*
X146915142Y-102679523D01*
X146819904Y-102727142D01*
X146629428Y-102774761D01*
X146391333Y-102774761D01*
X146200857Y-102727142D01*
X146105619Y-102679523D01*
X146058000Y-102631904D01*
X146010380Y-102536666D01*
X147010380Y-101822380D02*
X147010380Y-101584285D01*
X146819904Y-101584285D01*
X146772285Y-101679523D01*
X146677047Y-101774761D01*
X146534190Y-101822380D01*
X146296095Y-101822380D01*
X146153238Y-101774761D01*
X146058000Y-101679523D01*
X146010380Y-101536666D01*
X146010380Y-101346190D01*
X146058000Y-101203333D01*
X146153238Y-101108095D01*
X146296095Y-101060476D01*
X146534190Y-101060476D01*
X146677047Y-101108095D01*
X146772285Y-101203333D01*
X146819904Y-101298571D01*
X147010380Y-101298571D01*
X147010380Y-101060476D01*
G04 #@! TO.C,R12*
X132786380Y-131246476D02*
X132786380Y-131817904D01*
X132786380Y-131532190D02*
X131786380Y-131532190D01*
X131929238Y-131627428D01*
X132024476Y-131722666D01*
X132072095Y-131817904D01*
X132786380Y-130817904D02*
X131786380Y-130817904D01*
X132405428Y-130722666D02*
X132786380Y-130436952D01*
X132119714Y-130436952D02*
X132500666Y-130817904D01*
X132786380Y-130056000D02*
X132786380Y-129817904D01*
X132595904Y-129817904D01*
X132548285Y-129913142D01*
X132453047Y-130008380D01*
X132310190Y-130056000D01*
X132072095Y-130056000D01*
X131929238Y-130008380D01*
X131834000Y-129913142D01*
X131786380Y-129770285D01*
X131786380Y-129579809D01*
X131834000Y-129436952D01*
X131929238Y-129341714D01*
X132072095Y-129294095D01*
X132310190Y-129294095D01*
X132453047Y-129341714D01*
X132548285Y-129436952D01*
X132595904Y-129532190D01*
X132786380Y-129532190D01*
X132786380Y-129294095D01*
G04 #@! TO.C,R14*
X133731619Y-115281404D02*
X133684000Y-115233785D01*
X133636380Y-115138547D01*
X133636380Y-114900452D01*
X133684000Y-114805214D01*
X133731619Y-114757595D01*
X133826857Y-114709976D01*
X133922095Y-114709976D01*
X134064952Y-114757595D01*
X134636380Y-115329023D01*
X134636380Y-114709976D01*
X134636380Y-114281404D02*
X133636380Y-114281404D01*
X134255428Y-114186166D02*
X134636380Y-113900452D01*
X133969714Y-113900452D02*
X134350666Y-114281404D01*
X134636380Y-113519500D02*
X134636380Y-113281404D01*
X134445904Y-113281404D01*
X134398285Y-113376642D01*
X134303047Y-113471880D01*
X134160190Y-113519500D01*
X133922095Y-113519500D01*
X133779238Y-113471880D01*
X133684000Y-113376642D01*
X133636380Y-113233785D01*
X133636380Y-113043309D01*
X133684000Y-112900452D01*
X133779238Y-112805214D01*
X133922095Y-112757595D01*
X134160190Y-112757595D01*
X134303047Y-112805214D01*
X134398285Y-112900452D01*
X134445904Y-112995690D01*
X134636380Y-112995690D01*
X134636380Y-112757595D01*
G04 #@! TO.C,R2*
X160480476Y-120102380D02*
X160004285Y-120102380D01*
X159956666Y-120578571D01*
X160004285Y-120530952D01*
X160099523Y-120483333D01*
X160337619Y-120483333D01*
X160432857Y-120530952D01*
X160480476Y-120578571D01*
X160528095Y-120673809D01*
X160528095Y-120911904D01*
X160480476Y-121007142D01*
X160432857Y-121054761D01*
X160337619Y-121102380D01*
X160099523Y-121102380D01*
X160004285Y-121054761D01*
X159956666Y-121007142D01*
X161480476Y-121102380D02*
X160909047Y-121102380D01*
X161194761Y-121102380D02*
X161194761Y-120102380D01*
X161099523Y-120245238D01*
X161004285Y-120340476D01*
X160909047Y-120388095D01*
X161861428Y-121102380D02*
X162099523Y-121102380D01*
X162099523Y-120911904D01*
X162004285Y-120864285D01*
X161909047Y-120769047D01*
X161861428Y-120626190D01*
X161861428Y-120388095D01*
X161909047Y-120245238D01*
X162004285Y-120150000D01*
X162147142Y-120102380D01*
X162337619Y-120102380D01*
X162480476Y-120150000D01*
X162575714Y-120245238D01*
X162623333Y-120388095D01*
X162623333Y-120626190D01*
X162575714Y-120769047D01*
X162480476Y-120864285D01*
X162385238Y-120911904D01*
X162385238Y-121102380D01*
X162623333Y-121102380D01*
G04 #@! TO.C,R1*
X160028190Y-103338380D02*
X160647238Y-103338380D01*
X160313904Y-103719333D01*
X160456761Y-103719333D01*
X160552000Y-103766952D01*
X160599619Y-103814571D01*
X160647238Y-103909809D01*
X160647238Y-104147904D01*
X160599619Y-104243142D01*
X160552000Y-104290761D01*
X160456761Y-104338380D01*
X160171047Y-104338380D01*
X160075809Y-104290761D01*
X160028190Y-104243142D01*
X161075809Y-104243142D02*
X161123428Y-104290761D01*
X161075809Y-104338380D01*
X161028190Y-104290761D01*
X161075809Y-104243142D01*
X161075809Y-104338380D01*
X161599619Y-104338380D02*
X161790095Y-104338380D01*
X161885333Y-104290761D01*
X161932952Y-104243142D01*
X162028190Y-104100285D01*
X162075809Y-103909809D01*
X162075809Y-103528857D01*
X162028190Y-103433619D01*
X161980571Y-103386000D01*
X161885333Y-103338380D01*
X161694857Y-103338380D01*
X161599619Y-103386000D01*
X161552000Y-103433619D01*
X161504380Y-103528857D01*
X161504380Y-103766952D01*
X161552000Y-103862190D01*
X161599619Y-103909809D01*
X161694857Y-103957428D01*
X161885333Y-103957428D01*
X161980571Y-103909809D01*
X162028190Y-103862190D01*
X162075809Y-103766952D01*
X162504380Y-104338380D02*
X162504380Y-103338380D01*
X162599619Y-103957428D02*
X162885333Y-104338380D01*
X162885333Y-103671714D02*
X162504380Y-104052666D01*
X163266285Y-104338380D02*
X163504380Y-104338380D01*
X163504380Y-104147904D01*
X163409142Y-104100285D01*
X163313904Y-104005047D01*
X163266285Y-103862190D01*
X163266285Y-103624095D01*
X163313904Y-103481238D01*
X163409142Y-103386000D01*
X163552000Y-103338380D01*
X163742476Y-103338380D01*
X163885333Y-103386000D01*
X163980571Y-103481238D01*
X164028190Y-103624095D01*
X164028190Y-103862190D01*
X163980571Y-104005047D01*
X163885333Y-104100285D01*
X163790095Y-104147904D01*
X163790095Y-104338380D01*
X164028190Y-104338380D01*
G04 #@! TO.C,R15*
X129921619Y-115281404D02*
X129874000Y-115233785D01*
X129826380Y-115138547D01*
X129826380Y-114900452D01*
X129874000Y-114805214D01*
X129921619Y-114757595D01*
X130016857Y-114709976D01*
X130112095Y-114709976D01*
X130254952Y-114757595D01*
X130826380Y-115329023D01*
X130826380Y-114709976D01*
X130826380Y-114281404D02*
X129826380Y-114281404D01*
X130445428Y-114186166D02*
X130826380Y-113900452D01*
X130159714Y-113900452D02*
X130540666Y-114281404D01*
X130826380Y-113519500D02*
X130826380Y-113281404D01*
X130635904Y-113281404D01*
X130588285Y-113376642D01*
X130493047Y-113471880D01*
X130350190Y-113519500D01*
X130112095Y-113519500D01*
X129969238Y-113471880D01*
X129874000Y-113376642D01*
X129826380Y-113233785D01*
X129826380Y-113043309D01*
X129874000Y-112900452D01*
X129969238Y-112805214D01*
X130112095Y-112757595D01*
X130350190Y-112757595D01*
X130493047Y-112805214D01*
X130588285Y-112900452D01*
X130635904Y-112995690D01*
X130826380Y-112995690D01*
X130826380Y-112757595D01*
G04 #@! TO.C,R3*
X160194761Y-125515714D02*
X160194761Y-126182380D01*
X159956666Y-125134761D02*
X159718571Y-125849047D01*
X160337619Y-125849047D01*
X160718571Y-126087142D02*
X160766190Y-126134761D01*
X160718571Y-126182380D01*
X160670952Y-126134761D01*
X160718571Y-126087142D01*
X160718571Y-126182380D01*
X161099523Y-125182380D02*
X161766190Y-125182380D01*
X161337619Y-126182380D01*
X162099523Y-126182380D02*
X162337619Y-126182380D01*
X162337619Y-125991904D01*
X162242380Y-125944285D01*
X162147142Y-125849047D01*
X162099523Y-125706190D01*
X162099523Y-125468095D01*
X162147142Y-125325238D01*
X162242380Y-125230000D01*
X162385238Y-125182380D01*
X162575714Y-125182380D01*
X162718571Y-125230000D01*
X162813809Y-125325238D01*
X162861428Y-125468095D01*
X162861428Y-125706190D01*
X162813809Y-125849047D01*
X162718571Y-125944285D01*
X162623333Y-125991904D01*
X162623333Y-126182380D01*
X162861428Y-126182380D01*
G04 #@! TO.C,R7*
X151185619Y-104679523D02*
X151138000Y-104631904D01*
X151090380Y-104536666D01*
X151090380Y-104298571D01*
X151138000Y-104203333D01*
X151185619Y-104155714D01*
X151280857Y-104108095D01*
X151376095Y-104108095D01*
X151518952Y-104155714D01*
X152090380Y-104727142D01*
X152090380Y-104108095D01*
X151185619Y-103727142D02*
X151138000Y-103679523D01*
X151090380Y-103584285D01*
X151090380Y-103346190D01*
X151138000Y-103250952D01*
X151185619Y-103203333D01*
X151280857Y-103155714D01*
X151376095Y-103155714D01*
X151518952Y-103203333D01*
X152090380Y-103774761D01*
X152090380Y-103155714D01*
X151090380Y-102536666D02*
X151090380Y-102441428D01*
X151138000Y-102346190D01*
X151185619Y-102298571D01*
X151280857Y-102250952D01*
X151471333Y-102203333D01*
X151709428Y-102203333D01*
X151899904Y-102250952D01*
X151995142Y-102298571D01*
X152042761Y-102346190D01*
X152090380Y-102441428D01*
X152090380Y-102536666D01*
X152042761Y-102631904D01*
X151995142Y-102679523D01*
X151899904Y-102727142D01*
X151709428Y-102774761D01*
X151471333Y-102774761D01*
X151280857Y-102727142D01*
X151185619Y-102679523D01*
X151138000Y-102631904D01*
X151090380Y-102536666D01*
X152090380Y-101822380D02*
X152090380Y-101584285D01*
X151899904Y-101584285D01*
X151852285Y-101679523D01*
X151757047Y-101774761D01*
X151614190Y-101822380D01*
X151376095Y-101822380D01*
X151233238Y-101774761D01*
X151138000Y-101679523D01*
X151090380Y-101536666D01*
X151090380Y-101346190D01*
X151138000Y-101203333D01*
X151233238Y-101108095D01*
X151376095Y-101060476D01*
X151614190Y-101060476D01*
X151757047Y-101108095D01*
X151852285Y-101203333D01*
X151899904Y-101298571D01*
X152090380Y-101298571D01*
X152090380Y-101060476D01*
G04 #@! TO.C,Q1*
X147613619Y-91535238D02*
X147566000Y-91630476D01*
X147470761Y-91725714D01*
X147327904Y-91868571D01*
X147280285Y-91963809D01*
X147280285Y-92059047D01*
X147518380Y-92011428D02*
X147470761Y-92106666D01*
X147375523Y-92201904D01*
X147185047Y-92249523D01*
X146851714Y-92249523D01*
X146661238Y-92201904D01*
X146566000Y-92106666D01*
X146518380Y-92011428D01*
X146518380Y-91820952D01*
X146566000Y-91725714D01*
X146661238Y-91630476D01*
X146851714Y-91582857D01*
X147185047Y-91582857D01*
X147375523Y-91630476D01*
X147470761Y-91725714D01*
X147518380Y-91820952D01*
X147518380Y-92011428D01*
X147518380Y-90630476D02*
X147518380Y-91201904D01*
X147518380Y-90916190D02*
X146518380Y-90916190D01*
X146661238Y-91011428D01*
X146756476Y-91106666D01*
X146804095Y-91201904D01*
G04 #@! TO.C,Q2*
X154217619Y-91535238D02*
X154170000Y-91630476D01*
X154074761Y-91725714D01*
X153931904Y-91868571D01*
X153884285Y-91963809D01*
X153884285Y-92059047D01*
X154122380Y-92011428D02*
X154074761Y-92106666D01*
X153979523Y-92201904D01*
X153789047Y-92249523D01*
X153455714Y-92249523D01*
X153265238Y-92201904D01*
X153170000Y-92106666D01*
X153122380Y-92011428D01*
X153122380Y-91820952D01*
X153170000Y-91725714D01*
X153265238Y-91630476D01*
X153455714Y-91582857D01*
X153789047Y-91582857D01*
X153979523Y-91630476D01*
X154074761Y-91725714D01*
X154122380Y-91820952D01*
X154122380Y-92011428D01*
X153217619Y-91201904D02*
X153170000Y-91154285D01*
X153122380Y-91059047D01*
X153122380Y-90820952D01*
X153170000Y-90725714D01*
X153217619Y-90678095D01*
X153312857Y-90630476D01*
X153408095Y-90630476D01*
X153550952Y-90678095D01*
X154122380Y-91249523D01*
X154122380Y-90630476D01*
G04 #@! TO.C,U1*
X146264380Y-126237904D02*
X147073904Y-126237904D01*
X147169142Y-126190285D01*
X147216761Y-126142666D01*
X147264380Y-126047428D01*
X147264380Y-125856952D01*
X147216761Y-125761714D01*
X147169142Y-125714095D01*
X147073904Y-125666476D01*
X146264380Y-125666476D01*
X147264380Y-124666476D02*
X147264380Y-125237904D01*
X147264380Y-124952190D02*
X146264380Y-124952190D01*
X146407238Y-125047428D01*
X146502476Y-125142666D01*
X146550095Y-125237904D01*
G04 #@! TO.C,U2*
X148463095Y-105116380D02*
X148463095Y-105925904D01*
X148510714Y-106021142D01*
X148558333Y-106068761D01*
X148653571Y-106116380D01*
X148844047Y-106116380D01*
X148939285Y-106068761D01*
X148986904Y-106021142D01*
X149034523Y-105925904D01*
X149034523Y-105116380D01*
X149463095Y-105211619D02*
X149510714Y-105164000D01*
X149605952Y-105116380D01*
X149844047Y-105116380D01*
X149939285Y-105164000D01*
X149986904Y-105211619D01*
X150034523Y-105306857D01*
X150034523Y-105402095D01*
X149986904Y-105544952D01*
X149415476Y-106116380D01*
X150034523Y-106116380D01*
G04 #@! TO.C,U3*
X135469380Y-130047904D02*
X136278904Y-130047904D01*
X136374142Y-130000285D01*
X136421761Y-129952666D01*
X136469380Y-129857428D01*
X136469380Y-129666952D01*
X136421761Y-129571714D01*
X136374142Y-129524095D01*
X136278904Y-129476476D01*
X135469380Y-129476476D01*
X135469380Y-129095523D02*
X135469380Y-128476476D01*
X135850333Y-128809809D01*
X135850333Y-128666952D01*
X135897952Y-128571714D01*
X135945571Y-128524095D01*
X136040809Y-128476476D01*
X136278904Y-128476476D01*
X136374142Y-128524095D01*
X136421761Y-128571714D01*
X136469380Y-128666952D01*
X136469380Y-128952666D01*
X136421761Y-129047904D01*
X136374142Y-129095523D01*
G04 #@! TO.C,X1*
X159980380Y-114347523D02*
X160980380Y-113680857D01*
X159980380Y-113680857D02*
X160980380Y-114347523D01*
X160980380Y-112776095D02*
X160980380Y-113347523D01*
X160980380Y-113061809D02*
X159980380Y-113061809D01*
X160123238Y-113157047D01*
X160218476Y-113252285D01*
X160266095Y-113347523D01*
G04 #@! TO.C,A1*
X116125714Y-128436666D02*
X116601904Y-128436666D01*
X116030476Y-128722380D02*
X116363809Y-127722380D01*
X116697142Y-128722380D01*
X117554285Y-128722380D02*
X116982857Y-128722380D01*
X117268571Y-128722380D02*
X117268571Y-127722380D01*
X117173333Y-127865238D01*
X117078095Y-127960476D01*
X116982857Y-128008095D01*
G04 #@! TO.C,R16*
X109519023Y-129484380D02*
X108947595Y-129484380D01*
X109233309Y-129484380D02*
X109233309Y-128484380D01*
X109138071Y-128627238D01*
X109042833Y-128722476D01*
X108947595Y-128770095D01*
X109947595Y-129484380D02*
X109947595Y-128484380D01*
X110042833Y-129103428D02*
X110328547Y-129484380D01*
X110328547Y-128817714D02*
X109947595Y-129198666D01*
X110709500Y-129484380D02*
X110947595Y-129484380D01*
X110947595Y-129293904D01*
X110852357Y-129246285D01*
X110757119Y-129151047D01*
X110709500Y-129008190D01*
X110709500Y-128770095D01*
X110757119Y-128627238D01*
X110852357Y-128532000D01*
X110995214Y-128484380D01*
X111185690Y-128484380D01*
X111328547Y-128532000D01*
X111423785Y-128627238D01*
X111471404Y-128770095D01*
X111471404Y-129008190D01*
X111423785Y-129151047D01*
X111328547Y-129246285D01*
X111233309Y-129293904D01*
X111233309Y-129484380D01*
X111471404Y-129484380D01*
G04 #@! TO.C,R17*
X109545523Y-136414380D02*
X108974095Y-136414380D01*
X109259809Y-136414380D02*
X109259809Y-135414380D01*
X109164571Y-135557238D01*
X109069333Y-135652476D01*
X108974095Y-135700095D01*
X109974095Y-136414380D02*
X109974095Y-135414380D01*
X110069333Y-136033428D02*
X110355047Y-136414380D01*
X110355047Y-135747714D02*
X109974095Y-136128666D01*
X110736000Y-136414380D02*
X110974095Y-136414380D01*
X110974095Y-136223904D01*
X110878857Y-136176285D01*
X110783619Y-136081047D01*
X110736000Y-135938190D01*
X110736000Y-135700095D01*
X110783619Y-135557238D01*
X110878857Y-135462000D01*
X111021714Y-135414380D01*
X111212190Y-135414380D01*
X111355047Y-135462000D01*
X111450285Y-135557238D01*
X111497904Y-135700095D01*
X111497904Y-135938190D01*
X111450285Y-136081047D01*
X111355047Y-136176285D01*
X111259809Y-136223904D01*
X111259809Y-136414380D01*
X111497904Y-136414380D01*
G04 #@! TO.C,Pot1*
X130754380Y-92916190D02*
X129754380Y-92916190D01*
X129754380Y-92535238D01*
X129802000Y-92440000D01*
X129849619Y-92392380D01*
X129944857Y-92344761D01*
X130087714Y-92344761D01*
X130182952Y-92392380D01*
X130230571Y-92440000D01*
X130278190Y-92535238D01*
X130278190Y-92916190D01*
X130754380Y-91773333D02*
X130706761Y-91868571D01*
X130659142Y-91916190D01*
X130563904Y-91963809D01*
X130278190Y-91963809D01*
X130182952Y-91916190D01*
X130135333Y-91868571D01*
X130087714Y-91773333D01*
X130087714Y-91630476D01*
X130135333Y-91535238D01*
X130182952Y-91487619D01*
X130278190Y-91440000D01*
X130563904Y-91440000D01*
X130659142Y-91487619D01*
X130706761Y-91535238D01*
X130754380Y-91630476D01*
X130754380Y-91773333D01*
X130087714Y-91154285D02*
X130087714Y-90773333D01*
X129754380Y-91011428D02*
X130611523Y-91011428D01*
X130706761Y-90963809D01*
X130754380Y-90868571D01*
X130754380Y-90773333D01*
X130754380Y-89916190D02*
X130754380Y-90487619D01*
X130754380Y-90201904D02*
X129754380Y-90201904D01*
X129897238Y-90297142D01*
X129992476Y-90392380D01*
X130040095Y-90487619D01*
G04 #@! TD*
M02*
