<?xml version="1.0" encoding="UTF-8" standalone="no"?>
<!-- Created with Inkscape (http://www.inkscape.org/) -->

<svg
   xmlns:dc="http://purl.org/dc/elements/1.1/"
   xmlns:cc="http://creativecommons.org/ns#"
   xmlns:rdf="http://www.w3.org/1999/02/22-rdf-syntax-ns#"
   xmlns:svg="http://www.w3.org/2000/svg"
   xmlns="http://www.w3.org/2000/svg"
   xmlns:sodipodi="http://sodipodi.sourceforge.net/DTD/sodipodi-0.dtd"
   xmlns:inkscape="http://www.inkscape.org/namespaces/inkscape"
   id="svg3222"
   height="16"
   width="16"
   version="1.0"
   inkscape:version="0.91 r13725"
   sodipodi:docname="zoom-out.svg">
  <metadata
     id="metadata10">
    <rdf:RDF>
      <cc:Work
         rdf:about="">
        <dc:format>image/svg+xml</dc:format>
        <dc:type
           rdf:resource="http://purl.org/dc/dcmitype/StillImage" />
        <dc:title />
      </cc:Work>
    </rdf:RDF>
  </metadata>
  <defs
     id="defs8">
    <linearGradient
       id="linearGradient2836"
       y2="27.495001"
       gradientUnits="userSpaceOnUse"
       x2="23.878"
       gradientTransform="matrix(0.31080265,0,0,0.30892862,-1.4213473,-1.110057)"
       y1="18.541"
       x1="23.878">
      <stop
         id="stop3729"
         style="stop-color:#e35d4f"
         offset="0" />
      <stop
         id="stop3731"
         style="stop-color:#c6262e"
         offset="1" />
    </linearGradient>
  </defs>
  <sodipodi:namedview
     pagecolor="#ffffff"
     bordercolor="#666666"
     borderopacity="1"
     objecttolerance="10"
     gridtolerance="10"
     guidetolerance="10"
     inkscape:pageopacity="0"
     inkscape:pageshadow="2"
     inkscape:window-width="1920"
     inkscape:window-height="1056"
     id="namedview6"
     showgrid="false"
     inkscape:zoom="14.75"
     inkscape:cx="-2.2033898"
     inkscape:cy="8"
     inkscape:window-x="0"
     inkscape:window-y="64"
     inkscape:window-maximized="1"
     inkscape:current-layer="svg3222" />
  <path
     id="path3220"
     style="fill:#4d4d4d;fill-rule:evenodd"
     d="m7.9402 10.056 5.5131 5.7901c0.09497 0.10582 0.23427 0.16205 0.38313 0.15465s0.29323-0.07774 0.39706-0.19345l0.94443-1.0513c0.19322-0.21977 0.19232-0.53772-0.0021-0.72168l-5.5455-5.3566-1.6893 1.3786z" />
  <path
     id="path2447"
     style="fill-opacity:.58824;fill-rule:evenodd;stroke:#4d4d4d;stroke-width:2;fill:#fff"
     d="m6 11c-3 0-5-1.9411-5-5 0-3 1.9064-5 5-5 3 0 5 2 5 5 0 2.7758-1.8917 5-5 5z" />
  <path
     inkscape:connector-curvature="0"
     id="path2262"
     style="fill:url(#linearGradient2836);fill-rule:evenodd;stroke:#a53738;stroke-width:0.34576273;stroke-linejoin:round"
     d="m 9.2847459,4.7889315 0,2.422137 -6.5694918,0 0,-2.4221371 6.5694918,0 z" />
</svg>
