<?xml version="1.0" encoding="UTF-8" standalone="no"?>
<!-- Created with Inkscape (http://www.inkscape.org/) -->

<svg
   xmlns:dc="http://purl.org/dc/elements/1.1/"
   xmlns:cc="http://creativecommons.org/ns#"
   xmlns:rdf="http://www.w3.org/1999/02/22-rdf-syntax-ns#"
   xmlns:svg="http://www.w3.org/2000/svg"
   xmlns="http://www.w3.org/2000/svg"
   xmlns:sodipodi="http://sodipodi.sourceforge.net/DTD/sodipodi-0.dtd"
   xmlns:inkscape="http://www.inkscape.org/namespaces/inkscape"
   id="svg3222"
   height="16"
   width="16"
   version="1.0"
   inkscape:version="0.91 r13725"
   sodipodi:docname="zoom-out.svg">
  <metadata
     id="metadata10">
    <rdf:RDF>
      <cc:Work
         rdf:about="">
        <dc:format>image/svg+xml</dc:format>
        <dc:type
           rdf:resource="http://purl.org/dc/dcmitype/StillImage" />
        <dc:title></dc:title>
      </cc:Work>
    </rdf:RDF>
  </metadata>
  <defs
     id="defs8">
    <linearGradient
       id="linearGradient2397"
       y2="45.689999"
       gradientUnits="userSpaceOnUse"
       x2="24.139"
       gradientTransform="matrix(0.18852142,0,0,0.18738318,1.4120767,1.6334286)"
       y1="6.5317001"
       x1="24.139">
      <stop
         id="stop4224"
         style="stop-color:#fff"
         offset="0" />
      <stop
         id="stop4226"
         style="stop-color:#fff;stop-opacity:0"
         offset="1" />
    </linearGradient>
    <linearGradient
       id="linearGradient2400"
       y2="34.224998"
       gradientUnits="userSpaceOnUse"
       x2="24.104"
       gradientTransform="matrix(0.31384972,0,0,0.31195732,-1.494111,-1.1806713)"
       y1="15.181"
       x1="24.104">
      <stop
         id="stop2266"
         style="stop-color:#d7e866"
         offset="0" />
      <stop
         id="stop2268"
         style="stop-color:#8cab2a"
         offset="1" />
    </linearGradient>
  </defs>
  <sodipodi:namedview
     pagecolor="#ffffff"
     bordercolor="#666666"
     borderopacity="1"
     objecttolerance="10"
     gridtolerance="10"
     guidetolerance="10"
     inkscape:pageopacity="0"
     inkscape:pageshadow="2"
     inkscape:window-width="1920"
     inkscape:window-height="1056"
     id="namedview6"
     showgrid="false"
     inkscape:zoom="59"
     inkscape:cx="3.3104654"
     inkscape:cy="9.7988896"
     inkscape:window-x="0"
     inkscape:window-y="64"
     inkscape:window-maximized="1"
     inkscape:current-layer="svg3222" />
  <path
     id="path3220"
     style="fill:#4d4d4d;fill-rule:evenodd"
     d="m7.9402 10.056 5.5131 5.7901c0.09497 0.10582 0.23427 0.16205 0.38313 0.15465s0.29323-0.07774 0.39706-0.19345l0.94443-1.0513c0.19322-0.21977 0.19232-0.53772-0.0021-0.72168l-5.5455-5.3566-1.6893 1.3786z" />
  <path
     id="path2447"
     style="fill-opacity:.58824;fill-rule:evenodd;stroke:#4d4d4d;stroke-width:2;fill:#fff"
     d="m6 11c-3 0-5-1.9411-5-5 0-3 1.9064-5 5-5 3 0 5 2 5 5 0 2.7758-1.8917 5-5 5z" />
  <path
     inkscape:connector-curvature="0"
     d="m 4.8011442,4.7761504 0,-2.0930995 2.4208839,0 0,2.0930995 2.0949153,0 0,2.4458835 -2.0949153,0 0,2.0949153 -2.4230137,0 -0.00973,-2.0949153 -2.1062278,0 0,-2.4458834 2.118099,0 z"
     style="fill:url(#linearGradient2400);fill-rule:evenodd;stroke:#699536;stroke-width:0.34915254;stroke-linejoin:round"
     id="path2262" />
  <path
     inkscape:connector-curvature="0"
     d="m 5.0254282,5.1253029 0,-2.0930995 1.7457627,0 0,2.0930995 2.0949152,0 0,1.7475784 -2.0949152,0 0,2.0949148 -1.7457627,0 0,-2.0949148 -2.0949151,0 0,-1.7475784 2.0949151,0 z"
     style="opacity:0.4;fill:none;stroke:url(#linearGradient2397);stroke-width:0.34915254"
     id="path2272" />
</svg>
