M48
;DRILL file {KiCad 6.0.0-rc1-unknown-0cca1c6~65~ubuntu16.04.1} date Fri Aug  3 10:44:58 2018
;FORMAT={-:-/ absolute / inch / decimal}
FMAT,2
INCH,TZ
T1C0.0118
T2C0.0315
%
G90
G05
M72
T1
X4.28Y-5.34
X4.3Y-3.46
X4.319Y-5.27
X4.3254Y-5.1865
X4.41Y-3.46
X4.6Y-4.69
X4.64Y-5.34
X4.66Y-4.29
X4.6774Y-4.6501
X4.78Y-4.69
X5.0458Y-4.2158
X5.105Y-3.46
X5.13Y-4.425
X5.13Y-4.58
X5.13Y-4.725
X5.13Y-4.85
X5.1679Y-4.22
X5.1694Y-4.084
X5.26Y-3.836
X5.265Y-4.7506
X5.29Y-3.46
X5.3176Y-4.9267
X5.395Y-4.505
X5.44Y-4.22
X5.47Y-4.15
X5.48Y-3.46
X5.52Y-3.8679
X5.595Y-4.805
X5.6Y-5.09
X5.63Y-4.19
X5.64Y-3.88
X5.65Y-3.545
X5.69Y-4.08
X5.69Y-4.805
X5.69Y-5.09
X5.75Y-3.9594
X5.7759Y-4.0858
X5.785Y-4.805
X5.785Y-5.09
X5.7874Y-3.8806
X5.87Y-4.805
X5.87Y-5.09
X5.875Y-4.24
X5.875Y-4.34
X5.875Y-4.435
X5.875Y-4.56
X5.91Y-5.34
X5.92Y-3.99
X5.95Y-5.09
X5.955Y-4.805
X5.959Y-3.769
X5.959Y-3.851
X6.05Y-4.03
X6.169Y-4.75
X6.18Y-3.769
X6.18Y-3.851
X6.19Y-5.165
X6.23Y-3.96
X6.23Y-3.9898
X6.24Y-5.34
X6.251Y-4.95
X6.251Y-5.05
X6.299Y-3.869
X6.299Y-3.951
X6.32Y-4.24
X6.325Y-3.785
X6.36Y-3.675
X6.49Y-4.29
X6.49Y-4.365
X6.49Y-4.46
X6.495Y-3.585
X6.5227Y-3.8065
X6.5227Y-4.0135
X6.5227Y-4.7465
X6.5227Y-4.9535
X6.56Y-5.34
T2
X4.33Y-3.56
X4.33Y-3.66
X4.33Y-3.76
X4.33Y-3.86
X4.33Y-3.96
X4.33Y-4.06
X4.33Y-4.16
X4.33Y-4.26
X4.33Y-4.36
X4.33Y-4.46
X4.33Y-4.56
X4.33Y-4.66
X4.33Y-4.76
X4.33Y-4.86
X4.33Y-4.96
X4.93Y-3.56
X4.93Y-3.66
X4.93Y-3.76
X4.93Y-3.86
X4.93Y-3.96
X4.93Y-4.06
X4.93Y-4.16
X4.93Y-4.26
X4.93Y-4.36
X4.93Y-4.46
X4.93Y-4.56
X4.93Y-4.66
X4.93Y-4.76
X4.93Y-4.86
X4.93Y-4.96
X5.9Y-3.51
X6.0921Y-3.51
T0
M30
