G04 #@! TF.GenerationSoftware,KiCad,Pcbnew,6.0.0-rc1-unknown-0cca1c6~65~ubuntu16.04.1*
G04 #@! TF.CreationDate,2018-08-03T10:45:00+02:00*
G04 #@! TF.ProjectId,ArduinoSpecAn,41726475696E6F53706563416E2E6B69,1.0*
G04 #@! TF.SameCoordinates,Original*
G04 #@! TF.FileFunction,Legend,Bot*
G04 #@! TF.FilePolarity,Positive*
%FSLAX46Y46*%
G04 Gerber Fmt 4.6, Leading zero omitted, Abs format (unit mm)*
G04 Created by KiCad (PCBNEW 6.0.0-rc1-unknown-0cca1c6~65~ubuntu16.04.1) date Fri Aug  3 10:45:00 2018*
%MOMM*%
%LPD*%
G01*
G04 APERTURE LIST*
%ADD10C,0.150000*%
%ADD11C,0.010000*%
G04 APERTURE END LIST*
D10*
X132487380Y-103775809D02*
X132487380Y-103966285D01*
X132535000Y-104061523D01*
X132630238Y-104156761D01*
X132820714Y-104204380D01*
X133154047Y-104204380D01*
X133344523Y-104156761D01*
X133439761Y-104061523D01*
X133487380Y-103966285D01*
X133487380Y-103775809D01*
X133439761Y-103680571D01*
X133344523Y-103585333D01*
X133154047Y-103537714D01*
X132820714Y-103537714D01*
X132630238Y-103585333D01*
X132535000Y-103680571D01*
X132487380Y-103775809D01*
X132820714Y-104632952D02*
X133820714Y-104632952D01*
X132868333Y-104632952D02*
X132820714Y-104728190D01*
X132820714Y-104918666D01*
X132868333Y-105013904D01*
X132915952Y-105061523D01*
X133011190Y-105109142D01*
X133296904Y-105109142D01*
X133392142Y-105061523D01*
X133439761Y-105013904D01*
X133487380Y-104918666D01*
X133487380Y-104728190D01*
X133439761Y-104632952D01*
X133439761Y-105918666D02*
X133487380Y-105823428D01*
X133487380Y-105632952D01*
X133439761Y-105537714D01*
X133344523Y-105490095D01*
X132963571Y-105490095D01*
X132868333Y-105537714D01*
X132820714Y-105632952D01*
X132820714Y-105823428D01*
X132868333Y-105918666D01*
X132963571Y-105966285D01*
X133058809Y-105966285D01*
X133154047Y-105490095D01*
X132820714Y-106394857D02*
X133487380Y-106394857D01*
X132915952Y-106394857D02*
X132868333Y-106442476D01*
X132820714Y-106537714D01*
X132820714Y-106680571D01*
X132868333Y-106775809D01*
X132963571Y-106823428D01*
X133487380Y-106823428D01*
X133487380Y-107299619D02*
X132487380Y-107299619D01*
X133487380Y-107871047D01*
X132487380Y-107871047D01*
X133439761Y-108728190D02*
X133487380Y-108632952D01*
X133487380Y-108442476D01*
X133439761Y-108347238D01*
X133344523Y-108299619D01*
X132963571Y-108299619D01*
X132868333Y-108347238D01*
X132820714Y-108442476D01*
X132820714Y-108632952D01*
X132868333Y-108728190D01*
X132963571Y-108775809D01*
X133058809Y-108775809D01*
X133154047Y-108299619D01*
X132820714Y-109061523D02*
X132820714Y-109442476D01*
X132487380Y-109204380D02*
X133344523Y-109204380D01*
X133439761Y-109252000D01*
X133487380Y-109347238D01*
X133487380Y-109442476D01*
X132820714Y-109680571D02*
X133487380Y-109871047D01*
X133011190Y-110061523D01*
X133487380Y-110252000D01*
X132820714Y-110442476D01*
X133487380Y-110966285D02*
X133439761Y-110871047D01*
X133392142Y-110823428D01*
X133296904Y-110775809D01*
X133011190Y-110775809D01*
X132915952Y-110823428D01*
X132868333Y-110871047D01*
X132820714Y-110966285D01*
X132820714Y-111109142D01*
X132868333Y-111204380D01*
X132915952Y-111252000D01*
X133011190Y-111299619D01*
X133296904Y-111299619D01*
X133392142Y-111252000D01*
X133439761Y-111204380D01*
X133487380Y-111109142D01*
X133487380Y-110966285D01*
X133487380Y-111728190D02*
X132820714Y-111728190D01*
X133011190Y-111728190D02*
X132915952Y-111775809D01*
X132868333Y-111823428D01*
X132820714Y-111918666D01*
X132820714Y-112013904D01*
X133487380Y-112347238D02*
X132487380Y-112347238D01*
X133106428Y-112442476D02*
X133487380Y-112728190D01*
X132820714Y-112728190D02*
X133201666Y-112347238D01*
X133201666Y-113109142D02*
X133201666Y-113585333D01*
X133487380Y-113013904D02*
X132487380Y-113347238D01*
X133487380Y-113680571D01*
X132820714Y-114013904D02*
X133487380Y-114013904D01*
X132915952Y-114013904D02*
X132868333Y-114061523D01*
X132820714Y-114156761D01*
X132820714Y-114299619D01*
X132868333Y-114394857D01*
X132963571Y-114442476D01*
X133487380Y-114442476D01*
X133487380Y-115347238D02*
X132963571Y-115347238D01*
X132868333Y-115299619D01*
X132820714Y-115204380D01*
X132820714Y-115013904D01*
X132868333Y-114918666D01*
X133439761Y-115347238D02*
X133487380Y-115252000D01*
X133487380Y-115013904D01*
X133439761Y-114918666D01*
X133344523Y-114871047D01*
X133249285Y-114871047D01*
X133154047Y-114918666D01*
X133106428Y-115013904D01*
X133106428Y-115252000D01*
X133058809Y-115347238D01*
X133487380Y-115966285D02*
X133439761Y-115871047D01*
X133344523Y-115823428D01*
X132487380Y-115823428D01*
X132820714Y-116252000D02*
X133487380Y-116490095D01*
X132820714Y-116728190D02*
X133487380Y-116490095D01*
X133725476Y-116394857D01*
X133773095Y-116347238D01*
X133820714Y-116252000D01*
X132820714Y-117013904D02*
X132820714Y-117537714D01*
X133487380Y-117013904D01*
X133487380Y-117537714D01*
X133439761Y-118299619D02*
X133487380Y-118204380D01*
X133487380Y-118013904D01*
X133439761Y-117918666D01*
X133344523Y-117871047D01*
X132963571Y-117871047D01*
X132868333Y-117918666D01*
X132820714Y-118013904D01*
X132820714Y-118204380D01*
X132868333Y-118299619D01*
X132963571Y-118347238D01*
X133058809Y-118347238D01*
X133154047Y-117871047D01*
X133487380Y-118775809D02*
X132820714Y-118775809D01*
X133011190Y-118775809D02*
X132915952Y-118823428D01*
X132868333Y-118871047D01*
X132820714Y-118966285D01*
X132820714Y-119061523D01*
X134851666Y-103847238D02*
X134851666Y-104323428D01*
X135137380Y-103752000D02*
X134137380Y-104085333D01*
X135137380Y-104418666D01*
X134470714Y-104752000D02*
X135137380Y-104752000D01*
X134565952Y-104752000D02*
X134518333Y-104799619D01*
X134470714Y-104894857D01*
X134470714Y-105037714D01*
X134518333Y-105132952D01*
X134613571Y-105180571D01*
X135137380Y-105180571D01*
X135137380Y-106085333D02*
X134137380Y-106085333D01*
X135089761Y-106085333D02*
X135137380Y-105990095D01*
X135137380Y-105799619D01*
X135089761Y-105704380D01*
X135042142Y-105656761D01*
X134946904Y-105609142D01*
X134661190Y-105609142D01*
X134565952Y-105656761D01*
X134518333Y-105704380D01*
X134470714Y-105799619D01*
X134470714Y-105990095D01*
X134518333Y-106085333D01*
X135137380Y-106561523D02*
X134470714Y-106561523D01*
X134661190Y-106561523D02*
X134565952Y-106609142D01*
X134518333Y-106656761D01*
X134470714Y-106752000D01*
X134470714Y-106847238D01*
X135089761Y-107561523D02*
X135137380Y-107466285D01*
X135137380Y-107275809D01*
X135089761Y-107180571D01*
X134994523Y-107132952D01*
X134613571Y-107132952D01*
X134518333Y-107180571D01*
X134470714Y-107275809D01*
X134470714Y-107466285D01*
X134518333Y-107561523D01*
X134613571Y-107609142D01*
X134708809Y-107609142D01*
X134804047Y-107132952D01*
X135137380Y-108466285D02*
X134613571Y-108466285D01*
X134518333Y-108418666D01*
X134470714Y-108323428D01*
X134470714Y-108132952D01*
X134518333Y-108037714D01*
X135089761Y-108466285D02*
X135137380Y-108371047D01*
X135137380Y-108132952D01*
X135089761Y-108037714D01*
X134994523Y-107990095D01*
X134899285Y-107990095D01*
X134804047Y-108037714D01*
X134756428Y-108132952D01*
X134756428Y-108371047D01*
X134708809Y-108466285D01*
X135089761Y-108894857D02*
X135137380Y-108990095D01*
X135137380Y-109180571D01*
X135089761Y-109275809D01*
X134994523Y-109323428D01*
X134946904Y-109323428D01*
X134851666Y-109275809D01*
X134804047Y-109180571D01*
X134804047Y-109037714D01*
X134756428Y-108942476D01*
X134661190Y-108894857D01*
X134613571Y-108894857D01*
X134518333Y-108942476D01*
X134470714Y-109037714D01*
X134470714Y-109180571D01*
X134518333Y-109275809D01*
X134613571Y-110847238D02*
X134661190Y-110990095D01*
X134708809Y-111037714D01*
X134804047Y-111085333D01*
X134946904Y-111085333D01*
X135042142Y-111037714D01*
X135089761Y-110990095D01*
X135137380Y-110894857D01*
X135137380Y-110513904D01*
X134137380Y-110513904D01*
X134137380Y-110847238D01*
X134185000Y-110942476D01*
X134232619Y-110990095D01*
X134327857Y-111037714D01*
X134423095Y-111037714D01*
X134518333Y-110990095D01*
X134565952Y-110942476D01*
X134613571Y-110847238D01*
X134613571Y-110513904D01*
X134470714Y-111942476D02*
X135137380Y-111942476D01*
X134470714Y-111513904D02*
X134994523Y-111513904D01*
X135089761Y-111561523D01*
X135137380Y-111656761D01*
X135137380Y-111799619D01*
X135089761Y-111894857D01*
X135042142Y-111942476D01*
X134470714Y-112275809D02*
X134470714Y-112656761D01*
X134137380Y-112418666D02*
X134994523Y-112418666D01*
X135089761Y-112466285D01*
X135137380Y-112561523D01*
X135137380Y-112656761D01*
X134470714Y-112847238D02*
X134470714Y-113228190D01*
X134137380Y-112990095D02*
X134994523Y-112990095D01*
X135089761Y-113037714D01*
X135137380Y-113132952D01*
X135137380Y-113228190D01*
X135137380Y-113561523D02*
X134470714Y-113561523D01*
X134137380Y-113561523D02*
X134185000Y-113513904D01*
X134232619Y-113561523D01*
X134185000Y-113609142D01*
X134137380Y-113561523D01*
X134232619Y-113561523D01*
X135089761Y-114085333D02*
X135137380Y-114085333D01*
X135232619Y-114037714D01*
X135280238Y-113990095D01*
X134232619Y-115228190D02*
X134185000Y-115275809D01*
X134137380Y-115371047D01*
X134137380Y-115609142D01*
X134185000Y-115704380D01*
X134232619Y-115751999D01*
X134327857Y-115799619D01*
X134423095Y-115799619D01*
X134565952Y-115751999D01*
X135137380Y-115180571D01*
X135137380Y-115799619D01*
X134137380Y-116418666D02*
X134137380Y-116513904D01*
X134185000Y-116609142D01*
X134232619Y-116656761D01*
X134327857Y-116704380D01*
X134518333Y-116751999D01*
X134756428Y-116751999D01*
X134946904Y-116704380D01*
X135042142Y-116656761D01*
X135089761Y-116609142D01*
X135137380Y-116513904D01*
X135137380Y-116418666D01*
X135089761Y-116323428D01*
X135042142Y-116275809D01*
X134946904Y-116228190D01*
X134756428Y-116180571D01*
X134518333Y-116180571D01*
X134327857Y-116228190D01*
X134232619Y-116275809D01*
X134185000Y-116323428D01*
X134137380Y-116418666D01*
X135137380Y-117704380D02*
X135137380Y-117132952D01*
X135137380Y-117418666D02*
X134137380Y-117418666D01*
X134280238Y-117323428D01*
X134375476Y-117228190D01*
X134423095Y-117132952D01*
X134565952Y-118275809D02*
X134518333Y-118180571D01*
X134470714Y-118132952D01*
X134375476Y-118085333D01*
X134327857Y-118085333D01*
X134232619Y-118132952D01*
X134185000Y-118180571D01*
X134137380Y-118275809D01*
X134137380Y-118466285D01*
X134185000Y-118561523D01*
X134232619Y-118609142D01*
X134327857Y-118656761D01*
X134375476Y-118656761D01*
X134470714Y-118609142D01*
X134518333Y-118561523D01*
X134565952Y-118466285D01*
X134565952Y-118275809D01*
X134613571Y-118180571D01*
X134661190Y-118132952D01*
X134756428Y-118085333D01*
X134946904Y-118085333D01*
X135042142Y-118132952D01*
X135089761Y-118180571D01*
X135137380Y-118275809D01*
X135137380Y-118466285D01*
X135089761Y-118561523D01*
X135042142Y-118609142D01*
X134946904Y-118656761D01*
X134756428Y-118656761D01*
X134661190Y-118609142D01*
X134613571Y-118561523D01*
X134565952Y-118466285D01*
X136787380Y-90418666D02*
X135787380Y-90418666D01*
X136787380Y-90847238D02*
X136263571Y-90847238D01*
X136168333Y-90799619D01*
X136120714Y-90704380D01*
X136120714Y-90561523D01*
X136168333Y-90466285D01*
X136215952Y-90418666D01*
X136120714Y-91180571D02*
X136120714Y-91561523D01*
X135787380Y-91323428D02*
X136644523Y-91323428D01*
X136739761Y-91371047D01*
X136787380Y-91466285D01*
X136787380Y-91561523D01*
X136120714Y-91752000D02*
X136120714Y-92132952D01*
X135787380Y-91894857D02*
X136644523Y-91894857D01*
X136739761Y-91942476D01*
X136787380Y-92037714D01*
X136787380Y-92132952D01*
X136120714Y-92466285D02*
X137120714Y-92466285D01*
X136168333Y-92466285D02*
X136120714Y-92561523D01*
X136120714Y-92752000D01*
X136168333Y-92847238D01*
X136215952Y-92894857D01*
X136311190Y-92942476D01*
X136596904Y-92942476D01*
X136692142Y-92894857D01*
X136739761Y-92847238D01*
X136787380Y-92752000D01*
X136787380Y-92561523D01*
X136739761Y-92466285D01*
X136739761Y-93323428D02*
X136787380Y-93418666D01*
X136787380Y-93609142D01*
X136739761Y-93704380D01*
X136644523Y-93752000D01*
X136596904Y-93752000D01*
X136501666Y-93704380D01*
X136454047Y-93609142D01*
X136454047Y-93466285D01*
X136406428Y-93371047D01*
X136311190Y-93323428D01*
X136263571Y-93323428D01*
X136168333Y-93371047D01*
X136120714Y-93466285D01*
X136120714Y-93609142D01*
X136168333Y-93704380D01*
X136692142Y-94180571D02*
X136739761Y-94228190D01*
X136787380Y-94180571D01*
X136739761Y-94132952D01*
X136692142Y-94180571D01*
X136787380Y-94180571D01*
X136168333Y-94180571D02*
X136215952Y-94228190D01*
X136263571Y-94180571D01*
X136215952Y-94132952D01*
X136168333Y-94180571D01*
X136263571Y-94180571D01*
X135739761Y-95371047D02*
X137025476Y-94513904D01*
X135739761Y-96418666D02*
X137025476Y-95561523D01*
X136120714Y-97180571D02*
X136930238Y-97180571D01*
X137025476Y-97132952D01*
X137073095Y-97085333D01*
X137120714Y-96990095D01*
X137120714Y-96847238D01*
X137073095Y-96752000D01*
X136739761Y-97180571D02*
X136787380Y-97085333D01*
X136787380Y-96894857D01*
X136739761Y-96799619D01*
X136692142Y-96752000D01*
X136596904Y-96704380D01*
X136311190Y-96704380D01*
X136215952Y-96752000D01*
X136168333Y-96799619D01*
X136120714Y-96894857D01*
X136120714Y-97085333D01*
X136168333Y-97180571D01*
X136787380Y-97656761D02*
X136120714Y-97656761D01*
X135787380Y-97656761D02*
X135835000Y-97609142D01*
X135882619Y-97656761D01*
X135835000Y-97704380D01*
X135787380Y-97656761D01*
X135882619Y-97656761D01*
X136120714Y-97990095D02*
X136120714Y-98371047D01*
X135787380Y-98132952D02*
X136644523Y-98132952D01*
X136739761Y-98180571D01*
X136787380Y-98275809D01*
X136787380Y-98371047D01*
X136787380Y-98704380D02*
X135787380Y-98704380D01*
X136787380Y-99132952D02*
X136263571Y-99132952D01*
X136168333Y-99085333D01*
X136120714Y-98990095D01*
X136120714Y-98847238D01*
X136168333Y-98752000D01*
X136215952Y-98704380D01*
X136120714Y-100037714D02*
X136787380Y-100037714D01*
X136120714Y-99609142D02*
X136644523Y-99609142D01*
X136739761Y-99656761D01*
X136787380Y-99752000D01*
X136787380Y-99894857D01*
X136739761Y-99990095D01*
X136692142Y-100037714D01*
X136787380Y-100513904D02*
X135787380Y-100513904D01*
X136168333Y-100513904D02*
X136120714Y-100609142D01*
X136120714Y-100799619D01*
X136168333Y-100894857D01*
X136215952Y-100942476D01*
X136311190Y-100990095D01*
X136596904Y-100990095D01*
X136692142Y-100942476D01*
X136739761Y-100894857D01*
X136787380Y-100799619D01*
X136787380Y-100609142D01*
X136739761Y-100513904D01*
X136692142Y-101418666D02*
X136739761Y-101466285D01*
X136787380Y-101418666D01*
X136739761Y-101371047D01*
X136692142Y-101418666D01*
X136787380Y-101418666D01*
X136739761Y-102323428D02*
X136787380Y-102228190D01*
X136787380Y-102037714D01*
X136739761Y-101942476D01*
X136692142Y-101894857D01*
X136596904Y-101847238D01*
X136311190Y-101847238D01*
X136215952Y-101894857D01*
X136168333Y-101942476D01*
X136120714Y-102037714D01*
X136120714Y-102228190D01*
X136168333Y-102323428D01*
X136787380Y-102894857D02*
X136739761Y-102799619D01*
X136692142Y-102752000D01*
X136596904Y-102704380D01*
X136311190Y-102704380D01*
X136215952Y-102752000D01*
X136168333Y-102799619D01*
X136120714Y-102894857D01*
X136120714Y-103037714D01*
X136168333Y-103132952D01*
X136215952Y-103180571D01*
X136311190Y-103228190D01*
X136596904Y-103228190D01*
X136692142Y-103180571D01*
X136739761Y-103132952D01*
X136787380Y-103037714D01*
X136787380Y-102894857D01*
X136787380Y-103656761D02*
X136120714Y-103656761D01*
X136215952Y-103656761D02*
X136168333Y-103704380D01*
X136120714Y-103799619D01*
X136120714Y-103942476D01*
X136168333Y-104037714D01*
X136263571Y-104085333D01*
X136787380Y-104085333D01*
X136263571Y-104085333D02*
X136168333Y-104132952D01*
X136120714Y-104228190D01*
X136120714Y-104371047D01*
X136168333Y-104466285D01*
X136263571Y-104513904D01*
X136787380Y-104513904D01*
X135739761Y-105704380D02*
X137025476Y-104847238D01*
X136787380Y-106466285D02*
X136263571Y-106466285D01*
X136168333Y-106418666D01*
X136120714Y-106323428D01*
X136120714Y-106132952D01*
X136168333Y-106037714D01*
X136739761Y-106466285D02*
X136787380Y-106371047D01*
X136787380Y-106132952D01*
X136739761Y-106037714D01*
X136644523Y-105990095D01*
X136549285Y-105990095D01*
X136454047Y-106037714D01*
X136406428Y-106132952D01*
X136406428Y-106371047D01*
X136358809Y-106466285D01*
X136120714Y-106942476D02*
X136787380Y-106942476D01*
X136215952Y-106942476D02*
X136168333Y-106990095D01*
X136120714Y-107085333D01*
X136120714Y-107228190D01*
X136168333Y-107323428D01*
X136263571Y-107371047D01*
X136787380Y-107371047D01*
X136787380Y-108275809D02*
X135787380Y-108275809D01*
X136739761Y-108275809D02*
X136787380Y-108180571D01*
X136787380Y-107990095D01*
X136739761Y-107894857D01*
X136692142Y-107847238D01*
X136596904Y-107799619D01*
X136311190Y-107799619D01*
X136215952Y-107847238D01*
X136168333Y-107894857D01*
X136120714Y-107990095D01*
X136120714Y-108180571D01*
X136168333Y-108275809D01*
X136787380Y-108752000D02*
X136120714Y-108752000D01*
X136311190Y-108752000D02*
X136215952Y-108799619D01*
X136168333Y-108847238D01*
X136120714Y-108942476D01*
X136120714Y-109037714D01*
X136739761Y-109752000D02*
X136787380Y-109656761D01*
X136787380Y-109466285D01*
X136739761Y-109371047D01*
X136644523Y-109323428D01*
X136263571Y-109323428D01*
X136168333Y-109371047D01*
X136120714Y-109466285D01*
X136120714Y-109656761D01*
X136168333Y-109752000D01*
X136263571Y-109799619D01*
X136358809Y-109799619D01*
X136454047Y-109323428D01*
X136787380Y-110656761D02*
X136263571Y-110656761D01*
X136168333Y-110609142D01*
X136120714Y-110513904D01*
X136120714Y-110323428D01*
X136168333Y-110228190D01*
X136739761Y-110656761D02*
X136787380Y-110561523D01*
X136787380Y-110323428D01*
X136739761Y-110228190D01*
X136644523Y-110180571D01*
X136549285Y-110180571D01*
X136454047Y-110228190D01*
X136406428Y-110323428D01*
X136406428Y-110561523D01*
X136358809Y-110656761D01*
X136739761Y-111085333D02*
X136787380Y-111180571D01*
X136787380Y-111371047D01*
X136739761Y-111466285D01*
X136644523Y-111513904D01*
X136596904Y-111513904D01*
X136501666Y-111466285D01*
X136454047Y-111371047D01*
X136454047Y-111228190D01*
X136406428Y-111132952D01*
X136311190Y-111085333D01*
X136263571Y-111085333D01*
X136168333Y-111132952D01*
X136120714Y-111228190D01*
X136120714Y-111371047D01*
X136168333Y-111466285D01*
X136787380Y-111942476D02*
X135787380Y-111942476D01*
X136168333Y-111942476D02*
X136120714Y-112037714D01*
X136120714Y-112228190D01*
X136168333Y-112323428D01*
X136215952Y-112371047D01*
X136311190Y-112418666D01*
X136596904Y-112418666D01*
X136692142Y-112371047D01*
X136739761Y-112323428D01*
X136787380Y-112228190D01*
X136787380Y-112037714D01*
X136739761Y-111942476D01*
X135882619Y-112799619D02*
X135835000Y-112847238D01*
X135787380Y-112942476D01*
X135787380Y-113180571D01*
X135835000Y-113275809D01*
X135882619Y-113323428D01*
X135977857Y-113371047D01*
X136073095Y-113371047D01*
X136215952Y-113323428D01*
X136787380Y-112751999D01*
X136787380Y-113371047D01*
X136120714Y-114228190D02*
X136787380Y-114228190D01*
X135739761Y-113990095D02*
X136454047Y-113751999D01*
X136454047Y-114371047D01*
X135882619Y-114704380D02*
X135835000Y-114751999D01*
X135787380Y-114847238D01*
X135787380Y-115085333D01*
X135835000Y-115180571D01*
X135882619Y-115228190D01*
X135977857Y-115275809D01*
X136073095Y-115275809D01*
X136215952Y-115228190D01*
X136787380Y-114656761D01*
X136787380Y-115275809D01*
X135739761Y-116418666D02*
X137025476Y-115561523D01*
X135787380Y-116942476D02*
X135787380Y-117132952D01*
X135835000Y-117228190D01*
X135930238Y-117323428D01*
X136120714Y-117371047D01*
X136454047Y-117371047D01*
X136644523Y-117323428D01*
X136739761Y-117228190D01*
X136787380Y-117132952D01*
X136787380Y-116942476D01*
X136739761Y-116847238D01*
X136644523Y-116751999D01*
X136454047Y-116704380D01*
X136120714Y-116704380D01*
X135930238Y-116751999D01*
X135835000Y-116847238D01*
X135787380Y-116942476D01*
X136120714Y-117799619D02*
X137120714Y-117799619D01*
X136168333Y-117799619D02*
X136120714Y-117894857D01*
X136120714Y-118085333D01*
X136168333Y-118180571D01*
X136215952Y-118228190D01*
X136311190Y-118275809D01*
X136596904Y-118275809D01*
X136692142Y-118228190D01*
X136739761Y-118180571D01*
X136787380Y-118085333D01*
X136787380Y-117894857D01*
X136739761Y-117799619D01*
X136739761Y-119085333D02*
X136787380Y-118990095D01*
X136787380Y-118799619D01*
X136739761Y-118704380D01*
X136644523Y-118656761D01*
X136263571Y-118656761D01*
X136168333Y-118704380D01*
X136120714Y-118799619D01*
X136120714Y-118990095D01*
X136168333Y-119085333D01*
X136263571Y-119132952D01*
X136358809Y-119132952D01*
X136454047Y-118656761D01*
X136120714Y-119561523D02*
X136787380Y-119561523D01*
X136215952Y-119561523D02*
X136168333Y-119609142D01*
X136120714Y-119704380D01*
X136120714Y-119847238D01*
X136168333Y-119942476D01*
X136263571Y-119990095D01*
X136787380Y-119990095D01*
X136787380Y-120466285D02*
X135787380Y-120466285D01*
X136787380Y-121037714D01*
X135787380Y-121037714D01*
X136739761Y-121894857D02*
X136787380Y-121799619D01*
X136787380Y-121609142D01*
X136739761Y-121513904D01*
X136644523Y-121466285D01*
X136263571Y-121466285D01*
X136168333Y-121513904D01*
X136120714Y-121609142D01*
X136120714Y-121799619D01*
X136168333Y-121894857D01*
X136263571Y-121942476D01*
X136358809Y-121942476D01*
X136454047Y-121466285D01*
X136120714Y-122228190D02*
X136120714Y-122609142D01*
X135787380Y-122371047D02*
X136644523Y-122371047D01*
X136739761Y-122418666D01*
X136787380Y-122513904D01*
X136787380Y-122609142D01*
X136120714Y-122847238D02*
X136787380Y-123037714D01*
X136311190Y-123228190D01*
X136787380Y-123418666D01*
X136120714Y-123609142D01*
X136787380Y-124132952D02*
X136739761Y-124037714D01*
X136692142Y-123990095D01*
X136596904Y-123942476D01*
X136311190Y-123942476D01*
X136215952Y-123990095D01*
X136168333Y-124037714D01*
X136120714Y-124132952D01*
X136120714Y-124275809D01*
X136168333Y-124371047D01*
X136215952Y-124418666D01*
X136311190Y-124466285D01*
X136596904Y-124466285D01*
X136692142Y-124418666D01*
X136739761Y-124371047D01*
X136787380Y-124275809D01*
X136787380Y-124132952D01*
X136787380Y-124894857D02*
X136120714Y-124894857D01*
X136311190Y-124894857D02*
X136215952Y-124942476D01*
X136168333Y-124990095D01*
X136120714Y-125085333D01*
X136120714Y-125180571D01*
X136787380Y-125513904D02*
X135787380Y-125513904D01*
X136406428Y-125609142D02*
X136787380Y-125894857D01*
X136120714Y-125894857D02*
X136501666Y-125513904D01*
X136501666Y-126275809D02*
X136501666Y-126751999D01*
X136787380Y-126180571D02*
X135787380Y-126513904D01*
X136787380Y-126847238D01*
X136120714Y-127180571D02*
X136787380Y-127180571D01*
X136215952Y-127180571D02*
X136168333Y-127228190D01*
X136120714Y-127323428D01*
X136120714Y-127466285D01*
X136168333Y-127561523D01*
X136263571Y-127609142D01*
X136787380Y-127609142D01*
X136787380Y-128513904D02*
X136263571Y-128513904D01*
X136168333Y-128466285D01*
X136120714Y-128371047D01*
X136120714Y-128180571D01*
X136168333Y-128085333D01*
X136739761Y-128513904D02*
X136787380Y-128418666D01*
X136787380Y-128180571D01*
X136739761Y-128085333D01*
X136644523Y-128037714D01*
X136549285Y-128037714D01*
X136454047Y-128085333D01*
X136406428Y-128180571D01*
X136406428Y-128418666D01*
X136358809Y-128513904D01*
X136787380Y-129132952D02*
X136739761Y-129037714D01*
X136644523Y-128990095D01*
X135787380Y-128990095D01*
X136120714Y-129418666D02*
X136787380Y-129656761D01*
X136120714Y-129894857D02*
X136787380Y-129656761D01*
X137025476Y-129561523D01*
X137073095Y-129513904D01*
X137120714Y-129418666D01*
X136120714Y-130180571D02*
X136120714Y-130704380D01*
X136787380Y-130180571D01*
X136787380Y-130704380D01*
X136739761Y-131466285D02*
X136787380Y-131371047D01*
X136787380Y-131180571D01*
X136739761Y-131085333D01*
X136644523Y-131037714D01*
X136263571Y-131037714D01*
X136168333Y-131085333D01*
X136120714Y-131180571D01*
X136120714Y-131371047D01*
X136168333Y-131466285D01*
X136263571Y-131513904D01*
X136358809Y-131513904D01*
X136454047Y-131037714D01*
X136787380Y-131942476D02*
X136120714Y-131942476D01*
X136311190Y-131942476D02*
X136215952Y-131990095D01*
X136168333Y-132037714D01*
X136120714Y-132132952D01*
X136120714Y-132228190D01*
X139563571Y-108299619D02*
X139611190Y-108442476D01*
X139658809Y-108490095D01*
X139754047Y-108537714D01*
X139896904Y-108537714D01*
X139992142Y-108490095D01*
X140039761Y-108442476D01*
X140087380Y-108347238D01*
X140087380Y-107966285D01*
X139087380Y-107966285D01*
X139087380Y-108299619D01*
X139135000Y-108394857D01*
X139182619Y-108442476D01*
X139277857Y-108490095D01*
X139373095Y-108490095D01*
X139468333Y-108442476D01*
X139515952Y-108394857D01*
X139563571Y-108299619D01*
X139563571Y-107966285D01*
X140087380Y-109394857D02*
X139563571Y-109394857D01*
X139468333Y-109347238D01*
X139420714Y-109252000D01*
X139420714Y-109061523D01*
X139468333Y-108966285D01*
X140039761Y-109394857D02*
X140087380Y-109299619D01*
X140087380Y-109061523D01*
X140039761Y-108966285D01*
X139944523Y-108918666D01*
X139849285Y-108918666D01*
X139754047Y-108966285D01*
X139706428Y-109061523D01*
X139706428Y-109299619D01*
X139658809Y-109394857D01*
X140039761Y-109823428D02*
X140087380Y-109918666D01*
X140087380Y-110109142D01*
X140039761Y-110204380D01*
X139944523Y-110252000D01*
X139896904Y-110252000D01*
X139801666Y-110204380D01*
X139754047Y-110109142D01*
X139754047Y-109966285D01*
X139706428Y-109871047D01*
X139611190Y-109823428D01*
X139563571Y-109823428D01*
X139468333Y-109871047D01*
X139420714Y-109966285D01*
X139420714Y-110109142D01*
X139468333Y-110204380D01*
X140039761Y-111061523D02*
X140087380Y-110966285D01*
X140087380Y-110775809D01*
X140039761Y-110680571D01*
X139944523Y-110632952D01*
X139563571Y-110632952D01*
X139468333Y-110680571D01*
X139420714Y-110775809D01*
X139420714Y-110966285D01*
X139468333Y-111061523D01*
X139563571Y-111109142D01*
X139658809Y-111109142D01*
X139754047Y-110632952D01*
X140087380Y-111966285D02*
X139087380Y-111966285D01*
X140039761Y-111966285D02*
X140087380Y-111871047D01*
X140087380Y-111680571D01*
X140039761Y-111585333D01*
X139992142Y-111537714D01*
X139896904Y-111490095D01*
X139611190Y-111490095D01*
X139515952Y-111537714D01*
X139468333Y-111585333D01*
X139420714Y-111680571D01*
X139420714Y-111871047D01*
X139468333Y-111966285D01*
X140087380Y-113347238D02*
X140039761Y-113252000D01*
X139992142Y-113204380D01*
X139896904Y-113156761D01*
X139611190Y-113156761D01*
X139515952Y-113204380D01*
X139468333Y-113252000D01*
X139420714Y-113347238D01*
X139420714Y-113490095D01*
X139468333Y-113585333D01*
X139515952Y-113632952D01*
X139611190Y-113680571D01*
X139896904Y-113680571D01*
X139992142Y-113632952D01*
X140039761Y-113585333D01*
X140087380Y-113490095D01*
X140087380Y-113347238D01*
X139420714Y-114109142D02*
X140087380Y-114109142D01*
X139515952Y-114109142D02*
X139468333Y-114156761D01*
X139420714Y-114252000D01*
X139420714Y-114394857D01*
X139468333Y-114490095D01*
X139563571Y-114537714D01*
X140087380Y-114537714D01*
X141737380Y-87228190D02*
X140737380Y-87228190D01*
X141737380Y-87656761D02*
X141213571Y-87656761D01*
X141118333Y-87609142D01*
X141070714Y-87513904D01*
X141070714Y-87371047D01*
X141118333Y-87275809D01*
X141165952Y-87228190D01*
X141070714Y-87990095D02*
X141070714Y-88371047D01*
X140737380Y-88132952D02*
X141594523Y-88132952D01*
X141689761Y-88180571D01*
X141737380Y-88275809D01*
X141737380Y-88371047D01*
X141070714Y-88561523D02*
X141070714Y-88942476D01*
X140737380Y-88704380D02*
X141594523Y-88704380D01*
X141689761Y-88752000D01*
X141737380Y-88847238D01*
X141737380Y-88942476D01*
X141070714Y-89275809D02*
X142070714Y-89275809D01*
X141118333Y-89275809D02*
X141070714Y-89371047D01*
X141070714Y-89561523D01*
X141118333Y-89656761D01*
X141165952Y-89704380D01*
X141261190Y-89752000D01*
X141546904Y-89752000D01*
X141642142Y-89704380D01*
X141689761Y-89656761D01*
X141737380Y-89561523D01*
X141737380Y-89371047D01*
X141689761Y-89275809D01*
X141689761Y-90132952D02*
X141737380Y-90228190D01*
X141737380Y-90418666D01*
X141689761Y-90513904D01*
X141594523Y-90561523D01*
X141546904Y-90561523D01*
X141451666Y-90513904D01*
X141404047Y-90418666D01*
X141404047Y-90275809D01*
X141356428Y-90180571D01*
X141261190Y-90132952D01*
X141213571Y-90132952D01*
X141118333Y-90180571D01*
X141070714Y-90275809D01*
X141070714Y-90418666D01*
X141118333Y-90513904D01*
X141642142Y-90990095D02*
X141689761Y-91037714D01*
X141737380Y-90990095D01*
X141689761Y-90942476D01*
X141642142Y-90990095D01*
X141737380Y-90990095D01*
X141118333Y-90990095D02*
X141165952Y-91037714D01*
X141213571Y-90990095D01*
X141165952Y-90942476D01*
X141118333Y-90990095D01*
X141213571Y-90990095D01*
X140689761Y-92180571D02*
X141975476Y-91323428D01*
X140689761Y-93228190D02*
X141975476Y-92371047D01*
X141737380Y-93561523D02*
X140737380Y-93561523D01*
X141737380Y-93990095D02*
X141213571Y-93990095D01*
X141118333Y-93942476D01*
X141070714Y-93847238D01*
X141070714Y-93704380D01*
X141118333Y-93609142D01*
X141165952Y-93561523D01*
X141737380Y-94894857D02*
X141213571Y-94894857D01*
X141118333Y-94847238D01*
X141070714Y-94752000D01*
X141070714Y-94561523D01*
X141118333Y-94466285D01*
X141689761Y-94894857D02*
X141737380Y-94799619D01*
X141737380Y-94561523D01*
X141689761Y-94466285D01*
X141594523Y-94418666D01*
X141499285Y-94418666D01*
X141404047Y-94466285D01*
X141356428Y-94561523D01*
X141356428Y-94799619D01*
X141308809Y-94894857D01*
X141689761Y-95799619D02*
X141737380Y-95704380D01*
X141737380Y-95513904D01*
X141689761Y-95418666D01*
X141642142Y-95371047D01*
X141546904Y-95323428D01*
X141261190Y-95323428D01*
X141165952Y-95371047D01*
X141118333Y-95418666D01*
X141070714Y-95513904D01*
X141070714Y-95704380D01*
X141118333Y-95799619D01*
X141737380Y-96228190D02*
X140737380Y-96228190D01*
X141356428Y-96323428D02*
X141737380Y-96609142D01*
X141070714Y-96609142D02*
X141451666Y-96228190D01*
X141737380Y-97466285D02*
X141213571Y-97466285D01*
X141118333Y-97418666D01*
X141070714Y-97323428D01*
X141070714Y-97132952D01*
X141118333Y-97037714D01*
X141689761Y-97466285D02*
X141737380Y-97371047D01*
X141737380Y-97132952D01*
X141689761Y-97037714D01*
X141594523Y-96990095D01*
X141499285Y-96990095D01*
X141404047Y-97037714D01*
X141356428Y-97132952D01*
X141356428Y-97371047D01*
X141308809Y-97466285D01*
X141737380Y-98371047D02*
X140737380Y-98371047D01*
X141689761Y-98371047D02*
X141737380Y-98275809D01*
X141737380Y-98085333D01*
X141689761Y-97990095D01*
X141642142Y-97942476D01*
X141546904Y-97894857D01*
X141261190Y-97894857D01*
X141165952Y-97942476D01*
X141118333Y-97990095D01*
X141070714Y-98085333D01*
X141070714Y-98275809D01*
X141118333Y-98371047D01*
X141737380Y-99275809D02*
X141213571Y-99275809D01*
X141118333Y-99228190D01*
X141070714Y-99132952D01*
X141070714Y-98942476D01*
X141118333Y-98847238D01*
X141689761Y-99275809D02*
X141737380Y-99180571D01*
X141737380Y-98942476D01*
X141689761Y-98847238D01*
X141594523Y-98799619D01*
X141499285Y-98799619D01*
X141404047Y-98847238D01*
X141356428Y-98942476D01*
X141356428Y-99180571D01*
X141308809Y-99275809D01*
X141070714Y-99656761D02*
X141737380Y-99894857D01*
X141070714Y-100132952D02*
X141737380Y-99894857D01*
X141975476Y-99799619D01*
X142023095Y-99751999D01*
X142070714Y-99656761D01*
X141642142Y-100513904D02*
X141689761Y-100561523D01*
X141737380Y-100513904D01*
X141689761Y-100466285D01*
X141642142Y-100513904D01*
X141737380Y-100513904D01*
X141737380Y-100990095D02*
X141070714Y-100990095D01*
X140737380Y-100990095D02*
X140785000Y-100942476D01*
X140832619Y-100990095D01*
X140785000Y-101037714D01*
X140737380Y-100990095D01*
X140832619Y-100990095D01*
X141737380Y-101609142D02*
X141689761Y-101513904D01*
X141642142Y-101466285D01*
X141546904Y-101418666D01*
X141261190Y-101418666D01*
X141165952Y-101466285D01*
X141118333Y-101513904D01*
X141070714Y-101609142D01*
X141070714Y-101751999D01*
X141118333Y-101847238D01*
X141165952Y-101894857D01*
X141261190Y-101942476D01*
X141546904Y-101942476D01*
X141642142Y-101894857D01*
X141689761Y-101847238D01*
X141737380Y-101751999D01*
X141737380Y-101609142D01*
X140689761Y-103085333D02*
X141975476Y-102228190D01*
X141070714Y-103418666D02*
X142070714Y-103418666D01*
X141118333Y-103418666D02*
X141070714Y-103513904D01*
X141070714Y-103704380D01*
X141118333Y-103799619D01*
X141165952Y-103847238D01*
X141261190Y-103894857D01*
X141546904Y-103894857D01*
X141642142Y-103847238D01*
X141689761Y-103799619D01*
X141737380Y-103704380D01*
X141737380Y-103513904D01*
X141689761Y-103418666D01*
X141737380Y-104323428D02*
X141070714Y-104323428D01*
X141261190Y-104323428D02*
X141165952Y-104371047D01*
X141118333Y-104418666D01*
X141070714Y-104513904D01*
X141070714Y-104609142D01*
X141737380Y-105085333D02*
X141689761Y-104990095D01*
X141642142Y-104942476D01*
X141546904Y-104894857D01*
X141261190Y-104894857D01*
X141165952Y-104942476D01*
X141118333Y-104990095D01*
X141070714Y-105085333D01*
X141070714Y-105228190D01*
X141118333Y-105323428D01*
X141165952Y-105371047D01*
X141261190Y-105418666D01*
X141546904Y-105418666D01*
X141642142Y-105371047D01*
X141689761Y-105323428D01*
X141737380Y-105228190D01*
X141737380Y-105085333D01*
X141070714Y-105847238D02*
X141927857Y-105847238D01*
X142023095Y-105799619D01*
X142070714Y-105704380D01*
X142070714Y-105656761D01*
X140737380Y-105847238D02*
X140785000Y-105799619D01*
X140832619Y-105847238D01*
X140785000Y-105894857D01*
X140737380Y-105847238D01*
X140832619Y-105847238D01*
X141689761Y-106704380D02*
X141737380Y-106609142D01*
X141737380Y-106418666D01*
X141689761Y-106323428D01*
X141594523Y-106275809D01*
X141213571Y-106275809D01*
X141118333Y-106323428D01*
X141070714Y-106418666D01*
X141070714Y-106609142D01*
X141118333Y-106704380D01*
X141213571Y-106751999D01*
X141308809Y-106751999D01*
X141404047Y-106275809D01*
X141689761Y-107609142D02*
X141737380Y-107513904D01*
X141737380Y-107323428D01*
X141689761Y-107228190D01*
X141642142Y-107180571D01*
X141546904Y-107132952D01*
X141261190Y-107132952D01*
X141165952Y-107180571D01*
X141118333Y-107228190D01*
X141070714Y-107323428D01*
X141070714Y-107513904D01*
X141118333Y-107609142D01*
X141070714Y-107894857D02*
X141070714Y-108275809D01*
X140737380Y-108037714D02*
X141594523Y-108037714D01*
X141689761Y-108085333D01*
X141737380Y-108180571D01*
X141737380Y-108275809D01*
X140689761Y-109323428D02*
X141975476Y-108466285D01*
X141737380Y-110180571D02*
X141737380Y-109609142D01*
X141737380Y-109894857D02*
X140737380Y-109894857D01*
X140880238Y-109799619D01*
X140975476Y-109704380D01*
X141023095Y-109609142D01*
X140737380Y-110799619D02*
X140737380Y-110894857D01*
X140785000Y-110990095D01*
X140832619Y-111037714D01*
X140927857Y-111085333D01*
X141118333Y-111132952D01*
X141356428Y-111132952D01*
X141546904Y-111085333D01*
X141642142Y-111037714D01*
X141689761Y-110990095D01*
X141737380Y-110894857D01*
X141737380Y-110799619D01*
X141689761Y-110704380D01*
X141642142Y-110656761D01*
X141546904Y-110609142D01*
X141356428Y-110561523D01*
X141118333Y-110561523D01*
X140927857Y-110609142D01*
X140832619Y-110656761D01*
X140785000Y-110704380D01*
X140737380Y-110799619D01*
X140737380Y-111751999D02*
X140737380Y-111847238D01*
X140785000Y-111942476D01*
X140832619Y-111990095D01*
X140927857Y-112037714D01*
X141118333Y-112085333D01*
X141356428Y-112085333D01*
X141546904Y-112037714D01*
X141642142Y-111990095D01*
X141689761Y-111942476D01*
X141737380Y-111847238D01*
X141737380Y-111751999D01*
X141689761Y-111656761D01*
X141642142Y-111609142D01*
X141546904Y-111561523D01*
X141356428Y-111513904D01*
X141118333Y-111513904D01*
X140927857Y-111561523D01*
X140832619Y-111609142D01*
X140785000Y-111656761D01*
X140737380Y-111751999D01*
X140832619Y-112466285D02*
X140785000Y-112513904D01*
X140737380Y-112609142D01*
X140737380Y-112847238D01*
X140785000Y-112942476D01*
X140832619Y-112990095D01*
X140927857Y-113037714D01*
X141023095Y-113037714D01*
X141165952Y-112990095D01*
X141737380Y-112418666D01*
X141737380Y-113037714D01*
X141737380Y-113990095D02*
X141737380Y-113418666D01*
X141737380Y-113704380D02*
X140737380Y-113704380D01*
X140880238Y-113609142D01*
X140975476Y-113513904D01*
X141023095Y-113418666D01*
X141356428Y-114418666D02*
X141356428Y-115180571D01*
X141737380Y-116085333D02*
X141213571Y-116085333D01*
X141118333Y-116037714D01*
X141070714Y-115942476D01*
X141070714Y-115751999D01*
X141118333Y-115656761D01*
X141689761Y-116085333D02*
X141737380Y-115990095D01*
X141737380Y-115751999D01*
X141689761Y-115656761D01*
X141594523Y-115609142D01*
X141499285Y-115609142D01*
X141404047Y-115656761D01*
X141356428Y-115751999D01*
X141356428Y-115990095D01*
X141308809Y-116085333D01*
X141737380Y-116561523D02*
X141070714Y-116561523D01*
X141261190Y-116561523D02*
X141165952Y-116609142D01*
X141118333Y-116656761D01*
X141070714Y-116751999D01*
X141070714Y-116847238D01*
X141737380Y-117609142D02*
X140737380Y-117609142D01*
X141689761Y-117609142D02*
X141737380Y-117513904D01*
X141737380Y-117323428D01*
X141689761Y-117228190D01*
X141642142Y-117180571D01*
X141546904Y-117132952D01*
X141261190Y-117132952D01*
X141165952Y-117180571D01*
X141118333Y-117228190D01*
X141070714Y-117323428D01*
X141070714Y-117513904D01*
X141118333Y-117609142D01*
X141070714Y-118513904D02*
X141737380Y-118513904D01*
X141070714Y-118085333D02*
X141594523Y-118085333D01*
X141689761Y-118132952D01*
X141737380Y-118228190D01*
X141737380Y-118371047D01*
X141689761Y-118466285D01*
X141642142Y-118513904D01*
X141737380Y-118990095D02*
X141070714Y-118990095D01*
X140737380Y-118990095D02*
X140785000Y-118942476D01*
X140832619Y-118990095D01*
X140785000Y-119037714D01*
X140737380Y-118990095D01*
X140832619Y-118990095D01*
X141070714Y-119466285D02*
X141737380Y-119466285D01*
X141165952Y-119466285D02*
X141118333Y-119513904D01*
X141070714Y-119609142D01*
X141070714Y-119751999D01*
X141118333Y-119847238D01*
X141213571Y-119894857D01*
X141737380Y-119894857D01*
X141737380Y-120513904D02*
X141689761Y-120418666D01*
X141642142Y-120371047D01*
X141546904Y-120323428D01*
X141261190Y-120323428D01*
X141165952Y-120371047D01*
X141118333Y-120418666D01*
X141070714Y-120513904D01*
X141070714Y-120656761D01*
X141118333Y-120751999D01*
X141165952Y-120799619D01*
X141261190Y-120847238D01*
X141546904Y-120847238D01*
X141642142Y-120799619D01*
X141689761Y-120751999D01*
X141737380Y-120656761D01*
X141737380Y-120513904D01*
X141356428Y-121275809D02*
X141356428Y-122037714D01*
X141070714Y-122513904D02*
X141737380Y-122513904D01*
X141165952Y-122513904D02*
X141118333Y-122561523D01*
X141070714Y-122656761D01*
X141070714Y-122799619D01*
X141118333Y-122894857D01*
X141213571Y-122942476D01*
X141737380Y-122942476D01*
X141689761Y-123799619D02*
X141737380Y-123704380D01*
X141737380Y-123513904D01*
X141689761Y-123418666D01*
X141594523Y-123371047D01*
X141213571Y-123371047D01*
X141118333Y-123418666D01*
X141070714Y-123513904D01*
X141070714Y-123704380D01*
X141118333Y-123799619D01*
X141213571Y-123847238D01*
X141308809Y-123847238D01*
X141404047Y-123371047D01*
X141070714Y-124132952D02*
X141070714Y-124513904D01*
X140737380Y-124275809D02*
X141594523Y-124275809D01*
X141689761Y-124323428D01*
X141737380Y-124418666D01*
X141737380Y-124513904D01*
X141070714Y-124751999D02*
X141737380Y-124942476D01*
X141261190Y-125132952D01*
X141737380Y-125323428D01*
X141070714Y-125513904D01*
X141737380Y-126037714D02*
X141689761Y-125942476D01*
X141642142Y-125894857D01*
X141546904Y-125847238D01*
X141261190Y-125847238D01*
X141165952Y-125894857D01*
X141118333Y-125942476D01*
X141070714Y-126037714D01*
X141070714Y-126180571D01*
X141118333Y-126275809D01*
X141165952Y-126323428D01*
X141261190Y-126371047D01*
X141546904Y-126371047D01*
X141642142Y-126323428D01*
X141689761Y-126275809D01*
X141737380Y-126180571D01*
X141737380Y-126037714D01*
X141737380Y-126799619D02*
X141070714Y-126799619D01*
X141261190Y-126799619D02*
X141165952Y-126847238D01*
X141118333Y-126894857D01*
X141070714Y-126990095D01*
X141070714Y-127085333D01*
X141737380Y-127418666D02*
X140737380Y-127418666D01*
X141356428Y-127513904D02*
X141737380Y-127799619D01*
X141070714Y-127799619D02*
X141451666Y-127418666D01*
X141356428Y-128228190D02*
X141356428Y-128990095D01*
X141737380Y-129894857D02*
X141213571Y-129894857D01*
X141118333Y-129847238D01*
X141070714Y-129751999D01*
X141070714Y-129561523D01*
X141118333Y-129466285D01*
X141689761Y-129894857D02*
X141737380Y-129799619D01*
X141737380Y-129561523D01*
X141689761Y-129466285D01*
X141594523Y-129418666D01*
X141499285Y-129418666D01*
X141404047Y-129466285D01*
X141356428Y-129561523D01*
X141356428Y-129799619D01*
X141308809Y-129894857D01*
X141070714Y-130371047D02*
X141737380Y-130371047D01*
X141165952Y-130371047D02*
X141118333Y-130418666D01*
X141070714Y-130513904D01*
X141070714Y-130656761D01*
X141118333Y-130751999D01*
X141213571Y-130799619D01*
X141737380Y-130799619D01*
X141737380Y-131704380D02*
X141213571Y-131704380D01*
X141118333Y-131656761D01*
X141070714Y-131561523D01*
X141070714Y-131371047D01*
X141118333Y-131275809D01*
X141689761Y-131704380D02*
X141737380Y-131609142D01*
X141737380Y-131371047D01*
X141689761Y-131275809D01*
X141594523Y-131228190D01*
X141499285Y-131228190D01*
X141404047Y-131275809D01*
X141356428Y-131371047D01*
X141356428Y-131609142D01*
X141308809Y-131704380D01*
X141737380Y-132323428D02*
X141689761Y-132228190D01*
X141594523Y-132180571D01*
X140737380Y-132180571D01*
X141070714Y-132609142D02*
X141737380Y-132847238D01*
X141070714Y-133085333D02*
X141737380Y-132847238D01*
X141975476Y-132751999D01*
X142023095Y-132704380D01*
X142070714Y-132609142D01*
X141070714Y-133371047D02*
X141070714Y-133894857D01*
X141737380Y-133371047D01*
X141737380Y-133894857D01*
X141689761Y-134656761D02*
X141737380Y-134561523D01*
X141737380Y-134371047D01*
X141689761Y-134275809D01*
X141594523Y-134228190D01*
X141213571Y-134228190D01*
X141118333Y-134275809D01*
X141070714Y-134371047D01*
X141070714Y-134561523D01*
X141118333Y-134656761D01*
X141213571Y-134704380D01*
X141308809Y-134704380D01*
X141404047Y-134228190D01*
X141737380Y-135132952D02*
X141070714Y-135132952D01*
X141261190Y-135132952D02*
X141165952Y-135180571D01*
X141118333Y-135228190D01*
X141070714Y-135323428D01*
X141070714Y-135418666D01*
D11*
G04 #@! TO.C,REF\002A\002A*
G36*
X151293337Y-116107256D02*
X151409066Y-116106433D01*
X152019000Y-115506115D01*
X152628934Y-114905796D01*
X152908835Y-114905359D01*
X153188737Y-114904921D01*
X153188737Y-114539337D01*
X153259756Y-114529917D01*
X153292127Y-114526350D01*
X153353087Y-114520338D01*
X153438998Y-114512201D01*
X153546226Y-114502262D01*
X153671133Y-114490843D01*
X153810083Y-114478264D01*
X153959441Y-114464847D01*
X154115568Y-114450915D01*
X154274830Y-114436788D01*
X154433590Y-114422788D01*
X154588211Y-114409237D01*
X154735057Y-114396456D01*
X154870493Y-114384767D01*
X154990880Y-114374492D01*
X155092584Y-114365952D01*
X155171967Y-114359469D01*
X155225394Y-114355364D01*
X155249229Y-114353959D01*
X155249342Y-114353960D01*
X155268466Y-114364204D01*
X155307955Y-114394974D01*
X155368266Y-114446689D01*
X155449861Y-114519767D01*
X155553198Y-114614627D01*
X155678738Y-114731687D01*
X155826940Y-114871367D01*
X155998263Y-115034084D01*
X156046237Y-115079821D01*
X156806566Y-115805195D01*
X156865052Y-115746551D01*
X156923539Y-115687908D01*
X156820310Y-115593026D01*
X156783003Y-115558315D01*
X156725311Y-115504094D01*
X156651013Y-115433941D01*
X156563889Y-115351432D01*
X156467718Y-115260145D01*
X156366280Y-115163658D01*
X156305695Y-115105935D01*
X156192197Y-114997566D01*
X156101285Y-114909972D01*
X156031307Y-114840920D01*
X155980610Y-114788176D01*
X155947540Y-114749506D01*
X155930444Y-114722677D01*
X155927669Y-114705456D01*
X155937563Y-114695608D01*
X155958471Y-114690901D01*
X155988741Y-114689101D01*
X155997002Y-114688859D01*
X156053909Y-114676342D01*
X156122693Y-114645503D01*
X156192475Y-114602497D01*
X156252378Y-114553480D01*
X156270882Y-114533866D01*
X156335628Y-114433230D01*
X156371854Y-114315673D01*
X156380447Y-114211738D01*
X156364239Y-114093951D01*
X156316712Y-113985169D01*
X156239511Y-113888890D01*
X156220295Y-113871125D01*
X156146500Y-113806168D01*
X156146500Y-112682421D01*
X156380447Y-112682421D01*
X156380447Y-112381632D01*
X156271152Y-112381632D01*
X156196539Y-112377857D01*
X156144750Y-112365175D01*
X156116580Y-112349763D01*
X156096424Y-112338750D01*
X156067200Y-112329321D01*
X156024575Y-112320849D01*
X155964217Y-112312710D01*
X155881793Y-112304279D01*
X155772972Y-112294932D01*
X155692017Y-112288531D01*
X155312732Y-112259169D01*
X156042938Y-111538341D01*
X156175066Y-111408008D01*
X156302096Y-111282892D01*
X156421695Y-111165279D01*
X156531528Y-111057455D01*
X156629263Y-110961705D01*
X156712566Y-110880317D01*
X156779104Y-110815577D01*
X156826542Y-110769770D01*
X156852520Y-110745208D01*
X156893649Y-110704855D01*
X156922335Y-110671195D01*
X156931895Y-110653090D01*
X156920697Y-110629965D01*
X156892719Y-110596257D01*
X156881326Y-110584831D01*
X156830757Y-110536383D01*
X156559702Y-110803119D01*
X156490652Y-110871169D01*
X156401774Y-110958915D01*
X156296959Y-111062508D01*
X156180097Y-111178100D01*
X156055079Y-111301841D01*
X155925795Y-111429881D01*
X155796136Y-111558372D01*
X155703179Y-111650546D01*
X155561520Y-111790658D01*
X155441591Y-111908368D01*
X155341768Y-112005180D01*
X155260428Y-112082601D01*
X155195948Y-112142136D01*
X155162277Y-112171642D01*
X155162277Y-112408591D01*
X155541592Y-112438257D01*
X155652777Y-112447203D01*
X155754453Y-112455858D01*
X155841304Y-112463729D01*
X155908018Y-112470328D01*
X155949279Y-112475164D01*
X155958506Y-112476720D01*
X155996105Y-112485518D01*
X155996105Y-113747319D01*
X155891173Y-113755742D01*
X155767195Y-113781172D01*
X155657524Y-113834389D01*
X155566156Y-113912037D01*
X155497083Y-114010763D01*
X155455620Y-114121572D01*
X155436171Y-114157520D01*
X155394430Y-114175517D01*
X155392589Y-114175894D01*
X155374967Y-114178053D01*
X155356922Y-114175384D01*
X155335108Y-114165280D01*
X155306177Y-114145137D01*
X155266783Y-114112349D01*
X155213577Y-114064310D01*
X155143214Y-113998416D01*
X155052346Y-113912060D01*
X155046493Y-113906480D01*
X154948956Y-113813595D01*
X154845067Y-113714845D01*
X154741977Y-113617016D01*
X154646839Y-113526893D01*
X154566804Y-113451262D01*
X154548911Y-113434395D01*
X154481444Y-113369735D01*
X154423709Y-113312295D01*
X154379675Y-113266199D01*
X154353314Y-113235569D01*
X154347521Y-113225285D01*
X154359646Y-113209948D01*
X154392910Y-113174083D01*
X154444542Y-113120512D01*
X154511775Y-113052060D01*
X154591837Y-112971553D01*
X154681961Y-112881813D01*
X154756198Y-112808468D01*
X155162277Y-112408591D01*
X155162277Y-112171642D01*
X155146703Y-112185291D01*
X155111071Y-112213571D01*
X155087429Y-112228483D01*
X155076480Y-112231801D01*
X155052586Y-112230544D01*
X154998501Y-112226726D01*
X154917338Y-112220593D01*
X154812210Y-112212393D01*
X154686228Y-112202373D01*
X154542505Y-112190780D01*
X154384154Y-112177860D01*
X154214287Y-112163862D01*
X154078528Y-112152581D01*
X153313106Y-112088750D01*
X153313106Y-112252996D01*
X153329624Y-112253703D01*
X153376145Y-112257031D01*
X153449378Y-112262710D01*
X153546028Y-112270474D01*
X153662805Y-112280057D01*
X153796414Y-112291189D01*
X153943563Y-112303605D01*
X154083271Y-112315520D01*
X154241787Y-112329016D01*
X154391421Y-112341587D01*
X154528602Y-112352945D01*
X154649759Y-112362802D01*
X154751320Y-112370870D01*
X154829712Y-112376860D01*
X154881363Y-112380485D01*
X154901423Y-112381491D01*
X154913908Y-112383060D01*
X154918862Y-112389278D01*
X154914218Y-112402541D01*
X154897909Y-112425247D01*
X154867868Y-112459792D01*
X154822027Y-112508573D01*
X154758320Y-112573987D01*
X154674679Y-112658431D01*
X154585299Y-112748029D01*
X154219186Y-113114426D01*
X154216434Y-113111859D01*
X154216434Y-113354049D01*
X154231550Y-113365087D01*
X154267142Y-113395987D01*
X154319941Y-113443653D01*
X154386673Y-113504987D01*
X154464070Y-113576893D01*
X154548858Y-113656273D01*
X154637767Y-113740031D01*
X154727526Y-113825070D01*
X154814864Y-113908292D01*
X154896509Y-113986601D01*
X154969191Y-114056900D01*
X155029637Y-114116091D01*
X155074578Y-114161078D01*
X155100742Y-114188764D01*
X155106072Y-114196314D01*
X155088867Y-114198803D01*
X155041348Y-114203970D01*
X154966489Y-114211530D01*
X154867264Y-114221200D01*
X154746649Y-114232695D01*
X154607618Y-114245731D01*
X154453145Y-114260024D01*
X154286206Y-114275290D01*
X154151597Y-114287479D01*
X153977054Y-114303071D01*
X153812627Y-114317477D01*
X153661299Y-114330453D01*
X153526053Y-114341759D01*
X153409870Y-114351152D01*
X153315735Y-114358389D01*
X153246630Y-114363228D01*
X153205538Y-114365427D01*
X153194868Y-114365176D01*
X153204372Y-114352030D01*
X153234920Y-114318554D01*
X153283556Y-114267674D01*
X153347323Y-114202317D01*
X153423265Y-114125409D01*
X153508424Y-114039876D01*
X153599845Y-113948646D01*
X153694569Y-113854644D01*
X153789641Y-113760798D01*
X153882103Y-113670033D01*
X153968999Y-113585277D01*
X154047372Y-113509456D01*
X154114265Y-113445497D01*
X154166722Y-113396326D01*
X154201785Y-113364869D01*
X154216434Y-113354049D01*
X154216434Y-113111859D01*
X154072760Y-112977798D01*
X153998448Y-112908216D01*
X153915483Y-112830119D01*
X153827102Y-112746594D01*
X153736541Y-112660730D01*
X153647036Y-112575615D01*
X153561823Y-112494336D01*
X153484139Y-112419981D01*
X153417220Y-112355637D01*
X153364303Y-112304394D01*
X153328623Y-112269337D01*
X153313416Y-112253556D01*
X153313106Y-112252996D01*
X153313106Y-112088750D01*
X153121807Y-112072796D01*
X152282485Y-111274714D01*
X151443164Y-110476632D01*
X151325852Y-110477219D01*
X151208539Y-110477806D01*
X151346253Y-110606725D01*
X151423063Y-110678876D01*
X151513304Y-110764060D01*
X151614575Y-110859979D01*
X151724476Y-110964334D01*
X151840604Y-111074826D01*
X151960558Y-111189156D01*
X152081936Y-111305025D01*
X152202338Y-111420135D01*
X152319362Y-111532186D01*
X152430606Y-111638881D01*
X152533669Y-111737920D01*
X152626150Y-111827003D01*
X152705647Y-111903834D01*
X152769758Y-111966112D01*
X152816083Y-112011538D01*
X152842219Y-112037815D01*
X152847233Y-112043574D01*
X152829791Y-112043970D01*
X152785135Y-112041792D01*
X152719340Y-112037417D01*
X152638483Y-112031225D01*
X152606183Y-112028567D01*
X152369921Y-112008772D01*
X152369921Y-112163758D01*
X152407520Y-112171760D01*
X152437255Y-112175840D01*
X152493203Y-112181575D01*
X152568236Y-112188299D01*
X152655225Y-112195352D01*
X152687421Y-112197793D01*
X152779861Y-112204992D01*
X152865707Y-112212258D01*
X152936847Y-112218864D01*
X152985169Y-112224084D01*
X152993939Y-112225261D01*
X153011942Y-112229702D01*
X153033017Y-112239313D01*
X153059525Y-112256140D01*
X153093828Y-112282225D01*
X153138289Y-112319613D01*
X153195271Y-112370346D01*
X153267136Y-112436470D01*
X153356246Y-112520026D01*
X153464964Y-112623060D01*
X153575275Y-112728167D01*
X153684441Y-112832738D01*
X153785540Y-112930351D01*
X153876115Y-113018578D01*
X153953708Y-113094988D01*
X154015862Y-113157151D01*
X154060118Y-113202637D01*
X154084018Y-113229017D01*
X154087574Y-113234643D01*
X154074681Y-113249443D01*
X154041060Y-113284039D01*
X153990082Y-113335071D01*
X153925120Y-113399183D01*
X153849548Y-113473016D01*
X153794493Y-113526411D01*
X153506237Y-113805173D01*
X153506237Y-112983210D01*
X153188737Y-112983210D01*
X153188737Y-113985842D01*
X153330206Y-113985842D01*
X153146960Y-114169658D01*
X153016971Y-114300052D01*
X153016971Y-114554000D01*
X153037477Y-114556429D01*
X153048902Y-114568724D01*
X153053880Y-114598396D01*
X153055044Y-114652955D01*
X153055052Y-114662618D01*
X153055052Y-114771237D01*
X152763584Y-114771237D01*
X152871237Y-114662618D01*
X152936687Y-114601346D01*
X152986829Y-114564699D01*
X153016971Y-114554000D01*
X153016971Y-114300052D01*
X152963715Y-114353474D01*
X152800502Y-114353474D01*
X152725414Y-114353985D01*
X152677645Y-114356328D01*
X152651098Y-114361711D01*
X152639679Y-114371344D01*
X152637289Y-114385871D01*
X152633780Y-114402027D01*
X152619711Y-114413969D01*
X152589769Y-114423139D01*
X152538642Y-114430982D01*
X152461017Y-114438942D01*
X152432585Y-114441496D01*
X152369921Y-114447026D01*
X152369921Y-112163758D01*
X152369921Y-112008772D01*
X152369921Y-111796763D01*
X152219526Y-111796763D01*
X152219526Y-111886859D01*
X152218083Y-111939555D01*
X152211116Y-111968188D01*
X152206970Y-111971691D01*
X152206970Y-112156234D01*
X152216442Y-112165946D01*
X152219366Y-112199588D01*
X152219526Y-112222294D01*
X152219526Y-112298079D01*
X152219526Y-112580694D01*
X152219526Y-114460519D01*
X152154413Y-114396938D01*
X152074062Y-114298186D01*
X152012089Y-114175968D01*
X151967646Y-114028213D01*
X151943065Y-113881401D01*
X151931596Y-113785316D01*
X152052421Y-113785316D01*
X152052421Y-113016632D01*
X151915345Y-113016632D01*
X151926776Y-112903835D01*
X151936425Y-112825025D01*
X151949214Y-112741057D01*
X151958348Y-112690776D01*
X151978488Y-112590513D01*
X152099007Y-112585603D01*
X152219526Y-112580694D01*
X152219526Y-112298079D01*
X152152684Y-112298079D01*
X152110810Y-112295869D01*
X152087536Y-112290350D01*
X152085842Y-112288126D01*
X152096560Y-112263387D01*
X152122563Y-112227243D01*
X152154623Y-112191010D01*
X152183511Y-112166001D01*
X152187267Y-112163773D01*
X152206970Y-112156234D01*
X152206970Y-111971691D01*
X152194674Y-111982081D01*
X152176762Y-111987689D01*
X152130279Y-112010578D01*
X152074400Y-112054540D01*
X152016960Y-112112011D01*
X151965793Y-112175427D01*
X151939143Y-112217082D01*
X151909972Y-112264534D01*
X151885467Y-112288859D01*
X151856572Y-112297405D01*
X151839362Y-112298062D01*
X151835184Y-112298063D01*
X151835184Y-113150316D01*
X151918737Y-113150316D01*
X151918737Y-113651632D01*
X151835184Y-113651632D01*
X151835184Y-113150316D01*
X151835184Y-112298063D01*
X151785052Y-112298079D01*
X151785052Y-112438726D01*
X151786617Y-112503436D01*
X151790785Y-112553870D01*
X151796773Y-112581906D01*
X151799197Y-112584943D01*
X151802918Y-112602727D01*
X151801394Y-112646008D01*
X151795075Y-112707349D01*
X151789240Y-112749263D01*
X151777778Y-112825263D01*
X151767430Y-112894770D01*
X151759796Y-112947003D01*
X151757627Y-112962322D01*
X151745232Y-113002347D01*
X151725808Y-113016632D01*
X151717898Y-113020975D01*
X151711863Y-113036510D01*
X151707466Y-113066999D01*
X151704469Y-113116200D01*
X151702635Y-113187874D01*
X151701725Y-113285781D01*
X151701500Y-113400974D01*
X151701628Y-113523914D01*
X151702230Y-113617441D01*
X151703639Y-113685560D01*
X151706181Y-113732281D01*
X151710189Y-113761609D01*
X151715991Y-113777551D01*
X151723917Y-113784115D01*
X151733133Y-113785316D01*
X151762385Y-113795540D01*
X151779031Y-113829030D01*
X151784968Y-113890012D01*
X151785052Y-113900983D01*
X151795706Y-114004254D01*
X151825033Y-114121547D01*
X151869084Y-114242285D01*
X151923911Y-114355889D01*
X151985564Y-114451781D01*
X151995332Y-114464201D01*
X152027115Y-114504682D01*
X152039844Y-114528655D01*
X152035729Y-114545396D01*
X152018750Y-114562581D01*
X151985492Y-114613336D01*
X151972725Y-114679393D01*
X151979365Y-114750526D01*
X152004327Y-114816514D01*
X152046529Y-114867132D01*
X152051434Y-114870797D01*
X152130211Y-114908672D01*
X152211754Y-114915719D01*
X152289487Y-114892715D01*
X152356835Y-114840437D01*
X152362396Y-114834044D01*
X152388813Y-114796927D01*
X152400447Y-114759267D01*
X152401287Y-114706324D01*
X152400542Y-114693098D01*
X152398641Y-114641297D01*
X152402996Y-114614614D01*
X152416138Y-114604955D01*
X152428408Y-114603963D01*
X152464002Y-114601939D01*
X152517533Y-114596914D01*
X152549559Y-114593303D01*
X152600427Y-114588066D01*
X152626468Y-114590244D01*
X152635986Y-114602875D01*
X152637289Y-114625375D01*
X152632986Y-114638718D01*
X152619057Y-114660244D01*
X152593977Y-114691548D01*
X152556219Y-114734224D01*
X152504256Y-114789868D01*
X152436562Y-114860075D01*
X152351611Y-114946440D01*
X152247875Y-115050558D01*
X152123828Y-115174025D01*
X151977944Y-115318436D01*
X151907449Y-115388031D01*
X151177610Y-116108079D01*
X151293337Y-116107256D01*
X151293337Y-116107256D01*
G37*
X151293337Y-116107256D02*
X151409066Y-116106433D01*
X152019000Y-115506115D01*
X152628934Y-114905796D01*
X152908835Y-114905359D01*
X153188737Y-114904921D01*
X153188737Y-114539337D01*
X153259756Y-114529917D01*
X153292127Y-114526350D01*
X153353087Y-114520338D01*
X153438998Y-114512201D01*
X153546226Y-114502262D01*
X153671133Y-114490843D01*
X153810083Y-114478264D01*
X153959441Y-114464847D01*
X154115568Y-114450915D01*
X154274830Y-114436788D01*
X154433590Y-114422788D01*
X154588211Y-114409237D01*
X154735057Y-114396456D01*
X154870493Y-114384767D01*
X154990880Y-114374492D01*
X155092584Y-114365952D01*
X155171967Y-114359469D01*
X155225394Y-114355364D01*
X155249229Y-114353959D01*
X155249342Y-114353960D01*
X155268466Y-114364204D01*
X155307955Y-114394974D01*
X155368266Y-114446689D01*
X155449861Y-114519767D01*
X155553198Y-114614627D01*
X155678738Y-114731687D01*
X155826940Y-114871367D01*
X155998263Y-115034084D01*
X156046237Y-115079821D01*
X156806566Y-115805195D01*
X156865052Y-115746551D01*
X156923539Y-115687908D01*
X156820310Y-115593026D01*
X156783003Y-115558315D01*
X156725311Y-115504094D01*
X156651013Y-115433941D01*
X156563889Y-115351432D01*
X156467718Y-115260145D01*
X156366280Y-115163658D01*
X156305695Y-115105935D01*
X156192197Y-114997566D01*
X156101285Y-114909972D01*
X156031307Y-114840920D01*
X155980610Y-114788176D01*
X155947540Y-114749506D01*
X155930444Y-114722677D01*
X155927669Y-114705456D01*
X155937563Y-114695608D01*
X155958471Y-114690901D01*
X155988741Y-114689101D01*
X155997002Y-114688859D01*
X156053909Y-114676342D01*
X156122693Y-114645503D01*
X156192475Y-114602497D01*
X156252378Y-114553480D01*
X156270882Y-114533866D01*
X156335628Y-114433230D01*
X156371854Y-114315673D01*
X156380447Y-114211738D01*
X156364239Y-114093951D01*
X156316712Y-113985169D01*
X156239511Y-113888890D01*
X156220295Y-113871125D01*
X156146500Y-113806168D01*
X156146500Y-112682421D01*
X156380447Y-112682421D01*
X156380447Y-112381632D01*
X156271152Y-112381632D01*
X156196539Y-112377857D01*
X156144750Y-112365175D01*
X156116580Y-112349763D01*
X156096424Y-112338750D01*
X156067200Y-112329321D01*
X156024575Y-112320849D01*
X155964217Y-112312710D01*
X155881793Y-112304279D01*
X155772972Y-112294932D01*
X155692017Y-112288531D01*
X155312732Y-112259169D01*
X156042938Y-111538341D01*
X156175066Y-111408008D01*
X156302096Y-111282892D01*
X156421695Y-111165279D01*
X156531528Y-111057455D01*
X156629263Y-110961705D01*
X156712566Y-110880317D01*
X156779104Y-110815577D01*
X156826542Y-110769770D01*
X156852520Y-110745208D01*
X156893649Y-110704855D01*
X156922335Y-110671195D01*
X156931895Y-110653090D01*
X156920697Y-110629965D01*
X156892719Y-110596257D01*
X156881326Y-110584831D01*
X156830757Y-110536383D01*
X156559702Y-110803119D01*
X156490652Y-110871169D01*
X156401774Y-110958915D01*
X156296959Y-111062508D01*
X156180097Y-111178100D01*
X156055079Y-111301841D01*
X155925795Y-111429881D01*
X155796136Y-111558372D01*
X155703179Y-111650546D01*
X155561520Y-111790658D01*
X155441591Y-111908368D01*
X155341768Y-112005180D01*
X155260428Y-112082601D01*
X155195948Y-112142136D01*
X155162277Y-112171642D01*
X155162277Y-112408591D01*
X155541592Y-112438257D01*
X155652777Y-112447203D01*
X155754453Y-112455858D01*
X155841304Y-112463729D01*
X155908018Y-112470328D01*
X155949279Y-112475164D01*
X155958506Y-112476720D01*
X155996105Y-112485518D01*
X155996105Y-113747319D01*
X155891173Y-113755742D01*
X155767195Y-113781172D01*
X155657524Y-113834389D01*
X155566156Y-113912037D01*
X155497083Y-114010763D01*
X155455620Y-114121572D01*
X155436171Y-114157520D01*
X155394430Y-114175517D01*
X155392589Y-114175894D01*
X155374967Y-114178053D01*
X155356922Y-114175384D01*
X155335108Y-114165280D01*
X155306177Y-114145137D01*
X155266783Y-114112349D01*
X155213577Y-114064310D01*
X155143214Y-113998416D01*
X155052346Y-113912060D01*
X155046493Y-113906480D01*
X154948956Y-113813595D01*
X154845067Y-113714845D01*
X154741977Y-113617016D01*
X154646839Y-113526893D01*
X154566804Y-113451262D01*
X154548911Y-113434395D01*
X154481444Y-113369735D01*
X154423709Y-113312295D01*
X154379675Y-113266199D01*
X154353314Y-113235569D01*
X154347521Y-113225285D01*
X154359646Y-113209948D01*
X154392910Y-113174083D01*
X154444542Y-113120512D01*
X154511775Y-113052060D01*
X154591837Y-112971553D01*
X154681961Y-112881813D01*
X154756198Y-112808468D01*
X155162277Y-112408591D01*
X155162277Y-112171642D01*
X155146703Y-112185291D01*
X155111071Y-112213571D01*
X155087429Y-112228483D01*
X155076480Y-112231801D01*
X155052586Y-112230544D01*
X154998501Y-112226726D01*
X154917338Y-112220593D01*
X154812210Y-112212393D01*
X154686228Y-112202373D01*
X154542505Y-112190780D01*
X154384154Y-112177860D01*
X154214287Y-112163862D01*
X154078528Y-112152581D01*
X153313106Y-112088750D01*
X153313106Y-112252996D01*
X153329624Y-112253703D01*
X153376145Y-112257031D01*
X153449378Y-112262710D01*
X153546028Y-112270474D01*
X153662805Y-112280057D01*
X153796414Y-112291189D01*
X153943563Y-112303605D01*
X154083271Y-112315520D01*
X154241787Y-112329016D01*
X154391421Y-112341587D01*
X154528602Y-112352945D01*
X154649759Y-112362802D01*
X154751320Y-112370870D01*
X154829712Y-112376860D01*
X154881363Y-112380485D01*
X154901423Y-112381491D01*
X154913908Y-112383060D01*
X154918862Y-112389278D01*
X154914218Y-112402541D01*
X154897909Y-112425247D01*
X154867868Y-112459792D01*
X154822027Y-112508573D01*
X154758320Y-112573987D01*
X154674679Y-112658431D01*
X154585299Y-112748029D01*
X154219186Y-113114426D01*
X154216434Y-113111859D01*
X154216434Y-113354049D01*
X154231550Y-113365087D01*
X154267142Y-113395987D01*
X154319941Y-113443653D01*
X154386673Y-113504987D01*
X154464070Y-113576893D01*
X154548858Y-113656273D01*
X154637767Y-113740031D01*
X154727526Y-113825070D01*
X154814864Y-113908292D01*
X154896509Y-113986601D01*
X154969191Y-114056900D01*
X155029637Y-114116091D01*
X155074578Y-114161078D01*
X155100742Y-114188764D01*
X155106072Y-114196314D01*
X155088867Y-114198803D01*
X155041348Y-114203970D01*
X154966489Y-114211530D01*
X154867264Y-114221200D01*
X154746649Y-114232695D01*
X154607618Y-114245731D01*
X154453145Y-114260024D01*
X154286206Y-114275290D01*
X154151597Y-114287479D01*
X153977054Y-114303071D01*
X153812627Y-114317477D01*
X153661299Y-114330453D01*
X153526053Y-114341759D01*
X153409870Y-114351152D01*
X153315735Y-114358389D01*
X153246630Y-114363228D01*
X153205538Y-114365427D01*
X153194868Y-114365176D01*
X153204372Y-114352030D01*
X153234920Y-114318554D01*
X153283556Y-114267674D01*
X153347323Y-114202317D01*
X153423265Y-114125409D01*
X153508424Y-114039876D01*
X153599845Y-113948646D01*
X153694569Y-113854644D01*
X153789641Y-113760798D01*
X153882103Y-113670033D01*
X153968999Y-113585277D01*
X154047372Y-113509456D01*
X154114265Y-113445497D01*
X154166722Y-113396326D01*
X154201785Y-113364869D01*
X154216434Y-113354049D01*
X154216434Y-113111859D01*
X154072760Y-112977798D01*
X153998448Y-112908216D01*
X153915483Y-112830119D01*
X153827102Y-112746594D01*
X153736541Y-112660730D01*
X153647036Y-112575615D01*
X153561823Y-112494336D01*
X153484139Y-112419981D01*
X153417220Y-112355637D01*
X153364303Y-112304394D01*
X153328623Y-112269337D01*
X153313416Y-112253556D01*
X153313106Y-112252996D01*
X153313106Y-112088750D01*
X153121807Y-112072796D01*
X152282485Y-111274714D01*
X151443164Y-110476632D01*
X151325852Y-110477219D01*
X151208539Y-110477806D01*
X151346253Y-110606725D01*
X151423063Y-110678876D01*
X151513304Y-110764060D01*
X151614575Y-110859979D01*
X151724476Y-110964334D01*
X151840604Y-111074826D01*
X151960558Y-111189156D01*
X152081936Y-111305025D01*
X152202338Y-111420135D01*
X152319362Y-111532186D01*
X152430606Y-111638881D01*
X152533669Y-111737920D01*
X152626150Y-111827003D01*
X152705647Y-111903834D01*
X152769758Y-111966112D01*
X152816083Y-112011538D01*
X152842219Y-112037815D01*
X152847233Y-112043574D01*
X152829791Y-112043970D01*
X152785135Y-112041792D01*
X152719340Y-112037417D01*
X152638483Y-112031225D01*
X152606183Y-112028567D01*
X152369921Y-112008772D01*
X152369921Y-112163758D01*
X152407520Y-112171760D01*
X152437255Y-112175840D01*
X152493203Y-112181575D01*
X152568236Y-112188299D01*
X152655225Y-112195352D01*
X152687421Y-112197793D01*
X152779861Y-112204992D01*
X152865707Y-112212258D01*
X152936847Y-112218864D01*
X152985169Y-112224084D01*
X152993939Y-112225261D01*
X153011942Y-112229702D01*
X153033017Y-112239313D01*
X153059525Y-112256140D01*
X153093828Y-112282225D01*
X153138289Y-112319613D01*
X153195271Y-112370346D01*
X153267136Y-112436470D01*
X153356246Y-112520026D01*
X153464964Y-112623060D01*
X153575275Y-112728167D01*
X153684441Y-112832738D01*
X153785540Y-112930351D01*
X153876115Y-113018578D01*
X153953708Y-113094988D01*
X154015862Y-113157151D01*
X154060118Y-113202637D01*
X154084018Y-113229017D01*
X154087574Y-113234643D01*
X154074681Y-113249443D01*
X154041060Y-113284039D01*
X153990082Y-113335071D01*
X153925120Y-113399183D01*
X153849548Y-113473016D01*
X153794493Y-113526411D01*
X153506237Y-113805173D01*
X153506237Y-112983210D01*
X153188737Y-112983210D01*
X153188737Y-113985842D01*
X153330206Y-113985842D01*
X153146960Y-114169658D01*
X153016971Y-114300052D01*
X153016971Y-114554000D01*
X153037477Y-114556429D01*
X153048902Y-114568724D01*
X153053880Y-114598396D01*
X153055044Y-114652955D01*
X153055052Y-114662618D01*
X153055052Y-114771237D01*
X152763584Y-114771237D01*
X152871237Y-114662618D01*
X152936687Y-114601346D01*
X152986829Y-114564699D01*
X153016971Y-114554000D01*
X153016971Y-114300052D01*
X152963715Y-114353474D01*
X152800502Y-114353474D01*
X152725414Y-114353985D01*
X152677645Y-114356328D01*
X152651098Y-114361711D01*
X152639679Y-114371344D01*
X152637289Y-114385871D01*
X152633780Y-114402027D01*
X152619711Y-114413969D01*
X152589769Y-114423139D01*
X152538642Y-114430982D01*
X152461017Y-114438942D01*
X152432585Y-114441496D01*
X152369921Y-114447026D01*
X152369921Y-112163758D01*
X152369921Y-112008772D01*
X152369921Y-111796763D01*
X152219526Y-111796763D01*
X152219526Y-111886859D01*
X152218083Y-111939555D01*
X152211116Y-111968188D01*
X152206970Y-111971691D01*
X152206970Y-112156234D01*
X152216442Y-112165946D01*
X152219366Y-112199588D01*
X152219526Y-112222294D01*
X152219526Y-112298079D01*
X152219526Y-112580694D01*
X152219526Y-114460519D01*
X152154413Y-114396938D01*
X152074062Y-114298186D01*
X152012089Y-114175968D01*
X151967646Y-114028213D01*
X151943065Y-113881401D01*
X151931596Y-113785316D01*
X152052421Y-113785316D01*
X152052421Y-113016632D01*
X151915345Y-113016632D01*
X151926776Y-112903835D01*
X151936425Y-112825025D01*
X151949214Y-112741057D01*
X151958348Y-112690776D01*
X151978488Y-112590513D01*
X152099007Y-112585603D01*
X152219526Y-112580694D01*
X152219526Y-112298079D01*
X152152684Y-112298079D01*
X152110810Y-112295869D01*
X152087536Y-112290350D01*
X152085842Y-112288126D01*
X152096560Y-112263387D01*
X152122563Y-112227243D01*
X152154623Y-112191010D01*
X152183511Y-112166001D01*
X152187267Y-112163773D01*
X152206970Y-112156234D01*
X152206970Y-111971691D01*
X152194674Y-111982081D01*
X152176762Y-111987689D01*
X152130279Y-112010578D01*
X152074400Y-112054540D01*
X152016960Y-112112011D01*
X151965793Y-112175427D01*
X151939143Y-112217082D01*
X151909972Y-112264534D01*
X151885467Y-112288859D01*
X151856572Y-112297405D01*
X151839362Y-112298062D01*
X151835184Y-112298063D01*
X151835184Y-113150316D01*
X151918737Y-113150316D01*
X151918737Y-113651632D01*
X151835184Y-113651632D01*
X151835184Y-113150316D01*
X151835184Y-112298063D01*
X151785052Y-112298079D01*
X151785052Y-112438726D01*
X151786617Y-112503436D01*
X151790785Y-112553870D01*
X151796773Y-112581906D01*
X151799197Y-112584943D01*
X151802918Y-112602727D01*
X151801394Y-112646008D01*
X151795075Y-112707349D01*
X151789240Y-112749263D01*
X151777778Y-112825263D01*
X151767430Y-112894770D01*
X151759796Y-112947003D01*
X151757627Y-112962322D01*
X151745232Y-113002347D01*
X151725808Y-113016632D01*
X151717898Y-113020975D01*
X151711863Y-113036510D01*
X151707466Y-113066999D01*
X151704469Y-113116200D01*
X151702635Y-113187874D01*
X151701725Y-113285781D01*
X151701500Y-113400974D01*
X151701628Y-113523914D01*
X151702230Y-113617441D01*
X151703639Y-113685560D01*
X151706181Y-113732281D01*
X151710189Y-113761609D01*
X151715991Y-113777551D01*
X151723917Y-113784115D01*
X151733133Y-113785316D01*
X151762385Y-113795540D01*
X151779031Y-113829030D01*
X151784968Y-113890012D01*
X151785052Y-113900983D01*
X151795706Y-114004254D01*
X151825033Y-114121547D01*
X151869084Y-114242285D01*
X151923911Y-114355889D01*
X151985564Y-114451781D01*
X151995332Y-114464201D01*
X152027115Y-114504682D01*
X152039844Y-114528655D01*
X152035729Y-114545396D01*
X152018750Y-114562581D01*
X151985492Y-114613336D01*
X151972725Y-114679393D01*
X151979365Y-114750526D01*
X152004327Y-114816514D01*
X152046529Y-114867132D01*
X152051434Y-114870797D01*
X152130211Y-114908672D01*
X152211754Y-114915719D01*
X152289487Y-114892715D01*
X152356835Y-114840437D01*
X152362396Y-114834044D01*
X152388813Y-114796927D01*
X152400447Y-114759267D01*
X152401287Y-114706324D01*
X152400542Y-114693098D01*
X152398641Y-114641297D01*
X152402996Y-114614614D01*
X152416138Y-114604955D01*
X152428408Y-114603963D01*
X152464002Y-114601939D01*
X152517533Y-114596914D01*
X152549559Y-114593303D01*
X152600427Y-114588066D01*
X152626468Y-114590244D01*
X152635986Y-114602875D01*
X152637289Y-114625375D01*
X152632986Y-114638718D01*
X152619057Y-114660244D01*
X152593977Y-114691548D01*
X152556219Y-114734224D01*
X152504256Y-114789868D01*
X152436562Y-114860075D01*
X152351611Y-114946440D01*
X152247875Y-115050558D01*
X152123828Y-115174025D01*
X151977944Y-115318436D01*
X151907449Y-115388031D01*
X151177610Y-116108079D01*
X151293337Y-116107256D01*
G36*
X159204526Y-115606763D02*
X159204526Y-110927816D01*
X158051500Y-110927816D01*
X158051500Y-115606763D01*
X159204526Y-115606763D01*
X159204526Y-115606763D01*
G37*
X159204526Y-115606763D02*
X159204526Y-110927816D01*
X158051500Y-110927816D01*
X158051500Y-115606763D01*
X159204526Y-115606763D01*
G36*
X148049172Y-123936535D02*
X148646363Y-124049117D01*
X148817610Y-124464531D01*
X148988857Y-124879944D01*
X148649978Y-125378302D01*
X148555622Y-125517868D01*
X148471375Y-125644028D01*
X148401083Y-125750895D01*
X148348592Y-125832582D01*
X148317749Y-125883201D01*
X148311098Y-125896986D01*
X148328203Y-125921820D01*
X148375489Y-125974888D01*
X148446917Y-126050240D01*
X148536445Y-126141929D01*
X148638034Y-126244007D01*
X148745643Y-126350526D01*
X148853232Y-126455536D01*
X148954760Y-126553091D01*
X149044186Y-126637242D01*
X149115471Y-126702040D01*
X149162573Y-126741538D01*
X149178337Y-126750980D01*
X149207398Y-126737391D01*
X149271066Y-126699293D01*
X149363112Y-126640694D01*
X149477309Y-126565597D01*
X149607429Y-126478009D01*
X149681646Y-126427254D01*
X149817167Y-126334745D01*
X149939461Y-126252540D01*
X150042440Y-126184630D01*
X150120018Y-126135000D01*
X150166106Y-126107640D01*
X150175792Y-126103529D01*
X150203319Y-126112849D01*
X150267473Y-126138254D01*
X150359235Y-126175911D01*
X150469584Y-126221986D01*
X150589500Y-126272646D01*
X150709964Y-126324059D01*
X150821954Y-126372389D01*
X150916452Y-126413806D01*
X150984437Y-126444474D01*
X151016888Y-126460562D01*
X151018165Y-126461511D01*
X151024362Y-126486772D01*
X151038185Y-126554046D01*
X151058277Y-126656360D01*
X151083279Y-126786741D01*
X151111831Y-126938216D01*
X151128296Y-127026594D01*
X151159114Y-127188452D01*
X151188439Y-127334649D01*
X151214666Y-127457787D01*
X151236191Y-127550469D01*
X151251410Y-127605301D01*
X151256238Y-127616323D01*
X151288919Y-127627119D01*
X151362730Y-127635829D01*
X151469037Y-127642460D01*
X151599212Y-127647018D01*
X151744621Y-127649509D01*
X151896635Y-127649938D01*
X152046622Y-127648311D01*
X152185951Y-127644635D01*
X152305990Y-127638915D01*
X152398110Y-127631158D01*
X152453677Y-127621368D01*
X152465245Y-127615496D01*
X152479110Y-127580399D01*
X152498933Y-127506028D01*
X152522384Y-127402223D01*
X152547136Y-127278819D01*
X152555143Y-127235741D01*
X152593186Y-127028047D01*
X152623824Y-126863984D01*
X152648274Y-126738130D01*
X152667754Y-126645065D01*
X152683481Y-126579367D01*
X152696673Y-126535617D01*
X152708549Y-126508392D01*
X152720325Y-126492272D01*
X152722653Y-126490017D01*
X152760145Y-126467503D01*
X152833110Y-126433158D01*
X152932612Y-126390411D01*
X153049718Y-126342692D01*
X153175493Y-126293430D01*
X153301002Y-126246055D01*
X153417310Y-126203995D01*
X153515484Y-126170680D01*
X153586588Y-126149541D01*
X153621687Y-126144005D01*
X153622917Y-126144466D01*
X153651606Y-126163223D01*
X153714730Y-126205776D01*
X153805718Y-126267653D01*
X153918000Y-126344382D01*
X154045005Y-126431491D01*
X154081098Y-126456299D01*
X154211948Y-126544753D01*
X154331336Y-126622588D01*
X154432407Y-126685566D01*
X154508304Y-126729445D01*
X154552172Y-126749985D01*
X154557562Y-126750980D01*
X154585889Y-126733722D01*
X154642006Y-126686036D01*
X154719882Y-126614050D01*
X154813485Y-126523897D01*
X154916786Y-126421705D01*
X155023751Y-126313606D01*
X155128351Y-126205728D01*
X155224554Y-126104204D01*
X155306329Y-126015162D01*
X155367645Y-125944733D01*
X155402471Y-125899047D01*
X155408157Y-125886409D01*
X155394765Y-125856991D01*
X155358644Y-125796761D01*
X155305881Y-125715530D01*
X155263412Y-125653030D01*
X155185485Y-125539785D01*
X155093729Y-125405674D01*
X155002120Y-125271155D01*
X154953091Y-125198833D01*
X154787515Y-124954038D01*
X154898620Y-124748551D01*
X154947293Y-124654936D01*
X154985126Y-124575330D01*
X155006703Y-124521467D01*
X155009706Y-124507757D01*
X154987538Y-124491270D01*
X154924894Y-124458745D01*
X154827554Y-124412609D01*
X154701294Y-124355290D01*
X154551895Y-124289216D01*
X154385133Y-124216815D01*
X154206787Y-124140516D01*
X154022636Y-124062746D01*
X153838457Y-123985934D01*
X153660030Y-123912506D01*
X153493132Y-123844892D01*
X153343542Y-123785520D01*
X153217038Y-123736816D01*
X153119399Y-123701210D01*
X153056402Y-123681130D01*
X153034766Y-123677900D01*
X153007169Y-123703496D01*
X152962370Y-123759539D01*
X152909679Y-123834311D01*
X152905510Y-123840587D01*
X152750814Y-124033845D01*
X152570336Y-124189674D01*
X152369847Y-124306724D01*
X152155119Y-124383645D01*
X151931922Y-124419086D01*
X151706026Y-124411697D01*
X151483204Y-124360127D01*
X151269224Y-124263026D01*
X151222409Y-124234458D01*
X151033363Y-124085868D01*
X150881557Y-123910327D01*
X150767779Y-123713910D01*
X150692820Y-123502693D01*
X150657467Y-123282753D01*
X150662512Y-123060163D01*
X150708744Y-122841001D01*
X150796951Y-122631342D01*
X150927924Y-122437261D01*
X150981082Y-122377226D01*
X151147484Y-122224435D01*
X151322657Y-122113097D01*
X151519011Y-122036723D01*
X151713462Y-121994187D01*
X151932087Y-121983686D01*
X152151797Y-122018701D01*
X152365165Y-122095673D01*
X152564767Y-122211047D01*
X152743174Y-122361266D01*
X152892962Y-122542773D01*
X152908751Y-122566627D01*
X152960457Y-122642201D01*
X153005257Y-122699651D01*
X153033862Y-122727117D01*
X153034766Y-122727517D01*
X153065709Y-122721620D01*
X153135936Y-122698245D01*
X153239670Y-122659821D01*
X153371135Y-122608777D01*
X153524552Y-122547542D01*
X153694146Y-122478544D01*
X153874138Y-122404214D01*
X154058753Y-122326978D01*
X154242213Y-122249268D01*
X154418741Y-122173511D01*
X154582559Y-122102137D01*
X154727892Y-122037574D01*
X154848962Y-121982252D01*
X154939992Y-121938600D01*
X154995205Y-121909046D01*
X155009706Y-121897144D01*
X154998414Y-121860777D01*
X154968130Y-121792730D01*
X154924265Y-121704737D01*
X154898620Y-121656351D01*
X154787515Y-121450863D01*
X154953091Y-121206068D01*
X155037915Y-121081106D01*
X155131261Y-120944295D01*
X155219153Y-120816089D01*
X155263412Y-120751871D01*
X155324063Y-120661551D01*
X155372126Y-120585071D01*
X155401515Y-120532407D01*
X155407727Y-120515302D01*
X155390968Y-120490405D01*
X155344181Y-120435305D01*
X155272225Y-120355343D01*
X155179957Y-120255861D01*
X155072235Y-120142200D01*
X155003071Y-120070315D01*
X154879502Y-119944551D01*
X154768979Y-119835863D01*
X154676230Y-119748645D01*
X154605982Y-119687289D01*
X154562965Y-119656191D01*
X154554235Y-119653208D01*
X154521029Y-119667053D01*
X154453887Y-119705312D01*
X154359608Y-119763742D01*
X154244990Y-119838097D01*
X154116828Y-119924135D01*
X154081098Y-119948603D01*
X153951234Y-120037755D01*
X153834314Y-120117738D01*
X153736907Y-120184080D01*
X153665584Y-120232311D01*
X153626915Y-120257957D01*
X153622917Y-120260435D01*
X153592100Y-120256729D01*
X153524344Y-120237061D01*
X153428584Y-120204860D01*
X153313754Y-120163555D01*
X153188789Y-120116575D01*
X153062624Y-120067349D01*
X152944193Y-120019308D01*
X152842430Y-119975881D01*
X152766271Y-119940496D01*
X152724649Y-119916584D01*
X152722653Y-119914884D01*
X152710758Y-119900262D01*
X152698995Y-119875565D01*
X152686146Y-119835372D01*
X152670994Y-119774263D01*
X152652321Y-119686817D01*
X152628910Y-119567612D01*
X152599542Y-119411227D01*
X152563000Y-119212243D01*
X152555143Y-119169160D01*
X152530472Y-119041471D01*
X152506338Y-118930153D01*
X152485069Y-118845045D01*
X152468993Y-118795983D01*
X152465245Y-118789405D01*
X152432018Y-118778564D01*
X152357766Y-118769753D01*
X152251121Y-118762976D01*
X152120712Y-118758240D01*
X151975172Y-118755550D01*
X151823131Y-118754913D01*
X151673221Y-118756334D01*
X151534073Y-118759820D01*
X151414317Y-118765376D01*
X151322586Y-118773008D01*
X151267511Y-118782722D01*
X151256238Y-118788578D01*
X151244868Y-118821180D01*
X151226369Y-118895418D01*
X151202347Y-119003896D01*
X151174407Y-119139217D01*
X151144153Y-119293985D01*
X151128296Y-119378308D01*
X151098389Y-119538296D01*
X151071295Y-119680967D01*
X151048376Y-119799348D01*
X151030988Y-119886465D01*
X151020492Y-119935345D01*
X151018165Y-119943390D01*
X150991931Y-119956987D01*
X150928740Y-119985729D01*
X150837622Y-120025785D01*
X150727602Y-120073324D01*
X150607710Y-120124515D01*
X150486972Y-120175526D01*
X150374416Y-120222526D01*
X150279071Y-120261684D01*
X150209962Y-120289169D01*
X150176119Y-120301149D01*
X150174640Y-120301372D01*
X150147942Y-120287791D01*
X150086505Y-120249715D01*
X149996434Y-120191147D01*
X149883835Y-120116088D01*
X149754815Y-120028540D01*
X149680706Y-119977647D01*
X149544822Y-119884909D01*
X149421454Y-119802541D01*
X149316842Y-119734561D01*
X149237228Y-119684988D01*
X149188852Y-119657842D01*
X149178007Y-119653921D01*
X149152765Y-119670775D01*
X149098869Y-119717368D01*
X149022358Y-119787749D01*
X148929268Y-119875965D01*
X148825640Y-119976065D01*
X148717509Y-120082098D01*
X148610915Y-120188111D01*
X148511895Y-120288152D01*
X148426487Y-120376270D01*
X148360730Y-120446513D01*
X148320661Y-120492928D01*
X148311098Y-120508456D01*
X148324545Y-120533739D01*
X148362320Y-120594211D01*
X148420580Y-120683992D01*
X148495479Y-120797203D01*
X148583170Y-120927964D01*
X148649978Y-121026600D01*
X148988857Y-121524957D01*
X148817610Y-121940371D01*
X148646363Y-122355784D01*
X148049172Y-122468366D01*
X147451980Y-122580949D01*
X147451980Y-123823952D01*
X148049172Y-123936535D01*
X148049172Y-123936535D01*
G37*
X148049172Y-123936535D02*
X148646363Y-124049117D01*
X148817610Y-124464531D01*
X148988857Y-124879944D01*
X148649978Y-125378302D01*
X148555622Y-125517868D01*
X148471375Y-125644028D01*
X148401083Y-125750895D01*
X148348592Y-125832582D01*
X148317749Y-125883201D01*
X148311098Y-125896986D01*
X148328203Y-125921820D01*
X148375489Y-125974888D01*
X148446917Y-126050240D01*
X148536445Y-126141929D01*
X148638034Y-126244007D01*
X148745643Y-126350526D01*
X148853232Y-126455536D01*
X148954760Y-126553091D01*
X149044186Y-126637242D01*
X149115471Y-126702040D01*
X149162573Y-126741538D01*
X149178337Y-126750980D01*
X149207398Y-126737391D01*
X149271066Y-126699293D01*
X149363112Y-126640694D01*
X149477309Y-126565597D01*
X149607429Y-126478009D01*
X149681646Y-126427254D01*
X149817167Y-126334745D01*
X149939461Y-126252540D01*
X150042440Y-126184630D01*
X150120018Y-126135000D01*
X150166106Y-126107640D01*
X150175792Y-126103529D01*
X150203319Y-126112849D01*
X150267473Y-126138254D01*
X150359235Y-126175911D01*
X150469584Y-126221986D01*
X150589500Y-126272646D01*
X150709964Y-126324059D01*
X150821954Y-126372389D01*
X150916452Y-126413806D01*
X150984437Y-126444474D01*
X151016888Y-126460562D01*
X151018165Y-126461511D01*
X151024362Y-126486772D01*
X151038185Y-126554046D01*
X151058277Y-126656360D01*
X151083279Y-126786741D01*
X151111831Y-126938216D01*
X151128296Y-127026594D01*
X151159114Y-127188452D01*
X151188439Y-127334649D01*
X151214666Y-127457787D01*
X151236191Y-127550469D01*
X151251410Y-127605301D01*
X151256238Y-127616323D01*
X151288919Y-127627119D01*
X151362730Y-127635829D01*
X151469037Y-127642460D01*
X151599212Y-127647018D01*
X151744621Y-127649509D01*
X151896635Y-127649938D01*
X152046622Y-127648311D01*
X152185951Y-127644635D01*
X152305990Y-127638915D01*
X152398110Y-127631158D01*
X152453677Y-127621368D01*
X152465245Y-127615496D01*
X152479110Y-127580399D01*
X152498933Y-127506028D01*
X152522384Y-127402223D01*
X152547136Y-127278819D01*
X152555143Y-127235741D01*
X152593186Y-127028047D01*
X152623824Y-126863984D01*
X152648274Y-126738130D01*
X152667754Y-126645065D01*
X152683481Y-126579367D01*
X152696673Y-126535617D01*
X152708549Y-126508392D01*
X152720325Y-126492272D01*
X152722653Y-126490017D01*
X152760145Y-126467503D01*
X152833110Y-126433158D01*
X152932612Y-126390411D01*
X153049718Y-126342692D01*
X153175493Y-126293430D01*
X153301002Y-126246055D01*
X153417310Y-126203995D01*
X153515484Y-126170680D01*
X153586588Y-126149541D01*
X153621687Y-126144005D01*
X153622917Y-126144466D01*
X153651606Y-126163223D01*
X153714730Y-126205776D01*
X153805718Y-126267653D01*
X153918000Y-126344382D01*
X154045005Y-126431491D01*
X154081098Y-126456299D01*
X154211948Y-126544753D01*
X154331336Y-126622588D01*
X154432407Y-126685566D01*
X154508304Y-126729445D01*
X154552172Y-126749985D01*
X154557562Y-126750980D01*
X154585889Y-126733722D01*
X154642006Y-126686036D01*
X154719882Y-126614050D01*
X154813485Y-126523897D01*
X154916786Y-126421705D01*
X155023751Y-126313606D01*
X155128351Y-126205728D01*
X155224554Y-126104204D01*
X155306329Y-126015162D01*
X155367645Y-125944733D01*
X155402471Y-125899047D01*
X155408157Y-125886409D01*
X155394765Y-125856991D01*
X155358644Y-125796761D01*
X155305881Y-125715530D01*
X155263412Y-125653030D01*
X155185485Y-125539785D01*
X155093729Y-125405674D01*
X155002120Y-125271155D01*
X154953091Y-125198833D01*
X154787515Y-124954038D01*
X154898620Y-124748551D01*
X154947293Y-124654936D01*
X154985126Y-124575330D01*
X155006703Y-124521467D01*
X155009706Y-124507757D01*
X154987538Y-124491270D01*
X154924894Y-124458745D01*
X154827554Y-124412609D01*
X154701294Y-124355290D01*
X154551895Y-124289216D01*
X154385133Y-124216815D01*
X154206787Y-124140516D01*
X154022636Y-124062746D01*
X153838457Y-123985934D01*
X153660030Y-123912506D01*
X153493132Y-123844892D01*
X153343542Y-123785520D01*
X153217038Y-123736816D01*
X153119399Y-123701210D01*
X153056402Y-123681130D01*
X153034766Y-123677900D01*
X153007169Y-123703496D01*
X152962370Y-123759539D01*
X152909679Y-123834311D01*
X152905510Y-123840587D01*
X152750814Y-124033845D01*
X152570336Y-124189674D01*
X152369847Y-124306724D01*
X152155119Y-124383645D01*
X151931922Y-124419086D01*
X151706026Y-124411697D01*
X151483204Y-124360127D01*
X151269224Y-124263026D01*
X151222409Y-124234458D01*
X151033363Y-124085868D01*
X150881557Y-123910327D01*
X150767779Y-123713910D01*
X150692820Y-123502693D01*
X150657467Y-123282753D01*
X150662512Y-123060163D01*
X150708744Y-122841001D01*
X150796951Y-122631342D01*
X150927924Y-122437261D01*
X150981082Y-122377226D01*
X151147484Y-122224435D01*
X151322657Y-122113097D01*
X151519011Y-122036723D01*
X151713462Y-121994187D01*
X151932087Y-121983686D01*
X152151797Y-122018701D01*
X152365165Y-122095673D01*
X152564767Y-122211047D01*
X152743174Y-122361266D01*
X152892962Y-122542773D01*
X152908751Y-122566627D01*
X152960457Y-122642201D01*
X153005257Y-122699651D01*
X153033862Y-122727117D01*
X153034766Y-122727517D01*
X153065709Y-122721620D01*
X153135936Y-122698245D01*
X153239670Y-122659821D01*
X153371135Y-122608777D01*
X153524552Y-122547542D01*
X153694146Y-122478544D01*
X153874138Y-122404214D01*
X154058753Y-122326978D01*
X154242213Y-122249268D01*
X154418741Y-122173511D01*
X154582559Y-122102137D01*
X154727892Y-122037574D01*
X154848962Y-121982252D01*
X154939992Y-121938600D01*
X154995205Y-121909046D01*
X155009706Y-121897144D01*
X154998414Y-121860777D01*
X154968130Y-121792730D01*
X154924265Y-121704737D01*
X154898620Y-121656351D01*
X154787515Y-121450863D01*
X154953091Y-121206068D01*
X155037915Y-121081106D01*
X155131261Y-120944295D01*
X155219153Y-120816089D01*
X155263412Y-120751871D01*
X155324063Y-120661551D01*
X155372126Y-120585071D01*
X155401515Y-120532407D01*
X155407727Y-120515302D01*
X155390968Y-120490405D01*
X155344181Y-120435305D01*
X155272225Y-120355343D01*
X155179957Y-120255861D01*
X155072235Y-120142200D01*
X155003071Y-120070315D01*
X154879502Y-119944551D01*
X154768979Y-119835863D01*
X154676230Y-119748645D01*
X154605982Y-119687289D01*
X154562965Y-119656191D01*
X154554235Y-119653208D01*
X154521029Y-119667053D01*
X154453887Y-119705312D01*
X154359608Y-119763742D01*
X154244990Y-119838097D01*
X154116828Y-119924135D01*
X154081098Y-119948603D01*
X153951234Y-120037755D01*
X153834314Y-120117738D01*
X153736907Y-120184080D01*
X153665584Y-120232311D01*
X153626915Y-120257957D01*
X153622917Y-120260435D01*
X153592100Y-120256729D01*
X153524344Y-120237061D01*
X153428584Y-120204860D01*
X153313754Y-120163555D01*
X153188789Y-120116575D01*
X153062624Y-120067349D01*
X152944193Y-120019308D01*
X152842430Y-119975881D01*
X152766271Y-119940496D01*
X152724649Y-119916584D01*
X152722653Y-119914884D01*
X152710758Y-119900262D01*
X152698995Y-119875565D01*
X152686146Y-119835372D01*
X152670994Y-119774263D01*
X152652321Y-119686817D01*
X152628910Y-119567612D01*
X152599542Y-119411227D01*
X152563000Y-119212243D01*
X152555143Y-119169160D01*
X152530472Y-119041471D01*
X152506338Y-118930153D01*
X152485069Y-118845045D01*
X152468993Y-118795983D01*
X152465245Y-118789405D01*
X152432018Y-118778564D01*
X152357766Y-118769753D01*
X152251121Y-118762976D01*
X152120712Y-118758240D01*
X151975172Y-118755550D01*
X151823131Y-118754913D01*
X151673221Y-118756334D01*
X151534073Y-118759820D01*
X151414317Y-118765376D01*
X151322586Y-118773008D01*
X151267511Y-118782722D01*
X151256238Y-118788578D01*
X151244868Y-118821180D01*
X151226369Y-118895418D01*
X151202347Y-119003896D01*
X151174407Y-119139217D01*
X151144153Y-119293985D01*
X151128296Y-119378308D01*
X151098389Y-119538296D01*
X151071295Y-119680967D01*
X151048376Y-119799348D01*
X151030988Y-119886465D01*
X151020492Y-119935345D01*
X151018165Y-119943390D01*
X150991931Y-119956987D01*
X150928740Y-119985729D01*
X150837622Y-120025785D01*
X150727602Y-120073324D01*
X150607710Y-120124515D01*
X150486972Y-120175526D01*
X150374416Y-120222526D01*
X150279071Y-120261684D01*
X150209962Y-120289169D01*
X150176119Y-120301149D01*
X150174640Y-120301372D01*
X150147942Y-120287791D01*
X150086505Y-120249715D01*
X149996434Y-120191147D01*
X149883835Y-120116088D01*
X149754815Y-120028540D01*
X149680706Y-119977647D01*
X149544822Y-119884909D01*
X149421454Y-119802541D01*
X149316842Y-119734561D01*
X149237228Y-119684988D01*
X149188852Y-119657842D01*
X149178007Y-119653921D01*
X149152765Y-119670775D01*
X149098869Y-119717368D01*
X149022358Y-119787749D01*
X148929268Y-119875965D01*
X148825640Y-119976065D01*
X148717509Y-120082098D01*
X148610915Y-120188111D01*
X148511895Y-120288152D01*
X148426487Y-120376270D01*
X148360730Y-120446513D01*
X148320661Y-120492928D01*
X148311098Y-120508456D01*
X148324545Y-120533739D01*
X148362320Y-120594211D01*
X148420580Y-120683992D01*
X148495479Y-120797203D01*
X148583170Y-120927964D01*
X148649978Y-121026600D01*
X148988857Y-121524957D01*
X148817610Y-121940371D01*
X148646363Y-122355784D01*
X148049172Y-122468366D01*
X147451980Y-122580949D01*
X147451980Y-123823952D01*
X148049172Y-123936535D01*
G36*
X156303472Y-126753637D02*
X156329641Y-126839290D01*
X156362707Y-126894437D01*
X156388855Y-126912401D01*
X156419852Y-126907457D01*
X156468547Y-126875372D01*
X156503035Y-126848243D01*
X156565383Y-126792317D01*
X156591615Y-126750299D01*
X156589903Y-126714480D01*
X156562863Y-126608224D01*
X156564091Y-126530189D01*
X156594735Y-126466820D01*
X156612670Y-126445546D01*
X156675779Y-126377451D01*
X157499922Y-126377451D01*
X157499922Y-126103529D01*
X156304628Y-126103529D01*
X156304628Y-126240490D01*
X156307879Y-126322719D01*
X156319426Y-126365144D01*
X156341952Y-126377445D01*
X156342620Y-126377451D01*
X156366215Y-126383260D01*
X156363138Y-126409531D01*
X156346115Y-126445931D01*
X156314439Y-126521111D01*
X156295381Y-126582158D01*
X156290496Y-126660708D01*
X156303472Y-126753637D01*
X156303472Y-126753637D01*
G37*
X156303472Y-126753637D02*
X156329641Y-126839290D01*
X156362707Y-126894437D01*
X156388855Y-126912401D01*
X156419852Y-126907457D01*
X156468547Y-126875372D01*
X156503035Y-126848243D01*
X156565383Y-126792317D01*
X156591615Y-126750299D01*
X156589903Y-126714480D01*
X156562863Y-126608224D01*
X156564091Y-126530189D01*
X156594735Y-126466820D01*
X156612670Y-126445546D01*
X156675779Y-126377451D01*
X157499922Y-126377451D01*
X157499922Y-126103529D01*
X156304628Y-126103529D01*
X156304628Y-126240490D01*
X156307879Y-126322719D01*
X156319426Y-126365144D01*
X156341952Y-126377445D01*
X156342620Y-126377451D01*
X156366215Y-126383260D01*
X156363138Y-126409531D01*
X156346115Y-126445931D01*
X156314439Y-126521111D01*
X156295381Y-126582158D01*
X156290496Y-126660708D01*
X156303472Y-126753637D01*
G36*
X156325199Y-121696760D02*
X156354802Y-121758736D01*
X156397561Y-121818759D01*
X156446775Y-121864486D01*
X156509544Y-121897793D01*
X156592971Y-121920555D01*
X156704159Y-121934647D01*
X156850209Y-121941942D01*
X157038223Y-121944318D01*
X157057912Y-121944355D01*
X157499922Y-121944902D01*
X157499922Y-121670980D01*
X157092435Y-121670980D01*
X156941471Y-121670785D01*
X156832056Y-121669436D01*
X156755933Y-121665788D01*
X156704848Y-121658696D01*
X156670545Y-121647013D01*
X156644768Y-121629594D01*
X156619298Y-121605329D01*
X156564571Y-121520435D01*
X156554416Y-121427761D01*
X156589017Y-121339473D01*
X156614770Y-121308770D01*
X156638982Y-121286229D01*
X156664912Y-121270046D01*
X156700708Y-121259168D01*
X156754519Y-121252542D01*
X156834493Y-121249115D01*
X156948779Y-121247834D01*
X157087907Y-121247647D01*
X157499922Y-121247647D01*
X157499922Y-120973725D01*
X156304628Y-120973725D01*
X156304628Y-121110686D01*
X156307879Y-121192916D01*
X156319426Y-121235340D01*
X156341952Y-121247641D01*
X156342620Y-121247647D01*
X156364681Y-121253354D01*
X156362177Y-121278527D01*
X156337937Y-121328578D01*
X156302271Y-121442094D01*
X156298305Y-121571945D01*
X156325199Y-121696760D01*
X156325199Y-121696760D01*
G37*
X156325199Y-121696760D02*
X156354802Y-121758736D01*
X156397561Y-121818759D01*
X156446775Y-121864486D01*
X156509544Y-121897793D01*
X156592971Y-121920555D01*
X156704159Y-121934647D01*
X156850209Y-121941942D01*
X157038223Y-121944318D01*
X157057912Y-121944355D01*
X157499922Y-121944902D01*
X157499922Y-121670980D01*
X157092435Y-121670980D01*
X156941471Y-121670785D01*
X156832056Y-121669436D01*
X156755933Y-121665788D01*
X156704848Y-121658696D01*
X156670545Y-121647013D01*
X156644768Y-121629594D01*
X156619298Y-121605329D01*
X156564571Y-121520435D01*
X156554416Y-121427761D01*
X156589017Y-121339473D01*
X156614770Y-121308770D01*
X156638982Y-121286229D01*
X156664912Y-121270046D01*
X156700708Y-121259168D01*
X156754519Y-121252542D01*
X156834493Y-121249115D01*
X156948779Y-121247834D01*
X157087907Y-121247647D01*
X157499922Y-121247647D01*
X157499922Y-120973725D01*
X156304628Y-120973725D01*
X156304628Y-121110686D01*
X156307879Y-121192916D01*
X156319426Y-121235340D01*
X156341952Y-121247641D01*
X156342620Y-121247647D01*
X156364681Y-121253354D01*
X156362177Y-121278527D01*
X156337937Y-121328578D01*
X156302271Y-121442094D01*
X156298305Y-121571945D01*
X156325199Y-121696760D01*
G36*
X156300355Y-128493287D02*
X156315845Y-128557051D01*
X156372569Y-128679300D01*
X156459202Y-128783834D01*
X156563074Y-128856180D01*
X156586396Y-128866119D01*
X156647484Y-128879754D01*
X156737853Y-128889298D01*
X156829190Y-128892549D01*
X157001882Y-128892549D01*
X157001882Y-128531470D01*
X157002445Y-128382546D01*
X157005864Y-128277632D01*
X157014731Y-128210937D01*
X157031641Y-128176666D01*
X157059189Y-128169028D01*
X157099968Y-128182229D01*
X157147683Y-128205877D01*
X157227314Y-128271843D01*
X157266987Y-128363512D01*
X157265695Y-128475555D01*
X157222514Y-128602472D01*
X157169224Y-128712158D01*
X157241191Y-128803173D01*
X157313157Y-128894188D01*
X157392269Y-128808563D01*
X157467017Y-128694250D01*
X157512084Y-128553666D01*
X157524696Y-128402449D01*
X157502079Y-128256236D01*
X157494405Y-128232647D01*
X157427296Y-128104141D01*
X157327247Y-128008551D01*
X157191271Y-127943861D01*
X157016380Y-127908057D01*
X157012632Y-127907640D01*
X156822032Y-127904434D01*
X156754035Y-127917393D01*
X156754035Y-128170392D01*
X156764491Y-128193627D01*
X156772500Y-128256710D01*
X156777073Y-128349706D01*
X156777765Y-128408638D01*
X156777332Y-128518537D01*
X156774578Y-128587252D01*
X156767321Y-128623405D01*
X156753376Y-128635615D01*
X156730562Y-128632504D01*
X156721735Y-128629894D01*
X156638800Y-128585344D01*
X156571960Y-128515279D01*
X156542589Y-128453446D01*
X156544362Y-128371301D01*
X156580990Y-128288062D01*
X156641634Y-128218238D01*
X156715456Y-128176337D01*
X156754035Y-128170392D01*
X156754035Y-127917393D01*
X156654395Y-127936385D01*
X156513711Y-127999773D01*
X156403974Y-128090878D01*
X156329174Y-128205978D01*
X156293304Y-128341355D01*
X156300355Y-128493287D01*
X156300355Y-128493287D01*
G37*
X156300355Y-128493287D02*
X156315845Y-128557051D01*
X156372569Y-128679300D01*
X156459202Y-128783834D01*
X156563074Y-128856180D01*
X156586396Y-128866119D01*
X156647484Y-128879754D01*
X156737853Y-128889298D01*
X156829190Y-128892549D01*
X157001882Y-128892549D01*
X157001882Y-128531470D01*
X157002445Y-128382546D01*
X157005864Y-128277632D01*
X157014731Y-128210937D01*
X157031641Y-128176666D01*
X157059189Y-128169028D01*
X157099968Y-128182229D01*
X157147683Y-128205877D01*
X157227314Y-128271843D01*
X157266987Y-128363512D01*
X157265695Y-128475555D01*
X157222514Y-128602472D01*
X157169224Y-128712158D01*
X157241191Y-128803173D01*
X157313157Y-128894188D01*
X157392269Y-128808563D01*
X157467017Y-128694250D01*
X157512084Y-128553666D01*
X157524696Y-128402449D01*
X157502079Y-128256236D01*
X157494405Y-128232647D01*
X157427296Y-128104141D01*
X157327247Y-128008551D01*
X157191271Y-127943861D01*
X157016380Y-127908057D01*
X157012632Y-127907640D01*
X156822032Y-127904434D01*
X156754035Y-127917393D01*
X156754035Y-128170392D01*
X156764491Y-128193627D01*
X156772500Y-128256710D01*
X156777073Y-128349706D01*
X156777765Y-128408638D01*
X156777332Y-128518537D01*
X156774578Y-128587252D01*
X156767321Y-128623405D01*
X156753376Y-128635615D01*
X156730562Y-128632504D01*
X156721735Y-128629894D01*
X156638800Y-128585344D01*
X156571960Y-128515279D01*
X156542589Y-128453446D01*
X156544362Y-128371301D01*
X156580990Y-128288062D01*
X156641634Y-128218238D01*
X156715456Y-128176337D01*
X156754035Y-128170392D01*
X156754035Y-127917393D01*
X156654395Y-127936385D01*
X156513711Y-127999773D01*
X156403974Y-128090878D01*
X156329174Y-128205978D01*
X156293304Y-128341355D01*
X156300355Y-128493287D01*
G36*
X156315056Y-127580976D02*
X156376348Y-127725256D01*
X156406185Y-127770699D01*
X156452036Y-127828779D01*
X156488089Y-127865238D01*
X156499832Y-127871568D01*
X156525889Y-127853693D01*
X156570105Y-127807950D01*
X156600965Y-127771328D01*
X156681520Y-127671088D01*
X156614918Y-127591935D01*
X156571921Y-127530769D01*
X156557079Y-127471129D01*
X156560704Y-127402872D01*
X156587652Y-127294482D01*
X156643587Y-127219872D01*
X156734014Y-127174530D01*
X156864435Y-127153947D01*
X156864517Y-127153942D01*
X157010290Y-127155722D01*
X157117245Y-127183387D01*
X157190064Y-127238571D01*
X157214723Y-127276192D01*
X157245431Y-127376105D01*
X157245449Y-127482822D01*
X157215655Y-127575669D01*
X157201098Y-127597647D01*
X157163914Y-127652765D01*
X157157820Y-127695859D01*
X157185496Y-127742335D01*
X157235205Y-127793716D01*
X157319116Y-127875046D01*
X157393546Y-127784749D01*
X157477549Y-127645236D01*
X157518947Y-127487912D01*
X157515950Y-127323503D01*
X157488500Y-127215531D01*
X157420620Y-127089331D01*
X157313831Y-126988401D01*
X157238451Y-126942548D01*
X157130297Y-126905410D01*
X156993318Y-126886827D01*
X156844864Y-126886684D01*
X156702281Y-126904865D01*
X156582918Y-126941255D01*
X156570680Y-126946987D01*
X156450655Y-127031865D01*
X156363267Y-127146782D01*
X156310329Y-127282659D01*
X156293654Y-127430417D01*
X156315056Y-127580976D01*
X156315056Y-127580976D01*
G37*
X156315056Y-127580976D02*
X156376348Y-127725256D01*
X156406185Y-127770699D01*
X156452036Y-127828779D01*
X156488089Y-127865238D01*
X156499832Y-127871568D01*
X156525889Y-127853693D01*
X156570105Y-127807950D01*
X156600965Y-127771328D01*
X156681520Y-127671088D01*
X156614918Y-127591935D01*
X156571921Y-127530769D01*
X156557079Y-127471129D01*
X156560704Y-127402872D01*
X156587652Y-127294482D01*
X156643587Y-127219872D01*
X156734014Y-127174530D01*
X156864435Y-127153947D01*
X156864517Y-127153942D01*
X157010290Y-127155722D01*
X157117245Y-127183387D01*
X157190064Y-127238571D01*
X157214723Y-127276192D01*
X157245431Y-127376105D01*
X157245449Y-127482822D01*
X157215655Y-127575669D01*
X157201098Y-127597647D01*
X157163914Y-127652765D01*
X157157820Y-127695859D01*
X157185496Y-127742335D01*
X157235205Y-127793716D01*
X157319116Y-127875046D01*
X157393546Y-127784749D01*
X157477549Y-127645236D01*
X157518947Y-127487912D01*
X157515950Y-127323503D01*
X157488500Y-127215531D01*
X157420620Y-127089331D01*
X157313831Y-126988401D01*
X157238451Y-126942548D01*
X157130297Y-126905410D01*
X156993318Y-126886827D01*
X156844864Y-126886684D01*
X156702281Y-126904865D01*
X156582918Y-126941255D01*
X156570680Y-126946987D01*
X156450655Y-127031865D01*
X156363267Y-127146782D01*
X156310329Y-127282659D01*
X156293654Y-127430417D01*
X156315056Y-127580976D01*
G36*
X156692245Y-125157254D02*
X156874879Y-125159608D01*
X157013600Y-125168207D01*
X157114147Y-125185360D01*
X157182254Y-125213374D01*
X157223659Y-125254557D01*
X157244097Y-125311217D01*
X157249318Y-125381372D01*
X157243468Y-125454848D01*
X157222093Y-125510657D01*
X157179458Y-125551109D01*
X157109825Y-125578509D01*
X157007460Y-125595167D01*
X156866624Y-125603389D01*
X156692245Y-125605490D01*
X156304628Y-125605490D01*
X156304628Y-125879411D01*
X157499922Y-125879411D01*
X157499922Y-125742451D01*
X157496576Y-125659884D01*
X157484826Y-125617368D01*
X157462520Y-125605490D01*
X157442654Y-125598336D01*
X157446857Y-125569865D01*
X157474971Y-125512476D01*
X157518342Y-125380945D01*
X157515270Y-125241438D01*
X157468174Y-125107765D01*
X157430971Y-125044108D01*
X157390691Y-124995553D01*
X157340291Y-124960081D01*
X157272729Y-124935674D01*
X157180965Y-124920313D01*
X157057955Y-124911982D01*
X156896659Y-124908662D01*
X156771928Y-124908235D01*
X156304628Y-124908235D01*
X156304628Y-125157254D01*
X156692245Y-125157254D01*
X156692245Y-125157254D01*
G37*
X156692245Y-125157254D02*
X156874879Y-125159608D01*
X157013600Y-125168207D01*
X157114147Y-125185360D01*
X157182254Y-125213374D01*
X157223659Y-125254557D01*
X157244097Y-125311217D01*
X157249318Y-125381372D01*
X157243468Y-125454848D01*
X157222093Y-125510657D01*
X157179458Y-125551109D01*
X157109825Y-125578509D01*
X157007460Y-125595167D01*
X156866624Y-125603389D01*
X156692245Y-125605490D01*
X156304628Y-125605490D01*
X156304628Y-125879411D01*
X157499922Y-125879411D01*
X157499922Y-125742451D01*
X157496576Y-125659884D01*
X157484826Y-125617368D01*
X157462520Y-125605490D01*
X157442654Y-125598336D01*
X157446857Y-125569865D01*
X157474971Y-125512476D01*
X157518342Y-125380945D01*
X157515270Y-125241438D01*
X157468174Y-125107765D01*
X157430971Y-125044108D01*
X157390691Y-124995553D01*
X157340291Y-124960081D01*
X157272729Y-124935674D01*
X157180965Y-124920313D01*
X157057955Y-124911982D01*
X156896659Y-124908662D01*
X156771928Y-124908235D01*
X156304628Y-124908235D01*
X156304628Y-125157254D01*
X156692245Y-125157254D01*
G36*
X156319364Y-124399547D02*
X156387959Y-124525502D01*
X156496245Y-124624047D01*
X156584315Y-124670478D01*
X156662101Y-124690412D01*
X156772993Y-124703328D01*
X156900738Y-124708863D01*
X157029084Y-124706654D01*
X157141779Y-124696337D01*
X157201969Y-124684286D01*
X157284311Y-124643634D01*
X157371770Y-124573230D01*
X157448251Y-124488382D01*
X157497655Y-124404397D01*
X157498439Y-124402349D01*
X157520027Y-124298134D01*
X157520562Y-124174627D01*
X157500908Y-124057261D01*
X157485155Y-124011942D01*
X157418966Y-123895220D01*
X157332246Y-123811624D01*
X157217438Y-123756701D01*
X157066982Y-123725995D01*
X156988173Y-123719047D01*
X156889145Y-123719933D01*
X156889145Y-123986862D01*
X157033645Y-123995854D01*
X157143760Y-124021736D01*
X157214116Y-124062868D01*
X157234235Y-124092172D01*
X157248265Y-124167251D01*
X157244111Y-124256494D01*
X157223922Y-124333650D01*
X157212815Y-124353883D01*
X157148123Y-124407265D01*
X157049119Y-124442500D01*
X156928632Y-124457498D01*
X156799494Y-124450172D01*
X156721775Y-124433799D01*
X156631771Y-124386790D01*
X156575509Y-124312582D01*
X156556057Y-124223209D01*
X156576481Y-124130707D01*
X156626437Y-124059653D01*
X156667655Y-124022312D01*
X156708281Y-124000518D01*
X156763264Y-123990130D01*
X156847549Y-123987006D01*
X156889145Y-123986862D01*
X156889145Y-123719933D01*
X156777874Y-123720930D01*
X156605423Y-123755180D01*
X156470814Y-123821802D01*
X156374040Y-123920799D01*
X156315094Y-124052175D01*
X156308259Y-124080385D01*
X156292213Y-124249926D01*
X156319364Y-124399547D01*
X156319364Y-124399547D01*
G37*
X156319364Y-124399547D02*
X156387959Y-124525502D01*
X156496245Y-124624047D01*
X156584315Y-124670478D01*
X156662101Y-124690412D01*
X156772993Y-124703328D01*
X156900738Y-124708863D01*
X157029084Y-124706654D01*
X157141779Y-124696337D01*
X157201969Y-124684286D01*
X157284311Y-124643634D01*
X157371770Y-124573230D01*
X157448251Y-124488382D01*
X157497655Y-124404397D01*
X157498439Y-124402349D01*
X157520027Y-124298134D01*
X157520562Y-124174627D01*
X157500908Y-124057261D01*
X157485155Y-124011942D01*
X157418966Y-123895220D01*
X157332246Y-123811624D01*
X157217438Y-123756701D01*
X157066982Y-123725995D01*
X156988173Y-123719047D01*
X156889145Y-123719933D01*
X156889145Y-123986862D01*
X157033645Y-123995854D01*
X157143760Y-124021736D01*
X157214116Y-124062868D01*
X157234235Y-124092172D01*
X157248265Y-124167251D01*
X157244111Y-124256494D01*
X157223922Y-124333650D01*
X157212815Y-124353883D01*
X157148123Y-124407265D01*
X157049119Y-124442500D01*
X156928632Y-124457498D01*
X156799494Y-124450172D01*
X156721775Y-124433799D01*
X156631771Y-124386790D01*
X156575509Y-124312582D01*
X156556057Y-124223209D01*
X156576481Y-124130707D01*
X156626437Y-124059653D01*
X156667655Y-124022312D01*
X156708281Y-124000518D01*
X156763264Y-123990130D01*
X156847549Y-123987006D01*
X156889145Y-123986862D01*
X156889145Y-123719933D01*
X156777874Y-123720930D01*
X156605423Y-123755180D01*
X156470814Y-123821802D01*
X156374040Y-123920799D01*
X156315094Y-124052175D01*
X156308259Y-124080385D01*
X156292213Y-124249926D01*
X156319364Y-124399547D01*
G36*
X156300345Y-123217759D02*
X156318229Y-123312059D01*
X156355633Y-123409890D01*
X156360402Y-123420343D01*
X156399412Y-123494531D01*
X156435664Y-123545910D01*
X156458887Y-123562517D01*
X156496761Y-123546702D01*
X156552644Y-123508288D01*
X156573505Y-123491237D01*
X156655618Y-123420969D01*
X156602168Y-123330379D01*
X156566561Y-123244164D01*
X156547529Y-123144549D01*
X156546326Y-123049019D01*
X156564210Y-122975061D01*
X156575373Y-122957312D01*
X156626553Y-122923512D01*
X156685509Y-122919404D01*
X156731567Y-122944696D01*
X156740499Y-122959656D01*
X156751592Y-123004486D01*
X156764630Y-123083286D01*
X156777088Y-123180426D01*
X156779042Y-123198346D01*
X156806030Y-123354365D01*
X156851873Y-123467523D01*
X156920803Y-123542569D01*
X157017054Y-123584253D01*
X157134617Y-123597238D01*
X157268254Y-123579299D01*
X157373195Y-123521050D01*
X157449630Y-123422255D01*
X157497748Y-123282682D01*
X157516732Y-123127745D01*
X157516504Y-123001398D01*
X157499262Y-122898913D01*
X157475457Y-122828921D01*
X157433978Y-122740483D01*
X157385842Y-122658754D01*
X157364655Y-122629705D01*
X157303676Y-122555000D01*
X157212508Y-122645098D01*
X157121339Y-122735196D01*
X157189128Y-122837632D01*
X157240042Y-122940374D01*
X157266673Y-123050087D01*
X157269483Y-123155551D01*
X157248935Y-123245546D01*
X157205493Y-123308854D01*
X157168838Y-123329296D01*
X157110053Y-123326229D01*
X157065099Y-123275434D01*
X157034057Y-123177048D01*
X157019710Y-123069256D01*
X156992337Y-122903365D01*
X156940693Y-122780124D01*
X156863266Y-122697886D01*
X156758544Y-122655001D01*
X156634387Y-122649060D01*
X156504702Y-122678406D01*
X156406677Y-122745309D01*
X156339866Y-122850371D01*
X156303820Y-122994190D01*
X156296754Y-123100738D01*
X156300345Y-123217759D01*
X156300345Y-123217759D01*
G37*
X156300345Y-123217759D02*
X156318229Y-123312059D01*
X156355633Y-123409890D01*
X156360402Y-123420343D01*
X156399412Y-123494531D01*
X156435664Y-123545910D01*
X156458887Y-123562517D01*
X156496761Y-123546702D01*
X156552644Y-123508288D01*
X156573505Y-123491237D01*
X156655618Y-123420969D01*
X156602168Y-123330379D01*
X156566561Y-123244164D01*
X156547529Y-123144549D01*
X156546326Y-123049019D01*
X156564210Y-122975061D01*
X156575373Y-122957312D01*
X156626553Y-122923512D01*
X156685509Y-122919404D01*
X156731567Y-122944696D01*
X156740499Y-122959656D01*
X156751592Y-123004486D01*
X156764630Y-123083286D01*
X156777088Y-123180426D01*
X156779042Y-123198346D01*
X156806030Y-123354365D01*
X156851873Y-123467523D01*
X156920803Y-123542569D01*
X157017054Y-123584253D01*
X157134617Y-123597238D01*
X157268254Y-123579299D01*
X157373195Y-123521050D01*
X157449630Y-123422255D01*
X157497748Y-123282682D01*
X157516732Y-123127745D01*
X157516504Y-123001398D01*
X157499262Y-122898913D01*
X157475457Y-122828921D01*
X157433978Y-122740483D01*
X157385842Y-122658754D01*
X157364655Y-122629705D01*
X157303676Y-122555000D01*
X157212508Y-122645098D01*
X157121339Y-122735196D01*
X157189128Y-122837632D01*
X157240042Y-122940374D01*
X157266673Y-123050087D01*
X157269483Y-123155551D01*
X157248935Y-123245546D01*
X157205493Y-123308854D01*
X157168838Y-123329296D01*
X157110053Y-123326229D01*
X157065099Y-123275434D01*
X157034057Y-123177048D01*
X157019710Y-123069256D01*
X156992337Y-122903365D01*
X156940693Y-122780124D01*
X156863266Y-122697886D01*
X156758544Y-122655001D01*
X156634387Y-122649060D01*
X156504702Y-122678406D01*
X156406677Y-122745309D01*
X156339866Y-122850371D01*
X156303820Y-122994190D01*
X156296754Y-123100738D01*
X156300345Y-123217759D01*
G36*
X156332354Y-120503204D02*
X156344037Y-120528019D01*
X156406951Y-120613906D01*
X156498769Y-120695121D01*
X156599868Y-120755764D01*
X156646349Y-120773012D01*
X156729376Y-120788749D01*
X156829713Y-120798133D01*
X156871147Y-120799272D01*
X157001882Y-120799411D01*
X157001882Y-120046953D01*
X157070363Y-120062993D01*
X157151355Y-120102363D01*
X157221351Y-120171194D01*
X157266441Y-120253081D01*
X157275804Y-120305263D01*
X157264441Y-120376029D01*
X157235943Y-120460460D01*
X157222831Y-120489142D01*
X157169858Y-120595209D01*
X157238901Y-120685728D01*
X157285597Y-120737961D01*
X157324140Y-120765753D01*
X157335452Y-120767160D01*
X157362868Y-120742332D01*
X157404532Y-120687917D01*
X157437037Y-120638528D01*
X157495468Y-120505252D01*
X157521915Y-120355839D01*
X157515039Y-120207751D01*
X157479096Y-120089705D01*
X157402101Y-119968018D01*
X157300728Y-119881540D01*
X157169570Y-119827441D01*
X157003224Y-119802891D01*
X156927108Y-119800714D01*
X156752685Y-119809427D01*
X156747611Y-119810497D01*
X156747611Y-120059827D01*
X156763968Y-120066694D01*
X156772988Y-120094917D01*
X156776854Y-120153127D01*
X156777749Y-120249958D01*
X156777765Y-120287243D01*
X156776413Y-120400683D01*
X156771505Y-120472622D01*
X156761760Y-120511313D01*
X156745899Y-120525005D01*
X156740805Y-120525490D01*
X156700326Y-120509863D01*
X156643621Y-120470753D01*
X156623766Y-120453939D01*
X156567611Y-120391519D01*
X156545532Y-120326453D01*
X156543686Y-120291397D01*
X156566766Y-120196558D01*
X156628759Y-120117027D01*
X156718802Y-120066577D01*
X156721735Y-120065683D01*
X156747611Y-120059827D01*
X156747611Y-119810497D01*
X156615343Y-119838399D01*
X156505461Y-119890590D01*
X156427461Y-119954421D01*
X156342882Y-120072433D01*
X156297686Y-120211158D01*
X156293600Y-120358710D01*
X156332354Y-120503204D01*
X156332354Y-120503204D01*
G37*
X156332354Y-120503204D02*
X156344037Y-120528019D01*
X156406951Y-120613906D01*
X156498769Y-120695121D01*
X156599868Y-120755764D01*
X156646349Y-120773012D01*
X156729376Y-120788749D01*
X156829713Y-120798133D01*
X156871147Y-120799272D01*
X157001882Y-120799411D01*
X157001882Y-120046953D01*
X157070363Y-120062993D01*
X157151355Y-120102363D01*
X157221351Y-120171194D01*
X157266441Y-120253081D01*
X157275804Y-120305263D01*
X157264441Y-120376029D01*
X157235943Y-120460460D01*
X157222831Y-120489142D01*
X157169858Y-120595209D01*
X157238901Y-120685728D01*
X157285597Y-120737961D01*
X157324140Y-120765753D01*
X157335452Y-120767160D01*
X157362868Y-120742332D01*
X157404532Y-120687917D01*
X157437037Y-120638528D01*
X157495468Y-120505252D01*
X157521915Y-120355839D01*
X157515039Y-120207751D01*
X157479096Y-120089705D01*
X157402101Y-119968018D01*
X157300728Y-119881540D01*
X157169570Y-119827441D01*
X157003224Y-119802891D01*
X156927108Y-119800714D01*
X156752685Y-119809427D01*
X156747611Y-119810497D01*
X156747611Y-120059827D01*
X156763968Y-120066694D01*
X156772988Y-120094917D01*
X156776854Y-120153127D01*
X156777749Y-120249958D01*
X156777765Y-120287243D01*
X156776413Y-120400683D01*
X156771505Y-120472622D01*
X156761760Y-120511313D01*
X156745899Y-120525005D01*
X156740805Y-120525490D01*
X156700326Y-120509863D01*
X156643621Y-120470753D01*
X156623766Y-120453939D01*
X156567611Y-120391519D01*
X156545532Y-120326453D01*
X156543686Y-120291397D01*
X156566766Y-120196558D01*
X156628759Y-120117027D01*
X156718802Y-120066577D01*
X156721735Y-120065683D01*
X156747611Y-120059827D01*
X156747611Y-119810497D01*
X156615343Y-119838399D01*
X156505461Y-119890590D01*
X156427461Y-119954421D01*
X156342882Y-120072433D01*
X156297686Y-120211158D01*
X156293600Y-120358710D01*
X156332354Y-120503204D01*
G36*
X156317568Y-118163247D02*
X156375163Y-118293522D01*
X156471334Y-118392419D01*
X156606229Y-118460082D01*
X156779996Y-118496655D01*
X156807126Y-118499276D01*
X156998408Y-118501330D01*
X157166073Y-118474699D01*
X157301967Y-118421001D01*
X157345681Y-118392247D01*
X157438198Y-118292091D01*
X157498119Y-118164537D01*
X157522985Y-118021837D01*
X157510339Y-117876240D01*
X157471391Y-117765562D01*
X157405755Y-117670384D01*
X157319699Y-117592594D01*
X157317685Y-117591249D01*
X157264570Y-117559657D01*
X157211160Y-117539127D01*
X157143754Y-117526695D01*
X157048653Y-117519397D01*
X156970666Y-117516182D01*
X156899944Y-117514844D01*
X156899944Y-117763814D01*
X156970348Y-117766247D01*
X157064068Y-117775080D01*
X157124214Y-117790664D01*
X157167006Y-117818766D01*
X157192002Y-117845086D01*
X157244338Y-117938392D01*
X157251333Y-118036020D01*
X157213676Y-118126942D01*
X157171479Y-118172402D01*
X157128956Y-118205162D01*
X157088267Y-118224323D01*
X157035314Y-118232733D01*
X156955997Y-118233237D01*
X156882950Y-118230645D01*
X156778601Y-118225071D01*
X156710920Y-118216234D01*
X156666774Y-118200307D01*
X156633031Y-118173462D01*
X156613746Y-118152189D01*
X156563086Y-118063206D01*
X156560560Y-117967211D01*
X156590567Y-117886719D01*
X156653231Y-117818053D01*
X156756168Y-117777144D01*
X156899944Y-117763814D01*
X156899944Y-117514844D01*
X156815582Y-117513246D01*
X156699600Y-117518260D01*
X156612367Y-117533283D01*
X156543530Y-117560376D01*
X156482737Y-117601600D01*
X156464686Y-117616885D01*
X156374746Y-117712454D01*
X156322211Y-117814961D01*
X156300201Y-117940321D01*
X156298402Y-118001450D01*
X156317568Y-118163247D01*
X156317568Y-118163247D01*
G37*
X156317568Y-118163247D02*
X156375163Y-118293522D01*
X156471334Y-118392419D01*
X156606229Y-118460082D01*
X156779996Y-118496655D01*
X156807126Y-118499276D01*
X156998408Y-118501330D01*
X157166073Y-118474699D01*
X157301967Y-118421001D01*
X157345681Y-118392247D01*
X157438198Y-118292091D01*
X157498119Y-118164537D01*
X157522985Y-118021837D01*
X157510339Y-117876240D01*
X157471391Y-117765562D01*
X157405755Y-117670384D01*
X157319699Y-117592594D01*
X157317685Y-117591249D01*
X157264570Y-117559657D01*
X157211160Y-117539127D01*
X157143754Y-117526695D01*
X157048653Y-117519397D01*
X156970666Y-117516182D01*
X156899944Y-117514844D01*
X156899944Y-117763814D01*
X156970348Y-117766247D01*
X157064068Y-117775080D01*
X157124214Y-117790664D01*
X157167006Y-117818766D01*
X157192002Y-117845086D01*
X157244338Y-117938392D01*
X157251333Y-118036020D01*
X157213676Y-118126942D01*
X157171479Y-118172402D01*
X157128956Y-118205162D01*
X157088267Y-118224323D01*
X157035314Y-118232733D01*
X156955997Y-118233237D01*
X156882950Y-118230645D01*
X156778601Y-118225071D01*
X156710920Y-118216234D01*
X156666774Y-118200307D01*
X156633031Y-118173462D01*
X156613746Y-118152189D01*
X156563086Y-118063206D01*
X156560560Y-117967211D01*
X156590567Y-117886719D01*
X156653231Y-117818053D01*
X156756168Y-117777144D01*
X156899944Y-117763814D01*
X156899944Y-117514844D01*
X156815582Y-117513246D01*
X156699600Y-117518260D01*
X156612367Y-117533283D01*
X156543530Y-117560376D01*
X156482737Y-117601600D01*
X156464686Y-117616885D01*
X156374746Y-117712454D01*
X156322211Y-117814961D01*
X156300201Y-117940321D01*
X156298402Y-118001450D01*
X156317568Y-118163247D01*
G36*
X158178784Y-127215307D02*
X158209731Y-127334337D01*
X158273600Y-127434021D01*
X158321313Y-127482288D01*
X158434106Y-127561408D01*
X158564950Y-127606752D01*
X158725792Y-127622330D01*
X158738794Y-127622410D01*
X158869530Y-127622549D01*
X158869530Y-126870091D01*
X158938010Y-126886130D01*
X159000031Y-126915091D01*
X159064654Y-126965778D01*
X159074971Y-126976379D01*
X159130805Y-127067494D01*
X159140275Y-127171400D01*
X159103540Y-127291000D01*
X159093647Y-127311274D01*
X159063574Y-127373456D01*
X159046440Y-127415106D01*
X159044855Y-127422373D01*
X159060242Y-127447740D01*
X159097887Y-127496120D01*
X159118459Y-127520679D01*
X159165714Y-127571570D01*
X159196917Y-127588281D01*
X159225620Y-127576683D01*
X159233468Y-127570483D01*
X159267819Y-127528493D01*
X159309565Y-127459206D01*
X159333935Y-127410882D01*
X159376873Y-127273711D01*
X159390786Y-127121847D01*
X159374300Y-126978024D01*
X159362496Y-126937745D01*
X159295689Y-126813078D01*
X159192892Y-126720671D01*
X159053105Y-126659990D01*
X158875330Y-126630498D01*
X158782373Y-126627260D01*
X158647033Y-126636714D01*
X158647033Y-126875490D01*
X158657038Y-126898584D01*
X158664888Y-126960662D01*
X158669521Y-127050914D01*
X158670314Y-127112058D01*
X158669549Y-127222040D01*
X158665970Y-127291457D01*
X158657649Y-127329538D01*
X158642657Y-127345515D01*
X158620903Y-127348627D01*
X158553892Y-127327278D01*
X158487664Y-127273529D01*
X158436832Y-127202822D01*
X158416038Y-127132089D01*
X158434484Y-127036016D01*
X158487811Y-126952849D01*
X158564677Y-126895186D01*
X158647033Y-126875490D01*
X158647033Y-126636714D01*
X158585291Y-126641028D01*
X158428271Y-126683520D01*
X158310069Y-126755635D01*
X158229440Y-126858273D01*
X158185139Y-126992332D01*
X158176607Y-127064957D01*
X158178784Y-127215307D01*
X158178784Y-127215307D01*
G37*
X158178784Y-127215307D02*
X158209731Y-127334337D01*
X158273600Y-127434021D01*
X158321313Y-127482288D01*
X158434106Y-127561408D01*
X158564950Y-127606752D01*
X158725792Y-127622330D01*
X158738794Y-127622410D01*
X158869530Y-127622549D01*
X158869530Y-126870091D01*
X158938010Y-126886130D01*
X159000031Y-126915091D01*
X159064654Y-126965778D01*
X159074971Y-126976379D01*
X159130805Y-127067494D01*
X159140275Y-127171400D01*
X159103540Y-127291000D01*
X159093647Y-127311274D01*
X159063574Y-127373456D01*
X159046440Y-127415106D01*
X159044855Y-127422373D01*
X159060242Y-127447740D01*
X159097887Y-127496120D01*
X159118459Y-127520679D01*
X159165714Y-127571570D01*
X159196917Y-127588281D01*
X159225620Y-127576683D01*
X159233468Y-127570483D01*
X159267819Y-127528493D01*
X159309565Y-127459206D01*
X159333935Y-127410882D01*
X159376873Y-127273711D01*
X159390786Y-127121847D01*
X159374300Y-126978024D01*
X159362496Y-126937745D01*
X159295689Y-126813078D01*
X159192892Y-126720671D01*
X159053105Y-126659990D01*
X158875330Y-126630498D01*
X158782373Y-126627260D01*
X158647033Y-126636714D01*
X158647033Y-126875490D01*
X158657038Y-126898584D01*
X158664888Y-126960662D01*
X158669521Y-127050914D01*
X158670314Y-127112058D01*
X158669549Y-127222040D01*
X158665970Y-127291457D01*
X158657649Y-127329538D01*
X158642657Y-127345515D01*
X158620903Y-127348627D01*
X158553892Y-127327278D01*
X158487664Y-127273529D01*
X158436832Y-127202822D01*
X158416038Y-127132089D01*
X158434484Y-127036016D01*
X158487811Y-126952849D01*
X158564677Y-126895186D01*
X158647033Y-126875490D01*
X158647033Y-126636714D01*
X158585291Y-126641028D01*
X158428271Y-126683520D01*
X158310069Y-126755635D01*
X158229440Y-126858273D01*
X158185139Y-126992332D01*
X158176607Y-127064957D01*
X158178784Y-127215307D01*
G36*
X158171883Y-126428446D02*
X158190755Y-126524177D01*
X158218699Y-126578677D01*
X158265123Y-126636008D01*
X158368111Y-126554441D01*
X158430479Y-126504150D01*
X158460907Y-126470001D01*
X158465555Y-126436063D01*
X158450586Y-126386406D01*
X158442117Y-126363096D01*
X158429622Y-126268063D01*
X158456406Y-126181032D01*
X158516915Y-126117138D01*
X158536208Y-126106759D01*
X158587314Y-126095456D01*
X158681500Y-126086732D01*
X158812089Y-126080997D01*
X158972405Y-126078660D01*
X158995211Y-126078627D01*
X159392471Y-126078627D01*
X159392471Y-125804705D01*
X158172275Y-125804705D01*
X158172275Y-125941666D01*
X158174337Y-126020638D01*
X158183513Y-126061779D01*
X158204290Y-126076992D01*
X158223886Y-126078627D01*
X158275497Y-126078627D01*
X158223886Y-126144240D01*
X158188675Y-126219475D01*
X158171265Y-126320544D01*
X158171883Y-126428446D01*
X158171883Y-126428446D01*
G37*
X158171883Y-126428446D02*
X158190755Y-126524177D01*
X158218699Y-126578677D01*
X158265123Y-126636008D01*
X158368111Y-126554441D01*
X158430479Y-126504150D01*
X158460907Y-126470001D01*
X158465555Y-126436063D01*
X158450586Y-126386406D01*
X158442117Y-126363096D01*
X158429622Y-126268063D01*
X158456406Y-126181032D01*
X158516915Y-126117138D01*
X158536208Y-126106759D01*
X158587314Y-126095456D01*
X158681500Y-126086732D01*
X158812089Y-126080997D01*
X158972405Y-126078660D01*
X158995211Y-126078627D01*
X159392471Y-126078627D01*
X159392471Y-125804705D01*
X158172275Y-125804705D01*
X158172275Y-125941666D01*
X158174337Y-126020638D01*
X158183513Y-126061779D01*
X158204290Y-126076992D01*
X158223886Y-126078627D01*
X158275497Y-126078627D01*
X158223886Y-126144240D01*
X158188675Y-126219475D01*
X158171265Y-126320544D01*
X158171883Y-126428446D01*
G36*
X158179669Y-125246459D02*
X158205163Y-125351420D01*
X158218669Y-125381761D01*
X158254046Y-125440573D01*
X158293890Y-125485709D01*
X158345120Y-125519106D01*
X158414654Y-125542701D01*
X158509409Y-125558433D01*
X158636305Y-125568239D01*
X158802258Y-125574057D01*
X158913108Y-125576266D01*
X159392471Y-125584396D01*
X159392471Y-125445531D01*
X159388938Y-125361287D01*
X159376866Y-125317884D01*
X159356594Y-125306666D01*
X159334674Y-125300744D01*
X159338865Y-125274266D01*
X159356441Y-125238186D01*
X159383382Y-125147862D01*
X159390642Y-125031777D01*
X159378767Y-124909680D01*
X159348305Y-124801321D01*
X159344077Y-124791602D01*
X159274505Y-124692568D01*
X159177789Y-124627281D01*
X159064738Y-124597240D01*
X159024122Y-124599535D01*
X159024122Y-124844633D01*
X159078782Y-124866229D01*
X159117952Y-124930259D01*
X159138974Y-125033565D01*
X159141766Y-125088774D01*
X159134620Y-125180782D01*
X159106848Y-125241941D01*
X159093647Y-125256862D01*
X159021829Y-125297287D01*
X158956686Y-125306666D01*
X158869530Y-125306666D01*
X158869530Y-125185269D01*
X158876722Y-125044153D01*
X158899345Y-124945173D01*
X158938964Y-124882633D01*
X158956628Y-124868631D01*
X159024122Y-124844633D01*
X159024122Y-124599535D01*
X158946157Y-124603941D01*
X158832855Y-124648880D01*
X158756285Y-124710196D01*
X158723181Y-124747332D01*
X158701425Y-124783687D01*
X158688161Y-124830990D01*
X158680528Y-124900973D01*
X158675670Y-125005364D01*
X158674273Y-125046770D01*
X158665780Y-125306666D01*
X158587116Y-125306285D01*
X158504428Y-125296219D01*
X158454431Y-125259829D01*
X158422489Y-125186311D01*
X158421920Y-125184339D01*
X158409361Y-125080105D01*
X158425766Y-124978108D01*
X158465657Y-124902305D01*
X158485354Y-124871890D01*
X158482629Y-124839132D01*
X158454091Y-124788721D01*
X158433950Y-124759119D01*
X158390919Y-124701218D01*
X158358662Y-124665352D01*
X158349427Y-124659597D01*
X158301636Y-124683295D01*
X158244562Y-124753313D01*
X158225305Y-124783725D01*
X158192140Y-124871155D01*
X158173350Y-124988983D01*
X158169129Y-125119866D01*
X158179669Y-125246459D01*
X158179669Y-125246459D01*
G37*
X158179669Y-125246459D02*
X158205163Y-125351420D01*
X158218669Y-125381761D01*
X158254046Y-125440573D01*
X158293890Y-125485709D01*
X158345120Y-125519106D01*
X158414654Y-125542701D01*
X158509409Y-125558433D01*
X158636305Y-125568239D01*
X158802258Y-125574057D01*
X158913108Y-125576266D01*
X159392471Y-125584396D01*
X159392471Y-125445531D01*
X159388938Y-125361287D01*
X159376866Y-125317884D01*
X159356594Y-125306666D01*
X159334674Y-125300744D01*
X159338865Y-125274266D01*
X159356441Y-125238186D01*
X159383382Y-125147862D01*
X159390642Y-125031777D01*
X159378767Y-124909680D01*
X159348305Y-124801321D01*
X159344077Y-124791602D01*
X159274505Y-124692568D01*
X159177789Y-124627281D01*
X159064738Y-124597240D01*
X159024122Y-124599535D01*
X159024122Y-124844633D01*
X159078782Y-124866229D01*
X159117952Y-124930259D01*
X159138974Y-125033565D01*
X159141766Y-125088774D01*
X159134620Y-125180782D01*
X159106848Y-125241941D01*
X159093647Y-125256862D01*
X159021829Y-125297287D01*
X158956686Y-125306666D01*
X158869530Y-125306666D01*
X158869530Y-125185269D01*
X158876722Y-125044153D01*
X158899345Y-124945173D01*
X158938964Y-124882633D01*
X158956628Y-124868631D01*
X159024122Y-124844633D01*
X159024122Y-124599535D01*
X158946157Y-124603941D01*
X158832855Y-124648880D01*
X158756285Y-124710196D01*
X158723181Y-124747332D01*
X158701425Y-124783687D01*
X158688161Y-124830990D01*
X158680528Y-124900973D01*
X158675670Y-125005364D01*
X158674273Y-125046770D01*
X158665780Y-125306666D01*
X158587116Y-125306285D01*
X158504428Y-125296219D01*
X158454431Y-125259829D01*
X158422489Y-125186311D01*
X158421920Y-125184339D01*
X158409361Y-125080105D01*
X158425766Y-124978108D01*
X158465657Y-124902305D01*
X158485354Y-124871890D01*
X158482629Y-124839132D01*
X158454091Y-124788721D01*
X158433950Y-124759119D01*
X158390919Y-124701218D01*
X158358662Y-124665352D01*
X158349427Y-124659597D01*
X158301636Y-124683295D01*
X158244562Y-124753313D01*
X158225305Y-124783725D01*
X158192140Y-124871155D01*
X158173350Y-124988983D01*
X158169129Y-125119866D01*
X158179669Y-125246459D01*
G36*
X158177332Y-123747528D02*
X158184726Y-123846014D01*
X158570706Y-123974776D01*
X158956686Y-124103537D01*
X158819726Y-124143911D01*
X158735083Y-124168207D01*
X158620697Y-124200167D01*
X158494963Y-124234679D01*
X158427520Y-124252928D01*
X158172275Y-124321571D01*
X158172275Y-124604773D01*
X158439971Y-124520122D01*
X158571638Y-124478435D01*
X158730458Y-124428074D01*
X158896128Y-124375481D01*
X159043843Y-124328530D01*
X159380020Y-124221589D01*
X159395044Y-123990661D01*
X159188316Y-123928050D01*
X159059896Y-123889438D01*
X158918322Y-123847300D01*
X158793285Y-123810472D01*
X158788309Y-123809018D01*
X158703586Y-123781511D01*
X158645778Y-123757242D01*
X158623918Y-123740243D01*
X158626446Y-123736750D01*
X158660336Y-123724490D01*
X158732930Y-123701195D01*
X158835101Y-123669700D01*
X158957720Y-123632842D01*
X159025167Y-123612899D01*
X159392471Y-123504895D01*
X159392471Y-123275679D01*
X158813500Y-123092439D01*
X158651091Y-123040963D01*
X158503602Y-122994070D01*
X158377960Y-122953977D01*
X158281095Y-122922897D01*
X158219934Y-122903045D01*
X158202065Y-122897011D01*
X158183768Y-122901788D01*
X158175755Y-122939297D01*
X158176557Y-123017355D01*
X158177163Y-123029574D01*
X158184726Y-123174326D01*
X158533353Y-123269130D01*
X158660497Y-123303977D01*
X158772265Y-123335117D01*
X158858953Y-123359809D01*
X158910856Y-123375312D01*
X158919318Y-123378176D01*
X158909587Y-123390046D01*
X158859172Y-123413983D01*
X158774935Y-123447239D01*
X158663741Y-123487064D01*
X158563297Y-123520730D01*
X158169939Y-123649041D01*
X158177332Y-123747528D01*
X158177332Y-123747528D01*
G37*
X158177332Y-123747528D02*
X158184726Y-123846014D01*
X158570706Y-123974776D01*
X158956686Y-124103537D01*
X158819726Y-124143911D01*
X158735083Y-124168207D01*
X158620697Y-124200167D01*
X158494963Y-124234679D01*
X158427520Y-124252928D01*
X158172275Y-124321571D01*
X158172275Y-124604773D01*
X158439971Y-124520122D01*
X158571638Y-124478435D01*
X158730458Y-124428074D01*
X158896128Y-124375481D01*
X159043843Y-124328530D01*
X159380020Y-124221589D01*
X159395044Y-123990661D01*
X159188316Y-123928050D01*
X159059896Y-123889438D01*
X158918322Y-123847300D01*
X158793285Y-123810472D01*
X158788309Y-123809018D01*
X158703586Y-123781511D01*
X158645778Y-123757242D01*
X158623918Y-123740243D01*
X158626446Y-123736750D01*
X158660336Y-123724490D01*
X158732930Y-123701195D01*
X158835101Y-123669700D01*
X158957720Y-123632842D01*
X159025167Y-123612899D01*
X159392471Y-123504895D01*
X159392471Y-123275679D01*
X158813500Y-123092439D01*
X158651091Y-123040963D01*
X158503602Y-122994070D01*
X158377960Y-122953977D01*
X158281095Y-122922897D01*
X158219934Y-122903045D01*
X158202065Y-122897011D01*
X158183768Y-122901788D01*
X158175755Y-122939297D01*
X158176557Y-123017355D01*
X158177163Y-123029574D01*
X158184726Y-123174326D01*
X158533353Y-123269130D01*
X158660497Y-123303977D01*
X158772265Y-123335117D01*
X158858953Y-123359809D01*
X158910856Y-123375312D01*
X158919318Y-123378176D01*
X158909587Y-123390046D01*
X158859172Y-123413983D01*
X158774935Y-123447239D01*
X158663741Y-123487064D01*
X158563297Y-123520730D01*
X158169939Y-123649041D01*
X158177332Y-123747528D01*
G36*
X159392471Y-122791568D02*
X159392471Y-122654607D01*
X159390140Y-122575111D01*
X159380488Y-122533708D01*
X159359525Y-122518801D01*
X159345351Y-122517647D01*
X159316927Y-122515133D01*
X159311475Y-122499280D01*
X159328998Y-122457621D01*
X159345351Y-122425224D01*
X159384103Y-122300849D01*
X159386346Y-122165646D01*
X159357444Y-122055726D01*
X159287619Y-121953366D01*
X159184555Y-121875340D01*
X159062989Y-121832614D01*
X159056192Y-121831526D01*
X158982032Y-121825178D01*
X158875570Y-121822021D01*
X158795052Y-121822275D01*
X158795052Y-122094289D01*
X158902070Y-122100590D01*
X158990278Y-122114925D01*
X159040090Y-122134331D01*
X159108162Y-122207746D01*
X159132564Y-122294914D01*
X159112831Y-122384804D01*
X159053968Y-122461617D01*
X159014379Y-122490708D01*
X158967138Y-122507717D01*
X158898181Y-122515684D01*
X158794607Y-122517647D01*
X158692039Y-122514134D01*
X158601921Y-122504857D01*
X158541613Y-122491706D01*
X158536208Y-122489514D01*
X158471940Y-122436478D01*
X158436656Y-122359067D01*
X158430959Y-122272454D01*
X158455453Y-122191807D01*
X158510742Y-122132297D01*
X158521743Y-122126124D01*
X158588827Y-122106801D01*
X158685284Y-122096274D01*
X158795052Y-122094289D01*
X158795052Y-121822275D01*
X158754225Y-121822404D01*
X158688918Y-121824194D01*
X158527355Y-121836373D01*
X158406053Y-121861685D01*
X158316379Y-121903793D01*
X158249699Y-121966359D01*
X158210557Y-122027100D01*
X158183040Y-122111964D01*
X158173603Y-122217515D01*
X158181290Y-122325598D01*
X158205146Y-122418058D01*
X158233685Y-122466910D01*
X158279601Y-122517647D01*
X157699137Y-122517647D01*
X157699137Y-122791568D01*
X159392471Y-122791568D01*
X159392471Y-122791568D01*
G37*
X159392471Y-122791568D02*
X159392471Y-122654607D01*
X159390140Y-122575111D01*
X159380488Y-122533708D01*
X159359525Y-122518801D01*
X159345351Y-122517647D01*
X159316927Y-122515133D01*
X159311475Y-122499280D01*
X159328998Y-122457621D01*
X159345351Y-122425224D01*
X159384103Y-122300849D01*
X159386346Y-122165646D01*
X159357444Y-122055726D01*
X159287619Y-121953366D01*
X159184555Y-121875340D01*
X159062989Y-121832614D01*
X159056192Y-121831526D01*
X158982032Y-121825178D01*
X158875570Y-121822021D01*
X158795052Y-121822275D01*
X158795052Y-122094289D01*
X158902070Y-122100590D01*
X158990278Y-122114925D01*
X159040090Y-122134331D01*
X159108162Y-122207746D01*
X159132564Y-122294914D01*
X159112831Y-122384804D01*
X159053968Y-122461617D01*
X159014379Y-122490708D01*
X158967138Y-122507717D01*
X158898181Y-122515684D01*
X158794607Y-122517647D01*
X158692039Y-122514134D01*
X158601921Y-122504857D01*
X158541613Y-122491706D01*
X158536208Y-122489514D01*
X158471940Y-122436478D01*
X158436656Y-122359067D01*
X158430959Y-122272454D01*
X158455453Y-122191807D01*
X158510742Y-122132297D01*
X158521743Y-122126124D01*
X158588827Y-122106801D01*
X158685284Y-122096274D01*
X158795052Y-122094289D01*
X158795052Y-121822275D01*
X158754225Y-121822404D01*
X158688918Y-121824194D01*
X158527355Y-121836373D01*
X158406053Y-121861685D01*
X158316379Y-121903793D01*
X158249699Y-121966359D01*
X158210557Y-122027100D01*
X158183040Y-122111964D01*
X158173603Y-122217515D01*
X158181290Y-122325598D01*
X158205146Y-122418058D01*
X158233685Y-122466910D01*
X158279601Y-122517647D01*
X157699137Y-122517647D01*
X157699137Y-122791568D01*
X159392471Y-122791568D01*
G36*
X158174921Y-121222764D02*
X158186091Y-121260030D01*
X158210633Y-121272043D01*
X158221712Y-121272549D01*
X158252572Y-121274704D01*
X158257417Y-121289551D01*
X158236260Y-121329657D01*
X158221806Y-121353480D01*
X158190850Y-121428638D01*
X158175544Y-121518406D01*
X158174367Y-121612529D01*
X158185799Y-121700754D01*
X158208320Y-121772826D01*
X158240409Y-121818492D01*
X158280545Y-121827498D01*
X158291415Y-121822953D01*
X158336534Y-121789821D01*
X158392026Y-121738445D01*
X158400996Y-121729152D01*
X158442245Y-121680182D01*
X158455572Y-121637931D01*
X158446271Y-121578841D01*
X158440090Y-121555169D01*
X158425246Y-121481504D01*
X158431921Y-121429710D01*
X158455465Y-121385969D01*
X158487061Y-121345902D01*
X158526798Y-121316392D01*
X158582252Y-121295884D01*
X158661003Y-121282824D01*
X158770629Y-121275656D01*
X158918706Y-121272824D01*
X159008111Y-121272549D01*
X159392471Y-121272549D01*
X159392471Y-121023529D01*
X158172275Y-121023529D01*
X158172275Y-121148039D01*
X158174921Y-121222764D01*
X158174921Y-121222764D01*
G37*
X158174921Y-121222764D02*
X158186091Y-121260030D01*
X158210633Y-121272043D01*
X158221712Y-121272549D01*
X158252572Y-121274704D01*
X158257417Y-121289551D01*
X158236260Y-121329657D01*
X158221806Y-121353480D01*
X158190850Y-121428638D01*
X158175544Y-121518406D01*
X158174367Y-121612529D01*
X158185799Y-121700754D01*
X158208320Y-121772826D01*
X158240409Y-121818492D01*
X158280545Y-121827498D01*
X158291415Y-121822953D01*
X158336534Y-121789821D01*
X158392026Y-121738445D01*
X158400996Y-121729152D01*
X158442245Y-121680182D01*
X158455572Y-121637931D01*
X158446271Y-121578841D01*
X158440090Y-121555169D01*
X158425246Y-121481504D01*
X158431921Y-121429710D01*
X158455465Y-121385969D01*
X158487061Y-121345902D01*
X158526798Y-121316392D01*
X158582252Y-121295884D01*
X158661003Y-121282824D01*
X158770629Y-121275656D01*
X158918706Y-121272824D01*
X159008111Y-121272549D01*
X159392471Y-121272549D01*
X159392471Y-121023529D01*
X158172275Y-121023529D01*
X158172275Y-121148039D01*
X158174921Y-121222764D01*
G36*
X158181922Y-120448720D02*
X158213180Y-120565870D01*
X158269837Y-120655051D01*
X158344045Y-120717984D01*
X158375716Y-120737548D01*
X158408891Y-120751992D01*
X158451329Y-120762089D01*
X158510788Y-120768615D01*
X158595029Y-120772342D01*
X158711810Y-120774046D01*
X158868890Y-120774500D01*
X158910565Y-120774509D01*
X159392471Y-120774509D01*
X159392471Y-120654980D01*
X159387131Y-120578739D01*
X159373604Y-120522366D01*
X159365262Y-120508242D01*
X159350864Y-120469630D01*
X159365262Y-120430192D01*
X159383237Y-120365262D01*
X159390472Y-120270945D01*
X159387333Y-120166407D01*
X159374186Y-120070811D01*
X159357318Y-120015000D01*
X159287986Y-119906998D01*
X159191772Y-119839503D01*
X159063844Y-119809159D01*
X159060559Y-119808877D01*
X159003808Y-119811540D01*
X159003808Y-120052353D01*
X159068358Y-120073405D01*
X159104686Y-120107697D01*
X159132162Y-120176532D01*
X159143129Y-120267390D01*
X159137731Y-120360042D01*
X159116110Y-120434256D01*
X159102239Y-120455049D01*
X159038143Y-120491381D01*
X158965278Y-120500588D01*
X158869530Y-120500588D01*
X158869530Y-120362827D01*
X158879605Y-120231953D01*
X158908148Y-120132741D01*
X158952639Y-120071023D01*
X159003808Y-120052353D01*
X159003808Y-119811540D01*
X158920790Y-119815436D01*
X158810282Y-119861534D01*
X158726712Y-119948200D01*
X158719110Y-119960179D01*
X158694357Y-120011655D01*
X158679368Y-120075368D01*
X158672082Y-120164435D01*
X158670407Y-120270245D01*
X158670314Y-120500588D01*
X158573755Y-120500588D01*
X158498836Y-120490817D01*
X158448644Y-120465884D01*
X158445972Y-120462965D01*
X158424015Y-120407481D01*
X158415505Y-120323727D01*
X158419687Y-120231167D01*
X158435809Y-120149270D01*
X158459990Y-120100673D01*
X158479359Y-120074341D01*
X158483057Y-120046535D01*
X158467188Y-120008161D01*
X158427855Y-119950125D01*
X158361164Y-119863331D01*
X158354916Y-119855365D01*
X158331800Y-119859447D01*
X158293352Y-119893501D01*
X158250627Y-119945260D01*
X158214679Y-120002455D01*
X158206191Y-120020425D01*
X158189252Y-120085972D01*
X158177170Y-120182020D01*
X158172323Y-120289329D01*
X158172313Y-120294347D01*
X158181922Y-120448720D01*
X158181922Y-120448720D01*
G37*
X158181922Y-120448720D02*
X158213180Y-120565870D01*
X158269837Y-120655051D01*
X158344045Y-120717984D01*
X158375716Y-120737548D01*
X158408891Y-120751992D01*
X158451329Y-120762089D01*
X158510788Y-120768615D01*
X158595029Y-120772342D01*
X158711810Y-120774046D01*
X158868890Y-120774500D01*
X158910565Y-120774509D01*
X159392471Y-120774509D01*
X159392471Y-120654980D01*
X159387131Y-120578739D01*
X159373604Y-120522366D01*
X159365262Y-120508242D01*
X159350864Y-120469630D01*
X159365262Y-120430192D01*
X159383237Y-120365262D01*
X159390472Y-120270945D01*
X159387333Y-120166407D01*
X159374186Y-120070811D01*
X159357318Y-120015000D01*
X159287986Y-119906998D01*
X159191772Y-119839503D01*
X159063844Y-119809159D01*
X159060559Y-119808877D01*
X159003808Y-119811540D01*
X159003808Y-120052353D01*
X159068358Y-120073405D01*
X159104686Y-120107697D01*
X159132162Y-120176532D01*
X159143129Y-120267390D01*
X159137731Y-120360042D01*
X159116110Y-120434256D01*
X159102239Y-120455049D01*
X159038143Y-120491381D01*
X158965278Y-120500588D01*
X158869530Y-120500588D01*
X158869530Y-120362827D01*
X158879605Y-120231953D01*
X158908148Y-120132741D01*
X158952639Y-120071023D01*
X159003808Y-120052353D01*
X159003808Y-119811540D01*
X158920790Y-119815436D01*
X158810282Y-119861534D01*
X158726712Y-119948200D01*
X158719110Y-119960179D01*
X158694357Y-120011655D01*
X158679368Y-120075368D01*
X158672082Y-120164435D01*
X158670407Y-120270245D01*
X158670314Y-120500588D01*
X158573755Y-120500588D01*
X158498836Y-120490817D01*
X158448644Y-120465884D01*
X158445972Y-120462965D01*
X158424015Y-120407481D01*
X158415505Y-120323727D01*
X158419687Y-120231167D01*
X158435809Y-120149270D01*
X158459990Y-120100673D01*
X158479359Y-120074341D01*
X158483057Y-120046535D01*
X158467188Y-120008161D01*
X158427855Y-119950125D01*
X158361164Y-119863331D01*
X158354916Y-119855365D01*
X158331800Y-119859447D01*
X158293352Y-119893501D01*
X158250627Y-119945260D01*
X158214679Y-120002455D01*
X158206191Y-120020425D01*
X158189252Y-120085972D01*
X158177170Y-120182020D01*
X158172323Y-120289329D01*
X158172313Y-120294347D01*
X158181922Y-120448720D01*
G36*
X156325560Y-119409909D02*
X156351499Y-119462412D01*
X156396700Y-119527158D01*
X156445991Y-119574347D01*
X156507885Y-119606665D01*
X156590896Y-119626797D01*
X156703538Y-119637430D01*
X156854324Y-119641247D01*
X156919149Y-119641470D01*
X157061221Y-119640818D01*
X157162757Y-119638112D01*
X157233015Y-119632224D01*
X157281256Y-119622027D01*
X157316738Y-119606394D01*
X157340943Y-119590128D01*
X157443929Y-119486295D01*
X157505874Y-119364021D01*
X157524506Y-119232114D01*
X157497549Y-119099384D01*
X157478486Y-119057333D01*
X157426015Y-118956666D01*
X158248259Y-118956666D01*
X158210267Y-119030135D01*
X158180872Y-119126941D01*
X158173342Y-119245928D01*
X158187245Y-119364745D01*
X158218476Y-119454473D01*
X158277954Y-119528899D01*
X158363066Y-119592490D01*
X158371805Y-119597271D01*
X158412966Y-119617437D01*
X158454454Y-119632165D01*
X158504713Y-119642303D01*
X158572184Y-119648699D01*
X158665309Y-119652201D01*
X158792531Y-119653658D01*
X158935701Y-119653921D01*
X159392471Y-119653921D01*
X159392471Y-119380000D01*
X158550231Y-119380000D01*
X158485763Y-119303383D01*
X158434194Y-119223793D01*
X158424818Y-119148422D01*
X158448947Y-119072633D01*
X158472574Y-119032241D01*
X158506227Y-119002179D01*
X158557087Y-118980797D01*
X158632334Y-118966450D01*
X158739146Y-118957490D01*
X158884704Y-118952270D01*
X158981588Y-118950431D01*
X159380020Y-118944215D01*
X159387547Y-118813480D01*
X159395073Y-118682745D01*
X156922582Y-118682745D01*
X156922582Y-118956666D01*
X157060423Y-118963650D01*
X157156107Y-118987182D01*
X157215641Y-119031135D01*
X157245029Y-119099382D01*
X157250902Y-119168333D01*
X157244154Y-119246386D01*
X157217594Y-119298189D01*
X157182499Y-119330583D01*
X157144752Y-119356084D01*
X157102700Y-119371265D01*
X157043779Y-119378019D01*
X156955428Y-119378241D01*
X156881448Y-119375968D01*
X156770000Y-119370749D01*
X156696833Y-119362979D01*
X156650422Y-119349895D01*
X156619244Y-119328732D01*
X156601223Y-119308760D01*
X156561925Y-119225314D01*
X156555579Y-119126551D01*
X156569116Y-119069841D01*
X156617233Y-119013692D01*
X156710833Y-118976499D01*
X156849254Y-118958472D01*
X156922582Y-118956666D01*
X156922582Y-118682745D01*
X156304628Y-118682745D01*
X156304628Y-118819705D01*
X156307879Y-118901935D01*
X156319426Y-118944360D01*
X156341952Y-118956661D01*
X156342620Y-118956666D01*
X156364681Y-118962374D01*
X156362176Y-118987547D01*
X156337935Y-119037598D01*
X156300851Y-119154219D01*
X156296953Y-119285429D01*
X156325560Y-119409909D01*
X156325560Y-119409909D01*
G37*
X156325560Y-119409909D02*
X156351499Y-119462412D01*
X156396700Y-119527158D01*
X156445991Y-119574347D01*
X156507885Y-119606665D01*
X156590896Y-119626797D01*
X156703538Y-119637430D01*
X156854324Y-119641247D01*
X156919149Y-119641470D01*
X157061221Y-119640818D01*
X157162757Y-119638112D01*
X157233015Y-119632224D01*
X157281256Y-119622027D01*
X157316738Y-119606394D01*
X157340943Y-119590128D01*
X157443929Y-119486295D01*
X157505874Y-119364021D01*
X157524506Y-119232114D01*
X157497549Y-119099384D01*
X157478486Y-119057333D01*
X157426015Y-118956666D01*
X158248259Y-118956666D01*
X158210267Y-119030135D01*
X158180872Y-119126941D01*
X158173342Y-119245928D01*
X158187245Y-119364745D01*
X158218476Y-119454473D01*
X158277954Y-119528899D01*
X158363066Y-119592490D01*
X158371805Y-119597271D01*
X158412966Y-119617437D01*
X158454454Y-119632165D01*
X158504713Y-119642303D01*
X158572184Y-119648699D01*
X158665309Y-119652201D01*
X158792531Y-119653658D01*
X158935701Y-119653921D01*
X159392471Y-119653921D01*
X159392471Y-119380000D01*
X158550231Y-119380000D01*
X158485763Y-119303383D01*
X158434194Y-119223793D01*
X158424818Y-119148422D01*
X158448947Y-119072633D01*
X158472574Y-119032241D01*
X158506227Y-119002179D01*
X158557087Y-118980797D01*
X158632334Y-118966450D01*
X158739146Y-118957490D01*
X158884704Y-118952270D01*
X158981588Y-118950431D01*
X159380020Y-118944215D01*
X159387547Y-118813480D01*
X159395073Y-118682745D01*
X156922582Y-118682745D01*
X156922582Y-118956666D01*
X157060423Y-118963650D01*
X157156107Y-118987182D01*
X157215641Y-119031135D01*
X157245029Y-119099382D01*
X157250902Y-119168333D01*
X157244154Y-119246386D01*
X157217594Y-119298189D01*
X157182499Y-119330583D01*
X157144752Y-119356084D01*
X157102700Y-119371265D01*
X157043779Y-119378019D01*
X156955428Y-119378241D01*
X156881448Y-119375968D01*
X156770000Y-119370749D01*
X156696833Y-119362979D01*
X156650422Y-119349895D01*
X156619244Y-119328732D01*
X156601223Y-119308760D01*
X156561925Y-119225314D01*
X156555579Y-119126551D01*
X156569116Y-119069841D01*
X156617233Y-119013692D01*
X156710833Y-118976499D01*
X156849254Y-118958472D01*
X156922582Y-118956666D01*
X156922582Y-118682745D01*
X156304628Y-118682745D01*
X156304628Y-118819705D01*
X156307879Y-118901935D01*
X156319426Y-118944360D01*
X156341952Y-118956661D01*
X156342620Y-118956666D01*
X156364681Y-118962374D01*
X156362176Y-118987547D01*
X156337935Y-119037598D01*
X156300851Y-119154219D01*
X156296953Y-119285429D01*
X156325560Y-119409909D01*
G04 #@! TD*
M02*
