G04 #@! TF.GenerationSoftware,KiCad,Pcbnew,6.0.0-rc1-unknown-0cca1c6~65~ubuntu16.04.1*
G04 #@! TF.CreationDate,2018-08-03T10:45:00+02:00*
G04 #@! TF.ProjectId,ArduinoSpecAn,41726475696E6F53706563416E2E6B69,1.0*
G04 #@! TF.SameCoordinates,Original*
G04 #@! TF.FileFunction,Soldermask,Top*
G04 #@! TF.FilePolarity,Negative*
%FSLAX46Y46*%
G04 Gerber Fmt 4.6, Leading zero omitted, Abs format (unit mm)*
G04 Created by KiCad (PCBNEW 6.0.0-rc1-unknown-0cca1c6~65~ubuntu16.04.1) date Fri Aug  3 10:45:00 2018*
%MOMM*%
%LPD*%
G01*
G04 APERTURE LIST*
%ADD10R,2.000000X2.000000*%
%ADD11O,2.000000X2.000000*%
%ADD12R,4.600000X1.800000*%
%ADD13R,4.600000X1.600000*%
%ADD14R,1.543000X0.908000*%
%ADD15R,1.050000X1.460000*%
%ADD16R,1.900000X1.545000*%
%ADD17R,1.545000X1.900000*%
%ADD18R,4.200000X2.400000*%
%ADD19R,1.900000X2.400000*%
%ADD20C,1.900000*%
%ADD21R,1.200000X1.300000*%
%ADD22R,1.800000X0.700000*%
%ADD23R,1.370000X1.900000*%
%ADD24C,0.203200*%
G04 APERTURE END LIST*
D10*
G04 #@! TO.C,A1*
X125222000Y-125984000D03*
D11*
X109982000Y-92964000D03*
X125222000Y-123444000D03*
X109982000Y-95504000D03*
X125222000Y-120904000D03*
X109982000Y-98044000D03*
X125222000Y-118364000D03*
X109982000Y-100584000D03*
X125222000Y-115824000D03*
X109982000Y-103124000D03*
X125222000Y-113284000D03*
X109982000Y-105664000D03*
X125222000Y-110744000D03*
X109982000Y-108204000D03*
X125222000Y-108204000D03*
X109982000Y-110744000D03*
X125222000Y-105664000D03*
X109982000Y-113284000D03*
X125222000Y-103124000D03*
X109982000Y-115824000D03*
X125222000Y-100584000D03*
X109982000Y-118364000D03*
X125222000Y-98044000D03*
X109982000Y-120904000D03*
X125222000Y-95504000D03*
X109982000Y-123444000D03*
X125222000Y-92964000D03*
X109982000Y-125984000D03*
X125222000Y-90424000D03*
X109982000Y-90424000D03*
G04 #@! TD*
D12*
G04 #@! TO.C,J1*
X165676000Y-123190000D03*
D13*
X165676000Y-125820000D03*
X165676000Y-120560000D03*
G04 #@! TD*
D12*
G04 #@! TO.C,J2*
X165676000Y-99314000D03*
D13*
X165676000Y-101944000D03*
X165676000Y-96684000D03*
G04 #@! TD*
D14*
G04 #@! TO.C,U1*
X149987000Y-123571000D03*
X149987000Y-124841000D03*
X149987000Y-126111000D03*
X149987000Y-127381000D03*
X143637000Y-127381000D03*
X143637000Y-126111000D03*
X143637000Y-124841000D03*
X143637000Y-123571000D03*
G04 #@! TD*
D15*
G04 #@! TO.C,U3*
X135067000Y-127338000D03*
X136017000Y-127338000D03*
X136967000Y-127338000D03*
X136967000Y-125138000D03*
X135067000Y-125138000D03*
G04 #@! TD*
D16*
G04 #@! TO.C,C2*
X136525000Y-120623500D03*
X136525000Y-122708500D03*
G04 #@! TD*
D17*
G04 #@! TO.C,C4*
X156691500Y-123190000D03*
X158776500Y-123190000D03*
G04 #@! TD*
G04 #@! TO.C,C5*
X156691500Y-128270000D03*
X158776500Y-128270000D03*
G04 #@! TD*
G04 #@! TO.C,R2*
X156691500Y-120650000D03*
X158776500Y-120650000D03*
G04 #@! TD*
G04 #@! TO.C,R3*
X158776500Y-125730000D03*
X156691500Y-125730000D03*
G04 #@! TD*
D16*
G04 #@! TO.C,R11*
X129413000Y-125957500D03*
X129413000Y-128042500D03*
G04 #@! TD*
G04 #@! TO.C,R12*
X132207000Y-125957500D03*
X132207000Y-128042500D03*
G04 #@! TD*
G04 #@! TO.C,C15*
X133731000Y-122708500D03*
X133731000Y-120623500D03*
G04 #@! TD*
G04 #@! TO.C,C6*
X159993500Y-100356500D03*
X159993500Y-98271500D03*
G04 #@! TD*
G04 #@! TO.C,C7*
X151357500Y-95731500D03*
X151357500Y-97816500D03*
G04 #@! TD*
D17*
G04 #@! TO.C,C1*
X138176000Y-107188000D03*
X136091000Y-107188000D03*
G04 #@! TD*
G04 #@! TO.C,C3*
X131265000Y-107188000D03*
X133350000Y-107188000D03*
G04 #@! TD*
D18*
G04 #@! TO.C,U2*
X133604000Y-97434000D03*
D19*
X133604000Y-103734000D03*
X135904000Y-103734000D03*
X131304000Y-103734000D03*
G04 #@! TD*
D20*
G04 #@! TO.C,Y1*
X149860000Y-89154000D03*
X154740000Y-89154000D03*
G04 #@! TD*
G04 #@! TO.C,TP1*
X139192000Y-103632000D03*
G04 #@! TD*
G04 #@! TO.C,TP2*
X133604000Y-94488000D03*
G04 #@! TD*
G04 #@! TO.C,TP3*
X160528000Y-107696000D03*
G04 #@! TD*
G04 #@! TO.C,TP4*
X128270000Y-103632000D03*
G04 #@! TD*
G04 #@! TO.C,TP5*
X157480000Y-107696000D03*
G04 #@! TD*
D21*
G04 #@! TO.C,Q1*
X147000000Y-98568000D03*
X145100000Y-98568000D03*
X146050000Y-100568000D03*
G04 #@! TD*
G04 #@! TO.C,Q6*
X146050000Y-102632000D03*
X147000000Y-104632000D03*
X145100000Y-104632000D03*
G04 #@! TD*
D16*
G04 #@! TO.C,R1*
X140208000Y-100330000D03*
X140208000Y-98245000D03*
G04 #@! TD*
G04 #@! TO.C,R4*
X152119500Y-106145500D03*
X152119500Y-108230500D03*
G04 #@! TD*
G04 #@! TO.C,R5*
X146558000Y-95784500D03*
X146558000Y-93699500D03*
G04 #@! TD*
G04 #@! TO.C,R6*
X156972000Y-95731500D03*
X156972000Y-97816500D03*
G04 #@! TD*
D22*
G04 #@! TO.C,U4*
X152486000Y-100346000D03*
X152486000Y-100846000D03*
X152486000Y-101346000D03*
X152486000Y-101846000D03*
X152486000Y-102346000D03*
X156886000Y-102346000D03*
X156886000Y-101846000D03*
X156886000Y-101346000D03*
X156886000Y-100846000D03*
X156886000Y-100346000D03*
G04 #@! TD*
D23*
G04 #@! TO.C,D1*
X114168000Y-133858000D03*
X116078000Y-133858000D03*
G04 #@! TD*
G04 #@! TO.C,D2*
X116078000Y-131572000D03*
X114168000Y-131572000D03*
G04 #@! TD*
D17*
G04 #@! TO.C,R7*
X111786500Y-133858000D03*
X109701500Y-133858000D03*
G04 #@! TD*
G04 #@! TO.C,R8*
X109701500Y-131572000D03*
X111786500Y-131572000D03*
G04 #@! TD*
D24*
G36*
X154965400Y-122834400D02*
X152120600Y-122834400D01*
X152120600Y-121158000D01*
X152112866Y-121119119D01*
X152090842Y-121086158D01*
X152057881Y-121064134D01*
X152019000Y-121056400D01*
X141478000Y-121056400D01*
X141439119Y-121064134D01*
X141406158Y-121086158D01*
X141384134Y-121119119D01*
X141376400Y-121158000D01*
X141376400Y-122707400D01*
X138531600Y-122707400D01*
X138531600Y-118084600D01*
X154965400Y-118084600D01*
X154965400Y-122834400D01*
X154965400Y-122834400D01*
G37*
X154965400Y-122834400D02*
X152120600Y-122834400D01*
X152120600Y-121158000D01*
X152112866Y-121119119D01*
X152090842Y-121086158D01*
X152057881Y-121064134D01*
X152019000Y-121056400D01*
X141478000Y-121056400D01*
X141439119Y-121064134D01*
X141406158Y-121086158D01*
X141384134Y-121119119D01*
X141376400Y-121158000D01*
X141376400Y-122707400D01*
X138531600Y-122707400D01*
X138531600Y-118084600D01*
X154965400Y-118084600D01*
X154965400Y-122834400D01*
G36*
X141376400Y-126390400D02*
X138531600Y-126390400D01*
X138531600Y-124434600D01*
X141376400Y-124434600D01*
X141376400Y-126390400D01*
X141376400Y-126390400D01*
G37*
X141376400Y-126390400D02*
X138531600Y-126390400D01*
X138531600Y-124434600D01*
X141376400Y-124434600D01*
X141376400Y-126390400D01*
G36*
X154965400Y-132740400D02*
X138531600Y-132740400D01*
X138531600Y-128244600D01*
X141376400Y-128244600D01*
X141376400Y-130175000D01*
X141384134Y-130213881D01*
X141406158Y-130246842D01*
X141439119Y-130268866D01*
X141478000Y-130276600D01*
X152019000Y-130276600D01*
X152057881Y-130268866D01*
X152090842Y-130246842D01*
X152112866Y-130213881D01*
X152120600Y-130175000D01*
X152120600Y-126974600D01*
X154965400Y-126974600D01*
X154965400Y-132740400D01*
X154965400Y-132740400D01*
G37*
X154965400Y-132740400D02*
X138531600Y-132740400D01*
X138531600Y-128244600D01*
X141376400Y-128244600D01*
X141376400Y-130175000D01*
X141384134Y-130213881D01*
X141406158Y-130246842D01*
X141439119Y-130268866D01*
X141478000Y-130276600D01*
X152019000Y-130276600D01*
X152057881Y-130268866D01*
X152090842Y-130246842D01*
X152112866Y-130213881D01*
X152120600Y-130175000D01*
X152120600Y-126974600D01*
X154965400Y-126974600D01*
X154965400Y-132740400D01*
G36*
X154965400Y-125374400D02*
X152120600Y-125374400D01*
X152120600Y-124307600D01*
X154965400Y-124307600D01*
X154965400Y-125374400D01*
X154965400Y-125374400D01*
G37*
X154965400Y-125374400D02*
X152120600Y-125374400D01*
X152120600Y-124307600D01*
X154965400Y-124307600D01*
X154965400Y-125374400D01*
M02*
