G04 #@! TF.GenerationSoftware,KiCad,Pcbnew,6.0.0-rc1-unknown-0cca1c6~65~ubuntu16.04.1*
G04 #@! TF.CreationDate,2018-08-01T17:46:40+02:00*
G04 #@! TF.ProjectId,ArduinoSpecAn,41726475696E6F53706563416E2E6B69,1.0*
G04 #@! TF.SameCoordinates,Original*
G04 #@! TF.FileFunction,Legend,Top*
G04 #@! TF.FilePolarity,Positive*
%FSLAX46Y46*%
G04 Gerber Fmt 4.6, Leading zero omitted, Abs format (unit mm)*
G04 Created by KiCad (PCBNEW 6.0.0-rc1-unknown-0cca1c6~65~ubuntu16.04.1) date Wed Aug  1 17:46:40 2018*
%MOMM*%
%LPD*%
G01*
G04 APERTURE LIST*
%ADD10C,0.150000*%
%ADD11C,0.300000*%
%ADD12C,0.120000*%
G04 APERTURE END LIST*
D10*
X151489210Y-99314000D02*
G75*
G03X151489210Y-99314000I-359210J0D01*
G01*
X135175809Y-93686380D02*
X135794857Y-93686380D01*
X135461523Y-94067333D01*
X135604380Y-94067333D01*
X135699619Y-94114952D01*
X135747238Y-94162571D01*
X135794857Y-94257809D01*
X135794857Y-94495904D01*
X135747238Y-94591142D01*
X135699619Y-94638761D01*
X135604380Y-94686380D01*
X135318666Y-94686380D01*
X135223428Y-94638761D01*
X135175809Y-94591142D01*
X136223428Y-94591142D02*
X136271047Y-94638761D01*
X136223428Y-94686380D01*
X136175809Y-94638761D01*
X136223428Y-94591142D01*
X136223428Y-94686380D01*
X136604380Y-93686380D02*
X137223428Y-93686380D01*
X136890095Y-94067333D01*
X137032952Y-94067333D01*
X137128190Y-94114952D01*
X137175809Y-94162571D01*
X137223428Y-94257809D01*
X137223428Y-94495904D01*
X137175809Y-94591142D01*
X137128190Y-94638761D01*
X137032952Y-94686380D01*
X136747238Y-94686380D01*
X136652000Y-94638761D01*
X136604380Y-94591142D01*
X137509142Y-93686380D02*
X137842476Y-94686380D01*
X138175809Y-93686380D01*
X141033523Y-103084380D02*
X140557333Y-103084380D01*
X140509714Y-103560571D01*
X140557333Y-103512952D01*
X140652571Y-103465333D01*
X140890666Y-103465333D01*
X140985904Y-103512952D01*
X141033523Y-103560571D01*
X141081142Y-103655809D01*
X141081142Y-103893904D01*
X141033523Y-103989142D01*
X140985904Y-104036761D01*
X140890666Y-104084380D01*
X140652571Y-104084380D01*
X140557333Y-104036761D01*
X140509714Y-103989142D01*
X141366857Y-103084380D02*
X141700190Y-104084380D01*
X142033523Y-103084380D01*
X127508095Y-101354000D02*
X127412857Y-101306380D01*
X127270000Y-101306380D01*
X127127142Y-101354000D01*
X127031904Y-101449238D01*
X126984285Y-101544476D01*
X126936666Y-101734952D01*
X126936666Y-101877809D01*
X126984285Y-102068285D01*
X127031904Y-102163523D01*
X127127142Y-102258761D01*
X127270000Y-102306380D01*
X127365238Y-102306380D01*
X127508095Y-102258761D01*
X127555714Y-102211142D01*
X127555714Y-101877809D01*
X127365238Y-101877809D01*
X127984285Y-102306380D02*
X127984285Y-101306380D01*
X128555714Y-102306380D01*
X128555714Y-101306380D01*
X129031904Y-102306380D02*
X129031904Y-101306380D01*
X129270000Y-101306380D01*
X129412857Y-101354000D01*
X129508095Y-101449238D01*
X129555714Y-101544476D01*
X129603333Y-101734952D01*
X129603333Y-101877809D01*
X129555714Y-102068285D01*
X129508095Y-102163523D01*
X129412857Y-102258761D01*
X129270000Y-102306380D01*
X129031904Y-102306380D01*
D11*
X126827142Y-135044571D02*
X126827142Y-133544571D01*
X127684285Y-135044571D01*
X127684285Y-133544571D01*
X128970000Y-134973142D02*
X128827142Y-135044571D01*
X128541428Y-135044571D01*
X128398571Y-134973142D01*
X128327142Y-134830285D01*
X128327142Y-134258857D01*
X128398571Y-134116000D01*
X128541428Y-134044571D01*
X128827142Y-134044571D01*
X128970000Y-134116000D01*
X129041428Y-134258857D01*
X129041428Y-134401714D01*
X128327142Y-134544571D01*
X129470000Y-134044571D02*
X130041428Y-134044571D01*
X129684285Y-133544571D02*
X129684285Y-134830285D01*
X129755714Y-134973142D01*
X129898571Y-135044571D01*
X130041428Y-135044571D01*
X130398571Y-134044571D02*
X130684285Y-135044571D01*
X130970000Y-134330285D01*
X131255714Y-135044571D01*
X131541428Y-134044571D01*
X132327142Y-135044571D02*
X132184285Y-134973142D01*
X132112857Y-134901714D01*
X132041428Y-134758857D01*
X132041428Y-134330285D01*
X132112857Y-134187428D01*
X132184285Y-134116000D01*
X132327142Y-134044571D01*
X132541428Y-134044571D01*
X132684285Y-134116000D01*
X132755714Y-134187428D01*
X132827142Y-134330285D01*
X132827142Y-134758857D01*
X132755714Y-134901714D01*
X132684285Y-134973142D01*
X132541428Y-135044571D01*
X132327142Y-135044571D01*
X133470000Y-135044571D02*
X133470000Y-134044571D01*
X133470000Y-134330285D02*
X133541428Y-134187428D01*
X133612857Y-134116000D01*
X133755714Y-134044571D01*
X133898571Y-134044571D01*
X134398571Y-135044571D02*
X134398571Y-133544571D01*
X134541428Y-134473142D02*
X134970000Y-135044571D01*
X134970000Y-134044571D02*
X134398571Y-134616000D01*
X136684285Y-134616000D02*
X137398571Y-134616000D01*
X136541428Y-135044571D02*
X137041428Y-133544571D01*
X137541428Y-135044571D01*
X138041428Y-134044571D02*
X138041428Y-135044571D01*
X138041428Y-134187428D02*
X138112857Y-134116000D01*
X138255714Y-134044571D01*
X138470000Y-134044571D01*
X138612857Y-134116000D01*
X138684285Y-134258857D01*
X138684285Y-135044571D01*
X140041428Y-135044571D02*
X140041428Y-134258857D01*
X139970000Y-134116000D01*
X139827142Y-134044571D01*
X139541428Y-134044571D01*
X139398571Y-134116000D01*
X140041428Y-134973142D02*
X139898571Y-135044571D01*
X139541428Y-135044571D01*
X139398571Y-134973142D01*
X139327142Y-134830285D01*
X139327142Y-134687428D01*
X139398571Y-134544571D01*
X139541428Y-134473142D01*
X139898571Y-134473142D01*
X140041428Y-134401714D01*
X140970000Y-135044571D02*
X140827142Y-134973142D01*
X140755714Y-134830285D01*
X140755714Y-133544571D01*
X141398571Y-134044571D02*
X141755714Y-135044571D01*
X142112857Y-134044571D02*
X141755714Y-135044571D01*
X141612857Y-135401714D01*
X141541428Y-135473142D01*
X141398571Y-135544571D01*
X142541428Y-134044571D02*
X143327142Y-134044571D01*
X142541428Y-135044571D01*
X143327142Y-135044571D01*
X144470000Y-134973142D02*
X144327142Y-135044571D01*
X144041428Y-135044571D01*
X143898571Y-134973142D01*
X143827142Y-134830285D01*
X143827142Y-134258857D01*
X143898571Y-134116000D01*
X144041428Y-134044571D01*
X144327142Y-134044571D01*
X144470000Y-134116000D01*
X144541428Y-134258857D01*
X144541428Y-134401714D01*
X143827142Y-134544571D01*
X145184285Y-135044571D02*
X145184285Y-134044571D01*
X145184285Y-134330285D02*
X145255714Y-134187428D01*
X145327142Y-134116000D01*
X145470000Y-134044571D01*
X145612857Y-134044571D01*
X148112857Y-135044571D02*
X147612857Y-134330285D01*
X147255714Y-135044571D02*
X147255714Y-133544571D01*
X147827142Y-133544571D01*
X147970000Y-133616000D01*
X148041428Y-133687428D01*
X148112857Y-133830285D01*
X148112857Y-134044571D01*
X148041428Y-134187428D01*
X147970000Y-134258857D01*
X147827142Y-134330285D01*
X147255714Y-134330285D01*
X149327142Y-134973142D02*
X149184285Y-135044571D01*
X148898571Y-135044571D01*
X148755714Y-134973142D01*
X148684285Y-134830285D01*
X148684285Y-134258857D01*
X148755714Y-134116000D01*
X148898571Y-134044571D01*
X149184285Y-134044571D01*
X149327142Y-134116000D01*
X149398571Y-134258857D01*
X149398571Y-134401714D01*
X148684285Y-134544571D01*
X149898571Y-134044571D02*
X150255714Y-135044571D01*
X150612857Y-134044571D01*
X151184285Y-134901714D02*
X151255714Y-134973142D01*
X151184285Y-135044571D01*
X151112857Y-134973142D01*
X151184285Y-134901714D01*
X151184285Y-135044571D01*
X152898571Y-133544571D02*
X153827142Y-133544571D01*
X153327142Y-134116000D01*
X153541428Y-134116000D01*
X153684285Y-134187428D01*
X153755714Y-134258857D01*
X153827142Y-134401714D01*
X153827142Y-134758857D01*
X153755714Y-134901714D01*
X153684285Y-134973142D01*
X153541428Y-135044571D01*
X153112857Y-135044571D01*
X152970000Y-134973142D01*
X152898571Y-134901714D01*
X155112857Y-135044571D02*
X155112857Y-134258857D01*
X155041428Y-134116000D01*
X154898571Y-134044571D01*
X154612857Y-134044571D01*
X154470000Y-134116000D01*
X155112857Y-134973142D02*
X154970000Y-135044571D01*
X154612857Y-135044571D01*
X154470000Y-134973142D01*
X154398571Y-134830285D01*
X154398571Y-134687428D01*
X154470000Y-134544571D01*
X154612857Y-134473142D01*
X154970000Y-134473142D01*
X155112857Y-134401714D01*
D10*
X117380000Y-131738666D02*
X117856190Y-131738666D01*
X117284761Y-132024380D02*
X117618095Y-131024380D01*
X117951428Y-132024380D01*
X118713333Y-131976761D02*
X118618095Y-132024380D01*
X118427619Y-132024380D01*
X118332380Y-131976761D01*
X118284761Y-131929142D01*
X118237142Y-131833904D01*
X118237142Y-131548190D01*
X118284761Y-131452952D01*
X118332380Y-131405333D01*
X118427619Y-131357714D01*
X118618095Y-131357714D01*
X118713333Y-131405333D01*
X118999047Y-131357714D02*
X119380000Y-131357714D01*
X119141904Y-131024380D02*
X119141904Y-131881523D01*
X119189523Y-131976761D01*
X119284761Y-132024380D01*
X119380000Y-132024380D01*
X119713333Y-132024380D02*
X119713333Y-131357714D01*
X119713333Y-131024380D02*
X119665714Y-131072000D01*
X119713333Y-131119619D01*
X119760952Y-131072000D01*
X119713333Y-131024380D01*
X119713333Y-131119619D01*
X120094285Y-131357714D02*
X120332380Y-132024380D01*
X120570476Y-131357714D01*
X121332380Y-131976761D02*
X121237142Y-132024380D01*
X121046666Y-132024380D01*
X120951428Y-131976761D01*
X120903809Y-131881523D01*
X120903809Y-131500571D01*
X120951428Y-131405333D01*
X121046666Y-131357714D01*
X121237142Y-131357714D01*
X121332380Y-131405333D01*
X121380000Y-131500571D01*
X121380000Y-131595809D01*
X120903809Y-131691047D01*
X117832571Y-134215142D02*
X117784952Y-134262761D01*
X117642095Y-134310380D01*
X117546857Y-134310380D01*
X117404000Y-134262761D01*
X117308761Y-134167523D01*
X117261142Y-134072285D01*
X117213523Y-133881809D01*
X117213523Y-133738952D01*
X117261142Y-133548476D01*
X117308761Y-133453238D01*
X117404000Y-133358000D01*
X117546857Y-133310380D01*
X117642095Y-133310380D01*
X117784952Y-133358000D01*
X117832571Y-133405619D01*
X118404000Y-134310380D02*
X118308761Y-134262761D01*
X118261142Y-134215142D01*
X118213523Y-134119904D01*
X118213523Y-133834190D01*
X118261142Y-133738952D01*
X118308761Y-133691333D01*
X118404000Y-133643714D01*
X118546857Y-133643714D01*
X118642095Y-133691333D01*
X118689714Y-133738952D01*
X118737333Y-133834190D01*
X118737333Y-134119904D01*
X118689714Y-134215142D01*
X118642095Y-134262761D01*
X118546857Y-134310380D01*
X118404000Y-134310380D01*
X119165904Y-133643714D02*
X119165904Y-134310380D01*
X119165904Y-133738952D02*
X119213523Y-133691333D01*
X119308761Y-133643714D01*
X119451619Y-133643714D01*
X119546857Y-133691333D01*
X119594476Y-133786571D01*
X119594476Y-134310380D01*
X120070666Y-133643714D02*
X120070666Y-134310380D01*
X120070666Y-133738952D02*
X120118285Y-133691333D01*
X120213523Y-133643714D01*
X120356380Y-133643714D01*
X120451619Y-133691333D01*
X120499238Y-133786571D01*
X120499238Y-134310380D01*
X121356380Y-134262761D02*
X121261142Y-134310380D01*
X121070666Y-134310380D01*
X120975428Y-134262761D01*
X120927809Y-134167523D01*
X120927809Y-133786571D01*
X120975428Y-133691333D01*
X121070666Y-133643714D01*
X121261142Y-133643714D01*
X121356380Y-133691333D01*
X121404000Y-133786571D01*
X121404000Y-133881809D01*
X120927809Y-133977047D01*
X122261142Y-134262761D02*
X122165904Y-134310380D01*
X121975428Y-134310380D01*
X121880190Y-134262761D01*
X121832571Y-134215142D01*
X121784952Y-134119904D01*
X121784952Y-133834190D01*
X121832571Y-133738952D01*
X121880190Y-133691333D01*
X121975428Y-133643714D01*
X122165904Y-133643714D01*
X122261142Y-133691333D01*
X122546857Y-133643714D02*
X122927809Y-133643714D01*
X122689714Y-133310380D02*
X122689714Y-134167523D01*
X122737333Y-134262761D01*
X122832571Y-134310380D01*
X122927809Y-134310380D01*
X123642095Y-134262761D02*
X123546857Y-134310380D01*
X123356380Y-134310380D01*
X123261142Y-134262761D01*
X123213523Y-134167523D01*
X123213523Y-133786571D01*
X123261142Y-133691333D01*
X123356380Y-133643714D01*
X123546857Y-133643714D01*
X123642095Y-133691333D01*
X123689714Y-133786571D01*
X123689714Y-133881809D01*
X123213523Y-133977047D01*
X124546857Y-134310380D02*
X124546857Y-133310380D01*
X124546857Y-134262761D02*
X124451619Y-134310380D01*
X124261142Y-134310380D01*
X124165904Y-134262761D01*
X124118285Y-134215142D01*
X124070666Y-134119904D01*
X124070666Y-133834190D01*
X124118285Y-133738952D01*
X124165904Y-133691333D01*
X124261142Y-133643714D01*
X124451619Y-133643714D01*
X124546857Y-133691333D01*
X134471210Y-128524000D02*
G75*
G03X134471210Y-128524000I-359210J0D01*
G01*
X143615210Y-122174000D02*
G75*
G03X143615210Y-122174000I-359210J0D01*
G01*
D11*
X166413571Y-118661571D02*
X164913571Y-118661571D01*
X165413571Y-117947285D02*
X166413571Y-117947285D01*
X165556428Y-117947285D02*
X165485000Y-117875857D01*
X165413571Y-117733000D01*
X165413571Y-117518714D01*
X165485000Y-117375857D01*
X165627857Y-117304428D01*
X166413571Y-117304428D01*
X164922318Y-94473704D02*
X164920323Y-94187996D01*
X164990752Y-94044644D01*
X165132609Y-93900793D01*
X165417817Y-93827372D01*
X165917805Y-93823881D01*
X166204011Y-93893313D01*
X166347862Y-94035169D01*
X166420286Y-94177524D01*
X166422281Y-94463232D01*
X166351851Y-94606584D01*
X166209995Y-94750435D01*
X165924786Y-94823857D01*
X165424799Y-94827347D01*
X165138593Y-94757915D01*
X164994742Y-94616059D01*
X164922318Y-94473704D01*
X165408841Y-92541689D02*
X166408817Y-92534707D01*
X165413329Y-93184530D02*
X166199025Y-93179045D01*
X166341380Y-93106621D01*
X166411809Y-92963268D01*
X166410313Y-92748988D01*
X166337889Y-92606633D01*
X166265963Y-92535705D01*
X165405351Y-92041701D02*
X165401362Y-91470286D01*
X164903867Y-91830911D02*
X166189550Y-91821935D01*
X166331905Y-91749511D01*
X166402335Y-91606159D01*
X166401337Y-91463305D01*
D12*
G04 #@! TO.C,A1*
X123952000Y-124714000D02*
X123952000Y-127254000D01*
X123952000Y-127254000D02*
X126622000Y-127254000D01*
X126622000Y-124714000D02*
X126622000Y-86484000D01*
X126622000Y-129924000D02*
X126622000Y-127254000D01*
X111252000Y-127254000D02*
X108582000Y-127254000D01*
X111252000Y-127254000D02*
X111252000Y-89154000D01*
X111252000Y-89154000D02*
X108582000Y-89154000D01*
X123952000Y-124714000D02*
X126622000Y-124714000D01*
X123952000Y-124714000D02*
X123952000Y-89154000D01*
X123952000Y-89154000D02*
X126622000Y-89154000D01*
X126622000Y-86484000D02*
X108582000Y-86484000D01*
X108582000Y-86484000D02*
X108582000Y-129924000D01*
X108582000Y-129924000D02*
X126622000Y-129924000D01*
D10*
G04 #@! TO.C,U1*
X149098000Y-122936000D02*
X149098000Y-128016000D01*
X149098000Y-128016000D02*
X144526000Y-128016000D01*
X144526000Y-128016000D02*
X144526000Y-122936000D01*
X144526000Y-122936000D02*
X149098000Y-122936000D01*
X147574000Y-122936000D02*
X147574000Y-123444000D01*
X147574000Y-123444000D02*
X146304000Y-123444000D01*
X146304000Y-123444000D02*
X146304000Y-122936000D01*
G04 #@! TO.C,U3*
X134417000Y-126538000D02*
G75*
G03X134417000Y-126538000I-100000J0D01*
G01*
X134567000Y-125988000D02*
X134567000Y-126488000D01*
X137467000Y-125988000D02*
X134567000Y-125988000D01*
X137467000Y-126488000D02*
X137467000Y-125988000D01*
X134567000Y-126488000D02*
X137467000Y-126488000D01*
D12*
G04 #@! TO.C,C2*
X137235000Y-121516000D02*
X137235000Y-121816000D01*
X135815000Y-121516000D02*
X135815000Y-121816000D01*
G04 #@! TO.C,C4*
X157884000Y-122480000D02*
X157584000Y-122480000D01*
X157884000Y-123900000D02*
X157584000Y-123900000D01*
G04 #@! TO.C,C5*
X157584000Y-127560000D02*
X157884000Y-127560000D01*
X157584000Y-128980000D02*
X157884000Y-128980000D01*
G04 #@! TO.C,R2*
X157584000Y-119940000D02*
X157884000Y-119940000D01*
X157584000Y-121360000D02*
X157884000Y-121360000D01*
G04 #@! TO.C,R3*
X157584000Y-126440000D02*
X157884000Y-126440000D01*
X157584000Y-125020000D02*
X157884000Y-125020000D01*
G04 #@! TO.C,R11*
X130123000Y-127150000D02*
X130123000Y-126850000D01*
X128703000Y-127150000D02*
X128703000Y-126850000D01*
G04 #@! TO.C,R12*
X132917000Y-126850000D02*
X132917000Y-127150000D01*
X131497000Y-126850000D02*
X131497000Y-127150000D01*
G04 #@! TO.C,C15*
X133021000Y-121816000D02*
X133021000Y-121516000D01*
X134441000Y-121816000D02*
X134441000Y-121516000D01*
G04 #@! TO.C,C6*
X159283500Y-99464000D02*
X159283500Y-99164000D01*
X160703500Y-99464000D02*
X160703500Y-99164000D01*
G04 #@! TO.C,C7*
X152067500Y-96924000D02*
X152067500Y-96624000D01*
X150647500Y-96924000D02*
X150647500Y-96624000D01*
G04 #@! TO.C,C1*
X136983500Y-107898000D02*
X137283500Y-107898000D01*
X136983500Y-106478000D02*
X137283500Y-106478000D01*
G04 #@! TO.C,C3*
X132457500Y-106478000D02*
X132157500Y-106478000D01*
X132457500Y-107898000D02*
X132157500Y-107898000D01*
G04 #@! TO.C,U2*
X137014000Y-98674000D02*
X135754000Y-98674000D01*
X130194000Y-98674000D02*
X131454000Y-98674000D01*
X137014000Y-102434000D02*
X137014000Y-98674000D01*
X130194000Y-104684000D02*
X130194000Y-98674000D01*
G04 #@! TO.C,Y1*
X149175000Y-86629000D02*
X155425000Y-86629000D01*
X149175000Y-91679000D02*
X155425000Y-91679000D01*
X149175000Y-91679000D02*
G75*
G02X149175000Y-86629000I0J2525000D01*
G01*
X155425000Y-91679000D02*
G75*
G03X155425000Y-86629000I0J2525000D01*
G01*
G04 #@! TO.C,TP1*
X140142000Y-103632000D02*
G75*
G03X140142000Y-103632000I-950000J0D01*
G01*
G04 #@! TO.C,TP2*
X134554000Y-94488000D02*
G75*
G03X134554000Y-94488000I-950000J0D01*
G01*
G04 #@! TO.C,TP3*
X161478000Y-107696000D02*
G75*
G03X161478000Y-107696000I-950000J0D01*
G01*
G04 #@! TO.C,TP4*
X129220000Y-103632000D02*
G75*
G03X129220000Y-103632000I-950000J0D01*
G01*
G04 #@! TO.C,TP5*
X158430000Y-107696000D02*
G75*
G03X158430000Y-107696000I-950000J0D01*
G01*
G04 #@! TO.C,Q1*
X144470000Y-100328000D02*
X145400000Y-100328000D01*
X147630000Y-100328000D02*
X146700000Y-100328000D01*
X147630000Y-100328000D02*
X147630000Y-98168000D01*
X144470000Y-100328000D02*
X144470000Y-98868000D01*
G04 #@! TO.C,Q6*
X147630000Y-102872000D02*
X147630000Y-104332000D01*
X144470000Y-102872000D02*
X144470000Y-105032000D01*
X144470000Y-102872000D02*
X145400000Y-102872000D01*
X147630000Y-102872000D02*
X146700000Y-102872000D01*
G04 #@! TO.C,R1*
X139498000Y-99437500D02*
X139498000Y-99137500D01*
X140918000Y-99437500D02*
X140918000Y-99137500D01*
G04 #@! TO.C,R4*
X152829500Y-107338000D02*
X152829500Y-107038000D01*
X151409500Y-107338000D02*
X151409500Y-107038000D01*
G04 #@! TO.C,R5*
X145848000Y-94592000D02*
X145848000Y-94892000D01*
X147268000Y-94592000D02*
X147268000Y-94892000D01*
G04 #@! TO.C,R6*
X157682000Y-96624000D02*
X157682000Y-96924000D01*
X156262000Y-96624000D02*
X156262000Y-96924000D01*
D10*
G04 #@! TO.C,U4*
X153011000Y-99671000D02*
X153011000Y-99896000D01*
X156361000Y-99671000D02*
X156361000Y-99971000D01*
X156361000Y-103021000D02*
X156361000Y-102721000D01*
X153011000Y-103021000D02*
X153011000Y-102721000D01*
X153011000Y-99671000D02*
X156361000Y-99671000D01*
X153011000Y-103021000D02*
X156361000Y-103021000D01*
X153011000Y-99896000D02*
X151786000Y-99896000D01*
D12*
G04 #@! TO.C,D1*
X116823000Y-132848000D02*
X114123000Y-132848000D01*
X116823000Y-134868000D02*
X116823000Y-132848000D01*
X114123000Y-134868000D02*
X116823000Y-134868000D01*
G04 #@! TO.C,D2*
X114123000Y-132582000D02*
X116823000Y-132582000D01*
X116823000Y-132582000D02*
X116823000Y-130562000D01*
X116823000Y-130562000D02*
X114123000Y-130562000D01*
G04 #@! TO.C,R7*
X110594000Y-134568000D02*
X110894000Y-134568000D01*
X110594000Y-133148000D02*
X110894000Y-133148000D01*
G04 #@! TO.C,R8*
X110594000Y-130862000D02*
X110894000Y-130862000D01*
X110594000Y-132282000D02*
X110894000Y-132282000D01*
G04 #@! TO.C,A1*
D10*
X116887714Y-128944666D02*
X117363904Y-128944666D01*
X116792476Y-129230380D02*
X117125809Y-128230380D01*
X117459142Y-129230380D01*
X118316285Y-129230380D02*
X117744857Y-129230380D01*
X118030571Y-129230380D02*
X118030571Y-128230380D01*
X117935333Y-128373238D01*
X117840095Y-128468476D01*
X117744857Y-128516095D01*
G04 #@! TO.C,U1*
X146264380Y-126237904D02*
X147073904Y-126237904D01*
X147169142Y-126190285D01*
X147216761Y-126142666D01*
X147264380Y-126047428D01*
X147264380Y-125856952D01*
X147216761Y-125761714D01*
X147169142Y-125714095D01*
X147073904Y-125666476D01*
X146264380Y-125666476D01*
X147264380Y-124666476D02*
X147264380Y-125237904D01*
X147264380Y-124952190D02*
X146264380Y-124952190D01*
X146407238Y-125047428D01*
X146502476Y-125142666D01*
X146550095Y-125237904D01*
G04 #@! TO.C,U3*
X135469380Y-130047904D02*
X136278904Y-130047904D01*
X136374142Y-130000285D01*
X136421761Y-129952666D01*
X136469380Y-129857428D01*
X136469380Y-129666952D01*
X136421761Y-129571714D01*
X136374142Y-129524095D01*
X136278904Y-129476476D01*
X135469380Y-129476476D01*
X135469380Y-129095523D02*
X135469380Y-128476476D01*
X135850333Y-128809809D01*
X135850333Y-128666952D01*
X135897952Y-128571714D01*
X135945571Y-128524095D01*
X136040809Y-128476476D01*
X136278904Y-128476476D01*
X136374142Y-128524095D01*
X136421761Y-128571714D01*
X136469380Y-128666952D01*
X136469380Y-128952666D01*
X136421761Y-129047904D01*
X136374142Y-129095523D01*
G04 #@! TO.C,C2*
X136850380Y-118744857D02*
X136850380Y-119316285D01*
X136850380Y-119030571D02*
X135850380Y-119030571D01*
X135993238Y-119125809D01*
X136088476Y-119221047D01*
X136136095Y-119316285D01*
X135850380Y-118125809D02*
X135850380Y-118030571D01*
X135898000Y-117935333D01*
X135945619Y-117887714D01*
X136040857Y-117840095D01*
X136231333Y-117792476D01*
X136469428Y-117792476D01*
X136659904Y-117840095D01*
X136755142Y-117887714D01*
X136802761Y-117935333D01*
X136850380Y-118030571D01*
X136850380Y-118125809D01*
X136802761Y-118221047D01*
X136755142Y-118268666D01*
X136659904Y-118316285D01*
X136469428Y-118363904D01*
X136231333Y-118363904D01*
X136040857Y-118316285D01*
X135945619Y-118268666D01*
X135898000Y-118221047D01*
X135850380Y-118125809D01*
X136183714Y-117363904D02*
X137183714Y-117363904D01*
X136707523Y-116887714D02*
X136802761Y-116840095D01*
X136850380Y-116744857D01*
X136707523Y-117363904D02*
X136802761Y-117316285D01*
X136850380Y-117221047D01*
X136850380Y-117030571D01*
X136802761Y-116935333D01*
X136707523Y-116887714D01*
X136183714Y-116887714D01*
X136326571Y-115982952D02*
X136326571Y-116316285D01*
X136850380Y-116316285D02*
X135850380Y-116316285D01*
X135850380Y-115840095D01*
G04 #@! TO.C,C4*
X160401142Y-123642380D02*
X159829714Y-123642380D01*
X160115428Y-123642380D02*
X160115428Y-122642380D01*
X160020190Y-122785238D01*
X159924952Y-122880476D01*
X159829714Y-122928095D01*
X161020190Y-122642380D02*
X161115428Y-122642380D01*
X161210666Y-122690000D01*
X161258285Y-122737619D01*
X161305904Y-122832857D01*
X161353523Y-123023333D01*
X161353523Y-123261428D01*
X161305904Y-123451904D01*
X161258285Y-123547142D01*
X161210666Y-123594761D01*
X161115428Y-123642380D01*
X161020190Y-123642380D01*
X160924952Y-123594761D01*
X160877333Y-123547142D01*
X160829714Y-123451904D01*
X160782095Y-123261428D01*
X160782095Y-123023333D01*
X160829714Y-122832857D01*
X160877333Y-122737619D01*
X160924952Y-122690000D01*
X161020190Y-122642380D01*
X161782095Y-122975714D02*
X161782095Y-123975714D01*
X162258285Y-123499523D02*
X162305904Y-123594761D01*
X162401142Y-123642380D01*
X161782095Y-123499523D02*
X161829714Y-123594761D01*
X161924952Y-123642380D01*
X162115428Y-123642380D01*
X162210666Y-123594761D01*
X162258285Y-123499523D01*
X162258285Y-122975714D01*
X163163047Y-123118571D02*
X162829714Y-123118571D01*
X162829714Y-123642380D02*
X162829714Y-122642380D01*
X163305904Y-122642380D01*
G04 #@! TO.C,C5*
X156440380Y-130754380D02*
X155868952Y-130754380D01*
X156154666Y-130754380D02*
X156154666Y-129754380D01*
X156059428Y-129897238D01*
X155964190Y-129992476D01*
X155868952Y-130040095D01*
X157059428Y-129754380D02*
X157154666Y-129754380D01*
X157249904Y-129802000D01*
X157297523Y-129849619D01*
X157345142Y-129944857D01*
X157392761Y-130135333D01*
X157392761Y-130373428D01*
X157345142Y-130563904D01*
X157297523Y-130659142D01*
X157249904Y-130706761D01*
X157154666Y-130754380D01*
X157059428Y-130754380D01*
X156964190Y-130706761D01*
X156916571Y-130659142D01*
X156868952Y-130563904D01*
X156821333Y-130373428D01*
X156821333Y-130135333D01*
X156868952Y-129944857D01*
X156916571Y-129849619D01*
X156964190Y-129802000D01*
X157059428Y-129754380D01*
X158011809Y-129754380D02*
X158107047Y-129754380D01*
X158202285Y-129802000D01*
X158249904Y-129849619D01*
X158297523Y-129944857D01*
X158345142Y-130135333D01*
X158345142Y-130373428D01*
X158297523Y-130563904D01*
X158249904Y-130659142D01*
X158202285Y-130706761D01*
X158107047Y-130754380D01*
X158011809Y-130754380D01*
X157916571Y-130706761D01*
X157868952Y-130659142D01*
X157821333Y-130563904D01*
X157773714Y-130373428D01*
X157773714Y-130135333D01*
X157821333Y-129944857D01*
X157868952Y-129849619D01*
X157916571Y-129802000D01*
X158011809Y-129754380D01*
X158773714Y-130087714D02*
X158773714Y-130754380D01*
X158773714Y-130182952D02*
X158821333Y-130135333D01*
X158916571Y-130087714D01*
X159059428Y-130087714D01*
X159154666Y-130135333D01*
X159202285Y-130230571D01*
X159202285Y-130754380D01*
X160011809Y-130230571D02*
X159678476Y-130230571D01*
X159678476Y-130754380D02*
X159678476Y-129754380D01*
X160154666Y-129754380D01*
G04 #@! TO.C,R2*
X156670476Y-118324380D02*
X156194285Y-118324380D01*
X156146666Y-118800571D01*
X156194285Y-118752952D01*
X156289523Y-118705333D01*
X156527619Y-118705333D01*
X156622857Y-118752952D01*
X156670476Y-118800571D01*
X156718095Y-118895809D01*
X156718095Y-119133904D01*
X156670476Y-119229142D01*
X156622857Y-119276761D01*
X156527619Y-119324380D01*
X156289523Y-119324380D01*
X156194285Y-119276761D01*
X156146666Y-119229142D01*
X157670476Y-119324380D02*
X157099047Y-119324380D01*
X157384761Y-119324380D02*
X157384761Y-118324380D01*
X157289523Y-118467238D01*
X157194285Y-118562476D01*
X157099047Y-118610095D01*
X158051428Y-119324380D02*
X158289523Y-119324380D01*
X158289523Y-119133904D01*
X158194285Y-119086285D01*
X158099047Y-118991047D01*
X158051428Y-118848190D01*
X158051428Y-118610095D01*
X158099047Y-118467238D01*
X158194285Y-118372000D01*
X158337142Y-118324380D01*
X158527619Y-118324380D01*
X158670476Y-118372000D01*
X158765714Y-118467238D01*
X158813333Y-118610095D01*
X158813333Y-118848190D01*
X158765714Y-118991047D01*
X158670476Y-119086285D01*
X158575238Y-119133904D01*
X158575238Y-119324380D01*
X158813333Y-119324380D01*
G04 #@! TO.C,R3*
X160194761Y-125515714D02*
X160194761Y-126182380D01*
X159956666Y-125134761D02*
X159718571Y-125849047D01*
X160337619Y-125849047D01*
X160718571Y-126087142D02*
X160766190Y-126134761D01*
X160718571Y-126182380D01*
X160670952Y-126134761D01*
X160718571Y-126087142D01*
X160718571Y-126182380D01*
X161099523Y-125182380D02*
X161766190Y-125182380D01*
X161337619Y-126182380D01*
X162099523Y-126182380D02*
X162337619Y-126182380D01*
X162337619Y-125991904D01*
X162242380Y-125944285D01*
X162147142Y-125849047D01*
X162099523Y-125706190D01*
X162099523Y-125468095D01*
X162147142Y-125325238D01*
X162242380Y-125230000D01*
X162385238Y-125182380D01*
X162575714Y-125182380D01*
X162718571Y-125230000D01*
X162813809Y-125325238D01*
X162861428Y-125468095D01*
X162861428Y-125706190D01*
X162813809Y-125849047D01*
X162718571Y-125944285D01*
X162623333Y-125991904D01*
X162623333Y-126182380D01*
X162861428Y-126182380D01*
G04 #@! TO.C,R11*
X129738380Y-131246476D02*
X129738380Y-131817904D01*
X129738380Y-131532190D02*
X128738380Y-131532190D01*
X128881238Y-131627428D01*
X128976476Y-131722666D01*
X129024095Y-131817904D01*
X129738380Y-130817904D02*
X128738380Y-130817904D01*
X129357428Y-130722666D02*
X129738380Y-130436952D01*
X129071714Y-130436952D02*
X129452666Y-130817904D01*
X129738380Y-130056000D02*
X129738380Y-129817904D01*
X129547904Y-129817904D01*
X129500285Y-129913142D01*
X129405047Y-130008380D01*
X129262190Y-130056000D01*
X129024095Y-130056000D01*
X128881238Y-130008380D01*
X128786000Y-129913142D01*
X128738380Y-129770285D01*
X128738380Y-129579809D01*
X128786000Y-129436952D01*
X128881238Y-129341714D01*
X129024095Y-129294095D01*
X129262190Y-129294095D01*
X129405047Y-129341714D01*
X129500285Y-129436952D01*
X129547904Y-129532190D01*
X129738380Y-129532190D01*
X129738380Y-129294095D01*
G04 #@! TO.C,R12*
X132786380Y-131246476D02*
X132786380Y-131817904D01*
X132786380Y-131532190D02*
X131786380Y-131532190D01*
X131929238Y-131627428D01*
X132024476Y-131722666D01*
X132072095Y-131817904D01*
X132786380Y-130817904D02*
X131786380Y-130817904D01*
X132405428Y-130722666D02*
X132786380Y-130436952D01*
X132119714Y-130436952D02*
X132500666Y-130817904D01*
X132786380Y-130056000D02*
X132786380Y-129817904D01*
X132595904Y-129817904D01*
X132548285Y-129913142D01*
X132453047Y-130008380D01*
X132310190Y-130056000D01*
X132072095Y-130056000D01*
X131929238Y-130008380D01*
X131834000Y-129913142D01*
X131786380Y-129770285D01*
X131786380Y-129579809D01*
X131834000Y-129436952D01*
X131929238Y-129341714D01*
X132072095Y-129294095D01*
X132310190Y-129294095D01*
X132453047Y-129341714D01*
X132548285Y-129436952D01*
X132595904Y-129532190D01*
X132786380Y-129532190D01*
X132786380Y-129294095D01*
G04 #@! TO.C,C15*
X132278380Y-123213619D02*
X132278380Y-123785047D01*
X132278380Y-123499333D02*
X131278380Y-123499333D01*
X131421238Y-123594571D01*
X131516476Y-123689809D01*
X131564095Y-123785047D01*
X131278380Y-122594571D02*
X131278380Y-122499333D01*
X131326000Y-122404095D01*
X131373619Y-122356476D01*
X131468857Y-122308857D01*
X131659333Y-122261238D01*
X131897428Y-122261238D01*
X132087904Y-122308857D01*
X132183142Y-122356476D01*
X132230761Y-122404095D01*
X132278380Y-122499333D01*
X132278380Y-122594571D01*
X132230761Y-122689809D01*
X132183142Y-122737428D01*
X132087904Y-122785047D01*
X131897428Y-122832666D01*
X131659333Y-122832666D01*
X131468857Y-122785047D01*
X131373619Y-122737428D01*
X131326000Y-122689809D01*
X131278380Y-122594571D01*
X131278380Y-121642190D02*
X131278380Y-121546952D01*
X131326000Y-121451714D01*
X131373619Y-121404095D01*
X131468857Y-121356476D01*
X131659333Y-121308857D01*
X131897428Y-121308857D01*
X132087904Y-121356476D01*
X132183142Y-121404095D01*
X132230761Y-121451714D01*
X132278380Y-121546952D01*
X132278380Y-121642190D01*
X132230761Y-121737428D01*
X132183142Y-121785047D01*
X132087904Y-121832666D01*
X131897428Y-121880285D01*
X131659333Y-121880285D01*
X131468857Y-121832666D01*
X131373619Y-121785047D01*
X131326000Y-121737428D01*
X131278380Y-121642190D01*
X131611714Y-120880285D02*
X132278380Y-120880285D01*
X131706952Y-120880285D02*
X131659333Y-120832666D01*
X131611714Y-120737428D01*
X131611714Y-120594571D01*
X131659333Y-120499333D01*
X131754571Y-120451714D01*
X132278380Y-120451714D01*
X131754571Y-119642190D02*
X131754571Y-119975523D01*
X132278380Y-119975523D02*
X131278380Y-119975523D01*
X131278380Y-119499333D01*
G04 #@! TO.C,C6*
X162295880Y-100861619D02*
X162295880Y-101433047D01*
X162295880Y-101147333D02*
X161295880Y-101147333D01*
X161438738Y-101242571D01*
X161533976Y-101337809D01*
X161581595Y-101433047D01*
X161295880Y-100242571D02*
X161295880Y-100147333D01*
X161343500Y-100052095D01*
X161391119Y-100004476D01*
X161486357Y-99956857D01*
X161676833Y-99909238D01*
X161914928Y-99909238D01*
X162105404Y-99956857D01*
X162200642Y-100004476D01*
X162248261Y-100052095D01*
X162295880Y-100147333D01*
X162295880Y-100242571D01*
X162248261Y-100337809D01*
X162200642Y-100385428D01*
X162105404Y-100433047D01*
X161914928Y-100480666D01*
X161676833Y-100480666D01*
X161486357Y-100433047D01*
X161391119Y-100385428D01*
X161343500Y-100337809D01*
X161295880Y-100242571D01*
X161295880Y-99290190D02*
X161295880Y-99194952D01*
X161343500Y-99099714D01*
X161391119Y-99052095D01*
X161486357Y-99004476D01*
X161676833Y-98956857D01*
X161914928Y-98956857D01*
X162105404Y-99004476D01*
X162200642Y-99052095D01*
X162248261Y-99099714D01*
X162295880Y-99194952D01*
X162295880Y-99290190D01*
X162248261Y-99385428D01*
X162200642Y-99433047D01*
X162105404Y-99480666D01*
X161914928Y-99528285D01*
X161676833Y-99528285D01*
X161486357Y-99480666D01*
X161391119Y-99433047D01*
X161343500Y-99385428D01*
X161295880Y-99290190D01*
X161629214Y-98528285D02*
X162295880Y-98528285D01*
X161724452Y-98528285D02*
X161676833Y-98480666D01*
X161629214Y-98385428D01*
X161629214Y-98242571D01*
X161676833Y-98147333D01*
X161772071Y-98099714D01*
X162295880Y-98099714D01*
X161772071Y-97290190D02*
X161772071Y-97623523D01*
X162295880Y-97623523D02*
X161295880Y-97623523D01*
X161295880Y-97147333D01*
G04 #@! TO.C,C7*
X153659880Y-98321619D02*
X153659880Y-98893047D01*
X153659880Y-98607333D02*
X152659880Y-98607333D01*
X152802738Y-98702571D01*
X152897976Y-98797809D01*
X152945595Y-98893047D01*
X152659880Y-97702571D02*
X152659880Y-97607333D01*
X152707500Y-97512095D01*
X152755119Y-97464476D01*
X152850357Y-97416857D01*
X153040833Y-97369238D01*
X153278928Y-97369238D01*
X153469404Y-97416857D01*
X153564642Y-97464476D01*
X153612261Y-97512095D01*
X153659880Y-97607333D01*
X153659880Y-97702571D01*
X153612261Y-97797809D01*
X153564642Y-97845428D01*
X153469404Y-97893047D01*
X153278928Y-97940666D01*
X153040833Y-97940666D01*
X152850357Y-97893047D01*
X152755119Y-97845428D01*
X152707500Y-97797809D01*
X152659880Y-97702571D01*
X152659880Y-96750190D02*
X152659880Y-96654952D01*
X152707500Y-96559714D01*
X152755119Y-96512095D01*
X152850357Y-96464476D01*
X153040833Y-96416857D01*
X153278928Y-96416857D01*
X153469404Y-96464476D01*
X153564642Y-96512095D01*
X153612261Y-96559714D01*
X153659880Y-96654952D01*
X153659880Y-96750190D01*
X153612261Y-96845428D01*
X153564642Y-96893047D01*
X153469404Y-96940666D01*
X153278928Y-96988285D01*
X153040833Y-96988285D01*
X152850357Y-96940666D01*
X152755119Y-96893047D01*
X152707500Y-96845428D01*
X152659880Y-96750190D01*
X152993214Y-95988285D02*
X153659880Y-95988285D01*
X153088452Y-95988285D02*
X153040833Y-95940666D01*
X152993214Y-95845428D01*
X152993214Y-95702571D01*
X153040833Y-95607333D01*
X153136071Y-95559714D01*
X153659880Y-95559714D01*
X153136071Y-94750190D02*
X153136071Y-95083523D01*
X153659880Y-95083523D02*
X152659880Y-95083523D01*
X152659880Y-94607333D01*
G04 #@! TO.C,C1*
X135990642Y-109672380D02*
X135419214Y-109672380D01*
X135704928Y-109672380D02*
X135704928Y-108672380D01*
X135609690Y-108815238D01*
X135514452Y-108910476D01*
X135419214Y-108958095D01*
X136609690Y-108672380D02*
X136704928Y-108672380D01*
X136800166Y-108720000D01*
X136847785Y-108767619D01*
X136895404Y-108862857D01*
X136943023Y-109053333D01*
X136943023Y-109291428D01*
X136895404Y-109481904D01*
X136847785Y-109577142D01*
X136800166Y-109624761D01*
X136704928Y-109672380D01*
X136609690Y-109672380D01*
X136514452Y-109624761D01*
X136466833Y-109577142D01*
X136419214Y-109481904D01*
X136371595Y-109291428D01*
X136371595Y-109053333D01*
X136419214Y-108862857D01*
X136466833Y-108767619D01*
X136514452Y-108720000D01*
X136609690Y-108672380D01*
X137371595Y-109005714D02*
X137371595Y-110005714D01*
X137847785Y-109529523D02*
X137895404Y-109624761D01*
X137990642Y-109672380D01*
X137371595Y-109529523D02*
X137419214Y-109624761D01*
X137514452Y-109672380D01*
X137704928Y-109672380D01*
X137800166Y-109624761D01*
X137847785Y-109529523D01*
X137847785Y-109005714D01*
X138752547Y-109148571D02*
X138419214Y-109148571D01*
X138419214Y-109672380D02*
X138419214Y-108672380D01*
X138895404Y-108672380D01*
G04 #@! TO.C,C3*
X131191142Y-109672380D02*
X130619714Y-109672380D01*
X130905428Y-109672380D02*
X130905428Y-108672380D01*
X130810190Y-108815238D01*
X130714952Y-108910476D01*
X130619714Y-108958095D01*
X131810190Y-108672380D02*
X131905428Y-108672380D01*
X132000666Y-108720000D01*
X132048285Y-108767619D01*
X132095904Y-108862857D01*
X132143523Y-109053333D01*
X132143523Y-109291428D01*
X132095904Y-109481904D01*
X132048285Y-109577142D01*
X132000666Y-109624761D01*
X131905428Y-109672380D01*
X131810190Y-109672380D01*
X131714952Y-109624761D01*
X131667333Y-109577142D01*
X131619714Y-109481904D01*
X131572095Y-109291428D01*
X131572095Y-109053333D01*
X131619714Y-108862857D01*
X131667333Y-108767619D01*
X131714952Y-108720000D01*
X131810190Y-108672380D01*
X132572095Y-109005714D02*
X132572095Y-110005714D01*
X133048285Y-109529523D02*
X133095904Y-109624761D01*
X133191142Y-109672380D01*
X132572095Y-109529523D02*
X132619714Y-109624761D01*
X132714952Y-109672380D01*
X132905428Y-109672380D01*
X133000666Y-109624761D01*
X133048285Y-109529523D01*
X133048285Y-109005714D01*
X133953047Y-109148571D02*
X133619714Y-109148571D01*
X133619714Y-109672380D02*
X133619714Y-108672380D01*
X134095904Y-108672380D01*
G04 #@! TO.C,U2*
X128556380Y-99821904D02*
X129365904Y-99821904D01*
X129461142Y-99774285D01*
X129508761Y-99726666D01*
X129556380Y-99631428D01*
X129556380Y-99440952D01*
X129508761Y-99345714D01*
X129461142Y-99298095D01*
X129365904Y-99250476D01*
X128556380Y-99250476D01*
X128651619Y-98821904D02*
X128604000Y-98774285D01*
X128556380Y-98679047D01*
X128556380Y-98440952D01*
X128604000Y-98345714D01*
X128651619Y-98298095D01*
X128746857Y-98250476D01*
X128842095Y-98250476D01*
X128984952Y-98298095D01*
X129556380Y-98869523D01*
X129556380Y-98250476D01*
G04 #@! TO.C,Y1*
X151823809Y-85605190D02*
X151823809Y-86081380D01*
X151490476Y-85081380D02*
X151823809Y-85605190D01*
X152157142Y-85081380D01*
X153014285Y-86081380D02*
X152442857Y-86081380D01*
X152728571Y-86081380D02*
X152728571Y-85081380D01*
X152633333Y-85224238D01*
X152538095Y-85319476D01*
X152442857Y-85367095D01*
G04 #@! TO.C,TP3*
X159266095Y-105500380D02*
X159837523Y-105500380D01*
X159551809Y-106500380D02*
X159551809Y-105500380D01*
X160170857Y-106500380D02*
X160170857Y-105500380D01*
X160551809Y-105500380D01*
X160647047Y-105548000D01*
X160694666Y-105595619D01*
X160742285Y-105690857D01*
X160742285Y-105833714D01*
X160694666Y-105928952D01*
X160647047Y-105976571D01*
X160551809Y-106024190D01*
X160170857Y-106024190D01*
X161075619Y-105500380D02*
X161694666Y-105500380D01*
X161361333Y-105881333D01*
X161504190Y-105881333D01*
X161599428Y-105928952D01*
X161647047Y-105976571D01*
X161694666Y-106071809D01*
X161694666Y-106309904D01*
X161647047Y-106405142D01*
X161599428Y-106452761D01*
X161504190Y-106500380D01*
X161218476Y-106500380D01*
X161123238Y-106452761D01*
X161075619Y-106405142D01*
G04 #@! TO.C,TP5*
X156218095Y-105500380D02*
X156789523Y-105500380D01*
X156503809Y-106500380D02*
X156503809Y-105500380D01*
X157122857Y-106500380D02*
X157122857Y-105500380D01*
X157503809Y-105500380D01*
X157599047Y-105548000D01*
X157646666Y-105595619D01*
X157694285Y-105690857D01*
X157694285Y-105833714D01*
X157646666Y-105928952D01*
X157599047Y-105976571D01*
X157503809Y-106024190D01*
X157122857Y-106024190D01*
X158599047Y-105500380D02*
X158122857Y-105500380D01*
X158075238Y-105976571D01*
X158122857Y-105928952D01*
X158218095Y-105881333D01*
X158456190Y-105881333D01*
X158551428Y-105928952D01*
X158599047Y-105976571D01*
X158646666Y-106071809D01*
X158646666Y-106309904D01*
X158599047Y-106405142D01*
X158551428Y-106452761D01*
X158456190Y-106500380D01*
X158218095Y-106500380D01*
X158122857Y-106452761D01*
X158075238Y-106405142D01*
G04 #@! TO.C,Q1*
X149097619Y-99663238D02*
X149050000Y-99758476D01*
X148954761Y-99853714D01*
X148811904Y-99996571D01*
X148764285Y-100091809D01*
X148764285Y-100187047D01*
X149002380Y-100139428D02*
X148954761Y-100234666D01*
X148859523Y-100329904D01*
X148669047Y-100377523D01*
X148335714Y-100377523D01*
X148145238Y-100329904D01*
X148050000Y-100234666D01*
X148002380Y-100139428D01*
X148002380Y-99948952D01*
X148050000Y-99853714D01*
X148145238Y-99758476D01*
X148335714Y-99710857D01*
X148669047Y-99710857D01*
X148859523Y-99758476D01*
X148954761Y-99853714D01*
X149002380Y-99948952D01*
X149002380Y-100139428D01*
X149002380Y-98758476D02*
X149002380Y-99329904D01*
X149002380Y-99044190D02*
X148002380Y-99044190D01*
X148145238Y-99139428D01*
X148240476Y-99234666D01*
X148288095Y-99329904D01*
G04 #@! TO.C,Q6*
X144097619Y-103727238D02*
X144050000Y-103822476D01*
X143954761Y-103917714D01*
X143811904Y-104060571D01*
X143764285Y-104155809D01*
X143764285Y-104251047D01*
X144002380Y-104203428D02*
X143954761Y-104298666D01*
X143859523Y-104393904D01*
X143669047Y-104441523D01*
X143335714Y-104441523D01*
X143145238Y-104393904D01*
X143050000Y-104298666D01*
X143002380Y-104203428D01*
X143002380Y-104012952D01*
X143050000Y-103917714D01*
X143145238Y-103822476D01*
X143335714Y-103774857D01*
X143669047Y-103774857D01*
X143859523Y-103822476D01*
X143954761Y-103917714D01*
X144002380Y-104012952D01*
X144002380Y-104203428D01*
X143002380Y-102917714D02*
X143002380Y-103108190D01*
X143050000Y-103203428D01*
X143097619Y-103251047D01*
X143240476Y-103346285D01*
X143430952Y-103393904D01*
X143811904Y-103393904D01*
X143907142Y-103346285D01*
X143954761Y-103298666D01*
X144002380Y-103203428D01*
X144002380Y-103012952D01*
X143954761Y-102917714D01*
X143907142Y-102870095D01*
X143811904Y-102822476D01*
X143573809Y-102822476D01*
X143478571Y-102870095D01*
X143430952Y-102917714D01*
X143383333Y-103012952D01*
X143383333Y-103203428D01*
X143430952Y-103298666D01*
X143478571Y-103346285D01*
X143573809Y-103393904D01*
G04 #@! TO.C,R1*
X142510380Y-99977976D02*
X142510380Y-100549404D01*
X142510380Y-100263690D02*
X141510380Y-100263690D01*
X141653238Y-100358928D01*
X141748476Y-100454166D01*
X141796095Y-100549404D01*
X142510380Y-99549404D02*
X141510380Y-99549404D01*
X142129428Y-99454166D02*
X142510380Y-99168452D01*
X141843714Y-99168452D02*
X142224666Y-99549404D01*
X142510380Y-98787500D02*
X142510380Y-98549404D01*
X142319904Y-98549404D01*
X142272285Y-98644642D01*
X142177047Y-98739880D01*
X142034190Y-98787500D01*
X141796095Y-98787500D01*
X141653238Y-98739880D01*
X141558000Y-98644642D01*
X141510380Y-98501785D01*
X141510380Y-98311309D01*
X141558000Y-98168452D01*
X141653238Y-98073214D01*
X141796095Y-98025595D01*
X142034190Y-98025595D01*
X142177047Y-98073214D01*
X142272285Y-98168452D01*
X142319904Y-98263690D01*
X142510380Y-98263690D01*
X142510380Y-98025595D01*
G04 #@! TO.C,R4*
X154421880Y-107878476D02*
X154421880Y-108449904D01*
X154421880Y-108164190D02*
X153421880Y-108164190D01*
X153564738Y-108259428D01*
X153659976Y-108354666D01*
X153707595Y-108449904D01*
X154421880Y-107449904D02*
X153421880Y-107449904D01*
X154040928Y-107354666D02*
X154421880Y-107068952D01*
X153755214Y-107068952D02*
X154136166Y-107449904D01*
X154421880Y-106688000D02*
X154421880Y-106449904D01*
X154231404Y-106449904D01*
X154183785Y-106545142D01*
X154088547Y-106640380D01*
X153945690Y-106688000D01*
X153707595Y-106688000D01*
X153564738Y-106640380D01*
X153469500Y-106545142D01*
X153421880Y-106402285D01*
X153421880Y-106211809D01*
X153469500Y-106068952D01*
X153564738Y-105973714D01*
X153707595Y-105926095D01*
X153945690Y-105926095D01*
X154088547Y-105973714D01*
X154183785Y-106068952D01*
X154231404Y-106164190D01*
X154421880Y-106164190D01*
X154421880Y-105926095D01*
G04 #@! TO.C,R5*
X148860380Y-94908666D02*
X148384190Y-95242000D01*
X148860380Y-95480095D02*
X147860380Y-95480095D01*
X147860380Y-95099142D01*
X147908000Y-95003904D01*
X147955619Y-94956285D01*
X148050857Y-94908666D01*
X148193714Y-94908666D01*
X148288952Y-94956285D01*
X148336571Y-95003904D01*
X148384190Y-95099142D01*
X148384190Y-95480095D01*
X147860380Y-94003904D02*
X147860380Y-94480095D01*
X148336571Y-94527714D01*
X148288952Y-94480095D01*
X148241333Y-94384857D01*
X148241333Y-94146761D01*
X148288952Y-94051523D01*
X148336571Y-94003904D01*
X148431809Y-93956285D01*
X148669904Y-93956285D01*
X148765142Y-94003904D01*
X148812761Y-94051523D01*
X148860380Y-94146761D01*
X148860380Y-94384857D01*
X148812761Y-94480095D01*
X148765142Y-94527714D01*
G04 #@! TO.C,R6*
X155646380Y-97464476D02*
X155646380Y-98035904D01*
X155646380Y-97750190D02*
X154646380Y-97750190D01*
X154789238Y-97845428D01*
X154884476Y-97940666D01*
X154932095Y-98035904D01*
X155646380Y-97035904D02*
X154646380Y-97035904D01*
X155265428Y-96940666D02*
X155646380Y-96654952D01*
X154979714Y-96654952D02*
X155360666Y-97035904D01*
X155646380Y-96274000D02*
X155646380Y-96035904D01*
X155455904Y-96035904D01*
X155408285Y-96131142D01*
X155313047Y-96226380D01*
X155170190Y-96274000D01*
X154932095Y-96274000D01*
X154789238Y-96226380D01*
X154694000Y-96131142D01*
X154646380Y-95988285D01*
X154646380Y-95797809D01*
X154694000Y-95654952D01*
X154789238Y-95559714D01*
X154932095Y-95512095D01*
X155170190Y-95512095D01*
X155313047Y-95559714D01*
X155408285Y-95654952D01*
X155455904Y-95750190D01*
X155646380Y-95750190D01*
X155646380Y-95512095D01*
G04 #@! TO.C,U4*
X153924095Y-98198380D02*
X153924095Y-99007904D01*
X153971714Y-99103142D01*
X154019333Y-99150761D01*
X154114571Y-99198380D01*
X154305047Y-99198380D01*
X154400285Y-99150761D01*
X154447904Y-99103142D01*
X154495523Y-99007904D01*
X154495523Y-98198380D01*
X155400285Y-98531714D02*
X155400285Y-99198380D01*
X155162190Y-98150761D02*
X154924095Y-98865047D01*
X155543142Y-98865047D01*
G04 #@! TO.C,R7*
X110053523Y-136160380D02*
X109482095Y-136160380D01*
X109767809Y-136160380D02*
X109767809Y-135160380D01*
X109672571Y-135303238D01*
X109577333Y-135398476D01*
X109482095Y-135446095D01*
X110482095Y-136160380D02*
X110482095Y-135160380D01*
X110577333Y-135779428D02*
X110863047Y-136160380D01*
X110863047Y-135493714D02*
X110482095Y-135874666D01*
X111244000Y-136160380D02*
X111482095Y-136160380D01*
X111482095Y-135969904D01*
X111386857Y-135922285D01*
X111291619Y-135827047D01*
X111244000Y-135684190D01*
X111244000Y-135446095D01*
X111291619Y-135303238D01*
X111386857Y-135208000D01*
X111529714Y-135160380D01*
X111720190Y-135160380D01*
X111863047Y-135208000D01*
X111958285Y-135303238D01*
X112005904Y-135446095D01*
X112005904Y-135684190D01*
X111958285Y-135827047D01*
X111863047Y-135922285D01*
X111767809Y-135969904D01*
X111767809Y-136160380D01*
X112005904Y-136160380D01*
G04 #@! TO.C,R8*
X110053523Y-130246380D02*
X109482095Y-130246380D01*
X109767809Y-130246380D02*
X109767809Y-129246380D01*
X109672571Y-129389238D01*
X109577333Y-129484476D01*
X109482095Y-129532095D01*
X110482095Y-130246380D02*
X110482095Y-129246380D01*
X110577333Y-129865428D02*
X110863047Y-130246380D01*
X110863047Y-129579714D02*
X110482095Y-129960666D01*
X111244000Y-130246380D02*
X111482095Y-130246380D01*
X111482095Y-130055904D01*
X111386857Y-130008285D01*
X111291619Y-129913047D01*
X111244000Y-129770190D01*
X111244000Y-129532095D01*
X111291619Y-129389238D01*
X111386857Y-129294000D01*
X111529714Y-129246380D01*
X111720190Y-129246380D01*
X111863047Y-129294000D01*
X111958285Y-129389238D01*
X112005904Y-129532095D01*
X112005904Y-129770190D01*
X111958285Y-129913047D01*
X111863047Y-130008285D01*
X111767809Y-130055904D01*
X111767809Y-130246380D01*
X112005904Y-130246380D01*
G04 #@! TD*
M02*
