G04 #@! TF.GenerationSoftware,KiCad,Pcbnew,6.0.0-rc1-unknown-0cca1c6~65~ubuntu16.04.1*
G04 #@! TF.CreationDate,2018-08-01T17:46:40+02:00*
G04 #@! TF.ProjectId,ArduinoSpecAn,41726475696E6F53706563416E2E6B69,1.0*
G04 #@! TF.SameCoordinates,Original*
G04 #@! TF.FileFunction,Copper,L1,Top,Signal*
G04 #@! TF.FilePolarity,Positive*
%FSLAX46Y46*%
G04 Gerber Fmt 4.6, Leading zero omitted, Abs format (unit mm)*
G04 Created by KiCad (PCBNEW 6.0.0-rc1-unknown-0cca1c6~65~ubuntu16.04.1) date Wed Aug  1 17:46:40 2018*
%MOMM*%
%LPD*%
G01*
G04 APERTURE LIST*
G04 #@! TA.AperFunction,ComponentPad*
%ADD10R,1.600000X1.600000*%
G04 #@! TD*
G04 #@! TA.AperFunction,ComponentPad*
%ADD11O,1.600000X1.600000*%
G04 #@! TD*
G04 #@! TA.AperFunction,ConnectorPad*
%ADD12R,4.200000X1.400000*%
G04 #@! TD*
G04 #@! TA.AperFunction,ConnectorPad*
%ADD13R,4.200000X1.200000*%
G04 #@! TD*
G04 #@! TA.AperFunction,SMDPad,CuDef*
%ADD14R,1.143000X0.508000*%
G04 #@! TD*
G04 #@! TA.AperFunction,SMDPad,CuDef*
%ADD15R,0.650000X1.060000*%
G04 #@! TD*
G04 #@! TA.AperFunction,SMDPad,CuDef*
%ADD16R,1.500000X1.145000*%
G04 #@! TD*
G04 #@! TA.AperFunction,SMDPad,CuDef*
%ADD17R,1.145000X1.500000*%
G04 #@! TD*
G04 #@! TA.AperFunction,SMDPad,CuDef*
%ADD18R,3.800000X2.000000*%
G04 #@! TD*
G04 #@! TA.AperFunction,SMDPad,CuDef*
%ADD19R,1.500000X2.000000*%
G04 #@! TD*
G04 #@! TA.AperFunction,ComponentPad*
%ADD20C,1.500000*%
G04 #@! TD*
G04 #@! TA.AperFunction,BGAPad,CuDef*
%ADD21C,1.500000*%
G04 #@! TD*
G04 #@! TA.AperFunction,SMDPad,CuDef*
%ADD22R,0.800000X0.900000*%
G04 #@! TD*
G04 #@! TA.AperFunction,SMDPad,CuDef*
%ADD23R,1.400000X0.300000*%
G04 #@! TD*
G04 #@! TA.AperFunction,SMDPad,CuDef*
%ADD24R,0.970000X1.500000*%
G04 #@! TD*
G04 #@! TA.AperFunction,ViaPad*
%ADD25C,0.500000*%
G04 #@! TD*
G04 #@! TA.AperFunction,Conductor*
%ADD26C,0.342000*%
G04 #@! TD*
G04 #@! TA.AperFunction,Conductor*
%ADD27C,0.762000*%
G04 #@! TD*
G04 #@! TA.AperFunction,Conductor*
%ADD28C,0.203200*%
G04 #@! TD*
G04 #@! TA.AperFunction,Conductor*
%ADD29C,0.500000*%
G04 #@! TD*
G04 APERTURE END LIST*
D10*
G04 #@! TO.P,A1,1*
G04 #@! TO.N,N/C*
X125222000Y-125984000D03*
D11*
G04 #@! TO.P,A1,17*
X109982000Y-92964000D03*
G04 #@! TO.P,A1,2*
X125222000Y-123444000D03*
G04 #@! TO.P,A1,18*
X109982000Y-95504000D03*
G04 #@! TO.P,A1,3*
X125222000Y-120904000D03*
G04 #@! TO.P,A1,19*
G04 #@! TO.N,/A0*
X109982000Y-98044000D03*
G04 #@! TO.P,A1,4*
G04 #@! TO.N,GND*
X125222000Y-118364000D03*
G04 #@! TO.P,A1,20*
G04 #@! TO.N,/A1*
X109982000Y-100584000D03*
G04 #@! TO.P,A1,5*
G04 #@! TO.N,N/C*
X125222000Y-115824000D03*
G04 #@! TO.P,A1,21*
G04 #@! TO.N,/A2*
X109982000Y-103124000D03*
G04 #@! TO.P,A1,6*
G04 #@! TO.N,N/C*
X125222000Y-113284000D03*
G04 #@! TO.P,A1,22*
X109982000Y-105664000D03*
G04 #@! TO.P,A1,7*
X125222000Y-110744000D03*
G04 #@! TO.P,A1,23*
G04 #@! TO.N,/SDA*
X109982000Y-108204000D03*
G04 #@! TO.P,A1,8*
G04 #@! TO.N,N/C*
X125222000Y-108204000D03*
G04 #@! TO.P,A1,24*
G04 #@! TO.N,/SCL*
X109982000Y-110744000D03*
G04 #@! TO.P,A1,9*
G04 #@! TO.N,N/C*
X125222000Y-105664000D03*
G04 #@! TO.P,A1,25*
X109982000Y-113284000D03*
G04 #@! TO.P,A1,10*
X125222000Y-103124000D03*
G04 #@! TO.P,A1,26*
X109982000Y-115824000D03*
G04 #@! TO.P,A1,11*
X125222000Y-100584000D03*
G04 #@! TO.P,A1,27*
G04 #@! TO.N,+5V*
X109982000Y-118364000D03*
G04 #@! TO.P,A1,12*
G04 #@! TO.N,N/C*
X125222000Y-98044000D03*
G04 #@! TO.P,A1,28*
X109982000Y-120904000D03*
G04 #@! TO.P,A1,13*
X125222000Y-95504000D03*
G04 #@! TO.P,A1,29*
G04 #@! TO.N,GND*
X109982000Y-123444000D03*
G04 #@! TO.P,A1,14*
G04 #@! TO.N,N/C*
X125222000Y-92964000D03*
G04 #@! TO.P,A1,30*
X109982000Y-125984000D03*
G04 #@! TO.P,A1,15*
X125222000Y-90424000D03*
G04 #@! TO.P,A1,16*
X109982000Y-90424000D03*
G04 #@! TD*
D12*
G04 #@! TO.P,J1,1*
G04 #@! TO.N,/Input*
X165676000Y-123190000D03*
D13*
G04 #@! TO.P,J1,2*
G04 #@! TO.N,GND*
X165676000Y-125820000D03*
G04 #@! TO.P,J1,3*
X165676000Y-120560000D03*
G04 #@! TD*
D12*
G04 #@! TO.P,J2,1*
G04 #@! TO.N,Net-(J2-Pad1)*
X165676000Y-99314000D03*
D13*
G04 #@! TO.P,J2,2*
G04 #@! TO.N,GND*
X165676000Y-101944000D03*
G04 #@! TO.P,J2,3*
X165676000Y-96684000D03*
G04 #@! TD*
D14*
G04 #@! TO.P,U1,8*
G04 #@! TO.N,Net-(C4-Pad2)*
X149987000Y-123571000D03*
G04 #@! TO.P,U1,7*
G04 #@! TO.N,Net-(C5-Pad1)*
X149987000Y-124841000D03*
G04 #@! TO.P,U1,6*
X149987000Y-126111000D03*
G04 #@! TO.P,U1,5*
G04 #@! TO.N,N/C*
X149987000Y-127381000D03*
G04 #@! TO.P,U1,4*
G04 #@! TO.N,/Vmag*
X143637000Y-127381000D03*
G04 #@! TO.P,U1,3*
G04 #@! TO.N,N/C*
X143637000Y-126111000D03*
G04 #@! TO.P,U1,2*
G04 #@! TO.N,GND*
X143637000Y-124841000D03*
G04 #@! TO.P,U1,1*
G04 #@! TO.N,Net-(C2-Pad2)*
X143637000Y-123571000D03*
G04 #@! TD*
D15*
G04 #@! TO.P,U3,1*
G04 #@! TO.N,/A0*
X135067000Y-127338000D03*
G04 #@! TO.P,U3,2*
G04 #@! TO.N,GND*
X136017000Y-127338000D03*
G04 #@! TO.P,U3,3*
G04 #@! TO.N,/Vmag*
X136967000Y-127338000D03*
G04 #@! TO.P,U3,4*
G04 #@! TO.N,Net-(R11-Pad2)*
X136967000Y-125138000D03*
G04 #@! TO.P,U3,5*
G04 #@! TO.N,+5V*
X135067000Y-125138000D03*
G04 #@! TD*
D16*
G04 #@! TO.P,C2,1*
G04 #@! TO.N,GND*
X136525000Y-120623500D03*
G04 #@! TO.P,C2,2*
G04 #@! TO.N,Net-(C2-Pad2)*
X136525000Y-122708500D03*
G04 #@! TD*
D17*
G04 #@! TO.P,C4,2*
G04 #@! TO.N,Net-(C4-Pad2)*
X156691500Y-123190000D03*
G04 #@! TO.P,C4,1*
G04 #@! TO.N,/Input*
X158776500Y-123190000D03*
G04 #@! TD*
G04 #@! TO.P,C5,1*
G04 #@! TO.N,Net-(C5-Pad1)*
X156691500Y-128270000D03*
G04 #@! TO.P,C5,2*
G04 #@! TO.N,GND*
X158776500Y-128270000D03*
G04 #@! TD*
G04 #@! TO.P,R2,1*
G04 #@! TO.N,GND*
X156691500Y-120650000D03*
G04 #@! TO.P,R2,2*
G04 #@! TO.N,/Input*
X158776500Y-120650000D03*
G04 #@! TD*
G04 #@! TO.P,R3,2*
G04 #@! TO.N,+5V*
X158776500Y-125730000D03*
G04 #@! TO.P,R3,1*
G04 #@! TO.N,Net-(C5-Pad1)*
X156691500Y-125730000D03*
G04 #@! TD*
D16*
G04 #@! TO.P,R11,2*
G04 #@! TO.N,Net-(R11-Pad2)*
X129413000Y-125957500D03*
G04 #@! TO.P,R11,1*
G04 #@! TO.N,GND*
X129413000Y-128042500D03*
G04 #@! TD*
G04 #@! TO.P,R12,1*
G04 #@! TO.N,Net-(R11-Pad2)*
X132207000Y-125957500D03*
G04 #@! TO.P,R12,2*
G04 #@! TO.N,/A0*
X132207000Y-128042500D03*
G04 #@! TD*
G04 #@! TO.P,C15,1*
G04 #@! TO.N,+5V*
X133731000Y-122708500D03*
G04 #@! TO.P,C15,2*
G04 #@! TO.N,GND*
X133731000Y-120623500D03*
G04 #@! TD*
G04 #@! TO.P,C6,1*
G04 #@! TO.N,/3.3V_cust*
X159993500Y-100356500D03*
G04 #@! TO.P,C6,2*
G04 #@! TO.N,GND*
X159993500Y-98271500D03*
G04 #@! TD*
G04 #@! TO.P,C7,2*
G04 #@! TO.N,GND*
X151357500Y-95731500D03*
G04 #@! TO.P,C7,1*
G04 #@! TO.N,/3.3V_cust*
X151357500Y-97816500D03*
G04 #@! TD*
D17*
G04 #@! TO.P,C1,2*
G04 #@! TO.N,GND*
X138176000Y-107188000D03*
G04 #@! TO.P,C1,1*
G04 #@! TO.N,+5V*
X136091000Y-107188000D03*
G04 #@! TD*
G04 #@! TO.P,C3,2*
G04 #@! TO.N,GND*
X131265000Y-107188000D03*
G04 #@! TO.P,C3,1*
G04 #@! TO.N,/3.3V_cust*
X133350000Y-107188000D03*
G04 #@! TD*
D18*
G04 #@! TO.P,U2,2*
G04 #@! TO.N,/3.3V_cust*
X133604000Y-97434000D03*
D19*
X133604000Y-103734000D03*
G04 #@! TO.P,U2,3*
G04 #@! TO.N,+5V*
X135904000Y-103734000D03*
G04 #@! TO.P,U2,1*
G04 #@! TO.N,GND*
X131304000Y-103734000D03*
G04 #@! TD*
D20*
G04 #@! TO.P,Y1,1*
G04 #@! TO.N,Net-(U4-Pad2)*
X149860000Y-89154000D03*
G04 #@! TO.P,Y1,2*
G04 #@! TO.N,Net-(U4-Pad3)*
X154740000Y-89154000D03*
G04 #@! TD*
D21*
G04 #@! TO.P,TP1,1*
G04 #@! TO.N,+5V*
X139192000Y-103632000D03*
G04 #@! TD*
G04 #@! TO.P,TP2,1*
G04 #@! TO.N,/3.3V_cust*
X133604000Y-94488000D03*
G04 #@! TD*
G04 #@! TO.P,TP3,1*
G04 #@! TO.N,Net-(TP3-Pad1)*
X160528000Y-107696000D03*
G04 #@! TD*
G04 #@! TO.P,TP4,1*
G04 #@! TO.N,GND*
X128270000Y-103632000D03*
G04 #@! TD*
G04 #@! TO.P,TP5,1*
G04 #@! TO.N,Net-(TP5-Pad1)*
X157480000Y-107696000D03*
G04 #@! TD*
D22*
G04 #@! TO.P,Q1,1*
G04 #@! TO.N,/3.3V_cust*
X147000000Y-98568000D03*
G04 #@! TO.P,Q1,2*
G04 #@! TO.N,/SCL*
X145100000Y-98568000D03*
G04 #@! TO.P,Q1,3*
G04 #@! TO.N,Net-(Q1-Pad3)*
X146050000Y-100568000D03*
G04 #@! TD*
G04 #@! TO.P,Q6,3*
G04 #@! TO.N,/SDA*
X146050000Y-102632000D03*
G04 #@! TO.P,Q6,2*
G04 #@! TO.N,Net-(Q6-Pad2)*
X147000000Y-104632000D03*
G04 #@! TO.P,Q6,1*
G04 #@! TO.N,/3.3V_cust*
X145100000Y-104632000D03*
G04 #@! TD*
D16*
G04 #@! TO.P,R1,1*
G04 #@! TO.N,+5V*
X140208000Y-100330000D03*
G04 #@! TO.P,R1,2*
G04 #@! TO.N,/SCL*
X140208000Y-98245000D03*
G04 #@! TD*
G04 #@! TO.P,R4,2*
G04 #@! TO.N,Net-(Q1-Pad3)*
X152119500Y-106145500D03*
G04 #@! TO.P,R4,1*
G04 #@! TO.N,/3.3V_cust*
X152119500Y-108230500D03*
G04 #@! TD*
G04 #@! TO.P,R5,2*
G04 #@! TO.N,/SDA*
X146558000Y-95784500D03*
G04 #@! TO.P,R5,1*
G04 #@! TO.N,+5V*
X146558000Y-93699500D03*
G04 #@! TD*
G04 #@! TO.P,R6,1*
G04 #@! TO.N,/3.3V_cust*
X156972000Y-95731500D03*
G04 #@! TO.P,R6,2*
G04 #@! TO.N,Net-(Q6-Pad2)*
X156972000Y-97816500D03*
G04 #@! TD*
D23*
G04 #@! TO.P,U4,1*
G04 #@! TO.N,/3.3V_cust*
X152486000Y-100346000D03*
G04 #@! TO.P,U4,2*
G04 #@! TO.N,Net-(U4-Pad2)*
X152486000Y-100846000D03*
G04 #@! TO.P,U4,3*
G04 #@! TO.N,Net-(U4-Pad3)*
X152486000Y-101346000D03*
G04 #@! TO.P,U4,4*
G04 #@! TO.N,Net-(Q1-Pad3)*
X152486000Y-101846000D03*
G04 #@! TO.P,U4,5*
G04 #@! TO.N,Net-(Q6-Pad2)*
X152486000Y-102346000D03*
G04 #@! TO.P,U4,6*
G04 #@! TO.N,Net-(TP5-Pad1)*
X156886000Y-102346000D03*
G04 #@! TO.P,U4,7*
G04 #@! TO.N,/3.3V_cust*
X156886000Y-101846000D03*
G04 #@! TO.P,U4,8*
G04 #@! TO.N,GND*
X156886000Y-101346000D03*
G04 #@! TO.P,U4,9*
G04 #@! TO.N,Net-(TP3-Pad1)*
X156886000Y-100846000D03*
G04 #@! TO.P,U4,10*
G04 #@! TO.N,Net-(J2-Pad1)*
X156886000Y-100346000D03*
G04 #@! TD*
D24*
G04 #@! TO.P,D1,2*
G04 #@! TO.N,Net-(D1-Pad2)*
X114168000Y-133858000D03*
G04 #@! TO.P,D1,1*
G04 #@! TO.N,GND*
X116078000Y-133858000D03*
G04 #@! TD*
G04 #@! TO.P,D2,1*
G04 #@! TO.N,GND*
X116078000Y-131572000D03*
G04 #@! TO.P,D2,2*
G04 #@! TO.N,Net-(D2-Pad2)*
X114168000Y-131572000D03*
G04 #@! TD*
D17*
G04 #@! TO.P,R7,2*
G04 #@! TO.N,Net-(D1-Pad2)*
X111786500Y-133858000D03*
G04 #@! TO.P,R7,1*
G04 #@! TO.N,/A2*
X109701500Y-133858000D03*
G04 #@! TD*
G04 #@! TO.P,R8,1*
G04 #@! TO.N,/A1*
X109701500Y-131572000D03*
G04 #@! TO.P,R8,2*
G04 #@! TO.N,Net-(D2-Pad2)*
X111786500Y-131572000D03*
G04 #@! TD*
D25*
G04 #@! TO.N,GND*
X164846000Y-108966000D03*
X164846000Y-113284000D03*
X164846000Y-110871000D03*
X157226000Y-131191000D03*
X149225000Y-107696000D03*
X149225000Y-115824000D03*
X149225000Y-112649000D03*
X149225000Y-110236000D03*
X130302000Y-123190000D03*
X137033000Y-114427000D03*
X130302000Y-112395000D03*
X130302000Y-116332000D03*
X130302000Y-120015000D03*
X142240000Y-129286000D03*
X151130000Y-129286000D03*
X149098000Y-129286000D03*
X146939000Y-129286000D03*
X144526000Y-129286000D03*
X142113000Y-122047000D03*
X151257000Y-122047000D03*
X149098000Y-122047000D03*
X146939000Y-122047000D03*
X144526000Y-122047000D03*
X133731000Y-120666000D03*
X158776500Y-128270000D03*
X165676000Y-120560000D03*
X165676000Y-125820000D03*
X156691500Y-120650000D03*
X164973000Y-91059000D03*
X160655000Y-96139000D03*
X161544000Y-93345000D03*
X129667000Y-87884000D03*
X143510000Y-90043000D03*
X139192000Y-87884000D03*
X134366000Y-87884000D03*
X131265000Y-107188000D03*
X131304000Y-103734000D03*
X165676000Y-101944000D03*
X165676000Y-96684000D03*
X159993500Y-98271500D03*
X151357500Y-95731500D03*
X166624000Y-135636000D03*
X158496000Y-135636000D03*
X150114000Y-135636000D03*
X117856000Y-135636000D03*
X108712000Y-135636000D03*
X112014000Y-87884000D03*
X109220000Y-87884000D03*
X121412000Y-119126000D03*
X116840000Y-119126000D03*
X146707111Y-103779588D03*
X158242063Y-101341990D03*
X138176000Y-107188000D03*
X143002000Y-106426000D03*
G04 #@! TO.N,/A0*
X118806590Y-118112437D03*
G04 #@! TO.N,+5V*
X158776500Y-125730000D03*
X135067000Y-125138000D03*
G04 #@! TO.N,/3.3V_cust*
X151357500Y-97816500D03*
X156972000Y-95731500D03*
X147000000Y-98568000D03*
X133604000Y-97434000D03*
X144526000Y-103632000D03*
X159993500Y-100356500D03*
G04 #@! TO.N,Net-(Q1-Pad3)*
X146050000Y-100568000D03*
X150368000Y-101346000D03*
G04 #@! TO.N,/SDA*
X138938000Y-105410000D03*
X128162599Y-107080599D03*
G04 #@! TO.N,/SCL*
X140208000Y-98245000D03*
X118364000Y-108966000D03*
X143256070Y-98552000D03*
G04 #@! TO.N,Net-(Q6-Pad2)*
X156972000Y-97816500D03*
X153670000Y-102362000D03*
G04 #@! TO.N,Net-(TP3-Pad1)*
X158242000Y-100584000D03*
X160528000Y-107696000D03*
G04 #@! TO.N,/A1*
X109866213Y-131736713D03*
G04 #@! TO.N,/A2*
X109701500Y-133858000D03*
G04 #@! TD*
D26*
G04 #@! TO.N,GND*
X164846000Y-113284000D02*
X164846000Y-110871000D01*
X149225000Y-115824000D02*
X149225000Y-112649000D01*
X149225000Y-110236000D02*
X149225000Y-107696000D01*
X130302000Y-116332000D02*
X130302000Y-112395000D01*
X130302000Y-120015000D02*
X130302000Y-123190000D01*
X151130000Y-129286000D02*
X149098000Y-129286000D01*
X144526000Y-129286000D02*
X146939000Y-129286000D01*
X151257000Y-122047000D02*
X149098000Y-122047000D01*
X144526000Y-122047000D02*
X146939000Y-122047000D01*
X133731000Y-120666000D02*
X136525000Y-120666000D01*
X158776500Y-129640500D02*
X157226000Y-131191000D01*
X158776500Y-128270000D02*
X158776500Y-129640500D01*
X158776500Y-128092500D02*
X158776500Y-128270000D01*
X161049000Y-125820000D02*
X158776500Y-128092500D01*
X165676000Y-125820000D02*
X161049000Y-125820000D01*
X162687000Y-93345000D02*
X161544000Y-93345000D01*
X162687000Y-93345000D02*
X164973000Y-91059000D01*
X134366000Y-87884000D02*
X139192000Y-87884000D01*
D27*
X131202000Y-103632000D02*
X131304000Y-103734000D01*
X128270000Y-103632000D02*
X131202000Y-103632000D01*
X131304000Y-107149000D02*
X131265000Y-107188000D01*
X131304000Y-103734000D02*
X131304000Y-107149000D01*
D26*
X156791000Y-101346000D02*
X156795010Y-101341990D01*
D28*
X151130000Y-129286000D02*
X160274000Y-129286000D01*
X160274000Y-129286000D02*
X166624000Y-135636000D01*
X158496000Y-135636000D02*
X150114000Y-135636000D01*
X112014000Y-87884000D02*
X109220000Y-87884000D01*
D29*
X122174000Y-118364000D02*
X121412000Y-119126000D01*
X125222000Y-118364000D02*
X122174000Y-118364000D01*
X112522000Y-123444000D02*
X116590001Y-119375999D01*
X116590001Y-119375999D02*
X116840000Y-119126000D01*
D26*
X115392500Y-123444000D02*
X111760000Y-123444000D01*
D29*
X109982000Y-123444000D02*
X111760000Y-123444000D01*
X111760000Y-123444000D02*
X112522000Y-123444000D01*
D26*
X156795010Y-101341990D02*
X157888510Y-101341990D01*
X157888510Y-101341990D02*
X158242063Y-101341990D01*
X116078000Y-131572000D02*
X116078000Y-133858000D01*
X116078000Y-134950000D02*
X116332000Y-135204000D01*
X116078000Y-133858000D02*
X116078000Y-134950000D01*
X116332000Y-135204000D02*
X116332000Y-135636000D01*
D28*
X116332000Y-135636000D02*
X108712000Y-135636000D01*
X117856000Y-135636000D02*
X116332000Y-135636000D01*
D26*
G04 #@! TO.N,Net-(C2-Pad2)*
X136525000Y-122666000D02*
X137398000Y-122666000D01*
X138303000Y-123571000D02*
X143637000Y-123571000D01*
X137398000Y-122666000D02*
X138303000Y-123571000D01*
G04 #@! TO.N,/Input*
X158734000Y-120650000D02*
X158734000Y-123190000D01*
X158734000Y-123190000D02*
X165676000Y-123190000D01*
G04 #@! TO.N,Net-(C4-Pad2)*
X149987000Y-123571000D02*
X156353000Y-123571000D01*
X156353000Y-123571000D02*
X156734000Y-123190000D01*
G04 #@! TO.N,Net-(C5-Pad1)*
X149987000Y-126111000D02*
X155448000Y-126111000D01*
X155829000Y-125730000D02*
X156734000Y-125730000D01*
X155448000Y-126111000D02*
X155829000Y-125730000D01*
X149987000Y-124841000D02*
X149987000Y-126111000D01*
D29*
X156734000Y-128270000D02*
X156734000Y-125730000D01*
G04 #@! TO.N,/A0*
X135067000Y-127338000D02*
X134409000Y-127338000D01*
X133747000Y-128000000D02*
X132207000Y-128000000D01*
X134409000Y-127338000D02*
X133747000Y-128000000D01*
D26*
X132029500Y-128042500D02*
X130278000Y-129794000D01*
X130278000Y-129794000D02*
X129259878Y-129794000D01*
X126345401Y-126879523D02*
X126345401Y-124925279D01*
X126345401Y-124925279D02*
X125987523Y-124567401D01*
X118806590Y-118465990D02*
X118806590Y-118112437D01*
X118806590Y-118691224D02*
X118806590Y-118465990D01*
X124682767Y-124567401D02*
X118806590Y-118691224D01*
X125987523Y-124567401D02*
X124682767Y-124567401D01*
X129259878Y-129794000D02*
X126345401Y-126879523D01*
X132207000Y-128042500D02*
X132029500Y-128042500D01*
G04 #@! TO.N,/Vmag*
X136967000Y-127338000D02*
X143594000Y-127338000D01*
X143594000Y-127338000D02*
X143637000Y-127381000D01*
D29*
X137010000Y-127381000D02*
X136967000Y-127338000D01*
G04 #@! TO.N,Net-(R11-Pad2)*
X132207000Y-126000000D02*
X134001000Y-126000000D01*
X136967000Y-126050000D02*
X136967000Y-125138000D01*
X136779000Y-126238000D02*
X136967000Y-126050000D01*
X134239000Y-126238000D02*
X136779000Y-126238000D01*
X134001000Y-126000000D02*
X134239000Y-126238000D01*
X129413000Y-126000000D02*
X132207000Y-126000000D01*
G04 #@! TO.N,+5V*
X133731000Y-122666000D02*
X133731000Y-122936000D01*
X133731000Y-122936000D02*
X135067000Y-124272000D01*
X135067000Y-124272000D02*
X135067000Y-125138000D01*
D27*
X139090000Y-103734000D02*
X139192000Y-103632000D01*
X135904000Y-103734000D02*
X139090000Y-103734000D01*
X136091000Y-103921000D02*
X135904000Y-103734000D01*
X136091000Y-107188000D02*
X136091000Y-103921000D01*
D29*
X136091000Y-108438000D02*
X132080000Y-112449000D01*
X136091000Y-107188000D02*
X136091000Y-108438000D01*
X133553500Y-122708500D02*
X133731000Y-122708500D01*
X132080000Y-121235000D02*
X133553500Y-122708500D01*
X111113370Y-118364000D02*
X112383370Y-117094000D01*
X109982000Y-118364000D02*
X111113370Y-118364000D01*
X132080000Y-112449000D02*
X132080000Y-117094000D01*
X112383370Y-117094000D02*
X132080000Y-117094000D01*
X132080000Y-117094000D02*
X132080000Y-121235000D01*
X139192000Y-101346000D02*
X140208000Y-100330000D01*
X139192000Y-103632000D02*
X139192000Y-101346000D01*
X146558000Y-93699500D02*
X146380500Y-93699500D01*
D26*
X140385500Y-100330000D02*
X140208000Y-100330000D01*
X143002000Y-97713500D02*
X140385500Y-100330000D01*
X143002000Y-96163500D02*
X143002000Y-97713500D01*
X145466000Y-93699500D02*
X143002000Y-96163500D01*
X146558000Y-93699500D02*
X145466000Y-93699500D01*
D27*
G04 #@! TO.N,/3.3V_cust*
X133604000Y-103734000D02*
X133604000Y-97434000D01*
X133604000Y-97434000D02*
X133604000Y-94488000D01*
X133350000Y-103988000D02*
X133604000Y-103734000D01*
X133350000Y-107188000D02*
X133350000Y-103988000D01*
D28*
X156886000Y-101846000D02*
X155948000Y-101846000D01*
X151535000Y-97816500D02*
X151357500Y-97816500D01*
X152486000Y-98767500D02*
X151535000Y-97816500D01*
X152486000Y-100346000D02*
X152486000Y-98767500D01*
X156886000Y-101846000D02*
X159520000Y-101846000D01*
X159993500Y-101372500D02*
X159993500Y-100356500D01*
X159520000Y-101846000D02*
X159993500Y-101372500D01*
D26*
X145100000Y-104206000D02*
X144526000Y-103632000D01*
X145100000Y-104632000D02*
X145100000Y-104206000D01*
X151027500Y-108230500D02*
X149223000Y-106426000D01*
X152119500Y-108230500D02*
X151027500Y-108230500D01*
X145100000Y-104682000D02*
X145100000Y-104632000D01*
X146844000Y-106426000D02*
X145100000Y-104682000D01*
X149223000Y-106426000D02*
X146844000Y-106426000D01*
G04 #@! TO.N,Net-(TP5-Pad1)*
X156791000Y-107007000D02*
X157480000Y-107696000D01*
X156791000Y-102346000D02*
X156791000Y-107007000D01*
D28*
G04 #@! TO.N,Net-(U4-Pad2)*
X149860000Y-90214660D02*
X149860000Y-89154000D01*
X151582800Y-100846000D02*
X149860000Y-99123200D01*
X149860000Y-99123200D02*
X149860000Y-90214660D01*
X152486000Y-100846000D02*
X151582800Y-100846000D01*
G04 #@! TO.N,Net-(U4-Pad3)*
X154740000Y-89154000D02*
X154740000Y-99995200D01*
X153389200Y-101346000D02*
X152486000Y-101346000D01*
X154740000Y-99995200D02*
X153389200Y-101346000D01*
G04 #@! TO.N,Net-(Q1-Pad3)*
X150868000Y-101846000D02*
X150368000Y-101346000D01*
X152486000Y-101846000D02*
X150868000Y-101846000D01*
X152119500Y-105182500D02*
X152119500Y-105369800D01*
X152119500Y-105369800D02*
X152119500Y-106145500D01*
X154178000Y-103124000D02*
X152119500Y-105182500D01*
X152486000Y-101846000D02*
X153916000Y-101846000D01*
X154190078Y-102120078D02*
X154178000Y-102132156D01*
X153916000Y-101846000D02*
X154190078Y-102120078D01*
X154178000Y-102132156D02*
X154178000Y-103124000D01*
D26*
G04 #@! TO.N,/SDA*
X112236771Y-107080599D02*
X128162599Y-107080599D01*
X111113370Y-108204000D02*
X112236771Y-107080599D01*
X109982000Y-108204000D02*
X111113370Y-108204000D01*
X146792000Y-102632000D02*
X146050000Y-102632000D01*
X148844000Y-100580000D02*
X146792000Y-102632000D01*
X148844000Y-96978500D02*
X148844000Y-100580000D01*
X147650000Y-95784500D02*
X148844000Y-96978500D01*
X146558000Y-95784500D02*
X147650000Y-95784500D01*
X145308000Y-102632000D02*
X145292000Y-102616000D01*
X146050000Y-102632000D02*
X145308000Y-102632000D01*
X141478000Y-105410000D02*
X144272000Y-102616000D01*
X138938000Y-105410000D02*
X141478000Y-105410000D01*
X145292000Y-102616000D02*
X144272000Y-102616000D01*
D28*
G04 #@! TO.N,/SCL*
X116586000Y-110744000D02*
X118364000Y-108966000D01*
X109982000Y-110744000D02*
X116586000Y-110744000D01*
X143272070Y-98568000D02*
X143256070Y-98552000D01*
X145100000Y-98568000D02*
X143272070Y-98568000D01*
G04 #@! TO.N,Net-(Q6-Pad2)*
X149236000Y-102346000D02*
X147000000Y-104582000D01*
X152486000Y-102346000D02*
X149236000Y-102346000D01*
X147000000Y-104582000D02*
X147000000Y-104632000D01*
X153654000Y-102346000D02*
X153670000Y-102362000D01*
X152486000Y-102346000D02*
X153654000Y-102346000D01*
D26*
G04 #@! TO.N,Net-(J2-Pad1)*
X163234000Y-99314000D02*
X165676000Y-99314000D01*
X157328500Y-99314000D02*
X163234000Y-99314000D01*
X156791000Y-99851500D02*
X157328500Y-99314000D01*
X156791000Y-100346000D02*
X156791000Y-99851500D01*
D28*
G04 #@! TO.N,Net-(TP3-Pad1)*
X157980000Y-100846000D02*
X158242000Y-100584000D01*
X156886000Y-100846000D02*
X157980000Y-100846000D01*
D26*
G04 #@! TO.N,Net-(D1-Pad2)*
X111786500Y-133858000D02*
X114168000Y-133858000D01*
G04 #@! TO.N,Net-(D2-Pad2)*
X111786500Y-131572000D02*
X114168000Y-131572000D01*
G04 #@! TD*
D28*
G04 #@! TO.N,GND*
G36*
X167514200Y-86263318D02*
X167514200Y-95779200D01*
X165904600Y-95779200D01*
X165828400Y-95855400D01*
X165828400Y-96531600D01*
X165848400Y-96531600D01*
X165848400Y-96836400D01*
X165828400Y-96836400D01*
X165828400Y-97512600D01*
X165904600Y-97588800D01*
X167514200Y-97588800D01*
X167514200Y-98303229D01*
X163576000Y-98303229D01*
X163457073Y-98326885D01*
X163356252Y-98394252D01*
X163288885Y-98495073D01*
X163265229Y-98614000D01*
X163265229Y-98838200D01*
X161048300Y-98838200D01*
X161048300Y-98500100D01*
X160972100Y-98423900D01*
X160145900Y-98423900D01*
X160145900Y-98443900D01*
X159841100Y-98443900D01*
X159841100Y-98423900D01*
X159014900Y-98423900D01*
X158938700Y-98500100D01*
X158938700Y-98838200D01*
X157375355Y-98838200D01*
X157328500Y-98828880D01*
X157281644Y-98838200D01*
X157281641Y-98838200D01*
X157142852Y-98865807D01*
X156985468Y-98970968D01*
X156958924Y-99010694D01*
X156487692Y-99481926D01*
X156447969Y-99508468D01*
X156421427Y-99548191D01*
X156421425Y-99548193D01*
X156342807Y-99665853D01*
X156305880Y-99851500D01*
X156312589Y-99885229D01*
X156186000Y-99885229D01*
X156067073Y-99908885D01*
X155966252Y-99976252D01*
X155898885Y-100077073D01*
X155875229Y-100196000D01*
X155875229Y-100496000D01*
X155895120Y-100596000D01*
X155875229Y-100696000D01*
X155875229Y-100996000D01*
X155895895Y-101099894D01*
X155881200Y-101135371D01*
X155881200Y-101194800D01*
X155957400Y-101271000D01*
X156048942Y-101271000D01*
X156067073Y-101283115D01*
X156186000Y-101306771D01*
X157586000Y-101306771D01*
X157704927Y-101283115D01*
X157723058Y-101271000D01*
X157814600Y-101271000D01*
X157833200Y-101252400D01*
X157939982Y-101252400D01*
X157980000Y-101260360D01*
X158020018Y-101252400D01*
X158020023Y-101252400D01*
X158138569Y-101228820D01*
X158272997Y-101138997D01*
X158273129Y-101138800D01*
X158352357Y-101138800D01*
X158556269Y-101054337D01*
X158712337Y-100898269D01*
X158796800Y-100694357D01*
X158796800Y-100473643D01*
X158712337Y-100269731D01*
X158556269Y-100113663D01*
X158352357Y-100029200D01*
X158131643Y-100029200D01*
X157927731Y-100113663D01*
X157888247Y-100153147D01*
X157873115Y-100077073D01*
X157805748Y-99976252D01*
X157704927Y-99908885D01*
X157586000Y-99885229D01*
X157430153Y-99885229D01*
X157525582Y-99789800D01*
X158932729Y-99789800D01*
X158932729Y-100929000D01*
X158956385Y-101047927D01*
X159023752Y-101148748D01*
X159124573Y-101216115D01*
X159243500Y-101239771D01*
X159551493Y-101239771D01*
X159351665Y-101439600D01*
X157833200Y-101439600D01*
X157814600Y-101421000D01*
X157723058Y-101421000D01*
X157704927Y-101408885D01*
X157586000Y-101385229D01*
X156186000Y-101385229D01*
X156067073Y-101408885D01*
X156048942Y-101421000D01*
X155957400Y-101421000D01*
X155938800Y-101439600D01*
X155907977Y-101439600D01*
X155789431Y-101463180D01*
X155655003Y-101553003D01*
X155565180Y-101687431D01*
X155533639Y-101846000D01*
X155565180Y-102004569D01*
X155655003Y-102138997D01*
X155789431Y-102228820D01*
X155875229Y-102245886D01*
X155875229Y-102496000D01*
X155898885Y-102614927D01*
X155966252Y-102715748D01*
X156067073Y-102783115D01*
X156186000Y-102806771D01*
X156315200Y-102806771D01*
X156315201Y-106960140D01*
X156305880Y-107007000D01*
X156342807Y-107192647D01*
X156421425Y-107310307D01*
X156421427Y-107310309D01*
X156447969Y-107350032D01*
X156474308Y-107367631D01*
X156425200Y-107486187D01*
X156425200Y-107905813D01*
X156585784Y-108293496D01*
X156882504Y-108590216D01*
X157270187Y-108750800D01*
X157689813Y-108750800D01*
X158077496Y-108590216D01*
X158374216Y-108293496D01*
X158534800Y-107905813D01*
X158534800Y-107486187D01*
X159473200Y-107486187D01*
X159473200Y-107905813D01*
X159633784Y-108293496D01*
X159930504Y-108590216D01*
X160318187Y-108750800D01*
X160737813Y-108750800D01*
X161125496Y-108590216D01*
X161422216Y-108293496D01*
X161582800Y-107905813D01*
X161582800Y-107486187D01*
X161422216Y-107098504D01*
X161125496Y-106801784D01*
X160737813Y-106641200D01*
X160318187Y-106641200D01*
X159930504Y-106801784D01*
X159633784Y-107098504D01*
X159473200Y-107486187D01*
X158534800Y-107486187D01*
X158374216Y-107098504D01*
X158077496Y-106801784D01*
X157689813Y-106641200D01*
X157270187Y-106641200D01*
X157266800Y-106642603D01*
X157266800Y-102806771D01*
X157586000Y-102806771D01*
X157704927Y-102783115D01*
X157805748Y-102715748D01*
X157873115Y-102614927D01*
X157896771Y-102496000D01*
X157896771Y-102252400D01*
X159479982Y-102252400D01*
X159520000Y-102260360D01*
X159560018Y-102252400D01*
X159560023Y-102252400D01*
X159678569Y-102228820D01*
X159762707Y-102172600D01*
X163271200Y-102172600D01*
X163271200Y-102604629D01*
X163317603Y-102716656D01*
X163403345Y-102802397D01*
X163515372Y-102848800D01*
X165447400Y-102848800D01*
X165523600Y-102772600D01*
X165523600Y-102096400D01*
X163347400Y-102096400D01*
X163271200Y-102172600D01*
X159762707Y-102172600D01*
X159812997Y-102138997D01*
X159835670Y-102105066D01*
X160252568Y-101688167D01*
X160286497Y-101665497D01*
X160376320Y-101531069D01*
X160399900Y-101412523D01*
X160399900Y-101412519D01*
X160407860Y-101372501D01*
X160399900Y-101332483D01*
X160399900Y-101283371D01*
X163271200Y-101283371D01*
X163271200Y-101715400D01*
X163347400Y-101791600D01*
X165523600Y-101791600D01*
X165523600Y-101115400D01*
X165447400Y-101039200D01*
X163515372Y-101039200D01*
X163403345Y-101085603D01*
X163317603Y-101171344D01*
X163271200Y-101283371D01*
X160399900Y-101283371D01*
X160399900Y-101239771D01*
X160743500Y-101239771D01*
X160862427Y-101216115D01*
X160963248Y-101148748D01*
X161030615Y-101047927D01*
X161054271Y-100929000D01*
X161054271Y-99789800D01*
X163265229Y-99789800D01*
X163265229Y-100014000D01*
X163288885Y-100132927D01*
X163356252Y-100233748D01*
X163457073Y-100301115D01*
X163576000Y-100324771D01*
X167514200Y-100324771D01*
X167514200Y-101039200D01*
X165904600Y-101039200D01*
X165828400Y-101115400D01*
X165828400Y-101791600D01*
X165848400Y-101791600D01*
X165848400Y-102096400D01*
X165828400Y-102096400D01*
X165828400Y-102772600D01*
X165904600Y-102848800D01*
X167514200Y-102848800D01*
X167514201Y-119655200D01*
X165904600Y-119655200D01*
X165828400Y-119731400D01*
X165828400Y-120407600D01*
X165848400Y-120407600D01*
X165848400Y-120712400D01*
X165828400Y-120712400D01*
X165828400Y-121388600D01*
X165904600Y-121464800D01*
X167514201Y-121464800D01*
X167514201Y-122179229D01*
X163576000Y-122179229D01*
X163457073Y-122202885D01*
X163356252Y-122270252D01*
X163288885Y-122371073D01*
X163265229Y-122490000D01*
X163265229Y-122714200D01*
X159659771Y-122714200D01*
X159659771Y-122440000D01*
X159636115Y-122321073D01*
X159568748Y-122220252D01*
X159467927Y-122152885D01*
X159349000Y-122129229D01*
X159209800Y-122129229D01*
X159209800Y-121710771D01*
X159349000Y-121710771D01*
X159467927Y-121687115D01*
X159568748Y-121619748D01*
X159636115Y-121518927D01*
X159659771Y-121400000D01*
X159659771Y-120788600D01*
X163271200Y-120788600D01*
X163271200Y-121220629D01*
X163317603Y-121332656D01*
X163403345Y-121418397D01*
X163515372Y-121464800D01*
X165447400Y-121464800D01*
X165523600Y-121388600D01*
X165523600Y-120712400D01*
X163347400Y-120712400D01*
X163271200Y-120788600D01*
X159659771Y-120788600D01*
X159659771Y-119900000D01*
X159659646Y-119899371D01*
X163271200Y-119899371D01*
X163271200Y-120331400D01*
X163347400Y-120407600D01*
X165523600Y-120407600D01*
X165523600Y-119731400D01*
X165447400Y-119655200D01*
X163515372Y-119655200D01*
X163403345Y-119701603D01*
X163317603Y-119787344D01*
X163271200Y-119899371D01*
X159659646Y-119899371D01*
X159636115Y-119781073D01*
X159568748Y-119680252D01*
X159467927Y-119612885D01*
X159349000Y-119589229D01*
X158204000Y-119589229D01*
X158085073Y-119612885D01*
X157984252Y-119680252D01*
X157916885Y-119781073D01*
X157893229Y-119900000D01*
X157893229Y-121400000D01*
X157916885Y-121518927D01*
X157984252Y-121619748D01*
X158085073Y-121687115D01*
X158204000Y-121710771D01*
X158258200Y-121710771D01*
X158258201Y-122129229D01*
X158204000Y-122129229D01*
X158085073Y-122152885D01*
X157984252Y-122220252D01*
X157916885Y-122321073D01*
X157893229Y-122440000D01*
X157893229Y-123940000D01*
X157916885Y-124058927D01*
X157984252Y-124159748D01*
X158085073Y-124227115D01*
X158204000Y-124250771D01*
X159349000Y-124250771D01*
X159467927Y-124227115D01*
X159568748Y-124159748D01*
X159636115Y-124058927D01*
X159659771Y-123940000D01*
X159659771Y-123665800D01*
X163265229Y-123665800D01*
X163265229Y-123890000D01*
X163288885Y-124008927D01*
X163356252Y-124109748D01*
X163457073Y-124177115D01*
X163576000Y-124200771D01*
X167514201Y-124200771D01*
X167514201Y-124915200D01*
X165904600Y-124915200D01*
X165828400Y-124991400D01*
X165828400Y-125667600D01*
X165848400Y-125667600D01*
X165848400Y-125972400D01*
X165828400Y-125972400D01*
X165828400Y-126648600D01*
X165904600Y-126724800D01*
X167514201Y-126724800D01*
X167514201Y-136240681D01*
X167482682Y-136272200D01*
X108107318Y-136272200D01*
X108075800Y-136240682D01*
X108075800Y-133108000D01*
X108818229Y-133108000D01*
X108818229Y-134608000D01*
X108841885Y-134726927D01*
X108909252Y-134827748D01*
X109010073Y-134895115D01*
X109129000Y-134918771D01*
X110274000Y-134918771D01*
X110392927Y-134895115D01*
X110493748Y-134827748D01*
X110561115Y-134726927D01*
X110584771Y-134608000D01*
X110584771Y-133108000D01*
X110903229Y-133108000D01*
X110903229Y-134608000D01*
X110926885Y-134726927D01*
X110994252Y-134827748D01*
X111095073Y-134895115D01*
X111214000Y-134918771D01*
X112359000Y-134918771D01*
X112477927Y-134895115D01*
X112578748Y-134827748D01*
X112646115Y-134726927D01*
X112669771Y-134608000D01*
X112669771Y-134333800D01*
X113372229Y-134333800D01*
X113372229Y-134608000D01*
X113395885Y-134726927D01*
X113463252Y-134827748D01*
X113564073Y-134895115D01*
X113683000Y-134918771D01*
X114653000Y-134918771D01*
X114771927Y-134895115D01*
X114872748Y-134827748D01*
X114940115Y-134726927D01*
X114963771Y-134608000D01*
X114963771Y-134086600D01*
X115288200Y-134086600D01*
X115288200Y-134668629D01*
X115334603Y-134780656D01*
X115420345Y-134866397D01*
X115532372Y-134912800D01*
X115849400Y-134912800D01*
X115925600Y-134836600D01*
X115925600Y-134010400D01*
X116230400Y-134010400D01*
X116230400Y-134836600D01*
X116306600Y-134912800D01*
X116623628Y-134912800D01*
X116735655Y-134866397D01*
X116821397Y-134780656D01*
X116867800Y-134668629D01*
X116867800Y-134086600D01*
X116791600Y-134010400D01*
X116230400Y-134010400D01*
X115925600Y-134010400D01*
X115364400Y-134010400D01*
X115288200Y-134086600D01*
X114963771Y-134086600D01*
X114963771Y-133108000D01*
X114951712Y-133047371D01*
X115288200Y-133047371D01*
X115288200Y-133629400D01*
X115364400Y-133705600D01*
X115925600Y-133705600D01*
X115925600Y-132879400D01*
X116230400Y-132879400D01*
X116230400Y-133705600D01*
X116791600Y-133705600D01*
X116867800Y-133629400D01*
X116867800Y-133047371D01*
X116821397Y-132935344D01*
X116735655Y-132849603D01*
X116623628Y-132803200D01*
X116306600Y-132803200D01*
X116230400Y-132879400D01*
X115925600Y-132879400D01*
X115849400Y-132803200D01*
X115532372Y-132803200D01*
X115420345Y-132849603D01*
X115334603Y-132935344D01*
X115288200Y-133047371D01*
X114951712Y-133047371D01*
X114940115Y-132989073D01*
X114872748Y-132888252D01*
X114771927Y-132820885D01*
X114653000Y-132797229D01*
X113683000Y-132797229D01*
X113564073Y-132820885D01*
X113463252Y-132888252D01*
X113395885Y-132989073D01*
X113372229Y-133108000D01*
X113372229Y-133382200D01*
X112669771Y-133382200D01*
X112669771Y-133108000D01*
X112646115Y-132989073D01*
X112578748Y-132888252D01*
X112477927Y-132820885D01*
X112359000Y-132797229D01*
X111214000Y-132797229D01*
X111095073Y-132820885D01*
X110994252Y-132888252D01*
X110926885Y-132989073D01*
X110903229Y-133108000D01*
X110584771Y-133108000D01*
X110561115Y-132989073D01*
X110493748Y-132888252D01*
X110392927Y-132820885D01*
X110274000Y-132797229D01*
X109129000Y-132797229D01*
X109010073Y-132820885D01*
X108909252Y-132888252D01*
X108841885Y-132989073D01*
X108818229Y-133108000D01*
X108075800Y-133108000D01*
X108075800Y-130822000D01*
X108818229Y-130822000D01*
X108818229Y-132322000D01*
X108841885Y-132440927D01*
X108909252Y-132541748D01*
X109010073Y-132609115D01*
X109129000Y-132632771D01*
X110274000Y-132632771D01*
X110392927Y-132609115D01*
X110493748Y-132541748D01*
X110561115Y-132440927D01*
X110584771Y-132322000D01*
X110584771Y-130822000D01*
X110903229Y-130822000D01*
X110903229Y-132322000D01*
X110926885Y-132440927D01*
X110994252Y-132541748D01*
X111095073Y-132609115D01*
X111214000Y-132632771D01*
X112359000Y-132632771D01*
X112477927Y-132609115D01*
X112578748Y-132541748D01*
X112646115Y-132440927D01*
X112669771Y-132322000D01*
X112669771Y-132047800D01*
X113372229Y-132047800D01*
X113372229Y-132322000D01*
X113395885Y-132440927D01*
X113463252Y-132541748D01*
X113564073Y-132609115D01*
X113683000Y-132632771D01*
X114653000Y-132632771D01*
X114771927Y-132609115D01*
X114872748Y-132541748D01*
X114940115Y-132440927D01*
X114963771Y-132322000D01*
X114963771Y-131800600D01*
X115288200Y-131800600D01*
X115288200Y-132382629D01*
X115334603Y-132494656D01*
X115420345Y-132580397D01*
X115532372Y-132626800D01*
X115849400Y-132626800D01*
X115925600Y-132550600D01*
X115925600Y-131724400D01*
X116230400Y-131724400D01*
X116230400Y-132550600D01*
X116306600Y-132626800D01*
X116623628Y-132626800D01*
X116735655Y-132580397D01*
X116821397Y-132494656D01*
X116867800Y-132382629D01*
X116867800Y-131800600D01*
X116791600Y-131724400D01*
X116230400Y-131724400D01*
X115925600Y-131724400D01*
X115364400Y-131724400D01*
X115288200Y-131800600D01*
X114963771Y-131800600D01*
X114963771Y-130822000D01*
X114951712Y-130761371D01*
X115288200Y-130761371D01*
X115288200Y-131343400D01*
X115364400Y-131419600D01*
X115925600Y-131419600D01*
X115925600Y-130593400D01*
X116230400Y-130593400D01*
X116230400Y-131419600D01*
X116791600Y-131419600D01*
X116867800Y-131343400D01*
X116867800Y-130761371D01*
X116821397Y-130649344D01*
X116735655Y-130563603D01*
X116623628Y-130517200D01*
X116306600Y-130517200D01*
X116230400Y-130593400D01*
X115925600Y-130593400D01*
X115849400Y-130517200D01*
X115532372Y-130517200D01*
X115420345Y-130563603D01*
X115334603Y-130649344D01*
X115288200Y-130761371D01*
X114951712Y-130761371D01*
X114940115Y-130703073D01*
X114872748Y-130602252D01*
X114771927Y-130534885D01*
X114653000Y-130511229D01*
X113683000Y-130511229D01*
X113564073Y-130534885D01*
X113463252Y-130602252D01*
X113395885Y-130703073D01*
X113372229Y-130822000D01*
X113372229Y-131096200D01*
X112669771Y-131096200D01*
X112669771Y-130822000D01*
X112646115Y-130703073D01*
X112578748Y-130602252D01*
X112477927Y-130534885D01*
X112359000Y-130511229D01*
X111214000Y-130511229D01*
X111095073Y-130534885D01*
X110994252Y-130602252D01*
X110926885Y-130703073D01*
X110903229Y-130822000D01*
X110584771Y-130822000D01*
X110561115Y-130703073D01*
X110493748Y-130602252D01*
X110392927Y-130534885D01*
X110274000Y-130511229D01*
X109129000Y-130511229D01*
X109010073Y-130534885D01*
X108909252Y-130602252D01*
X108841885Y-130703073D01*
X108818229Y-130822000D01*
X108075800Y-130822000D01*
X108075800Y-125984000D01*
X108855556Y-125984000D01*
X108941301Y-126415071D01*
X109185484Y-126780516D01*
X109550929Y-127024699D01*
X109873188Y-127088800D01*
X110090812Y-127088800D01*
X110413071Y-127024699D01*
X110778516Y-126780516D01*
X111022699Y-126415071D01*
X111108444Y-125984000D01*
X111022699Y-125552929D01*
X110778516Y-125187484D01*
X110413071Y-124943301D01*
X110090812Y-124879200D01*
X109873188Y-124879200D01*
X109550929Y-124943301D01*
X109185484Y-125187484D01*
X108941301Y-125552929D01*
X108855556Y-125984000D01*
X108075800Y-125984000D01*
X108075800Y-123765700D01*
X108925074Y-123765700D01*
X109007151Y-123963892D01*
X109280311Y-124297376D01*
X109660297Y-124500941D01*
X109829600Y-124462054D01*
X109829600Y-123596400D01*
X110134400Y-123596400D01*
X110134400Y-124462054D01*
X110303703Y-124500941D01*
X110683689Y-124297376D01*
X110956849Y-123963892D01*
X111038926Y-123765700D01*
X110999247Y-123596400D01*
X110134400Y-123596400D01*
X109829600Y-123596400D01*
X108964753Y-123596400D01*
X108925074Y-123765700D01*
X108075800Y-123765700D01*
X108075800Y-123122300D01*
X108925074Y-123122300D01*
X108964753Y-123291600D01*
X109829600Y-123291600D01*
X109829600Y-122425946D01*
X110134400Y-122425946D01*
X110134400Y-123291600D01*
X110999247Y-123291600D01*
X111038926Y-123122300D01*
X110956849Y-122924108D01*
X110683689Y-122590624D01*
X110303703Y-122387059D01*
X110134400Y-122425946D01*
X109829600Y-122425946D01*
X109660297Y-122387059D01*
X109280311Y-122590624D01*
X109007151Y-122924108D01*
X108925074Y-123122300D01*
X108075800Y-123122300D01*
X108075800Y-120904000D01*
X108855556Y-120904000D01*
X108941301Y-121335071D01*
X109185484Y-121700516D01*
X109550929Y-121944699D01*
X109873188Y-122008800D01*
X110090812Y-122008800D01*
X110413071Y-121944699D01*
X110778516Y-121700516D01*
X111022699Y-121335071D01*
X111108444Y-120904000D01*
X111022699Y-120472929D01*
X110778516Y-120107484D01*
X110413071Y-119863301D01*
X110090812Y-119799200D01*
X109873188Y-119799200D01*
X109550929Y-119863301D01*
X109185484Y-120107484D01*
X108941301Y-120472929D01*
X108855556Y-120904000D01*
X108075800Y-120904000D01*
X108075800Y-118364000D01*
X108855556Y-118364000D01*
X108941301Y-118795071D01*
X109185484Y-119160516D01*
X109550929Y-119404699D01*
X109873188Y-119468800D01*
X110090812Y-119468800D01*
X110413071Y-119404699D01*
X110778516Y-119160516D01*
X110940026Y-118918800D01*
X111058733Y-118918800D01*
X111113370Y-118929668D01*
X111168007Y-118918800D01*
X111168012Y-118918800D01*
X111329842Y-118886610D01*
X111513358Y-118763988D01*
X111544310Y-118717665D01*
X112613176Y-117648800D01*
X118485621Y-117648800D01*
X118336253Y-117798168D01*
X118251790Y-118002080D01*
X118251790Y-118222794D01*
X118330790Y-118413517D01*
X118330790Y-118644369D01*
X118321470Y-118691224D01*
X118330790Y-118738079D01*
X118330790Y-118738082D01*
X118358397Y-118876871D01*
X118463558Y-119034256D01*
X118503284Y-119060800D01*
X124313193Y-124870710D01*
X124327443Y-124892037D01*
X124303073Y-124896885D01*
X124202252Y-124964252D01*
X124134885Y-125065073D01*
X124111229Y-125184000D01*
X124111229Y-126784000D01*
X124134885Y-126902927D01*
X124202252Y-127003748D01*
X124303073Y-127071115D01*
X124422000Y-127094771D01*
X125916987Y-127094771D01*
X126002369Y-127222555D01*
X126042095Y-127249099D01*
X128890303Y-130097308D01*
X128916846Y-130137032D01*
X129074230Y-130242193D01*
X129213019Y-130269800D01*
X129213022Y-130269800D01*
X129259878Y-130279120D01*
X129306733Y-130269800D01*
X130231145Y-130269800D01*
X130278000Y-130279120D01*
X130324855Y-130269800D01*
X130324859Y-130269800D01*
X130463648Y-130242193D01*
X130621032Y-130137032D01*
X130647576Y-130097306D01*
X131819112Y-128925771D01*
X132957000Y-128925771D01*
X133075927Y-128902115D01*
X133176748Y-128834748D01*
X133244115Y-128733927D01*
X133267771Y-128615000D01*
X133267771Y-128554800D01*
X133692363Y-128554800D01*
X133747000Y-128565668D01*
X133801637Y-128554800D01*
X133801642Y-128554800D01*
X133963472Y-128522610D01*
X134146988Y-128399988D01*
X134177940Y-128353665D01*
X134490851Y-128040754D01*
X134522252Y-128087748D01*
X134623073Y-128155115D01*
X134742000Y-128178771D01*
X135392000Y-128178771D01*
X135510927Y-128155115D01*
X135540680Y-128135235D01*
X135631371Y-128172800D01*
X135788400Y-128172800D01*
X135864600Y-128096600D01*
X135864600Y-127490400D01*
X135844600Y-127490400D01*
X135844600Y-127185600D01*
X135864600Y-127185600D01*
X135864600Y-127165600D01*
X136169400Y-127165600D01*
X136169400Y-127185600D01*
X136189400Y-127185600D01*
X136189400Y-127490400D01*
X136169400Y-127490400D01*
X136169400Y-128096600D01*
X136245600Y-128172800D01*
X136402629Y-128172800D01*
X136493320Y-128135235D01*
X136523073Y-128155115D01*
X136642000Y-128178771D01*
X137292000Y-128178771D01*
X137410927Y-128155115D01*
X137511748Y-128087748D01*
X137579115Y-127986927D01*
X137602771Y-127868000D01*
X137602771Y-127813800D01*
X142818391Y-127813800D01*
X142845752Y-127854748D01*
X142946573Y-127922115D01*
X143065500Y-127945771D01*
X144208500Y-127945771D01*
X144327427Y-127922115D01*
X144428248Y-127854748D01*
X144495615Y-127753927D01*
X144519271Y-127635000D01*
X144519271Y-127127000D01*
X149104729Y-127127000D01*
X149104729Y-127635000D01*
X149128385Y-127753927D01*
X149195752Y-127854748D01*
X149296573Y-127922115D01*
X149415500Y-127945771D01*
X150558500Y-127945771D01*
X150677427Y-127922115D01*
X150778248Y-127854748D01*
X150845615Y-127753927D01*
X150869271Y-127635000D01*
X150869271Y-127127000D01*
X150845615Y-127008073D01*
X150778248Y-126907252D01*
X150677427Y-126839885D01*
X150558500Y-126816229D01*
X149415500Y-126816229D01*
X149296573Y-126839885D01*
X149195752Y-126907252D01*
X149128385Y-127008073D01*
X149104729Y-127127000D01*
X144519271Y-127127000D01*
X144495615Y-127008073D01*
X144428248Y-126907252D01*
X144327427Y-126839885D01*
X144208500Y-126816229D01*
X143065500Y-126816229D01*
X142946573Y-126839885D01*
X142913177Y-126862200D01*
X137602771Y-126862200D01*
X137602771Y-126808000D01*
X137579115Y-126689073D01*
X137511748Y-126588252D01*
X137410927Y-126520885D01*
X137302323Y-126499282D01*
X137320665Y-126480940D01*
X137366988Y-126449988D01*
X137489610Y-126266472D01*
X137521800Y-126104642D01*
X137521800Y-126104638D01*
X137532668Y-126050001D01*
X137521800Y-125995364D01*
X137521800Y-125872704D01*
X137532293Y-125857000D01*
X142754729Y-125857000D01*
X142754729Y-126365000D01*
X142778385Y-126483927D01*
X142845752Y-126584748D01*
X142946573Y-126652115D01*
X143065500Y-126675771D01*
X144208500Y-126675771D01*
X144327427Y-126652115D01*
X144428248Y-126584748D01*
X144495615Y-126483927D01*
X144519271Y-126365000D01*
X144519271Y-125857000D01*
X144495615Y-125738073D01*
X144428248Y-125637252D01*
X144327427Y-125569885D01*
X144208500Y-125546229D01*
X143065500Y-125546229D01*
X142946573Y-125569885D01*
X142845752Y-125637252D01*
X142778385Y-125738073D01*
X142754729Y-125857000D01*
X137532293Y-125857000D01*
X137579115Y-125786927D01*
X137602771Y-125668000D01*
X137602771Y-125044200D01*
X142760700Y-125044200D01*
X142760700Y-125155628D01*
X142807103Y-125267655D01*
X142892844Y-125353397D01*
X143004871Y-125399800D01*
X143408400Y-125399800D01*
X143484600Y-125323600D01*
X143484600Y-124968000D01*
X143789400Y-124968000D01*
X143789400Y-125323600D01*
X143865600Y-125399800D01*
X144269129Y-125399800D01*
X144381156Y-125353397D01*
X144466897Y-125267655D01*
X144513300Y-125155628D01*
X144513300Y-125044200D01*
X144437100Y-124968000D01*
X143789400Y-124968000D01*
X143484600Y-124968000D01*
X142836900Y-124968000D01*
X142760700Y-125044200D01*
X137602771Y-125044200D01*
X137602771Y-124608000D01*
X137586535Y-124526372D01*
X142760700Y-124526372D01*
X142760700Y-124637800D01*
X142836900Y-124714000D01*
X143484600Y-124714000D01*
X143484600Y-124358400D01*
X143789400Y-124358400D01*
X143789400Y-124714000D01*
X144437100Y-124714000D01*
X144513300Y-124637800D01*
X144513300Y-124587000D01*
X149104729Y-124587000D01*
X149104729Y-125095000D01*
X149128385Y-125213927D01*
X149195752Y-125314748D01*
X149296573Y-125382115D01*
X149415500Y-125405771D01*
X149511200Y-125405771D01*
X149511201Y-125546229D01*
X149415500Y-125546229D01*
X149296573Y-125569885D01*
X149195752Y-125637252D01*
X149128385Y-125738073D01*
X149104729Y-125857000D01*
X149104729Y-126365000D01*
X149128385Y-126483927D01*
X149195752Y-126584748D01*
X149296573Y-126652115D01*
X149415500Y-126675771D01*
X150558500Y-126675771D01*
X150677427Y-126652115D01*
X150775177Y-126586800D01*
X155401145Y-126586800D01*
X155448000Y-126596120D01*
X155494855Y-126586800D01*
X155494859Y-126586800D01*
X155633648Y-126559193D01*
X155791032Y-126454032D01*
X155808229Y-126428295D01*
X155808229Y-126480000D01*
X155831885Y-126598927D01*
X155899252Y-126699748D01*
X156000073Y-126767115D01*
X156119000Y-126790771D01*
X156179201Y-126790771D01*
X156179200Y-127209229D01*
X156119000Y-127209229D01*
X156000073Y-127232885D01*
X155899252Y-127300252D01*
X155831885Y-127401073D01*
X155808229Y-127520000D01*
X155808229Y-129020000D01*
X155831885Y-129138927D01*
X155899252Y-129239748D01*
X156000073Y-129307115D01*
X156119000Y-129330771D01*
X157264000Y-129330771D01*
X157382927Y-129307115D01*
X157483748Y-129239748D01*
X157551115Y-129138927D01*
X157574771Y-129020000D01*
X157574771Y-128498600D01*
X157899200Y-128498600D01*
X157899200Y-129080629D01*
X157945603Y-129192656D01*
X158031345Y-129278397D01*
X158143372Y-129324800D01*
X158547900Y-129324800D01*
X158624100Y-129248600D01*
X158624100Y-128422400D01*
X158928900Y-128422400D01*
X158928900Y-129248600D01*
X159005100Y-129324800D01*
X159409628Y-129324800D01*
X159521655Y-129278397D01*
X159607397Y-129192656D01*
X159653800Y-129080629D01*
X159653800Y-128498600D01*
X159577600Y-128422400D01*
X158928900Y-128422400D01*
X158624100Y-128422400D01*
X157975400Y-128422400D01*
X157899200Y-128498600D01*
X157574771Y-128498600D01*
X157574771Y-127520000D01*
X157562712Y-127459371D01*
X157899200Y-127459371D01*
X157899200Y-128041400D01*
X157975400Y-128117600D01*
X158624100Y-128117600D01*
X158624100Y-127291400D01*
X158928900Y-127291400D01*
X158928900Y-128117600D01*
X159577600Y-128117600D01*
X159653800Y-128041400D01*
X159653800Y-127459371D01*
X159607397Y-127347344D01*
X159521655Y-127261603D01*
X159409628Y-127215200D01*
X159005100Y-127215200D01*
X158928900Y-127291400D01*
X158624100Y-127291400D01*
X158547900Y-127215200D01*
X158143372Y-127215200D01*
X158031345Y-127261603D01*
X157945603Y-127347344D01*
X157899200Y-127459371D01*
X157562712Y-127459371D01*
X157551115Y-127401073D01*
X157483748Y-127300252D01*
X157382927Y-127232885D01*
X157288800Y-127214162D01*
X157288800Y-126785838D01*
X157382927Y-126767115D01*
X157483748Y-126699748D01*
X157551115Y-126598927D01*
X157574771Y-126480000D01*
X157574771Y-124980000D01*
X157893229Y-124980000D01*
X157893229Y-126480000D01*
X157916885Y-126598927D01*
X157984252Y-126699748D01*
X158085073Y-126767115D01*
X158204000Y-126790771D01*
X159349000Y-126790771D01*
X159467927Y-126767115D01*
X159568748Y-126699748D01*
X159636115Y-126598927D01*
X159659771Y-126480000D01*
X159659771Y-126048600D01*
X163271200Y-126048600D01*
X163271200Y-126480629D01*
X163317603Y-126592656D01*
X163403345Y-126678397D01*
X163515372Y-126724800D01*
X165447400Y-126724800D01*
X165523600Y-126648600D01*
X165523600Y-125972400D01*
X163347400Y-125972400D01*
X163271200Y-126048600D01*
X159659771Y-126048600D01*
X159659771Y-125159371D01*
X163271200Y-125159371D01*
X163271200Y-125591400D01*
X163347400Y-125667600D01*
X165523600Y-125667600D01*
X165523600Y-124991400D01*
X165447400Y-124915200D01*
X163515372Y-124915200D01*
X163403345Y-124961603D01*
X163317603Y-125047344D01*
X163271200Y-125159371D01*
X159659771Y-125159371D01*
X159659771Y-124980000D01*
X159636115Y-124861073D01*
X159568748Y-124760252D01*
X159467927Y-124692885D01*
X159349000Y-124669229D01*
X158204000Y-124669229D01*
X158085073Y-124692885D01*
X157984252Y-124760252D01*
X157916885Y-124861073D01*
X157893229Y-124980000D01*
X157574771Y-124980000D01*
X157551115Y-124861073D01*
X157483748Y-124760252D01*
X157382927Y-124692885D01*
X157264000Y-124669229D01*
X156119000Y-124669229D01*
X156000073Y-124692885D01*
X155899252Y-124760252D01*
X155831885Y-124861073D01*
X155808229Y-124980000D01*
X155808229Y-125249011D01*
X155782144Y-125254200D01*
X155782141Y-125254200D01*
X155643352Y-125281807D01*
X155534602Y-125354472D01*
X155485968Y-125386968D01*
X155459425Y-125426692D01*
X155250918Y-125635200D01*
X150775177Y-125635200D01*
X150677427Y-125569885D01*
X150558500Y-125546229D01*
X150462800Y-125546229D01*
X150462800Y-125405771D01*
X150558500Y-125405771D01*
X150677427Y-125382115D01*
X150778248Y-125314748D01*
X150845615Y-125213927D01*
X150869271Y-125095000D01*
X150869271Y-124587000D01*
X150845615Y-124468073D01*
X150778248Y-124367252D01*
X150677427Y-124299885D01*
X150558500Y-124276229D01*
X149415500Y-124276229D01*
X149296573Y-124299885D01*
X149195752Y-124367252D01*
X149128385Y-124468073D01*
X149104729Y-124587000D01*
X144513300Y-124587000D01*
X144513300Y-124526372D01*
X144466897Y-124414345D01*
X144381156Y-124328603D01*
X144269129Y-124282200D01*
X143865600Y-124282200D01*
X143789400Y-124358400D01*
X143484600Y-124358400D01*
X143408400Y-124282200D01*
X143004871Y-124282200D01*
X142892844Y-124328603D01*
X142807103Y-124414345D01*
X142760700Y-124526372D01*
X137586535Y-124526372D01*
X137579115Y-124489073D01*
X137511748Y-124388252D01*
X137410927Y-124320885D01*
X137292000Y-124297229D01*
X136642000Y-124297229D01*
X136523073Y-124320885D01*
X136422252Y-124388252D01*
X136354885Y-124489073D01*
X136331229Y-124608000D01*
X136331229Y-125668000D01*
X136334252Y-125683200D01*
X135699748Y-125683200D01*
X135702771Y-125668000D01*
X135702771Y-124608000D01*
X135679115Y-124489073D01*
X135621800Y-124403296D01*
X135621800Y-124326636D01*
X135632668Y-124271999D01*
X135621800Y-124217362D01*
X135621800Y-124217358D01*
X135589610Y-124055528D01*
X135528381Y-123963892D01*
X135497940Y-123918334D01*
X135497939Y-123918333D01*
X135466988Y-123872012D01*
X135420668Y-123841062D01*
X134791771Y-123212165D01*
X134791771Y-122136000D01*
X135464229Y-122136000D01*
X135464229Y-123281000D01*
X135487885Y-123399927D01*
X135555252Y-123500748D01*
X135656073Y-123568115D01*
X135775000Y-123591771D01*
X137275000Y-123591771D01*
X137393927Y-123568115D01*
X137494748Y-123500748D01*
X137520831Y-123461713D01*
X137933425Y-123874308D01*
X137959968Y-123914032D01*
X138117352Y-124019193D01*
X138256141Y-124046800D01*
X138256144Y-124046800D01*
X138302999Y-124056120D01*
X138349855Y-124046800D01*
X142848823Y-124046800D01*
X142946573Y-124112115D01*
X143065500Y-124135771D01*
X144208500Y-124135771D01*
X144327427Y-124112115D01*
X144428248Y-124044748D01*
X144495615Y-123943927D01*
X144519271Y-123825000D01*
X144519271Y-123317000D01*
X149104729Y-123317000D01*
X149104729Y-123825000D01*
X149128385Y-123943927D01*
X149195752Y-124044748D01*
X149296573Y-124112115D01*
X149415500Y-124135771D01*
X150558500Y-124135771D01*
X150677427Y-124112115D01*
X150775177Y-124046800D01*
X155829473Y-124046800D01*
X155831885Y-124058927D01*
X155899252Y-124159748D01*
X156000073Y-124227115D01*
X156119000Y-124250771D01*
X157264000Y-124250771D01*
X157382927Y-124227115D01*
X157483748Y-124159748D01*
X157551115Y-124058927D01*
X157574771Y-123940000D01*
X157574771Y-122440000D01*
X157551115Y-122321073D01*
X157483748Y-122220252D01*
X157382927Y-122152885D01*
X157264000Y-122129229D01*
X156119000Y-122129229D01*
X156000073Y-122152885D01*
X155899252Y-122220252D01*
X155831885Y-122321073D01*
X155808229Y-122440000D01*
X155808229Y-123095200D01*
X150775177Y-123095200D01*
X150677427Y-123029885D01*
X150558500Y-123006229D01*
X149415500Y-123006229D01*
X149296573Y-123029885D01*
X149195752Y-123097252D01*
X149128385Y-123198073D01*
X149104729Y-123317000D01*
X144519271Y-123317000D01*
X144495615Y-123198073D01*
X144428248Y-123097252D01*
X144327427Y-123029885D01*
X144208500Y-123006229D01*
X143065500Y-123006229D01*
X142946573Y-123029885D01*
X142848823Y-123095200D01*
X138500083Y-123095200D01*
X137767576Y-122362694D01*
X137741032Y-122322968D01*
X137585771Y-122219226D01*
X137585771Y-122136000D01*
X137562115Y-122017073D01*
X137494748Y-121916252D01*
X137393927Y-121848885D01*
X137275000Y-121825229D01*
X135775000Y-121825229D01*
X135656073Y-121848885D01*
X135555252Y-121916252D01*
X135487885Y-122017073D01*
X135464229Y-122136000D01*
X134791771Y-122136000D01*
X134768115Y-122017073D01*
X134700748Y-121916252D01*
X134599927Y-121848885D01*
X134481000Y-121825229D01*
X133454834Y-121825229D01*
X133130405Y-121500800D01*
X133502400Y-121500800D01*
X133578600Y-121424600D01*
X133578600Y-120775900D01*
X133883400Y-120775900D01*
X133883400Y-121424600D01*
X133959600Y-121500800D01*
X134541629Y-121500800D01*
X134653656Y-121454397D01*
X134739397Y-121368655D01*
X134785800Y-121256628D01*
X134785800Y-120852100D01*
X135470200Y-120852100D01*
X135470200Y-121256628D01*
X135516603Y-121368655D01*
X135602344Y-121454397D01*
X135714371Y-121500800D01*
X136296400Y-121500800D01*
X136372600Y-121424600D01*
X136372600Y-120775900D01*
X136677400Y-120775900D01*
X136677400Y-121424600D01*
X136753600Y-121500800D01*
X137335629Y-121500800D01*
X137447656Y-121454397D01*
X137533397Y-121368655D01*
X137579800Y-121256628D01*
X137579800Y-120878600D01*
X155814200Y-120878600D01*
X155814200Y-121460629D01*
X155860603Y-121572656D01*
X155946345Y-121658397D01*
X156058372Y-121704800D01*
X156462900Y-121704800D01*
X156539100Y-121628600D01*
X156539100Y-120802400D01*
X156843900Y-120802400D01*
X156843900Y-121628600D01*
X156920100Y-121704800D01*
X157324628Y-121704800D01*
X157436655Y-121658397D01*
X157522397Y-121572656D01*
X157568800Y-121460629D01*
X157568800Y-120878600D01*
X157492600Y-120802400D01*
X156843900Y-120802400D01*
X156539100Y-120802400D01*
X155890400Y-120802400D01*
X155814200Y-120878600D01*
X137579800Y-120878600D01*
X137579800Y-120852100D01*
X137503600Y-120775900D01*
X136677400Y-120775900D01*
X136372600Y-120775900D01*
X135546400Y-120775900D01*
X135470200Y-120852100D01*
X134785800Y-120852100D01*
X134709600Y-120775900D01*
X133883400Y-120775900D01*
X133578600Y-120775900D01*
X132752400Y-120775900D01*
X132676200Y-120852100D01*
X132676200Y-121046595D01*
X132634800Y-121005195D01*
X132634800Y-119990372D01*
X132676200Y-119990372D01*
X132676200Y-120394900D01*
X132752400Y-120471100D01*
X133578600Y-120471100D01*
X133578600Y-119822400D01*
X133883400Y-119822400D01*
X133883400Y-120471100D01*
X134709600Y-120471100D01*
X134785800Y-120394900D01*
X134785800Y-119990372D01*
X135470200Y-119990372D01*
X135470200Y-120394900D01*
X135546400Y-120471100D01*
X136372600Y-120471100D01*
X136372600Y-119822400D01*
X136677400Y-119822400D01*
X136677400Y-120471100D01*
X137503600Y-120471100D01*
X137579800Y-120394900D01*
X137579800Y-119990372D01*
X137533397Y-119878345D01*
X137494424Y-119839371D01*
X155814200Y-119839371D01*
X155814200Y-120421400D01*
X155890400Y-120497600D01*
X156539100Y-120497600D01*
X156539100Y-119671400D01*
X156843900Y-119671400D01*
X156843900Y-120497600D01*
X157492600Y-120497600D01*
X157568800Y-120421400D01*
X157568800Y-119839371D01*
X157522397Y-119727344D01*
X157436655Y-119641603D01*
X157324628Y-119595200D01*
X156920100Y-119595200D01*
X156843900Y-119671400D01*
X156539100Y-119671400D01*
X156462900Y-119595200D01*
X156058372Y-119595200D01*
X155946345Y-119641603D01*
X155860603Y-119727344D01*
X155814200Y-119839371D01*
X137494424Y-119839371D01*
X137447656Y-119792603D01*
X137335629Y-119746200D01*
X136753600Y-119746200D01*
X136677400Y-119822400D01*
X136372600Y-119822400D01*
X136296400Y-119746200D01*
X135714371Y-119746200D01*
X135602344Y-119792603D01*
X135516603Y-119878345D01*
X135470200Y-119990372D01*
X134785800Y-119990372D01*
X134739397Y-119878345D01*
X134653656Y-119792603D01*
X134541629Y-119746200D01*
X133959600Y-119746200D01*
X133883400Y-119822400D01*
X133578600Y-119822400D01*
X133502400Y-119746200D01*
X132920371Y-119746200D01*
X132808344Y-119792603D01*
X132722603Y-119878345D01*
X132676200Y-119990372D01*
X132634800Y-119990372D01*
X132634800Y-117148642D01*
X132645669Y-117094000D01*
X132634800Y-117039358D01*
X132634800Y-112678805D01*
X136444664Y-108868941D01*
X136490988Y-108837988D01*
X136613610Y-108654472D01*
X136645800Y-108492642D01*
X136645800Y-108492638D01*
X136656668Y-108438000D01*
X136645800Y-108383362D01*
X136645800Y-108248771D01*
X136663500Y-108248771D01*
X136782427Y-108225115D01*
X136883248Y-108157748D01*
X136950615Y-108056927D01*
X136974271Y-107938000D01*
X136974271Y-107416600D01*
X137298700Y-107416600D01*
X137298700Y-107998629D01*
X137345103Y-108110656D01*
X137430845Y-108196397D01*
X137542872Y-108242800D01*
X137947400Y-108242800D01*
X138023600Y-108166600D01*
X138023600Y-107340400D01*
X138328400Y-107340400D01*
X138328400Y-108166600D01*
X138404600Y-108242800D01*
X138809128Y-108242800D01*
X138921155Y-108196397D01*
X139006897Y-108110656D01*
X139053300Y-107998629D01*
X139053300Y-107416600D01*
X138977100Y-107340400D01*
X138328400Y-107340400D01*
X138023600Y-107340400D01*
X137374900Y-107340400D01*
X137298700Y-107416600D01*
X136974271Y-107416600D01*
X136974271Y-106438000D01*
X136962212Y-106377371D01*
X137298700Y-106377371D01*
X137298700Y-106959400D01*
X137374900Y-107035600D01*
X138023600Y-107035600D01*
X138023600Y-106209400D01*
X138328400Y-106209400D01*
X138328400Y-107035600D01*
X138977100Y-107035600D01*
X139053300Y-106959400D01*
X139053300Y-106377371D01*
X139006897Y-106265344D01*
X138921155Y-106179603D01*
X138809128Y-106133200D01*
X138404600Y-106133200D01*
X138328400Y-106209400D01*
X138023600Y-106209400D01*
X137947400Y-106133200D01*
X137542872Y-106133200D01*
X137430845Y-106179603D01*
X137345103Y-106265344D01*
X137298700Y-106377371D01*
X136962212Y-106377371D01*
X136950615Y-106319073D01*
X136883248Y-106218252D01*
X136782427Y-106150885D01*
X136776800Y-106149766D01*
X136776800Y-105299643D01*
X138383200Y-105299643D01*
X138383200Y-105520357D01*
X138467663Y-105724269D01*
X138623731Y-105880337D01*
X138827643Y-105964800D01*
X139048357Y-105964800D01*
X139239080Y-105885800D01*
X141431145Y-105885800D01*
X141478000Y-105895120D01*
X141524855Y-105885800D01*
X141524859Y-105885800D01*
X141663648Y-105858193D01*
X141821032Y-105753032D01*
X141847576Y-105713306D01*
X143971200Y-103589682D01*
X143971200Y-103742357D01*
X144055663Y-103946269D01*
X144211731Y-104102337D01*
X144390358Y-104176326D01*
X144389229Y-104182000D01*
X144389229Y-105082000D01*
X144412885Y-105200927D01*
X144480252Y-105301748D01*
X144581073Y-105369115D01*
X144700000Y-105392771D01*
X145137889Y-105392771D01*
X146474425Y-106729308D01*
X146500968Y-106769032D01*
X146658352Y-106874193D01*
X146797141Y-106901800D01*
X146797145Y-106901800D01*
X146843999Y-106911120D01*
X146890853Y-106901800D01*
X149025918Y-106901800D01*
X150657925Y-108533808D01*
X150684468Y-108573532D01*
X150841852Y-108678693D01*
X150980641Y-108706300D01*
X150980644Y-108706300D01*
X151027499Y-108715620D01*
X151058729Y-108709408D01*
X151058729Y-108803000D01*
X151082385Y-108921927D01*
X151149752Y-109022748D01*
X151250573Y-109090115D01*
X151369500Y-109113771D01*
X152869500Y-109113771D01*
X152988427Y-109090115D01*
X153089248Y-109022748D01*
X153156615Y-108921927D01*
X153180271Y-108803000D01*
X153180271Y-107658000D01*
X153156615Y-107539073D01*
X153089248Y-107438252D01*
X152988427Y-107370885D01*
X152869500Y-107347229D01*
X151369500Y-107347229D01*
X151250573Y-107370885D01*
X151149752Y-107438252D01*
X151082385Y-107539073D01*
X151070202Y-107600320D01*
X149592576Y-106122694D01*
X149566032Y-106082968D01*
X149408648Y-105977807D01*
X149269859Y-105950200D01*
X149269855Y-105950200D01*
X149223000Y-105940880D01*
X149176145Y-105950200D01*
X147041083Y-105950200D01*
X146417558Y-105326675D01*
X146481073Y-105369115D01*
X146600000Y-105392771D01*
X147400000Y-105392771D01*
X147518927Y-105369115D01*
X147619748Y-105301748D01*
X147687115Y-105200927D01*
X147710771Y-105082000D01*
X147710771Y-104445964D01*
X149404337Y-102752400D01*
X151621105Y-102752400D01*
X151667073Y-102783115D01*
X151786000Y-102806771D01*
X153186000Y-102806771D01*
X153304927Y-102783115D01*
X153305875Y-102782481D01*
X153355731Y-102832337D01*
X153559643Y-102916800D01*
X153771601Y-102916800D01*
X153771601Y-102955662D01*
X151860435Y-104866830D01*
X151826503Y-104889503D01*
X151736680Y-105023932D01*
X151713100Y-105142478D01*
X151713100Y-105142482D01*
X151705140Y-105182500D01*
X151713100Y-105222518D01*
X151713100Y-105262229D01*
X151369500Y-105262229D01*
X151250573Y-105285885D01*
X151149752Y-105353252D01*
X151082385Y-105454073D01*
X151058729Y-105573000D01*
X151058729Y-106718000D01*
X151082385Y-106836927D01*
X151149752Y-106937748D01*
X151250573Y-107005115D01*
X151369500Y-107028771D01*
X152869500Y-107028771D01*
X152988427Y-107005115D01*
X153089248Y-106937748D01*
X153156615Y-106836927D01*
X153180271Y-106718000D01*
X153180271Y-105573000D01*
X153156615Y-105454073D01*
X153089248Y-105353252D01*
X152988427Y-105285885D01*
X152869500Y-105262229D01*
X152614506Y-105262229D01*
X154437071Y-103439666D01*
X154470997Y-103416997D01*
X154493666Y-103383071D01*
X154493669Y-103383068D01*
X154560820Y-103282570D01*
X154566141Y-103255816D01*
X154584400Y-103164023D01*
X154584400Y-103164020D01*
X154592360Y-103124000D01*
X154584400Y-103083981D01*
X154584400Y-102220817D01*
X154604438Y-102120078D01*
X154572897Y-101961508D01*
X154505746Y-101861010D01*
X154505745Y-101861009D01*
X154483075Y-101827081D01*
X154449147Y-101804411D01*
X154231669Y-101586934D01*
X154208997Y-101553003D01*
X154074569Y-101463180D01*
X153956023Y-101439600D01*
X153956018Y-101439600D01*
X153916000Y-101431640D01*
X153875982Y-101439600D01*
X153870335Y-101439600D01*
X154999068Y-100310868D01*
X155032997Y-100288197D01*
X155077847Y-100221075D01*
X155122820Y-100153770D01*
X155133980Y-100097663D01*
X155146400Y-100035223D01*
X155146400Y-100035220D01*
X155154360Y-99995200D01*
X155146400Y-99955181D01*
X155146400Y-97244000D01*
X155911229Y-97244000D01*
X155911229Y-98389000D01*
X155934885Y-98507927D01*
X156002252Y-98608748D01*
X156103073Y-98676115D01*
X156222000Y-98699771D01*
X157722000Y-98699771D01*
X157840927Y-98676115D01*
X157941748Y-98608748D01*
X158009115Y-98507927D01*
X158032771Y-98389000D01*
X158032771Y-97638372D01*
X158938700Y-97638372D01*
X158938700Y-98042900D01*
X159014900Y-98119100D01*
X159841100Y-98119100D01*
X159841100Y-97470400D01*
X160145900Y-97470400D01*
X160145900Y-98119100D01*
X160972100Y-98119100D01*
X161048300Y-98042900D01*
X161048300Y-97638372D01*
X161001897Y-97526345D01*
X160916156Y-97440603D01*
X160804129Y-97394200D01*
X160222100Y-97394200D01*
X160145900Y-97470400D01*
X159841100Y-97470400D01*
X159764900Y-97394200D01*
X159182871Y-97394200D01*
X159070844Y-97440603D01*
X158985103Y-97526345D01*
X158938700Y-97638372D01*
X158032771Y-97638372D01*
X158032771Y-97244000D01*
X158009115Y-97125073D01*
X157941748Y-97024252D01*
X157840927Y-96956885D01*
X157722000Y-96933229D01*
X156222000Y-96933229D01*
X156103073Y-96956885D01*
X156002252Y-97024252D01*
X155934885Y-97125073D01*
X155911229Y-97244000D01*
X155146400Y-97244000D01*
X155146400Y-96912600D01*
X163271200Y-96912600D01*
X163271200Y-97344629D01*
X163317603Y-97456656D01*
X163403345Y-97542397D01*
X163515372Y-97588800D01*
X165447400Y-97588800D01*
X165523600Y-97512600D01*
X165523600Y-96836400D01*
X163347400Y-96836400D01*
X163271200Y-96912600D01*
X155146400Y-96912600D01*
X155146400Y-95159000D01*
X155911229Y-95159000D01*
X155911229Y-96304000D01*
X155934885Y-96422927D01*
X156002252Y-96523748D01*
X156103073Y-96591115D01*
X156222000Y-96614771D01*
X157722000Y-96614771D01*
X157840927Y-96591115D01*
X157941748Y-96523748D01*
X158009115Y-96422927D01*
X158032771Y-96304000D01*
X158032771Y-96023371D01*
X163271200Y-96023371D01*
X163271200Y-96455400D01*
X163347400Y-96531600D01*
X165523600Y-96531600D01*
X165523600Y-95855400D01*
X165447400Y-95779200D01*
X163515372Y-95779200D01*
X163403345Y-95825603D01*
X163317603Y-95911344D01*
X163271200Y-96023371D01*
X158032771Y-96023371D01*
X158032771Y-95159000D01*
X158009115Y-95040073D01*
X157941748Y-94939252D01*
X157840927Y-94871885D01*
X157722000Y-94848229D01*
X156222000Y-94848229D01*
X156103073Y-94871885D01*
X156002252Y-94939252D01*
X155934885Y-95040073D01*
X155911229Y-95159000D01*
X155146400Y-95159000D01*
X155146400Y-90127371D01*
X155337496Y-90048216D01*
X155634216Y-89751496D01*
X155794800Y-89363813D01*
X155794800Y-88944187D01*
X155634216Y-88556504D01*
X155337496Y-88259784D01*
X154949813Y-88099200D01*
X154530187Y-88099200D01*
X154142504Y-88259784D01*
X153845784Y-88556504D01*
X153685200Y-88944187D01*
X153685200Y-89363813D01*
X153845784Y-89751496D01*
X154142504Y-90048216D01*
X154333600Y-90127371D01*
X154333601Y-99826863D01*
X153491411Y-100669054D01*
X153476880Y-100596000D01*
X153496771Y-100496000D01*
X153496771Y-100196000D01*
X153473115Y-100077073D01*
X153405748Y-99976252D01*
X153304927Y-99908885D01*
X153186000Y-99885229D01*
X152892400Y-99885229D01*
X152892400Y-98807517D01*
X152900360Y-98767499D01*
X152892400Y-98727481D01*
X152892400Y-98727477D01*
X152868820Y-98608931D01*
X152778997Y-98474503D01*
X152745068Y-98451832D01*
X152418271Y-98125035D01*
X152418271Y-97244000D01*
X152394615Y-97125073D01*
X152327248Y-97024252D01*
X152226427Y-96956885D01*
X152107500Y-96933229D01*
X150607500Y-96933229D01*
X150488573Y-96956885D01*
X150387752Y-97024252D01*
X150320385Y-97125073D01*
X150296729Y-97244000D01*
X150296729Y-98389000D01*
X150320385Y-98507927D01*
X150387752Y-98608748D01*
X150488573Y-98676115D01*
X150607500Y-98699771D01*
X151843535Y-98699771D01*
X152079601Y-98935837D01*
X152079600Y-99885229D01*
X151786000Y-99885229D01*
X151667073Y-99908885D01*
X151566252Y-99976252D01*
X151498885Y-100077073D01*
X151480589Y-100169053D01*
X150266400Y-98954865D01*
X150266400Y-95960100D01*
X150302700Y-95960100D01*
X150302700Y-96364628D01*
X150349103Y-96476655D01*
X150434844Y-96562397D01*
X150546871Y-96608800D01*
X151128900Y-96608800D01*
X151205100Y-96532600D01*
X151205100Y-95883900D01*
X151509900Y-95883900D01*
X151509900Y-96532600D01*
X151586100Y-96608800D01*
X152168129Y-96608800D01*
X152280156Y-96562397D01*
X152365897Y-96476655D01*
X152412300Y-96364628D01*
X152412300Y-95960100D01*
X152336100Y-95883900D01*
X151509900Y-95883900D01*
X151205100Y-95883900D01*
X150378900Y-95883900D01*
X150302700Y-95960100D01*
X150266400Y-95960100D01*
X150266400Y-95098372D01*
X150302700Y-95098372D01*
X150302700Y-95502900D01*
X150378900Y-95579100D01*
X151205100Y-95579100D01*
X151205100Y-94930400D01*
X151509900Y-94930400D01*
X151509900Y-95579100D01*
X152336100Y-95579100D01*
X152412300Y-95502900D01*
X152412300Y-95098372D01*
X152365897Y-94986345D01*
X152280156Y-94900603D01*
X152168129Y-94854200D01*
X151586100Y-94854200D01*
X151509900Y-94930400D01*
X151205100Y-94930400D01*
X151128900Y-94854200D01*
X150546871Y-94854200D01*
X150434844Y-94900603D01*
X150349103Y-94986345D01*
X150302700Y-95098372D01*
X150266400Y-95098372D01*
X150266400Y-90127371D01*
X150457496Y-90048216D01*
X150754216Y-89751496D01*
X150914800Y-89363813D01*
X150914800Y-88944187D01*
X150754216Y-88556504D01*
X150457496Y-88259784D01*
X150069813Y-88099200D01*
X149650187Y-88099200D01*
X149262504Y-88259784D01*
X148965784Y-88556504D01*
X148805200Y-88944187D01*
X148805200Y-89363813D01*
X148965784Y-89751496D01*
X149262504Y-90048216D01*
X149453600Y-90127371D01*
X149453600Y-90254682D01*
X149453601Y-90254687D01*
X149453600Y-99083182D01*
X149445640Y-99123200D01*
X149453600Y-99163218D01*
X149453600Y-99163222D01*
X149477180Y-99281768D01*
X149567003Y-99416197D01*
X149600935Y-99438870D01*
X151267132Y-101105068D01*
X151289803Y-101138997D01*
X151424231Y-101228820D01*
X151475229Y-101238964D01*
X151475229Y-101439600D01*
X151036336Y-101439600D01*
X150922800Y-101326064D01*
X150922800Y-101235643D01*
X150838337Y-101031731D01*
X150682269Y-100875663D01*
X150478357Y-100791200D01*
X150257643Y-100791200D01*
X150053731Y-100875663D01*
X149897663Y-101031731D01*
X149813200Y-101235643D01*
X149813200Y-101456357D01*
X149897663Y-101660269D01*
X150053731Y-101816337D01*
X150257643Y-101900800D01*
X150348064Y-101900800D01*
X150386864Y-101939600D01*
X149276019Y-101939600D01*
X149236000Y-101931640D01*
X149195980Y-101939600D01*
X149195977Y-101939600D01*
X149104184Y-101957859D01*
X149077430Y-101963180D01*
X148976932Y-102030331D01*
X148976929Y-102030334D01*
X148943003Y-102053003D01*
X148920334Y-102086929D01*
X147136036Y-103871229D01*
X146600000Y-103871229D01*
X146481073Y-103894885D01*
X146380252Y-103962252D01*
X146312885Y-104063073D01*
X146289229Y-104182000D01*
X146289229Y-105082000D01*
X146312885Y-105200927D01*
X146355325Y-105264443D01*
X145810771Y-104719889D01*
X145810771Y-104182000D01*
X145787115Y-104063073D01*
X145719748Y-103962252D01*
X145618927Y-103894885D01*
X145500000Y-103871229D01*
X145448552Y-103871229D01*
X145443032Y-103862968D01*
X145403308Y-103836425D01*
X145075337Y-103508455D01*
X144996337Y-103317731D01*
X144840269Y-103161663D01*
X144671605Y-103091800D01*
X145180704Y-103091800D01*
X145261141Y-103107800D01*
X145261145Y-103107800D01*
X145307999Y-103117120D01*
X145344760Y-103109808D01*
X145362885Y-103200927D01*
X145430252Y-103301748D01*
X145531073Y-103369115D01*
X145650000Y-103392771D01*
X146450000Y-103392771D01*
X146568927Y-103369115D01*
X146669748Y-103301748D01*
X146737115Y-103200927D01*
X146755240Y-103109808D01*
X146792000Y-103117120D01*
X146838855Y-103107800D01*
X146838859Y-103107800D01*
X146977648Y-103080193D01*
X147135032Y-102975032D01*
X147161576Y-102935306D01*
X149147308Y-100949575D01*
X149187032Y-100923032D01*
X149240463Y-100843068D01*
X149292193Y-100765648D01*
X149293245Y-100760361D01*
X149319800Y-100626859D01*
X149319800Y-100626856D01*
X149329120Y-100580001D01*
X149319800Y-100533145D01*
X149319800Y-97025355D01*
X149329120Y-96978500D01*
X149319800Y-96931642D01*
X149319800Y-96931641D01*
X149292193Y-96792852D01*
X149187032Y-96635468D01*
X149147309Y-96608926D01*
X148019576Y-95481194D01*
X147993032Y-95441468D01*
X147835648Y-95336307D01*
X147696859Y-95308700D01*
X147696855Y-95308700D01*
X147650000Y-95299380D01*
X147618771Y-95305592D01*
X147618771Y-95212000D01*
X147595115Y-95093073D01*
X147527748Y-94992252D01*
X147426927Y-94924885D01*
X147308000Y-94901229D01*
X145808000Y-94901229D01*
X145689073Y-94924885D01*
X145588252Y-94992252D01*
X145520885Y-95093073D01*
X145497229Y-95212000D01*
X145497229Y-96357000D01*
X145520885Y-96475927D01*
X145588252Y-96576748D01*
X145689073Y-96644115D01*
X145808000Y-96667771D01*
X147308000Y-96667771D01*
X147426927Y-96644115D01*
X147527748Y-96576748D01*
X147595115Y-96475927D01*
X147607298Y-96414680D01*
X148368200Y-97175583D01*
X148368201Y-100382916D01*
X146717460Y-102033658D01*
X146669748Y-101962252D01*
X146568927Y-101894885D01*
X146450000Y-101871229D01*
X145650000Y-101871229D01*
X145531073Y-101894885D01*
X145430252Y-101962252D01*
X145362885Y-102063073D01*
X145347213Y-102141862D01*
X145338859Y-102140200D01*
X145338855Y-102140200D01*
X145292000Y-102130880D01*
X145245145Y-102140200D01*
X144318855Y-102140200D01*
X144272000Y-102130880D01*
X144225144Y-102140200D01*
X144225141Y-102140200D01*
X144086352Y-102167807D01*
X143928968Y-102272968D01*
X143902424Y-102312694D01*
X141280918Y-104934200D01*
X139239080Y-104934200D01*
X139048357Y-104855200D01*
X138827643Y-104855200D01*
X138623731Y-104939663D01*
X138467663Y-105095731D01*
X138383200Y-105299643D01*
X136776800Y-105299643D01*
X136776800Y-105018527D01*
X136873748Y-104953748D01*
X136941115Y-104852927D01*
X136964771Y-104734000D01*
X136964771Y-104419800D01*
X138488088Y-104419800D01*
X138594504Y-104526216D01*
X138982187Y-104686800D01*
X139401813Y-104686800D01*
X139789496Y-104526216D01*
X140086216Y-104229496D01*
X140246800Y-103841813D01*
X140246800Y-103422187D01*
X140086216Y-103034504D01*
X139789496Y-102737784D01*
X139746800Y-102720099D01*
X139746800Y-101575805D01*
X140109335Y-101213271D01*
X140958000Y-101213271D01*
X141076927Y-101189615D01*
X141177748Y-101122248D01*
X141245115Y-101021427D01*
X141268771Y-100902500D01*
X141268771Y-100119611D01*
X141270382Y-100118000D01*
X145339229Y-100118000D01*
X145339229Y-101018000D01*
X145362885Y-101136927D01*
X145430252Y-101237748D01*
X145531073Y-101305115D01*
X145650000Y-101328771D01*
X146450000Y-101328771D01*
X146568927Y-101305115D01*
X146669748Y-101237748D01*
X146737115Y-101136927D01*
X146760771Y-101018000D01*
X146760771Y-100118000D01*
X146737115Y-99999073D01*
X146669748Y-99898252D01*
X146568927Y-99830885D01*
X146450000Y-99807229D01*
X145650000Y-99807229D01*
X145531073Y-99830885D01*
X145430252Y-99898252D01*
X145362885Y-99999073D01*
X145339229Y-100118000D01*
X141270382Y-100118000D01*
X142708521Y-98679861D01*
X142785733Y-98866269D01*
X142941801Y-99022337D01*
X143145713Y-99106800D01*
X143366427Y-99106800D01*
X143570339Y-99022337D01*
X143618276Y-98974400D01*
X144389229Y-98974400D01*
X144389229Y-99018000D01*
X144412885Y-99136927D01*
X144480252Y-99237748D01*
X144581073Y-99305115D01*
X144700000Y-99328771D01*
X145500000Y-99328771D01*
X145618927Y-99305115D01*
X145719748Y-99237748D01*
X145787115Y-99136927D01*
X145810771Y-99018000D01*
X145810771Y-98118000D01*
X146289229Y-98118000D01*
X146289229Y-99018000D01*
X146312885Y-99136927D01*
X146380252Y-99237748D01*
X146481073Y-99305115D01*
X146600000Y-99328771D01*
X147400000Y-99328771D01*
X147518927Y-99305115D01*
X147619748Y-99237748D01*
X147687115Y-99136927D01*
X147710771Y-99018000D01*
X147710771Y-98118000D01*
X147687115Y-97999073D01*
X147619748Y-97898252D01*
X147518927Y-97830885D01*
X147400000Y-97807229D01*
X146600000Y-97807229D01*
X146481073Y-97830885D01*
X146380252Y-97898252D01*
X146312885Y-97999073D01*
X146289229Y-98118000D01*
X145810771Y-98118000D01*
X145787115Y-97999073D01*
X145719748Y-97898252D01*
X145618927Y-97830885D01*
X145500000Y-97807229D01*
X144700000Y-97807229D01*
X144581073Y-97830885D01*
X144480252Y-97898252D01*
X144412885Y-97999073D01*
X144389229Y-98118000D01*
X144389229Y-98161600D01*
X143650276Y-98161600D01*
X143570339Y-98081663D01*
X143380721Y-98003121D01*
X143450193Y-97899148D01*
X143477800Y-97760359D01*
X143477800Y-97760356D01*
X143487120Y-97713500D01*
X143477800Y-97666645D01*
X143477800Y-96360582D01*
X145508702Y-94329681D01*
X145520885Y-94390927D01*
X145588252Y-94491748D01*
X145689073Y-94559115D01*
X145808000Y-94582771D01*
X147308000Y-94582771D01*
X147426927Y-94559115D01*
X147527748Y-94491748D01*
X147595115Y-94390927D01*
X147618771Y-94272000D01*
X147618771Y-93127000D01*
X147595115Y-93008073D01*
X147527748Y-92907252D01*
X147426927Y-92839885D01*
X147308000Y-92816229D01*
X145808000Y-92816229D01*
X145689073Y-92839885D01*
X145588252Y-92907252D01*
X145520885Y-93008073D01*
X145497229Y-93127000D01*
X145497229Y-93220592D01*
X145465999Y-93214380D01*
X145419144Y-93223700D01*
X145419141Y-93223700D01*
X145280352Y-93251307D01*
X145122968Y-93356468D01*
X145096425Y-93396192D01*
X142698694Y-95793924D01*
X142658968Y-95820468D01*
X142553807Y-95977853D01*
X142526200Y-96116642D01*
X142526200Y-96116645D01*
X142516880Y-96163500D01*
X142526200Y-96210356D01*
X142526201Y-97516417D01*
X141268771Y-98773847D01*
X141268771Y-97672500D01*
X141245115Y-97553573D01*
X141177748Y-97452752D01*
X141076927Y-97385385D01*
X140958000Y-97361729D01*
X139458000Y-97361729D01*
X139339073Y-97385385D01*
X139238252Y-97452752D01*
X139170885Y-97553573D01*
X139147229Y-97672500D01*
X139147229Y-98817500D01*
X139170885Y-98936427D01*
X139238252Y-99037248D01*
X139339073Y-99104615D01*
X139458000Y-99128271D01*
X140914347Y-99128271D01*
X140595889Y-99446729D01*
X139458000Y-99446729D01*
X139339073Y-99470385D01*
X139238252Y-99537752D01*
X139170885Y-99638573D01*
X139147229Y-99757500D01*
X139147229Y-100606166D01*
X138838333Y-100915062D01*
X138792013Y-100946012D01*
X138761062Y-100992333D01*
X138761060Y-100992335D01*
X138669391Y-101129528D01*
X138626332Y-101346000D01*
X138637201Y-101400642D01*
X138637200Y-102720099D01*
X138594504Y-102737784D01*
X138297784Y-103034504D01*
X138292111Y-103048200D01*
X136964771Y-103048200D01*
X136964771Y-102734000D01*
X136941115Y-102615073D01*
X136873748Y-102514252D01*
X136772927Y-102446885D01*
X136654000Y-102423229D01*
X135154000Y-102423229D01*
X135035073Y-102446885D01*
X134934252Y-102514252D01*
X134866885Y-102615073D01*
X134843229Y-102734000D01*
X134843229Y-104734000D01*
X134866885Y-104852927D01*
X134934252Y-104953748D01*
X135035073Y-105021115D01*
X135154000Y-105044771D01*
X135405201Y-105044771D01*
X135405200Y-106149766D01*
X135399573Y-106150885D01*
X135298752Y-106218252D01*
X135231385Y-106319073D01*
X135207729Y-106438000D01*
X135207729Y-107938000D01*
X135231385Y-108056927D01*
X135298752Y-108157748D01*
X135399573Y-108225115D01*
X135499419Y-108244976D01*
X131726336Y-112018059D01*
X131680012Y-112049012D01*
X131557390Y-112232529D01*
X131525200Y-112394359D01*
X131525200Y-112394363D01*
X131514332Y-112449000D01*
X131525200Y-112503637D01*
X131525201Y-116539200D01*
X126072850Y-116539200D01*
X126262699Y-116255071D01*
X126348444Y-115824000D01*
X126262699Y-115392929D01*
X126018516Y-115027484D01*
X125653071Y-114783301D01*
X125330812Y-114719200D01*
X125113188Y-114719200D01*
X124790929Y-114783301D01*
X124425484Y-115027484D01*
X124181301Y-115392929D01*
X124095556Y-115824000D01*
X124181301Y-116255071D01*
X124371150Y-116539200D01*
X112438006Y-116539200D01*
X112383369Y-116528332D01*
X112328732Y-116539200D01*
X112328728Y-116539200D01*
X112166898Y-116571390D01*
X112166896Y-116571391D01*
X112166897Y-116571391D01*
X112029704Y-116663060D01*
X112029703Y-116663061D01*
X111983382Y-116694012D01*
X111952431Y-116740333D01*
X110917411Y-117775354D01*
X110778516Y-117567484D01*
X110413071Y-117323301D01*
X110090812Y-117259200D01*
X109873188Y-117259200D01*
X109550929Y-117323301D01*
X109185484Y-117567484D01*
X108941301Y-117932929D01*
X108855556Y-118364000D01*
X108075800Y-118364000D01*
X108075800Y-115824000D01*
X108855556Y-115824000D01*
X108941301Y-116255071D01*
X109185484Y-116620516D01*
X109550929Y-116864699D01*
X109873188Y-116928800D01*
X110090812Y-116928800D01*
X110413071Y-116864699D01*
X110778516Y-116620516D01*
X111022699Y-116255071D01*
X111108444Y-115824000D01*
X111022699Y-115392929D01*
X110778516Y-115027484D01*
X110413071Y-114783301D01*
X110090812Y-114719200D01*
X109873188Y-114719200D01*
X109550929Y-114783301D01*
X109185484Y-115027484D01*
X108941301Y-115392929D01*
X108855556Y-115824000D01*
X108075800Y-115824000D01*
X108075800Y-113284000D01*
X108855556Y-113284000D01*
X108941301Y-113715071D01*
X109185484Y-114080516D01*
X109550929Y-114324699D01*
X109873188Y-114388800D01*
X110090812Y-114388800D01*
X110413071Y-114324699D01*
X110778516Y-114080516D01*
X111022699Y-113715071D01*
X111108444Y-113284000D01*
X124095556Y-113284000D01*
X124181301Y-113715071D01*
X124425484Y-114080516D01*
X124790929Y-114324699D01*
X125113188Y-114388800D01*
X125330812Y-114388800D01*
X125653071Y-114324699D01*
X126018516Y-114080516D01*
X126262699Y-113715071D01*
X126348444Y-113284000D01*
X126262699Y-112852929D01*
X126018516Y-112487484D01*
X125653071Y-112243301D01*
X125330812Y-112179200D01*
X125113188Y-112179200D01*
X124790929Y-112243301D01*
X124425484Y-112487484D01*
X124181301Y-112852929D01*
X124095556Y-113284000D01*
X111108444Y-113284000D01*
X111022699Y-112852929D01*
X110778516Y-112487484D01*
X110413071Y-112243301D01*
X110090812Y-112179200D01*
X109873188Y-112179200D01*
X109550929Y-112243301D01*
X109185484Y-112487484D01*
X108941301Y-112852929D01*
X108855556Y-113284000D01*
X108075800Y-113284000D01*
X108075800Y-110744000D01*
X108855556Y-110744000D01*
X108941301Y-111175071D01*
X109185484Y-111540516D01*
X109550929Y-111784699D01*
X109873188Y-111848800D01*
X110090812Y-111848800D01*
X110413071Y-111784699D01*
X110778516Y-111540516D01*
X111022699Y-111175071D01*
X111027606Y-111150400D01*
X116545982Y-111150400D01*
X116586000Y-111158360D01*
X116626018Y-111150400D01*
X116626023Y-111150400D01*
X116744569Y-111126820D01*
X116878997Y-111036997D01*
X116901670Y-111003065D01*
X117160735Y-110744000D01*
X124095556Y-110744000D01*
X124181301Y-111175071D01*
X124425484Y-111540516D01*
X124790929Y-111784699D01*
X125113188Y-111848800D01*
X125330812Y-111848800D01*
X125653071Y-111784699D01*
X126018516Y-111540516D01*
X126262699Y-111175071D01*
X126348444Y-110744000D01*
X126262699Y-110312929D01*
X126018516Y-109947484D01*
X125653071Y-109703301D01*
X125330812Y-109639200D01*
X125113188Y-109639200D01*
X124790929Y-109703301D01*
X124425484Y-109947484D01*
X124181301Y-110312929D01*
X124095556Y-110744000D01*
X117160735Y-110744000D01*
X118383936Y-109520800D01*
X118474357Y-109520800D01*
X118678269Y-109436337D01*
X118834337Y-109280269D01*
X118918800Y-109076357D01*
X118918800Y-108855643D01*
X118834337Y-108651731D01*
X118678269Y-108495663D01*
X118474357Y-108411200D01*
X118253643Y-108411200D01*
X118049731Y-108495663D01*
X117893663Y-108651731D01*
X117809200Y-108855643D01*
X117809200Y-108946064D01*
X116417665Y-110337600D01*
X111027606Y-110337600D01*
X111022699Y-110312929D01*
X110778516Y-109947484D01*
X110413071Y-109703301D01*
X110090812Y-109639200D01*
X109873188Y-109639200D01*
X109550929Y-109703301D01*
X109185484Y-109947484D01*
X108941301Y-110312929D01*
X108855556Y-110744000D01*
X108075800Y-110744000D01*
X108075800Y-108204000D01*
X108855556Y-108204000D01*
X108941301Y-108635071D01*
X109185484Y-109000516D01*
X109550929Y-109244699D01*
X109873188Y-109308800D01*
X110090812Y-109308800D01*
X110413071Y-109244699D01*
X110778516Y-109000516D01*
X110992812Y-108679800D01*
X111066515Y-108679800D01*
X111113370Y-108689120D01*
X111160225Y-108679800D01*
X111160229Y-108679800D01*
X111299018Y-108652193D01*
X111456402Y-108547032D01*
X111482946Y-108507306D01*
X112433854Y-107556399D01*
X124325982Y-107556399D01*
X124181301Y-107772929D01*
X124095556Y-108204000D01*
X124181301Y-108635071D01*
X124425484Y-109000516D01*
X124790929Y-109244699D01*
X125113188Y-109308800D01*
X125330812Y-109308800D01*
X125653071Y-109244699D01*
X126018516Y-109000516D01*
X126262699Y-108635071D01*
X126348444Y-108204000D01*
X126262699Y-107772929D01*
X126118018Y-107556399D01*
X127861519Y-107556399D01*
X128052242Y-107635399D01*
X128272956Y-107635399D01*
X128476868Y-107550936D01*
X128611204Y-107416600D01*
X130387700Y-107416600D01*
X130387700Y-107998629D01*
X130434103Y-108110656D01*
X130519845Y-108196397D01*
X130631872Y-108242800D01*
X131036400Y-108242800D01*
X131112600Y-108166600D01*
X131112600Y-107340400D01*
X131417400Y-107340400D01*
X131417400Y-108166600D01*
X131493600Y-108242800D01*
X131898128Y-108242800D01*
X132010155Y-108196397D01*
X132095897Y-108110656D01*
X132142300Y-107998629D01*
X132142300Y-107416600D01*
X132066100Y-107340400D01*
X131417400Y-107340400D01*
X131112600Y-107340400D01*
X130463900Y-107340400D01*
X130387700Y-107416600D01*
X128611204Y-107416600D01*
X128632936Y-107394868D01*
X128717399Y-107190956D01*
X128717399Y-106970242D01*
X128632936Y-106766330D01*
X128476868Y-106610262D01*
X128272956Y-106525799D01*
X128052242Y-106525799D01*
X127861519Y-106604799D01*
X125802582Y-106604799D01*
X126018516Y-106460516D01*
X126074071Y-106377371D01*
X130387700Y-106377371D01*
X130387700Y-106959400D01*
X130463900Y-107035600D01*
X131112600Y-107035600D01*
X131112600Y-106209400D01*
X131417400Y-106209400D01*
X131417400Y-107035600D01*
X132066100Y-107035600D01*
X132142300Y-106959400D01*
X132142300Y-106377371D01*
X132095897Y-106265344D01*
X132010155Y-106179603D01*
X131898128Y-106133200D01*
X131493600Y-106133200D01*
X131417400Y-106209400D01*
X131112600Y-106209400D01*
X131036400Y-106133200D01*
X130631872Y-106133200D01*
X130519845Y-106179603D01*
X130434103Y-106265344D01*
X130387700Y-106377371D01*
X126074071Y-106377371D01*
X126262699Y-106095071D01*
X126348444Y-105664000D01*
X126262699Y-105232929D01*
X126018516Y-104867484D01*
X125653071Y-104623301D01*
X125330812Y-104559200D01*
X125113188Y-104559200D01*
X124790929Y-104623301D01*
X124425484Y-104867484D01*
X124181301Y-105232929D01*
X124095556Y-105664000D01*
X124181301Y-106095071D01*
X124425484Y-106460516D01*
X124641418Y-106604799D01*
X112283626Y-106604799D01*
X112236771Y-106595479D01*
X112189915Y-106604799D01*
X112189912Y-106604799D01*
X112051123Y-106632406D01*
X111893739Y-106737567D01*
X111867196Y-106777291D01*
X110962161Y-107682327D01*
X110778516Y-107407484D01*
X110413071Y-107163301D01*
X110090812Y-107099200D01*
X109873188Y-107099200D01*
X109550929Y-107163301D01*
X109185484Y-107407484D01*
X108941301Y-107772929D01*
X108855556Y-108204000D01*
X108075800Y-108204000D01*
X108075800Y-105664000D01*
X108855556Y-105664000D01*
X108941301Y-106095071D01*
X109185484Y-106460516D01*
X109550929Y-106704699D01*
X109873188Y-106768800D01*
X110090812Y-106768800D01*
X110413071Y-106704699D01*
X110778516Y-106460516D01*
X111022699Y-106095071D01*
X111108444Y-105664000D01*
X111022699Y-105232929D01*
X110778516Y-104867484D01*
X110413071Y-104623301D01*
X110090812Y-104559200D01*
X109873188Y-104559200D01*
X109550929Y-104623301D01*
X109185484Y-104867484D01*
X108941301Y-105232929D01*
X108855556Y-105664000D01*
X108075800Y-105664000D01*
X108075800Y-104438084D01*
X127679442Y-104438084D01*
X127767531Y-104582868D01*
X128169661Y-104702774D01*
X128587066Y-104659664D01*
X128772469Y-104582868D01*
X128860558Y-104438084D01*
X128270000Y-103847526D01*
X127679442Y-104438084D01*
X108075800Y-104438084D01*
X108075800Y-103124000D01*
X108855556Y-103124000D01*
X108941301Y-103555071D01*
X109185484Y-103920516D01*
X109550929Y-104164699D01*
X109873188Y-104228800D01*
X110090812Y-104228800D01*
X110413071Y-104164699D01*
X110778516Y-103920516D01*
X111022699Y-103555071D01*
X111108444Y-103124000D01*
X124095556Y-103124000D01*
X124181301Y-103555071D01*
X124425484Y-103920516D01*
X124790929Y-104164699D01*
X125113188Y-104228800D01*
X125330812Y-104228800D01*
X125653071Y-104164699D01*
X126018516Y-103920516D01*
X126262699Y-103555071D01*
X126267355Y-103531661D01*
X127199226Y-103531661D01*
X127242336Y-103949066D01*
X127319132Y-104134469D01*
X127463916Y-104222558D01*
X128054474Y-103632000D01*
X128485526Y-103632000D01*
X129076084Y-104222558D01*
X129220868Y-104134469D01*
X129272115Y-103962600D01*
X130249200Y-103962600D01*
X130249200Y-104794628D01*
X130295603Y-104906655D01*
X130381344Y-104992397D01*
X130493371Y-105038800D01*
X131075400Y-105038800D01*
X131151600Y-104962600D01*
X131151600Y-103886400D01*
X131456400Y-103886400D01*
X131456400Y-104962600D01*
X131532600Y-105038800D01*
X132114629Y-105038800D01*
X132226656Y-104992397D01*
X132312397Y-104906655D01*
X132358800Y-104794628D01*
X132358800Y-103962600D01*
X132282600Y-103886400D01*
X131456400Y-103886400D01*
X131151600Y-103886400D01*
X130325400Y-103886400D01*
X130249200Y-103962600D01*
X129272115Y-103962600D01*
X129340774Y-103732339D01*
X129297664Y-103314934D01*
X129220868Y-103129531D01*
X129076084Y-103041442D01*
X128485526Y-103632000D01*
X128054474Y-103632000D01*
X127463916Y-103041442D01*
X127319132Y-103129531D01*
X127199226Y-103531661D01*
X126267355Y-103531661D01*
X126348444Y-103124000D01*
X126289152Y-102825916D01*
X127679442Y-102825916D01*
X128270000Y-103416474D01*
X128860558Y-102825916D01*
X128772469Y-102681132D01*
X128746445Y-102673372D01*
X130249200Y-102673372D01*
X130249200Y-103505400D01*
X130325400Y-103581600D01*
X131151600Y-103581600D01*
X131151600Y-102505400D01*
X131456400Y-102505400D01*
X131456400Y-103581600D01*
X132282600Y-103581600D01*
X132358800Y-103505400D01*
X132358800Y-102673372D01*
X132312397Y-102561345D01*
X132226656Y-102475603D01*
X132114629Y-102429200D01*
X131532600Y-102429200D01*
X131456400Y-102505400D01*
X131151600Y-102505400D01*
X131075400Y-102429200D01*
X130493371Y-102429200D01*
X130381344Y-102475603D01*
X130295603Y-102561345D01*
X130249200Y-102673372D01*
X128746445Y-102673372D01*
X128370339Y-102561226D01*
X127952934Y-102604336D01*
X127767531Y-102681132D01*
X127679442Y-102825916D01*
X126289152Y-102825916D01*
X126262699Y-102692929D01*
X126018516Y-102327484D01*
X125653071Y-102083301D01*
X125330812Y-102019200D01*
X125113188Y-102019200D01*
X124790929Y-102083301D01*
X124425484Y-102327484D01*
X124181301Y-102692929D01*
X124095556Y-103124000D01*
X111108444Y-103124000D01*
X111022699Y-102692929D01*
X110778516Y-102327484D01*
X110413071Y-102083301D01*
X110090812Y-102019200D01*
X109873188Y-102019200D01*
X109550929Y-102083301D01*
X109185484Y-102327484D01*
X108941301Y-102692929D01*
X108855556Y-103124000D01*
X108075800Y-103124000D01*
X108075800Y-100584000D01*
X108855556Y-100584000D01*
X108941301Y-101015071D01*
X109185484Y-101380516D01*
X109550929Y-101624699D01*
X109873188Y-101688800D01*
X110090812Y-101688800D01*
X110413071Y-101624699D01*
X110778516Y-101380516D01*
X111022699Y-101015071D01*
X111108444Y-100584000D01*
X124095556Y-100584000D01*
X124181301Y-101015071D01*
X124425484Y-101380516D01*
X124790929Y-101624699D01*
X125113188Y-101688800D01*
X125330812Y-101688800D01*
X125653071Y-101624699D01*
X126018516Y-101380516D01*
X126262699Y-101015071D01*
X126348444Y-100584000D01*
X126262699Y-100152929D01*
X126018516Y-99787484D01*
X125653071Y-99543301D01*
X125330812Y-99479200D01*
X125113188Y-99479200D01*
X124790929Y-99543301D01*
X124425484Y-99787484D01*
X124181301Y-100152929D01*
X124095556Y-100584000D01*
X111108444Y-100584000D01*
X111022699Y-100152929D01*
X110778516Y-99787484D01*
X110413071Y-99543301D01*
X110090812Y-99479200D01*
X109873188Y-99479200D01*
X109550929Y-99543301D01*
X109185484Y-99787484D01*
X108941301Y-100152929D01*
X108855556Y-100584000D01*
X108075800Y-100584000D01*
X108075800Y-98044000D01*
X108855556Y-98044000D01*
X108941301Y-98475071D01*
X109185484Y-98840516D01*
X109550929Y-99084699D01*
X109873188Y-99148800D01*
X110090812Y-99148800D01*
X110413071Y-99084699D01*
X110778516Y-98840516D01*
X111022699Y-98475071D01*
X111108444Y-98044000D01*
X124095556Y-98044000D01*
X124181301Y-98475071D01*
X124425484Y-98840516D01*
X124790929Y-99084699D01*
X125113188Y-99148800D01*
X125330812Y-99148800D01*
X125653071Y-99084699D01*
X126018516Y-98840516D01*
X126262699Y-98475071D01*
X126348444Y-98044000D01*
X126262699Y-97612929D01*
X126018516Y-97247484D01*
X125653071Y-97003301D01*
X125330812Y-96939200D01*
X125113188Y-96939200D01*
X124790929Y-97003301D01*
X124425484Y-97247484D01*
X124181301Y-97612929D01*
X124095556Y-98044000D01*
X111108444Y-98044000D01*
X111022699Y-97612929D01*
X110778516Y-97247484D01*
X110413071Y-97003301D01*
X110090812Y-96939200D01*
X109873188Y-96939200D01*
X109550929Y-97003301D01*
X109185484Y-97247484D01*
X108941301Y-97612929D01*
X108855556Y-98044000D01*
X108075800Y-98044000D01*
X108075800Y-95504000D01*
X108855556Y-95504000D01*
X108941301Y-95935071D01*
X109185484Y-96300516D01*
X109550929Y-96544699D01*
X109873188Y-96608800D01*
X110090812Y-96608800D01*
X110413071Y-96544699D01*
X110778516Y-96300516D01*
X111022699Y-95935071D01*
X111108444Y-95504000D01*
X124095556Y-95504000D01*
X124181301Y-95935071D01*
X124425484Y-96300516D01*
X124790929Y-96544699D01*
X125113188Y-96608800D01*
X125330812Y-96608800D01*
X125653071Y-96544699D01*
X125818743Y-96434000D01*
X131393229Y-96434000D01*
X131393229Y-98434000D01*
X131416885Y-98552927D01*
X131484252Y-98653748D01*
X131585073Y-98721115D01*
X131704000Y-98744771D01*
X132918201Y-98744771D01*
X132918200Y-102423229D01*
X132854000Y-102423229D01*
X132735073Y-102446885D01*
X132634252Y-102514252D01*
X132566885Y-102615073D01*
X132543229Y-102734000D01*
X132543229Y-104734000D01*
X132566885Y-104852927D01*
X132634252Y-104953748D01*
X132664201Y-104973759D01*
X132664200Y-106149766D01*
X132658573Y-106150885D01*
X132557752Y-106218252D01*
X132490385Y-106319073D01*
X132466729Y-106438000D01*
X132466729Y-107938000D01*
X132490385Y-108056927D01*
X132557752Y-108157748D01*
X132658573Y-108225115D01*
X132777500Y-108248771D01*
X133922500Y-108248771D01*
X134041427Y-108225115D01*
X134142248Y-108157748D01*
X134209615Y-108056927D01*
X134233271Y-107938000D01*
X134233271Y-106438000D01*
X134209615Y-106319073D01*
X134142248Y-106218252D01*
X134041427Y-106150885D01*
X134035800Y-106149766D01*
X134035800Y-105044771D01*
X134354000Y-105044771D01*
X134472927Y-105021115D01*
X134573748Y-104953748D01*
X134641115Y-104852927D01*
X134664771Y-104734000D01*
X134664771Y-102734000D01*
X134641115Y-102615073D01*
X134573748Y-102514252D01*
X134472927Y-102446885D01*
X134354000Y-102423229D01*
X134289800Y-102423229D01*
X134289800Y-98744771D01*
X135504000Y-98744771D01*
X135622927Y-98721115D01*
X135723748Y-98653748D01*
X135791115Y-98552927D01*
X135814771Y-98434000D01*
X135814771Y-96434000D01*
X135791115Y-96315073D01*
X135723748Y-96214252D01*
X135622927Y-96146885D01*
X135504000Y-96123229D01*
X134289800Y-96123229D01*
X134289800Y-95293912D01*
X134498216Y-95085496D01*
X134658800Y-94697813D01*
X134658800Y-94278187D01*
X134498216Y-93890504D01*
X134201496Y-93593784D01*
X133813813Y-93433200D01*
X133394187Y-93433200D01*
X133006504Y-93593784D01*
X132709784Y-93890504D01*
X132549200Y-94278187D01*
X132549200Y-94697813D01*
X132709784Y-95085496D01*
X132918201Y-95293913D01*
X132918200Y-96123229D01*
X131704000Y-96123229D01*
X131585073Y-96146885D01*
X131484252Y-96214252D01*
X131416885Y-96315073D01*
X131393229Y-96434000D01*
X125818743Y-96434000D01*
X126018516Y-96300516D01*
X126262699Y-95935071D01*
X126348444Y-95504000D01*
X126262699Y-95072929D01*
X126018516Y-94707484D01*
X125653071Y-94463301D01*
X125330812Y-94399200D01*
X125113188Y-94399200D01*
X124790929Y-94463301D01*
X124425484Y-94707484D01*
X124181301Y-95072929D01*
X124095556Y-95504000D01*
X111108444Y-95504000D01*
X111022699Y-95072929D01*
X110778516Y-94707484D01*
X110413071Y-94463301D01*
X110090812Y-94399200D01*
X109873188Y-94399200D01*
X109550929Y-94463301D01*
X109185484Y-94707484D01*
X108941301Y-95072929D01*
X108855556Y-95504000D01*
X108075800Y-95504000D01*
X108075800Y-92964000D01*
X108855556Y-92964000D01*
X108941301Y-93395071D01*
X109185484Y-93760516D01*
X109550929Y-94004699D01*
X109873188Y-94068800D01*
X110090812Y-94068800D01*
X110413071Y-94004699D01*
X110778516Y-93760516D01*
X111022699Y-93395071D01*
X111108444Y-92964000D01*
X124095556Y-92964000D01*
X124181301Y-93395071D01*
X124425484Y-93760516D01*
X124790929Y-94004699D01*
X125113188Y-94068800D01*
X125330812Y-94068800D01*
X125653071Y-94004699D01*
X126018516Y-93760516D01*
X126262699Y-93395071D01*
X126348444Y-92964000D01*
X126262699Y-92532929D01*
X126018516Y-92167484D01*
X125653071Y-91923301D01*
X125330812Y-91859200D01*
X125113188Y-91859200D01*
X124790929Y-91923301D01*
X124425484Y-92167484D01*
X124181301Y-92532929D01*
X124095556Y-92964000D01*
X111108444Y-92964000D01*
X111022699Y-92532929D01*
X110778516Y-92167484D01*
X110413071Y-91923301D01*
X110090812Y-91859200D01*
X109873188Y-91859200D01*
X109550929Y-91923301D01*
X109185484Y-92167484D01*
X108941301Y-92532929D01*
X108855556Y-92964000D01*
X108075800Y-92964000D01*
X108075800Y-90424000D01*
X108855556Y-90424000D01*
X108941301Y-90855071D01*
X109185484Y-91220516D01*
X109550929Y-91464699D01*
X109873188Y-91528800D01*
X110090812Y-91528800D01*
X110413071Y-91464699D01*
X110778516Y-91220516D01*
X111022699Y-90855071D01*
X111108444Y-90424000D01*
X124095556Y-90424000D01*
X124181301Y-90855071D01*
X124425484Y-91220516D01*
X124790929Y-91464699D01*
X125113188Y-91528800D01*
X125330812Y-91528800D01*
X125653071Y-91464699D01*
X126018516Y-91220516D01*
X126262699Y-90855071D01*
X126348444Y-90424000D01*
X126262699Y-89992929D01*
X126018516Y-89627484D01*
X125653071Y-89383301D01*
X125330812Y-89319200D01*
X125113188Y-89319200D01*
X124790929Y-89383301D01*
X124425484Y-89627484D01*
X124181301Y-89992929D01*
X124095556Y-90424000D01*
X111108444Y-90424000D01*
X111022699Y-89992929D01*
X110778516Y-89627484D01*
X110413071Y-89383301D01*
X110090812Y-89319200D01*
X109873188Y-89319200D01*
X109550929Y-89383301D01*
X109185484Y-89627484D01*
X108941301Y-89992929D01*
X108855556Y-90424000D01*
X108075800Y-90424000D01*
X108075800Y-86263318D01*
X108107318Y-86231800D01*
X167482682Y-86231800D01*
X167514200Y-86263318D01*
X167514200Y-86263318D01*
G37*
X167514200Y-86263318D02*
X167514200Y-95779200D01*
X165904600Y-95779200D01*
X165828400Y-95855400D01*
X165828400Y-96531600D01*
X165848400Y-96531600D01*
X165848400Y-96836400D01*
X165828400Y-96836400D01*
X165828400Y-97512600D01*
X165904600Y-97588800D01*
X167514200Y-97588800D01*
X167514200Y-98303229D01*
X163576000Y-98303229D01*
X163457073Y-98326885D01*
X163356252Y-98394252D01*
X163288885Y-98495073D01*
X163265229Y-98614000D01*
X163265229Y-98838200D01*
X161048300Y-98838200D01*
X161048300Y-98500100D01*
X160972100Y-98423900D01*
X160145900Y-98423900D01*
X160145900Y-98443900D01*
X159841100Y-98443900D01*
X159841100Y-98423900D01*
X159014900Y-98423900D01*
X158938700Y-98500100D01*
X158938700Y-98838200D01*
X157375355Y-98838200D01*
X157328500Y-98828880D01*
X157281644Y-98838200D01*
X157281641Y-98838200D01*
X157142852Y-98865807D01*
X156985468Y-98970968D01*
X156958924Y-99010694D01*
X156487692Y-99481926D01*
X156447969Y-99508468D01*
X156421427Y-99548191D01*
X156421425Y-99548193D01*
X156342807Y-99665853D01*
X156305880Y-99851500D01*
X156312589Y-99885229D01*
X156186000Y-99885229D01*
X156067073Y-99908885D01*
X155966252Y-99976252D01*
X155898885Y-100077073D01*
X155875229Y-100196000D01*
X155875229Y-100496000D01*
X155895120Y-100596000D01*
X155875229Y-100696000D01*
X155875229Y-100996000D01*
X155895895Y-101099894D01*
X155881200Y-101135371D01*
X155881200Y-101194800D01*
X155957400Y-101271000D01*
X156048942Y-101271000D01*
X156067073Y-101283115D01*
X156186000Y-101306771D01*
X157586000Y-101306771D01*
X157704927Y-101283115D01*
X157723058Y-101271000D01*
X157814600Y-101271000D01*
X157833200Y-101252400D01*
X157939982Y-101252400D01*
X157980000Y-101260360D01*
X158020018Y-101252400D01*
X158020023Y-101252400D01*
X158138569Y-101228820D01*
X158272997Y-101138997D01*
X158273129Y-101138800D01*
X158352357Y-101138800D01*
X158556269Y-101054337D01*
X158712337Y-100898269D01*
X158796800Y-100694357D01*
X158796800Y-100473643D01*
X158712337Y-100269731D01*
X158556269Y-100113663D01*
X158352357Y-100029200D01*
X158131643Y-100029200D01*
X157927731Y-100113663D01*
X157888247Y-100153147D01*
X157873115Y-100077073D01*
X157805748Y-99976252D01*
X157704927Y-99908885D01*
X157586000Y-99885229D01*
X157430153Y-99885229D01*
X157525582Y-99789800D01*
X158932729Y-99789800D01*
X158932729Y-100929000D01*
X158956385Y-101047927D01*
X159023752Y-101148748D01*
X159124573Y-101216115D01*
X159243500Y-101239771D01*
X159551493Y-101239771D01*
X159351665Y-101439600D01*
X157833200Y-101439600D01*
X157814600Y-101421000D01*
X157723058Y-101421000D01*
X157704927Y-101408885D01*
X157586000Y-101385229D01*
X156186000Y-101385229D01*
X156067073Y-101408885D01*
X156048942Y-101421000D01*
X155957400Y-101421000D01*
X155938800Y-101439600D01*
X155907977Y-101439600D01*
X155789431Y-101463180D01*
X155655003Y-101553003D01*
X155565180Y-101687431D01*
X155533639Y-101846000D01*
X155565180Y-102004569D01*
X155655003Y-102138997D01*
X155789431Y-102228820D01*
X155875229Y-102245886D01*
X155875229Y-102496000D01*
X155898885Y-102614927D01*
X155966252Y-102715748D01*
X156067073Y-102783115D01*
X156186000Y-102806771D01*
X156315200Y-102806771D01*
X156315201Y-106960140D01*
X156305880Y-107007000D01*
X156342807Y-107192647D01*
X156421425Y-107310307D01*
X156421427Y-107310309D01*
X156447969Y-107350032D01*
X156474308Y-107367631D01*
X156425200Y-107486187D01*
X156425200Y-107905813D01*
X156585784Y-108293496D01*
X156882504Y-108590216D01*
X157270187Y-108750800D01*
X157689813Y-108750800D01*
X158077496Y-108590216D01*
X158374216Y-108293496D01*
X158534800Y-107905813D01*
X158534800Y-107486187D01*
X159473200Y-107486187D01*
X159473200Y-107905813D01*
X159633784Y-108293496D01*
X159930504Y-108590216D01*
X160318187Y-108750800D01*
X160737813Y-108750800D01*
X161125496Y-108590216D01*
X161422216Y-108293496D01*
X161582800Y-107905813D01*
X161582800Y-107486187D01*
X161422216Y-107098504D01*
X161125496Y-106801784D01*
X160737813Y-106641200D01*
X160318187Y-106641200D01*
X159930504Y-106801784D01*
X159633784Y-107098504D01*
X159473200Y-107486187D01*
X158534800Y-107486187D01*
X158374216Y-107098504D01*
X158077496Y-106801784D01*
X157689813Y-106641200D01*
X157270187Y-106641200D01*
X157266800Y-106642603D01*
X157266800Y-102806771D01*
X157586000Y-102806771D01*
X157704927Y-102783115D01*
X157805748Y-102715748D01*
X157873115Y-102614927D01*
X157896771Y-102496000D01*
X157896771Y-102252400D01*
X159479982Y-102252400D01*
X159520000Y-102260360D01*
X159560018Y-102252400D01*
X159560023Y-102252400D01*
X159678569Y-102228820D01*
X159762707Y-102172600D01*
X163271200Y-102172600D01*
X163271200Y-102604629D01*
X163317603Y-102716656D01*
X163403345Y-102802397D01*
X163515372Y-102848800D01*
X165447400Y-102848800D01*
X165523600Y-102772600D01*
X165523600Y-102096400D01*
X163347400Y-102096400D01*
X163271200Y-102172600D01*
X159762707Y-102172600D01*
X159812997Y-102138997D01*
X159835670Y-102105066D01*
X160252568Y-101688167D01*
X160286497Y-101665497D01*
X160376320Y-101531069D01*
X160399900Y-101412523D01*
X160399900Y-101412519D01*
X160407860Y-101372501D01*
X160399900Y-101332483D01*
X160399900Y-101283371D01*
X163271200Y-101283371D01*
X163271200Y-101715400D01*
X163347400Y-101791600D01*
X165523600Y-101791600D01*
X165523600Y-101115400D01*
X165447400Y-101039200D01*
X163515372Y-101039200D01*
X163403345Y-101085603D01*
X163317603Y-101171344D01*
X163271200Y-101283371D01*
X160399900Y-101283371D01*
X160399900Y-101239771D01*
X160743500Y-101239771D01*
X160862427Y-101216115D01*
X160963248Y-101148748D01*
X161030615Y-101047927D01*
X161054271Y-100929000D01*
X161054271Y-99789800D01*
X163265229Y-99789800D01*
X163265229Y-100014000D01*
X163288885Y-100132927D01*
X163356252Y-100233748D01*
X163457073Y-100301115D01*
X163576000Y-100324771D01*
X167514200Y-100324771D01*
X167514200Y-101039200D01*
X165904600Y-101039200D01*
X165828400Y-101115400D01*
X165828400Y-101791600D01*
X165848400Y-101791600D01*
X165848400Y-102096400D01*
X165828400Y-102096400D01*
X165828400Y-102772600D01*
X165904600Y-102848800D01*
X167514200Y-102848800D01*
X167514201Y-119655200D01*
X165904600Y-119655200D01*
X165828400Y-119731400D01*
X165828400Y-120407600D01*
X165848400Y-120407600D01*
X165848400Y-120712400D01*
X165828400Y-120712400D01*
X165828400Y-121388600D01*
X165904600Y-121464800D01*
X167514201Y-121464800D01*
X167514201Y-122179229D01*
X163576000Y-122179229D01*
X163457073Y-122202885D01*
X163356252Y-122270252D01*
X163288885Y-122371073D01*
X163265229Y-122490000D01*
X163265229Y-122714200D01*
X159659771Y-122714200D01*
X159659771Y-122440000D01*
X159636115Y-122321073D01*
X159568748Y-122220252D01*
X159467927Y-122152885D01*
X159349000Y-122129229D01*
X159209800Y-122129229D01*
X159209800Y-121710771D01*
X159349000Y-121710771D01*
X159467927Y-121687115D01*
X159568748Y-121619748D01*
X159636115Y-121518927D01*
X159659771Y-121400000D01*
X159659771Y-120788600D01*
X163271200Y-120788600D01*
X163271200Y-121220629D01*
X163317603Y-121332656D01*
X163403345Y-121418397D01*
X163515372Y-121464800D01*
X165447400Y-121464800D01*
X165523600Y-121388600D01*
X165523600Y-120712400D01*
X163347400Y-120712400D01*
X163271200Y-120788600D01*
X159659771Y-120788600D01*
X159659771Y-119900000D01*
X159659646Y-119899371D01*
X163271200Y-119899371D01*
X163271200Y-120331400D01*
X163347400Y-120407600D01*
X165523600Y-120407600D01*
X165523600Y-119731400D01*
X165447400Y-119655200D01*
X163515372Y-119655200D01*
X163403345Y-119701603D01*
X163317603Y-119787344D01*
X163271200Y-119899371D01*
X159659646Y-119899371D01*
X159636115Y-119781073D01*
X159568748Y-119680252D01*
X159467927Y-119612885D01*
X159349000Y-119589229D01*
X158204000Y-119589229D01*
X158085073Y-119612885D01*
X157984252Y-119680252D01*
X157916885Y-119781073D01*
X157893229Y-119900000D01*
X157893229Y-121400000D01*
X157916885Y-121518927D01*
X157984252Y-121619748D01*
X158085073Y-121687115D01*
X158204000Y-121710771D01*
X158258200Y-121710771D01*
X158258201Y-122129229D01*
X158204000Y-122129229D01*
X158085073Y-122152885D01*
X157984252Y-122220252D01*
X157916885Y-122321073D01*
X157893229Y-122440000D01*
X157893229Y-123940000D01*
X157916885Y-124058927D01*
X157984252Y-124159748D01*
X158085073Y-124227115D01*
X158204000Y-124250771D01*
X159349000Y-124250771D01*
X159467927Y-124227115D01*
X159568748Y-124159748D01*
X159636115Y-124058927D01*
X159659771Y-123940000D01*
X159659771Y-123665800D01*
X163265229Y-123665800D01*
X163265229Y-123890000D01*
X163288885Y-124008927D01*
X163356252Y-124109748D01*
X163457073Y-124177115D01*
X163576000Y-124200771D01*
X167514201Y-124200771D01*
X167514201Y-124915200D01*
X165904600Y-124915200D01*
X165828400Y-124991400D01*
X165828400Y-125667600D01*
X165848400Y-125667600D01*
X165848400Y-125972400D01*
X165828400Y-125972400D01*
X165828400Y-126648600D01*
X165904600Y-126724800D01*
X167514201Y-126724800D01*
X167514201Y-136240681D01*
X167482682Y-136272200D01*
X108107318Y-136272200D01*
X108075800Y-136240682D01*
X108075800Y-133108000D01*
X108818229Y-133108000D01*
X108818229Y-134608000D01*
X108841885Y-134726927D01*
X108909252Y-134827748D01*
X109010073Y-134895115D01*
X109129000Y-134918771D01*
X110274000Y-134918771D01*
X110392927Y-134895115D01*
X110493748Y-134827748D01*
X110561115Y-134726927D01*
X110584771Y-134608000D01*
X110584771Y-133108000D01*
X110903229Y-133108000D01*
X110903229Y-134608000D01*
X110926885Y-134726927D01*
X110994252Y-134827748D01*
X111095073Y-134895115D01*
X111214000Y-134918771D01*
X112359000Y-134918771D01*
X112477927Y-134895115D01*
X112578748Y-134827748D01*
X112646115Y-134726927D01*
X112669771Y-134608000D01*
X112669771Y-134333800D01*
X113372229Y-134333800D01*
X113372229Y-134608000D01*
X113395885Y-134726927D01*
X113463252Y-134827748D01*
X113564073Y-134895115D01*
X113683000Y-134918771D01*
X114653000Y-134918771D01*
X114771927Y-134895115D01*
X114872748Y-134827748D01*
X114940115Y-134726927D01*
X114963771Y-134608000D01*
X114963771Y-134086600D01*
X115288200Y-134086600D01*
X115288200Y-134668629D01*
X115334603Y-134780656D01*
X115420345Y-134866397D01*
X115532372Y-134912800D01*
X115849400Y-134912800D01*
X115925600Y-134836600D01*
X115925600Y-134010400D01*
X116230400Y-134010400D01*
X116230400Y-134836600D01*
X116306600Y-134912800D01*
X116623628Y-134912800D01*
X116735655Y-134866397D01*
X116821397Y-134780656D01*
X116867800Y-134668629D01*
X116867800Y-134086600D01*
X116791600Y-134010400D01*
X116230400Y-134010400D01*
X115925600Y-134010400D01*
X115364400Y-134010400D01*
X115288200Y-134086600D01*
X114963771Y-134086600D01*
X114963771Y-133108000D01*
X114951712Y-133047371D01*
X115288200Y-133047371D01*
X115288200Y-133629400D01*
X115364400Y-133705600D01*
X115925600Y-133705600D01*
X115925600Y-132879400D01*
X116230400Y-132879400D01*
X116230400Y-133705600D01*
X116791600Y-133705600D01*
X116867800Y-133629400D01*
X116867800Y-133047371D01*
X116821397Y-132935344D01*
X116735655Y-132849603D01*
X116623628Y-132803200D01*
X116306600Y-132803200D01*
X116230400Y-132879400D01*
X115925600Y-132879400D01*
X115849400Y-132803200D01*
X115532372Y-132803200D01*
X115420345Y-132849603D01*
X115334603Y-132935344D01*
X115288200Y-133047371D01*
X114951712Y-133047371D01*
X114940115Y-132989073D01*
X114872748Y-132888252D01*
X114771927Y-132820885D01*
X114653000Y-132797229D01*
X113683000Y-132797229D01*
X113564073Y-132820885D01*
X113463252Y-132888252D01*
X113395885Y-132989073D01*
X113372229Y-133108000D01*
X113372229Y-133382200D01*
X112669771Y-133382200D01*
X112669771Y-133108000D01*
X112646115Y-132989073D01*
X112578748Y-132888252D01*
X112477927Y-132820885D01*
X112359000Y-132797229D01*
X111214000Y-132797229D01*
X111095073Y-132820885D01*
X110994252Y-132888252D01*
X110926885Y-132989073D01*
X110903229Y-133108000D01*
X110584771Y-133108000D01*
X110561115Y-132989073D01*
X110493748Y-132888252D01*
X110392927Y-132820885D01*
X110274000Y-132797229D01*
X109129000Y-132797229D01*
X109010073Y-132820885D01*
X108909252Y-132888252D01*
X108841885Y-132989073D01*
X108818229Y-133108000D01*
X108075800Y-133108000D01*
X108075800Y-130822000D01*
X108818229Y-130822000D01*
X108818229Y-132322000D01*
X108841885Y-132440927D01*
X108909252Y-132541748D01*
X109010073Y-132609115D01*
X109129000Y-132632771D01*
X110274000Y-132632771D01*
X110392927Y-132609115D01*
X110493748Y-132541748D01*
X110561115Y-132440927D01*
X110584771Y-132322000D01*
X110584771Y-130822000D01*
X110903229Y-130822000D01*
X110903229Y-132322000D01*
X110926885Y-132440927D01*
X110994252Y-132541748D01*
X111095073Y-132609115D01*
X111214000Y-132632771D01*
X112359000Y-132632771D01*
X112477927Y-132609115D01*
X112578748Y-132541748D01*
X112646115Y-132440927D01*
X112669771Y-132322000D01*
X112669771Y-132047800D01*
X113372229Y-132047800D01*
X113372229Y-132322000D01*
X113395885Y-132440927D01*
X113463252Y-132541748D01*
X113564073Y-132609115D01*
X113683000Y-132632771D01*
X114653000Y-132632771D01*
X114771927Y-132609115D01*
X114872748Y-132541748D01*
X114940115Y-132440927D01*
X114963771Y-132322000D01*
X114963771Y-131800600D01*
X115288200Y-131800600D01*
X115288200Y-132382629D01*
X115334603Y-132494656D01*
X115420345Y-132580397D01*
X115532372Y-132626800D01*
X115849400Y-132626800D01*
X115925600Y-132550600D01*
X115925600Y-131724400D01*
X116230400Y-131724400D01*
X116230400Y-132550600D01*
X116306600Y-132626800D01*
X116623628Y-132626800D01*
X116735655Y-132580397D01*
X116821397Y-132494656D01*
X116867800Y-132382629D01*
X116867800Y-131800600D01*
X116791600Y-131724400D01*
X116230400Y-131724400D01*
X115925600Y-131724400D01*
X115364400Y-131724400D01*
X115288200Y-131800600D01*
X114963771Y-131800600D01*
X114963771Y-130822000D01*
X114951712Y-130761371D01*
X115288200Y-130761371D01*
X115288200Y-131343400D01*
X115364400Y-131419600D01*
X115925600Y-131419600D01*
X115925600Y-130593400D01*
X116230400Y-130593400D01*
X116230400Y-131419600D01*
X116791600Y-131419600D01*
X116867800Y-131343400D01*
X116867800Y-130761371D01*
X116821397Y-130649344D01*
X116735655Y-130563603D01*
X116623628Y-130517200D01*
X116306600Y-130517200D01*
X116230400Y-130593400D01*
X115925600Y-130593400D01*
X115849400Y-130517200D01*
X115532372Y-130517200D01*
X115420345Y-130563603D01*
X115334603Y-130649344D01*
X115288200Y-130761371D01*
X114951712Y-130761371D01*
X114940115Y-130703073D01*
X114872748Y-130602252D01*
X114771927Y-130534885D01*
X114653000Y-130511229D01*
X113683000Y-130511229D01*
X113564073Y-130534885D01*
X113463252Y-130602252D01*
X113395885Y-130703073D01*
X113372229Y-130822000D01*
X113372229Y-131096200D01*
X112669771Y-131096200D01*
X112669771Y-130822000D01*
X112646115Y-130703073D01*
X112578748Y-130602252D01*
X112477927Y-130534885D01*
X112359000Y-130511229D01*
X111214000Y-130511229D01*
X111095073Y-130534885D01*
X110994252Y-130602252D01*
X110926885Y-130703073D01*
X110903229Y-130822000D01*
X110584771Y-130822000D01*
X110561115Y-130703073D01*
X110493748Y-130602252D01*
X110392927Y-130534885D01*
X110274000Y-130511229D01*
X109129000Y-130511229D01*
X109010073Y-130534885D01*
X108909252Y-130602252D01*
X108841885Y-130703073D01*
X108818229Y-130822000D01*
X108075800Y-130822000D01*
X108075800Y-125984000D01*
X108855556Y-125984000D01*
X108941301Y-126415071D01*
X109185484Y-126780516D01*
X109550929Y-127024699D01*
X109873188Y-127088800D01*
X110090812Y-127088800D01*
X110413071Y-127024699D01*
X110778516Y-126780516D01*
X111022699Y-126415071D01*
X111108444Y-125984000D01*
X111022699Y-125552929D01*
X110778516Y-125187484D01*
X110413071Y-124943301D01*
X110090812Y-124879200D01*
X109873188Y-124879200D01*
X109550929Y-124943301D01*
X109185484Y-125187484D01*
X108941301Y-125552929D01*
X108855556Y-125984000D01*
X108075800Y-125984000D01*
X108075800Y-123765700D01*
X108925074Y-123765700D01*
X109007151Y-123963892D01*
X109280311Y-124297376D01*
X109660297Y-124500941D01*
X109829600Y-124462054D01*
X109829600Y-123596400D01*
X110134400Y-123596400D01*
X110134400Y-124462054D01*
X110303703Y-124500941D01*
X110683689Y-124297376D01*
X110956849Y-123963892D01*
X111038926Y-123765700D01*
X110999247Y-123596400D01*
X110134400Y-123596400D01*
X109829600Y-123596400D01*
X108964753Y-123596400D01*
X108925074Y-123765700D01*
X108075800Y-123765700D01*
X108075800Y-123122300D01*
X108925074Y-123122300D01*
X108964753Y-123291600D01*
X109829600Y-123291600D01*
X109829600Y-122425946D01*
X110134400Y-122425946D01*
X110134400Y-123291600D01*
X110999247Y-123291600D01*
X111038926Y-123122300D01*
X110956849Y-122924108D01*
X110683689Y-122590624D01*
X110303703Y-122387059D01*
X110134400Y-122425946D01*
X109829600Y-122425946D01*
X109660297Y-122387059D01*
X109280311Y-122590624D01*
X109007151Y-122924108D01*
X108925074Y-123122300D01*
X108075800Y-123122300D01*
X108075800Y-120904000D01*
X108855556Y-120904000D01*
X108941301Y-121335071D01*
X109185484Y-121700516D01*
X109550929Y-121944699D01*
X109873188Y-122008800D01*
X110090812Y-122008800D01*
X110413071Y-121944699D01*
X110778516Y-121700516D01*
X111022699Y-121335071D01*
X111108444Y-120904000D01*
X111022699Y-120472929D01*
X110778516Y-120107484D01*
X110413071Y-119863301D01*
X110090812Y-119799200D01*
X109873188Y-119799200D01*
X109550929Y-119863301D01*
X109185484Y-120107484D01*
X108941301Y-120472929D01*
X108855556Y-120904000D01*
X108075800Y-120904000D01*
X108075800Y-118364000D01*
X108855556Y-118364000D01*
X108941301Y-118795071D01*
X109185484Y-119160516D01*
X109550929Y-119404699D01*
X109873188Y-119468800D01*
X110090812Y-119468800D01*
X110413071Y-119404699D01*
X110778516Y-119160516D01*
X110940026Y-118918800D01*
X111058733Y-118918800D01*
X111113370Y-118929668D01*
X111168007Y-118918800D01*
X111168012Y-118918800D01*
X111329842Y-118886610D01*
X111513358Y-118763988D01*
X111544310Y-118717665D01*
X112613176Y-117648800D01*
X118485621Y-117648800D01*
X118336253Y-117798168D01*
X118251790Y-118002080D01*
X118251790Y-118222794D01*
X118330790Y-118413517D01*
X118330790Y-118644369D01*
X118321470Y-118691224D01*
X118330790Y-118738079D01*
X118330790Y-118738082D01*
X118358397Y-118876871D01*
X118463558Y-119034256D01*
X118503284Y-119060800D01*
X124313193Y-124870710D01*
X124327443Y-124892037D01*
X124303073Y-124896885D01*
X124202252Y-124964252D01*
X124134885Y-125065073D01*
X124111229Y-125184000D01*
X124111229Y-126784000D01*
X124134885Y-126902927D01*
X124202252Y-127003748D01*
X124303073Y-127071115D01*
X124422000Y-127094771D01*
X125916987Y-127094771D01*
X126002369Y-127222555D01*
X126042095Y-127249099D01*
X128890303Y-130097308D01*
X128916846Y-130137032D01*
X129074230Y-130242193D01*
X129213019Y-130269800D01*
X129213022Y-130269800D01*
X129259878Y-130279120D01*
X129306733Y-130269800D01*
X130231145Y-130269800D01*
X130278000Y-130279120D01*
X130324855Y-130269800D01*
X130324859Y-130269800D01*
X130463648Y-130242193D01*
X130621032Y-130137032D01*
X130647576Y-130097306D01*
X131819112Y-128925771D01*
X132957000Y-128925771D01*
X133075927Y-128902115D01*
X133176748Y-128834748D01*
X133244115Y-128733927D01*
X133267771Y-128615000D01*
X133267771Y-128554800D01*
X133692363Y-128554800D01*
X133747000Y-128565668D01*
X133801637Y-128554800D01*
X133801642Y-128554800D01*
X133963472Y-128522610D01*
X134146988Y-128399988D01*
X134177940Y-128353665D01*
X134490851Y-128040754D01*
X134522252Y-128087748D01*
X134623073Y-128155115D01*
X134742000Y-128178771D01*
X135392000Y-128178771D01*
X135510927Y-128155115D01*
X135540680Y-128135235D01*
X135631371Y-128172800D01*
X135788400Y-128172800D01*
X135864600Y-128096600D01*
X135864600Y-127490400D01*
X135844600Y-127490400D01*
X135844600Y-127185600D01*
X135864600Y-127185600D01*
X135864600Y-127165600D01*
X136169400Y-127165600D01*
X136169400Y-127185600D01*
X136189400Y-127185600D01*
X136189400Y-127490400D01*
X136169400Y-127490400D01*
X136169400Y-128096600D01*
X136245600Y-128172800D01*
X136402629Y-128172800D01*
X136493320Y-128135235D01*
X136523073Y-128155115D01*
X136642000Y-128178771D01*
X137292000Y-128178771D01*
X137410927Y-128155115D01*
X137511748Y-128087748D01*
X137579115Y-127986927D01*
X137602771Y-127868000D01*
X137602771Y-127813800D01*
X142818391Y-127813800D01*
X142845752Y-127854748D01*
X142946573Y-127922115D01*
X143065500Y-127945771D01*
X144208500Y-127945771D01*
X144327427Y-127922115D01*
X144428248Y-127854748D01*
X144495615Y-127753927D01*
X144519271Y-127635000D01*
X144519271Y-127127000D01*
X149104729Y-127127000D01*
X149104729Y-127635000D01*
X149128385Y-127753927D01*
X149195752Y-127854748D01*
X149296573Y-127922115D01*
X149415500Y-127945771D01*
X150558500Y-127945771D01*
X150677427Y-127922115D01*
X150778248Y-127854748D01*
X150845615Y-127753927D01*
X150869271Y-127635000D01*
X150869271Y-127127000D01*
X150845615Y-127008073D01*
X150778248Y-126907252D01*
X150677427Y-126839885D01*
X150558500Y-126816229D01*
X149415500Y-126816229D01*
X149296573Y-126839885D01*
X149195752Y-126907252D01*
X149128385Y-127008073D01*
X149104729Y-127127000D01*
X144519271Y-127127000D01*
X144495615Y-127008073D01*
X144428248Y-126907252D01*
X144327427Y-126839885D01*
X144208500Y-126816229D01*
X143065500Y-126816229D01*
X142946573Y-126839885D01*
X142913177Y-126862200D01*
X137602771Y-126862200D01*
X137602771Y-126808000D01*
X137579115Y-126689073D01*
X137511748Y-126588252D01*
X137410927Y-126520885D01*
X137302323Y-126499282D01*
X137320665Y-126480940D01*
X137366988Y-126449988D01*
X137489610Y-126266472D01*
X137521800Y-126104642D01*
X137521800Y-126104638D01*
X137532668Y-126050001D01*
X137521800Y-125995364D01*
X137521800Y-125872704D01*
X137532293Y-125857000D01*
X142754729Y-125857000D01*
X142754729Y-126365000D01*
X142778385Y-126483927D01*
X142845752Y-126584748D01*
X142946573Y-126652115D01*
X143065500Y-126675771D01*
X144208500Y-126675771D01*
X144327427Y-126652115D01*
X144428248Y-126584748D01*
X144495615Y-126483927D01*
X144519271Y-126365000D01*
X144519271Y-125857000D01*
X144495615Y-125738073D01*
X144428248Y-125637252D01*
X144327427Y-125569885D01*
X144208500Y-125546229D01*
X143065500Y-125546229D01*
X142946573Y-125569885D01*
X142845752Y-125637252D01*
X142778385Y-125738073D01*
X142754729Y-125857000D01*
X137532293Y-125857000D01*
X137579115Y-125786927D01*
X137602771Y-125668000D01*
X137602771Y-125044200D01*
X142760700Y-125044200D01*
X142760700Y-125155628D01*
X142807103Y-125267655D01*
X142892844Y-125353397D01*
X143004871Y-125399800D01*
X143408400Y-125399800D01*
X143484600Y-125323600D01*
X143484600Y-124968000D01*
X143789400Y-124968000D01*
X143789400Y-125323600D01*
X143865600Y-125399800D01*
X144269129Y-125399800D01*
X144381156Y-125353397D01*
X144466897Y-125267655D01*
X144513300Y-125155628D01*
X144513300Y-125044200D01*
X144437100Y-124968000D01*
X143789400Y-124968000D01*
X143484600Y-124968000D01*
X142836900Y-124968000D01*
X142760700Y-125044200D01*
X137602771Y-125044200D01*
X137602771Y-124608000D01*
X137586535Y-124526372D01*
X142760700Y-124526372D01*
X142760700Y-124637800D01*
X142836900Y-124714000D01*
X143484600Y-124714000D01*
X143484600Y-124358400D01*
X143789400Y-124358400D01*
X143789400Y-124714000D01*
X144437100Y-124714000D01*
X144513300Y-124637800D01*
X144513300Y-124587000D01*
X149104729Y-124587000D01*
X149104729Y-125095000D01*
X149128385Y-125213927D01*
X149195752Y-125314748D01*
X149296573Y-125382115D01*
X149415500Y-125405771D01*
X149511200Y-125405771D01*
X149511201Y-125546229D01*
X149415500Y-125546229D01*
X149296573Y-125569885D01*
X149195752Y-125637252D01*
X149128385Y-125738073D01*
X149104729Y-125857000D01*
X149104729Y-126365000D01*
X149128385Y-126483927D01*
X149195752Y-126584748D01*
X149296573Y-126652115D01*
X149415500Y-126675771D01*
X150558500Y-126675771D01*
X150677427Y-126652115D01*
X150775177Y-126586800D01*
X155401145Y-126586800D01*
X155448000Y-126596120D01*
X155494855Y-126586800D01*
X155494859Y-126586800D01*
X155633648Y-126559193D01*
X155791032Y-126454032D01*
X155808229Y-126428295D01*
X155808229Y-126480000D01*
X155831885Y-126598927D01*
X155899252Y-126699748D01*
X156000073Y-126767115D01*
X156119000Y-126790771D01*
X156179201Y-126790771D01*
X156179200Y-127209229D01*
X156119000Y-127209229D01*
X156000073Y-127232885D01*
X155899252Y-127300252D01*
X155831885Y-127401073D01*
X155808229Y-127520000D01*
X155808229Y-129020000D01*
X155831885Y-129138927D01*
X155899252Y-129239748D01*
X156000073Y-129307115D01*
X156119000Y-129330771D01*
X157264000Y-129330771D01*
X157382927Y-129307115D01*
X157483748Y-129239748D01*
X157551115Y-129138927D01*
X157574771Y-129020000D01*
X157574771Y-128498600D01*
X157899200Y-128498600D01*
X157899200Y-129080629D01*
X157945603Y-129192656D01*
X158031345Y-129278397D01*
X158143372Y-129324800D01*
X158547900Y-129324800D01*
X158624100Y-129248600D01*
X158624100Y-128422400D01*
X158928900Y-128422400D01*
X158928900Y-129248600D01*
X159005100Y-129324800D01*
X159409628Y-129324800D01*
X159521655Y-129278397D01*
X159607397Y-129192656D01*
X159653800Y-129080629D01*
X159653800Y-128498600D01*
X159577600Y-128422400D01*
X158928900Y-128422400D01*
X158624100Y-128422400D01*
X157975400Y-128422400D01*
X157899200Y-128498600D01*
X157574771Y-128498600D01*
X157574771Y-127520000D01*
X157562712Y-127459371D01*
X157899200Y-127459371D01*
X157899200Y-128041400D01*
X157975400Y-128117600D01*
X158624100Y-128117600D01*
X158624100Y-127291400D01*
X158928900Y-127291400D01*
X158928900Y-128117600D01*
X159577600Y-128117600D01*
X159653800Y-128041400D01*
X159653800Y-127459371D01*
X159607397Y-127347344D01*
X159521655Y-127261603D01*
X159409628Y-127215200D01*
X159005100Y-127215200D01*
X158928900Y-127291400D01*
X158624100Y-127291400D01*
X158547900Y-127215200D01*
X158143372Y-127215200D01*
X158031345Y-127261603D01*
X157945603Y-127347344D01*
X157899200Y-127459371D01*
X157562712Y-127459371D01*
X157551115Y-127401073D01*
X157483748Y-127300252D01*
X157382927Y-127232885D01*
X157288800Y-127214162D01*
X157288800Y-126785838D01*
X157382927Y-126767115D01*
X157483748Y-126699748D01*
X157551115Y-126598927D01*
X157574771Y-126480000D01*
X157574771Y-124980000D01*
X157893229Y-124980000D01*
X157893229Y-126480000D01*
X157916885Y-126598927D01*
X157984252Y-126699748D01*
X158085073Y-126767115D01*
X158204000Y-126790771D01*
X159349000Y-126790771D01*
X159467927Y-126767115D01*
X159568748Y-126699748D01*
X159636115Y-126598927D01*
X159659771Y-126480000D01*
X159659771Y-126048600D01*
X163271200Y-126048600D01*
X163271200Y-126480629D01*
X163317603Y-126592656D01*
X163403345Y-126678397D01*
X163515372Y-126724800D01*
X165447400Y-126724800D01*
X165523600Y-126648600D01*
X165523600Y-125972400D01*
X163347400Y-125972400D01*
X163271200Y-126048600D01*
X159659771Y-126048600D01*
X159659771Y-125159371D01*
X163271200Y-125159371D01*
X163271200Y-125591400D01*
X163347400Y-125667600D01*
X165523600Y-125667600D01*
X165523600Y-124991400D01*
X165447400Y-124915200D01*
X163515372Y-124915200D01*
X163403345Y-124961603D01*
X163317603Y-125047344D01*
X163271200Y-125159371D01*
X159659771Y-125159371D01*
X159659771Y-124980000D01*
X159636115Y-124861073D01*
X159568748Y-124760252D01*
X159467927Y-124692885D01*
X159349000Y-124669229D01*
X158204000Y-124669229D01*
X158085073Y-124692885D01*
X157984252Y-124760252D01*
X157916885Y-124861073D01*
X157893229Y-124980000D01*
X157574771Y-124980000D01*
X157551115Y-124861073D01*
X157483748Y-124760252D01*
X157382927Y-124692885D01*
X157264000Y-124669229D01*
X156119000Y-124669229D01*
X156000073Y-124692885D01*
X155899252Y-124760252D01*
X155831885Y-124861073D01*
X155808229Y-124980000D01*
X155808229Y-125249011D01*
X155782144Y-125254200D01*
X155782141Y-125254200D01*
X155643352Y-125281807D01*
X155534602Y-125354472D01*
X155485968Y-125386968D01*
X155459425Y-125426692D01*
X155250918Y-125635200D01*
X150775177Y-125635200D01*
X150677427Y-125569885D01*
X150558500Y-125546229D01*
X150462800Y-125546229D01*
X150462800Y-125405771D01*
X150558500Y-125405771D01*
X150677427Y-125382115D01*
X150778248Y-125314748D01*
X150845615Y-125213927D01*
X150869271Y-125095000D01*
X150869271Y-124587000D01*
X150845615Y-124468073D01*
X150778248Y-124367252D01*
X150677427Y-124299885D01*
X150558500Y-124276229D01*
X149415500Y-124276229D01*
X149296573Y-124299885D01*
X149195752Y-124367252D01*
X149128385Y-124468073D01*
X149104729Y-124587000D01*
X144513300Y-124587000D01*
X144513300Y-124526372D01*
X144466897Y-124414345D01*
X144381156Y-124328603D01*
X144269129Y-124282200D01*
X143865600Y-124282200D01*
X143789400Y-124358400D01*
X143484600Y-124358400D01*
X143408400Y-124282200D01*
X143004871Y-124282200D01*
X142892844Y-124328603D01*
X142807103Y-124414345D01*
X142760700Y-124526372D01*
X137586535Y-124526372D01*
X137579115Y-124489073D01*
X137511748Y-124388252D01*
X137410927Y-124320885D01*
X137292000Y-124297229D01*
X136642000Y-124297229D01*
X136523073Y-124320885D01*
X136422252Y-124388252D01*
X136354885Y-124489073D01*
X136331229Y-124608000D01*
X136331229Y-125668000D01*
X136334252Y-125683200D01*
X135699748Y-125683200D01*
X135702771Y-125668000D01*
X135702771Y-124608000D01*
X135679115Y-124489073D01*
X135621800Y-124403296D01*
X135621800Y-124326636D01*
X135632668Y-124271999D01*
X135621800Y-124217362D01*
X135621800Y-124217358D01*
X135589610Y-124055528D01*
X135528381Y-123963892D01*
X135497940Y-123918334D01*
X135497939Y-123918333D01*
X135466988Y-123872012D01*
X135420668Y-123841062D01*
X134791771Y-123212165D01*
X134791771Y-122136000D01*
X135464229Y-122136000D01*
X135464229Y-123281000D01*
X135487885Y-123399927D01*
X135555252Y-123500748D01*
X135656073Y-123568115D01*
X135775000Y-123591771D01*
X137275000Y-123591771D01*
X137393927Y-123568115D01*
X137494748Y-123500748D01*
X137520831Y-123461713D01*
X137933425Y-123874308D01*
X137959968Y-123914032D01*
X138117352Y-124019193D01*
X138256141Y-124046800D01*
X138256144Y-124046800D01*
X138302999Y-124056120D01*
X138349855Y-124046800D01*
X142848823Y-124046800D01*
X142946573Y-124112115D01*
X143065500Y-124135771D01*
X144208500Y-124135771D01*
X144327427Y-124112115D01*
X144428248Y-124044748D01*
X144495615Y-123943927D01*
X144519271Y-123825000D01*
X144519271Y-123317000D01*
X149104729Y-123317000D01*
X149104729Y-123825000D01*
X149128385Y-123943927D01*
X149195752Y-124044748D01*
X149296573Y-124112115D01*
X149415500Y-124135771D01*
X150558500Y-124135771D01*
X150677427Y-124112115D01*
X150775177Y-124046800D01*
X155829473Y-124046800D01*
X155831885Y-124058927D01*
X155899252Y-124159748D01*
X156000073Y-124227115D01*
X156119000Y-124250771D01*
X157264000Y-124250771D01*
X157382927Y-124227115D01*
X157483748Y-124159748D01*
X157551115Y-124058927D01*
X157574771Y-123940000D01*
X157574771Y-122440000D01*
X157551115Y-122321073D01*
X157483748Y-122220252D01*
X157382927Y-122152885D01*
X157264000Y-122129229D01*
X156119000Y-122129229D01*
X156000073Y-122152885D01*
X155899252Y-122220252D01*
X155831885Y-122321073D01*
X155808229Y-122440000D01*
X155808229Y-123095200D01*
X150775177Y-123095200D01*
X150677427Y-123029885D01*
X150558500Y-123006229D01*
X149415500Y-123006229D01*
X149296573Y-123029885D01*
X149195752Y-123097252D01*
X149128385Y-123198073D01*
X149104729Y-123317000D01*
X144519271Y-123317000D01*
X144495615Y-123198073D01*
X144428248Y-123097252D01*
X144327427Y-123029885D01*
X144208500Y-123006229D01*
X143065500Y-123006229D01*
X142946573Y-123029885D01*
X142848823Y-123095200D01*
X138500083Y-123095200D01*
X137767576Y-122362694D01*
X137741032Y-122322968D01*
X137585771Y-122219226D01*
X137585771Y-122136000D01*
X137562115Y-122017073D01*
X137494748Y-121916252D01*
X137393927Y-121848885D01*
X137275000Y-121825229D01*
X135775000Y-121825229D01*
X135656073Y-121848885D01*
X135555252Y-121916252D01*
X135487885Y-122017073D01*
X135464229Y-122136000D01*
X134791771Y-122136000D01*
X134768115Y-122017073D01*
X134700748Y-121916252D01*
X134599927Y-121848885D01*
X134481000Y-121825229D01*
X133454834Y-121825229D01*
X133130405Y-121500800D01*
X133502400Y-121500800D01*
X133578600Y-121424600D01*
X133578600Y-120775900D01*
X133883400Y-120775900D01*
X133883400Y-121424600D01*
X133959600Y-121500800D01*
X134541629Y-121500800D01*
X134653656Y-121454397D01*
X134739397Y-121368655D01*
X134785800Y-121256628D01*
X134785800Y-120852100D01*
X135470200Y-120852100D01*
X135470200Y-121256628D01*
X135516603Y-121368655D01*
X135602344Y-121454397D01*
X135714371Y-121500800D01*
X136296400Y-121500800D01*
X136372600Y-121424600D01*
X136372600Y-120775900D01*
X136677400Y-120775900D01*
X136677400Y-121424600D01*
X136753600Y-121500800D01*
X137335629Y-121500800D01*
X137447656Y-121454397D01*
X137533397Y-121368655D01*
X137579800Y-121256628D01*
X137579800Y-120878600D01*
X155814200Y-120878600D01*
X155814200Y-121460629D01*
X155860603Y-121572656D01*
X155946345Y-121658397D01*
X156058372Y-121704800D01*
X156462900Y-121704800D01*
X156539100Y-121628600D01*
X156539100Y-120802400D01*
X156843900Y-120802400D01*
X156843900Y-121628600D01*
X156920100Y-121704800D01*
X157324628Y-121704800D01*
X157436655Y-121658397D01*
X157522397Y-121572656D01*
X157568800Y-121460629D01*
X157568800Y-120878600D01*
X157492600Y-120802400D01*
X156843900Y-120802400D01*
X156539100Y-120802400D01*
X155890400Y-120802400D01*
X155814200Y-120878600D01*
X137579800Y-120878600D01*
X137579800Y-120852100D01*
X137503600Y-120775900D01*
X136677400Y-120775900D01*
X136372600Y-120775900D01*
X135546400Y-120775900D01*
X135470200Y-120852100D01*
X134785800Y-120852100D01*
X134709600Y-120775900D01*
X133883400Y-120775900D01*
X133578600Y-120775900D01*
X132752400Y-120775900D01*
X132676200Y-120852100D01*
X132676200Y-121046595D01*
X132634800Y-121005195D01*
X132634800Y-119990372D01*
X132676200Y-119990372D01*
X132676200Y-120394900D01*
X132752400Y-120471100D01*
X133578600Y-120471100D01*
X133578600Y-119822400D01*
X133883400Y-119822400D01*
X133883400Y-120471100D01*
X134709600Y-120471100D01*
X134785800Y-120394900D01*
X134785800Y-119990372D01*
X135470200Y-119990372D01*
X135470200Y-120394900D01*
X135546400Y-120471100D01*
X136372600Y-120471100D01*
X136372600Y-119822400D01*
X136677400Y-119822400D01*
X136677400Y-120471100D01*
X137503600Y-120471100D01*
X137579800Y-120394900D01*
X137579800Y-119990372D01*
X137533397Y-119878345D01*
X137494424Y-119839371D01*
X155814200Y-119839371D01*
X155814200Y-120421400D01*
X155890400Y-120497600D01*
X156539100Y-120497600D01*
X156539100Y-119671400D01*
X156843900Y-119671400D01*
X156843900Y-120497600D01*
X157492600Y-120497600D01*
X157568800Y-120421400D01*
X157568800Y-119839371D01*
X157522397Y-119727344D01*
X157436655Y-119641603D01*
X157324628Y-119595200D01*
X156920100Y-119595200D01*
X156843900Y-119671400D01*
X156539100Y-119671400D01*
X156462900Y-119595200D01*
X156058372Y-119595200D01*
X155946345Y-119641603D01*
X155860603Y-119727344D01*
X155814200Y-119839371D01*
X137494424Y-119839371D01*
X137447656Y-119792603D01*
X137335629Y-119746200D01*
X136753600Y-119746200D01*
X136677400Y-119822400D01*
X136372600Y-119822400D01*
X136296400Y-119746200D01*
X135714371Y-119746200D01*
X135602344Y-119792603D01*
X135516603Y-119878345D01*
X135470200Y-119990372D01*
X134785800Y-119990372D01*
X134739397Y-119878345D01*
X134653656Y-119792603D01*
X134541629Y-119746200D01*
X133959600Y-119746200D01*
X133883400Y-119822400D01*
X133578600Y-119822400D01*
X133502400Y-119746200D01*
X132920371Y-119746200D01*
X132808344Y-119792603D01*
X132722603Y-119878345D01*
X132676200Y-119990372D01*
X132634800Y-119990372D01*
X132634800Y-117148642D01*
X132645669Y-117094000D01*
X132634800Y-117039358D01*
X132634800Y-112678805D01*
X136444664Y-108868941D01*
X136490988Y-108837988D01*
X136613610Y-108654472D01*
X136645800Y-108492642D01*
X136645800Y-108492638D01*
X136656668Y-108438000D01*
X136645800Y-108383362D01*
X136645800Y-108248771D01*
X136663500Y-108248771D01*
X136782427Y-108225115D01*
X136883248Y-108157748D01*
X136950615Y-108056927D01*
X136974271Y-107938000D01*
X136974271Y-107416600D01*
X137298700Y-107416600D01*
X137298700Y-107998629D01*
X137345103Y-108110656D01*
X137430845Y-108196397D01*
X137542872Y-108242800D01*
X137947400Y-108242800D01*
X138023600Y-108166600D01*
X138023600Y-107340400D01*
X138328400Y-107340400D01*
X138328400Y-108166600D01*
X138404600Y-108242800D01*
X138809128Y-108242800D01*
X138921155Y-108196397D01*
X139006897Y-108110656D01*
X139053300Y-107998629D01*
X139053300Y-107416600D01*
X138977100Y-107340400D01*
X138328400Y-107340400D01*
X138023600Y-107340400D01*
X137374900Y-107340400D01*
X137298700Y-107416600D01*
X136974271Y-107416600D01*
X136974271Y-106438000D01*
X136962212Y-106377371D01*
X137298700Y-106377371D01*
X137298700Y-106959400D01*
X137374900Y-107035600D01*
X138023600Y-107035600D01*
X138023600Y-106209400D01*
X138328400Y-106209400D01*
X138328400Y-107035600D01*
X138977100Y-107035600D01*
X139053300Y-106959400D01*
X139053300Y-106377371D01*
X139006897Y-106265344D01*
X138921155Y-106179603D01*
X138809128Y-106133200D01*
X138404600Y-106133200D01*
X138328400Y-106209400D01*
X138023600Y-106209400D01*
X137947400Y-106133200D01*
X137542872Y-106133200D01*
X137430845Y-106179603D01*
X137345103Y-106265344D01*
X137298700Y-106377371D01*
X136962212Y-106377371D01*
X136950615Y-106319073D01*
X136883248Y-106218252D01*
X136782427Y-106150885D01*
X136776800Y-106149766D01*
X136776800Y-105299643D01*
X138383200Y-105299643D01*
X138383200Y-105520357D01*
X138467663Y-105724269D01*
X138623731Y-105880337D01*
X138827643Y-105964800D01*
X139048357Y-105964800D01*
X139239080Y-105885800D01*
X141431145Y-105885800D01*
X141478000Y-105895120D01*
X141524855Y-105885800D01*
X141524859Y-105885800D01*
X141663648Y-105858193D01*
X141821032Y-105753032D01*
X141847576Y-105713306D01*
X143971200Y-103589682D01*
X143971200Y-103742357D01*
X144055663Y-103946269D01*
X144211731Y-104102337D01*
X144390358Y-104176326D01*
X144389229Y-104182000D01*
X144389229Y-105082000D01*
X144412885Y-105200927D01*
X144480252Y-105301748D01*
X144581073Y-105369115D01*
X144700000Y-105392771D01*
X145137889Y-105392771D01*
X146474425Y-106729308D01*
X146500968Y-106769032D01*
X146658352Y-106874193D01*
X146797141Y-106901800D01*
X146797145Y-106901800D01*
X146843999Y-106911120D01*
X146890853Y-106901800D01*
X149025918Y-106901800D01*
X150657925Y-108533808D01*
X150684468Y-108573532D01*
X150841852Y-108678693D01*
X150980641Y-108706300D01*
X150980644Y-108706300D01*
X151027499Y-108715620D01*
X151058729Y-108709408D01*
X151058729Y-108803000D01*
X151082385Y-108921927D01*
X151149752Y-109022748D01*
X151250573Y-109090115D01*
X151369500Y-109113771D01*
X152869500Y-109113771D01*
X152988427Y-109090115D01*
X153089248Y-109022748D01*
X153156615Y-108921927D01*
X153180271Y-108803000D01*
X153180271Y-107658000D01*
X153156615Y-107539073D01*
X153089248Y-107438252D01*
X152988427Y-107370885D01*
X152869500Y-107347229D01*
X151369500Y-107347229D01*
X151250573Y-107370885D01*
X151149752Y-107438252D01*
X151082385Y-107539073D01*
X151070202Y-107600320D01*
X149592576Y-106122694D01*
X149566032Y-106082968D01*
X149408648Y-105977807D01*
X149269859Y-105950200D01*
X149269855Y-105950200D01*
X149223000Y-105940880D01*
X149176145Y-105950200D01*
X147041083Y-105950200D01*
X146417558Y-105326675D01*
X146481073Y-105369115D01*
X146600000Y-105392771D01*
X147400000Y-105392771D01*
X147518927Y-105369115D01*
X147619748Y-105301748D01*
X147687115Y-105200927D01*
X147710771Y-105082000D01*
X147710771Y-104445964D01*
X149404337Y-102752400D01*
X151621105Y-102752400D01*
X151667073Y-102783115D01*
X151786000Y-102806771D01*
X153186000Y-102806771D01*
X153304927Y-102783115D01*
X153305875Y-102782481D01*
X153355731Y-102832337D01*
X153559643Y-102916800D01*
X153771601Y-102916800D01*
X153771601Y-102955662D01*
X151860435Y-104866830D01*
X151826503Y-104889503D01*
X151736680Y-105023932D01*
X151713100Y-105142478D01*
X151713100Y-105142482D01*
X151705140Y-105182500D01*
X151713100Y-105222518D01*
X151713100Y-105262229D01*
X151369500Y-105262229D01*
X151250573Y-105285885D01*
X151149752Y-105353252D01*
X151082385Y-105454073D01*
X151058729Y-105573000D01*
X151058729Y-106718000D01*
X151082385Y-106836927D01*
X151149752Y-106937748D01*
X151250573Y-107005115D01*
X151369500Y-107028771D01*
X152869500Y-107028771D01*
X152988427Y-107005115D01*
X153089248Y-106937748D01*
X153156615Y-106836927D01*
X153180271Y-106718000D01*
X153180271Y-105573000D01*
X153156615Y-105454073D01*
X153089248Y-105353252D01*
X152988427Y-105285885D01*
X152869500Y-105262229D01*
X152614506Y-105262229D01*
X154437071Y-103439666D01*
X154470997Y-103416997D01*
X154493666Y-103383071D01*
X154493669Y-103383068D01*
X154560820Y-103282570D01*
X154566141Y-103255816D01*
X154584400Y-103164023D01*
X154584400Y-103164020D01*
X154592360Y-103124000D01*
X154584400Y-103083981D01*
X154584400Y-102220817D01*
X154604438Y-102120078D01*
X154572897Y-101961508D01*
X154505746Y-101861010D01*
X154505745Y-101861009D01*
X154483075Y-101827081D01*
X154449147Y-101804411D01*
X154231669Y-101586934D01*
X154208997Y-101553003D01*
X154074569Y-101463180D01*
X153956023Y-101439600D01*
X153956018Y-101439600D01*
X153916000Y-101431640D01*
X153875982Y-101439600D01*
X153870335Y-101439600D01*
X154999068Y-100310868D01*
X155032997Y-100288197D01*
X155077847Y-100221075D01*
X155122820Y-100153770D01*
X155133980Y-100097663D01*
X155146400Y-100035223D01*
X155146400Y-100035220D01*
X155154360Y-99995200D01*
X155146400Y-99955181D01*
X155146400Y-97244000D01*
X155911229Y-97244000D01*
X155911229Y-98389000D01*
X155934885Y-98507927D01*
X156002252Y-98608748D01*
X156103073Y-98676115D01*
X156222000Y-98699771D01*
X157722000Y-98699771D01*
X157840927Y-98676115D01*
X157941748Y-98608748D01*
X158009115Y-98507927D01*
X158032771Y-98389000D01*
X158032771Y-97638372D01*
X158938700Y-97638372D01*
X158938700Y-98042900D01*
X159014900Y-98119100D01*
X159841100Y-98119100D01*
X159841100Y-97470400D01*
X160145900Y-97470400D01*
X160145900Y-98119100D01*
X160972100Y-98119100D01*
X161048300Y-98042900D01*
X161048300Y-97638372D01*
X161001897Y-97526345D01*
X160916156Y-97440603D01*
X160804129Y-97394200D01*
X160222100Y-97394200D01*
X160145900Y-97470400D01*
X159841100Y-97470400D01*
X159764900Y-97394200D01*
X159182871Y-97394200D01*
X159070844Y-97440603D01*
X158985103Y-97526345D01*
X158938700Y-97638372D01*
X158032771Y-97638372D01*
X158032771Y-97244000D01*
X158009115Y-97125073D01*
X157941748Y-97024252D01*
X157840927Y-96956885D01*
X157722000Y-96933229D01*
X156222000Y-96933229D01*
X156103073Y-96956885D01*
X156002252Y-97024252D01*
X155934885Y-97125073D01*
X155911229Y-97244000D01*
X155146400Y-97244000D01*
X155146400Y-96912600D01*
X163271200Y-96912600D01*
X163271200Y-97344629D01*
X163317603Y-97456656D01*
X163403345Y-97542397D01*
X163515372Y-97588800D01*
X165447400Y-97588800D01*
X165523600Y-97512600D01*
X165523600Y-96836400D01*
X163347400Y-96836400D01*
X163271200Y-96912600D01*
X155146400Y-96912600D01*
X155146400Y-95159000D01*
X155911229Y-95159000D01*
X155911229Y-96304000D01*
X155934885Y-96422927D01*
X156002252Y-96523748D01*
X156103073Y-96591115D01*
X156222000Y-96614771D01*
X157722000Y-96614771D01*
X157840927Y-96591115D01*
X157941748Y-96523748D01*
X158009115Y-96422927D01*
X158032771Y-96304000D01*
X158032771Y-96023371D01*
X163271200Y-96023371D01*
X163271200Y-96455400D01*
X163347400Y-96531600D01*
X165523600Y-96531600D01*
X165523600Y-95855400D01*
X165447400Y-95779200D01*
X163515372Y-95779200D01*
X163403345Y-95825603D01*
X163317603Y-95911344D01*
X163271200Y-96023371D01*
X158032771Y-96023371D01*
X158032771Y-95159000D01*
X158009115Y-95040073D01*
X157941748Y-94939252D01*
X157840927Y-94871885D01*
X157722000Y-94848229D01*
X156222000Y-94848229D01*
X156103073Y-94871885D01*
X156002252Y-94939252D01*
X155934885Y-95040073D01*
X155911229Y-95159000D01*
X155146400Y-95159000D01*
X155146400Y-90127371D01*
X155337496Y-90048216D01*
X155634216Y-89751496D01*
X155794800Y-89363813D01*
X155794800Y-88944187D01*
X155634216Y-88556504D01*
X155337496Y-88259784D01*
X154949813Y-88099200D01*
X154530187Y-88099200D01*
X154142504Y-88259784D01*
X153845784Y-88556504D01*
X153685200Y-88944187D01*
X153685200Y-89363813D01*
X153845784Y-89751496D01*
X154142504Y-90048216D01*
X154333600Y-90127371D01*
X154333601Y-99826863D01*
X153491411Y-100669054D01*
X153476880Y-100596000D01*
X153496771Y-100496000D01*
X153496771Y-100196000D01*
X153473115Y-100077073D01*
X153405748Y-99976252D01*
X153304927Y-99908885D01*
X153186000Y-99885229D01*
X152892400Y-99885229D01*
X152892400Y-98807517D01*
X152900360Y-98767499D01*
X152892400Y-98727481D01*
X152892400Y-98727477D01*
X152868820Y-98608931D01*
X152778997Y-98474503D01*
X152745068Y-98451832D01*
X152418271Y-98125035D01*
X152418271Y-97244000D01*
X152394615Y-97125073D01*
X152327248Y-97024252D01*
X152226427Y-96956885D01*
X152107500Y-96933229D01*
X150607500Y-96933229D01*
X150488573Y-96956885D01*
X150387752Y-97024252D01*
X150320385Y-97125073D01*
X150296729Y-97244000D01*
X150296729Y-98389000D01*
X150320385Y-98507927D01*
X150387752Y-98608748D01*
X150488573Y-98676115D01*
X150607500Y-98699771D01*
X151843535Y-98699771D01*
X152079601Y-98935837D01*
X152079600Y-99885229D01*
X151786000Y-99885229D01*
X151667073Y-99908885D01*
X151566252Y-99976252D01*
X151498885Y-100077073D01*
X151480589Y-100169053D01*
X150266400Y-98954865D01*
X150266400Y-95960100D01*
X150302700Y-95960100D01*
X150302700Y-96364628D01*
X150349103Y-96476655D01*
X150434844Y-96562397D01*
X150546871Y-96608800D01*
X151128900Y-96608800D01*
X151205100Y-96532600D01*
X151205100Y-95883900D01*
X151509900Y-95883900D01*
X151509900Y-96532600D01*
X151586100Y-96608800D01*
X152168129Y-96608800D01*
X152280156Y-96562397D01*
X152365897Y-96476655D01*
X152412300Y-96364628D01*
X152412300Y-95960100D01*
X152336100Y-95883900D01*
X151509900Y-95883900D01*
X151205100Y-95883900D01*
X150378900Y-95883900D01*
X150302700Y-95960100D01*
X150266400Y-95960100D01*
X150266400Y-95098372D01*
X150302700Y-95098372D01*
X150302700Y-95502900D01*
X150378900Y-95579100D01*
X151205100Y-95579100D01*
X151205100Y-94930400D01*
X151509900Y-94930400D01*
X151509900Y-95579100D01*
X152336100Y-95579100D01*
X152412300Y-95502900D01*
X152412300Y-95098372D01*
X152365897Y-94986345D01*
X152280156Y-94900603D01*
X152168129Y-94854200D01*
X151586100Y-94854200D01*
X151509900Y-94930400D01*
X151205100Y-94930400D01*
X151128900Y-94854200D01*
X150546871Y-94854200D01*
X150434844Y-94900603D01*
X150349103Y-94986345D01*
X150302700Y-95098372D01*
X150266400Y-95098372D01*
X150266400Y-90127371D01*
X150457496Y-90048216D01*
X150754216Y-89751496D01*
X150914800Y-89363813D01*
X150914800Y-88944187D01*
X150754216Y-88556504D01*
X150457496Y-88259784D01*
X150069813Y-88099200D01*
X149650187Y-88099200D01*
X149262504Y-88259784D01*
X148965784Y-88556504D01*
X148805200Y-88944187D01*
X148805200Y-89363813D01*
X148965784Y-89751496D01*
X149262504Y-90048216D01*
X149453600Y-90127371D01*
X149453600Y-90254682D01*
X149453601Y-90254687D01*
X149453600Y-99083182D01*
X149445640Y-99123200D01*
X149453600Y-99163218D01*
X149453600Y-99163222D01*
X149477180Y-99281768D01*
X149567003Y-99416197D01*
X149600935Y-99438870D01*
X151267132Y-101105068D01*
X151289803Y-101138997D01*
X151424231Y-101228820D01*
X151475229Y-101238964D01*
X151475229Y-101439600D01*
X151036336Y-101439600D01*
X150922800Y-101326064D01*
X150922800Y-101235643D01*
X150838337Y-101031731D01*
X150682269Y-100875663D01*
X150478357Y-100791200D01*
X150257643Y-100791200D01*
X150053731Y-100875663D01*
X149897663Y-101031731D01*
X149813200Y-101235643D01*
X149813200Y-101456357D01*
X149897663Y-101660269D01*
X150053731Y-101816337D01*
X150257643Y-101900800D01*
X150348064Y-101900800D01*
X150386864Y-101939600D01*
X149276019Y-101939600D01*
X149236000Y-101931640D01*
X149195980Y-101939600D01*
X149195977Y-101939600D01*
X149104184Y-101957859D01*
X149077430Y-101963180D01*
X148976932Y-102030331D01*
X148976929Y-102030334D01*
X148943003Y-102053003D01*
X148920334Y-102086929D01*
X147136036Y-103871229D01*
X146600000Y-103871229D01*
X146481073Y-103894885D01*
X146380252Y-103962252D01*
X146312885Y-104063073D01*
X146289229Y-104182000D01*
X146289229Y-105082000D01*
X146312885Y-105200927D01*
X146355325Y-105264443D01*
X145810771Y-104719889D01*
X145810771Y-104182000D01*
X145787115Y-104063073D01*
X145719748Y-103962252D01*
X145618927Y-103894885D01*
X145500000Y-103871229D01*
X145448552Y-103871229D01*
X145443032Y-103862968D01*
X145403308Y-103836425D01*
X145075337Y-103508455D01*
X144996337Y-103317731D01*
X144840269Y-103161663D01*
X144671605Y-103091800D01*
X145180704Y-103091800D01*
X145261141Y-103107800D01*
X145261145Y-103107800D01*
X145307999Y-103117120D01*
X145344760Y-103109808D01*
X145362885Y-103200927D01*
X145430252Y-103301748D01*
X145531073Y-103369115D01*
X145650000Y-103392771D01*
X146450000Y-103392771D01*
X146568927Y-103369115D01*
X146669748Y-103301748D01*
X146737115Y-103200927D01*
X146755240Y-103109808D01*
X146792000Y-103117120D01*
X146838855Y-103107800D01*
X146838859Y-103107800D01*
X146977648Y-103080193D01*
X147135032Y-102975032D01*
X147161576Y-102935306D01*
X149147308Y-100949575D01*
X149187032Y-100923032D01*
X149240463Y-100843068D01*
X149292193Y-100765648D01*
X149293245Y-100760361D01*
X149319800Y-100626859D01*
X149319800Y-100626856D01*
X149329120Y-100580001D01*
X149319800Y-100533145D01*
X149319800Y-97025355D01*
X149329120Y-96978500D01*
X149319800Y-96931642D01*
X149319800Y-96931641D01*
X149292193Y-96792852D01*
X149187032Y-96635468D01*
X149147309Y-96608926D01*
X148019576Y-95481194D01*
X147993032Y-95441468D01*
X147835648Y-95336307D01*
X147696859Y-95308700D01*
X147696855Y-95308700D01*
X147650000Y-95299380D01*
X147618771Y-95305592D01*
X147618771Y-95212000D01*
X147595115Y-95093073D01*
X147527748Y-94992252D01*
X147426927Y-94924885D01*
X147308000Y-94901229D01*
X145808000Y-94901229D01*
X145689073Y-94924885D01*
X145588252Y-94992252D01*
X145520885Y-95093073D01*
X145497229Y-95212000D01*
X145497229Y-96357000D01*
X145520885Y-96475927D01*
X145588252Y-96576748D01*
X145689073Y-96644115D01*
X145808000Y-96667771D01*
X147308000Y-96667771D01*
X147426927Y-96644115D01*
X147527748Y-96576748D01*
X147595115Y-96475927D01*
X147607298Y-96414680D01*
X148368200Y-97175583D01*
X148368201Y-100382916D01*
X146717460Y-102033658D01*
X146669748Y-101962252D01*
X146568927Y-101894885D01*
X146450000Y-101871229D01*
X145650000Y-101871229D01*
X145531073Y-101894885D01*
X145430252Y-101962252D01*
X145362885Y-102063073D01*
X145347213Y-102141862D01*
X145338859Y-102140200D01*
X145338855Y-102140200D01*
X145292000Y-102130880D01*
X145245145Y-102140200D01*
X144318855Y-102140200D01*
X144272000Y-102130880D01*
X144225144Y-102140200D01*
X144225141Y-102140200D01*
X144086352Y-102167807D01*
X143928968Y-102272968D01*
X143902424Y-102312694D01*
X141280918Y-104934200D01*
X139239080Y-104934200D01*
X139048357Y-104855200D01*
X138827643Y-104855200D01*
X138623731Y-104939663D01*
X138467663Y-105095731D01*
X138383200Y-105299643D01*
X136776800Y-105299643D01*
X136776800Y-105018527D01*
X136873748Y-104953748D01*
X136941115Y-104852927D01*
X136964771Y-104734000D01*
X136964771Y-104419800D01*
X138488088Y-104419800D01*
X138594504Y-104526216D01*
X138982187Y-104686800D01*
X139401813Y-104686800D01*
X139789496Y-104526216D01*
X140086216Y-104229496D01*
X140246800Y-103841813D01*
X140246800Y-103422187D01*
X140086216Y-103034504D01*
X139789496Y-102737784D01*
X139746800Y-102720099D01*
X139746800Y-101575805D01*
X140109335Y-101213271D01*
X140958000Y-101213271D01*
X141076927Y-101189615D01*
X141177748Y-101122248D01*
X141245115Y-101021427D01*
X141268771Y-100902500D01*
X141268771Y-100119611D01*
X141270382Y-100118000D01*
X145339229Y-100118000D01*
X145339229Y-101018000D01*
X145362885Y-101136927D01*
X145430252Y-101237748D01*
X145531073Y-101305115D01*
X145650000Y-101328771D01*
X146450000Y-101328771D01*
X146568927Y-101305115D01*
X146669748Y-101237748D01*
X146737115Y-101136927D01*
X146760771Y-101018000D01*
X146760771Y-100118000D01*
X146737115Y-99999073D01*
X146669748Y-99898252D01*
X146568927Y-99830885D01*
X146450000Y-99807229D01*
X145650000Y-99807229D01*
X145531073Y-99830885D01*
X145430252Y-99898252D01*
X145362885Y-99999073D01*
X145339229Y-100118000D01*
X141270382Y-100118000D01*
X142708521Y-98679861D01*
X142785733Y-98866269D01*
X142941801Y-99022337D01*
X143145713Y-99106800D01*
X143366427Y-99106800D01*
X143570339Y-99022337D01*
X143618276Y-98974400D01*
X144389229Y-98974400D01*
X144389229Y-99018000D01*
X144412885Y-99136927D01*
X144480252Y-99237748D01*
X144581073Y-99305115D01*
X144700000Y-99328771D01*
X145500000Y-99328771D01*
X145618927Y-99305115D01*
X145719748Y-99237748D01*
X145787115Y-99136927D01*
X145810771Y-99018000D01*
X145810771Y-98118000D01*
X146289229Y-98118000D01*
X146289229Y-99018000D01*
X146312885Y-99136927D01*
X146380252Y-99237748D01*
X146481073Y-99305115D01*
X146600000Y-99328771D01*
X147400000Y-99328771D01*
X147518927Y-99305115D01*
X147619748Y-99237748D01*
X147687115Y-99136927D01*
X147710771Y-99018000D01*
X147710771Y-98118000D01*
X147687115Y-97999073D01*
X147619748Y-97898252D01*
X147518927Y-97830885D01*
X147400000Y-97807229D01*
X146600000Y-97807229D01*
X146481073Y-97830885D01*
X146380252Y-97898252D01*
X146312885Y-97999073D01*
X146289229Y-98118000D01*
X145810771Y-98118000D01*
X145787115Y-97999073D01*
X145719748Y-97898252D01*
X145618927Y-97830885D01*
X145500000Y-97807229D01*
X144700000Y-97807229D01*
X144581073Y-97830885D01*
X144480252Y-97898252D01*
X144412885Y-97999073D01*
X144389229Y-98118000D01*
X144389229Y-98161600D01*
X143650276Y-98161600D01*
X143570339Y-98081663D01*
X143380721Y-98003121D01*
X143450193Y-97899148D01*
X143477800Y-97760359D01*
X143477800Y-97760356D01*
X143487120Y-97713500D01*
X143477800Y-97666645D01*
X143477800Y-96360582D01*
X145508702Y-94329681D01*
X145520885Y-94390927D01*
X145588252Y-94491748D01*
X145689073Y-94559115D01*
X145808000Y-94582771D01*
X147308000Y-94582771D01*
X147426927Y-94559115D01*
X147527748Y-94491748D01*
X147595115Y-94390927D01*
X147618771Y-94272000D01*
X147618771Y-93127000D01*
X147595115Y-93008073D01*
X147527748Y-92907252D01*
X147426927Y-92839885D01*
X147308000Y-92816229D01*
X145808000Y-92816229D01*
X145689073Y-92839885D01*
X145588252Y-92907252D01*
X145520885Y-93008073D01*
X145497229Y-93127000D01*
X145497229Y-93220592D01*
X145465999Y-93214380D01*
X145419144Y-93223700D01*
X145419141Y-93223700D01*
X145280352Y-93251307D01*
X145122968Y-93356468D01*
X145096425Y-93396192D01*
X142698694Y-95793924D01*
X142658968Y-95820468D01*
X142553807Y-95977853D01*
X142526200Y-96116642D01*
X142526200Y-96116645D01*
X142516880Y-96163500D01*
X142526200Y-96210356D01*
X142526201Y-97516417D01*
X141268771Y-98773847D01*
X141268771Y-97672500D01*
X141245115Y-97553573D01*
X141177748Y-97452752D01*
X141076927Y-97385385D01*
X140958000Y-97361729D01*
X139458000Y-97361729D01*
X139339073Y-97385385D01*
X139238252Y-97452752D01*
X139170885Y-97553573D01*
X139147229Y-97672500D01*
X139147229Y-98817500D01*
X139170885Y-98936427D01*
X139238252Y-99037248D01*
X139339073Y-99104615D01*
X139458000Y-99128271D01*
X140914347Y-99128271D01*
X140595889Y-99446729D01*
X139458000Y-99446729D01*
X139339073Y-99470385D01*
X139238252Y-99537752D01*
X139170885Y-99638573D01*
X139147229Y-99757500D01*
X139147229Y-100606166D01*
X138838333Y-100915062D01*
X138792013Y-100946012D01*
X138761062Y-100992333D01*
X138761060Y-100992335D01*
X138669391Y-101129528D01*
X138626332Y-101346000D01*
X138637201Y-101400642D01*
X138637200Y-102720099D01*
X138594504Y-102737784D01*
X138297784Y-103034504D01*
X138292111Y-103048200D01*
X136964771Y-103048200D01*
X136964771Y-102734000D01*
X136941115Y-102615073D01*
X136873748Y-102514252D01*
X136772927Y-102446885D01*
X136654000Y-102423229D01*
X135154000Y-102423229D01*
X135035073Y-102446885D01*
X134934252Y-102514252D01*
X134866885Y-102615073D01*
X134843229Y-102734000D01*
X134843229Y-104734000D01*
X134866885Y-104852927D01*
X134934252Y-104953748D01*
X135035073Y-105021115D01*
X135154000Y-105044771D01*
X135405201Y-105044771D01*
X135405200Y-106149766D01*
X135399573Y-106150885D01*
X135298752Y-106218252D01*
X135231385Y-106319073D01*
X135207729Y-106438000D01*
X135207729Y-107938000D01*
X135231385Y-108056927D01*
X135298752Y-108157748D01*
X135399573Y-108225115D01*
X135499419Y-108244976D01*
X131726336Y-112018059D01*
X131680012Y-112049012D01*
X131557390Y-112232529D01*
X131525200Y-112394359D01*
X131525200Y-112394363D01*
X131514332Y-112449000D01*
X131525200Y-112503637D01*
X131525201Y-116539200D01*
X126072850Y-116539200D01*
X126262699Y-116255071D01*
X126348444Y-115824000D01*
X126262699Y-115392929D01*
X126018516Y-115027484D01*
X125653071Y-114783301D01*
X125330812Y-114719200D01*
X125113188Y-114719200D01*
X124790929Y-114783301D01*
X124425484Y-115027484D01*
X124181301Y-115392929D01*
X124095556Y-115824000D01*
X124181301Y-116255071D01*
X124371150Y-116539200D01*
X112438006Y-116539200D01*
X112383369Y-116528332D01*
X112328732Y-116539200D01*
X112328728Y-116539200D01*
X112166898Y-116571390D01*
X112166896Y-116571391D01*
X112166897Y-116571391D01*
X112029704Y-116663060D01*
X112029703Y-116663061D01*
X111983382Y-116694012D01*
X111952431Y-116740333D01*
X110917411Y-117775354D01*
X110778516Y-117567484D01*
X110413071Y-117323301D01*
X110090812Y-117259200D01*
X109873188Y-117259200D01*
X109550929Y-117323301D01*
X109185484Y-117567484D01*
X108941301Y-117932929D01*
X108855556Y-118364000D01*
X108075800Y-118364000D01*
X108075800Y-115824000D01*
X108855556Y-115824000D01*
X108941301Y-116255071D01*
X109185484Y-116620516D01*
X109550929Y-116864699D01*
X109873188Y-116928800D01*
X110090812Y-116928800D01*
X110413071Y-116864699D01*
X110778516Y-116620516D01*
X111022699Y-116255071D01*
X111108444Y-115824000D01*
X111022699Y-115392929D01*
X110778516Y-115027484D01*
X110413071Y-114783301D01*
X110090812Y-114719200D01*
X109873188Y-114719200D01*
X109550929Y-114783301D01*
X109185484Y-115027484D01*
X108941301Y-115392929D01*
X108855556Y-115824000D01*
X108075800Y-115824000D01*
X108075800Y-113284000D01*
X108855556Y-113284000D01*
X108941301Y-113715071D01*
X109185484Y-114080516D01*
X109550929Y-114324699D01*
X109873188Y-114388800D01*
X110090812Y-114388800D01*
X110413071Y-114324699D01*
X110778516Y-114080516D01*
X111022699Y-113715071D01*
X111108444Y-113284000D01*
X124095556Y-113284000D01*
X124181301Y-113715071D01*
X124425484Y-114080516D01*
X124790929Y-114324699D01*
X125113188Y-114388800D01*
X125330812Y-114388800D01*
X125653071Y-114324699D01*
X126018516Y-114080516D01*
X126262699Y-113715071D01*
X126348444Y-113284000D01*
X126262699Y-112852929D01*
X126018516Y-112487484D01*
X125653071Y-112243301D01*
X125330812Y-112179200D01*
X125113188Y-112179200D01*
X124790929Y-112243301D01*
X124425484Y-112487484D01*
X124181301Y-112852929D01*
X124095556Y-113284000D01*
X111108444Y-113284000D01*
X111022699Y-112852929D01*
X110778516Y-112487484D01*
X110413071Y-112243301D01*
X110090812Y-112179200D01*
X109873188Y-112179200D01*
X109550929Y-112243301D01*
X109185484Y-112487484D01*
X108941301Y-112852929D01*
X108855556Y-113284000D01*
X108075800Y-113284000D01*
X108075800Y-110744000D01*
X108855556Y-110744000D01*
X108941301Y-111175071D01*
X109185484Y-111540516D01*
X109550929Y-111784699D01*
X109873188Y-111848800D01*
X110090812Y-111848800D01*
X110413071Y-111784699D01*
X110778516Y-111540516D01*
X111022699Y-111175071D01*
X111027606Y-111150400D01*
X116545982Y-111150400D01*
X116586000Y-111158360D01*
X116626018Y-111150400D01*
X116626023Y-111150400D01*
X116744569Y-111126820D01*
X116878997Y-111036997D01*
X116901670Y-111003065D01*
X117160735Y-110744000D01*
X124095556Y-110744000D01*
X124181301Y-111175071D01*
X124425484Y-111540516D01*
X124790929Y-111784699D01*
X125113188Y-111848800D01*
X125330812Y-111848800D01*
X125653071Y-111784699D01*
X126018516Y-111540516D01*
X126262699Y-111175071D01*
X126348444Y-110744000D01*
X126262699Y-110312929D01*
X126018516Y-109947484D01*
X125653071Y-109703301D01*
X125330812Y-109639200D01*
X125113188Y-109639200D01*
X124790929Y-109703301D01*
X124425484Y-109947484D01*
X124181301Y-110312929D01*
X124095556Y-110744000D01*
X117160735Y-110744000D01*
X118383936Y-109520800D01*
X118474357Y-109520800D01*
X118678269Y-109436337D01*
X118834337Y-109280269D01*
X118918800Y-109076357D01*
X118918800Y-108855643D01*
X118834337Y-108651731D01*
X118678269Y-108495663D01*
X118474357Y-108411200D01*
X118253643Y-108411200D01*
X118049731Y-108495663D01*
X117893663Y-108651731D01*
X117809200Y-108855643D01*
X117809200Y-108946064D01*
X116417665Y-110337600D01*
X111027606Y-110337600D01*
X111022699Y-110312929D01*
X110778516Y-109947484D01*
X110413071Y-109703301D01*
X110090812Y-109639200D01*
X109873188Y-109639200D01*
X109550929Y-109703301D01*
X109185484Y-109947484D01*
X108941301Y-110312929D01*
X108855556Y-110744000D01*
X108075800Y-110744000D01*
X108075800Y-108204000D01*
X108855556Y-108204000D01*
X108941301Y-108635071D01*
X109185484Y-109000516D01*
X109550929Y-109244699D01*
X109873188Y-109308800D01*
X110090812Y-109308800D01*
X110413071Y-109244699D01*
X110778516Y-109000516D01*
X110992812Y-108679800D01*
X111066515Y-108679800D01*
X111113370Y-108689120D01*
X111160225Y-108679800D01*
X111160229Y-108679800D01*
X111299018Y-108652193D01*
X111456402Y-108547032D01*
X111482946Y-108507306D01*
X112433854Y-107556399D01*
X124325982Y-107556399D01*
X124181301Y-107772929D01*
X124095556Y-108204000D01*
X124181301Y-108635071D01*
X124425484Y-109000516D01*
X124790929Y-109244699D01*
X125113188Y-109308800D01*
X125330812Y-109308800D01*
X125653071Y-109244699D01*
X126018516Y-109000516D01*
X126262699Y-108635071D01*
X126348444Y-108204000D01*
X126262699Y-107772929D01*
X126118018Y-107556399D01*
X127861519Y-107556399D01*
X128052242Y-107635399D01*
X128272956Y-107635399D01*
X128476868Y-107550936D01*
X128611204Y-107416600D01*
X130387700Y-107416600D01*
X130387700Y-107998629D01*
X130434103Y-108110656D01*
X130519845Y-108196397D01*
X130631872Y-108242800D01*
X131036400Y-108242800D01*
X131112600Y-108166600D01*
X131112600Y-107340400D01*
X131417400Y-107340400D01*
X131417400Y-108166600D01*
X131493600Y-108242800D01*
X131898128Y-108242800D01*
X132010155Y-108196397D01*
X132095897Y-108110656D01*
X132142300Y-107998629D01*
X132142300Y-107416600D01*
X132066100Y-107340400D01*
X131417400Y-107340400D01*
X131112600Y-107340400D01*
X130463900Y-107340400D01*
X130387700Y-107416600D01*
X128611204Y-107416600D01*
X128632936Y-107394868D01*
X128717399Y-107190956D01*
X128717399Y-106970242D01*
X128632936Y-106766330D01*
X128476868Y-106610262D01*
X128272956Y-106525799D01*
X128052242Y-106525799D01*
X127861519Y-106604799D01*
X125802582Y-106604799D01*
X126018516Y-106460516D01*
X126074071Y-106377371D01*
X130387700Y-106377371D01*
X130387700Y-106959400D01*
X130463900Y-107035600D01*
X131112600Y-107035600D01*
X131112600Y-106209400D01*
X131417400Y-106209400D01*
X131417400Y-107035600D01*
X132066100Y-107035600D01*
X132142300Y-106959400D01*
X132142300Y-106377371D01*
X132095897Y-106265344D01*
X132010155Y-106179603D01*
X131898128Y-106133200D01*
X131493600Y-106133200D01*
X131417400Y-106209400D01*
X131112600Y-106209400D01*
X131036400Y-106133200D01*
X130631872Y-106133200D01*
X130519845Y-106179603D01*
X130434103Y-106265344D01*
X130387700Y-106377371D01*
X126074071Y-106377371D01*
X126262699Y-106095071D01*
X126348444Y-105664000D01*
X126262699Y-105232929D01*
X126018516Y-104867484D01*
X125653071Y-104623301D01*
X125330812Y-104559200D01*
X125113188Y-104559200D01*
X124790929Y-104623301D01*
X124425484Y-104867484D01*
X124181301Y-105232929D01*
X124095556Y-105664000D01*
X124181301Y-106095071D01*
X124425484Y-106460516D01*
X124641418Y-106604799D01*
X112283626Y-106604799D01*
X112236771Y-106595479D01*
X112189915Y-106604799D01*
X112189912Y-106604799D01*
X112051123Y-106632406D01*
X111893739Y-106737567D01*
X111867196Y-106777291D01*
X110962161Y-107682327D01*
X110778516Y-107407484D01*
X110413071Y-107163301D01*
X110090812Y-107099200D01*
X109873188Y-107099200D01*
X109550929Y-107163301D01*
X109185484Y-107407484D01*
X108941301Y-107772929D01*
X108855556Y-108204000D01*
X108075800Y-108204000D01*
X108075800Y-105664000D01*
X108855556Y-105664000D01*
X108941301Y-106095071D01*
X109185484Y-106460516D01*
X109550929Y-106704699D01*
X109873188Y-106768800D01*
X110090812Y-106768800D01*
X110413071Y-106704699D01*
X110778516Y-106460516D01*
X111022699Y-106095071D01*
X111108444Y-105664000D01*
X111022699Y-105232929D01*
X110778516Y-104867484D01*
X110413071Y-104623301D01*
X110090812Y-104559200D01*
X109873188Y-104559200D01*
X109550929Y-104623301D01*
X109185484Y-104867484D01*
X108941301Y-105232929D01*
X108855556Y-105664000D01*
X108075800Y-105664000D01*
X108075800Y-104438084D01*
X127679442Y-104438084D01*
X127767531Y-104582868D01*
X128169661Y-104702774D01*
X128587066Y-104659664D01*
X128772469Y-104582868D01*
X128860558Y-104438084D01*
X128270000Y-103847526D01*
X127679442Y-104438084D01*
X108075800Y-104438084D01*
X108075800Y-103124000D01*
X108855556Y-103124000D01*
X108941301Y-103555071D01*
X109185484Y-103920516D01*
X109550929Y-104164699D01*
X109873188Y-104228800D01*
X110090812Y-104228800D01*
X110413071Y-104164699D01*
X110778516Y-103920516D01*
X111022699Y-103555071D01*
X111108444Y-103124000D01*
X124095556Y-103124000D01*
X124181301Y-103555071D01*
X124425484Y-103920516D01*
X124790929Y-104164699D01*
X125113188Y-104228800D01*
X125330812Y-104228800D01*
X125653071Y-104164699D01*
X126018516Y-103920516D01*
X126262699Y-103555071D01*
X126267355Y-103531661D01*
X127199226Y-103531661D01*
X127242336Y-103949066D01*
X127319132Y-104134469D01*
X127463916Y-104222558D01*
X128054474Y-103632000D01*
X128485526Y-103632000D01*
X129076084Y-104222558D01*
X129220868Y-104134469D01*
X129272115Y-103962600D01*
X130249200Y-103962600D01*
X130249200Y-104794628D01*
X130295603Y-104906655D01*
X130381344Y-104992397D01*
X130493371Y-105038800D01*
X131075400Y-105038800D01*
X131151600Y-104962600D01*
X131151600Y-103886400D01*
X131456400Y-103886400D01*
X131456400Y-104962600D01*
X131532600Y-105038800D01*
X132114629Y-105038800D01*
X132226656Y-104992397D01*
X132312397Y-104906655D01*
X132358800Y-104794628D01*
X132358800Y-103962600D01*
X132282600Y-103886400D01*
X131456400Y-103886400D01*
X131151600Y-103886400D01*
X130325400Y-103886400D01*
X130249200Y-103962600D01*
X129272115Y-103962600D01*
X129340774Y-103732339D01*
X129297664Y-103314934D01*
X129220868Y-103129531D01*
X129076084Y-103041442D01*
X128485526Y-103632000D01*
X128054474Y-103632000D01*
X127463916Y-103041442D01*
X127319132Y-103129531D01*
X127199226Y-103531661D01*
X126267355Y-103531661D01*
X126348444Y-103124000D01*
X126289152Y-102825916D01*
X127679442Y-102825916D01*
X128270000Y-103416474D01*
X128860558Y-102825916D01*
X128772469Y-102681132D01*
X128746445Y-102673372D01*
X130249200Y-102673372D01*
X130249200Y-103505400D01*
X130325400Y-103581600D01*
X131151600Y-103581600D01*
X131151600Y-102505400D01*
X131456400Y-102505400D01*
X131456400Y-103581600D01*
X132282600Y-103581600D01*
X132358800Y-103505400D01*
X132358800Y-102673372D01*
X132312397Y-102561345D01*
X132226656Y-102475603D01*
X132114629Y-102429200D01*
X131532600Y-102429200D01*
X131456400Y-102505400D01*
X131151600Y-102505400D01*
X131075400Y-102429200D01*
X130493371Y-102429200D01*
X130381344Y-102475603D01*
X130295603Y-102561345D01*
X130249200Y-102673372D01*
X128746445Y-102673372D01*
X128370339Y-102561226D01*
X127952934Y-102604336D01*
X127767531Y-102681132D01*
X127679442Y-102825916D01*
X126289152Y-102825916D01*
X126262699Y-102692929D01*
X126018516Y-102327484D01*
X125653071Y-102083301D01*
X125330812Y-102019200D01*
X125113188Y-102019200D01*
X124790929Y-102083301D01*
X124425484Y-102327484D01*
X124181301Y-102692929D01*
X124095556Y-103124000D01*
X111108444Y-103124000D01*
X111022699Y-102692929D01*
X110778516Y-102327484D01*
X110413071Y-102083301D01*
X110090812Y-102019200D01*
X109873188Y-102019200D01*
X109550929Y-102083301D01*
X109185484Y-102327484D01*
X108941301Y-102692929D01*
X108855556Y-103124000D01*
X108075800Y-103124000D01*
X108075800Y-100584000D01*
X108855556Y-100584000D01*
X108941301Y-101015071D01*
X109185484Y-101380516D01*
X109550929Y-101624699D01*
X109873188Y-101688800D01*
X110090812Y-101688800D01*
X110413071Y-101624699D01*
X110778516Y-101380516D01*
X111022699Y-101015071D01*
X111108444Y-100584000D01*
X124095556Y-100584000D01*
X124181301Y-101015071D01*
X124425484Y-101380516D01*
X124790929Y-101624699D01*
X125113188Y-101688800D01*
X125330812Y-101688800D01*
X125653071Y-101624699D01*
X126018516Y-101380516D01*
X126262699Y-101015071D01*
X126348444Y-100584000D01*
X126262699Y-100152929D01*
X126018516Y-99787484D01*
X125653071Y-99543301D01*
X125330812Y-99479200D01*
X125113188Y-99479200D01*
X124790929Y-99543301D01*
X124425484Y-99787484D01*
X124181301Y-100152929D01*
X124095556Y-100584000D01*
X111108444Y-100584000D01*
X111022699Y-100152929D01*
X110778516Y-99787484D01*
X110413071Y-99543301D01*
X110090812Y-99479200D01*
X109873188Y-99479200D01*
X109550929Y-99543301D01*
X109185484Y-99787484D01*
X108941301Y-100152929D01*
X108855556Y-100584000D01*
X108075800Y-100584000D01*
X108075800Y-98044000D01*
X108855556Y-98044000D01*
X108941301Y-98475071D01*
X109185484Y-98840516D01*
X109550929Y-99084699D01*
X109873188Y-99148800D01*
X110090812Y-99148800D01*
X110413071Y-99084699D01*
X110778516Y-98840516D01*
X111022699Y-98475071D01*
X111108444Y-98044000D01*
X124095556Y-98044000D01*
X124181301Y-98475071D01*
X124425484Y-98840516D01*
X124790929Y-99084699D01*
X125113188Y-99148800D01*
X125330812Y-99148800D01*
X125653071Y-99084699D01*
X126018516Y-98840516D01*
X126262699Y-98475071D01*
X126348444Y-98044000D01*
X126262699Y-97612929D01*
X126018516Y-97247484D01*
X125653071Y-97003301D01*
X125330812Y-96939200D01*
X125113188Y-96939200D01*
X124790929Y-97003301D01*
X124425484Y-97247484D01*
X124181301Y-97612929D01*
X124095556Y-98044000D01*
X111108444Y-98044000D01*
X111022699Y-97612929D01*
X110778516Y-97247484D01*
X110413071Y-97003301D01*
X110090812Y-96939200D01*
X109873188Y-96939200D01*
X109550929Y-97003301D01*
X109185484Y-97247484D01*
X108941301Y-97612929D01*
X108855556Y-98044000D01*
X108075800Y-98044000D01*
X108075800Y-95504000D01*
X108855556Y-95504000D01*
X108941301Y-95935071D01*
X109185484Y-96300516D01*
X109550929Y-96544699D01*
X109873188Y-96608800D01*
X110090812Y-96608800D01*
X110413071Y-96544699D01*
X110778516Y-96300516D01*
X111022699Y-95935071D01*
X111108444Y-95504000D01*
X124095556Y-95504000D01*
X124181301Y-95935071D01*
X124425484Y-96300516D01*
X124790929Y-96544699D01*
X125113188Y-96608800D01*
X125330812Y-96608800D01*
X125653071Y-96544699D01*
X125818743Y-96434000D01*
X131393229Y-96434000D01*
X131393229Y-98434000D01*
X131416885Y-98552927D01*
X131484252Y-98653748D01*
X131585073Y-98721115D01*
X131704000Y-98744771D01*
X132918201Y-98744771D01*
X132918200Y-102423229D01*
X132854000Y-102423229D01*
X132735073Y-102446885D01*
X132634252Y-102514252D01*
X132566885Y-102615073D01*
X132543229Y-102734000D01*
X132543229Y-104734000D01*
X132566885Y-104852927D01*
X132634252Y-104953748D01*
X132664201Y-104973759D01*
X132664200Y-106149766D01*
X132658573Y-106150885D01*
X132557752Y-106218252D01*
X132490385Y-106319073D01*
X132466729Y-106438000D01*
X132466729Y-107938000D01*
X132490385Y-108056927D01*
X132557752Y-108157748D01*
X132658573Y-108225115D01*
X132777500Y-108248771D01*
X133922500Y-108248771D01*
X134041427Y-108225115D01*
X134142248Y-108157748D01*
X134209615Y-108056927D01*
X134233271Y-107938000D01*
X134233271Y-106438000D01*
X134209615Y-106319073D01*
X134142248Y-106218252D01*
X134041427Y-106150885D01*
X134035800Y-106149766D01*
X134035800Y-105044771D01*
X134354000Y-105044771D01*
X134472927Y-105021115D01*
X134573748Y-104953748D01*
X134641115Y-104852927D01*
X134664771Y-104734000D01*
X134664771Y-102734000D01*
X134641115Y-102615073D01*
X134573748Y-102514252D01*
X134472927Y-102446885D01*
X134354000Y-102423229D01*
X134289800Y-102423229D01*
X134289800Y-98744771D01*
X135504000Y-98744771D01*
X135622927Y-98721115D01*
X135723748Y-98653748D01*
X135791115Y-98552927D01*
X135814771Y-98434000D01*
X135814771Y-96434000D01*
X135791115Y-96315073D01*
X135723748Y-96214252D01*
X135622927Y-96146885D01*
X135504000Y-96123229D01*
X134289800Y-96123229D01*
X134289800Y-95293912D01*
X134498216Y-95085496D01*
X134658800Y-94697813D01*
X134658800Y-94278187D01*
X134498216Y-93890504D01*
X134201496Y-93593784D01*
X133813813Y-93433200D01*
X133394187Y-93433200D01*
X133006504Y-93593784D01*
X132709784Y-93890504D01*
X132549200Y-94278187D01*
X132549200Y-94697813D01*
X132709784Y-95085496D01*
X132918201Y-95293913D01*
X132918200Y-96123229D01*
X131704000Y-96123229D01*
X131585073Y-96146885D01*
X131484252Y-96214252D01*
X131416885Y-96315073D01*
X131393229Y-96434000D01*
X125818743Y-96434000D01*
X126018516Y-96300516D01*
X126262699Y-95935071D01*
X126348444Y-95504000D01*
X126262699Y-95072929D01*
X126018516Y-94707484D01*
X125653071Y-94463301D01*
X125330812Y-94399200D01*
X125113188Y-94399200D01*
X124790929Y-94463301D01*
X124425484Y-94707484D01*
X124181301Y-95072929D01*
X124095556Y-95504000D01*
X111108444Y-95504000D01*
X111022699Y-95072929D01*
X110778516Y-94707484D01*
X110413071Y-94463301D01*
X110090812Y-94399200D01*
X109873188Y-94399200D01*
X109550929Y-94463301D01*
X109185484Y-94707484D01*
X108941301Y-95072929D01*
X108855556Y-95504000D01*
X108075800Y-95504000D01*
X108075800Y-92964000D01*
X108855556Y-92964000D01*
X108941301Y-93395071D01*
X109185484Y-93760516D01*
X109550929Y-94004699D01*
X109873188Y-94068800D01*
X110090812Y-94068800D01*
X110413071Y-94004699D01*
X110778516Y-93760516D01*
X111022699Y-93395071D01*
X111108444Y-92964000D01*
X124095556Y-92964000D01*
X124181301Y-93395071D01*
X124425484Y-93760516D01*
X124790929Y-94004699D01*
X125113188Y-94068800D01*
X125330812Y-94068800D01*
X125653071Y-94004699D01*
X126018516Y-93760516D01*
X126262699Y-93395071D01*
X126348444Y-92964000D01*
X126262699Y-92532929D01*
X126018516Y-92167484D01*
X125653071Y-91923301D01*
X125330812Y-91859200D01*
X125113188Y-91859200D01*
X124790929Y-91923301D01*
X124425484Y-92167484D01*
X124181301Y-92532929D01*
X124095556Y-92964000D01*
X111108444Y-92964000D01*
X111022699Y-92532929D01*
X110778516Y-92167484D01*
X110413071Y-91923301D01*
X110090812Y-91859200D01*
X109873188Y-91859200D01*
X109550929Y-91923301D01*
X109185484Y-92167484D01*
X108941301Y-92532929D01*
X108855556Y-92964000D01*
X108075800Y-92964000D01*
X108075800Y-90424000D01*
X108855556Y-90424000D01*
X108941301Y-90855071D01*
X109185484Y-91220516D01*
X109550929Y-91464699D01*
X109873188Y-91528800D01*
X110090812Y-91528800D01*
X110413071Y-91464699D01*
X110778516Y-91220516D01*
X111022699Y-90855071D01*
X111108444Y-90424000D01*
X124095556Y-90424000D01*
X124181301Y-90855071D01*
X124425484Y-91220516D01*
X124790929Y-91464699D01*
X125113188Y-91528800D01*
X125330812Y-91528800D01*
X125653071Y-91464699D01*
X126018516Y-91220516D01*
X126262699Y-90855071D01*
X126348444Y-90424000D01*
X126262699Y-89992929D01*
X126018516Y-89627484D01*
X125653071Y-89383301D01*
X125330812Y-89319200D01*
X125113188Y-89319200D01*
X124790929Y-89383301D01*
X124425484Y-89627484D01*
X124181301Y-89992929D01*
X124095556Y-90424000D01*
X111108444Y-90424000D01*
X111022699Y-89992929D01*
X110778516Y-89627484D01*
X110413071Y-89383301D01*
X110090812Y-89319200D01*
X109873188Y-89319200D01*
X109550929Y-89383301D01*
X109185484Y-89627484D01*
X108941301Y-89992929D01*
X108855556Y-90424000D01*
X108075800Y-90424000D01*
X108075800Y-86263318D01*
X108107318Y-86231800D01*
X167482682Y-86231800D01*
X167514200Y-86263318D01*
G36*
X124247151Y-117844108D02*
X124165074Y-118042300D01*
X124204753Y-118211600D01*
X125069600Y-118211600D01*
X125069600Y-118191600D01*
X125374400Y-118191600D01*
X125374400Y-118211600D01*
X126239247Y-118211600D01*
X126278926Y-118042300D01*
X126196849Y-117844108D01*
X126036870Y-117648800D01*
X131525200Y-117648800D01*
X131525201Y-121180358D01*
X131514332Y-121235000D01*
X131557391Y-121451472D01*
X131649060Y-121588665D01*
X131649062Y-121588667D01*
X131680013Y-121634988D01*
X131726334Y-121665939D01*
X132670229Y-122609834D01*
X132670229Y-123281000D01*
X132693885Y-123399927D01*
X132761252Y-123500748D01*
X132862073Y-123568115D01*
X132981000Y-123591771D01*
X133602166Y-123591771D01*
X134472742Y-124462348D01*
X134454885Y-124489073D01*
X134431229Y-124608000D01*
X134431229Y-125645271D01*
X134400988Y-125600012D01*
X134217472Y-125477390D01*
X134055642Y-125445200D01*
X134055637Y-125445200D01*
X134001000Y-125434332D01*
X133946363Y-125445200D01*
X133267771Y-125445200D01*
X133267771Y-125385000D01*
X133244115Y-125266073D01*
X133176748Y-125165252D01*
X133075927Y-125097885D01*
X132957000Y-125074229D01*
X131457000Y-125074229D01*
X131338073Y-125097885D01*
X131237252Y-125165252D01*
X131169885Y-125266073D01*
X131146229Y-125385000D01*
X131146229Y-125445200D01*
X130473771Y-125445200D01*
X130473771Y-125385000D01*
X130450115Y-125266073D01*
X130382748Y-125165252D01*
X130281927Y-125097885D01*
X130163000Y-125074229D01*
X128663000Y-125074229D01*
X128544073Y-125097885D01*
X128443252Y-125165252D01*
X128375885Y-125266073D01*
X128352229Y-125385000D01*
X128352229Y-126530000D01*
X128375885Y-126648927D01*
X128443252Y-126749748D01*
X128544073Y-126817115D01*
X128663000Y-126840771D01*
X130163000Y-126840771D01*
X130281927Y-126817115D01*
X130382748Y-126749748D01*
X130450115Y-126648927D01*
X130468838Y-126554800D01*
X131151162Y-126554800D01*
X131169885Y-126648927D01*
X131237252Y-126749748D01*
X131338073Y-126817115D01*
X131457000Y-126840771D01*
X132957000Y-126840771D01*
X133075927Y-126817115D01*
X133176748Y-126749748D01*
X133244115Y-126648927D01*
X133262838Y-126554800D01*
X133771196Y-126554800D01*
X133808058Y-126591662D01*
X133839012Y-126637988D01*
X133931442Y-126699748D01*
X134022527Y-126760610D01*
X134055231Y-126767115D01*
X134184358Y-126792800D01*
X134184361Y-126792800D01*
X134239000Y-126803668D01*
X134293638Y-126792800D01*
X134306096Y-126792800D01*
X134192528Y-126815390D01*
X134155869Y-126839885D01*
X134055334Y-126907060D01*
X134055333Y-126907061D01*
X134009012Y-126938012D01*
X133978061Y-126984333D01*
X133517195Y-127445200D01*
X133262838Y-127445200D01*
X133244115Y-127351073D01*
X133176748Y-127250252D01*
X133075927Y-127182885D01*
X132957000Y-127159229D01*
X131457000Y-127159229D01*
X131338073Y-127182885D01*
X131237252Y-127250252D01*
X131169885Y-127351073D01*
X131146229Y-127470000D01*
X131146229Y-128252888D01*
X130080918Y-129318200D01*
X129456961Y-129318200D01*
X129058561Y-128919800D01*
X129184400Y-128919800D01*
X129260600Y-128843600D01*
X129260600Y-128194900D01*
X129565400Y-128194900D01*
X129565400Y-128843600D01*
X129641600Y-128919800D01*
X130223629Y-128919800D01*
X130335656Y-128873397D01*
X130421397Y-128787655D01*
X130467800Y-128675628D01*
X130467800Y-128271100D01*
X130391600Y-128194900D01*
X129565400Y-128194900D01*
X129260600Y-128194900D01*
X128434400Y-128194900D01*
X128384030Y-128245270D01*
X127548132Y-127409372D01*
X128358200Y-127409372D01*
X128358200Y-127813900D01*
X128434400Y-127890100D01*
X129260600Y-127890100D01*
X129260600Y-127241400D01*
X129565400Y-127241400D01*
X129565400Y-127890100D01*
X130391600Y-127890100D01*
X130467800Y-127813900D01*
X130467800Y-127409372D01*
X130421397Y-127297345D01*
X130335656Y-127211603D01*
X130223629Y-127165200D01*
X129641600Y-127165200D01*
X129565400Y-127241400D01*
X129260600Y-127241400D01*
X129184400Y-127165200D01*
X128602371Y-127165200D01*
X128490344Y-127211603D01*
X128404603Y-127297345D01*
X128358200Y-127409372D01*
X127548132Y-127409372D01*
X126821201Y-126682441D01*
X126821201Y-124972134D01*
X126830521Y-124925279D01*
X126821201Y-124878423D01*
X126821201Y-124878420D01*
X126793594Y-124739631D01*
X126737280Y-124655352D01*
X126714976Y-124621971D01*
X126714975Y-124621970D01*
X126688433Y-124582247D01*
X126648709Y-124555704D01*
X126357099Y-124264095D01*
X126330555Y-124224369D01*
X126173171Y-124119208D01*
X126108206Y-124106286D01*
X126262699Y-123875071D01*
X126348444Y-123444000D01*
X126262699Y-123012929D01*
X126018516Y-122647484D01*
X125653071Y-122403301D01*
X125330812Y-122339200D01*
X125113188Y-122339200D01*
X124790929Y-122403301D01*
X124425484Y-122647484D01*
X124181301Y-123012929D01*
X124118235Y-123329986D01*
X121692249Y-120904000D01*
X124095556Y-120904000D01*
X124181301Y-121335071D01*
X124425484Y-121700516D01*
X124790929Y-121944699D01*
X125113188Y-122008800D01*
X125330812Y-122008800D01*
X125653071Y-121944699D01*
X126018516Y-121700516D01*
X126262699Y-121335071D01*
X126348444Y-120904000D01*
X126262699Y-120472929D01*
X126018516Y-120107484D01*
X125653071Y-119863301D01*
X125330812Y-119799200D01*
X125113188Y-119799200D01*
X124790929Y-119863301D01*
X124425484Y-120107484D01*
X124181301Y-120472929D01*
X124095556Y-120904000D01*
X121692249Y-120904000D01*
X119473949Y-118685700D01*
X124165074Y-118685700D01*
X124247151Y-118883892D01*
X124520311Y-119217376D01*
X124900297Y-119420941D01*
X125069600Y-119382054D01*
X125069600Y-118516400D01*
X125374400Y-118516400D01*
X125374400Y-119382054D01*
X125543703Y-119420941D01*
X125923689Y-119217376D01*
X126196849Y-118883892D01*
X126278926Y-118685700D01*
X126239247Y-118516400D01*
X125374400Y-118516400D01*
X125069600Y-118516400D01*
X124204753Y-118516400D01*
X124165074Y-118685700D01*
X119473949Y-118685700D01*
X119282390Y-118494142D01*
X119282390Y-118413517D01*
X119361390Y-118222794D01*
X119361390Y-118002080D01*
X119276927Y-117798168D01*
X119127559Y-117648800D01*
X124407130Y-117648800D01*
X124247151Y-117844108D01*
X124247151Y-117844108D01*
G37*
X124247151Y-117844108D02*
X124165074Y-118042300D01*
X124204753Y-118211600D01*
X125069600Y-118211600D01*
X125069600Y-118191600D01*
X125374400Y-118191600D01*
X125374400Y-118211600D01*
X126239247Y-118211600D01*
X126278926Y-118042300D01*
X126196849Y-117844108D01*
X126036870Y-117648800D01*
X131525200Y-117648800D01*
X131525201Y-121180358D01*
X131514332Y-121235000D01*
X131557391Y-121451472D01*
X131649060Y-121588665D01*
X131649062Y-121588667D01*
X131680013Y-121634988D01*
X131726334Y-121665939D01*
X132670229Y-122609834D01*
X132670229Y-123281000D01*
X132693885Y-123399927D01*
X132761252Y-123500748D01*
X132862073Y-123568115D01*
X132981000Y-123591771D01*
X133602166Y-123591771D01*
X134472742Y-124462348D01*
X134454885Y-124489073D01*
X134431229Y-124608000D01*
X134431229Y-125645271D01*
X134400988Y-125600012D01*
X134217472Y-125477390D01*
X134055642Y-125445200D01*
X134055637Y-125445200D01*
X134001000Y-125434332D01*
X133946363Y-125445200D01*
X133267771Y-125445200D01*
X133267771Y-125385000D01*
X133244115Y-125266073D01*
X133176748Y-125165252D01*
X133075927Y-125097885D01*
X132957000Y-125074229D01*
X131457000Y-125074229D01*
X131338073Y-125097885D01*
X131237252Y-125165252D01*
X131169885Y-125266073D01*
X131146229Y-125385000D01*
X131146229Y-125445200D01*
X130473771Y-125445200D01*
X130473771Y-125385000D01*
X130450115Y-125266073D01*
X130382748Y-125165252D01*
X130281927Y-125097885D01*
X130163000Y-125074229D01*
X128663000Y-125074229D01*
X128544073Y-125097885D01*
X128443252Y-125165252D01*
X128375885Y-125266073D01*
X128352229Y-125385000D01*
X128352229Y-126530000D01*
X128375885Y-126648927D01*
X128443252Y-126749748D01*
X128544073Y-126817115D01*
X128663000Y-126840771D01*
X130163000Y-126840771D01*
X130281927Y-126817115D01*
X130382748Y-126749748D01*
X130450115Y-126648927D01*
X130468838Y-126554800D01*
X131151162Y-126554800D01*
X131169885Y-126648927D01*
X131237252Y-126749748D01*
X131338073Y-126817115D01*
X131457000Y-126840771D01*
X132957000Y-126840771D01*
X133075927Y-126817115D01*
X133176748Y-126749748D01*
X133244115Y-126648927D01*
X133262838Y-126554800D01*
X133771196Y-126554800D01*
X133808058Y-126591662D01*
X133839012Y-126637988D01*
X133931442Y-126699748D01*
X134022527Y-126760610D01*
X134055231Y-126767115D01*
X134184358Y-126792800D01*
X134184361Y-126792800D01*
X134239000Y-126803668D01*
X134293638Y-126792800D01*
X134306096Y-126792800D01*
X134192528Y-126815390D01*
X134155869Y-126839885D01*
X134055334Y-126907060D01*
X134055333Y-126907061D01*
X134009012Y-126938012D01*
X133978061Y-126984333D01*
X133517195Y-127445200D01*
X133262838Y-127445200D01*
X133244115Y-127351073D01*
X133176748Y-127250252D01*
X133075927Y-127182885D01*
X132957000Y-127159229D01*
X131457000Y-127159229D01*
X131338073Y-127182885D01*
X131237252Y-127250252D01*
X131169885Y-127351073D01*
X131146229Y-127470000D01*
X131146229Y-128252888D01*
X130080918Y-129318200D01*
X129456961Y-129318200D01*
X129058561Y-128919800D01*
X129184400Y-128919800D01*
X129260600Y-128843600D01*
X129260600Y-128194900D01*
X129565400Y-128194900D01*
X129565400Y-128843600D01*
X129641600Y-128919800D01*
X130223629Y-128919800D01*
X130335656Y-128873397D01*
X130421397Y-128787655D01*
X130467800Y-128675628D01*
X130467800Y-128271100D01*
X130391600Y-128194900D01*
X129565400Y-128194900D01*
X129260600Y-128194900D01*
X128434400Y-128194900D01*
X128384030Y-128245270D01*
X127548132Y-127409372D01*
X128358200Y-127409372D01*
X128358200Y-127813900D01*
X128434400Y-127890100D01*
X129260600Y-127890100D01*
X129260600Y-127241400D01*
X129565400Y-127241400D01*
X129565400Y-127890100D01*
X130391600Y-127890100D01*
X130467800Y-127813900D01*
X130467800Y-127409372D01*
X130421397Y-127297345D01*
X130335656Y-127211603D01*
X130223629Y-127165200D01*
X129641600Y-127165200D01*
X129565400Y-127241400D01*
X129260600Y-127241400D01*
X129184400Y-127165200D01*
X128602371Y-127165200D01*
X128490344Y-127211603D01*
X128404603Y-127297345D01*
X128358200Y-127409372D01*
X127548132Y-127409372D01*
X126821201Y-126682441D01*
X126821201Y-124972134D01*
X126830521Y-124925279D01*
X126821201Y-124878423D01*
X126821201Y-124878420D01*
X126793594Y-124739631D01*
X126737280Y-124655352D01*
X126714976Y-124621971D01*
X126714975Y-124621970D01*
X126688433Y-124582247D01*
X126648709Y-124555704D01*
X126357099Y-124264095D01*
X126330555Y-124224369D01*
X126173171Y-124119208D01*
X126108206Y-124106286D01*
X126262699Y-123875071D01*
X126348444Y-123444000D01*
X126262699Y-123012929D01*
X126018516Y-122647484D01*
X125653071Y-122403301D01*
X125330812Y-122339200D01*
X125113188Y-122339200D01*
X124790929Y-122403301D01*
X124425484Y-122647484D01*
X124181301Y-123012929D01*
X124118235Y-123329986D01*
X121692249Y-120904000D01*
X124095556Y-120904000D01*
X124181301Y-121335071D01*
X124425484Y-121700516D01*
X124790929Y-121944699D01*
X125113188Y-122008800D01*
X125330812Y-122008800D01*
X125653071Y-121944699D01*
X126018516Y-121700516D01*
X126262699Y-121335071D01*
X126348444Y-120904000D01*
X126262699Y-120472929D01*
X126018516Y-120107484D01*
X125653071Y-119863301D01*
X125330812Y-119799200D01*
X125113188Y-119799200D01*
X124790929Y-119863301D01*
X124425484Y-120107484D01*
X124181301Y-120472929D01*
X124095556Y-120904000D01*
X121692249Y-120904000D01*
X119473949Y-118685700D01*
X124165074Y-118685700D01*
X124247151Y-118883892D01*
X124520311Y-119217376D01*
X124900297Y-119420941D01*
X125069600Y-119382054D01*
X125069600Y-118516400D01*
X125374400Y-118516400D01*
X125374400Y-119382054D01*
X125543703Y-119420941D01*
X125923689Y-119217376D01*
X126196849Y-118883892D01*
X126278926Y-118685700D01*
X126239247Y-118516400D01*
X125374400Y-118516400D01*
X125069600Y-118516400D01*
X124204753Y-118516400D01*
X124165074Y-118685700D01*
X119473949Y-118685700D01*
X119282390Y-118494142D01*
X119282390Y-118413517D01*
X119361390Y-118222794D01*
X119361390Y-118002080D01*
X119276927Y-117798168D01*
X119127559Y-117648800D01*
X124407130Y-117648800D01*
X124247151Y-117844108D01*
G04 #@! TD*
M02*
