G04 #@! TF.FileFunction,Legend,Bot*
%FSLAX46Y46*%
G04 Gerber Fmt 4.6, Leading zero omitted, Abs format (unit mm)*
G04 Created by KiCad (PCBNEW 4.0.0-rc2-1-stable) date Monday, January 18, 2016 'PMt' 02:37:55 PM*
%MOMM*%
G01*
G04 APERTURE LIST*
%ADD10C,0.100000*%
%ADD11C,0.300000*%
G04 APERTURE END LIST*
D10*
D11*
X145297000Y-104644857D02*
X145297000Y-105359143D01*
X145725571Y-104502000D02*
X144225571Y-105002000D01*
X145725571Y-105502000D01*
X145725571Y-106002000D02*
X144725571Y-106002000D01*
X145011286Y-106002000D02*
X144868429Y-106073428D01*
X144797000Y-106144857D01*
X144725571Y-106287714D01*
X144725571Y-106430571D01*
X145725571Y-107573428D02*
X144225571Y-107573428D01*
X145654143Y-107573428D02*
X145725571Y-107430571D01*
X145725571Y-107144857D01*
X145654143Y-107001999D01*
X145582714Y-106930571D01*
X145439857Y-106859142D01*
X145011286Y-106859142D01*
X144868429Y-106930571D01*
X144797000Y-107001999D01*
X144725571Y-107144857D01*
X144725571Y-107430571D01*
X144797000Y-107573428D01*
X144725571Y-108930571D02*
X145725571Y-108930571D01*
X144725571Y-108287714D02*
X145511286Y-108287714D01*
X145654143Y-108359142D01*
X145725571Y-108502000D01*
X145725571Y-108716285D01*
X145654143Y-108859142D01*
X145582714Y-108930571D01*
X145725571Y-109644857D02*
X144725571Y-109644857D01*
X144225571Y-109644857D02*
X144297000Y-109573428D01*
X144368429Y-109644857D01*
X144297000Y-109716285D01*
X144225571Y-109644857D01*
X144368429Y-109644857D01*
X144725571Y-110359143D02*
X145725571Y-110359143D01*
X144868429Y-110359143D02*
X144797000Y-110430571D01*
X144725571Y-110573429D01*
X144725571Y-110787714D01*
X144797000Y-110930571D01*
X144939857Y-111002000D01*
X145725571Y-111002000D01*
X145725571Y-111930572D02*
X145654143Y-111787714D01*
X145582714Y-111716286D01*
X145439857Y-111644857D01*
X145011286Y-111644857D01*
X144868429Y-111716286D01*
X144797000Y-111787714D01*
X144725571Y-111930572D01*
X144725571Y-112144857D01*
X144797000Y-112287714D01*
X144868429Y-112359143D01*
X145011286Y-112430572D01*
X145439857Y-112430572D01*
X145582714Y-112359143D01*
X145654143Y-112287714D01*
X145725571Y-112144857D01*
X145725571Y-111930572D01*
X144225571Y-114216286D02*
X145439857Y-114216286D01*
X145582714Y-114287714D01*
X145654143Y-114359143D01*
X145725571Y-114502000D01*
X145725571Y-114787714D01*
X145654143Y-114930572D01*
X145582714Y-115002000D01*
X145439857Y-115073429D01*
X144225571Y-115073429D01*
X144725571Y-115787715D02*
X145725571Y-115787715D01*
X144868429Y-115787715D02*
X144797000Y-115859143D01*
X144725571Y-116002001D01*
X144725571Y-116216286D01*
X144797000Y-116359143D01*
X144939857Y-116430572D01*
X145725571Y-116430572D01*
X145725571Y-117359144D02*
X145654143Y-117216286D01*
X145582714Y-117144858D01*
X145439857Y-117073429D01*
X145011286Y-117073429D01*
X144868429Y-117144858D01*
X144797000Y-117216286D01*
X144725571Y-117359144D01*
X144725571Y-117573429D01*
X144797000Y-117716286D01*
X144868429Y-117787715D01*
X145011286Y-117859144D01*
X145439857Y-117859144D01*
X145582714Y-117787715D01*
X145654143Y-117716286D01*
X145725571Y-117573429D01*
X145725571Y-117359144D01*
X148125571Y-97930572D02*
X146625571Y-97930572D01*
X148125571Y-98787715D01*
X146625571Y-98787715D01*
X148054143Y-100073429D02*
X148125571Y-99930572D01*
X148125571Y-99644858D01*
X148054143Y-99502001D01*
X147911286Y-99430572D01*
X147339857Y-99430572D01*
X147197000Y-99502001D01*
X147125571Y-99644858D01*
X147125571Y-99930572D01*
X147197000Y-100073429D01*
X147339857Y-100144858D01*
X147482714Y-100144858D01*
X147625571Y-99430572D01*
X147125571Y-100573429D02*
X147125571Y-101144858D01*
X146625571Y-100787715D02*
X147911286Y-100787715D01*
X148054143Y-100859143D01*
X148125571Y-101002001D01*
X148125571Y-101144858D01*
X147125571Y-101502001D02*
X148125571Y-101787715D01*
X147411286Y-102073429D01*
X148125571Y-102359144D01*
X147125571Y-102644858D01*
X148125571Y-103430573D02*
X148054143Y-103287715D01*
X147982714Y-103216287D01*
X147839857Y-103144858D01*
X147411286Y-103144858D01*
X147268429Y-103216287D01*
X147197000Y-103287715D01*
X147125571Y-103430573D01*
X147125571Y-103644858D01*
X147197000Y-103787715D01*
X147268429Y-103859144D01*
X147411286Y-103930573D01*
X147839857Y-103930573D01*
X147982714Y-103859144D01*
X148054143Y-103787715D01*
X148125571Y-103644858D01*
X148125571Y-103430573D01*
X148125571Y-104573430D02*
X147125571Y-104573430D01*
X147411286Y-104573430D02*
X147268429Y-104644858D01*
X147197000Y-104716287D01*
X147125571Y-104859144D01*
X147125571Y-105002001D01*
X148125571Y-105502001D02*
X146625571Y-105502001D01*
X147554143Y-105644858D02*
X148125571Y-106073429D01*
X147125571Y-106073429D02*
X147697000Y-105502001D01*
X147697000Y-107787715D02*
X147697000Y-108502001D01*
X148125571Y-107644858D02*
X146625571Y-108144858D01*
X148125571Y-108644858D01*
X147125571Y-109144858D02*
X148125571Y-109144858D01*
X147268429Y-109144858D02*
X147197000Y-109216286D01*
X147125571Y-109359144D01*
X147125571Y-109573429D01*
X147197000Y-109716286D01*
X147339857Y-109787715D01*
X148125571Y-109787715D01*
X148125571Y-111144858D02*
X147339857Y-111144858D01*
X147197000Y-111073429D01*
X147125571Y-110930572D01*
X147125571Y-110644858D01*
X147197000Y-110502001D01*
X148054143Y-111144858D02*
X148125571Y-111002001D01*
X148125571Y-110644858D01*
X148054143Y-110502001D01*
X147911286Y-110430572D01*
X147768429Y-110430572D01*
X147625571Y-110502001D01*
X147554143Y-110644858D01*
X147554143Y-111002001D01*
X147482714Y-111144858D01*
X148125571Y-112073430D02*
X148054143Y-111930572D01*
X147911286Y-111859144D01*
X146625571Y-111859144D01*
X147125571Y-112502001D02*
X148125571Y-112859144D01*
X147125571Y-113216286D02*
X148125571Y-112859144D01*
X148482714Y-112716286D01*
X148554143Y-112644858D01*
X148625571Y-112502001D01*
X147125571Y-113644858D02*
X147125571Y-114430572D01*
X148125571Y-113644858D01*
X148125571Y-114430572D01*
X148054143Y-115573429D02*
X148125571Y-115430572D01*
X148125571Y-115144858D01*
X148054143Y-115002001D01*
X147911286Y-114930572D01*
X147339857Y-114930572D01*
X147197000Y-115002001D01*
X147125571Y-115144858D01*
X147125571Y-115430572D01*
X147197000Y-115573429D01*
X147339857Y-115644858D01*
X147482714Y-115644858D01*
X147625571Y-114930572D01*
X148125571Y-116287715D02*
X147125571Y-116287715D01*
X147411286Y-116287715D02*
X147268429Y-116359143D01*
X147197000Y-116430572D01*
X147125571Y-116573429D01*
X147125571Y-116716286D01*
X148054143Y-118287714D02*
X148125571Y-118502000D01*
X148125571Y-118859143D01*
X148054143Y-119002000D01*
X147982714Y-119073429D01*
X147839857Y-119144857D01*
X147697000Y-119144857D01*
X147554143Y-119073429D01*
X147482714Y-119002000D01*
X147411286Y-118859143D01*
X147339857Y-118573429D01*
X147268429Y-118430571D01*
X147197000Y-118359143D01*
X147054143Y-118287714D01*
X146911286Y-118287714D01*
X146768429Y-118359143D01*
X146697000Y-118430571D01*
X146625571Y-118573429D01*
X146625571Y-118930571D01*
X146697000Y-119144857D01*
X148125571Y-119787714D02*
X146625571Y-119787714D01*
X148125571Y-120430571D02*
X147339857Y-120430571D01*
X147197000Y-120359142D01*
X147125571Y-120216285D01*
X147125571Y-120002000D01*
X147197000Y-119859142D01*
X147268429Y-119787714D01*
X148125571Y-121144857D02*
X147125571Y-121144857D01*
X146625571Y-121144857D02*
X146697000Y-121073428D01*
X146768429Y-121144857D01*
X146697000Y-121216285D01*
X146625571Y-121144857D01*
X146768429Y-121144857D01*
X148054143Y-122430571D02*
X148125571Y-122287714D01*
X148125571Y-122002000D01*
X148054143Y-121859143D01*
X147911286Y-121787714D01*
X147339857Y-121787714D01*
X147197000Y-121859143D01*
X147125571Y-122002000D01*
X147125571Y-122287714D01*
X147197000Y-122430571D01*
X147339857Y-122502000D01*
X147482714Y-122502000D01*
X147625571Y-121787714D01*
X148125571Y-123359143D02*
X148054143Y-123216285D01*
X147911286Y-123144857D01*
X146625571Y-123144857D01*
X148125571Y-124573428D02*
X146625571Y-124573428D01*
X148054143Y-124573428D02*
X148125571Y-124430571D01*
X148125571Y-124144857D01*
X148054143Y-124001999D01*
X147982714Y-123930571D01*
X147839857Y-123859142D01*
X147411286Y-123859142D01*
X147268429Y-123930571D01*
X147197000Y-124001999D01*
X147125571Y-124144857D01*
X147125571Y-124430571D01*
X147197000Y-124573428D01*
X150525571Y-106537715D02*
X149811286Y-106037715D01*
X150525571Y-105680572D02*
X149025571Y-105680572D01*
X149025571Y-106252000D01*
X149097000Y-106394858D01*
X149168429Y-106466286D01*
X149311286Y-106537715D01*
X149525571Y-106537715D01*
X149668429Y-106466286D01*
X149739857Y-106394858D01*
X149811286Y-106252000D01*
X149811286Y-105680572D01*
X150454143Y-107752000D02*
X150525571Y-107609143D01*
X150525571Y-107323429D01*
X150454143Y-107180572D01*
X150311286Y-107109143D01*
X149739857Y-107109143D01*
X149597000Y-107180572D01*
X149525571Y-107323429D01*
X149525571Y-107609143D01*
X149597000Y-107752000D01*
X149739857Y-107823429D01*
X149882714Y-107823429D01*
X150025571Y-107109143D01*
X149525571Y-108323429D02*
X150525571Y-108680572D01*
X149525571Y-109037714D01*
X150525571Y-109609143D02*
X149525571Y-109609143D01*
X149025571Y-109609143D02*
X149097000Y-109537714D01*
X149168429Y-109609143D01*
X149097000Y-109680571D01*
X149025571Y-109609143D01*
X149168429Y-109609143D01*
X150454143Y-110252000D02*
X150525571Y-110394857D01*
X150525571Y-110680572D01*
X150454143Y-110823429D01*
X150311286Y-110894857D01*
X150239857Y-110894857D01*
X150097000Y-110823429D01*
X150025571Y-110680572D01*
X150025571Y-110466286D01*
X149954143Y-110323429D01*
X149811286Y-110252000D01*
X149739857Y-110252000D01*
X149597000Y-110323429D01*
X149525571Y-110466286D01*
X149525571Y-110680572D01*
X149597000Y-110823429D01*
X150525571Y-111537715D02*
X149525571Y-111537715D01*
X149025571Y-111537715D02*
X149097000Y-111466286D01*
X149168429Y-111537715D01*
X149097000Y-111609143D01*
X149025571Y-111537715D01*
X149168429Y-111537715D01*
X150525571Y-112466287D02*
X150454143Y-112323429D01*
X150382714Y-112252001D01*
X150239857Y-112180572D01*
X149811286Y-112180572D01*
X149668429Y-112252001D01*
X149597000Y-112323429D01*
X149525571Y-112466287D01*
X149525571Y-112680572D01*
X149597000Y-112823429D01*
X149668429Y-112894858D01*
X149811286Y-112966287D01*
X150239857Y-112966287D01*
X150382714Y-112894858D01*
X150454143Y-112823429D01*
X150525571Y-112680572D01*
X150525571Y-112466287D01*
X149525571Y-113609144D02*
X150525571Y-113609144D01*
X149668429Y-113609144D02*
X149597000Y-113680572D01*
X149525571Y-113823430D01*
X149525571Y-114037715D01*
X149597000Y-114180572D01*
X149739857Y-114252001D01*
X150525571Y-114252001D01*
X149168429Y-116037715D02*
X149097000Y-116109144D01*
X149025571Y-116252001D01*
X149025571Y-116609144D01*
X149097000Y-116752001D01*
X149168429Y-116823430D01*
X149311286Y-116894858D01*
X149454143Y-116894858D01*
X149668429Y-116823430D01*
X150525571Y-115966287D01*
X150525571Y-116894858D01*
M02*
