G04 #@! TF.FileFunction,Legend,Top*
%FSLAX46Y46*%
G04 Gerber Fmt 4.6, Leading zero omitted, Abs format (unit mm)*
G04 Created by KiCad (PCBNEW 4.0.0-rc2-1-stable) date Monday, January 18, 2016 'PMt' 02:37:55 PM*
%MOMM*%
G01*
G04 APERTURE LIST*
%ADD10C,0.100000*%
%ADD11C,0.300000*%
%ADD12C,0.150000*%
G04 APERTURE END LIST*
D10*
D11*
X166413571Y-118661571D02*
X164913571Y-118661571D01*
X165413571Y-117947285D02*
X166413571Y-117947285D01*
X165556429Y-117947285D02*
X165485000Y-117875857D01*
X165413571Y-117732999D01*
X165413571Y-117518714D01*
X165485000Y-117375857D01*
X165627857Y-117304428D01*
X166413571Y-117304428D01*
X164922318Y-106538704D02*
X164920323Y-106252997D01*
X164990753Y-106109644D01*
X165132609Y-105965793D01*
X165417817Y-105892372D01*
X165917805Y-105888882D01*
X166204012Y-105958313D01*
X166347863Y-106100169D01*
X166420286Y-106242525D01*
X166422281Y-106528232D01*
X166351852Y-106671584D01*
X166209996Y-106815435D01*
X165924787Y-106888857D01*
X165424799Y-106892348D01*
X165138593Y-106822915D01*
X164994742Y-106681059D01*
X164922318Y-106538704D01*
X165408842Y-104606689D02*
X166408817Y-104599707D01*
X165413329Y-105249530D02*
X166199025Y-105244045D01*
X166341380Y-105171621D01*
X166411809Y-105028268D01*
X166410313Y-104813988D01*
X166337890Y-104671633D01*
X166265964Y-104600705D01*
X165405351Y-104106701D02*
X165401362Y-103535286D01*
X164903867Y-103895911D02*
X166189551Y-103886935D01*
X166331906Y-103814511D01*
X166402335Y-103671158D01*
X166401337Y-103528304D01*
D12*
X158334000Y-118985000D02*
X157134000Y-118985000D01*
X157134000Y-117235000D02*
X158334000Y-117235000D01*
X135650000Y-122266000D02*
X135650000Y-121066000D01*
X137400000Y-121066000D02*
X137400000Y-122266000D01*
X136744000Y-99427000D02*
X135544000Y-99427000D01*
X135544000Y-97677000D02*
X136744000Y-97677000D01*
X157134000Y-122315000D02*
X158334000Y-122315000D01*
X158334000Y-124065000D02*
X157134000Y-124065000D01*
X158334000Y-129145000D02*
X157134000Y-129145000D01*
X157134000Y-127395000D02*
X158334000Y-127395000D01*
X158842000Y-100189000D02*
X157642000Y-100189000D01*
X157642000Y-98439000D02*
X158842000Y-98439000D01*
X136744000Y-109587000D02*
X135544000Y-109587000D01*
X135544000Y-107837000D02*
X136744000Y-107837000D01*
X136744000Y-107047000D02*
X135544000Y-107047000D01*
X135544000Y-105297000D02*
X136744000Y-105297000D01*
X136744000Y-104507000D02*
X135544000Y-104507000D01*
X135544000Y-102757000D02*
X136744000Y-102757000D01*
X136744000Y-101967000D02*
X135544000Y-101967000D01*
X135544000Y-100217000D02*
X136744000Y-100217000D01*
X158334000Y-110349000D02*
X157134000Y-110349000D01*
X157134000Y-108599000D02*
X158334000Y-108599000D01*
X158334000Y-107555000D02*
X157134000Y-107555000D01*
X157134000Y-105805000D02*
X158334000Y-105805000D01*
X156097000Y-94834000D02*
X156097000Y-93634000D01*
X157847000Y-93634000D02*
X157847000Y-94834000D01*
X141132000Y-112663000D02*
X142332000Y-112663000D01*
X142332000Y-114413000D02*
X141132000Y-114413000D01*
X134606000Y-121066000D02*
X134606000Y-122266000D01*
X132856000Y-122266000D02*
X132856000Y-121066000D01*
X132680000Y-107047000D02*
X131480000Y-107047000D01*
X131480000Y-105297000D02*
X132680000Y-105297000D01*
X132680000Y-104507000D02*
X131480000Y-104507000D01*
X131480000Y-102757000D02*
X132680000Y-102757000D01*
X132680000Y-101967000D02*
X131480000Y-101967000D01*
X131480000Y-100217000D02*
X132680000Y-100217000D01*
X158334000Y-104761000D02*
X157134000Y-104761000D01*
X157134000Y-103011000D02*
X158334000Y-103011000D01*
X158334000Y-121525000D02*
X157134000Y-121525000D01*
X157134000Y-119775000D02*
X158334000Y-119775000D01*
X158334000Y-126605000D02*
X157134000Y-126605000D01*
X157134000Y-124855000D02*
X158334000Y-124855000D01*
X145683000Y-99406000D02*
X145683000Y-98206000D01*
X147433000Y-98206000D02*
X147433000Y-99406000D01*
X149493000Y-94834000D02*
X149493000Y-93634000D01*
X151243000Y-93634000D02*
X151243000Y-94834000D01*
X148223000Y-99406000D02*
X148223000Y-98206000D01*
X149973000Y-98206000D02*
X149973000Y-99406000D01*
X150763000Y-99406000D02*
X150763000Y-98206000D01*
X152513000Y-98206000D02*
X152513000Y-99406000D01*
X153303000Y-99406000D02*
X153303000Y-98206000D01*
X155053000Y-98206000D02*
X155053000Y-99406000D01*
X141132000Y-108599000D02*
X142332000Y-108599000D01*
X142332000Y-110349000D02*
X141132000Y-110349000D01*
X131480000Y-107837000D02*
X132680000Y-107837000D01*
X132680000Y-109587000D02*
X131480000Y-109587000D01*
X130288000Y-126400000D02*
X130288000Y-127600000D01*
X128538000Y-127600000D02*
X128538000Y-126400000D01*
X131332000Y-127600000D02*
X131332000Y-126400000D01*
X133082000Y-126400000D02*
X133082000Y-127600000D01*
X131480000Y-97677000D02*
X132680000Y-97677000D01*
X132680000Y-99427000D02*
X131480000Y-99427000D01*
X163971000Y-131918000D02*
X163971000Y-130718000D01*
X165721000Y-130718000D02*
X165721000Y-131918000D01*
X161431000Y-131918000D02*
X161431000Y-130718000D01*
X163181000Y-130718000D02*
X163181000Y-131918000D01*
X149098000Y-122936000D02*
X149098000Y-128016000D01*
X149098000Y-128016000D02*
X144526000Y-128016000D01*
X144526000Y-128016000D02*
X144526000Y-122936000D01*
X144526000Y-122936000D02*
X149098000Y-122936000D01*
X147574000Y-122936000D02*
X147574000Y-123444000D01*
X147574000Y-123444000D02*
X146304000Y-123444000D01*
X146304000Y-123444000D02*
X146304000Y-122936000D01*
X152227000Y-117085000D02*
X152227000Y-116435000D01*
X146477000Y-117085000D02*
X146477000Y-116435000D01*
X146477000Y-106435000D02*
X146477000Y-107085000D01*
X152227000Y-106435000D02*
X152227000Y-107085000D01*
X152227000Y-117085000D02*
X146477000Y-117085000D01*
X152227000Y-106435000D02*
X146477000Y-106435000D01*
X152227000Y-116435000D02*
X153827000Y-116435000D01*
X134417000Y-126538000D02*
G75*
G03X134417000Y-126538000I-100000J0D01*
G01*
X134567000Y-125988000D02*
X134567000Y-126488000D01*
X137467000Y-125988000D02*
X134567000Y-125988000D01*
X137467000Y-126488000D02*
X137467000Y-125988000D01*
X134567000Y-126488000D02*
X137467000Y-126488000D01*
X159234000Y-116738000D02*
X159034000Y-116738000D01*
X159234000Y-116738000D02*
G75*
G03X159234000Y-116738000I-100000J0D01*
G01*
X159275421Y-116738000D02*
G75*
G03X159275421Y-116738000I-141421J0D01*
G01*
X159357607Y-116738000D02*
G75*
G03X159357607Y-116738000I-223607J0D01*
G01*
X159334000Y-111038000D02*
X159334000Y-111138000D01*
X159334000Y-111038000D02*
X159334000Y-110938000D01*
X159334000Y-110938000D02*
X159234000Y-110938000D01*
X156134000Y-111138000D02*
X156134000Y-110938000D01*
X156134000Y-110938000D02*
X159234000Y-110938000D01*
X156134000Y-115938000D02*
X156134000Y-116238000D01*
X156134000Y-116238000D02*
X159334000Y-116238000D01*
X159334000Y-116238000D02*
X159334000Y-116038000D01*
X160631143Y-118276666D02*
X160678762Y-118324285D01*
X160726381Y-118467142D01*
X160726381Y-118562380D01*
X160678762Y-118705238D01*
X160583524Y-118800476D01*
X160488286Y-118848095D01*
X160297810Y-118895714D01*
X160154952Y-118895714D01*
X159964476Y-118848095D01*
X159869238Y-118800476D01*
X159774000Y-118705238D01*
X159726381Y-118562380D01*
X159726381Y-118467142D01*
X159774000Y-118324285D01*
X159821619Y-118276666D01*
X160726381Y-117324285D02*
X160726381Y-117895714D01*
X160726381Y-117610000D02*
X159726381Y-117610000D01*
X159869238Y-117705238D01*
X159964476Y-117800476D01*
X160012095Y-117895714D01*
X136882143Y-119038666D02*
X136929762Y-119086285D01*
X136977381Y-119229142D01*
X136977381Y-119324380D01*
X136929762Y-119467238D01*
X136834524Y-119562476D01*
X136739286Y-119610095D01*
X136548810Y-119657714D01*
X136405952Y-119657714D01*
X136215476Y-119610095D01*
X136120238Y-119562476D01*
X136025000Y-119467238D01*
X135977381Y-119324380D01*
X135977381Y-119229142D01*
X136025000Y-119086285D01*
X136072619Y-119038666D01*
X136072619Y-118657714D02*
X136025000Y-118610095D01*
X135977381Y-118514857D01*
X135977381Y-118276761D01*
X136025000Y-118181523D01*
X136072619Y-118133904D01*
X136167857Y-118086285D01*
X136263095Y-118086285D01*
X136405952Y-118133904D01*
X136977381Y-118705333D01*
X136977381Y-118086285D01*
X139041143Y-98718666D02*
X139088762Y-98766285D01*
X139136381Y-98909142D01*
X139136381Y-99004380D01*
X139088762Y-99147238D01*
X138993524Y-99242476D01*
X138898286Y-99290095D01*
X138707810Y-99337714D01*
X138564952Y-99337714D01*
X138374476Y-99290095D01*
X138279238Y-99242476D01*
X138184000Y-99147238D01*
X138136381Y-99004380D01*
X138136381Y-98909142D01*
X138184000Y-98766285D01*
X138231619Y-98718666D01*
X138136381Y-98385333D02*
X138136381Y-97766285D01*
X138517333Y-98099619D01*
X138517333Y-97956761D01*
X138564952Y-97861523D01*
X138612571Y-97813904D01*
X138707810Y-97766285D01*
X138945905Y-97766285D01*
X139041143Y-97813904D01*
X139088762Y-97861523D01*
X139136381Y-97956761D01*
X139136381Y-98242476D01*
X139088762Y-98337714D01*
X139041143Y-98385333D01*
X160631143Y-123356666D02*
X160678762Y-123404285D01*
X160726381Y-123547142D01*
X160726381Y-123642380D01*
X160678762Y-123785238D01*
X160583524Y-123880476D01*
X160488286Y-123928095D01*
X160297810Y-123975714D01*
X160154952Y-123975714D01*
X159964476Y-123928095D01*
X159869238Y-123880476D01*
X159774000Y-123785238D01*
X159726381Y-123642380D01*
X159726381Y-123547142D01*
X159774000Y-123404285D01*
X159821619Y-123356666D01*
X160059714Y-122499523D02*
X160726381Y-122499523D01*
X159678762Y-122737619D02*
X160393048Y-122975714D01*
X160393048Y-122356666D01*
X160631143Y-128436666D02*
X160678762Y-128484285D01*
X160726381Y-128627142D01*
X160726381Y-128722380D01*
X160678762Y-128865238D01*
X160583524Y-128960476D01*
X160488286Y-129008095D01*
X160297810Y-129055714D01*
X160154952Y-129055714D01*
X159964476Y-129008095D01*
X159869238Y-128960476D01*
X159774000Y-128865238D01*
X159726381Y-128722380D01*
X159726381Y-128627142D01*
X159774000Y-128484285D01*
X159821619Y-128436666D01*
X159726381Y-127531904D02*
X159726381Y-128008095D01*
X160202571Y-128055714D01*
X160154952Y-128008095D01*
X160107333Y-127912857D01*
X160107333Y-127674761D01*
X160154952Y-127579523D01*
X160202571Y-127531904D01*
X160297810Y-127484285D01*
X160535905Y-127484285D01*
X160631143Y-127531904D01*
X160678762Y-127579523D01*
X160726381Y-127674761D01*
X160726381Y-127912857D01*
X160678762Y-128008095D01*
X160631143Y-128055714D01*
X158599143Y-101512666D02*
X158646762Y-101560285D01*
X158694381Y-101703142D01*
X158694381Y-101798380D01*
X158646762Y-101941238D01*
X158551524Y-102036476D01*
X158456286Y-102084095D01*
X158265810Y-102131714D01*
X158122952Y-102131714D01*
X157932476Y-102084095D01*
X157837238Y-102036476D01*
X157742000Y-101941238D01*
X157694381Y-101798380D01*
X157694381Y-101703142D01*
X157742000Y-101560285D01*
X157789619Y-101512666D01*
X157694381Y-100655523D02*
X157694381Y-100846000D01*
X157742000Y-100941238D01*
X157789619Y-100988857D01*
X157932476Y-101084095D01*
X158122952Y-101131714D01*
X158503905Y-101131714D01*
X158599143Y-101084095D01*
X158646762Y-101036476D01*
X158694381Y-100941238D01*
X158694381Y-100750761D01*
X158646762Y-100655523D01*
X158599143Y-100607904D01*
X158503905Y-100560285D01*
X158265810Y-100560285D01*
X158170571Y-100607904D01*
X158122952Y-100655523D01*
X158075333Y-100750761D01*
X158075333Y-100941238D01*
X158122952Y-101036476D01*
X158170571Y-101084095D01*
X158265810Y-101131714D01*
X139041143Y-108878666D02*
X139088762Y-108926285D01*
X139136381Y-109069142D01*
X139136381Y-109164380D01*
X139088762Y-109307238D01*
X138993524Y-109402476D01*
X138898286Y-109450095D01*
X138707810Y-109497714D01*
X138564952Y-109497714D01*
X138374476Y-109450095D01*
X138279238Y-109402476D01*
X138184000Y-109307238D01*
X138136381Y-109164380D01*
X138136381Y-109069142D01*
X138184000Y-108926285D01*
X138231619Y-108878666D01*
X138136381Y-108545333D02*
X138136381Y-107878666D01*
X139136381Y-108307238D01*
X139041143Y-106338666D02*
X139088762Y-106386285D01*
X139136381Y-106529142D01*
X139136381Y-106624380D01*
X139088762Y-106767238D01*
X138993524Y-106862476D01*
X138898286Y-106910095D01*
X138707810Y-106957714D01*
X138564952Y-106957714D01*
X138374476Y-106910095D01*
X138279238Y-106862476D01*
X138184000Y-106767238D01*
X138136381Y-106624380D01*
X138136381Y-106529142D01*
X138184000Y-106386285D01*
X138231619Y-106338666D01*
X138564952Y-105767238D02*
X138517333Y-105862476D01*
X138469714Y-105910095D01*
X138374476Y-105957714D01*
X138326857Y-105957714D01*
X138231619Y-105910095D01*
X138184000Y-105862476D01*
X138136381Y-105767238D01*
X138136381Y-105576761D01*
X138184000Y-105481523D01*
X138231619Y-105433904D01*
X138326857Y-105386285D01*
X138374476Y-105386285D01*
X138469714Y-105433904D01*
X138517333Y-105481523D01*
X138564952Y-105576761D01*
X138564952Y-105767238D01*
X138612571Y-105862476D01*
X138660190Y-105910095D01*
X138755429Y-105957714D01*
X138945905Y-105957714D01*
X139041143Y-105910095D01*
X139088762Y-105862476D01*
X139136381Y-105767238D01*
X139136381Y-105576761D01*
X139088762Y-105481523D01*
X139041143Y-105433904D01*
X138945905Y-105386285D01*
X138755429Y-105386285D01*
X138660190Y-105433904D01*
X138612571Y-105481523D01*
X138564952Y-105576761D01*
X139041143Y-103798666D02*
X139088762Y-103846285D01*
X139136381Y-103989142D01*
X139136381Y-104084380D01*
X139088762Y-104227238D01*
X138993524Y-104322476D01*
X138898286Y-104370095D01*
X138707810Y-104417714D01*
X138564952Y-104417714D01*
X138374476Y-104370095D01*
X138279238Y-104322476D01*
X138184000Y-104227238D01*
X138136381Y-104084380D01*
X138136381Y-103989142D01*
X138184000Y-103846285D01*
X138231619Y-103798666D01*
X139136381Y-103322476D02*
X139136381Y-103132000D01*
X139088762Y-103036761D01*
X139041143Y-102989142D01*
X138898286Y-102893904D01*
X138707810Y-102846285D01*
X138326857Y-102846285D01*
X138231619Y-102893904D01*
X138184000Y-102941523D01*
X138136381Y-103036761D01*
X138136381Y-103227238D01*
X138184000Y-103322476D01*
X138231619Y-103370095D01*
X138326857Y-103417714D01*
X138564952Y-103417714D01*
X138660190Y-103370095D01*
X138707810Y-103322476D01*
X138755429Y-103227238D01*
X138755429Y-103036761D01*
X138707810Y-102941523D01*
X138660190Y-102893904D01*
X138564952Y-102846285D01*
X139041143Y-101734857D02*
X139088762Y-101782476D01*
X139136381Y-101925333D01*
X139136381Y-102020571D01*
X139088762Y-102163429D01*
X138993524Y-102258667D01*
X138898286Y-102306286D01*
X138707810Y-102353905D01*
X138564952Y-102353905D01*
X138374476Y-102306286D01*
X138279238Y-102258667D01*
X138184000Y-102163429D01*
X138136381Y-102020571D01*
X138136381Y-101925333D01*
X138184000Y-101782476D01*
X138231619Y-101734857D01*
X139136381Y-100782476D02*
X139136381Y-101353905D01*
X139136381Y-101068191D02*
X138136381Y-101068191D01*
X138279238Y-101163429D01*
X138374476Y-101258667D01*
X138422095Y-101353905D01*
X138136381Y-100163429D02*
X138136381Y-100068190D01*
X138184000Y-99972952D01*
X138231619Y-99925333D01*
X138326857Y-99877714D01*
X138517333Y-99830095D01*
X138755429Y-99830095D01*
X138945905Y-99877714D01*
X139041143Y-99925333D01*
X139088762Y-99972952D01*
X139136381Y-100068190D01*
X139136381Y-100163429D01*
X139088762Y-100258667D01*
X139041143Y-100306286D01*
X138945905Y-100353905D01*
X138755429Y-100401524D01*
X138517333Y-100401524D01*
X138326857Y-100353905D01*
X138231619Y-100306286D01*
X138184000Y-100258667D01*
X138136381Y-100163429D01*
X160631143Y-110116857D02*
X160678762Y-110164476D01*
X160726381Y-110307333D01*
X160726381Y-110402571D01*
X160678762Y-110545429D01*
X160583524Y-110640667D01*
X160488286Y-110688286D01*
X160297810Y-110735905D01*
X160154952Y-110735905D01*
X159964476Y-110688286D01*
X159869238Y-110640667D01*
X159774000Y-110545429D01*
X159726381Y-110402571D01*
X159726381Y-110307333D01*
X159774000Y-110164476D01*
X159821619Y-110116857D01*
X160726381Y-109164476D02*
X160726381Y-109735905D01*
X160726381Y-109450191D02*
X159726381Y-109450191D01*
X159869238Y-109545429D01*
X159964476Y-109640667D01*
X160012095Y-109735905D01*
X160726381Y-108212095D02*
X160726381Y-108783524D01*
X160726381Y-108497810D02*
X159726381Y-108497810D01*
X159869238Y-108593048D01*
X159964476Y-108688286D01*
X160012095Y-108783524D01*
X160631143Y-107322857D02*
X160678762Y-107370476D01*
X160726381Y-107513333D01*
X160726381Y-107608571D01*
X160678762Y-107751429D01*
X160583524Y-107846667D01*
X160488286Y-107894286D01*
X160297810Y-107941905D01*
X160154952Y-107941905D01*
X159964476Y-107894286D01*
X159869238Y-107846667D01*
X159774000Y-107751429D01*
X159726381Y-107608571D01*
X159726381Y-107513333D01*
X159774000Y-107370476D01*
X159821619Y-107322857D01*
X160726381Y-106370476D02*
X160726381Y-106941905D01*
X160726381Y-106656191D02*
X159726381Y-106656191D01*
X159869238Y-106751429D01*
X159964476Y-106846667D01*
X160012095Y-106941905D01*
X159821619Y-105989524D02*
X159774000Y-105941905D01*
X159726381Y-105846667D01*
X159726381Y-105608571D01*
X159774000Y-105513333D01*
X159821619Y-105465714D01*
X159916857Y-105418095D01*
X160012095Y-105418095D01*
X160154952Y-105465714D01*
X160726381Y-106037143D01*
X160726381Y-105418095D01*
X157329143Y-91574857D02*
X157376762Y-91622476D01*
X157424381Y-91765333D01*
X157424381Y-91860571D01*
X157376762Y-92003429D01*
X157281524Y-92098667D01*
X157186286Y-92146286D01*
X156995810Y-92193905D01*
X156852952Y-92193905D01*
X156662476Y-92146286D01*
X156567238Y-92098667D01*
X156472000Y-92003429D01*
X156424381Y-91860571D01*
X156424381Y-91765333D01*
X156472000Y-91622476D01*
X156519619Y-91574857D01*
X157424381Y-90622476D02*
X157424381Y-91193905D01*
X157424381Y-90908191D02*
X156424381Y-90908191D01*
X156567238Y-91003429D01*
X156662476Y-91098667D01*
X156710095Y-91193905D01*
X156424381Y-90289143D02*
X156424381Y-89670095D01*
X156805333Y-90003429D01*
X156805333Y-89860571D01*
X156852952Y-89765333D01*
X156900571Y-89717714D01*
X156995810Y-89670095D01*
X157233905Y-89670095D01*
X157329143Y-89717714D01*
X157376762Y-89765333D01*
X157424381Y-89860571D01*
X157424381Y-90146286D01*
X157376762Y-90241524D01*
X157329143Y-90289143D01*
X142089143Y-116720857D02*
X142136762Y-116768476D01*
X142184381Y-116911333D01*
X142184381Y-117006571D01*
X142136762Y-117149429D01*
X142041524Y-117244667D01*
X141946286Y-117292286D01*
X141755810Y-117339905D01*
X141612952Y-117339905D01*
X141422476Y-117292286D01*
X141327238Y-117244667D01*
X141232000Y-117149429D01*
X141184381Y-117006571D01*
X141184381Y-116911333D01*
X141232000Y-116768476D01*
X141279619Y-116720857D01*
X142184381Y-115768476D02*
X142184381Y-116339905D01*
X142184381Y-116054191D02*
X141184381Y-116054191D01*
X141327238Y-116149429D01*
X141422476Y-116244667D01*
X141470095Y-116339905D01*
X141517714Y-114911333D02*
X142184381Y-114911333D01*
X141136762Y-115149429D02*
X141851048Y-115387524D01*
X141851048Y-114768476D01*
X134088143Y-119006857D02*
X134135762Y-119054476D01*
X134183381Y-119197333D01*
X134183381Y-119292571D01*
X134135762Y-119435429D01*
X134040524Y-119530667D01*
X133945286Y-119578286D01*
X133754810Y-119625905D01*
X133611952Y-119625905D01*
X133421476Y-119578286D01*
X133326238Y-119530667D01*
X133231000Y-119435429D01*
X133183381Y-119292571D01*
X133183381Y-119197333D01*
X133231000Y-119054476D01*
X133278619Y-119006857D01*
X134183381Y-118054476D02*
X134183381Y-118625905D01*
X134183381Y-118340191D02*
X133183381Y-118340191D01*
X133326238Y-118435429D01*
X133421476Y-118530667D01*
X133469095Y-118625905D01*
X133183381Y-117149714D02*
X133183381Y-117625905D01*
X133659571Y-117673524D01*
X133611952Y-117625905D01*
X133564333Y-117530667D01*
X133564333Y-117292571D01*
X133611952Y-117197333D01*
X133659571Y-117149714D01*
X133754810Y-117102095D01*
X133992905Y-117102095D01*
X134088143Y-117149714D01*
X134135762Y-117197333D01*
X134183381Y-117292571D01*
X134183381Y-117530667D01*
X134135762Y-117625905D01*
X134088143Y-117673524D01*
X129992381Y-106338666D02*
X129992381Y-106814857D01*
X128992381Y-106814857D01*
X129992381Y-105481523D02*
X129992381Y-106052952D01*
X129992381Y-105767238D02*
X128992381Y-105767238D01*
X129135238Y-105862476D01*
X129230476Y-105957714D01*
X129278095Y-106052952D01*
X129992381Y-103798666D02*
X129992381Y-104274857D01*
X128992381Y-104274857D01*
X129087619Y-103512952D02*
X129040000Y-103465333D01*
X128992381Y-103370095D01*
X128992381Y-103131999D01*
X129040000Y-103036761D01*
X129087619Y-102989142D01*
X129182857Y-102941523D01*
X129278095Y-102941523D01*
X129420952Y-102989142D01*
X129992381Y-103560571D01*
X129992381Y-102941523D01*
X129992381Y-101258666D02*
X129992381Y-101734857D01*
X128992381Y-101734857D01*
X128992381Y-101020571D02*
X128992381Y-100401523D01*
X129373333Y-100734857D01*
X129373333Y-100591999D01*
X129420952Y-100496761D01*
X129468571Y-100449142D01*
X129563810Y-100401523D01*
X129801905Y-100401523D01*
X129897143Y-100449142D01*
X129944762Y-100496761D01*
X129992381Y-100591999D01*
X129992381Y-100877714D01*
X129944762Y-100972952D01*
X129897143Y-101020571D01*
X147613619Y-91535238D02*
X147566000Y-91630476D01*
X147470762Y-91725714D01*
X147327905Y-91868571D01*
X147280286Y-91963810D01*
X147280286Y-92059048D01*
X147518381Y-92011429D02*
X147470762Y-92106667D01*
X147375524Y-92201905D01*
X147185048Y-92249524D01*
X146851714Y-92249524D01*
X146661238Y-92201905D01*
X146566000Y-92106667D01*
X146518381Y-92011429D01*
X146518381Y-91820952D01*
X146566000Y-91725714D01*
X146661238Y-91630476D01*
X146851714Y-91582857D01*
X147185048Y-91582857D01*
X147375524Y-91630476D01*
X147470762Y-91725714D01*
X147518381Y-91820952D01*
X147518381Y-92011429D01*
X147518381Y-90630476D02*
X147518381Y-91201905D01*
X147518381Y-90916191D02*
X146518381Y-90916191D01*
X146661238Y-91011429D01*
X146756476Y-91106667D01*
X146804095Y-91201905D01*
X154217619Y-91535238D02*
X154170000Y-91630476D01*
X154074762Y-91725714D01*
X153931905Y-91868571D01*
X153884286Y-91963810D01*
X153884286Y-92059048D01*
X154122381Y-92011429D02*
X154074762Y-92106667D01*
X153979524Y-92201905D01*
X153789048Y-92249524D01*
X153455714Y-92249524D01*
X153265238Y-92201905D01*
X153170000Y-92106667D01*
X153122381Y-92011429D01*
X153122381Y-91820952D01*
X153170000Y-91725714D01*
X153265238Y-91630476D01*
X153455714Y-91582857D01*
X153789048Y-91582857D01*
X153979524Y-91630476D01*
X154074762Y-91725714D01*
X154122381Y-91820952D01*
X154122381Y-92011429D01*
X153217619Y-91201905D02*
X153170000Y-91154286D01*
X153122381Y-91059048D01*
X153122381Y-90820952D01*
X153170000Y-90725714D01*
X153217619Y-90678095D01*
X153312857Y-90630476D01*
X153408095Y-90630476D01*
X153550952Y-90678095D01*
X154122381Y-91249524D01*
X154122381Y-90630476D01*
X160726381Y-104052666D02*
X160250190Y-104386000D01*
X160726381Y-104624095D02*
X159726381Y-104624095D01*
X159726381Y-104243142D01*
X159774000Y-104147904D01*
X159821619Y-104100285D01*
X159916857Y-104052666D01*
X160059714Y-104052666D01*
X160154952Y-104100285D01*
X160202571Y-104147904D01*
X160250190Y-104243142D01*
X160250190Y-104624095D01*
X160726381Y-103100285D02*
X160726381Y-103671714D01*
X160726381Y-103386000D02*
X159726381Y-103386000D01*
X159869238Y-103481238D01*
X159964476Y-103576476D01*
X160012095Y-103671714D01*
X160726381Y-120816666D02*
X160250190Y-121150000D01*
X160726381Y-121388095D02*
X159726381Y-121388095D01*
X159726381Y-121007142D01*
X159774000Y-120911904D01*
X159821619Y-120864285D01*
X159916857Y-120816666D01*
X160059714Y-120816666D01*
X160154952Y-120864285D01*
X160202571Y-120911904D01*
X160250190Y-121007142D01*
X160250190Y-121388095D01*
X159821619Y-120435714D02*
X159774000Y-120388095D01*
X159726381Y-120292857D01*
X159726381Y-120054761D01*
X159774000Y-119959523D01*
X159821619Y-119911904D01*
X159916857Y-119864285D01*
X160012095Y-119864285D01*
X160154952Y-119911904D01*
X160726381Y-120483333D01*
X160726381Y-119864285D01*
X160726381Y-125896666D02*
X160250190Y-126230000D01*
X160726381Y-126468095D02*
X159726381Y-126468095D01*
X159726381Y-126087142D01*
X159774000Y-125991904D01*
X159821619Y-125944285D01*
X159916857Y-125896666D01*
X160059714Y-125896666D01*
X160154952Y-125944285D01*
X160202571Y-125991904D01*
X160250190Y-126087142D01*
X160250190Y-126468095D01*
X159726381Y-125563333D02*
X159726381Y-124944285D01*
X160107333Y-125277619D01*
X160107333Y-125134761D01*
X160154952Y-125039523D01*
X160202571Y-124991904D01*
X160297810Y-124944285D01*
X160535905Y-124944285D01*
X160631143Y-124991904D01*
X160678762Y-125039523D01*
X160726381Y-125134761D01*
X160726381Y-125420476D01*
X160678762Y-125515714D01*
X160631143Y-125563333D01*
X147010381Y-101766666D02*
X146534190Y-102100000D01*
X147010381Y-102338095D02*
X146010381Y-102338095D01*
X146010381Y-101957142D01*
X146058000Y-101861904D01*
X146105619Y-101814285D01*
X146200857Y-101766666D01*
X146343714Y-101766666D01*
X146438952Y-101814285D01*
X146486571Y-101861904D01*
X146534190Y-101957142D01*
X146534190Y-102338095D01*
X146343714Y-100909523D02*
X147010381Y-100909523D01*
X145962762Y-101147619D02*
X146677048Y-101385714D01*
X146677048Y-100766666D01*
X150820381Y-91606666D02*
X150344190Y-91940000D01*
X150820381Y-92178095D02*
X149820381Y-92178095D01*
X149820381Y-91797142D01*
X149868000Y-91701904D01*
X149915619Y-91654285D01*
X150010857Y-91606666D01*
X150153714Y-91606666D01*
X150248952Y-91654285D01*
X150296571Y-91701904D01*
X150344190Y-91797142D01*
X150344190Y-92178095D01*
X149820381Y-90701904D02*
X149820381Y-91178095D01*
X150296571Y-91225714D01*
X150248952Y-91178095D01*
X150201333Y-91082857D01*
X150201333Y-90844761D01*
X150248952Y-90749523D01*
X150296571Y-90701904D01*
X150391810Y-90654285D01*
X150629905Y-90654285D01*
X150725143Y-90701904D01*
X150772762Y-90749523D01*
X150820381Y-90844761D01*
X150820381Y-91082857D01*
X150772762Y-91178095D01*
X150725143Y-91225714D01*
X149550381Y-101766666D02*
X149074190Y-102100000D01*
X149550381Y-102338095D02*
X148550381Y-102338095D01*
X148550381Y-101957142D01*
X148598000Y-101861904D01*
X148645619Y-101814285D01*
X148740857Y-101766666D01*
X148883714Y-101766666D01*
X148978952Y-101814285D01*
X149026571Y-101861904D01*
X149074190Y-101957142D01*
X149074190Y-102338095D01*
X148550381Y-100909523D02*
X148550381Y-101100000D01*
X148598000Y-101195238D01*
X148645619Y-101242857D01*
X148788476Y-101338095D01*
X148978952Y-101385714D01*
X149359905Y-101385714D01*
X149455143Y-101338095D01*
X149502762Y-101290476D01*
X149550381Y-101195238D01*
X149550381Y-101004761D01*
X149502762Y-100909523D01*
X149455143Y-100861904D01*
X149359905Y-100814285D01*
X149121810Y-100814285D01*
X149026571Y-100861904D01*
X148978952Y-100909523D01*
X148931333Y-101004761D01*
X148931333Y-101195238D01*
X148978952Y-101290476D01*
X149026571Y-101338095D01*
X149121810Y-101385714D01*
X152090381Y-101766666D02*
X151614190Y-102100000D01*
X152090381Y-102338095D02*
X151090381Y-102338095D01*
X151090381Y-101957142D01*
X151138000Y-101861904D01*
X151185619Y-101814285D01*
X151280857Y-101766666D01*
X151423714Y-101766666D01*
X151518952Y-101814285D01*
X151566571Y-101861904D01*
X151614190Y-101957142D01*
X151614190Y-102338095D01*
X151090381Y-101433333D02*
X151090381Y-100766666D01*
X152090381Y-101195238D01*
X154630381Y-101766666D02*
X154154190Y-102100000D01*
X154630381Y-102338095D02*
X153630381Y-102338095D01*
X153630381Y-101957142D01*
X153678000Y-101861904D01*
X153725619Y-101814285D01*
X153820857Y-101766666D01*
X153963714Y-101766666D01*
X154058952Y-101814285D01*
X154106571Y-101861904D01*
X154154190Y-101957142D01*
X154154190Y-102338095D01*
X154058952Y-101195238D02*
X154011333Y-101290476D01*
X153963714Y-101338095D01*
X153868476Y-101385714D01*
X153820857Y-101385714D01*
X153725619Y-101338095D01*
X153678000Y-101290476D01*
X153630381Y-101195238D01*
X153630381Y-101004761D01*
X153678000Y-100909523D01*
X153725619Y-100861904D01*
X153820857Y-100814285D01*
X153868476Y-100814285D01*
X153963714Y-100861904D01*
X154011333Y-100909523D01*
X154058952Y-101004761D01*
X154058952Y-101195238D01*
X154106571Y-101290476D01*
X154154190Y-101338095D01*
X154249429Y-101385714D01*
X154439905Y-101385714D01*
X154535143Y-101338095D01*
X154582762Y-101290476D01*
X154630381Y-101195238D01*
X154630381Y-101004761D01*
X154582762Y-100909523D01*
X154535143Y-100861904D01*
X154439905Y-100814285D01*
X154249429Y-100814285D01*
X154154190Y-100861904D01*
X154106571Y-100909523D01*
X154058952Y-101004761D01*
X142184381Y-107608666D02*
X141708190Y-107942000D01*
X142184381Y-108180095D02*
X141184381Y-108180095D01*
X141184381Y-107799142D01*
X141232000Y-107703904D01*
X141279619Y-107656285D01*
X141374857Y-107608666D01*
X141517714Y-107608666D01*
X141612952Y-107656285D01*
X141660571Y-107703904D01*
X141708190Y-107799142D01*
X141708190Y-108180095D01*
X142184381Y-107132476D02*
X142184381Y-106942000D01*
X142136762Y-106846761D01*
X142089143Y-106799142D01*
X141946286Y-106703904D01*
X141755810Y-106656285D01*
X141374857Y-106656285D01*
X141279619Y-106703904D01*
X141232000Y-106751523D01*
X141184381Y-106846761D01*
X141184381Y-107037238D01*
X141232000Y-107132476D01*
X141279619Y-107180095D01*
X141374857Y-107227714D01*
X141612952Y-107227714D01*
X141708190Y-107180095D01*
X141755810Y-107132476D01*
X141803429Y-107037238D01*
X141803429Y-106846761D01*
X141755810Y-106751523D01*
X141708190Y-106703904D01*
X141612952Y-106656285D01*
X129992381Y-109354857D02*
X129516190Y-109688191D01*
X129992381Y-109926286D02*
X128992381Y-109926286D01*
X128992381Y-109545333D01*
X129040000Y-109450095D01*
X129087619Y-109402476D01*
X129182857Y-109354857D01*
X129325714Y-109354857D01*
X129420952Y-109402476D01*
X129468571Y-109450095D01*
X129516190Y-109545333D01*
X129516190Y-109926286D01*
X129992381Y-108402476D02*
X129992381Y-108973905D01*
X129992381Y-108688191D02*
X128992381Y-108688191D01*
X129135238Y-108783429D01*
X129230476Y-108878667D01*
X129278095Y-108973905D01*
X128992381Y-107783429D02*
X128992381Y-107688190D01*
X129040000Y-107592952D01*
X129087619Y-107545333D01*
X129182857Y-107497714D01*
X129373333Y-107450095D01*
X129611429Y-107450095D01*
X129801905Y-107497714D01*
X129897143Y-107545333D01*
X129944762Y-107592952D01*
X129992381Y-107688190D01*
X129992381Y-107783429D01*
X129944762Y-107878667D01*
X129897143Y-107926286D01*
X129801905Y-107973905D01*
X129611429Y-108021524D01*
X129373333Y-108021524D01*
X129182857Y-107973905D01*
X129087619Y-107926286D01*
X129040000Y-107878667D01*
X128992381Y-107783429D01*
X129865381Y-130944857D02*
X129389190Y-131278191D01*
X129865381Y-131516286D02*
X128865381Y-131516286D01*
X128865381Y-131135333D01*
X128913000Y-131040095D01*
X128960619Y-130992476D01*
X129055857Y-130944857D01*
X129198714Y-130944857D01*
X129293952Y-130992476D01*
X129341571Y-131040095D01*
X129389190Y-131135333D01*
X129389190Y-131516286D01*
X129865381Y-129992476D02*
X129865381Y-130563905D01*
X129865381Y-130278191D02*
X128865381Y-130278191D01*
X129008238Y-130373429D01*
X129103476Y-130468667D01*
X129151095Y-130563905D01*
X129865381Y-129040095D02*
X129865381Y-129611524D01*
X129865381Y-129325810D02*
X128865381Y-129325810D01*
X129008238Y-129421048D01*
X129103476Y-129516286D01*
X129151095Y-129611524D01*
X132659381Y-130944857D02*
X132183190Y-131278191D01*
X132659381Y-131516286D02*
X131659381Y-131516286D01*
X131659381Y-131135333D01*
X131707000Y-131040095D01*
X131754619Y-130992476D01*
X131849857Y-130944857D01*
X131992714Y-130944857D01*
X132087952Y-130992476D01*
X132135571Y-131040095D01*
X132183190Y-131135333D01*
X132183190Y-131516286D01*
X132659381Y-129992476D02*
X132659381Y-130563905D01*
X132659381Y-130278191D02*
X131659381Y-130278191D01*
X131802238Y-130373429D01*
X131897476Y-130468667D01*
X131945095Y-130563905D01*
X131754619Y-129611524D02*
X131707000Y-129563905D01*
X131659381Y-129468667D01*
X131659381Y-129230571D01*
X131707000Y-129135333D01*
X131754619Y-129087714D01*
X131849857Y-129040095D01*
X131945095Y-129040095D01*
X132087952Y-129087714D01*
X132659381Y-129659143D01*
X132659381Y-129040095D01*
X129992381Y-99194857D02*
X129516190Y-99528191D01*
X129992381Y-99766286D02*
X128992381Y-99766286D01*
X128992381Y-99385333D01*
X129040000Y-99290095D01*
X129087619Y-99242476D01*
X129182857Y-99194857D01*
X129325714Y-99194857D01*
X129420952Y-99242476D01*
X129468571Y-99290095D01*
X129516190Y-99385333D01*
X129516190Y-99766286D01*
X129992381Y-98242476D02*
X129992381Y-98813905D01*
X129992381Y-98528191D02*
X128992381Y-98528191D01*
X129135238Y-98623429D01*
X129230476Y-98718667D01*
X129278095Y-98813905D01*
X128992381Y-97909143D02*
X128992381Y-97290095D01*
X129373333Y-97623429D01*
X129373333Y-97480571D01*
X129420952Y-97385333D01*
X129468571Y-97337714D01*
X129563810Y-97290095D01*
X129801905Y-97290095D01*
X129897143Y-97337714D01*
X129944762Y-97385333D01*
X129992381Y-97480571D01*
X129992381Y-97766286D01*
X129944762Y-97861524D01*
X129897143Y-97909143D01*
X167076381Y-131960857D02*
X166600190Y-132294191D01*
X167076381Y-132532286D02*
X166076381Y-132532286D01*
X166076381Y-132151333D01*
X166124000Y-132056095D01*
X166171619Y-132008476D01*
X166266857Y-131960857D01*
X166409714Y-131960857D01*
X166504952Y-132008476D01*
X166552571Y-132056095D01*
X166600190Y-132151333D01*
X166600190Y-132532286D01*
X167076381Y-131008476D02*
X167076381Y-131579905D01*
X167076381Y-131294191D02*
X166076381Y-131294191D01*
X166219238Y-131389429D01*
X166314476Y-131484667D01*
X166362095Y-131579905D01*
X166409714Y-130151333D02*
X167076381Y-130151333D01*
X166028762Y-130389429D02*
X166743048Y-130627524D01*
X166743048Y-130008476D01*
X160980381Y-131960857D02*
X160504190Y-132294191D01*
X160980381Y-132532286D02*
X159980381Y-132532286D01*
X159980381Y-132151333D01*
X160028000Y-132056095D01*
X160075619Y-132008476D01*
X160170857Y-131960857D01*
X160313714Y-131960857D01*
X160408952Y-132008476D01*
X160456571Y-132056095D01*
X160504190Y-132151333D01*
X160504190Y-132532286D01*
X160980381Y-131008476D02*
X160980381Y-131579905D01*
X160980381Y-131294191D02*
X159980381Y-131294191D01*
X160123238Y-131389429D01*
X160218476Y-131484667D01*
X160266095Y-131579905D01*
X159980381Y-130103714D02*
X159980381Y-130579905D01*
X160456571Y-130627524D01*
X160408952Y-130579905D01*
X160361333Y-130484667D01*
X160361333Y-130246571D01*
X160408952Y-130151333D01*
X160456571Y-130103714D01*
X160551810Y-130056095D01*
X160789905Y-130056095D01*
X160885143Y-130103714D01*
X160932762Y-130151333D01*
X160980381Y-130246571D01*
X160980381Y-130484667D01*
X160932762Y-130579905D01*
X160885143Y-130627524D01*
X146264381Y-126237905D02*
X147073905Y-126237905D01*
X147169143Y-126190286D01*
X147216762Y-126142667D01*
X147264381Y-126047429D01*
X147264381Y-125856952D01*
X147216762Y-125761714D01*
X147169143Y-125714095D01*
X147073905Y-125666476D01*
X146264381Y-125666476D01*
X147264381Y-124666476D02*
X147264381Y-125237905D01*
X147264381Y-124952191D02*
X146264381Y-124952191D01*
X146407238Y-125047429D01*
X146502476Y-125142667D01*
X146550095Y-125237905D01*
X148677381Y-105917905D02*
X149486905Y-105917905D01*
X149582143Y-105870286D01*
X149629762Y-105822667D01*
X149677381Y-105727429D01*
X149677381Y-105536952D01*
X149629762Y-105441714D01*
X149582143Y-105394095D01*
X149486905Y-105346476D01*
X148677381Y-105346476D01*
X148772619Y-104917905D02*
X148725000Y-104870286D01*
X148677381Y-104775048D01*
X148677381Y-104536952D01*
X148725000Y-104441714D01*
X148772619Y-104394095D01*
X148867857Y-104346476D01*
X148963095Y-104346476D01*
X149105952Y-104394095D01*
X149677381Y-104965524D01*
X149677381Y-104346476D01*
X135469381Y-130047905D02*
X136278905Y-130047905D01*
X136374143Y-130000286D01*
X136421762Y-129952667D01*
X136469381Y-129857429D01*
X136469381Y-129666952D01*
X136421762Y-129571714D01*
X136374143Y-129524095D01*
X136278905Y-129476476D01*
X135469381Y-129476476D01*
X135469381Y-129095524D02*
X135469381Y-128476476D01*
X135850333Y-128809810D01*
X135850333Y-128666952D01*
X135897952Y-128571714D01*
X135945571Y-128524095D01*
X136040810Y-128476476D01*
X136278905Y-128476476D01*
X136374143Y-128524095D01*
X136421762Y-128571714D01*
X136469381Y-128666952D01*
X136469381Y-128952667D01*
X136421762Y-129047905D01*
X136374143Y-129095524D01*
X159980381Y-114347524D02*
X160980381Y-113680857D01*
X159980381Y-113680857D02*
X160980381Y-114347524D01*
X160980381Y-112776095D02*
X160980381Y-113347524D01*
X160980381Y-113061810D02*
X159980381Y-113061810D01*
X160123238Y-113157048D01*
X160218476Y-113252286D01*
X160266095Y-113347524D01*
X132024381Y-93686095D02*
X132024381Y-94257524D01*
X132024381Y-93971810D02*
X131024381Y-93971810D01*
X131167238Y-94067048D01*
X131262476Y-94162286D01*
X131310095Y-94257524D01*
X132024381Y-93257524D02*
X131024381Y-93257524D01*
X131643429Y-93162286D02*
X132024381Y-92876571D01*
X131357714Y-92876571D02*
X131738667Y-93257524D01*
X132024381Y-91686095D02*
X131024381Y-91686095D01*
X131024381Y-91305142D01*
X131072000Y-91209904D01*
X131119619Y-91162285D01*
X131214857Y-91114666D01*
X131357714Y-91114666D01*
X131452952Y-91162285D01*
X131500571Y-91209904D01*
X131548190Y-91305142D01*
X131548190Y-91686095D01*
X132024381Y-90543238D02*
X131976762Y-90638476D01*
X131929143Y-90686095D01*
X131833905Y-90733714D01*
X131548190Y-90733714D01*
X131452952Y-90686095D01*
X131405333Y-90638476D01*
X131357714Y-90543238D01*
X131357714Y-90400380D01*
X131405333Y-90305142D01*
X131452952Y-90257523D01*
X131548190Y-90209904D01*
X131833905Y-90209904D01*
X131929143Y-90257523D01*
X131976762Y-90305142D01*
X132024381Y-90400380D01*
X132024381Y-90543238D01*
X131357714Y-89924190D02*
X131357714Y-89543238D01*
X131024381Y-89781333D02*
X131881524Y-89781333D01*
X131976762Y-89733714D01*
X132024381Y-89638476D01*
X132024381Y-89543238D01*
M02*
